%TF.GenerationSoftware,KiCad,Pcbnew,8.0.4*%
%TF.CreationDate,2024-10-28T14:32:02-07:00*%
%TF.ProjectId,aqp_controller,6171705f-636f-46e7-9472-6f6c6c65722e,rev0*%
%TF.SameCoordinates,Original*%
%TF.FileFunction,Copper,L2,Inr*%
%TF.FilePolarity,Positive*%
%FSLAX46Y46*%
G04 Gerber Fmt 4.6, Leading zero omitted, Abs format (unit mm)*
G04 Created by KiCad (PCBNEW 8.0.4) date 2024-10-28 14:32:02*
%MOMM*%
%LPD*%
G01*
G04 APERTURE LIST*
%TA.AperFunction,ComponentPad*%
%ADD10O,2.600000X1.700000*%
%TD*%
%TA.AperFunction,ComponentPad*%
%ADD11O,0.890000X1.550000*%
%TD*%
%TA.AperFunction,ComponentPad*%
%ADD12O,1.250000X0.950000*%
%TD*%
%TA.AperFunction,HeatsinkPad*%
%ADD13C,0.600000*%
%TD*%
%TA.AperFunction,ViaPad*%
%ADD14C,0.400000*%
%TD*%
%TA.AperFunction,ViaPad*%
%ADD15C,0.600000*%
%TD*%
%TA.AperFunction,Conductor*%
%ADD16C,0.400000*%
%TD*%
G04 APERTURE END LIST*
D10*
%TO.N,ESP_3V3*%
%TO.C,J1*%
X135089318Y-79497752D03*
X135089318Y-82037752D03*
%TO.N,CHIP_PU*%
X135089318Y-84577752D03*
%TO.N,GPIO4*%
X135089318Y-87117752D03*
%TO.N,GPIO5*%
X135089318Y-89657752D03*
%TO.N,GPIO6*%
X135089318Y-92197752D03*
%TO.N,GPIO7*%
X135089318Y-94737752D03*
%TO.N,GPIO15*%
X135089318Y-97277752D03*
%TO.N,GPIO16*%
X135089318Y-99817752D03*
%TO.N,GPIO17*%
X135089318Y-102357752D03*
%TO.N,GPIO18*%
X135089318Y-104897752D03*
%TO.N,GPIO8*%
X135089318Y-107437752D03*
%TO.N,GPIO3*%
X135089318Y-109977752D03*
%TO.N,GPIO46*%
X135089318Y-112517752D03*
%TO.N,GPIO9*%
X135089318Y-115057752D03*
%TO.N,GPIO10*%
X135089318Y-117597752D03*
%TO.N,GPIO11*%
X135089318Y-120137752D03*
%TO.N,GPIO12*%
X135089318Y-122677752D03*
%TO.N,GPIO13*%
X135089318Y-125217752D03*
%TO.N,GPIO14*%
X135089318Y-127757752D03*
%TO.N,VCC_5V*%
X135089318Y-130297752D03*
%TO.N,GND*%
X135089318Y-132837752D03*
%TD*%
%TO.N,GND*%
%TO.C,J3*%
X157930000Y-79510000D03*
%TO.N,U0TXD*%
X157930000Y-82050000D03*
%TO.N,U0RXD*%
X157930000Y-84590000D03*
%TO.N,GPIO1*%
X157930000Y-87130000D03*
%TO.N,GPIO2*%
X157930000Y-89670000D03*
%TO.N,GPIO42*%
X157930000Y-92210000D03*
%TO.N,GPIO41*%
X157930000Y-94750000D03*
%TO.N,GPIO40*%
X157930000Y-97290000D03*
%TO.N,GPIO39*%
X157930000Y-99830000D03*
%TO.N,GPIO38*%
X157930000Y-102370000D03*
%TO.N,GPIO37*%
X157930000Y-104910000D03*
%TO.N,GPIO36*%
X157930000Y-107450000D03*
%TO.N,GPIO35*%
X157930000Y-109990000D03*
%TO.N,GPIO0*%
X157930000Y-112530000D03*
%TO.N,GPIO45*%
X157930000Y-115070000D03*
%TO.N,GPIO48*%
X157930000Y-117610000D03*
%TO.N,GPIO47*%
X157930000Y-120150000D03*
%TO.N,GPIO21*%
X157930000Y-122690000D03*
%TO.N,GPIO20*%
X157930000Y-125230000D03*
%TO.N,GPIO19*%
X157930000Y-127770000D03*
%TO.N,GND*%
X157930000Y-130310000D03*
X157930000Y-132850000D03*
%TD*%
D11*
%TO.N,GND*%
%TO.C,J2*%
X136650000Y-139300000D03*
D12*
X137650000Y-136600000D03*
X142650000Y-136600000D03*
D11*
X143650000Y-139300000D03*
%TD*%
%TO.N,GND*%
%TO.C,J4*%
X149200000Y-139300000D03*
D12*
X150200000Y-136600000D03*
X155200000Y-136600000D03*
D11*
X156200000Y-139300000D03*
%TD*%
D13*
%TO.N,GND*%
%TO.C,U4*%
X143616938Y-86060000D03*
X143616938Y-87460000D03*
X144316938Y-85360000D03*
X144316938Y-86760000D03*
X144316938Y-88160000D03*
X145016938Y-86060000D03*
X145016938Y-87460000D03*
X145716938Y-85360000D03*
X145716938Y-86760000D03*
X145716938Y-88160000D03*
X146416938Y-86060000D03*
X146416938Y-87460000D03*
%TD*%
D14*
%TO.N,GND*%
X150822365Y-116469986D03*
X147980205Y-116090602D03*
X140470563Y-95339972D03*
X143148336Y-105487492D03*
X151834773Y-112424098D03*
X149402750Y-112370563D03*
X153566758Y-98283887D03*
X148777251Y-95411691D03*
X143959092Y-95365804D03*
D15*
%TO.N,VCC_3V3*%
X139691387Y-121888701D03*
X139551430Y-106248570D03*
X139551430Y-110241495D03*
X152099994Y-104230092D03*
X143200000Y-118100000D03*
X143300000Y-103359636D03*
%TO.N,GND*%
X141568551Y-130595448D03*
X144745024Y-126651657D03*
X140664454Y-129875356D03*
X142933142Y-130609232D03*
X140339178Y-123584204D03*
X152700000Y-130525676D03*
X142702844Y-112223310D03*
X140200000Y-130600000D03*
X148435543Y-126620378D03*
X140432543Y-107867456D03*
X151317216Y-130521082D03*
X140393754Y-118942355D03*
X152118017Y-107156872D03*
X147615354Y-120350000D03*
X142971747Y-121265640D03*
X139322549Y-102229383D03*
X145592495Y-101416824D03*
X149952625Y-130541758D03*
D14*
%TO.N,U0RXD*%
X153909320Y-119291942D03*
X153419431Y-84120000D03*
%TO.N,U0TXD*%
X154204266Y-82850000D03*
X154003791Y-120592733D03*
D15*
%TO.N,VBUS*%
X138457344Y-121922592D03*
X145182943Y-129936970D03*
D14*
%TO.N,USB_DP*%
X142484738Y-133352826D03*
X147615353Y-117238265D03*
%TO.N,USB_DN*%
X147105443Y-116922046D03*
X141133175Y-133345656D03*
%TO.N,RTS*%
X151569194Y-115045497D03*
X150990679Y-120850000D03*
%TO.N,GPIO11*%
X144627330Y-97961927D03*
%TO.N,GPIO14*%
X148403475Y-97925592D03*
%TO.N,GPIO17*%
X138802371Y-90480094D03*
%TO.N,GPIO3*%
X138491578Y-97632930D03*
D15*
%TO.N,ESP_3V3*%
X139336607Y-80304643D03*
X140803160Y-99165402D03*
D14*
%TO.N,GPIO4*%
X138802371Y-82845260D03*
%TO.N,GPIO12*%
X145887440Y-97971561D03*
%TO.N,GPIO5*%
X138802371Y-84143601D03*
%TO.N,GPIO16*%
X138802371Y-89201737D03*
D15*
%TO.N,VCC_5V*%
X148973300Y-134418648D03*
X143951892Y-134455270D03*
X147451214Y-128314326D03*
X147673776Y-124797630D03*
X143139808Y-107812559D03*
D14*
%TO.N,GPIO15*%
X138802371Y-87927014D03*
%TO.N,GPIO9*%
X142056532Y-98034597D03*
%TO.N,GPIO13*%
X147146708Y-97964349D03*
%TO.N,GPIO8*%
X138802371Y-93044075D03*
%TO.N,GPIO7*%
X138802371Y-86662558D03*
%TO.N,GPIO6*%
X138802371Y-85397157D03*
%TO.N,GPIO46*%
X140612245Y-97944741D03*
%TO.N,GPIO18*%
X138802371Y-91723538D03*
%TO.N,CHIP_PU*%
X145273864Y-100684945D03*
X146894786Y-100761081D03*
X138802371Y-81576776D03*
X148854028Y-115020254D03*
X139547393Y-97958293D03*
X148366666Y-113660289D03*
X152450000Y-127850000D03*
%TO.N,GPIO10*%
X143347872Y-97976461D03*
%TO.N,GPIO45*%
X154170932Y-97156291D03*
%TO.N,GPIO0*%
X151563603Y-92963603D03*
X149200000Y-111100000D03*
X140939178Y-125615649D03*
X146450711Y-115097155D03*
%TO.N,GPIO39*%
X154271246Y-89204738D03*
%TO.N,GPIO35*%
X153849762Y-94281518D03*
%TO.N,GPIO42*%
X154200000Y-85390000D03*
%TO.N,GPIO20*%
X152749052Y-95475350D03*
%TO.N,GPIO36*%
X154218009Y-93010000D03*
%TO.N,GPIO47*%
X153811373Y-100386257D03*
%TO.N,GPIO21*%
X153136374Y-100418365D03*
%TO.N,GPIO41*%
X154229067Y-86657291D03*
%TO.N,GPIO1*%
X156227489Y-80595676D03*
%TO.N,GPIO38*%
X154287203Y-90470000D03*
%TO.N,GPIO37*%
X154279936Y-91740000D03*
%TO.N,GPIO40*%
X154272669Y-87931437D03*
%TO.N,GPIO48*%
X153744730Y-99461073D03*
%TO.N,GPIO2*%
X154181988Y-81580000D03*
%TO.N,GPIO19*%
X152386896Y-94600174D03*
X152040126Y-133412480D03*
%TO.N,Net-(Q1-C)*%
X147866666Y-110600000D03*
X147342495Y-113709004D03*
%TO.N,Net-(Q2-B)*%
X145916825Y-112816826D03*
X152709478Y-115125828D03*
%TO.N,Net-(Q2-C)*%
X145543970Y-110351656D03*
X144931121Y-113672669D03*
%TD*%
D16*
%TO.N,GND*%
X142933142Y-130609232D02*
X142933142Y-130526529D01*
X146487440Y-88930502D02*
X145716938Y-88160000D01*
X141568551Y-130595448D02*
X142919358Y-130595448D01*
X140339178Y-123584204D02*
X143406631Y-126651657D01*
X140393754Y-123529628D02*
X140339178Y-123584204D01*
X142702844Y-112223310D02*
X142702844Y-116633265D01*
X152700000Y-130525676D02*
X153625676Y-130525676D01*
X140648462Y-118942355D02*
X142971747Y-121265640D01*
X153841352Y-130310000D02*
X157930000Y-130310000D01*
X140432543Y-108832543D02*
X140432543Y-107867456D01*
X142702844Y-116633265D02*
X140393754Y-118942355D01*
X145592495Y-101416824D02*
X146040047Y-101416824D01*
X139752802Y-102659636D02*
X139322549Y-102229383D01*
X140393754Y-118942355D02*
X140393754Y-123529628D01*
X149857413Y-130636970D02*
X142960880Y-130636970D01*
X142702844Y-112223310D02*
X142702844Y-111102844D01*
X140396208Y-103303042D02*
X140396208Y-107831121D01*
X139322549Y-102229383D02*
X140396208Y-103303042D01*
X140339178Y-129550080D02*
X140664454Y-129875356D01*
X147615354Y-120350000D02*
X148435543Y-121170189D01*
X151780095Y-107156872D02*
X152118017Y-107156872D01*
X149952625Y-130541758D02*
X150200000Y-130789133D01*
X142933142Y-129366858D02*
X142933142Y-130609232D01*
X146040047Y-101416824D02*
X151780095Y-107156872D01*
X140700000Y-129910902D02*
X140700000Y-130600000D01*
X149952625Y-130541758D02*
X149857413Y-130636970D01*
X144745024Y-126651657D02*
X144745024Y-127554976D01*
X143084738Y-131018454D02*
X143084738Y-136165262D01*
X142933142Y-130866858D02*
X143084738Y-131018454D01*
X141563999Y-130600000D02*
X141568551Y-130595448D01*
X149952625Y-130541758D02*
X151296540Y-130541758D01*
X143406631Y-126651657D02*
X144745024Y-126651657D01*
X143084738Y-136165262D02*
X142650000Y-136600000D01*
X142933142Y-130609232D02*
X142933142Y-130866858D01*
X140664454Y-129875356D02*
X140700000Y-129910902D01*
X142919358Y-130595448D02*
X142933142Y-130609232D01*
X141200000Y-109600000D02*
X140432543Y-108832543D01*
X144745024Y-127554976D02*
X142933142Y-129366858D01*
X140200000Y-130600000D02*
X137962248Y-132837752D01*
X144349683Y-102659636D02*
X139752802Y-102659636D01*
X137962248Y-132837752D02*
X135089318Y-132837752D01*
X148435543Y-126620378D02*
X144776303Y-126620378D01*
X142971747Y-121265640D02*
X146699714Y-121265640D01*
X153625676Y-130525676D02*
X153841352Y-130310000D01*
X140393754Y-118942355D02*
X140648462Y-118942355D01*
X140396208Y-107831121D02*
X140432543Y-107867456D01*
X148435543Y-121170189D02*
X148435543Y-126620378D01*
X151317216Y-130521082D02*
X152695406Y-130521082D01*
X146699714Y-121265640D02*
X147615354Y-120350000D01*
X142702844Y-111102844D02*
X141200000Y-109600000D01*
X146487440Y-100319898D02*
X146487440Y-88930502D01*
X151296540Y-130541758D02*
X151317216Y-130521082D01*
X148435543Y-127335543D02*
X149952625Y-128852625D01*
X149952625Y-128852625D02*
X149952625Y-130541758D01*
X140339178Y-123584204D02*
X140339178Y-129550080D01*
X145592495Y-101416824D02*
X144349683Y-102659636D01*
X148435543Y-126620378D02*
X148435543Y-127335543D01*
X152695406Y-130521082D02*
X152700000Y-130525676D01*
X145592495Y-101416824D02*
X145592495Y-101214843D01*
X150200000Y-130789133D02*
X150200000Y-136600000D01*
X145592495Y-101214843D02*
X146487440Y-100319898D01*
X140200000Y-130600000D02*
X141563999Y-130600000D01*
X144776303Y-126620378D02*
X144745024Y-126651657D01*
X142960880Y-130636970D02*
X142933142Y-130609232D01*
%TD*%
%TA.AperFunction,Conductor*%
%TO.N,GND*%
G36*
X159143039Y-77569685D02*
G01*
X159188794Y-77622489D01*
X159200000Y-77674000D01*
X159200000Y-78210321D01*
X159180315Y-78277360D01*
X159127511Y-78323115D01*
X159058353Y-78333059D01*
X159019705Y-78320806D01*
X158898217Y-78258904D01*
X158696129Y-78193242D01*
X158486246Y-78160000D01*
X158180000Y-78160000D01*
X158180000Y-79076988D01*
X158122993Y-79044075D01*
X157995826Y-79010000D01*
X157864174Y-79010000D01*
X157737007Y-79044075D01*
X157680000Y-79076988D01*
X157680000Y-78160000D01*
X157373754Y-78160000D01*
X157163872Y-78193242D01*
X157163869Y-78193242D01*
X156961782Y-78258904D01*
X156772442Y-78355379D01*
X156600540Y-78480272D01*
X156600535Y-78480276D01*
X156450276Y-78630535D01*
X156450272Y-78630540D01*
X156325379Y-78802442D01*
X156228904Y-78991782D01*
X156163242Y-79193870D01*
X156163242Y-79193873D01*
X156152769Y-79260000D01*
X157496988Y-79260000D01*
X157464075Y-79317007D01*
X157430000Y-79444174D01*
X157430000Y-79575826D01*
X157464075Y-79702993D01*
X157496988Y-79760000D01*
X156152769Y-79760000D01*
X156155163Y-79775116D01*
X156146207Y-79844410D01*
X156101210Y-79897861D01*
X156062365Y-79914910D01*
X155977261Y-79935886D01*
X155826639Y-80014939D01*
X155699305Y-80127748D01*
X155602671Y-80267744D01*
X155542349Y-80426801D01*
X155542348Y-80426806D01*
X155521844Y-80595676D01*
X155542348Y-80764545D01*
X155542349Y-80764550D01*
X155602671Y-80923607D01*
X155610162Y-80934459D01*
X155699306Y-81063605D01*
X155766678Y-81123291D01*
X155826639Y-81176412D01*
X155975349Y-81254461D01*
X155977264Y-81255466D01*
X156142433Y-81296176D01*
X156146042Y-81296176D01*
X156148586Y-81296923D01*
X156149878Y-81297080D01*
X156149851Y-81297294D01*
X156213081Y-81315861D01*
X156258836Y-81368665D01*
X156268780Y-81437823D01*
X156256526Y-81476472D01*
X156228444Y-81531583D01*
X156162753Y-81733760D01*
X156135167Y-81907931D01*
X156129500Y-81943713D01*
X156129500Y-82156287D01*
X156162754Y-82366243D01*
X156224463Y-82556164D01*
X156228444Y-82568414D01*
X156324951Y-82757820D01*
X156449890Y-82929786D01*
X156600213Y-83080109D01*
X156772182Y-83205050D01*
X156780946Y-83209516D01*
X156831742Y-83257491D01*
X156848536Y-83325312D01*
X156825998Y-83391447D01*
X156780946Y-83430484D01*
X156772182Y-83434949D01*
X156600213Y-83559890D01*
X156449890Y-83710213D01*
X156324951Y-83882179D01*
X156228444Y-84071585D01*
X156162753Y-84273760D01*
X156129500Y-84483713D01*
X156129500Y-84696286D01*
X156160654Y-84892989D01*
X156162754Y-84906243D01*
X156224463Y-85096164D01*
X156228444Y-85108414D01*
X156324951Y-85297820D01*
X156449890Y-85469786D01*
X156600213Y-85620109D01*
X156772182Y-85745050D01*
X156780946Y-85749516D01*
X156831742Y-85797491D01*
X156848536Y-85865312D01*
X156825998Y-85931447D01*
X156780946Y-85970484D01*
X156772182Y-85974949D01*
X156600213Y-86099890D01*
X156449890Y-86250213D01*
X156324951Y-86422179D01*
X156228444Y-86611585D01*
X156162753Y-86813760D01*
X156135596Y-86985222D01*
X156129500Y-87023713D01*
X156129500Y-87236287D01*
X156133026Y-87258547D01*
X156151505Y-87375224D01*
X156162754Y-87446243D01*
X156224463Y-87636164D01*
X156228444Y-87648414D01*
X156324951Y-87837820D01*
X156449890Y-88009786D01*
X156600213Y-88160109D01*
X156772182Y-88285050D01*
X156780946Y-88289516D01*
X156831742Y-88337491D01*
X156848536Y-88405312D01*
X156825998Y-88471447D01*
X156780946Y-88510484D01*
X156772182Y-88514949D01*
X156600213Y-88639890D01*
X156449890Y-88790213D01*
X156324951Y-88962179D01*
X156228444Y-89151585D01*
X156162753Y-89353760D01*
X156159609Y-89373612D01*
X156129500Y-89563713D01*
X156129500Y-89776287D01*
X156130955Y-89785472D01*
X156154994Y-89937252D01*
X156162754Y-89986243D01*
X156224463Y-90176164D01*
X156228444Y-90188414D01*
X156324951Y-90377820D01*
X156449890Y-90549786D01*
X156600213Y-90700109D01*
X156772182Y-90825050D01*
X156780946Y-90829516D01*
X156831742Y-90877491D01*
X156848536Y-90945312D01*
X156825998Y-91011447D01*
X156780946Y-91050484D01*
X156772182Y-91054949D01*
X156600213Y-91179890D01*
X156449890Y-91330213D01*
X156324951Y-91502179D01*
X156228444Y-91691585D01*
X156162753Y-91893760D01*
X156129500Y-92103713D01*
X156129500Y-92316286D01*
X156157844Y-92495246D01*
X156162754Y-92526243D01*
X156224463Y-92716164D01*
X156228444Y-92728414D01*
X156324951Y-92917820D01*
X156449890Y-93089786D01*
X156600213Y-93240109D01*
X156772182Y-93365050D01*
X156780946Y-93369516D01*
X156831742Y-93417491D01*
X156848536Y-93485312D01*
X156825998Y-93551447D01*
X156780946Y-93590484D01*
X156772182Y-93594949D01*
X156600213Y-93719890D01*
X156449890Y-93870213D01*
X156324951Y-94042179D01*
X156228444Y-94231585D01*
X156162753Y-94433760D01*
X156160119Y-94450392D01*
X156129500Y-94643713D01*
X156129500Y-94856287D01*
X156162754Y-95066243D01*
X156224463Y-95256164D01*
X156228444Y-95268414D01*
X156324951Y-95457820D01*
X156449890Y-95629786D01*
X156600213Y-95780109D01*
X156772182Y-95905050D01*
X156780946Y-95909516D01*
X156831742Y-95957491D01*
X156848536Y-96025312D01*
X156825998Y-96091447D01*
X156780946Y-96130484D01*
X156772182Y-96134949D01*
X156600213Y-96259890D01*
X156449890Y-96410213D01*
X156324951Y-96582179D01*
X156228444Y-96771585D01*
X156162753Y-96973760D01*
X156150331Y-97052193D01*
X156129500Y-97183713D01*
X156129500Y-97396287D01*
X156137092Y-97444221D01*
X156161394Y-97597660D01*
X156162754Y-97606243D01*
X156226295Y-97801802D01*
X156228444Y-97808414D01*
X156324951Y-97997820D01*
X156449890Y-98169786D01*
X156600213Y-98320109D01*
X156772182Y-98445050D01*
X156780946Y-98449516D01*
X156831742Y-98497491D01*
X156848536Y-98565312D01*
X156825998Y-98631447D01*
X156780946Y-98670484D01*
X156772182Y-98674949D01*
X156600213Y-98799890D01*
X156449890Y-98950213D01*
X156324951Y-99122179D01*
X156228444Y-99311585D01*
X156162753Y-99513760D01*
X156129500Y-99723713D01*
X156129500Y-99936286D01*
X156156096Y-100104211D01*
X156162754Y-100146243D01*
X156224463Y-100336164D01*
X156228444Y-100348414D01*
X156324951Y-100537820D01*
X156449890Y-100709786D01*
X156600213Y-100860109D01*
X156772182Y-100985050D01*
X156780946Y-100989516D01*
X156831742Y-101037491D01*
X156848536Y-101105312D01*
X156825998Y-101171447D01*
X156780946Y-101210484D01*
X156772182Y-101214949D01*
X156600213Y-101339890D01*
X156449890Y-101490213D01*
X156324951Y-101662179D01*
X156228444Y-101851585D01*
X156162753Y-102053760D01*
X156131440Y-102251465D01*
X156129500Y-102263713D01*
X156129500Y-102476287D01*
X156162754Y-102686243D01*
X156224463Y-102876164D01*
X156228444Y-102888414D01*
X156324951Y-103077820D01*
X156449890Y-103249786D01*
X156600213Y-103400109D01*
X156772182Y-103525050D01*
X156780946Y-103529516D01*
X156831742Y-103577491D01*
X156848536Y-103645312D01*
X156825998Y-103711447D01*
X156780946Y-103750484D01*
X156772182Y-103754949D01*
X156600213Y-103879890D01*
X156449890Y-104030213D01*
X156324951Y-104202179D01*
X156228444Y-104391585D01*
X156162753Y-104593760D01*
X156140802Y-104732354D01*
X156129500Y-104803713D01*
X156129500Y-105016287D01*
X156162754Y-105226243D01*
X156224463Y-105416164D01*
X156228444Y-105428414D01*
X156324951Y-105617820D01*
X156449890Y-105789786D01*
X156600213Y-105940109D01*
X156772182Y-106065050D01*
X156780946Y-106069516D01*
X156831742Y-106117491D01*
X156848536Y-106185312D01*
X156825998Y-106251447D01*
X156780946Y-106290484D01*
X156772182Y-106294949D01*
X156600213Y-106419890D01*
X156449890Y-106570213D01*
X156324951Y-106742179D01*
X156228444Y-106931585D01*
X156162753Y-107133760D01*
X156154995Y-107182743D01*
X156129500Y-107343713D01*
X156129500Y-107556287D01*
X156162754Y-107766243D01*
X156224463Y-107956164D01*
X156228444Y-107968414D01*
X156324951Y-108157820D01*
X156449890Y-108329786D01*
X156600213Y-108480109D01*
X156772182Y-108605050D01*
X156780946Y-108609516D01*
X156831742Y-108657491D01*
X156848536Y-108725312D01*
X156825998Y-108791447D01*
X156780946Y-108830484D01*
X156772182Y-108834949D01*
X156600213Y-108959890D01*
X156449890Y-109110213D01*
X156324951Y-109282179D01*
X156228444Y-109471585D01*
X156162753Y-109673760D01*
X156147365Y-109770919D01*
X156129500Y-109883713D01*
X156129500Y-110096287D01*
X156162754Y-110306243D01*
X156224463Y-110496164D01*
X156228444Y-110508414D01*
X156324951Y-110697820D01*
X156449890Y-110869786D01*
X156600213Y-111020109D01*
X156772182Y-111145050D01*
X156780946Y-111149516D01*
X156831742Y-111197491D01*
X156848536Y-111265312D01*
X156825998Y-111331447D01*
X156780946Y-111370484D01*
X156772182Y-111374949D01*
X156600213Y-111499890D01*
X156449890Y-111650213D01*
X156324951Y-111822179D01*
X156228444Y-112011585D01*
X156162753Y-112213760D01*
X156131440Y-112411465D01*
X156129500Y-112423713D01*
X156129500Y-112636287D01*
X156131348Y-112647954D01*
X156158094Y-112816826D01*
X156162754Y-112846243D01*
X156224463Y-113036164D01*
X156228444Y-113048414D01*
X156324951Y-113237820D01*
X156449890Y-113409786D01*
X156600213Y-113560109D01*
X156772182Y-113685050D01*
X156780946Y-113689516D01*
X156831742Y-113737491D01*
X156848536Y-113805312D01*
X156825998Y-113871447D01*
X156780946Y-113910484D01*
X156772182Y-113914949D01*
X156600213Y-114039890D01*
X156449890Y-114190213D01*
X156324951Y-114362179D01*
X156228444Y-114551585D01*
X156162753Y-114753760D01*
X156129500Y-114963713D01*
X156129500Y-115176286D01*
X156143713Y-115266027D01*
X156162754Y-115386243D01*
X156224463Y-115576164D01*
X156228444Y-115588414D01*
X156324951Y-115777820D01*
X156449890Y-115949786D01*
X156600213Y-116100109D01*
X156772182Y-116225050D01*
X156780946Y-116229516D01*
X156831742Y-116277491D01*
X156848536Y-116345312D01*
X156825998Y-116411447D01*
X156780946Y-116450484D01*
X156772182Y-116454949D01*
X156600213Y-116579890D01*
X156449890Y-116730213D01*
X156324951Y-116902179D01*
X156228444Y-117091585D01*
X156162753Y-117293760D01*
X156131440Y-117491465D01*
X156129500Y-117503713D01*
X156129500Y-117716287D01*
X156162754Y-117926243D01*
X156224463Y-118116164D01*
X156228444Y-118128414D01*
X156324951Y-118317820D01*
X156449890Y-118489786D01*
X156600213Y-118640109D01*
X156772182Y-118765050D01*
X156780946Y-118769516D01*
X156831742Y-118817491D01*
X156848536Y-118885312D01*
X156825998Y-118951447D01*
X156780946Y-118990484D01*
X156772182Y-118994949D01*
X156600213Y-119119890D01*
X156449890Y-119270213D01*
X156324951Y-119442179D01*
X156228444Y-119631585D01*
X156162753Y-119833760D01*
X156138203Y-119988762D01*
X156129500Y-120043713D01*
X156129500Y-120256287D01*
X156130849Y-120264803D01*
X156156041Y-120423863D01*
X156162754Y-120466243D01*
X156224463Y-120656164D01*
X156228444Y-120668414D01*
X156324951Y-120857820D01*
X156449890Y-121029786D01*
X156600213Y-121180109D01*
X156772182Y-121305050D01*
X156780946Y-121309516D01*
X156831742Y-121357491D01*
X156848536Y-121425312D01*
X156825998Y-121491447D01*
X156780946Y-121530484D01*
X156772182Y-121534949D01*
X156600213Y-121659890D01*
X156449890Y-121810213D01*
X156324951Y-121982179D01*
X156228444Y-122171585D01*
X156162753Y-122373760D01*
X156145945Y-122479883D01*
X156129500Y-122583713D01*
X156129500Y-122796287D01*
X156162754Y-123006243D01*
X156224463Y-123196164D01*
X156228444Y-123208414D01*
X156324951Y-123397820D01*
X156449890Y-123569786D01*
X156600213Y-123720109D01*
X156772182Y-123845050D01*
X156780946Y-123849516D01*
X156831742Y-123897491D01*
X156848536Y-123965312D01*
X156825998Y-124031447D01*
X156780946Y-124070484D01*
X156772182Y-124074949D01*
X156600213Y-124199890D01*
X156449890Y-124350213D01*
X156324951Y-124522179D01*
X156228444Y-124711585D01*
X156162753Y-124913760D01*
X156129500Y-125123713D01*
X156129500Y-125336286D01*
X156146999Y-125446774D01*
X156162754Y-125546243D01*
X156224463Y-125736164D01*
X156228444Y-125748414D01*
X156324951Y-125937820D01*
X156449890Y-126109786D01*
X156600213Y-126260109D01*
X156772182Y-126385050D01*
X156780946Y-126389516D01*
X156831742Y-126437491D01*
X156848536Y-126505312D01*
X156825998Y-126571447D01*
X156780946Y-126610484D01*
X156772182Y-126614949D01*
X156600213Y-126739890D01*
X156449890Y-126890213D01*
X156324951Y-127062179D01*
X156228444Y-127251585D01*
X156162753Y-127453760D01*
X156150843Y-127528957D01*
X156129500Y-127663713D01*
X156129500Y-127876287D01*
X156162754Y-128086243D01*
X156224463Y-128276164D01*
X156228444Y-128288414D01*
X156324951Y-128477820D01*
X156449890Y-128649786D01*
X156600213Y-128800109D01*
X156772179Y-128925048D01*
X156772181Y-128925049D01*
X156772184Y-128925051D01*
X156781493Y-128929794D01*
X156832290Y-128977766D01*
X156849087Y-129045587D01*
X156826552Y-129111722D01*
X156781502Y-129150762D01*
X156772443Y-129155378D01*
X156600540Y-129280272D01*
X156600535Y-129280276D01*
X156450276Y-129430535D01*
X156450272Y-129430540D01*
X156325379Y-129602442D01*
X156228904Y-129791782D01*
X156163242Y-129993870D01*
X156163242Y-129993873D01*
X156152769Y-130060000D01*
X157496988Y-130060000D01*
X157464075Y-130117007D01*
X157430000Y-130244174D01*
X157430000Y-130375826D01*
X157464075Y-130502993D01*
X157496988Y-130560000D01*
X156152769Y-130560000D01*
X156163242Y-130626126D01*
X156163242Y-130626129D01*
X156228904Y-130828217D01*
X156325379Y-131017557D01*
X156450272Y-131189459D01*
X156450276Y-131189464D01*
X156600535Y-131339723D01*
X156600540Y-131339727D01*
X156772444Y-131464622D01*
X156782048Y-131469516D01*
X156832844Y-131517491D01*
X156849638Y-131585312D01*
X156827100Y-131651447D01*
X156782048Y-131690484D01*
X156772444Y-131695377D01*
X156600540Y-131820272D01*
X156600535Y-131820276D01*
X156450276Y-131970535D01*
X156450272Y-131970540D01*
X156325379Y-132142442D01*
X156228904Y-132331782D01*
X156163242Y-132533870D01*
X156163242Y-132533873D01*
X156152769Y-132600000D01*
X157496988Y-132600000D01*
X157464075Y-132657007D01*
X157430000Y-132784174D01*
X157430000Y-132915826D01*
X157464075Y-133042993D01*
X157496988Y-133100000D01*
X156152769Y-133100000D01*
X156163242Y-133166126D01*
X156163242Y-133166129D01*
X156228904Y-133368217D01*
X156325379Y-133557557D01*
X156450272Y-133729459D01*
X156450276Y-133729464D01*
X156600535Y-133879723D01*
X156600540Y-133879727D01*
X156772442Y-134004620D01*
X156961782Y-134101095D01*
X157163870Y-134166757D01*
X157373754Y-134200000D01*
X157680000Y-134200000D01*
X157680000Y-133283012D01*
X157737007Y-133315925D01*
X157864174Y-133350000D01*
X157995826Y-133350000D01*
X158122993Y-133315925D01*
X158180000Y-133283012D01*
X158180000Y-134200000D01*
X158486246Y-134200000D01*
X158696127Y-134166757D01*
X158696130Y-134166757D01*
X158898219Y-134101094D01*
X159019704Y-134039194D01*
X159088373Y-134026297D01*
X159153114Y-134052573D01*
X159193371Y-134109679D01*
X159200000Y-134149678D01*
X159200000Y-140467485D01*
X159180317Y-140534522D01*
X159136849Y-140602163D01*
X159115943Y-140626879D01*
X159038136Y-140697612D01*
X159011547Y-140716074D01*
X158918091Y-140764256D01*
X158887629Y-140775207D01*
X158782872Y-140797997D01*
X158754658Y-140800817D01*
X158700009Y-140800000D01*
X158700000Y-140800000D01*
X156420916Y-140800000D01*
X156353877Y-140780315D01*
X156308122Y-140727511D01*
X156298178Y-140658353D01*
X156327203Y-140594797D01*
X156385981Y-140557023D01*
X156396725Y-140554383D01*
X156475638Y-140538685D01*
X156475646Y-140538683D01*
X156647622Y-140467449D01*
X156647631Y-140467444D01*
X156802401Y-140364029D01*
X156802405Y-140364026D01*
X156934026Y-140232405D01*
X156934029Y-140232401D01*
X157037444Y-140077631D01*
X157037449Y-140077622D01*
X157108683Y-139905646D01*
X157108685Y-139905638D01*
X157144999Y-139723078D01*
X157145000Y-139723076D01*
X157145000Y-139550000D01*
X156450000Y-139550000D01*
X156450000Y-139050000D01*
X157145000Y-139050000D01*
X157145000Y-138876923D01*
X157144999Y-138876921D01*
X157108685Y-138694361D01*
X157108683Y-138694353D01*
X157037449Y-138522377D01*
X157037444Y-138522368D01*
X156934029Y-138367598D01*
X156934026Y-138367594D01*
X156802405Y-138235973D01*
X156802401Y-138235970D01*
X156647631Y-138132555D01*
X156647622Y-138132550D01*
X156475648Y-138061317D01*
X156450000Y-138056214D01*
X156450000Y-138925272D01*
X156411940Y-138833386D01*
X156341614Y-138763060D01*
X156249728Y-138725000D01*
X156150272Y-138725000D01*
X156058386Y-138763060D01*
X155988060Y-138833386D01*
X155950000Y-138925272D01*
X155950000Y-138056214D01*
X155924351Y-138061317D01*
X155752377Y-138132550D01*
X155752368Y-138132555D01*
X155597598Y-138235970D01*
X155597594Y-138235973D01*
X155465973Y-138367594D01*
X155465970Y-138367598D01*
X155362555Y-138522368D01*
X155362550Y-138522377D01*
X155291316Y-138694353D01*
X155291314Y-138694361D01*
X155255000Y-138876921D01*
X155255000Y-139050000D01*
X155950000Y-139050000D01*
X155950000Y-139550000D01*
X155255000Y-139550000D01*
X155255000Y-139723078D01*
X155291314Y-139905638D01*
X155291316Y-139905646D01*
X155362550Y-140077622D01*
X155362555Y-140077631D01*
X155465970Y-140232401D01*
X155465973Y-140232405D01*
X155597594Y-140364026D01*
X155597598Y-140364029D01*
X155752368Y-140467444D01*
X155752377Y-140467449D01*
X155924353Y-140538683D01*
X155924361Y-140538685D01*
X156003275Y-140554383D01*
X156065186Y-140586768D01*
X156099760Y-140647484D01*
X156096021Y-140717253D01*
X156055154Y-140773925D01*
X155990136Y-140799506D01*
X155979084Y-140800000D01*
X149420916Y-140800000D01*
X149353877Y-140780315D01*
X149308122Y-140727511D01*
X149298178Y-140658353D01*
X149327203Y-140594797D01*
X149385981Y-140557023D01*
X149396725Y-140554383D01*
X149475638Y-140538685D01*
X149475646Y-140538683D01*
X149647622Y-140467449D01*
X149647631Y-140467444D01*
X149802401Y-140364029D01*
X149802405Y-140364026D01*
X149934026Y-140232405D01*
X149934029Y-140232401D01*
X150037444Y-140077631D01*
X150037449Y-140077622D01*
X150108683Y-139905646D01*
X150108685Y-139905638D01*
X150144999Y-139723078D01*
X150145000Y-139723076D01*
X150145000Y-139550000D01*
X149450000Y-139550000D01*
X149450000Y-139050000D01*
X150145000Y-139050000D01*
X150145000Y-138876923D01*
X150144999Y-138876921D01*
X150108685Y-138694361D01*
X150108683Y-138694353D01*
X150037449Y-138522377D01*
X150037444Y-138522368D01*
X149934029Y-138367598D01*
X149934026Y-138367594D01*
X149802405Y-138235973D01*
X149802401Y-138235970D01*
X149647631Y-138132555D01*
X149647622Y-138132550D01*
X149475648Y-138061317D01*
X149450000Y-138056214D01*
X149450000Y-138925272D01*
X149411940Y-138833386D01*
X149341614Y-138763060D01*
X149249728Y-138725000D01*
X149150272Y-138725000D01*
X149058386Y-138763060D01*
X148988060Y-138833386D01*
X148950000Y-138925272D01*
X148950000Y-138056214D01*
X148924351Y-138061317D01*
X148752377Y-138132550D01*
X148752368Y-138132555D01*
X148597598Y-138235970D01*
X148597594Y-138235973D01*
X148465973Y-138367594D01*
X148465970Y-138367598D01*
X148362555Y-138522368D01*
X148362550Y-138522377D01*
X148291316Y-138694353D01*
X148291314Y-138694361D01*
X148255000Y-138876921D01*
X148255000Y-139050000D01*
X148950000Y-139050000D01*
X148950000Y-139550000D01*
X148255000Y-139550000D01*
X148255000Y-139723078D01*
X148291314Y-139905638D01*
X148291316Y-139905646D01*
X148362550Y-140077622D01*
X148362555Y-140077631D01*
X148465970Y-140232401D01*
X148465973Y-140232405D01*
X148597594Y-140364026D01*
X148597598Y-140364029D01*
X148752368Y-140467444D01*
X148752377Y-140467449D01*
X148924353Y-140538683D01*
X148924361Y-140538685D01*
X149003275Y-140554383D01*
X149065186Y-140586768D01*
X149099760Y-140647484D01*
X149096021Y-140717253D01*
X149055154Y-140773925D01*
X148990136Y-140799506D01*
X148979084Y-140800000D01*
X143870916Y-140800000D01*
X143803877Y-140780315D01*
X143758122Y-140727511D01*
X143748178Y-140658353D01*
X143777203Y-140594797D01*
X143835981Y-140557023D01*
X143846725Y-140554383D01*
X143925638Y-140538685D01*
X143925646Y-140538683D01*
X144097622Y-140467449D01*
X144097631Y-140467444D01*
X144252401Y-140364029D01*
X144252405Y-140364026D01*
X144384026Y-140232405D01*
X144384029Y-140232401D01*
X144487444Y-140077631D01*
X144487449Y-140077622D01*
X144558683Y-139905646D01*
X144558685Y-139905638D01*
X144594999Y-139723078D01*
X144595000Y-139723076D01*
X144595000Y-139550000D01*
X143900000Y-139550000D01*
X143900000Y-139050000D01*
X144595000Y-139050000D01*
X144595000Y-138876923D01*
X144594999Y-138876921D01*
X144558685Y-138694361D01*
X144558683Y-138694353D01*
X144487449Y-138522377D01*
X144487444Y-138522368D01*
X144384029Y-138367598D01*
X144384026Y-138367594D01*
X144252405Y-138235973D01*
X144252401Y-138235970D01*
X144097631Y-138132555D01*
X144097622Y-138132550D01*
X143925648Y-138061317D01*
X143900000Y-138056214D01*
X143900000Y-138925272D01*
X143861940Y-138833386D01*
X143791614Y-138763060D01*
X143699728Y-138725000D01*
X143600272Y-138725000D01*
X143508386Y-138763060D01*
X143438060Y-138833386D01*
X143400000Y-138925272D01*
X143400000Y-138056214D01*
X143374351Y-138061317D01*
X143202377Y-138132550D01*
X143202368Y-138132555D01*
X143047598Y-138235970D01*
X143047594Y-138235973D01*
X142915973Y-138367594D01*
X142915970Y-138367598D01*
X142812555Y-138522368D01*
X142812550Y-138522377D01*
X142741316Y-138694353D01*
X142741314Y-138694361D01*
X142705000Y-138876921D01*
X142705000Y-139050000D01*
X143400000Y-139050000D01*
X143400000Y-139550000D01*
X142705000Y-139550000D01*
X142705000Y-139723078D01*
X142741314Y-139905638D01*
X142741316Y-139905646D01*
X142812550Y-140077622D01*
X142812555Y-140077631D01*
X142915970Y-140232401D01*
X142915973Y-140232405D01*
X143047594Y-140364026D01*
X143047598Y-140364029D01*
X143202368Y-140467444D01*
X143202377Y-140467449D01*
X143374353Y-140538683D01*
X143374361Y-140538685D01*
X143453275Y-140554383D01*
X143515186Y-140586768D01*
X143549760Y-140647484D01*
X143546021Y-140717253D01*
X143505154Y-140773925D01*
X143440136Y-140799506D01*
X143429084Y-140800000D01*
X136870916Y-140800000D01*
X136803877Y-140780315D01*
X136758122Y-140727511D01*
X136748178Y-140658353D01*
X136777203Y-140594797D01*
X136835981Y-140557023D01*
X136846725Y-140554383D01*
X136925638Y-140538685D01*
X136925646Y-140538683D01*
X137097622Y-140467449D01*
X137097631Y-140467444D01*
X137252401Y-140364029D01*
X137252405Y-140364026D01*
X137384026Y-140232405D01*
X137384029Y-140232401D01*
X137487444Y-140077631D01*
X137487449Y-140077622D01*
X137558683Y-139905646D01*
X137558685Y-139905638D01*
X137594999Y-139723078D01*
X137595000Y-139723076D01*
X137595000Y-139550000D01*
X136900000Y-139550000D01*
X136900000Y-139050000D01*
X137595000Y-139050000D01*
X137595000Y-138876923D01*
X137594999Y-138876921D01*
X137558685Y-138694361D01*
X137558683Y-138694353D01*
X137487449Y-138522377D01*
X137487444Y-138522368D01*
X137384029Y-138367598D01*
X137384026Y-138367594D01*
X137252405Y-138235973D01*
X137252401Y-138235970D01*
X137097631Y-138132555D01*
X137097622Y-138132550D01*
X136925648Y-138061317D01*
X136900000Y-138056214D01*
X136900000Y-138925272D01*
X136861940Y-138833386D01*
X136791614Y-138763060D01*
X136699728Y-138725000D01*
X136600272Y-138725000D01*
X136508386Y-138763060D01*
X136438060Y-138833386D01*
X136400000Y-138925272D01*
X136400000Y-138056214D01*
X136374351Y-138061317D01*
X136202377Y-138132550D01*
X136202368Y-138132555D01*
X136047598Y-138235970D01*
X136047594Y-138235973D01*
X135915973Y-138367594D01*
X135915970Y-138367598D01*
X135812555Y-138522368D01*
X135812550Y-138522377D01*
X135741316Y-138694353D01*
X135741314Y-138694361D01*
X135705000Y-138876921D01*
X135705000Y-139050000D01*
X136400000Y-139050000D01*
X136400000Y-139550000D01*
X135705000Y-139550000D01*
X135705000Y-139723078D01*
X135741314Y-139905638D01*
X135741316Y-139905646D01*
X135812550Y-140077622D01*
X135812555Y-140077631D01*
X135915970Y-140232401D01*
X135915973Y-140232405D01*
X136047594Y-140364026D01*
X136047598Y-140364029D01*
X136202368Y-140467444D01*
X136202377Y-140467449D01*
X136374353Y-140538683D01*
X136374361Y-140538685D01*
X136453275Y-140554383D01*
X136515186Y-140586768D01*
X136549760Y-140647484D01*
X136546021Y-140717253D01*
X136505154Y-140773925D01*
X136440136Y-140799506D01*
X136429084Y-140800000D01*
X134299991Y-140800000D01*
X134245508Y-140800975D01*
X134216929Y-140798161D01*
X134134899Y-140780315D01*
X134112303Y-140775399D01*
X134081842Y-140764448D01*
X133988334Y-140716239D01*
X133961745Y-140697777D01*
X133883900Y-140627009D01*
X133862996Y-140602296D01*
X133806120Y-140513792D01*
X133792325Y-140484510D01*
X133759724Y-140382519D01*
X133754207Y-140354337D01*
X133750370Y-140304778D01*
X133750000Y-140295206D01*
X133750000Y-136350000D01*
X136555626Y-136350000D01*
X137384943Y-136350000D01*
X137344225Y-136366866D01*
X137266866Y-136444225D01*
X137225000Y-136545299D01*
X137225000Y-136654701D01*
X137266866Y-136755775D01*
X137344225Y-136833134D01*
X137384943Y-136850000D01*
X136555626Y-136850000D01*
X136562466Y-136884389D01*
X136562468Y-136884397D01*
X136635964Y-137061833D01*
X136635969Y-137061842D01*
X136742667Y-137221526D01*
X136742670Y-137221530D01*
X136878469Y-137357329D01*
X136878473Y-137357332D01*
X137038157Y-137464030D01*
X137038166Y-137464035D01*
X137215602Y-137537531D01*
X137215610Y-137537533D01*
X137399999Y-137574210D01*
X137400000Y-137574210D01*
X137400000Y-136856236D01*
X137445299Y-136875000D01*
X137854701Y-136875000D01*
X137900000Y-136856236D01*
X137900000Y-137574210D01*
X138084389Y-137537533D01*
X138084397Y-137537531D01*
X138261833Y-137464035D01*
X138261842Y-137464030D01*
X138421526Y-137357332D01*
X138421530Y-137357329D01*
X138557329Y-137221530D01*
X138557332Y-137221526D01*
X138664030Y-137061842D01*
X138664035Y-137061833D01*
X138737531Y-136884397D01*
X138737533Y-136884389D01*
X138744374Y-136850000D01*
X137915057Y-136850000D01*
X137955775Y-136833134D01*
X138033134Y-136755775D01*
X138075000Y-136654701D01*
X138075000Y-136545299D01*
X138033134Y-136444225D01*
X137955775Y-136366866D01*
X137915057Y-136350000D01*
X138744374Y-136350000D01*
X141555626Y-136350000D01*
X142384943Y-136350000D01*
X142344225Y-136366866D01*
X142266866Y-136444225D01*
X142225000Y-136545299D01*
X142225000Y-136654701D01*
X142266866Y-136755775D01*
X142344225Y-136833134D01*
X142384943Y-136850000D01*
X141555626Y-136850000D01*
X141562466Y-136884389D01*
X141562468Y-136884397D01*
X141635964Y-137061833D01*
X141635969Y-137061842D01*
X141742667Y-137221526D01*
X141742670Y-137221530D01*
X141878469Y-137357329D01*
X141878473Y-137357332D01*
X142038157Y-137464030D01*
X142038166Y-137464035D01*
X142215602Y-137537531D01*
X142215610Y-137537533D01*
X142399999Y-137574210D01*
X142400000Y-137574210D01*
X142400000Y-136856236D01*
X142445299Y-136875000D01*
X142854701Y-136875000D01*
X142900000Y-136856236D01*
X142900000Y-137574210D01*
X143084389Y-137537533D01*
X143084397Y-137537531D01*
X143261833Y-137464035D01*
X143261842Y-137464030D01*
X143421526Y-137357332D01*
X143421530Y-137357329D01*
X143557329Y-137221530D01*
X143557332Y-137221526D01*
X143664030Y-137061842D01*
X143664035Y-137061833D01*
X143737531Y-136884397D01*
X143737533Y-136884389D01*
X143744374Y-136850000D01*
X142915057Y-136850000D01*
X142955775Y-136833134D01*
X143033134Y-136755775D01*
X143075000Y-136654701D01*
X143075000Y-136545299D01*
X143033134Y-136444225D01*
X142955775Y-136366866D01*
X142915057Y-136350000D01*
X143744374Y-136350000D01*
X149105626Y-136350000D01*
X149934943Y-136350000D01*
X149894225Y-136366866D01*
X149816866Y-136444225D01*
X149775000Y-136545299D01*
X149775000Y-136654701D01*
X149816866Y-136755775D01*
X149894225Y-136833134D01*
X149934943Y-136850000D01*
X149105626Y-136850000D01*
X149112466Y-136884389D01*
X149112468Y-136884397D01*
X149185964Y-137061833D01*
X149185969Y-137061842D01*
X149292667Y-137221526D01*
X149292670Y-137221530D01*
X149428469Y-137357329D01*
X149428473Y-137357332D01*
X149588157Y-137464030D01*
X149588166Y-137464035D01*
X149765602Y-137537531D01*
X149765610Y-137537533D01*
X149949999Y-137574210D01*
X149950000Y-137574210D01*
X149950000Y-136856236D01*
X149995299Y-136875000D01*
X150404701Y-136875000D01*
X150450000Y-136856236D01*
X150450000Y-137574210D01*
X150634389Y-137537533D01*
X150634397Y-137537531D01*
X150811833Y-137464035D01*
X150811842Y-137464030D01*
X150971526Y-137357332D01*
X150971530Y-137357329D01*
X151107329Y-137221530D01*
X151107332Y-137221526D01*
X151214030Y-137061842D01*
X151214035Y-137061833D01*
X151287531Y-136884397D01*
X151287533Y-136884389D01*
X151294374Y-136850000D01*
X150465057Y-136850000D01*
X150505775Y-136833134D01*
X150583134Y-136755775D01*
X150625000Y-136654701D01*
X150625000Y-136545299D01*
X150583134Y-136444225D01*
X150505775Y-136366866D01*
X150465057Y-136350000D01*
X151294374Y-136350000D01*
X154105626Y-136350000D01*
X154934943Y-136350000D01*
X154894225Y-136366866D01*
X154816866Y-136444225D01*
X154775000Y-136545299D01*
X154775000Y-136654701D01*
X154816866Y-136755775D01*
X154894225Y-136833134D01*
X154934943Y-136850000D01*
X154105626Y-136850000D01*
X154112466Y-136884389D01*
X154112468Y-136884397D01*
X154185964Y-137061833D01*
X154185969Y-137061842D01*
X154292667Y-137221526D01*
X154292670Y-137221530D01*
X154428469Y-137357329D01*
X154428473Y-137357332D01*
X154588157Y-137464030D01*
X154588166Y-137464035D01*
X154765602Y-137537531D01*
X154765610Y-137537533D01*
X154949999Y-137574210D01*
X154950000Y-137574210D01*
X154950000Y-136856236D01*
X154995299Y-136875000D01*
X155404701Y-136875000D01*
X155450000Y-136856236D01*
X155450000Y-137574210D01*
X155634389Y-137537533D01*
X155634397Y-137537531D01*
X155811833Y-137464035D01*
X155811842Y-137464030D01*
X155971526Y-137357332D01*
X155971530Y-137357329D01*
X156107329Y-137221530D01*
X156107332Y-137221526D01*
X156214030Y-137061842D01*
X156214035Y-137061833D01*
X156287531Y-136884397D01*
X156287533Y-136884389D01*
X156294374Y-136850000D01*
X155465057Y-136850000D01*
X155505775Y-136833134D01*
X155583134Y-136755775D01*
X155625000Y-136654701D01*
X155625000Y-136545299D01*
X155583134Y-136444225D01*
X155505775Y-136366866D01*
X155465057Y-136350000D01*
X156294374Y-136350000D01*
X156287533Y-136315610D01*
X156287531Y-136315602D01*
X156214035Y-136138166D01*
X156214030Y-136138157D01*
X156107332Y-135978473D01*
X156107329Y-135978469D01*
X155971530Y-135842670D01*
X155971526Y-135842667D01*
X155811842Y-135735969D01*
X155811833Y-135735964D01*
X155634397Y-135662468D01*
X155634389Y-135662466D01*
X155450000Y-135625788D01*
X155450000Y-136343763D01*
X155404701Y-136325000D01*
X154995299Y-136325000D01*
X154950000Y-136343763D01*
X154950000Y-135625789D01*
X154949999Y-135625788D01*
X154765610Y-135662466D01*
X154765602Y-135662468D01*
X154588166Y-135735964D01*
X154588157Y-135735969D01*
X154428473Y-135842667D01*
X154428469Y-135842670D01*
X154292670Y-135978469D01*
X154292667Y-135978473D01*
X154185969Y-136138157D01*
X154185964Y-136138166D01*
X154112468Y-136315602D01*
X154112466Y-136315610D01*
X154105626Y-136350000D01*
X151294374Y-136350000D01*
X151287533Y-136315610D01*
X151287531Y-136315602D01*
X151214035Y-136138166D01*
X151214030Y-136138157D01*
X151107332Y-135978473D01*
X151107329Y-135978469D01*
X150971530Y-135842670D01*
X150971526Y-135842667D01*
X150811842Y-135735969D01*
X150811833Y-135735964D01*
X150634397Y-135662468D01*
X150634389Y-135662466D01*
X150450000Y-135625788D01*
X150450000Y-136343763D01*
X150404701Y-136325000D01*
X149995299Y-136325000D01*
X149950000Y-136343763D01*
X149950000Y-135625789D01*
X149949999Y-135625788D01*
X149765610Y-135662466D01*
X149765602Y-135662468D01*
X149588166Y-135735964D01*
X149588157Y-135735969D01*
X149428473Y-135842667D01*
X149428469Y-135842670D01*
X149292670Y-135978469D01*
X149292667Y-135978473D01*
X149185969Y-136138157D01*
X149185964Y-136138166D01*
X149112468Y-136315602D01*
X149112466Y-136315610D01*
X149105626Y-136350000D01*
X143744374Y-136350000D01*
X143737533Y-136315610D01*
X143737531Y-136315602D01*
X143664035Y-136138166D01*
X143664030Y-136138157D01*
X143557332Y-135978473D01*
X143557329Y-135978469D01*
X143421530Y-135842670D01*
X143421526Y-135842667D01*
X143261842Y-135735969D01*
X143261833Y-135735964D01*
X143084397Y-135662468D01*
X143084389Y-135662466D01*
X142900000Y-135625788D01*
X142900000Y-136343763D01*
X142854701Y-136325000D01*
X142445299Y-136325000D01*
X142400000Y-136343763D01*
X142400000Y-135625789D01*
X142399999Y-135625788D01*
X142215610Y-135662466D01*
X142215602Y-135662468D01*
X142038166Y-135735964D01*
X142038157Y-135735969D01*
X141878473Y-135842667D01*
X141878469Y-135842670D01*
X141742670Y-135978469D01*
X141742667Y-135978473D01*
X141635969Y-136138157D01*
X141635964Y-136138166D01*
X141562468Y-136315602D01*
X141562466Y-136315610D01*
X141555626Y-136350000D01*
X138744374Y-136350000D01*
X138737533Y-136315610D01*
X138737531Y-136315602D01*
X138664035Y-136138166D01*
X138664030Y-136138157D01*
X138557332Y-135978473D01*
X138557329Y-135978469D01*
X138421530Y-135842670D01*
X138421526Y-135842667D01*
X138261842Y-135735969D01*
X138261833Y-135735964D01*
X138084397Y-135662468D01*
X138084389Y-135662466D01*
X137900000Y-135625788D01*
X137900000Y-136343763D01*
X137854701Y-136325000D01*
X137445299Y-136325000D01*
X137400000Y-136343763D01*
X137400000Y-135625789D01*
X137399999Y-135625788D01*
X137215610Y-135662466D01*
X137215602Y-135662468D01*
X137038166Y-135735964D01*
X137038157Y-135735969D01*
X136878473Y-135842667D01*
X136878469Y-135842670D01*
X136742670Y-135978469D01*
X136742667Y-135978473D01*
X136635969Y-136138157D01*
X136635964Y-136138166D01*
X136562468Y-136315602D01*
X136562466Y-136315610D01*
X136555626Y-136350000D01*
X133750000Y-136350000D01*
X133750000Y-134455266D01*
X143146327Y-134455266D01*
X143146327Y-134455273D01*
X143166522Y-134634519D01*
X143166523Y-134634524D01*
X143226103Y-134804793D01*
X143299065Y-134920910D01*
X143322076Y-134957532D01*
X143449630Y-135085086D01*
X143602370Y-135181059D01*
X143725697Y-135224213D01*
X143772637Y-135240638D01*
X143772642Y-135240639D01*
X143951888Y-135260835D01*
X143951892Y-135260835D01*
X143951896Y-135260835D01*
X144131141Y-135240639D01*
X144131144Y-135240638D01*
X144131147Y-135240638D01*
X144301414Y-135181059D01*
X144454154Y-135085086D01*
X144581708Y-134957532D01*
X144677681Y-134804792D01*
X144737260Y-134634525D01*
X144737261Y-134634519D01*
X144757457Y-134455273D01*
X144757457Y-134455266D01*
X144753331Y-134418644D01*
X148167735Y-134418644D01*
X148167735Y-134418651D01*
X148187930Y-134597897D01*
X148187931Y-134597902D01*
X148247511Y-134768171D01*
X148343484Y-134920910D01*
X148471038Y-135048464D01*
X148623778Y-135144437D01*
X148728435Y-135181058D01*
X148794045Y-135204016D01*
X148794050Y-135204017D01*
X148973296Y-135224213D01*
X148973300Y-135224213D01*
X148973304Y-135224213D01*
X149152549Y-135204017D01*
X149152552Y-135204016D01*
X149152555Y-135204016D01*
X149322822Y-135144437D01*
X149475562Y-135048464D01*
X149603116Y-134920910D01*
X149699089Y-134768170D01*
X149758668Y-134597903D01*
X149758669Y-134597897D01*
X149778865Y-134418651D01*
X149778865Y-134418644D01*
X149758669Y-134239398D01*
X149758668Y-134239393D01*
X149740598Y-134187752D01*
X149699089Y-134069126D01*
X149680281Y-134039194D01*
X149658557Y-134004620D01*
X149603116Y-133916386D01*
X149475562Y-133788832D01*
X149415641Y-133751181D01*
X149322823Y-133692859D01*
X149152554Y-133633279D01*
X149152549Y-133633278D01*
X148973304Y-133613083D01*
X148973296Y-133613083D01*
X148794050Y-133633278D01*
X148794045Y-133633279D01*
X148623776Y-133692859D01*
X148471037Y-133788832D01*
X148343484Y-133916385D01*
X148247511Y-134069124D01*
X148187931Y-134239393D01*
X148187930Y-134239398D01*
X148167735Y-134418644D01*
X144753331Y-134418644D01*
X144737261Y-134276020D01*
X144737260Y-134276015D01*
X144693053Y-134149678D01*
X144677681Y-134105748D01*
X144674757Y-134101095D01*
X144619162Y-134012616D01*
X144581708Y-133953008D01*
X144454154Y-133825454D01*
X144435265Y-133813585D01*
X144301415Y-133729481D01*
X144131146Y-133669901D01*
X144131141Y-133669900D01*
X143951896Y-133649705D01*
X143951888Y-133649705D01*
X143772642Y-133669900D01*
X143772637Y-133669901D01*
X143602368Y-133729481D01*
X143449629Y-133825454D01*
X143322076Y-133953007D01*
X143226103Y-134105746D01*
X143166523Y-134276015D01*
X143166522Y-134276020D01*
X143146327Y-134455266D01*
X133750000Y-134455266D01*
X133750000Y-134102111D01*
X133769685Y-134035072D01*
X133822489Y-133989317D01*
X133891647Y-133979373D01*
X133930295Y-133991626D01*
X134121100Y-134088847D01*
X134323188Y-134154509D01*
X134533072Y-134187752D01*
X134839318Y-134187752D01*
X134839318Y-133270764D01*
X134896325Y-133303677D01*
X135023492Y-133337752D01*
X135155144Y-133337752D01*
X135282311Y-133303677D01*
X135339318Y-133270764D01*
X135339318Y-134187752D01*
X135645564Y-134187752D01*
X135855445Y-134154509D01*
X135855448Y-134154509D01*
X136057535Y-134088847D01*
X136246875Y-133992372D01*
X136418777Y-133867479D01*
X136418782Y-133867475D01*
X136569041Y-133717216D01*
X136569045Y-133717211D01*
X136693938Y-133545309D01*
X136790413Y-133355969D01*
X136793764Y-133345656D01*
X140427530Y-133345656D01*
X140448034Y-133514525D01*
X140448035Y-133514530D01*
X140508357Y-133673587D01*
X140554483Y-133740411D01*
X140604992Y-133813585D01*
X140680419Y-133880407D01*
X140732325Y-133926392D01*
X140859644Y-133993214D01*
X140882950Y-134005446D01*
X141048119Y-134046156D01*
X141218231Y-134046156D01*
X141383400Y-134005446D01*
X141483313Y-133953007D01*
X141534024Y-133926392D01*
X141534025Y-133926390D01*
X141534027Y-133926390D01*
X141661358Y-133813585D01*
X141704433Y-133751181D01*
X141758713Y-133707192D01*
X141828162Y-133699532D01*
X141890727Y-133730635D01*
X141908530Y-133751181D01*
X141956553Y-133820753D01*
X142083888Y-133933562D01*
X142219278Y-134004620D01*
X142234513Y-134012616D01*
X142399682Y-134053326D01*
X142569794Y-134053326D01*
X142734963Y-134012616D01*
X142814430Y-133970907D01*
X142885587Y-133933562D01*
X142885588Y-133933560D01*
X142885590Y-133933560D01*
X143012921Y-133820755D01*
X143109556Y-133680756D01*
X143169878Y-133521698D01*
X143183140Y-133412480D01*
X151334481Y-133412480D01*
X151354985Y-133581349D01*
X151354986Y-133581354D01*
X151415308Y-133740411D01*
X151474010Y-133825454D01*
X151511943Y-133880409D01*
X151571941Y-133933562D01*
X151639276Y-133993216D01*
X151783907Y-134069124D01*
X151789901Y-134072270D01*
X151955070Y-134112980D01*
X152125182Y-134112980D01*
X152290351Y-134072270D01*
X152404013Y-134012615D01*
X152440975Y-133993216D01*
X152440976Y-133993214D01*
X152440978Y-133993214D01*
X152568309Y-133880409D01*
X152664944Y-133740410D01*
X152725266Y-133581352D01*
X152745771Y-133412480D01*
X152725266Y-133243608D01*
X152664944Y-133084550D01*
X152568309Y-132944551D01*
X152440978Y-132831746D01*
X152440975Y-132831743D01*
X152290352Y-132752690D01*
X152125182Y-132711980D01*
X151955070Y-132711980D01*
X151789899Y-132752690D01*
X151639276Y-132831743D01*
X151511942Y-132944552D01*
X151415308Y-133084548D01*
X151354986Y-133243605D01*
X151354985Y-133243610D01*
X151334481Y-133412480D01*
X143183140Y-133412480D01*
X143190383Y-133352826D01*
X143169878Y-133183954D01*
X143159658Y-133157007D01*
X143109555Y-133024894D01*
X143054097Y-132944551D01*
X143012921Y-132884897D01*
X142885590Y-132772092D01*
X142885587Y-132772089D01*
X142734964Y-132693036D01*
X142569794Y-132652326D01*
X142399682Y-132652326D01*
X142234511Y-132693036D01*
X142083888Y-132772089D01*
X141956553Y-132884898D01*
X141913480Y-132947300D01*
X141859197Y-132991290D01*
X141789748Y-132998949D01*
X141727184Y-132967845D01*
X141709382Y-132947300D01*
X141661359Y-132877728D01*
X141534024Y-132764919D01*
X141383401Y-132685866D01*
X141218231Y-132645156D01*
X141048119Y-132645156D01*
X140882948Y-132685866D01*
X140732325Y-132764919D01*
X140604991Y-132877728D01*
X140508357Y-133017724D01*
X140448035Y-133176781D01*
X140448034Y-133176786D01*
X140427530Y-133345656D01*
X136793764Y-133345656D01*
X136856075Y-133153881D01*
X136856075Y-133153878D01*
X136866549Y-133087752D01*
X135522330Y-133087752D01*
X135555243Y-133030745D01*
X135589318Y-132903578D01*
X135589318Y-132771926D01*
X135555243Y-132644759D01*
X135522330Y-132587752D01*
X136866549Y-132587752D01*
X136856075Y-132521625D01*
X136856075Y-132521622D01*
X136790413Y-132319534D01*
X136693938Y-132130194D01*
X136569045Y-131958292D01*
X136569041Y-131958287D01*
X136418782Y-131808028D01*
X136418777Y-131808024D01*
X136246873Y-131683129D01*
X136237818Y-131678515D01*
X136187024Y-131630540D01*
X136170230Y-131562718D01*
X136192769Y-131496584D01*
X136237826Y-131457545D01*
X136247134Y-131452803D01*
X136326325Y-131395267D01*
X136419104Y-131327861D01*
X136419106Y-131327858D01*
X136419110Y-131327856D01*
X136569422Y-131177544D01*
X136569424Y-131177540D01*
X136569427Y-131177538D01*
X136694366Y-131005572D01*
X136694365Y-131005572D01*
X136694369Y-131005568D01*
X136790875Y-130816164D01*
X136856564Y-130613995D01*
X136889818Y-130404039D01*
X136889818Y-130191465D01*
X136856564Y-129981509D01*
X136842091Y-129936966D01*
X144377378Y-129936966D01*
X144377378Y-129936973D01*
X144397573Y-130116219D01*
X144397574Y-130116224D01*
X144457154Y-130286493D01*
X144513286Y-130375826D01*
X144553127Y-130439232D01*
X144680681Y-130566786D01*
X144833421Y-130662759D01*
X144968711Y-130710099D01*
X145003688Y-130722338D01*
X145003693Y-130722339D01*
X145182939Y-130742535D01*
X145182943Y-130742535D01*
X145182947Y-130742535D01*
X145362192Y-130722339D01*
X145362195Y-130722338D01*
X145362198Y-130722338D01*
X145532465Y-130662759D01*
X145685205Y-130566786D01*
X145812759Y-130439232D01*
X145908732Y-130286492D01*
X145968311Y-130116225D01*
X145982097Y-129993870D01*
X145988508Y-129936973D01*
X145988508Y-129936966D01*
X145968312Y-129757720D01*
X145968311Y-129757715D01*
X145908732Y-129587448D01*
X145812759Y-129434708D01*
X145685205Y-129307154D01*
X145622322Y-129267642D01*
X145532466Y-129211181D01*
X145362197Y-129151601D01*
X145362192Y-129151600D01*
X145182947Y-129131405D01*
X145182939Y-129131405D01*
X145003693Y-129151600D01*
X145003688Y-129151601D01*
X144833419Y-129211181D01*
X144680680Y-129307154D01*
X144553127Y-129434707D01*
X144457154Y-129587446D01*
X144397574Y-129757715D01*
X144397573Y-129757720D01*
X144377378Y-129936966D01*
X136842091Y-129936966D01*
X136790875Y-129779340D01*
X136694369Y-129589936D01*
X136694367Y-129589933D01*
X136694366Y-129589931D01*
X136569427Y-129417965D01*
X136419104Y-129267642D01*
X136247138Y-129142703D01*
X136246433Y-129142343D01*
X136238372Y-129138237D01*
X136187577Y-129090264D01*
X136170781Y-129022444D01*
X136193317Y-128956308D01*
X136238372Y-128917267D01*
X136247134Y-128912803D01*
X136379564Y-128816588D01*
X136419104Y-128787861D01*
X136419106Y-128787858D01*
X136419110Y-128787856D01*
X136569422Y-128637544D01*
X136569424Y-128637540D01*
X136569427Y-128637538D01*
X136694366Y-128465572D01*
X136694365Y-128465572D01*
X136694369Y-128465568D01*
X136771433Y-128314322D01*
X146645649Y-128314322D01*
X146645649Y-128314329D01*
X146665844Y-128493575D01*
X146665845Y-128493580D01*
X146725425Y-128663849D01*
X146821398Y-128816588D01*
X146948952Y-128944142D01*
X147002464Y-128977766D01*
X147052664Y-129009309D01*
X147101692Y-129040115D01*
X147119068Y-129046195D01*
X147271959Y-129099694D01*
X147271964Y-129099695D01*
X147451210Y-129119891D01*
X147451214Y-129119891D01*
X147451218Y-129119891D01*
X147630463Y-129099695D01*
X147630466Y-129099694D01*
X147630469Y-129099694D01*
X147800736Y-129040115D01*
X147953476Y-128944142D01*
X148081030Y-128816588D01*
X148177003Y-128663848D01*
X148236582Y-128493581D01*
X148238358Y-128477820D01*
X148256779Y-128314329D01*
X148256779Y-128314322D01*
X148236583Y-128135076D01*
X148236582Y-128135071D01*
X148219495Y-128086239D01*
X148177003Y-127964804D01*
X148104867Y-127850000D01*
X151744355Y-127850000D01*
X151764859Y-128018869D01*
X151764860Y-128018874D01*
X151825182Y-128177931D01*
X151887475Y-128268177D01*
X151921817Y-128317929D01*
X152027505Y-128411560D01*
X152049150Y-128430736D01*
X152199773Y-128509789D01*
X152199775Y-128509790D01*
X152364944Y-128550500D01*
X152535056Y-128550500D01*
X152700225Y-128509790D01*
X152779692Y-128468081D01*
X152850849Y-128430736D01*
X152850850Y-128430734D01*
X152850852Y-128430734D01*
X152978183Y-128317929D01*
X153074818Y-128177930D01*
X153135140Y-128018872D01*
X153155645Y-127850000D01*
X153135140Y-127681128D01*
X153128535Y-127663713D01*
X153074817Y-127522068D01*
X153027667Y-127453760D01*
X152978183Y-127382071D01*
X152850852Y-127269266D01*
X152850849Y-127269263D01*
X152700226Y-127190210D01*
X152535056Y-127149500D01*
X152364944Y-127149500D01*
X152199773Y-127190210D01*
X152049150Y-127269263D01*
X151921816Y-127382072D01*
X151825182Y-127522068D01*
X151764860Y-127681125D01*
X151764859Y-127681130D01*
X151744355Y-127850000D01*
X148104867Y-127850000D01*
X148081030Y-127812064D01*
X147953476Y-127684510D01*
X147920378Y-127663713D01*
X147800737Y-127588537D01*
X147630468Y-127528957D01*
X147630463Y-127528956D01*
X147451218Y-127508761D01*
X147451210Y-127508761D01*
X147271964Y-127528956D01*
X147271959Y-127528957D01*
X147101690Y-127588537D01*
X146948951Y-127684510D01*
X146821398Y-127812063D01*
X146725425Y-127964802D01*
X146665845Y-128135071D01*
X146665844Y-128135076D01*
X146645649Y-128314322D01*
X136771433Y-128314322D01*
X136790875Y-128276164D01*
X136856564Y-128073995D01*
X136889818Y-127864039D01*
X136889818Y-127651465D01*
X136856564Y-127441509D01*
X136790875Y-127239340D01*
X136694369Y-127049936D01*
X136694367Y-127049933D01*
X136694366Y-127049931D01*
X136569427Y-126877965D01*
X136419104Y-126727642D01*
X136247138Y-126602703D01*
X136246433Y-126602343D01*
X136238372Y-126598237D01*
X136187577Y-126550264D01*
X136170781Y-126482444D01*
X136193317Y-126416308D01*
X136238372Y-126377267D01*
X136247134Y-126372803D01*
X136325112Y-126316149D01*
X136419104Y-126247861D01*
X136419106Y-126247858D01*
X136419110Y-126247856D01*
X136569422Y-126097544D01*
X136569424Y-126097540D01*
X136569427Y-126097538D01*
X136694366Y-125925572D01*
X136694365Y-125925572D01*
X136694369Y-125925568D01*
X136790875Y-125736164D01*
X136830033Y-125615649D01*
X140233533Y-125615649D01*
X140254037Y-125784518D01*
X140254038Y-125784523D01*
X140314360Y-125943580D01*
X140376653Y-126033826D01*
X140410995Y-126083578D01*
X140516683Y-126177209D01*
X140538328Y-126196385D01*
X140659744Y-126260109D01*
X140688953Y-126275439D01*
X140854122Y-126316149D01*
X141024234Y-126316149D01*
X141189403Y-126275439D01*
X141268870Y-126233730D01*
X141340027Y-126196385D01*
X141340028Y-126196383D01*
X141340030Y-126196383D01*
X141467361Y-126083578D01*
X141563996Y-125943579D01*
X141624318Y-125784521D01*
X141644823Y-125615649D01*
X141624318Y-125446777D01*
X141616986Y-125427445D01*
X141577770Y-125324038D01*
X141563996Y-125287719D01*
X141467361Y-125147720D01*
X141340030Y-125034915D01*
X141340027Y-125034912D01*
X141189404Y-124955859D01*
X141024234Y-124915149D01*
X140854122Y-124915149D01*
X140688951Y-124955859D01*
X140538328Y-125034912D01*
X140410994Y-125147721D01*
X140314360Y-125287717D01*
X140254038Y-125446774D01*
X140254037Y-125446779D01*
X140233533Y-125615649D01*
X136830033Y-125615649D01*
X136856564Y-125533995D01*
X136889818Y-125324039D01*
X136889818Y-125111465D01*
X136856564Y-124901509D01*
X136822810Y-124797626D01*
X146868211Y-124797626D01*
X146868211Y-124797633D01*
X146888406Y-124976879D01*
X146888407Y-124976884D01*
X146947987Y-125147153D01*
X147036310Y-125287717D01*
X147043960Y-125299892D01*
X147171514Y-125427446D01*
X147324254Y-125523419D01*
X147494521Y-125582998D01*
X147494526Y-125582999D01*
X147673772Y-125603195D01*
X147673776Y-125603195D01*
X147673780Y-125603195D01*
X147853025Y-125582999D01*
X147853028Y-125582998D01*
X147853031Y-125582998D01*
X148023298Y-125523419D01*
X148176038Y-125427446D01*
X148303592Y-125299892D01*
X148399565Y-125147152D01*
X148459144Y-124976885D01*
X148466100Y-124915149D01*
X148479341Y-124797633D01*
X148479341Y-124797626D01*
X148459145Y-124618380D01*
X148459144Y-124618375D01*
X148425485Y-124522184D01*
X148399565Y-124448108D01*
X148303592Y-124295368D01*
X148176038Y-124167814D01*
X148023299Y-124071841D01*
X147853030Y-124012261D01*
X147853025Y-124012260D01*
X147673780Y-123992065D01*
X147673772Y-123992065D01*
X147494526Y-124012260D01*
X147494521Y-124012261D01*
X147324252Y-124071841D01*
X147171513Y-124167814D01*
X147043960Y-124295367D01*
X146947987Y-124448106D01*
X146888407Y-124618375D01*
X146888406Y-124618380D01*
X146868211Y-124797626D01*
X136822810Y-124797626D01*
X136790875Y-124699340D01*
X136694369Y-124509936D01*
X136694367Y-124509933D01*
X136694366Y-124509931D01*
X136569427Y-124337965D01*
X136419104Y-124187642D01*
X136247138Y-124062703D01*
X136246433Y-124062343D01*
X136238372Y-124058237D01*
X136187577Y-124010264D01*
X136170781Y-123942444D01*
X136193317Y-123876308D01*
X136238372Y-123837267D01*
X136247134Y-123832803D01*
X136269107Y-123816838D01*
X136419104Y-123707861D01*
X136419106Y-123707858D01*
X136419110Y-123707856D01*
X136569422Y-123557544D01*
X136569424Y-123557540D01*
X136569427Y-123557538D01*
X136694366Y-123385572D01*
X136694365Y-123385572D01*
X136694369Y-123385568D01*
X136790875Y-123196164D01*
X136856564Y-122993995D01*
X136889818Y-122784039D01*
X136889818Y-122571465D01*
X136856564Y-122361509D01*
X136790875Y-122159340D01*
X136694369Y-121969936D01*
X136694367Y-121969933D01*
X136694366Y-121969931D01*
X136659970Y-121922588D01*
X137651779Y-121922588D01*
X137651779Y-121922595D01*
X137671974Y-122101841D01*
X137671975Y-122101846D01*
X137731555Y-122272115D01*
X137795423Y-122373760D01*
X137827528Y-122424854D01*
X137955082Y-122552408D01*
X138107822Y-122648381D01*
X138181237Y-122674070D01*
X138278089Y-122707960D01*
X138278094Y-122707961D01*
X138457340Y-122728157D01*
X138457344Y-122728157D01*
X138457348Y-122728157D01*
X138636593Y-122707961D01*
X138636596Y-122707960D01*
X138636599Y-122707960D01*
X138806866Y-122648381D01*
X138959606Y-122552408D01*
X139003630Y-122508384D01*
X139064953Y-122474899D01*
X139134645Y-122479883D01*
X139178992Y-122508384D01*
X139189125Y-122518517D01*
X139341865Y-122614490D01*
X139438717Y-122648380D01*
X139512132Y-122674069D01*
X139512137Y-122674070D01*
X139691383Y-122694266D01*
X139691387Y-122694266D01*
X139691391Y-122694266D01*
X139870636Y-122674070D01*
X139870639Y-122674069D01*
X139870642Y-122674069D01*
X140040909Y-122614490D01*
X140193649Y-122518517D01*
X140321203Y-122390963D01*
X140417176Y-122238223D01*
X140476755Y-122067956D01*
X140493133Y-121922595D01*
X140496952Y-121888704D01*
X140496952Y-121888697D01*
X140476756Y-121709451D01*
X140476755Y-121709446D01*
X140417175Y-121539177D01*
X140353879Y-121438443D01*
X140321203Y-121386439D01*
X140193649Y-121258885D01*
X140183522Y-121252522D01*
X140040910Y-121162912D01*
X139870641Y-121103332D01*
X139870636Y-121103331D01*
X139691391Y-121083136D01*
X139691383Y-121083136D01*
X139512137Y-121103331D01*
X139512132Y-121103332D01*
X139341863Y-121162912D01*
X139189124Y-121258885D01*
X139145101Y-121302909D01*
X139083778Y-121336394D01*
X139014086Y-121331410D01*
X138969739Y-121302909D01*
X138959606Y-121292776D01*
X138806867Y-121196803D01*
X138636598Y-121137223D01*
X138636593Y-121137222D01*
X138457348Y-121117027D01*
X138457340Y-121117027D01*
X138278094Y-121137222D01*
X138278089Y-121137223D01*
X138107820Y-121196803D01*
X137955081Y-121292776D01*
X137827528Y-121420329D01*
X137731555Y-121573068D01*
X137671975Y-121743337D01*
X137671974Y-121743342D01*
X137651779Y-121922588D01*
X136659970Y-121922588D01*
X136569427Y-121797965D01*
X136419104Y-121647642D01*
X136247138Y-121522703D01*
X136246433Y-121522343D01*
X136238372Y-121518237D01*
X136187577Y-121470264D01*
X136170781Y-121402444D01*
X136193317Y-121336308D01*
X136238372Y-121297267D01*
X136247134Y-121292803D01*
X136269107Y-121276838D01*
X136419104Y-121167861D01*
X136419106Y-121167858D01*
X136419110Y-121167856D01*
X136569422Y-121017544D01*
X136569424Y-121017540D01*
X136569427Y-121017538D01*
X136691149Y-120850000D01*
X150285034Y-120850000D01*
X150305538Y-121018869D01*
X150305539Y-121018874D01*
X150365861Y-121177931D01*
X150378888Y-121196803D01*
X150462496Y-121317929D01*
X150539827Y-121386438D01*
X150589829Y-121430736D01*
X150740452Y-121509789D01*
X150740454Y-121509790D01*
X150905623Y-121550500D01*
X151075735Y-121550500D01*
X151240904Y-121509790D01*
X151320371Y-121468081D01*
X151391528Y-121430736D01*
X151391529Y-121430734D01*
X151391531Y-121430734D01*
X151518862Y-121317929D01*
X151615497Y-121177930D01*
X151675819Y-121018872D01*
X151696324Y-120850000D01*
X151675819Y-120681128D01*
X151615497Y-120522070D01*
X151518862Y-120382071D01*
X151391531Y-120269266D01*
X151391528Y-120269263D01*
X151240905Y-120190210D01*
X151075735Y-120149500D01*
X150905623Y-120149500D01*
X150740452Y-120190210D01*
X150589829Y-120269263D01*
X150462495Y-120382072D01*
X150365861Y-120522068D01*
X150305539Y-120681125D01*
X150305538Y-120681130D01*
X150285034Y-120850000D01*
X136691149Y-120850000D01*
X136694366Y-120845572D01*
X136694365Y-120845572D01*
X136694369Y-120845568D01*
X136790875Y-120656164D01*
X136856564Y-120453995D01*
X136889818Y-120244039D01*
X136889818Y-120031465D01*
X136856564Y-119821509D01*
X136790875Y-119619340D01*
X136694369Y-119429936D01*
X136694367Y-119429933D01*
X136694366Y-119429931D01*
X136594112Y-119291942D01*
X153203675Y-119291942D01*
X153224179Y-119460811D01*
X153224180Y-119460816D01*
X153284502Y-119619873D01*
X153346795Y-119710119D01*
X153381137Y-119759871D01*
X153508468Y-119872676D01*
X153508469Y-119872676D01*
X153508472Y-119872679D01*
X153514642Y-119876938D01*
X153513752Y-119878226D01*
X153557695Y-119920743D01*
X153573669Y-119988762D01*
X153550334Y-120054620D01*
X153532084Y-120074770D01*
X153475607Y-120124804D01*
X153378973Y-120264801D01*
X153318651Y-120423858D01*
X153318650Y-120423863D01*
X153298146Y-120592733D01*
X153318650Y-120761602D01*
X153318651Y-120761607D01*
X153378973Y-120920664D01*
X153441266Y-121010910D01*
X153475608Y-121060662D01*
X153562027Y-121137222D01*
X153602941Y-121173469D01*
X153753564Y-121252522D01*
X153753566Y-121252523D01*
X153918735Y-121293233D01*
X154088847Y-121293233D01*
X154254016Y-121252523D01*
X154333483Y-121210814D01*
X154404640Y-121173469D01*
X154404641Y-121173467D01*
X154404643Y-121173467D01*
X154531974Y-121060662D01*
X154628609Y-120920663D01*
X154688931Y-120761605D01*
X154709436Y-120592733D01*
X154688931Y-120423861D01*
X154628609Y-120264803D01*
X154531974Y-120124804D01*
X154404643Y-120011999D01*
X154404641Y-120011998D01*
X154404638Y-120011995D01*
X154398469Y-120007737D01*
X154399357Y-120006450D01*
X154355411Y-119963923D01*
X154339441Y-119895903D01*
X154362781Y-119830047D01*
X154381028Y-119809903D01*
X154437502Y-119759872D01*
X154534137Y-119619873D01*
X154534136Y-119619873D01*
X154534138Y-119619872D01*
X154594460Y-119460814D01*
X154614965Y-119291942D01*
X154594460Y-119123070D01*
X154534138Y-118964012D01*
X154437503Y-118824013D01*
X154310172Y-118711208D01*
X154310169Y-118711205D01*
X154159546Y-118632152D01*
X153994376Y-118591442D01*
X153824264Y-118591442D01*
X153659093Y-118632152D01*
X153508470Y-118711205D01*
X153381136Y-118824014D01*
X153284502Y-118964010D01*
X153224180Y-119123067D01*
X153224179Y-119123072D01*
X153203675Y-119291942D01*
X136594112Y-119291942D01*
X136569427Y-119257965D01*
X136419104Y-119107642D01*
X136247138Y-118982703D01*
X136246433Y-118982343D01*
X136238372Y-118978237D01*
X136187577Y-118930264D01*
X136170781Y-118862444D01*
X136193317Y-118796308D01*
X136238372Y-118757267D01*
X136247134Y-118752803D01*
X136278773Y-118729816D01*
X136419104Y-118627861D01*
X136419106Y-118627858D01*
X136419110Y-118627856D01*
X136569422Y-118477544D01*
X136569424Y-118477540D01*
X136569427Y-118477538D01*
X136694366Y-118305572D01*
X136694365Y-118305572D01*
X136694369Y-118305568D01*
X136790875Y-118116164D01*
X136796128Y-118099996D01*
X142394435Y-118099996D01*
X142394435Y-118100003D01*
X142414630Y-118279249D01*
X142414631Y-118279254D01*
X142474211Y-118449523D01*
X142499514Y-118489792D01*
X142570184Y-118602262D01*
X142697738Y-118729816D01*
X142753813Y-118765050D01*
X142847651Y-118824013D01*
X142850478Y-118825789D01*
X143005404Y-118880000D01*
X143020745Y-118885368D01*
X143020750Y-118885369D01*
X143199996Y-118905565D01*
X143200000Y-118905565D01*
X143200004Y-118905565D01*
X143379249Y-118885369D01*
X143379252Y-118885368D01*
X143379255Y-118885368D01*
X143549522Y-118825789D01*
X143702262Y-118729816D01*
X143829816Y-118602262D01*
X143925789Y-118449522D01*
X143985368Y-118279255D01*
X144005565Y-118100000D01*
X143987398Y-117938765D01*
X143985369Y-117920750D01*
X143985368Y-117920745D01*
X143949766Y-117819001D01*
X143925789Y-117750478D01*
X143897963Y-117706194D01*
X143829815Y-117597737D01*
X143702262Y-117470184D01*
X143549523Y-117374211D01*
X143379254Y-117314631D01*
X143379249Y-117314630D01*
X143200004Y-117294435D01*
X143199996Y-117294435D01*
X143020750Y-117314630D01*
X143020745Y-117314631D01*
X142850476Y-117374211D01*
X142697737Y-117470184D01*
X142570184Y-117597737D01*
X142474211Y-117750476D01*
X142414631Y-117920745D01*
X142414630Y-117920750D01*
X142394435Y-118099996D01*
X136796128Y-118099996D01*
X136856564Y-117913995D01*
X136889818Y-117704039D01*
X136889818Y-117491465D01*
X136856564Y-117281509D01*
X136790875Y-117079340D01*
X136710730Y-116922046D01*
X146399798Y-116922046D01*
X146420302Y-117090915D01*
X146420303Y-117090920D01*
X146480625Y-117249977D01*
X146510845Y-117293757D01*
X146577260Y-117389975D01*
X146667798Y-117470184D01*
X146704593Y-117502782D01*
X146855216Y-117581835D01*
X146855218Y-117581836D01*
X146985625Y-117613978D01*
X147046005Y-117649134D01*
X147057999Y-117663934D01*
X147087168Y-117706192D01*
X147087169Y-117706193D01*
X147087170Y-117706194D01*
X147150835Y-117762596D01*
X147214503Y-117819001D01*
X147365126Y-117898054D01*
X147365128Y-117898055D01*
X147530297Y-117938765D01*
X147700409Y-117938765D01*
X147865578Y-117898055D01*
X147945045Y-117856346D01*
X148016202Y-117819001D01*
X148016203Y-117818999D01*
X148016205Y-117818999D01*
X148143536Y-117706194D01*
X148240171Y-117566195D01*
X148300493Y-117407137D01*
X148320998Y-117238265D01*
X148300493Y-117069393D01*
X148240171Y-116910335D01*
X148234541Y-116902179D01*
X148205829Y-116860583D01*
X148143536Y-116770336D01*
X148016205Y-116657531D01*
X148016202Y-116657528D01*
X147865579Y-116578475D01*
X147735170Y-116546332D01*
X147674789Y-116511175D01*
X147662795Y-116496376D01*
X147633626Y-116454117D01*
X147506295Y-116341312D01*
X147506292Y-116341309D01*
X147355669Y-116262256D01*
X147190499Y-116221546D01*
X147020387Y-116221546D01*
X146855216Y-116262256D01*
X146704593Y-116341309D01*
X146577259Y-116454118D01*
X146480625Y-116594114D01*
X146420303Y-116753171D01*
X146420302Y-116753176D01*
X146399798Y-116922046D01*
X136710730Y-116922046D01*
X136694369Y-116889936D01*
X136694367Y-116889933D01*
X136694366Y-116889931D01*
X136569427Y-116717965D01*
X136419104Y-116567642D01*
X136247138Y-116442703D01*
X136246433Y-116442343D01*
X136238372Y-116438237D01*
X136187577Y-116390264D01*
X136170781Y-116322444D01*
X136193317Y-116256308D01*
X136238372Y-116217267D01*
X136247134Y-116212803D01*
X136269107Y-116196838D01*
X136419104Y-116087861D01*
X136419106Y-116087858D01*
X136419110Y-116087856D01*
X136569422Y-115937544D01*
X136569424Y-115937540D01*
X136569427Y-115937538D01*
X136694366Y-115765572D01*
X136694365Y-115765572D01*
X136694369Y-115765568D01*
X136790875Y-115576164D01*
X136856564Y-115373995D01*
X136889818Y-115164039D01*
X136889818Y-115097155D01*
X145745066Y-115097155D01*
X145765570Y-115266024D01*
X145765571Y-115266029D01*
X145825893Y-115425086D01*
X145872636Y-115492803D01*
X145922528Y-115565084D01*
X146028216Y-115658715D01*
X146049861Y-115677891D01*
X146200484Y-115756944D01*
X146200486Y-115756945D01*
X146365655Y-115797655D01*
X146535767Y-115797655D01*
X146700936Y-115756945D01*
X146799363Y-115705286D01*
X146851560Y-115677891D01*
X146851561Y-115677889D01*
X146851563Y-115677889D01*
X146978894Y-115565084D01*
X147075529Y-115425085D01*
X147135851Y-115266027D01*
X147156356Y-115097155D01*
X147135851Y-114928283D01*
X147075529Y-114769225D01*
X146978894Y-114629226D01*
X146978892Y-114629224D01*
X146857246Y-114521455D01*
X146841269Y-114495984D01*
X146800985Y-114489740D01*
X146796106Y-114487314D01*
X146700937Y-114437365D01*
X146535767Y-114396655D01*
X146365655Y-114396655D01*
X146200484Y-114437365D01*
X146049861Y-114516418D01*
X145922527Y-114629227D01*
X145825893Y-114769223D01*
X145765571Y-114928280D01*
X145765570Y-114928285D01*
X145745066Y-115097155D01*
X136889818Y-115097155D01*
X136889818Y-114951465D01*
X136856564Y-114741509D01*
X136790875Y-114539340D01*
X136694369Y-114349936D01*
X136694367Y-114349933D01*
X136694366Y-114349931D01*
X136569427Y-114177965D01*
X136419104Y-114027642D01*
X136247138Y-113902703D01*
X136246433Y-113902343D01*
X136238372Y-113898237D01*
X136187577Y-113850264D01*
X136170781Y-113782444D01*
X136193317Y-113716308D01*
X136238372Y-113677267D01*
X136247134Y-113672803D01*
X136247318Y-113672669D01*
X144225476Y-113672669D01*
X144245980Y-113841538D01*
X144245981Y-113841543D01*
X144306303Y-114000600D01*
X144333428Y-114039896D01*
X144402938Y-114140598D01*
X144501808Y-114228189D01*
X144530271Y-114253405D01*
X144680894Y-114332458D01*
X144680896Y-114332459D01*
X144846065Y-114373169D01*
X145016177Y-114373169D01*
X145181346Y-114332459D01*
X145262743Y-114289738D01*
X145331970Y-114253405D01*
X145331971Y-114253403D01*
X145331973Y-114253403D01*
X145459304Y-114140598D01*
X145555939Y-114000599D01*
X145616261Y-113841541D01*
X145632354Y-113709004D01*
X146636850Y-113709004D01*
X146657354Y-113877873D01*
X146657355Y-113877878D01*
X146717677Y-114036935D01*
X146780686Y-114128218D01*
X146805662Y-114164402D01*
X146814313Y-114176934D01*
X146935959Y-114284703D01*
X146951935Y-114310173D01*
X146992220Y-114316418D01*
X146997099Y-114318844D01*
X147092270Y-114368794D01*
X147257439Y-114409504D01*
X147427551Y-114409504D01*
X147592720Y-114368794D01*
X147742069Y-114290409D01*
X147743344Y-114289740D01*
X147743345Y-114289738D01*
X147743347Y-114289738D01*
X147799849Y-114239681D01*
X147863079Y-114209962D01*
X147932343Y-114219144D01*
X147964301Y-114239683D01*
X147965811Y-114241021D01*
X147965820Y-114241027D01*
X148114088Y-114318844D01*
X148116441Y-114320079D01*
X148258030Y-114354977D01*
X148318410Y-114390133D01*
X148350199Y-114452352D01*
X148343303Y-114521881D01*
X148328824Y-114545267D01*
X148330106Y-114546152D01*
X148229210Y-114692322D01*
X148168888Y-114851379D01*
X148168887Y-114851384D01*
X148148383Y-115020254D01*
X148168887Y-115189123D01*
X148168888Y-115189128D01*
X148229210Y-115348185D01*
X148255480Y-115386243D01*
X148325845Y-115488183D01*
X148412649Y-115565084D01*
X148453178Y-115600990D01*
X148599697Y-115677889D01*
X148603803Y-115680044D01*
X148768972Y-115720754D01*
X148939084Y-115720754D01*
X149104253Y-115680044D01*
X149206784Y-115626231D01*
X149254877Y-115600990D01*
X149254878Y-115600988D01*
X149254880Y-115600988D01*
X149382211Y-115488183D01*
X149478846Y-115348184D01*
X149539168Y-115189126D01*
X149556608Y-115045497D01*
X150863549Y-115045497D01*
X150884053Y-115214366D01*
X150884054Y-115214371D01*
X150944376Y-115373428D01*
X151006669Y-115463674D01*
X151041011Y-115513426D01*
X151139851Y-115600990D01*
X151168344Y-115626233D01*
X151318967Y-115705286D01*
X151318969Y-115705287D01*
X151484138Y-115745997D01*
X151654250Y-115745997D01*
X151819419Y-115705287D01*
X151970046Y-115626231D01*
X152011772Y-115589264D01*
X152075003Y-115559544D01*
X152144267Y-115568727D01*
X152176225Y-115589265D01*
X152181294Y-115593756D01*
X152181295Y-115593757D01*
X152217951Y-115626231D01*
X152308628Y-115706564D01*
X152444395Y-115777820D01*
X152459253Y-115785618D01*
X152624422Y-115826328D01*
X152794534Y-115826328D01*
X152959703Y-115785618D01*
X153083290Y-115720754D01*
X153110327Y-115706564D01*
X153110328Y-115706562D01*
X153110330Y-115706562D01*
X153237661Y-115593757D01*
X153334296Y-115453758D01*
X153394618Y-115294700D01*
X153415123Y-115125828D01*
X153394618Y-114956956D01*
X153334296Y-114797898D01*
X153303827Y-114753757D01*
X153261423Y-114692324D01*
X153237661Y-114657899D01*
X153142794Y-114573854D01*
X153110327Y-114545091D01*
X152959704Y-114466038D01*
X152794534Y-114425328D01*
X152624422Y-114425328D01*
X152459251Y-114466038D01*
X152308627Y-114545092D01*
X152308625Y-114545093D01*
X152266898Y-114582060D01*
X152203665Y-114611780D01*
X152134402Y-114602595D01*
X152102446Y-114582059D01*
X152068884Y-114552326D01*
X152028353Y-114516418D01*
X151970043Y-114464760D01*
X151819420Y-114385707D01*
X151654250Y-114344997D01*
X151484138Y-114344997D01*
X151318967Y-114385707D01*
X151168344Y-114464760D01*
X151041010Y-114577569D01*
X150944376Y-114717565D01*
X150884054Y-114876622D01*
X150884053Y-114876627D01*
X150863549Y-115045497D01*
X149556608Y-115045497D01*
X149559673Y-115020254D01*
X149539168Y-114851382D01*
X149478846Y-114692324D01*
X149469318Y-114678521D01*
X149416910Y-114602595D01*
X149382211Y-114552325D01*
X149283370Y-114464760D01*
X149254877Y-114439517D01*
X149104254Y-114360464D01*
X148962663Y-114325565D01*
X148902282Y-114290409D01*
X148870494Y-114228189D01*
X148877390Y-114158661D01*
X148891904Y-114135299D01*
X148890588Y-114134391D01*
X148894849Y-114128218D01*
X148991484Y-113988219D01*
X149051806Y-113829161D01*
X149072311Y-113660289D01*
X149051806Y-113491417D01*
X149046192Y-113476615D01*
X148991483Y-113332357D01*
X148928475Y-113241076D01*
X148894849Y-113192360D01*
X148767518Y-113079555D01*
X148767515Y-113079552D01*
X148616892Y-113000499D01*
X148451722Y-112959789D01*
X148281610Y-112959789D01*
X148116439Y-113000499D01*
X147965815Y-113079553D01*
X147965813Y-113079555D01*
X147909312Y-113129610D01*
X147846079Y-113159331D01*
X147776816Y-113150147D01*
X147744860Y-113129611D01*
X147743347Y-113128270D01*
X147743345Y-113128269D01*
X147743344Y-113128268D01*
X147743340Y-113128265D01*
X147592721Y-113049214D01*
X147427551Y-113008504D01*
X147257439Y-113008504D01*
X147092268Y-113049214D01*
X146941645Y-113128267D01*
X146814311Y-113241076D01*
X146717677Y-113381072D01*
X146657355Y-113540129D01*
X146657354Y-113540134D01*
X146636850Y-113709004D01*
X145632354Y-113709004D01*
X145636766Y-113672669D01*
X145632959Y-113641320D01*
X145644418Y-113572400D01*
X145691321Y-113520613D01*
X145758777Y-113502405D01*
X145785724Y-113505977D01*
X145831769Y-113517326D01*
X145831771Y-113517326D01*
X146001881Y-113517326D01*
X146167050Y-113476616D01*
X146246517Y-113434907D01*
X146317674Y-113397562D01*
X146317675Y-113397560D01*
X146317677Y-113397560D01*
X146445008Y-113284755D01*
X146541643Y-113144756D01*
X146601965Y-112985698D01*
X146622470Y-112816826D01*
X146601965Y-112647954D01*
X146541643Y-112488896D01*
X146445008Y-112348897D01*
X146317677Y-112236092D01*
X146317674Y-112236089D01*
X146167051Y-112157036D01*
X146001881Y-112116326D01*
X145831769Y-112116326D01*
X145666598Y-112157036D01*
X145515975Y-112236089D01*
X145388641Y-112348898D01*
X145292007Y-112488894D01*
X145231685Y-112647951D01*
X145231684Y-112647956D01*
X145211180Y-112816826D01*
X145214986Y-112848173D01*
X145203525Y-112917096D01*
X145156621Y-112968882D01*
X145089165Y-112987089D01*
X145062216Y-112983516D01*
X145016178Y-112972169D01*
X145016177Y-112972169D01*
X144846065Y-112972169D01*
X144680894Y-113012879D01*
X144530271Y-113091932D01*
X144402937Y-113204741D01*
X144306303Y-113344737D01*
X144245981Y-113503794D01*
X144245980Y-113503799D01*
X144225476Y-113672669D01*
X136247318Y-113672669D01*
X136269107Y-113656838D01*
X136419104Y-113547861D01*
X136419106Y-113547858D01*
X136419110Y-113547856D01*
X136569422Y-113397544D01*
X136569424Y-113397540D01*
X136569427Y-113397538D01*
X136694366Y-113225572D01*
X136694365Y-113225572D01*
X136694369Y-113225568D01*
X136790875Y-113036164D01*
X136856564Y-112833995D01*
X136889818Y-112624039D01*
X136889818Y-112411465D01*
X136856564Y-112201509D01*
X136790875Y-111999340D01*
X136694369Y-111809936D01*
X136694367Y-111809933D01*
X136694366Y-111809931D01*
X136569427Y-111637965D01*
X136419104Y-111487642D01*
X136247138Y-111362703D01*
X136246433Y-111362343D01*
X136238372Y-111358237D01*
X136187577Y-111310264D01*
X136170781Y-111242444D01*
X136193317Y-111176308D01*
X136238372Y-111137267D01*
X136247134Y-111132803D01*
X136358136Y-111052156D01*
X136419104Y-111007861D01*
X136419106Y-111007858D01*
X136419110Y-111007856D01*
X136569422Y-110857544D01*
X136569424Y-110857540D01*
X136569427Y-110857538D01*
X136694366Y-110685572D01*
X136694365Y-110685572D01*
X136694369Y-110685568D01*
X136790875Y-110496164D01*
X136856564Y-110293995D01*
X136864880Y-110241491D01*
X138745865Y-110241491D01*
X138745865Y-110241498D01*
X138766060Y-110420744D01*
X138766061Y-110420749D01*
X138825641Y-110591018D01*
X138881293Y-110679587D01*
X138921614Y-110743757D01*
X139049168Y-110871311D01*
X139201908Y-110967284D01*
X139328113Y-111011445D01*
X139372175Y-111026863D01*
X139372180Y-111026864D01*
X139551426Y-111047060D01*
X139551430Y-111047060D01*
X139551434Y-111047060D01*
X139730679Y-111026864D01*
X139730682Y-111026863D01*
X139730685Y-111026863D01*
X139900952Y-110967284D01*
X140053692Y-110871311D01*
X140181246Y-110743757D01*
X140277219Y-110591017D01*
X140336798Y-110420750D01*
X140336799Y-110420744D01*
X140344583Y-110351656D01*
X144838325Y-110351656D01*
X144858829Y-110520525D01*
X144858830Y-110520530D01*
X144919152Y-110679587D01*
X144931735Y-110697816D01*
X145015787Y-110819585D01*
X145074173Y-110871310D01*
X145143120Y-110932392D01*
X145286905Y-111007856D01*
X145293745Y-111011446D01*
X145458914Y-111052156D01*
X145629026Y-111052156D01*
X145794195Y-111011446D01*
X145878340Y-110967283D01*
X145944819Y-110932392D01*
X145944820Y-110932390D01*
X145944822Y-110932390D01*
X146072153Y-110819585D01*
X146168788Y-110679586D01*
X146198971Y-110600000D01*
X147161021Y-110600000D01*
X147181525Y-110768869D01*
X147181526Y-110768874D01*
X147241848Y-110927931D01*
X147269012Y-110967284D01*
X147338483Y-111067929D01*
X147411711Y-111132803D01*
X147465816Y-111180736D01*
X147616439Y-111259789D01*
X147616441Y-111259790D01*
X147781610Y-111300500D01*
X147951722Y-111300500D01*
X148116891Y-111259790D01*
X148267518Y-111180734D01*
X148304330Y-111148121D01*
X148367561Y-111118400D01*
X148436825Y-111127582D01*
X148490129Y-111172754D01*
X148509653Y-111225989D01*
X148514859Y-111268869D01*
X148514860Y-111268874D01*
X148575182Y-111427931D01*
X148624853Y-111499890D01*
X148671817Y-111567929D01*
X148750866Y-111637960D01*
X148799150Y-111680736D01*
X148949773Y-111759789D01*
X148949775Y-111759790D01*
X149114944Y-111800500D01*
X149285056Y-111800500D01*
X149450225Y-111759790D01*
X149529692Y-111718081D01*
X149600849Y-111680736D01*
X149600850Y-111680734D01*
X149600852Y-111680734D01*
X149728183Y-111567929D01*
X149824818Y-111427930D01*
X149885140Y-111268872D01*
X149905645Y-111100000D01*
X149885140Y-110931128D01*
X149824818Y-110772070D01*
X149822608Y-110768869D01*
X149790476Y-110722318D01*
X149728183Y-110632071D01*
X149600852Y-110519266D01*
X149600849Y-110519263D01*
X149450226Y-110440210D01*
X149285056Y-110399500D01*
X149114944Y-110399500D01*
X148949773Y-110440210D01*
X148799149Y-110519264D01*
X148799147Y-110519266D01*
X148762334Y-110551879D01*
X148699100Y-110581600D01*
X148629837Y-110572416D01*
X148576534Y-110527243D01*
X148557012Y-110474010D01*
X148551806Y-110431128D01*
X148491484Y-110272070D01*
X148470379Y-110241495D01*
X148429852Y-110182781D01*
X148394849Y-110132071D01*
X148299982Y-110048026D01*
X148267515Y-110019263D01*
X148116892Y-109940210D01*
X147951722Y-109899500D01*
X147781610Y-109899500D01*
X147616439Y-109940210D01*
X147465816Y-110019263D01*
X147338482Y-110132072D01*
X147241848Y-110272068D01*
X147181526Y-110431125D01*
X147181525Y-110431130D01*
X147161021Y-110600000D01*
X146198971Y-110600000D01*
X146229110Y-110520528D01*
X146249615Y-110351656D01*
X146229110Y-110182784D01*
X146168788Y-110023726D01*
X146165709Y-110019266D01*
X146134446Y-109973974D01*
X146072153Y-109883727D01*
X145944822Y-109770922D01*
X145944819Y-109770919D01*
X145794196Y-109691866D01*
X145629026Y-109651156D01*
X145458914Y-109651156D01*
X145293743Y-109691866D01*
X145143120Y-109770919D01*
X145015786Y-109883728D01*
X144919152Y-110023724D01*
X144858830Y-110182781D01*
X144858829Y-110182786D01*
X144838325Y-110351656D01*
X140344583Y-110351656D01*
X140356995Y-110241498D01*
X140356995Y-110241491D01*
X140336799Y-110062245D01*
X140336798Y-110062240D01*
X140277218Y-109891971D01*
X140238012Y-109829575D01*
X140181246Y-109739233D01*
X140053692Y-109611679D01*
X139900953Y-109515706D01*
X139730684Y-109456126D01*
X139730679Y-109456125D01*
X139551434Y-109435930D01*
X139551426Y-109435930D01*
X139372180Y-109456125D01*
X139372175Y-109456126D01*
X139201906Y-109515706D01*
X139049167Y-109611679D01*
X138921614Y-109739232D01*
X138825641Y-109891971D01*
X138766061Y-110062240D01*
X138766060Y-110062245D01*
X138745865Y-110241491D01*
X136864880Y-110241491D01*
X136889818Y-110084039D01*
X136889818Y-109871465D01*
X136856564Y-109661509D01*
X136790875Y-109459340D01*
X136694369Y-109269936D01*
X136694367Y-109269933D01*
X136694366Y-109269931D01*
X136569427Y-109097965D01*
X136419104Y-108947642D01*
X136247138Y-108822703D01*
X136246433Y-108822343D01*
X136238372Y-108818237D01*
X136187577Y-108770264D01*
X136170781Y-108702444D01*
X136193317Y-108636308D01*
X136238372Y-108597267D01*
X136247134Y-108592803D01*
X136269107Y-108576838D01*
X136419104Y-108467861D01*
X136419106Y-108467858D01*
X136419110Y-108467856D01*
X136569422Y-108317544D01*
X136569424Y-108317540D01*
X136569427Y-108317538D01*
X136694366Y-108145572D01*
X136694365Y-108145572D01*
X136694369Y-108145568D01*
X136790875Y-107956164D01*
X136837537Y-107812555D01*
X142334243Y-107812555D01*
X142334243Y-107812562D01*
X142354438Y-107991808D01*
X142354439Y-107991813D01*
X142414019Y-108162082D01*
X142509992Y-108314821D01*
X142637546Y-108442375D01*
X142790286Y-108538348D01*
X142958664Y-108597266D01*
X142960553Y-108597927D01*
X142960558Y-108597928D01*
X143139804Y-108618124D01*
X143139808Y-108618124D01*
X143139812Y-108618124D01*
X143319057Y-108597928D01*
X143319060Y-108597927D01*
X143319063Y-108597927D01*
X143489330Y-108538348D01*
X143642070Y-108442375D01*
X143769624Y-108314821D01*
X143865597Y-108162081D01*
X143925176Y-107991814D01*
X143945373Y-107812559D01*
X143940154Y-107766243D01*
X143925177Y-107633309D01*
X143925176Y-107633304D01*
X143865597Y-107463037D01*
X143769624Y-107310297D01*
X143642070Y-107182743D01*
X143489331Y-107086770D01*
X143319062Y-107027190D01*
X143319057Y-107027189D01*
X143139812Y-107006994D01*
X143139804Y-107006994D01*
X142960558Y-107027189D01*
X142960553Y-107027190D01*
X142790284Y-107086770D01*
X142637545Y-107182743D01*
X142509992Y-107310296D01*
X142414019Y-107463035D01*
X142354439Y-107633304D01*
X142354438Y-107633309D01*
X142334243Y-107812555D01*
X136837537Y-107812555D01*
X136856564Y-107753995D01*
X136889818Y-107544039D01*
X136889818Y-107331465D01*
X136856564Y-107121509D01*
X136790875Y-106919340D01*
X136694369Y-106729936D01*
X136694367Y-106729933D01*
X136694366Y-106729931D01*
X136569427Y-106557965D01*
X136419104Y-106407642D01*
X136247138Y-106282703D01*
X136246433Y-106282343D01*
X136238372Y-106278237D01*
X136206956Y-106248566D01*
X138745865Y-106248566D01*
X138745865Y-106248573D01*
X138766060Y-106427819D01*
X138766061Y-106427824D01*
X138825641Y-106598093D01*
X138908481Y-106729931D01*
X138921614Y-106750832D01*
X139049168Y-106878386D01*
X139201908Y-106974359D01*
X139352890Y-107027190D01*
X139372175Y-107033938D01*
X139372180Y-107033939D01*
X139551426Y-107054135D01*
X139551430Y-107054135D01*
X139551434Y-107054135D01*
X139730679Y-107033939D01*
X139730682Y-107033938D01*
X139730685Y-107033938D01*
X139900952Y-106974359D01*
X140053692Y-106878386D01*
X140181246Y-106750832D01*
X140277219Y-106598092D01*
X140336798Y-106427825D01*
X140336799Y-106427819D01*
X140356995Y-106248573D01*
X140356995Y-106248566D01*
X140336799Y-106069320D01*
X140336798Y-106069315D01*
X140277218Y-105899046D01*
X140181245Y-105746307D01*
X140053692Y-105618754D01*
X139900953Y-105522781D01*
X139730684Y-105463201D01*
X139730679Y-105463200D01*
X139551434Y-105443005D01*
X139551426Y-105443005D01*
X139372180Y-105463200D01*
X139372175Y-105463201D01*
X139201906Y-105522781D01*
X139049167Y-105618754D01*
X138921614Y-105746307D01*
X138825641Y-105899046D01*
X138766061Y-106069315D01*
X138766060Y-106069320D01*
X138745865Y-106248566D01*
X136206956Y-106248566D01*
X136187577Y-106230264D01*
X136170781Y-106162444D01*
X136193317Y-106096308D01*
X136238372Y-106057267D01*
X136247134Y-106052803D01*
X136269107Y-106036838D01*
X136419104Y-105927861D01*
X136419106Y-105927858D01*
X136419110Y-105927856D01*
X136569422Y-105777544D01*
X136569424Y-105777540D01*
X136569427Y-105777538D01*
X136694366Y-105605572D01*
X136694365Y-105605572D01*
X136694369Y-105605568D01*
X136790875Y-105416164D01*
X136856564Y-105213995D01*
X136889818Y-105004039D01*
X136889818Y-104791465D01*
X136856564Y-104581509D01*
X136790875Y-104379340D01*
X136714827Y-104230088D01*
X151294429Y-104230088D01*
X151294429Y-104230095D01*
X151314624Y-104409341D01*
X151314625Y-104409346D01*
X151374205Y-104579615D01*
X151470178Y-104732354D01*
X151597732Y-104859908D01*
X151750472Y-104955881D01*
X151888097Y-105004038D01*
X151920739Y-105015460D01*
X151920744Y-105015461D01*
X152099990Y-105035657D01*
X152099994Y-105035657D01*
X152099998Y-105035657D01*
X152279243Y-105015461D01*
X152279246Y-105015460D01*
X152279249Y-105015460D01*
X152449516Y-104955881D01*
X152602256Y-104859908D01*
X152729810Y-104732354D01*
X152825783Y-104579614D01*
X152885362Y-104409347D01*
X152887363Y-104391588D01*
X152905559Y-104230095D01*
X152905559Y-104230088D01*
X152885363Y-104050842D01*
X152885362Y-104050837D01*
X152825782Y-103880568D01*
X152739154Y-103742701D01*
X152729810Y-103727830D01*
X152602256Y-103600276D01*
X152565994Y-103577491D01*
X152449517Y-103504303D01*
X152279248Y-103444723D01*
X152279243Y-103444722D01*
X152099998Y-103424527D01*
X152099990Y-103424527D01*
X151920744Y-103444722D01*
X151920739Y-103444723D01*
X151750470Y-103504303D01*
X151597731Y-103600276D01*
X151470178Y-103727829D01*
X151374205Y-103880568D01*
X151314625Y-104050837D01*
X151314624Y-104050842D01*
X151294429Y-104230088D01*
X136714827Y-104230088D01*
X136694369Y-104189936D01*
X136694367Y-104189933D01*
X136694366Y-104189931D01*
X136569427Y-104017965D01*
X136419104Y-103867642D01*
X136247138Y-103742703D01*
X136246433Y-103742343D01*
X136238372Y-103738237D01*
X136187577Y-103690264D01*
X136170781Y-103622444D01*
X136193317Y-103556308D01*
X136238372Y-103517267D01*
X136247134Y-103512803D01*
X136269107Y-103496838D01*
X136419104Y-103387861D01*
X136419106Y-103387858D01*
X136419110Y-103387856D01*
X136447334Y-103359632D01*
X142494435Y-103359632D01*
X142494435Y-103359639D01*
X142514630Y-103538885D01*
X142514631Y-103538890D01*
X142574211Y-103709159D01*
X142602983Y-103754949D01*
X142670184Y-103861898D01*
X142797738Y-103989452D01*
X142843108Y-104017960D01*
X142895439Y-104050842D01*
X142950478Y-104085425D01*
X143120745Y-104145004D01*
X143120750Y-104145005D01*
X143299996Y-104165201D01*
X143300000Y-104165201D01*
X143300004Y-104165201D01*
X143479249Y-104145005D01*
X143479252Y-104145004D01*
X143479255Y-104145004D01*
X143649522Y-104085425D01*
X143802262Y-103989452D01*
X143929816Y-103861898D01*
X144025789Y-103709158D01*
X144085368Y-103538891D01*
X144085369Y-103538885D01*
X144105565Y-103359639D01*
X144105565Y-103359632D01*
X144085369Y-103180386D01*
X144085368Y-103180381D01*
X144049479Y-103077816D01*
X144025789Y-103010114D01*
X143929816Y-102857374D01*
X143802262Y-102729820D01*
X143732910Y-102686243D01*
X143649523Y-102633847D01*
X143479254Y-102574267D01*
X143479249Y-102574266D01*
X143300004Y-102554071D01*
X143299996Y-102554071D01*
X143120750Y-102574266D01*
X143120745Y-102574267D01*
X142950476Y-102633847D01*
X142797737Y-102729820D01*
X142670184Y-102857373D01*
X142574211Y-103010112D01*
X142514631Y-103180381D01*
X142514630Y-103180386D01*
X142494435Y-103359632D01*
X136447334Y-103359632D01*
X136569422Y-103237544D01*
X136569424Y-103237540D01*
X136569427Y-103237538D01*
X136694366Y-103065572D01*
X136694365Y-103065572D01*
X136694369Y-103065568D01*
X136790875Y-102876164D01*
X136856564Y-102673995D01*
X136889818Y-102464039D01*
X136889818Y-102251465D01*
X136856564Y-102041509D01*
X136790875Y-101839340D01*
X136694369Y-101649936D01*
X136694367Y-101649933D01*
X136694366Y-101649931D01*
X136569427Y-101477965D01*
X136419104Y-101327642D01*
X136247138Y-101202703D01*
X136246433Y-101202343D01*
X136238372Y-101198237D01*
X136187577Y-101150264D01*
X136170781Y-101082444D01*
X136193317Y-101016308D01*
X136238372Y-100977267D01*
X136247134Y-100972803D01*
X136306110Y-100929955D01*
X136419104Y-100847861D01*
X136419106Y-100847858D01*
X136419110Y-100847856D01*
X136569422Y-100697544D01*
X136569424Y-100697540D01*
X136569427Y-100697538D01*
X136578576Y-100684945D01*
X144568219Y-100684945D01*
X144588723Y-100853814D01*
X144588724Y-100853819D01*
X144649046Y-101012876D01*
X144670615Y-101044123D01*
X144745681Y-101152874D01*
X144831619Y-101229008D01*
X144873014Y-101265681D01*
X145014408Y-101339890D01*
X145023639Y-101344735D01*
X145188808Y-101385445D01*
X145358920Y-101385445D01*
X145524089Y-101344735D01*
X145603556Y-101303026D01*
X145674713Y-101265681D01*
X145674714Y-101265679D01*
X145674716Y-101265679D01*
X145802047Y-101152874D01*
X145898682Y-101012875D01*
X145959004Y-100853817D01*
X145959004Y-100853816D01*
X145961664Y-100846803D01*
X145963060Y-100847332D01*
X145993951Y-100794274D01*
X146056169Y-100762483D01*
X146125697Y-100769376D01*
X146180462Y-100812765D01*
X146202291Y-100869379D01*
X146209645Y-100929950D01*
X146209646Y-100929955D01*
X146269968Y-101089012D01*
X146312248Y-101150264D01*
X146366603Y-101229010D01*
X146472291Y-101322641D01*
X146493936Y-101341817D01*
X146644559Y-101420870D01*
X146644561Y-101420871D01*
X146809730Y-101461581D01*
X146979842Y-101461581D01*
X147145011Y-101420871D01*
X147224478Y-101379162D01*
X147295635Y-101341817D01*
X147295636Y-101341815D01*
X147295638Y-101341815D01*
X147422969Y-101229010D01*
X147519604Y-101089011D01*
X147579926Y-100929953D01*
X147600431Y-100761081D01*
X147579926Y-100592209D01*
X147578040Y-100587237D01*
X147551053Y-100516077D01*
X147519604Y-100433151D01*
X147509398Y-100418365D01*
X152430729Y-100418365D01*
X152451233Y-100587234D01*
X152451234Y-100587239D01*
X152511556Y-100746296D01*
X152557437Y-100812765D01*
X152608191Y-100886294D01*
X152705840Y-100972803D01*
X152735524Y-100999101D01*
X152886147Y-101078154D01*
X152886149Y-101078155D01*
X153051318Y-101118865D01*
X153221430Y-101118865D01*
X153386599Y-101078155D01*
X153446835Y-101046539D01*
X153515342Y-101032814D01*
X153553856Y-101044123D01*
X153554136Y-101043388D01*
X153561145Y-101046046D01*
X153561147Y-101046046D01*
X153561148Y-101046047D01*
X153726317Y-101086757D01*
X153896429Y-101086757D01*
X154061598Y-101046047D01*
X154192648Y-100977266D01*
X154212222Y-100966993D01*
X154212223Y-100966991D01*
X154212225Y-100966991D01*
X154339556Y-100854186D01*
X154436191Y-100714187D01*
X154496513Y-100555129D01*
X154517018Y-100386257D01*
X154496513Y-100217385D01*
X154496373Y-100217017D01*
X154448367Y-100090433D01*
X154436191Y-100058327D01*
X154358538Y-99945828D01*
X154336656Y-99879476D01*
X154354121Y-99811825D01*
X154358527Y-99804968D01*
X154369548Y-99789003D01*
X154429870Y-99629945D01*
X154450375Y-99461073D01*
X154429870Y-99292201D01*
X154369548Y-99133143D01*
X154361983Y-99122184D01*
X154335206Y-99083391D01*
X154272913Y-98993144D01*
X154145582Y-98880339D01*
X154145579Y-98880336D01*
X153994956Y-98801283D01*
X153829786Y-98760573D01*
X153659674Y-98760573D01*
X153494503Y-98801283D01*
X153343880Y-98880336D01*
X153216546Y-98993145D01*
X153119912Y-99133141D01*
X153059590Y-99292198D01*
X153059589Y-99292203D01*
X153039085Y-99461073D01*
X153056473Y-99604277D01*
X153045013Y-99673200D01*
X152998109Y-99724986D01*
X152963052Y-99739620D01*
X152886147Y-99758575D01*
X152735524Y-99837628D01*
X152608190Y-99950437D01*
X152511556Y-100090433D01*
X152451234Y-100249490D01*
X152451233Y-100249495D01*
X152430729Y-100418365D01*
X147509398Y-100418365D01*
X147422969Y-100293152D01*
X147295638Y-100180347D01*
X147295635Y-100180344D01*
X147145012Y-100101291D01*
X146979842Y-100060581D01*
X146809730Y-100060581D01*
X146644559Y-100101291D01*
X146493936Y-100180344D01*
X146366602Y-100293153D01*
X146269968Y-100433149D01*
X146206986Y-100599223D01*
X146205593Y-100598694D01*
X146174682Y-100651767D01*
X146112458Y-100683546D01*
X146042931Y-100676641D01*
X145988174Y-100633242D01*
X145966359Y-100576646D01*
X145959004Y-100516073D01*
X145898682Y-100357015D01*
X145884289Y-100336164D01*
X145854600Y-100293152D01*
X145802047Y-100217016D01*
X145674716Y-100104211D01*
X145674713Y-100104208D01*
X145524090Y-100025155D01*
X145358920Y-99984445D01*
X145188808Y-99984445D01*
X145023637Y-100025155D01*
X144873014Y-100104208D01*
X144745680Y-100217017D01*
X144649046Y-100357013D01*
X144588724Y-100516070D01*
X144588723Y-100516075D01*
X144568219Y-100684945D01*
X136578576Y-100684945D01*
X136694366Y-100525572D01*
X136694365Y-100525572D01*
X136694369Y-100525568D01*
X136790875Y-100336164D01*
X136856564Y-100133995D01*
X136889818Y-99924039D01*
X136889818Y-99711465D01*
X136856564Y-99501509D01*
X136790875Y-99299340D01*
X136694369Y-99109936D01*
X136694367Y-99109933D01*
X136694366Y-99109931D01*
X136569427Y-98937965D01*
X136419104Y-98787642D01*
X136247138Y-98662703D01*
X136246433Y-98662343D01*
X136238372Y-98658237D01*
X136187577Y-98610264D01*
X136170781Y-98542444D01*
X136193317Y-98476308D01*
X136238372Y-98437267D01*
X136247134Y-98432803D01*
X136282598Y-98407037D01*
X136419104Y-98307861D01*
X136419106Y-98307858D01*
X136419110Y-98307856D01*
X136569422Y-98157544D01*
X136569424Y-98157540D01*
X136569427Y-98157538D01*
X136694366Y-97985572D01*
X136694365Y-97985572D01*
X136694369Y-97985568D01*
X136790875Y-97796164D01*
X136843913Y-97632930D01*
X137785933Y-97632930D01*
X137806437Y-97801799D01*
X137806438Y-97801804D01*
X137866760Y-97960861D01*
X137917657Y-98034597D01*
X137963395Y-98100859D01*
X138041198Y-98169786D01*
X138090728Y-98213666D01*
X138225049Y-98284163D01*
X138241353Y-98292720D01*
X138406522Y-98333430D01*
X138576634Y-98333430D01*
X138741803Y-98292720D01*
X138780521Y-98272398D01*
X138849028Y-98258672D01*
X138914082Y-98284163D01*
X138940197Y-98311753D01*
X139019210Y-98426222D01*
X139110247Y-98506873D01*
X139146543Y-98539029D01*
X139291928Y-98615333D01*
X139297168Y-98618083D01*
X139462337Y-98658793D01*
X139632449Y-98658793D01*
X139797618Y-98618083D01*
X139908285Y-98560000D01*
X139948242Y-98539029D01*
X139948243Y-98539027D01*
X139948245Y-98539027D01*
X139984541Y-98506871D01*
X140047771Y-98477152D01*
X140117034Y-98486334D01*
X140170338Y-98531506D01*
X140190759Y-98598325D01*
X140171812Y-98665577D01*
X140171760Y-98665660D01*
X140077371Y-98815878D01*
X140017791Y-98986147D01*
X140017790Y-98986152D01*
X139997595Y-99165398D01*
X139997595Y-99165405D01*
X140017790Y-99344651D01*
X140017791Y-99344656D01*
X140077371Y-99514925D01*
X140149645Y-99629947D01*
X140173344Y-99667664D01*
X140300898Y-99795218D01*
X140316380Y-99804946D01*
X140434993Y-99879476D01*
X140453638Y-99891191D01*
X140582512Y-99936286D01*
X140623905Y-99950770D01*
X140623910Y-99950771D01*
X140803156Y-99970967D01*
X140803160Y-99970967D01*
X140803164Y-99970967D01*
X140982409Y-99950771D01*
X140982412Y-99950770D01*
X140982415Y-99950770D01*
X141152682Y-99891191D01*
X141305422Y-99795218D01*
X141432976Y-99667664D01*
X141528949Y-99514924D01*
X141588528Y-99344657D01*
X141592254Y-99311588D01*
X141608725Y-99165405D01*
X141608725Y-99165398D01*
X141588529Y-98986152D01*
X141588528Y-98986147D01*
X141528948Y-98815878D01*
X141523376Y-98807010D01*
X141504376Y-98739773D01*
X141524744Y-98672938D01*
X141578012Y-98627724D01*
X141647269Y-98618487D01*
X141685993Y-98631240D01*
X141806307Y-98694387D01*
X141971476Y-98735097D01*
X142141588Y-98735097D01*
X142306757Y-98694387D01*
X142426863Y-98631350D01*
X142457381Y-98615333D01*
X142457382Y-98615331D01*
X142457384Y-98615331D01*
X142584715Y-98502526D01*
X142620263Y-98451024D01*
X142674542Y-98407037D01*
X142743991Y-98399377D01*
X142806556Y-98430479D01*
X142815126Y-98439240D01*
X142819684Y-98444385D01*
X142819687Y-98444388D01*
X142819689Y-98444390D01*
X142889601Y-98506326D01*
X142947022Y-98557197D01*
X143078291Y-98626092D01*
X143097647Y-98636251D01*
X143262816Y-98676961D01*
X143432928Y-98676961D01*
X143598097Y-98636251D01*
X143708240Y-98578443D01*
X143748721Y-98557197D01*
X143748722Y-98557195D01*
X143748724Y-98557195D01*
X143876055Y-98444390D01*
X143890568Y-98423364D01*
X143944849Y-98379375D01*
X144014297Y-98371715D01*
X144076862Y-98402817D01*
X144094668Y-98423367D01*
X144099145Y-98429854D01*
X144099146Y-98429855D01*
X144099147Y-98429856D01*
X144115553Y-98444390D01*
X144226480Y-98542663D01*
X144364941Y-98615333D01*
X144377105Y-98621717D01*
X144542274Y-98662427D01*
X144712386Y-98662427D01*
X144877555Y-98621717D01*
X144995146Y-98560000D01*
X145028179Y-98542663D01*
X145028180Y-98542661D01*
X145028182Y-98542661D01*
X145155513Y-98429856D01*
X145155516Y-98429852D01*
X145160487Y-98424242D01*
X145162744Y-98426241D01*
X145206252Y-98390957D01*
X145275697Y-98383272D01*
X145338273Y-98414353D01*
X145356112Y-98434933D01*
X145359256Y-98439489D01*
X145486590Y-98552297D01*
X145611933Y-98618082D01*
X145637215Y-98631351D01*
X145802384Y-98672061D01*
X145972496Y-98672061D01*
X146137665Y-98631351D01*
X146238472Y-98578443D01*
X146288289Y-98552297D01*
X146288290Y-98552295D01*
X146288292Y-98552295D01*
X146415623Y-98439490D01*
X146417511Y-98436753D01*
X146419412Y-98435213D01*
X146420597Y-98433876D01*
X146420819Y-98434072D01*
X146471791Y-98392763D01*
X146541240Y-98385100D01*
X146603806Y-98416201D01*
X146613166Y-98427004D01*
X146613551Y-98426664D01*
X146618521Y-98432274D01*
X146618524Y-98432276D01*
X146618525Y-98432278D01*
X146679542Y-98486334D01*
X146745858Y-98545085D01*
X146884942Y-98618082D01*
X146896483Y-98624139D01*
X147061652Y-98664849D01*
X147231764Y-98664849D01*
X147396933Y-98624139D01*
X147507335Y-98566195D01*
X147547557Y-98545085D01*
X147547558Y-98545083D01*
X147547560Y-98545083D01*
X147674891Y-98432278D01*
X147688026Y-98413247D01*
X147742308Y-98369258D01*
X147811756Y-98361598D01*
X147872303Y-98390873D01*
X147875292Y-98393521D01*
X147927180Y-98439490D01*
X148002622Y-98506325D01*
X148002624Y-98506327D01*
X148140029Y-98578443D01*
X148153250Y-98585382D01*
X148318419Y-98626092D01*
X148488531Y-98626092D01*
X148653700Y-98585382D01*
X148742021Y-98539027D01*
X148804324Y-98506328D01*
X148804325Y-98506326D01*
X148804327Y-98506326D01*
X148931658Y-98393521D01*
X149028293Y-98253522D01*
X149088615Y-98094464D01*
X149109120Y-97925592D01*
X149088615Y-97756720D01*
X149028293Y-97597662D01*
X149016499Y-97580576D01*
X148980444Y-97528341D01*
X148931658Y-97457663D01*
X148825942Y-97364007D01*
X148804324Y-97344855D01*
X148653701Y-97265802D01*
X148488531Y-97225092D01*
X148318419Y-97225092D01*
X148153248Y-97265802D01*
X148002625Y-97344855D01*
X147875292Y-97457662D01*
X147862154Y-97476696D01*
X147807869Y-97520684D01*
X147738420Y-97528341D01*
X147677879Y-97499067D01*
X147547560Y-97383615D01*
X147547558Y-97383613D01*
X147396934Y-97304559D01*
X147231764Y-97263849D01*
X147061652Y-97263849D01*
X146896481Y-97304559D01*
X146745858Y-97383612D01*
X146618522Y-97496422D01*
X146616628Y-97499167D01*
X146614724Y-97500709D01*
X146613551Y-97502034D01*
X146613330Y-97501838D01*
X146562341Y-97543153D01*
X146492892Y-97550806D01*
X146430330Y-97519697D01*
X146420981Y-97508905D01*
X146420597Y-97509246D01*
X146415626Y-97503635D01*
X146412323Y-97500709D01*
X146315015Y-97414501D01*
X146288289Y-97390824D01*
X146137666Y-97311771D01*
X145972496Y-97271061D01*
X145802384Y-97271061D01*
X145637213Y-97311771D01*
X145486590Y-97390824D01*
X145359253Y-97503635D01*
X145354283Y-97509246D01*
X145352042Y-97507260D01*
X145308398Y-97542580D01*
X145238944Y-97550192D01*
X145176401Y-97519046D01*
X145158656Y-97498552D01*
X145155513Y-97493998D01*
X145028179Y-97381190D01*
X144877556Y-97302137D01*
X144712386Y-97261427D01*
X144542274Y-97261427D01*
X144377103Y-97302137D01*
X144226480Y-97381190D01*
X144099145Y-97493999D01*
X144084632Y-97515025D01*
X144030348Y-97559014D01*
X143960899Y-97566671D01*
X143898335Y-97535566D01*
X143880535Y-97515022D01*
X143876055Y-97508532D01*
X143769916Y-97414501D01*
X143748721Y-97395724D01*
X143598098Y-97316671D01*
X143432928Y-97275961D01*
X143262816Y-97275961D01*
X143097645Y-97316671D01*
X142947022Y-97395724D01*
X142821125Y-97507260D01*
X142819689Y-97508532D01*
X142790510Y-97550806D01*
X142784142Y-97560031D01*
X142729858Y-97604021D01*
X142660410Y-97611680D01*
X142597845Y-97580576D01*
X142589276Y-97571817D01*
X142584714Y-97566667D01*
X142457381Y-97453860D01*
X142306758Y-97374807D01*
X142141588Y-97334097D01*
X141971476Y-97334097D01*
X141806305Y-97374807D01*
X141655682Y-97453860D01*
X141528349Y-97566668D01*
X141462291Y-97662367D01*
X141408007Y-97706356D01*
X141338559Y-97714014D01*
X141275994Y-97682910D01*
X141244300Y-97635895D01*
X141237063Y-97616811D01*
X141233521Y-97611680D01*
X141186220Y-97543153D01*
X141140428Y-97476812D01*
X141035709Y-97384039D01*
X141013094Y-97364004D01*
X140862471Y-97284951D01*
X140697301Y-97244241D01*
X140527189Y-97244241D01*
X140362018Y-97284951D01*
X140211395Y-97364004D01*
X140154396Y-97414501D01*
X140091162Y-97444221D01*
X140021899Y-97435037D01*
X139989944Y-97414500D01*
X139948245Y-97377559D01*
X139948243Y-97377557D01*
X139797619Y-97298503D01*
X139632449Y-97257793D01*
X139462337Y-97257793D01*
X139297167Y-97298502D01*
X139258447Y-97318825D01*
X139189939Y-97332549D01*
X139124886Y-97307057D01*
X139098772Y-97279468D01*
X139096351Y-97275961D01*
X139019761Y-97165001D01*
X139009929Y-97156291D01*
X153465287Y-97156291D01*
X153485791Y-97325160D01*
X153485792Y-97325165D01*
X153546114Y-97484222D01*
X153606578Y-97571817D01*
X153642749Y-97624220D01*
X153706368Y-97680581D01*
X153770082Y-97737027D01*
X153906095Y-97808412D01*
X153920707Y-97816081D01*
X154085876Y-97856791D01*
X154255988Y-97856791D01*
X154421157Y-97816081D01*
X154534259Y-97756720D01*
X154571781Y-97737027D01*
X154571782Y-97737025D01*
X154571784Y-97737025D01*
X154699115Y-97624220D01*
X154795750Y-97484221D01*
X154856072Y-97325163D01*
X154876577Y-97156291D01*
X154856072Y-96987419D01*
X154795750Y-96828361D01*
X154699115Y-96688362D01*
X154604248Y-96604317D01*
X154571781Y-96575554D01*
X154421158Y-96496501D01*
X154255988Y-96455791D01*
X154085876Y-96455791D01*
X153920705Y-96496501D01*
X153770082Y-96575554D01*
X153642748Y-96688363D01*
X153546114Y-96828359D01*
X153485792Y-96987416D01*
X153485791Y-96987421D01*
X153465287Y-97156291D01*
X139009929Y-97156291D01*
X138892430Y-97052196D01*
X138892427Y-97052193D01*
X138741804Y-96973140D01*
X138576634Y-96932430D01*
X138406522Y-96932430D01*
X138241351Y-96973140D01*
X138090728Y-97052193D01*
X137963394Y-97165002D01*
X137866760Y-97304998D01*
X137806438Y-97464055D01*
X137806437Y-97464060D01*
X137785933Y-97632930D01*
X136843913Y-97632930D01*
X136856564Y-97593995D01*
X136889818Y-97384039D01*
X136889818Y-97171465D01*
X136856564Y-96961509D01*
X136790875Y-96759340D01*
X136694369Y-96569936D01*
X136694367Y-96569933D01*
X136694366Y-96569931D01*
X136569427Y-96397965D01*
X136419104Y-96247642D01*
X136247138Y-96122703D01*
X136246433Y-96122343D01*
X136238372Y-96118237D01*
X136187577Y-96070264D01*
X136170781Y-96002444D01*
X136193317Y-95936308D01*
X136238372Y-95897267D01*
X136247134Y-95892803D01*
X136269107Y-95876838D01*
X136419104Y-95767861D01*
X136419106Y-95767858D01*
X136419110Y-95767856D01*
X136569422Y-95617544D01*
X136569424Y-95617540D01*
X136569427Y-95617538D01*
X136694366Y-95445572D01*
X136694365Y-95445572D01*
X136694369Y-95445568D01*
X136790875Y-95256164D01*
X136856564Y-95053995D01*
X136889818Y-94844039D01*
X136889818Y-94631465D01*
X136884862Y-94600174D01*
X151681251Y-94600174D01*
X151701755Y-94769043D01*
X151701756Y-94769048D01*
X151762078Y-94928105D01*
X151771191Y-94941307D01*
X151858713Y-95068103D01*
X151986044Y-95180908D01*
X151995963Y-95186114D01*
X151997794Y-95187075D01*
X152048006Y-95235660D01*
X152063980Y-95303679D01*
X152063263Y-95311817D01*
X152043407Y-95475349D01*
X152063911Y-95644219D01*
X152063912Y-95644224D01*
X152124234Y-95803281D01*
X152186026Y-95892800D01*
X152220869Y-95943279D01*
X152314462Y-96026195D01*
X152348202Y-96056086D01*
X152489956Y-96130484D01*
X152498827Y-96135140D01*
X152663996Y-96175850D01*
X152834108Y-96175850D01*
X152999277Y-96135140D01*
X153122887Y-96070264D01*
X153149901Y-96056086D01*
X153149902Y-96056084D01*
X153149904Y-96056084D01*
X153277235Y-95943279D01*
X153373870Y-95803280D01*
X153434192Y-95644222D01*
X153454697Y-95475350D01*
X153434192Y-95306478D01*
X153433130Y-95303679D01*
X153373870Y-95147421D01*
X153373870Y-95147420D01*
X153308372Y-95052531D01*
X153286491Y-94986180D01*
X153303956Y-94918529D01*
X153355223Y-94871058D01*
X153424017Y-94858841D01*
X153468050Y-94872298D01*
X153574379Y-94928104D01*
X153599537Y-94941308D01*
X153764706Y-94982018D01*
X153934818Y-94982018D01*
X154099987Y-94941308D01*
X154188950Y-94894616D01*
X154250611Y-94862254D01*
X154250612Y-94862252D01*
X154250614Y-94862252D01*
X154377945Y-94749447D01*
X154474580Y-94609448D01*
X154534902Y-94450390D01*
X154555407Y-94281518D01*
X154534902Y-94112646D01*
X154474580Y-93953588D01*
X154407921Y-93857017D01*
X154386039Y-93790664D01*
X154403504Y-93723012D01*
X154454772Y-93675542D01*
X154466011Y-93670632D01*
X154468222Y-93669792D01*
X154468234Y-93669790D01*
X154527554Y-93638655D01*
X154618858Y-93590736D01*
X154618859Y-93590734D01*
X154618861Y-93590734D01*
X154746192Y-93477929D01*
X154842827Y-93337930D01*
X154903149Y-93178872D01*
X154923654Y-93010000D01*
X154903149Y-92841128D01*
X154842827Y-92682070D01*
X154746192Y-92542071D01*
X154728326Y-92526243D01*
X154693338Y-92495246D01*
X154656211Y-92436057D01*
X154656979Y-92366192D01*
X154693336Y-92309616D01*
X154808119Y-92207929D01*
X154904754Y-92067930D01*
X154965076Y-91908872D01*
X154985581Y-91740000D01*
X154965076Y-91571128D01*
X154904754Y-91412070D01*
X154848248Y-91330208D01*
X154808119Y-91272071D01*
X154727934Y-91201033D01*
X154690808Y-91141843D01*
X154691576Y-91071978D01*
X154727935Y-91015403D01*
X154815386Y-90937929D01*
X154912021Y-90797930D01*
X154972343Y-90638872D01*
X154992848Y-90470000D01*
X154972343Y-90301128D01*
X154912021Y-90142070D01*
X154815386Y-90002071D01*
X154797520Y-89986243D01*
X154726264Y-89923115D01*
X154689137Y-89863926D01*
X154689905Y-89794060D01*
X154726265Y-89737484D01*
X154799428Y-89672668D01*
X154801500Y-89669667D01*
X154896064Y-89532668D01*
X154956386Y-89373610D01*
X154976891Y-89204738D01*
X154956386Y-89035866D01*
X154896064Y-88876808D01*
X154893991Y-88873805D01*
X154827837Y-88777965D01*
X154799429Y-88736809D01*
X154714458Y-88661531D01*
X154677332Y-88602343D01*
X154678100Y-88532478D01*
X154714457Y-88475904D01*
X154800852Y-88399366D01*
X154897487Y-88259367D01*
X154957809Y-88100309D01*
X154978314Y-87931437D01*
X154957809Y-87762565D01*
X154956130Y-87758139D01*
X154897486Y-87603505D01*
X154812160Y-87479891D01*
X154800852Y-87463508D01*
X154692891Y-87367863D01*
X154655766Y-87308676D01*
X154656534Y-87238811D01*
X154692891Y-87182236D01*
X154757250Y-87125220D01*
X154853885Y-86985221D01*
X154914207Y-86826163D01*
X154934712Y-86657291D01*
X154914207Y-86488419D01*
X154853885Y-86329361D01*
X154757250Y-86189362D01*
X154660425Y-86103582D01*
X154623301Y-86044397D01*
X154624068Y-85974531D01*
X154660427Y-85917955D01*
X154728183Y-85857929D01*
X154824818Y-85717930D01*
X154885140Y-85558872D01*
X154905645Y-85390000D01*
X154885140Y-85221128D01*
X154824818Y-85062070D01*
X154824815Y-85062066D01*
X154786423Y-85006446D01*
X154728183Y-84922071D01*
X154600852Y-84809266D01*
X154600849Y-84809263D01*
X154450226Y-84730210D01*
X154285056Y-84689500D01*
X154114944Y-84689500D01*
X154113767Y-84689500D01*
X154046728Y-84669815D01*
X154000973Y-84617011D01*
X153991029Y-84547853D01*
X154011718Y-84495059D01*
X154044247Y-84447933D01*
X154044248Y-84447931D01*
X154044247Y-84447931D01*
X154044249Y-84447930D01*
X154104571Y-84288872D01*
X154125076Y-84120000D01*
X154104571Y-83951128D01*
X154044249Y-83792070D01*
X154044248Y-83792068D01*
X154044247Y-83792066D01*
X154011718Y-83744941D01*
X153989834Y-83678586D01*
X154007299Y-83610935D01*
X154058566Y-83563464D01*
X154113767Y-83550500D01*
X154289322Y-83550500D01*
X154454491Y-83509790D01*
X154552806Y-83458190D01*
X154605115Y-83430736D01*
X154605116Y-83430734D01*
X154605118Y-83430734D01*
X154732449Y-83317929D01*
X154829084Y-83177930D01*
X154889406Y-83018872D01*
X154909911Y-82850000D01*
X154889406Y-82681128D01*
X154887608Y-82676388D01*
X154829083Y-82522068D01*
X154792312Y-82468797D01*
X154732449Y-82382071D01*
X154727099Y-82377331D01*
X154637492Y-82297946D01*
X154600365Y-82238757D01*
X154601133Y-82168891D01*
X154637491Y-82112316D01*
X154710171Y-82047929D01*
X154806806Y-81907930D01*
X154867128Y-81748872D01*
X154887633Y-81580000D01*
X154867128Y-81411128D01*
X154806806Y-81252070D01*
X154804579Y-81248844D01*
X154760371Y-81184798D01*
X154710171Y-81112071D01*
X154606127Y-81019896D01*
X154582837Y-80999263D01*
X154432214Y-80920210D01*
X154267044Y-80879500D01*
X154096932Y-80879500D01*
X153931761Y-80920210D01*
X153781138Y-80999263D01*
X153653804Y-81112072D01*
X153557170Y-81252068D01*
X153496848Y-81411125D01*
X153496847Y-81411130D01*
X153476343Y-81580000D01*
X153496847Y-81748869D01*
X153496848Y-81748874D01*
X153557170Y-81907931D01*
X153573415Y-81931465D01*
X153651580Y-82044706D01*
X153653806Y-82047930D01*
X153748761Y-82132053D01*
X153785888Y-82191242D01*
X153785120Y-82261107D01*
X153748761Y-82317683D01*
X153676084Y-82382069D01*
X153579448Y-82522068D01*
X153519126Y-82681125D01*
X153519125Y-82681130D01*
X153498621Y-82850000D01*
X153519125Y-83018869D01*
X153519126Y-83018874D01*
X153579448Y-83177931D01*
X153579449Y-83177933D01*
X153611979Y-83225059D01*
X153633863Y-83291414D01*
X153616398Y-83359065D01*
X153565131Y-83406536D01*
X153509930Y-83419500D01*
X153334375Y-83419500D01*
X153169204Y-83460210D01*
X153018581Y-83539263D01*
X152891247Y-83652072D01*
X152794613Y-83792068D01*
X152734291Y-83951125D01*
X152734290Y-83951130D01*
X152713786Y-84120000D01*
X152734290Y-84288869D01*
X152734291Y-84288874D01*
X152794613Y-84447931D01*
X152810904Y-84471532D01*
X152891248Y-84587929D01*
X152983679Y-84669815D01*
X153018581Y-84700736D01*
X153151275Y-84770379D01*
X153169206Y-84779790D01*
X153334375Y-84820500D01*
X153505664Y-84820500D01*
X153572703Y-84840185D01*
X153618458Y-84892989D01*
X153628402Y-84962147D01*
X153607713Y-85014941D01*
X153575183Y-85062066D01*
X153575182Y-85062068D01*
X153514860Y-85221125D01*
X153514859Y-85221130D01*
X153494355Y-85390000D01*
X153514859Y-85558869D01*
X153514860Y-85558874D01*
X153575182Y-85717931D01*
X153630099Y-85797491D01*
X153671817Y-85857929D01*
X153768641Y-85943707D01*
X153805765Y-86002893D01*
X153804998Y-86072759D01*
X153768640Y-86129335D01*
X153700883Y-86189362D01*
X153604249Y-86329359D01*
X153543927Y-86488416D01*
X153543926Y-86488421D01*
X153523422Y-86657291D01*
X153543926Y-86826160D01*
X153543927Y-86826165D01*
X153604249Y-86985222D01*
X153607885Y-86990489D01*
X153700884Y-87125220D01*
X153808843Y-87220863D01*
X153845969Y-87280051D01*
X153845201Y-87349916D01*
X153808843Y-87406492D01*
X153744485Y-87463508D01*
X153647851Y-87603505D01*
X153587529Y-87762562D01*
X153587528Y-87762567D01*
X153567024Y-87931437D01*
X153587528Y-88100306D01*
X153587529Y-88100311D01*
X153647851Y-88259368D01*
X153698605Y-88332896D01*
X153744486Y-88399366D01*
X153829455Y-88474642D01*
X153866582Y-88533831D01*
X153865814Y-88603696D01*
X153829455Y-88660272D01*
X153743064Y-88736807D01*
X153646428Y-88876806D01*
X153586106Y-89035863D01*
X153586105Y-89035868D01*
X153565601Y-89204738D01*
X153586105Y-89373607D01*
X153586106Y-89373612D01*
X153646428Y-89532669D01*
X153713131Y-89629304D01*
X153740992Y-89669667D01*
X153743064Y-89672668D01*
X153832184Y-89751622D01*
X153869311Y-89810811D01*
X153868543Y-89880677D01*
X153832185Y-89937252D01*
X153759019Y-90002071D01*
X153662385Y-90142068D01*
X153602063Y-90301125D01*
X153602062Y-90301130D01*
X153581558Y-90470000D01*
X153602062Y-90638869D01*
X153602063Y-90638874D01*
X153662385Y-90797931D01*
X153759019Y-90937928D01*
X153839204Y-91008966D01*
X153876330Y-91068156D01*
X153875562Y-91138021D01*
X153839203Y-91194596D01*
X153751754Y-91272069D01*
X153655118Y-91412068D01*
X153594796Y-91571125D01*
X153594795Y-91571130D01*
X153574291Y-91740000D01*
X153594795Y-91908869D01*
X153594796Y-91908874D01*
X153655118Y-92067931D01*
X153671363Y-92091465D01*
X153751753Y-92207929D01*
X153804606Y-92254753D01*
X153841733Y-92313942D01*
X153840965Y-92383807D01*
X153804607Y-92440383D01*
X153689825Y-92542071D01*
X153593191Y-92682068D01*
X153532869Y-92841125D01*
X153532868Y-92841130D01*
X153512364Y-93010000D01*
X153532868Y-93178869D01*
X153532869Y-93178874D01*
X153593191Y-93337931D01*
X153659848Y-93434499D01*
X153681731Y-93500853D01*
X153664266Y-93568505D01*
X153612998Y-93615975D01*
X153601774Y-93620879D01*
X153599537Y-93621727D01*
X153448912Y-93700781D01*
X153321578Y-93813590D01*
X153224944Y-93953586D01*
X153164622Y-94112643D01*
X153162827Y-94119930D01*
X153161486Y-94119599D01*
X153137048Y-94176366D01*
X153079110Y-94215417D01*
X153009257Y-94216945D01*
X152949667Y-94180464D01*
X152939532Y-94167671D01*
X152915081Y-94132247D01*
X152900804Y-94119599D01*
X152787748Y-94019440D01*
X152787745Y-94019437D01*
X152637122Y-93940384D01*
X152471952Y-93899674D01*
X152301840Y-93899674D01*
X152136669Y-93940384D01*
X151986046Y-94019437D01*
X151858712Y-94132246D01*
X151762078Y-94272242D01*
X151701756Y-94431299D01*
X151701755Y-94431304D01*
X151681251Y-94600174D01*
X136884862Y-94600174D01*
X136856564Y-94421509D01*
X136790875Y-94219340D01*
X136694369Y-94029936D01*
X136694367Y-94029933D01*
X136694366Y-94029931D01*
X136569427Y-93857965D01*
X136419104Y-93707642D01*
X136247138Y-93582703D01*
X136243831Y-93581018D01*
X136238372Y-93578237D01*
X136187577Y-93530264D01*
X136170781Y-93462444D01*
X136193317Y-93396308D01*
X136238372Y-93357267D01*
X136247134Y-93352803D01*
X136269107Y-93336838D01*
X136419104Y-93227861D01*
X136419106Y-93227858D01*
X136419110Y-93227856D01*
X136569422Y-93077544D01*
X136569424Y-93077540D01*
X136569427Y-93077538D01*
X136694366Y-92905572D01*
X136694365Y-92905572D01*
X136694369Y-92905568D01*
X136790875Y-92716164D01*
X136856564Y-92513995D01*
X136889818Y-92304039D01*
X136889818Y-92091465D01*
X136856564Y-91881509D01*
X136790875Y-91679340D01*
X136694369Y-91489936D01*
X136694367Y-91489933D01*
X136694366Y-91489931D01*
X136569427Y-91317965D01*
X136419104Y-91167642D01*
X136247138Y-91042703D01*
X136246433Y-91042343D01*
X136238372Y-91038237D01*
X136187577Y-90990264D01*
X136170781Y-90922444D01*
X136193317Y-90856308D01*
X136238372Y-90817267D01*
X136247134Y-90812803D01*
X136269107Y-90796838D01*
X136419104Y-90687861D01*
X136419106Y-90687858D01*
X136419110Y-90687856D01*
X136569422Y-90537544D01*
X136569424Y-90537540D01*
X136569427Y-90537538D01*
X136694366Y-90365572D01*
X136694365Y-90365572D01*
X136694369Y-90365568D01*
X136790875Y-90176164D01*
X136856564Y-89973995D01*
X136889818Y-89764039D01*
X136889818Y-89551465D01*
X136856564Y-89341509D01*
X136790875Y-89139340D01*
X136694369Y-88949936D01*
X136694367Y-88949933D01*
X136694366Y-88949931D01*
X136569427Y-88777965D01*
X136419104Y-88627642D01*
X136247138Y-88502703D01*
X136246433Y-88502343D01*
X136238372Y-88498237D01*
X136187577Y-88450264D01*
X136170781Y-88382444D01*
X136193317Y-88316308D01*
X136238372Y-88277267D01*
X136247134Y-88272803D01*
X136285570Y-88244878D01*
X136419104Y-88147861D01*
X136419106Y-88147858D01*
X136419110Y-88147856D01*
X136569422Y-87997544D01*
X136569424Y-87997540D01*
X136569427Y-87997538D01*
X136694366Y-87825572D01*
X136694365Y-87825572D01*
X136694369Y-87825568D01*
X136790875Y-87636164D01*
X136856564Y-87433995D01*
X136889818Y-87224039D01*
X136889818Y-87011465D01*
X136856564Y-86801509D01*
X136790875Y-86599340D01*
X136694369Y-86409936D01*
X136694367Y-86409933D01*
X136694366Y-86409931D01*
X136569427Y-86237965D01*
X136419104Y-86087642D01*
X136247138Y-85962703D01*
X136246433Y-85962343D01*
X136238372Y-85958237D01*
X136187577Y-85910264D01*
X136170781Y-85842444D01*
X136193317Y-85776308D01*
X136238372Y-85737267D01*
X136247134Y-85732803D01*
X136296563Y-85696891D01*
X136419104Y-85607861D01*
X136419106Y-85607858D01*
X136419110Y-85607856D01*
X136569422Y-85457544D01*
X136569424Y-85457540D01*
X136569427Y-85457538D01*
X136694366Y-85285572D01*
X136694365Y-85285572D01*
X136694369Y-85285568D01*
X136790875Y-85096164D01*
X136856564Y-84893995D01*
X136889818Y-84684039D01*
X136889818Y-84471465D01*
X136856564Y-84261509D01*
X136790875Y-84059340D01*
X136694369Y-83869936D01*
X136694367Y-83869933D01*
X136694366Y-83869931D01*
X136569427Y-83697965D01*
X136419104Y-83547642D01*
X136247138Y-83422703D01*
X136246433Y-83422343D01*
X136238372Y-83418237D01*
X136187577Y-83370264D01*
X136170781Y-83302444D01*
X136193317Y-83236308D01*
X136238372Y-83197267D01*
X136247134Y-83192803D01*
X136274129Y-83173190D01*
X136419104Y-83067861D01*
X136419106Y-83067858D01*
X136419110Y-83067856D01*
X136569422Y-82917544D01*
X136569424Y-82917540D01*
X136569427Y-82917538D01*
X136694366Y-82745572D01*
X136694365Y-82745572D01*
X136694369Y-82745568D01*
X136790875Y-82556164D01*
X136856564Y-82353995D01*
X136889818Y-82144039D01*
X136889818Y-81931465D01*
X136856564Y-81721509D01*
X136809537Y-81576776D01*
X138096726Y-81576776D01*
X138117230Y-81745645D01*
X138117231Y-81745650D01*
X138177553Y-81904707D01*
X138274189Y-82044706D01*
X138357149Y-82118203D01*
X138394276Y-82177392D01*
X138393508Y-82247258D01*
X138357149Y-82303833D01*
X138274189Y-82377329D01*
X138177553Y-82517328D01*
X138117231Y-82676385D01*
X138117230Y-82676390D01*
X138096726Y-82845260D01*
X138117230Y-83014129D01*
X138117231Y-83014134D01*
X138177553Y-83173191D01*
X138274189Y-83313190D01*
X138374000Y-83401615D01*
X138411127Y-83460804D01*
X138410359Y-83530669D01*
X138374001Y-83587245D01*
X138274187Y-83675672D01*
X138177553Y-83815669D01*
X138117231Y-83974726D01*
X138117230Y-83974731D01*
X138096726Y-84143601D01*
X138117230Y-84312470D01*
X138117231Y-84312475D01*
X138177553Y-84471532D01*
X138274189Y-84611531D01*
X138348724Y-84677564D01*
X138385851Y-84736753D01*
X138385083Y-84806619D01*
X138348724Y-84863194D01*
X138274189Y-84929226D01*
X138177553Y-85069225D01*
X138117231Y-85228282D01*
X138117230Y-85228287D01*
X138096726Y-85397157D01*
X138117230Y-85566026D01*
X138117231Y-85566031D01*
X138177553Y-85725088D01*
X138214983Y-85779314D01*
X138270677Y-85860000D01*
X138274189Y-85865087D01*
X138355409Y-85937042D01*
X138392536Y-85996231D01*
X138391768Y-86066097D01*
X138355410Y-86122672D01*
X138274187Y-86194629D01*
X138177553Y-86334626D01*
X138117231Y-86493683D01*
X138117230Y-86493688D01*
X138096726Y-86662558D01*
X138117230Y-86831427D01*
X138117231Y-86831432D01*
X138177553Y-86990489D01*
X138244256Y-87087124D01*
X138270552Y-87125220D01*
X138274189Y-87130488D01*
X138354876Y-87201971D01*
X138392003Y-87261160D01*
X138391235Y-87331026D01*
X138354876Y-87387601D01*
X138274189Y-87459083D01*
X138177553Y-87599082D01*
X138117231Y-87758139D01*
X138117230Y-87758144D01*
X138096726Y-87927014D01*
X138117230Y-88095883D01*
X138117231Y-88095888D01*
X138177553Y-88254945D01*
X138231360Y-88332896D01*
X138274188Y-88394943D01*
X138360672Y-88471561D01*
X138397798Y-88530749D01*
X138397030Y-88600614D01*
X138360671Y-88657190D01*
X138274189Y-88733806D01*
X138177553Y-88873805D01*
X138117231Y-89032862D01*
X138117230Y-89032867D01*
X138096726Y-89201737D01*
X138117230Y-89370606D01*
X138117231Y-89370611D01*
X138177553Y-89529668D01*
X138192599Y-89551465D01*
X138274188Y-89669666D01*
X138362723Y-89748101D01*
X138399849Y-89807289D01*
X138399081Y-89877154D01*
X138362722Y-89933730D01*
X138274189Y-90012163D01*
X138177553Y-90152162D01*
X138117231Y-90311219D01*
X138117230Y-90311224D01*
X138096726Y-90480094D01*
X138117230Y-90648963D01*
X138117231Y-90648968D01*
X138177553Y-90808025D01*
X138210881Y-90856308D01*
X138272926Y-90946195D01*
X138274189Y-90948024D01*
X138343017Y-91009001D01*
X138380144Y-91068190D01*
X138379376Y-91138056D01*
X138343017Y-91194631D01*
X138274189Y-91255607D01*
X138177553Y-91395606D01*
X138117231Y-91554663D01*
X138117230Y-91554668D01*
X138096726Y-91723538D01*
X138117230Y-91892407D01*
X138117231Y-91892412D01*
X138177553Y-92051469D01*
X138274189Y-92191468D01*
X138386527Y-92290991D01*
X138423654Y-92350180D01*
X138422886Y-92420045D01*
X138386528Y-92476621D01*
X138274187Y-92576146D01*
X138177553Y-92716143D01*
X138117231Y-92875200D01*
X138117230Y-92875205D01*
X138096726Y-93044075D01*
X138117230Y-93212944D01*
X138117231Y-93212949D01*
X138177553Y-93372006D01*
X138194328Y-93396308D01*
X138274188Y-93512004D01*
X138367814Y-93594949D01*
X138401521Y-93624811D01*
X138546270Y-93700781D01*
X138552146Y-93703865D01*
X138717315Y-93744575D01*
X138887427Y-93744575D01*
X139052596Y-93703865D01*
X139132063Y-93662156D01*
X139203220Y-93624811D01*
X139203221Y-93624809D01*
X139203223Y-93624809D01*
X139330554Y-93512004D01*
X139427189Y-93372005D01*
X139487511Y-93212947D01*
X139508016Y-93044075D01*
X139498245Y-92963603D01*
X150857958Y-92963603D01*
X150878462Y-93132472D01*
X150878463Y-93132477D01*
X150938785Y-93291534D01*
X150989530Y-93365050D01*
X151035420Y-93431532D01*
X151141108Y-93525163D01*
X151162753Y-93544339D01*
X151299244Y-93615975D01*
X151313378Y-93623393D01*
X151478547Y-93664103D01*
X151648659Y-93664103D01*
X151813828Y-93623393D01*
X151899863Y-93578238D01*
X151964452Y-93544339D01*
X151964453Y-93544337D01*
X151964455Y-93544337D01*
X152091786Y-93431532D01*
X152188421Y-93291533D01*
X152248743Y-93132475D01*
X152269248Y-92963603D01*
X152248743Y-92794731D01*
X152188421Y-92635673D01*
X152091786Y-92495674D01*
X151996919Y-92411629D01*
X151964452Y-92382866D01*
X151813829Y-92303813D01*
X151648659Y-92263103D01*
X151478547Y-92263103D01*
X151313376Y-92303813D01*
X151162753Y-92382866D01*
X151035419Y-92495675D01*
X150938785Y-92635671D01*
X150878463Y-92794728D01*
X150878462Y-92794733D01*
X150857958Y-92963603D01*
X139498245Y-92963603D01*
X139487511Y-92875203D01*
X139427189Y-92716145D01*
X139330554Y-92576146D01*
X139330552Y-92576144D01*
X139218214Y-92476621D01*
X139181087Y-92417432D01*
X139181855Y-92347566D01*
X139218212Y-92290992D01*
X139330554Y-92191467D01*
X139427189Y-92051468D01*
X139487511Y-91892410D01*
X139508016Y-91723538D01*
X139487511Y-91554666D01*
X139427189Y-91395608D01*
X139330554Y-91255609D01*
X139261722Y-91194630D01*
X139224597Y-91135442D01*
X139225365Y-91065577D01*
X139261722Y-91009001D01*
X139330554Y-90948023D01*
X139427189Y-90808024D01*
X139487511Y-90648966D01*
X139508016Y-90480094D01*
X139487511Y-90311222D01*
X139427189Y-90152164D01*
X139330554Y-90012165D01*
X139242017Y-89933729D01*
X139204892Y-89874541D01*
X139205660Y-89804676D01*
X139242018Y-89748101D01*
X139321371Y-89677800D01*
X139330553Y-89669667D01*
X139403689Y-89563713D01*
X139427189Y-89529667D01*
X139487511Y-89370609D01*
X139508016Y-89201737D01*
X139487511Y-89032865D01*
X139428271Y-88876660D01*
X143953830Y-88876660D01*
X143953830Y-88876661D01*
X143967630Y-88885333D01*
X143967629Y-88885333D01*
X144137799Y-88944878D01*
X144316935Y-88965062D01*
X144316941Y-88965062D01*
X144496076Y-88944878D01*
X144496079Y-88944877D01*
X144666243Y-88885334D01*
X144666244Y-88885334D01*
X144680044Y-88876661D01*
X144680044Y-88876660D01*
X145353830Y-88876660D01*
X145353830Y-88876661D01*
X145367630Y-88885333D01*
X145367629Y-88885333D01*
X145537799Y-88944878D01*
X145716935Y-88965062D01*
X145716941Y-88965062D01*
X145896076Y-88944878D01*
X145896079Y-88944877D01*
X146066243Y-88885334D01*
X146066244Y-88885334D01*
X146080044Y-88876661D01*
X146080044Y-88876660D01*
X145716939Y-88513553D01*
X145716938Y-88513553D01*
X145353830Y-88876660D01*
X144680044Y-88876660D01*
X144316939Y-88513553D01*
X144316938Y-88513553D01*
X143953830Y-88876660D01*
X139428271Y-88876660D01*
X139427189Y-88873807D01*
X139330554Y-88733808D01*
X139244068Y-88657189D01*
X139206943Y-88598001D01*
X139207711Y-88528136D01*
X139244069Y-88471561D01*
X139324846Y-88400000D01*
X139330553Y-88394944D01*
X139335518Y-88387752D01*
X139427189Y-88254944D01*
X139456878Y-88176660D01*
X143253830Y-88176660D01*
X143253830Y-88176661D01*
X143267630Y-88185333D01*
X143267629Y-88185333D01*
X143437800Y-88244878D01*
X143438582Y-88245057D01*
X143439035Y-88245310D01*
X143444369Y-88247177D01*
X143444042Y-88248111D01*
X143499561Y-88279166D01*
X143528890Y-88332874D01*
X143529760Y-88332570D01*
X143531608Y-88337852D01*
X143531878Y-88338346D01*
X143532059Y-88339142D01*
X143591601Y-88509300D01*
X143591601Y-88509301D01*
X143600276Y-88523107D01*
X143963384Y-88160000D01*
X143943493Y-88140109D01*
X144216938Y-88140109D01*
X144216938Y-88179891D01*
X144232162Y-88216645D01*
X144260293Y-88244776D01*
X144297047Y-88260000D01*
X144336829Y-88260000D01*
X144373583Y-88244776D01*
X144401714Y-88216645D01*
X144416938Y-88179891D01*
X144416938Y-88159999D01*
X144670491Y-88159999D01*
X144670491Y-88160000D01*
X145016938Y-88506446D01*
X145016939Y-88506446D01*
X145363384Y-88160000D01*
X145343493Y-88140109D01*
X145616938Y-88140109D01*
X145616938Y-88179891D01*
X145632162Y-88216645D01*
X145660293Y-88244776D01*
X145697047Y-88260000D01*
X145736829Y-88260000D01*
X145773583Y-88244776D01*
X145801714Y-88216645D01*
X145816938Y-88179891D01*
X145816938Y-88159999D01*
X146070491Y-88159999D01*
X146070491Y-88160000D01*
X146433598Y-88523106D01*
X146433599Y-88523106D01*
X146442272Y-88509306D01*
X146442272Y-88509305D01*
X146501814Y-88339144D01*
X146501994Y-88338358D01*
X146502249Y-88337901D01*
X146504115Y-88332570D01*
X146505048Y-88332896D01*
X146536102Y-88277379D01*
X146589813Y-88248049D01*
X146589508Y-88247177D01*
X146594808Y-88245322D01*
X146595296Y-88245056D01*
X146596082Y-88244876D01*
X146766243Y-88185334D01*
X146766244Y-88185334D01*
X146780044Y-88176661D01*
X146780044Y-88176660D01*
X146416938Y-87813553D01*
X146351178Y-87879314D01*
X146351177Y-87879314D01*
X146070491Y-88159999D01*
X145816938Y-88159999D01*
X145816938Y-88140109D01*
X145801714Y-88103355D01*
X145773583Y-88075224D01*
X145736829Y-88060000D01*
X145697047Y-88060000D01*
X145660293Y-88075224D01*
X145632162Y-88103355D01*
X145616938Y-88140109D01*
X145343493Y-88140109D01*
X145082698Y-87879314D01*
X145016938Y-87813553D01*
X144951178Y-87879314D01*
X144951177Y-87879314D01*
X144670491Y-88159999D01*
X144416938Y-88159999D01*
X144416938Y-88140109D01*
X144401714Y-88103355D01*
X144373583Y-88075224D01*
X144336829Y-88060000D01*
X144297047Y-88060000D01*
X144260293Y-88075224D01*
X144232162Y-88103355D01*
X144216938Y-88140109D01*
X143943493Y-88140109D01*
X143616937Y-87813553D01*
X143616936Y-87813553D01*
X143253830Y-88176660D01*
X139456878Y-88176660D01*
X139487511Y-88095886D01*
X139508016Y-87927014D01*
X139487511Y-87758142D01*
X139427189Y-87599084D01*
X139331184Y-87459997D01*
X142811876Y-87459997D01*
X142811876Y-87460002D01*
X142832059Y-87639138D01*
X142891603Y-87809304D01*
X142900276Y-87823107D01*
X143263384Y-87460000D01*
X143263384Y-87459999D01*
X143243494Y-87440109D01*
X143516938Y-87440109D01*
X143516938Y-87479891D01*
X143532162Y-87516645D01*
X143560293Y-87544776D01*
X143597047Y-87560000D01*
X143636829Y-87560000D01*
X143673583Y-87544776D01*
X143701714Y-87516645D01*
X143716938Y-87479891D01*
X143716938Y-87459999D01*
X143970491Y-87459999D01*
X144316938Y-87806446D01*
X144663384Y-87460000D01*
X144643493Y-87440109D01*
X144916938Y-87440109D01*
X144916938Y-87479891D01*
X144932162Y-87516645D01*
X144960293Y-87544776D01*
X144997047Y-87560000D01*
X145036829Y-87560000D01*
X145073583Y-87544776D01*
X145101714Y-87516645D01*
X145116938Y-87479891D01*
X145116938Y-87459999D01*
X145370491Y-87459999D01*
X145716938Y-87806446D01*
X146063384Y-87460000D01*
X146043493Y-87440109D01*
X146316938Y-87440109D01*
X146316938Y-87479891D01*
X146332162Y-87516645D01*
X146360293Y-87544776D01*
X146397047Y-87560000D01*
X146436829Y-87560000D01*
X146473583Y-87544776D01*
X146501714Y-87516645D01*
X146516938Y-87479891D01*
X146516938Y-87460000D01*
X146770490Y-87460000D01*
X147133598Y-87823106D01*
X147133599Y-87823106D01*
X147142272Y-87809306D01*
X147142272Y-87809305D01*
X147201815Y-87639141D01*
X147201816Y-87639138D01*
X147222000Y-87460002D01*
X147222000Y-87459997D01*
X147201816Y-87280861D01*
X147142271Y-87110692D01*
X147133599Y-87096892D01*
X147133598Y-87096892D01*
X146770490Y-87460000D01*
X146516938Y-87460000D01*
X146516938Y-87440109D01*
X146501714Y-87403355D01*
X146473583Y-87375224D01*
X146436829Y-87360000D01*
X146397047Y-87360000D01*
X146360293Y-87375224D01*
X146332162Y-87403355D01*
X146316938Y-87440109D01*
X146043493Y-87440109D01*
X145782698Y-87179314D01*
X145716938Y-87113553D01*
X145651178Y-87179314D01*
X145651177Y-87179314D01*
X145370491Y-87459999D01*
X145116938Y-87459999D01*
X145116938Y-87440109D01*
X145101714Y-87403355D01*
X145073583Y-87375224D01*
X145036829Y-87360000D01*
X144997047Y-87360000D01*
X144960293Y-87375224D01*
X144932162Y-87403355D01*
X144916938Y-87440109D01*
X144643493Y-87440109D01*
X144382698Y-87179314D01*
X144316938Y-87113553D01*
X144251178Y-87179314D01*
X144251177Y-87179314D01*
X143970491Y-87459999D01*
X143716938Y-87459999D01*
X143716938Y-87440109D01*
X143701714Y-87403355D01*
X143673583Y-87375224D01*
X143636829Y-87360000D01*
X143597047Y-87360000D01*
X143560293Y-87375224D01*
X143532162Y-87403355D01*
X143516938Y-87440109D01*
X143243494Y-87440109D01*
X142900276Y-87096891D01*
X142900275Y-87096891D01*
X142891605Y-87110691D01*
X142891600Y-87110701D01*
X142832060Y-87280858D01*
X142832059Y-87280861D01*
X142811876Y-87459997D01*
X139331184Y-87459997D01*
X139330554Y-87459085D01*
X139249863Y-87387599D01*
X139212738Y-87328412D01*
X139213506Y-87258547D01*
X139249863Y-87201972D01*
X139330554Y-87130487D01*
X139427189Y-86990488D01*
X139487511Y-86831430D01*
X139496184Y-86759999D01*
X143270491Y-86759999D01*
X143270491Y-86760000D01*
X143616936Y-87106446D01*
X143616937Y-87106446D01*
X143921875Y-86801509D01*
X143963384Y-86760000D01*
X143943493Y-86740109D01*
X144216938Y-86740109D01*
X144216938Y-86779891D01*
X144232162Y-86816645D01*
X144260293Y-86844776D01*
X144297047Y-86860000D01*
X144336829Y-86860000D01*
X144373583Y-86844776D01*
X144401714Y-86816645D01*
X144416938Y-86779891D01*
X144416938Y-86759999D01*
X144670491Y-86759999D01*
X144712001Y-86801508D01*
X144712002Y-86801510D01*
X145016938Y-87106446D01*
X145363384Y-86760000D01*
X145343493Y-86740109D01*
X145616938Y-86740109D01*
X145616938Y-86779891D01*
X145632162Y-86816645D01*
X145660293Y-86844776D01*
X145697047Y-86860000D01*
X145736829Y-86860000D01*
X145773583Y-86844776D01*
X145801714Y-86816645D01*
X145816938Y-86779891D01*
X145816938Y-86759999D01*
X146070491Y-86759999D01*
X146112001Y-86801508D01*
X146112002Y-86801510D01*
X146416938Y-87106446D01*
X146763384Y-86760000D01*
X146763384Y-86759999D01*
X146416938Y-86413553D01*
X146351178Y-86479314D01*
X146351177Y-86479314D01*
X146070491Y-86759999D01*
X145816938Y-86759999D01*
X145816938Y-86740109D01*
X145801714Y-86703355D01*
X145773583Y-86675224D01*
X145736829Y-86660000D01*
X145697047Y-86660000D01*
X145660293Y-86675224D01*
X145632162Y-86703355D01*
X145616938Y-86740109D01*
X145343493Y-86740109D01*
X145082698Y-86479314D01*
X145016938Y-86413553D01*
X144951178Y-86479314D01*
X144951177Y-86479314D01*
X144670491Y-86759999D01*
X144416938Y-86759999D01*
X144416938Y-86740109D01*
X144401714Y-86703355D01*
X144373583Y-86675224D01*
X144336829Y-86660000D01*
X144297047Y-86660000D01*
X144260293Y-86675224D01*
X144232162Y-86703355D01*
X144216938Y-86740109D01*
X143943493Y-86740109D01*
X143616937Y-86413553D01*
X143616936Y-86413553D01*
X143270491Y-86759999D01*
X139496184Y-86759999D01*
X139508016Y-86662558D01*
X139487511Y-86493686D01*
X139485512Y-86488416D01*
X139455510Y-86409305D01*
X139427189Y-86334628D01*
X139423553Y-86329361D01*
X139368921Y-86250213D01*
X139330554Y-86194629D01*
X139291466Y-86160000D01*
X139249332Y-86122672D01*
X139212205Y-86063483D01*
X139212243Y-86059997D01*
X142811876Y-86059997D01*
X142811876Y-86060002D01*
X142832059Y-86239138D01*
X142891603Y-86409304D01*
X142900276Y-86423107D01*
X143263384Y-86060000D01*
X143263384Y-86059999D01*
X143243494Y-86040109D01*
X143516938Y-86040109D01*
X143516938Y-86079891D01*
X143532162Y-86116645D01*
X143560293Y-86144776D01*
X143597047Y-86160000D01*
X143636829Y-86160000D01*
X143673583Y-86144776D01*
X143701714Y-86116645D01*
X143716938Y-86079891D01*
X143716938Y-86059999D01*
X143970491Y-86059999D01*
X144010388Y-86099895D01*
X144010389Y-86099897D01*
X144316938Y-86406446D01*
X144663384Y-86060000D01*
X144643493Y-86040109D01*
X144916938Y-86040109D01*
X144916938Y-86079891D01*
X144932162Y-86116645D01*
X144960293Y-86144776D01*
X144997047Y-86160000D01*
X145036829Y-86160000D01*
X145073583Y-86144776D01*
X145101714Y-86116645D01*
X145116938Y-86079891D01*
X145116938Y-86059999D01*
X145370491Y-86059999D01*
X145410388Y-86099895D01*
X145410389Y-86099897D01*
X145716938Y-86406446D01*
X146063384Y-86060000D01*
X146043493Y-86040109D01*
X146316938Y-86040109D01*
X146316938Y-86079891D01*
X146332162Y-86116645D01*
X146360293Y-86144776D01*
X146397047Y-86160000D01*
X146436829Y-86160000D01*
X146473583Y-86144776D01*
X146501714Y-86116645D01*
X146516938Y-86079891D01*
X146516938Y-86060000D01*
X146770491Y-86060000D01*
X147133598Y-86423106D01*
X147133599Y-86423106D01*
X147142272Y-86409306D01*
X147142272Y-86409305D01*
X147201815Y-86239141D01*
X147201816Y-86239138D01*
X147222000Y-86060002D01*
X147222000Y-86059997D01*
X147201816Y-85880861D01*
X147142271Y-85710692D01*
X147133599Y-85696892D01*
X147133598Y-85696892D01*
X146770491Y-86060000D01*
X146516938Y-86060000D01*
X146516938Y-86040109D01*
X146501714Y-86003355D01*
X146473583Y-85975224D01*
X146436829Y-85960000D01*
X146397047Y-85960000D01*
X146360293Y-85975224D01*
X146332162Y-86003355D01*
X146316938Y-86040109D01*
X146043493Y-86040109D01*
X145782698Y-85779314D01*
X145716938Y-85713553D01*
X145651178Y-85779314D01*
X145651177Y-85779314D01*
X145370491Y-86059999D01*
X145116938Y-86059999D01*
X145116938Y-86040109D01*
X145101714Y-86003355D01*
X145073583Y-85975224D01*
X145036829Y-85960000D01*
X144997047Y-85960000D01*
X144960293Y-85975224D01*
X144932162Y-86003355D01*
X144916938Y-86040109D01*
X144643493Y-86040109D01*
X144382698Y-85779314D01*
X144316938Y-85713553D01*
X144251178Y-85779314D01*
X144251177Y-85779314D01*
X143970491Y-86059999D01*
X143716938Y-86059999D01*
X143716938Y-86040109D01*
X143701714Y-86003355D01*
X143673583Y-85975224D01*
X143636829Y-85960000D01*
X143597047Y-85960000D01*
X143560293Y-85975224D01*
X143532162Y-86003355D01*
X143516938Y-86040109D01*
X143243494Y-86040109D01*
X142900276Y-85696891D01*
X142900275Y-85696891D01*
X142891605Y-85710691D01*
X142891600Y-85710701D01*
X142832060Y-85880858D01*
X142832059Y-85880861D01*
X142811876Y-86059997D01*
X139212243Y-86059997D01*
X139212973Y-85993617D01*
X139249330Y-85937043D01*
X139330554Y-85865086D01*
X139427189Y-85725087D01*
X139487511Y-85566029D01*
X139508016Y-85397157D01*
X139501481Y-85343337D01*
X143253829Y-85343337D01*
X143253829Y-85343338D01*
X143616936Y-85706446D01*
X143616937Y-85706446D01*
X143926228Y-85397157D01*
X143963384Y-85359999D01*
X143963384Y-85359998D01*
X143943495Y-85340109D01*
X144216938Y-85340109D01*
X144216938Y-85379891D01*
X144232162Y-85416645D01*
X144260293Y-85444776D01*
X144297047Y-85460000D01*
X144336829Y-85460000D01*
X144373583Y-85444776D01*
X144401714Y-85416645D01*
X144416938Y-85379891D01*
X144416938Y-85359998D01*
X144670491Y-85359998D01*
X144670491Y-85359999D01*
X145016938Y-85706446D01*
X145326228Y-85397157D01*
X145363384Y-85359999D01*
X145363384Y-85359998D01*
X145343495Y-85340109D01*
X145616938Y-85340109D01*
X145616938Y-85379891D01*
X145632162Y-85416645D01*
X145660293Y-85444776D01*
X145697047Y-85460000D01*
X145736829Y-85460000D01*
X145773583Y-85444776D01*
X145801714Y-85416645D01*
X145816938Y-85379891D01*
X145816938Y-85359998D01*
X146070491Y-85359998D01*
X146070491Y-85359999D01*
X146416938Y-85706446D01*
X146416939Y-85706446D01*
X146780045Y-85343338D01*
X146766239Y-85334663D01*
X146596080Y-85275121D01*
X146595284Y-85274940D01*
X146594821Y-85274681D01*
X146589508Y-85272822D01*
X146589833Y-85271890D01*
X146534308Y-85240827D01*
X146504987Y-85187125D01*
X146504115Y-85187431D01*
X146502259Y-85182128D01*
X146501995Y-85181644D01*
X146501816Y-85180862D01*
X146442271Y-85010692D01*
X146433599Y-84996892D01*
X146433598Y-84996892D01*
X146070491Y-85359998D01*
X145816938Y-85359998D01*
X145816938Y-85340109D01*
X145801714Y-85303355D01*
X145773583Y-85275224D01*
X145736829Y-85260000D01*
X145697047Y-85260000D01*
X145660293Y-85275224D01*
X145632162Y-85303355D01*
X145616938Y-85340109D01*
X145343495Y-85340109D01*
X145016939Y-85013553D01*
X145016938Y-85013553D01*
X144670491Y-85359998D01*
X144416938Y-85359998D01*
X144416938Y-85340109D01*
X144401714Y-85303355D01*
X144373583Y-85275224D01*
X144336829Y-85260000D01*
X144297047Y-85260000D01*
X144260293Y-85275224D01*
X144232162Y-85303355D01*
X144216938Y-85340109D01*
X143943495Y-85340109D01*
X143600276Y-84996891D01*
X143600275Y-84996891D01*
X143591605Y-85010691D01*
X143591600Y-85010701D01*
X143532057Y-85180866D01*
X143531877Y-85181656D01*
X143531620Y-85182113D01*
X143529761Y-85187429D01*
X143528829Y-85187103D01*
X143497762Y-85242631D01*
X143444062Y-85271952D01*
X143444367Y-85272823D01*
X143439083Y-85274671D01*
X143438594Y-85274939D01*
X143437804Y-85275119D01*
X143267639Y-85334662D01*
X143267629Y-85334667D01*
X143253829Y-85343337D01*
X139501481Y-85343337D01*
X139487511Y-85228285D01*
X139484797Y-85221130D01*
X139427188Y-85069225D01*
X139377259Y-84996891D01*
X139330554Y-84929228D01*
X139256015Y-84863193D01*
X139218890Y-84804005D01*
X139219658Y-84734140D01*
X139256015Y-84677564D01*
X139294650Y-84643337D01*
X143953829Y-84643337D01*
X143953829Y-84643338D01*
X144316938Y-85006446D01*
X144316939Y-85006446D01*
X144680045Y-84643338D01*
X144680043Y-84643337D01*
X145353829Y-84643337D01*
X145353829Y-84643338D01*
X145716938Y-85006446D01*
X145716939Y-85006446D01*
X146080045Y-84643338D01*
X146066242Y-84634665D01*
X145896076Y-84575121D01*
X145716941Y-84554938D01*
X145716935Y-84554938D01*
X145537799Y-84575121D01*
X145537796Y-84575122D01*
X145367639Y-84634662D01*
X145367629Y-84634667D01*
X145353829Y-84643337D01*
X144680043Y-84643337D01*
X144666242Y-84634665D01*
X144496076Y-84575121D01*
X144316941Y-84554938D01*
X144316935Y-84554938D01*
X144137799Y-84575121D01*
X144137796Y-84575122D01*
X143967639Y-84634662D01*
X143967629Y-84634667D01*
X143953829Y-84643337D01*
X139294650Y-84643337D01*
X139330554Y-84611530D01*
X139427189Y-84471531D01*
X139487511Y-84312473D01*
X139508016Y-84143601D01*
X139487511Y-83974729D01*
X139478560Y-83951128D01*
X139427188Y-83815669D01*
X139354396Y-83710213D01*
X139330554Y-83675672D01*
X139257481Y-83610935D01*
X139230741Y-83587245D01*
X139193614Y-83528056D01*
X139194382Y-83458190D01*
X139230739Y-83401616D01*
X139330554Y-83313189D01*
X139427189Y-83173190D01*
X139487511Y-83014132D01*
X139508016Y-82845260D01*
X139487511Y-82676388D01*
X139427189Y-82517330D01*
X139330554Y-82377331D01*
X139247591Y-82303832D01*
X139210465Y-82244644D01*
X139211233Y-82174779D01*
X139247591Y-82118203D01*
X139330554Y-82044705D01*
X139427189Y-81904706D01*
X139487511Y-81745648D01*
X139508016Y-81576776D01*
X139487511Y-81407904D01*
X139429317Y-81254459D01*
X139423951Y-81184798D01*
X139457099Y-81123291D01*
X139509860Y-81093945D01*
X139509289Y-81092311D01*
X139515862Y-81090011D01*
X139686129Y-81030432D01*
X139838869Y-80934459D01*
X139966423Y-80806905D01*
X140062396Y-80654165D01*
X140121975Y-80483898D01*
X140128408Y-80426804D01*
X140142172Y-80304646D01*
X140142172Y-80304639D01*
X140121976Y-80125393D01*
X140121975Y-80125388D01*
X140062396Y-79955121D01*
X139966423Y-79802381D01*
X139838869Y-79674827D01*
X139686130Y-79578854D01*
X139515861Y-79519274D01*
X139515856Y-79519273D01*
X139336611Y-79499078D01*
X139336603Y-79499078D01*
X139157357Y-79519273D01*
X139157352Y-79519274D01*
X138987083Y-79578854D01*
X138834344Y-79674827D01*
X138706791Y-79802380D01*
X138610818Y-79955119D01*
X138551238Y-80125388D01*
X138551237Y-80125393D01*
X138531042Y-80304639D01*
X138531042Y-80304646D01*
X138551237Y-80483892D01*
X138551238Y-80483897D01*
X138610818Y-80654166D01*
X138654646Y-80723917D01*
X138673646Y-80791154D01*
X138653278Y-80857989D01*
X138600011Y-80903203D01*
X138579328Y-80910285D01*
X138552149Y-80916984D01*
X138552145Y-80916985D01*
X138401521Y-80996039D01*
X138274187Y-81108848D01*
X138177553Y-81248844D01*
X138117231Y-81407901D01*
X138117230Y-81407906D01*
X138096726Y-81576776D01*
X136809537Y-81576776D01*
X136790875Y-81519340D01*
X136694369Y-81329936D01*
X136694367Y-81329933D01*
X136694366Y-81329931D01*
X136569427Y-81157965D01*
X136419104Y-81007642D01*
X136247138Y-80882703D01*
X136246433Y-80882343D01*
X136238372Y-80878237D01*
X136187577Y-80830264D01*
X136170781Y-80762444D01*
X136193317Y-80696308D01*
X136238372Y-80657267D01*
X136247134Y-80652803D01*
X136325763Y-80595676D01*
X136419104Y-80527861D01*
X136419106Y-80527858D01*
X136419110Y-80527856D01*
X136569422Y-80377544D01*
X136569424Y-80377540D01*
X136569427Y-80377538D01*
X136694366Y-80205572D01*
X136694365Y-80205572D01*
X136694369Y-80205568D01*
X136790875Y-80016164D01*
X136856564Y-79813995D01*
X136889818Y-79604039D01*
X136889818Y-79391465D01*
X136856564Y-79181509D01*
X136790875Y-78979340D01*
X136694369Y-78789936D01*
X136694367Y-78789933D01*
X136694366Y-78789931D01*
X136569427Y-78617965D01*
X136419104Y-78467642D01*
X136247138Y-78342703D01*
X136057732Y-78246196D01*
X136057731Y-78246195D01*
X136057730Y-78246195D01*
X135855561Y-78180506D01*
X135855559Y-78180505D01*
X135855558Y-78180505D01*
X135694275Y-78154960D01*
X135645605Y-78147252D01*
X134533031Y-78147252D01*
X134484360Y-78154960D01*
X134323078Y-78180505D01*
X134120903Y-78246196D01*
X133930295Y-78343316D01*
X133861626Y-78356212D01*
X133796885Y-78329936D01*
X133756628Y-78272829D01*
X133750000Y-78232831D01*
X133750000Y-77674000D01*
X133769685Y-77606961D01*
X133822489Y-77561206D01*
X133874000Y-77550000D01*
X159076000Y-77550000D01*
X159143039Y-77569685D01*
G37*
%TD.AperFunction*%
%TA.AperFunction,Conductor*%
G36*
X158180000Y-132416988D02*
G01*
X158122993Y-132384075D01*
X157995826Y-132350000D01*
X157864174Y-132350000D01*
X157737007Y-132384075D01*
X157680000Y-132416988D01*
X157680000Y-130743012D01*
X157737007Y-130775925D01*
X157864174Y-130810000D01*
X157995826Y-130810000D01*
X158122993Y-130775925D01*
X158180000Y-130743012D01*
X158180000Y-132416988D01*
G37*
%TD.AperFunction*%
%TD*%
M02*
