%TF.GenerationSoftware,KiCad,Pcbnew,8.0.4*%
%TF.CreationDate,2024-12-04T08:31:11-08:00*%
%TF.ProjectId,aqp_controller,6171705f-636f-46e7-9472-6f6c6c65722e,rev0*%
%TF.SameCoordinates,Original*%
%TF.FileFunction,Legend,Top*%
%TF.FilePolarity,Positive*%
%FSLAX46Y46*%
G04 Gerber Fmt 4.6, Leading zero omitted, Abs format (unit mm)*
G04 Created by KiCad (PCBNEW 8.0.4) date 2024-12-04 08:31:11*
%MOMM*%
%LPD*%
G01*
G04 APERTURE LIST*
G04 Aperture macros list*
%AMRoundRect*
0 Rectangle with rounded corners*
0 $1 Rounding radius*
0 $2 $3 $4 $5 $6 $7 $8 $9 X,Y pos of 4 corners*
0 Add a 4 corners polygon primitive as box body*
4,1,4,$2,$3,$4,$5,$6,$7,$8,$9,$2,$3,0*
0 Add four circle primitives for the rounded corners*
1,1,$1+$1,$2,$3*
1,1,$1+$1,$4,$5*
1,1,$1+$1,$6,$7*
1,1,$1+$1,$8,$9*
0 Add four rect primitives between the rounded corners*
20,1,$1+$1,$2,$3,$4,$5,0*
20,1,$1+$1,$4,$5,$6,$7,0*
20,1,$1+$1,$6,$7,$8,$9,0*
20,1,$1+$1,$8,$9,$2,$3,0*%
%AMFreePoly0*
4,1,19,0.500000,-0.750000,0.000000,-0.750000,0.000000,-0.744911,-0.071157,-0.744911,-0.207708,-0.704816,-0.327430,-0.627875,-0.420627,-0.520320,-0.479746,-0.390866,-0.500000,-0.250000,-0.500000,0.250000,-0.479746,0.390866,-0.420627,0.520320,-0.327430,0.627875,-0.207708,0.704816,-0.071157,0.744911,0.000000,0.744911,0.000000,0.750000,0.500000,0.750000,0.500000,-0.750000,0.500000,-0.750000,
$1*%
%AMFreePoly1*
4,1,19,0.000000,0.744911,0.071157,0.744911,0.207708,0.704816,0.327430,0.627875,0.420627,0.520320,0.479746,0.390866,0.500000,0.250000,0.500000,-0.250000,0.479746,-0.390866,0.420627,-0.520320,0.327430,-0.627875,0.207708,-0.704816,0.071157,-0.744911,0.000000,-0.744911,0.000000,-0.750000,-0.500000,-0.750000,-0.500000,0.750000,0.000000,0.750000,0.000000,0.744911,0.000000,0.744911,
$1*%
G04 Aperture macros list end*
%ADD10C,0.200000*%
%ADD11C,0.100000*%
%ADD12C,0.500000*%
%ADD13C,0.120000*%
%ADD14C,0.127000*%
%ADD15RoundRect,0.243750X-0.456250X0.243750X-0.456250X-0.243750X0.456250X-0.243750X0.456250X0.243750X0*%
%ADD16RoundRect,0.225000X-0.250000X0.225000X-0.250000X-0.225000X0.250000X-0.225000X0.250000X0.225000X0*%
%ADD17RoundRect,0.102000X-1.050000X-1.050000X1.050000X-1.050000X1.050000X1.050000X-1.050000X1.050000X0*%
%ADD18C,2.304000*%
%ADD19RoundRect,0.135000X0.135000X0.185000X-0.135000X0.185000X-0.135000X-0.185000X0.135000X-0.185000X0*%
%ADD20RoundRect,0.135000X-0.185000X0.135000X-0.185000X-0.135000X0.185000X-0.135000X0.185000X0.135000X0*%
%ADD21C,1.712000*%
%ADD22C,2.154000*%
%ADD23RoundRect,0.225000X0.225000X0.250000X-0.225000X0.250000X-0.225000X-0.250000X0.225000X-0.250000X0*%
%ADD24RoundRect,0.102000X0.525000X0.325000X-0.525000X0.325000X-0.525000X-0.325000X0.525000X-0.325000X0*%
%ADD25R,1.700000X1.700000*%
%ADD26O,1.700000X1.700000*%
%ADD27RoundRect,0.102000X1.376798X-0.556262X0.556262X1.376798X-1.376798X0.556262X-0.556262X-1.376798X0*%
%ADD28C,1.982000*%
%ADD29C,2.490000*%
%ADD30RoundRect,0.135000X0.185000X-0.135000X0.185000X0.135000X-0.185000X0.135000X-0.185000X-0.135000X0*%
%ADD31R,1.000000X0.600000*%
%ADD32RoundRect,0.225000X-0.225000X-0.250000X0.225000X-0.250000X0.225000X0.250000X-0.225000X0.250000X0*%
%ADD33RoundRect,0.062500X0.337500X0.062500X-0.337500X0.062500X-0.337500X-0.062500X0.337500X-0.062500X0*%
%ADD34R,1.700000X1.400000*%
%ADD35RoundRect,0.102000X0.556262X1.376798X-1.376798X0.556262X-0.556262X-1.376798X1.376798X-0.556262X0*%
%ADD36RoundRect,0.250000X0.300000X0.300000X-0.300000X0.300000X-0.300000X-0.300000X0.300000X-0.300000X0*%
%ADD37RoundRect,0.102000X0.206662X1.470473X-1.470473X0.206662X-0.206662X-1.470473X1.470473X-0.206662X0*%
%ADD38RoundRect,0.225000X0.250000X-0.225000X0.250000X0.225000X-0.250000X0.225000X-0.250000X-0.225000X0*%
%ADD39RoundRect,0.140000X-0.170000X0.140000X-0.170000X-0.140000X0.170000X-0.140000X0.170000X0.140000X0*%
%ADD40RoundRect,0.150000X-0.650000X-0.150000X0.650000X-0.150000X0.650000X0.150000X-0.650000X0.150000X0*%
%ADD41FreePoly0,180.000000*%
%ADD42FreePoly1,180.000000*%
%ADD43R,0.400000X1.350000*%
%ADD44O,0.890000X1.550000*%
%ADD45R,1.200000X1.550000*%
%ADD46O,1.250000X0.950000*%
%ADD47R,1.500000X1.550000*%
%ADD48RoundRect,0.102000X1.470473X-0.206662X0.206662X1.470473X-1.470473X0.206662X-0.206662X-1.470473X0*%
%ADD49RoundRect,0.140000X0.140000X0.170000X-0.140000X0.170000X-0.140000X-0.170000X0.140000X-0.170000X0*%
%ADD50RoundRect,0.375000X-0.375000X0.625000X-0.375000X-0.625000X0.375000X-0.625000X0.375000X0.625000X0*%
%ADD51RoundRect,0.500000X-1.400000X0.500000X-1.400000X-0.500000X1.400000X-0.500000X1.400000X0.500000X0*%
%ADD52R,1.500000X0.900000*%
%ADD53R,0.900000X1.500000*%
%ADD54C,0.600000*%
%ADD55R,3.900000X3.900000*%
%ADD56RoundRect,0.150000X-0.150000X0.587500X-0.150000X-0.587500X0.150000X-0.587500X0.150000X0.587500X0*%
%ADD57RoundRect,0.102000X1.476790X0.155217X-0.155217X1.476790X-1.476790X-0.155217X0.155217X-1.476790X0*%
%ADD58RoundRect,0.102000X-0.155217X1.476790X-1.476790X-0.155217X0.155217X-1.476790X1.476790X0.155217X0*%
%ADD59R,0.400000X0.900000*%
%ADD60RoundRect,0.135000X-0.135000X-0.185000X0.135000X-0.185000X0.135000X0.185000X-0.135000X0.185000X0*%
%ADD61RoundRect,0.102000X-0.654000X0.654000X-0.654000X-0.654000X0.654000X-0.654000X0.654000X0.654000X0*%
%ADD62C,1.512000*%
G04 APERTURE END LIST*
D10*
X196594145Y-115900018D02*
X196379828Y-116045171D01*
X196156274Y-116165657D01*
X195925261Y-116261724D01*
X195688570Y-116333624D01*
X195447980Y-116381606D01*
X195205271Y-116405920D01*
X194962223Y-116406817D01*
X194720617Y-116384547D01*
X194482231Y-116339359D01*
X194248846Y-116271504D01*
X194022241Y-116181233D01*
X193804197Y-116068795D01*
X193596493Y-115934440D01*
X193400909Y-115778418D01*
X193219225Y-115600981D01*
X193053221Y-115402377D01*
D11*
X68500000Y-152000000D02*
X68500000Y-162000000D01*
D12*
X165350001Y-127700000D02*
X165350001Y-127700000D01*
X166177279Y-125879216D02*
X166177279Y-125879216D01*
X167063845Y-124086553D02*
X167063845Y-124086553D01*
X168008744Y-122323939D02*
X168008744Y-122323939D01*
X169010959Y-120593273D02*
X169010959Y-120593273D01*
X170069411Y-118896417D02*
X170069411Y-118896417D01*
X171182960Y-117235198D02*
X171182960Y-117235198D01*
X172350408Y-115611404D02*
X172350408Y-115611404D01*
X173570499Y-114026784D02*
X173570499Y-114026784D01*
X174841918Y-112483043D02*
X174841918Y-112483043D01*
X176163296Y-110981844D02*
X176163296Y-110981844D01*
X177533212Y-109524802D02*
X177533212Y-109524802D01*
X178950191Y-108113486D02*
X178950191Y-108113486D01*
X180412706Y-106749415D02*
X180412706Y-106749415D01*
X181919185Y-105434058D02*
X181919185Y-105434058D01*
X183468004Y-104168831D02*
X183468004Y-104168831D01*
X185057497Y-102955095D02*
X185057497Y-102955095D01*
X186685952Y-101794158D02*
X186685952Y-101794158D01*
X188351616Y-100687269D02*
X188351616Y-100687269D01*
X190052697Y-99635620D02*
X190052697Y-99635620D01*
X191787363Y-98640343D02*
X191787363Y-98640343D01*
X193553746Y-97702510D02*
X193553746Y-97702510D01*
X195349945Y-96823129D02*
X195349945Y-96823129D01*
X197174026Y-96003148D02*
X197174026Y-96003148D01*
X199024026Y-95243449D02*
X199024026Y-95243449D01*
X200897953Y-94544851D02*
X200897953Y-94544851D01*
X202793789Y-93908105D02*
X202793789Y-93908105D01*
X204709494Y-93333897D02*
X204709494Y-93333897D01*
X206643006Y-92822845D02*
X206643006Y-92822845D01*
X208592242Y-92375499D02*
X208592242Y-92375499D01*
X210555105Y-91992341D02*
X210555105Y-91992341D01*
D10*
X90250000Y-100225000D02*
X91122193Y-98205278D01*
X91439354Y-97470833D02*
X92311548Y-95451110D01*
X92628709Y-94716666D02*
X93500902Y-92696943D01*
X93818063Y-91962499D02*
X94690257Y-89942776D01*
X95007418Y-89208332D02*
X95879611Y-87188609D01*
X96196772Y-86454165D02*
X97068966Y-84434442D01*
X97386127Y-83699998D02*
X98258320Y-81680275D01*
X98575481Y-80945831D02*
X99447674Y-78926108D01*
X99764836Y-78191664D02*
X100637029Y-76171941D01*
X100954190Y-75437497D02*
X101826383Y-73417774D01*
X102143544Y-72683330D02*
X102524999Y-71800000D01*
X86775000Y-127725000D02*
X88099390Y-125968301D01*
X88580986Y-125329501D02*
X89905375Y-123572802D01*
X90386972Y-122934002D02*
X91711361Y-121177303D01*
X92192957Y-120538503D02*
X93517347Y-118781804D01*
X93998943Y-118143004D02*
X95323333Y-116386305D01*
X95804929Y-115747505D02*
X97129319Y-113990806D01*
X97610915Y-113352006D02*
X98935304Y-111595307D01*
X99416901Y-110956507D02*
X100741290Y-109199808D01*
X101222887Y-108561008D02*
X102547276Y-106804309D01*
X103028872Y-106165509D02*
X104353262Y-104408810D01*
X104834858Y-103770010D02*
X106159248Y-102013311D01*
X106640844Y-101374511D02*
X107965234Y-99617812D01*
X108446830Y-98979013D02*
X109771219Y-97222313D01*
X110252816Y-96583514D02*
X111577205Y-94826814D01*
X112058801Y-94188015D02*
X113383191Y-92431315D01*
X113864787Y-91792516D02*
X115189177Y-90035816D01*
X115670773Y-89397017D02*
X116995163Y-87640317D01*
X117476759Y-87001518D02*
X118801148Y-85244819D01*
X119282745Y-84606019D02*
X120607134Y-82849320D01*
X121088730Y-82210520D02*
X122413120Y-80453821D01*
X122894716Y-79815021D02*
X124219106Y-78058322D01*
X124700702Y-77419522D02*
X126025092Y-75662823D01*
X126506688Y-75024023D02*
X127831077Y-73267324D01*
X128312674Y-72628524D02*
X128975000Y-71750000D01*
X195266527Y-113005803D02*
X196402573Y-112149732D01*
X196931694Y-113092680D01*
X195795649Y-113948751D01*
X196414618Y-115051823D01*
X195425234Y-115797377D01*
X194806195Y-114694358D01*
X193670007Y-115550537D01*
X193140886Y-114607589D01*
X194277073Y-113751411D01*
X193658104Y-112648339D01*
X194647558Y-111902732D01*
X195266527Y-113005803D01*
X131800000Y-100700000D02*
X133510301Y-99316211D01*
X134132228Y-98813015D02*
X135842529Y-97429227D01*
X136464457Y-96926031D02*
X138174757Y-95542242D01*
X138796685Y-95039046D02*
X140506986Y-93655257D01*
X141128913Y-93152061D02*
X142839214Y-91768272D01*
X143461141Y-91265077D02*
X145171442Y-89881288D01*
X145793370Y-89378092D02*
X147503670Y-87994303D01*
X148125598Y-87491107D02*
X149835899Y-86107318D01*
X150457826Y-85604122D02*
X152168127Y-84220334D01*
X152790055Y-83717138D02*
X154500355Y-82333349D01*
X155122283Y-81830153D02*
X156832584Y-80446364D01*
X157454511Y-79943168D02*
X159164812Y-78559380D01*
X159786739Y-78056184D02*
X161497040Y-76672395D01*
X162118968Y-76169199D02*
X163829268Y-74785410D01*
X164451196Y-74282214D02*
X166161497Y-72898425D01*
X166783424Y-72395230D02*
X167550000Y-71775000D01*
D11*
X68475000Y-159825000D02*
X68475000Y-159825000D01*
D10*
X202975000Y-127725000D02*
X201650397Y-125968462D01*
X201168723Y-125329720D02*
X199844121Y-123573182D01*
X199362447Y-122934440D02*
X198375001Y-121625000D01*
D11*
X231250000Y-152000000D02*
X221250000Y-152000000D01*
D12*
X78050000Y-77625000D02*
X78050000Y-77625000D01*
X80030081Y-77906138D02*
X80030081Y-77906138D01*
X82001961Y-78239982D02*
X82001961Y-78239982D01*
X83964237Y-78626295D02*
X83964237Y-78626295D01*
X85915512Y-79064802D02*
X85915512Y-79064802D01*
X87854399Y-79555190D02*
X87854399Y-79555190D01*
X89779518Y-80097112D02*
X89779518Y-80097112D01*
X91689500Y-80690181D02*
X91689500Y-80690181D01*
X93582987Y-81333976D02*
X93582987Y-81333976D01*
X95458631Y-82028038D02*
X95458631Y-82028038D01*
X97315098Y-82771875D02*
X97315098Y-82771875D01*
X99151067Y-83564956D02*
X99151067Y-83564956D01*
X100965234Y-84406718D02*
X100965234Y-84406718D01*
X102756306Y-85296562D02*
X102756306Y-85296562D01*
X104523011Y-86233855D02*
X104523011Y-86233855D01*
X106264091Y-87217930D02*
X106264091Y-87217930D01*
X107978308Y-88248087D02*
X107978308Y-88248087D01*
X109664442Y-89323594D02*
X109664442Y-89323594D01*
X111321294Y-90443685D02*
X111321294Y-90443685D01*
X112947685Y-91607563D02*
X112947685Y-91607563D01*
X114542460Y-92814402D02*
X114542460Y-92814402D01*
X116104482Y-94063341D02*
X116104482Y-94063341D01*
X117632641Y-95353493D02*
X117632641Y-95353493D01*
X119125850Y-96683940D02*
X119125850Y-96683940D01*
X120583047Y-98053736D02*
X120583047Y-98053736D01*
X122003194Y-99461906D02*
X122003194Y-99461906D01*
X123385283Y-100907449D02*
X123385283Y-100907449D01*
X124728330Y-102389336D02*
X124728330Y-102389336D01*
X126031379Y-103906512D02*
X126031379Y-103906512D01*
X127293504Y-105457900D02*
X127293504Y-105457900D01*
X128513806Y-107042396D02*
X128513806Y-107042396D01*
X129691418Y-108658871D02*
X129691418Y-108658871D01*
X130825502Y-110306177D02*
X130825502Y-110306177D01*
X131915251Y-111983141D02*
X131915251Y-111983141D01*
X132959891Y-113688571D02*
X132959891Y-113688571D01*
X133958677Y-115421254D02*
X133958677Y-115421254D01*
X134910900Y-117179956D02*
X134910900Y-117179956D01*
X135815882Y-118963428D02*
X135815882Y-118963428D01*
X136672979Y-120770399D02*
X136672979Y-120770399D01*
X137481583Y-122599586D02*
X137481583Y-122599586D01*
X138241116Y-124449686D02*
X138241116Y-124449686D01*
X138951040Y-126319384D02*
X138951040Y-126319384D01*
D10*
X184550000Y-103275000D02*
X183226028Y-101517986D01*
X182744584Y-100879071D02*
X181420613Y-99122057D01*
X180939168Y-98483143D02*
X179615197Y-96726129D01*
X179133753Y-96087214D02*
X177809781Y-94330200D01*
X177328337Y-93691286D02*
X176004365Y-91934271D01*
X175522921Y-91295357D02*
X174198949Y-89538343D01*
X173717505Y-88899428D02*
X172393534Y-87142414D01*
X171912089Y-86503500D02*
X170588118Y-84746486D01*
X170106674Y-84107571D02*
X168782702Y-82350557D01*
X168301258Y-81711643D02*
X166977286Y-79954628D01*
X166495842Y-79315714D02*
X165171870Y-77558700D01*
X164690426Y-76919786D02*
X163366455Y-75162771D01*
X162885010Y-74523857D02*
X161561039Y-72766843D01*
X161079595Y-72127928D02*
X160808707Y-71768438D01*
X210550000Y-126650000D02*
X209688612Y-124625646D01*
X209375380Y-123889517D02*
X208513992Y-121865162D01*
X208200760Y-121129034D02*
X207339372Y-119104679D01*
X207026139Y-118368550D02*
X206164751Y-116344196D01*
X205851519Y-115608067D02*
X204990131Y-113583713D01*
X204676899Y-112847584D02*
X203815511Y-110823230D01*
X203502279Y-110087101D02*
X202640891Y-108062747D01*
X202327659Y-107326618D02*
X201466271Y-105302263D01*
X201153039Y-104566134D02*
X200291650Y-102541780D01*
X199978418Y-101805651D02*
X199117030Y-99781297D01*
X198803798Y-99045168D02*
X197942410Y-97020814D01*
X197629178Y-96284685D02*
X196767790Y-94260331D01*
X196454558Y-93524202D02*
X195593170Y-91499847D01*
X195279938Y-90763719D02*
X194418550Y-88739364D01*
X194105317Y-88003235D02*
X193243929Y-85978881D01*
X192930697Y-85242752D02*
X192069309Y-83218398D01*
X191756077Y-82482269D02*
X190894689Y-80457915D01*
X190581457Y-79721786D02*
X189720069Y-77697431D01*
X189406837Y-76961303D02*
X188545449Y-74936948D01*
X188232217Y-74200819D02*
X187370828Y-72176465D01*
X191532631Y-116323001D02*
X190624880Y-117007040D01*
X190392454Y-115594276D01*
X191532631Y-116323001D01*
D12*
X126523686Y-127749999D02*
X126523686Y-127749999D01*
X127039471Y-125817688D02*
X127039471Y-125817688D01*
X127594669Y-123896330D02*
X127594669Y-123896330D01*
X128189048Y-121986729D02*
X128189048Y-121986729D01*
X128822358Y-120089684D02*
X128822358Y-120089684D01*
X129494335Y-118205989D02*
X129494335Y-118205989D01*
X130204697Y-116336432D02*
X130204697Y-116336432D01*
X130953148Y-114481794D02*
X130953148Y-114481794D01*
X131739374Y-112642851D02*
X131739374Y-112642851D01*
X132563047Y-110820374D02*
X132563047Y-110820374D01*
X133423821Y-109015124D02*
X133423821Y-109015124D01*
X134321337Y-107227856D02*
X134321337Y-107227856D01*
X135255220Y-105459319D02*
X135255220Y-105459319D01*
X136225078Y-103710251D02*
X136225078Y-103710251D01*
X137230505Y-101981386D02*
X137230505Y-101981386D01*
X138271082Y-100273446D02*
X138271082Y-100273446D01*
X139346373Y-98587145D02*
X139346373Y-98587145D01*
X140455928Y-96923189D02*
X140455928Y-96923189D01*
X141599282Y-95282274D02*
X141599282Y-95282274D01*
X142775958Y-93665087D02*
X142775958Y-93665087D01*
X143985464Y-92072305D02*
X143985464Y-92072305D01*
X145227292Y-90504592D02*
X145227292Y-90504592D01*
X146500925Y-88962606D02*
X146500925Y-88962606D01*
X147805828Y-87446992D02*
X147805828Y-87446992D01*
X149141457Y-85958382D02*
X149141457Y-85958382D01*
X150507252Y-84497402D02*
X150507252Y-84497402D01*
X151902641Y-83064660D02*
X151902641Y-83064660D01*
X153327042Y-81660757D02*
X153327042Y-81660757D01*
X154779858Y-80286281D02*
X154779858Y-80286281D01*
X156260482Y-78941805D02*
X156260482Y-78941805D01*
X157768294Y-77627894D02*
X157768294Y-77627894D01*
X159302663Y-76345095D02*
X159302663Y-76345095D01*
X160862947Y-75093946D02*
X160862947Y-75093946D01*
X162448494Y-73874971D02*
X162448494Y-73874971D01*
X164058641Y-72688679D02*
X164058641Y-72688679D01*
X150275000Y-127725000D02*
X150275000Y-127725000D01*
X150947383Y-125841475D02*
X150947383Y-125841475D01*
X151669741Y-123976546D02*
X151669741Y-123976546D01*
X152441561Y-122131537D02*
X152441561Y-122131537D01*
X153262293Y-120307760D02*
X153262293Y-120307760D01*
X154131354Y-118506512D02*
X154131354Y-118506512D01*
X155048127Y-116729072D02*
X155048127Y-116729072D01*
X156011959Y-114976705D02*
X156011959Y-114976705D01*
X157022166Y-113250656D02*
X157022166Y-113250656D01*
X158078029Y-111552152D02*
X158078029Y-111552152D01*
X159178798Y-109882400D02*
X159178798Y-109882400D01*
X160323690Y-108242588D02*
X160323690Y-108242588D01*
X161511892Y-106633881D02*
X161511892Y-106633881D01*
X162742559Y-105057422D02*
X162742559Y-105057422D01*
X164014815Y-103514332D02*
X164014815Y-103514332D01*
X165327758Y-102005709D02*
X165327758Y-102005709D01*
X166680453Y-100532623D02*
X166680453Y-100532623D01*
X168071938Y-99096124D02*
X168071938Y-99096124D01*
X169501226Y-97697231D02*
X169501226Y-97697231D01*
X170967299Y-96336940D02*
X170967299Y-96336940D01*
X172469115Y-95016216D02*
X172469115Y-95016216D01*
X174005607Y-93736000D02*
X174005607Y-93736000D01*
X175575683Y-92497200D02*
X175575683Y-92497200D01*
X177178227Y-91300699D02*
X177178227Y-91300699D01*
X178812099Y-90147345D02*
X178812099Y-90147345D01*
X180476139Y-89037959D02*
X180476139Y-89037959D01*
X182169162Y-87973330D02*
X182169162Y-87973330D01*
X183889966Y-86954215D02*
X183889966Y-86954215D01*
X185637327Y-85981337D02*
X185637327Y-85981337D01*
X187410004Y-85055388D02*
X187410004Y-85055388D01*
X189206736Y-84177028D02*
X189206736Y-84177028D01*
X191026246Y-83346879D02*
X191026246Y-83346879D01*
X192867240Y-82565532D02*
X192867240Y-82565532D01*
X194728411Y-81833543D02*
X194728411Y-81833543D01*
X196608434Y-81151432D02*
X196608434Y-81151432D01*
X198505974Y-80519684D02*
X198505974Y-80519684D01*
X200419681Y-79938747D02*
X200419681Y-79938747D01*
X202348196Y-79409035D02*
X202348196Y-79409035D01*
X204290146Y-78930925D02*
X204290146Y-78930925D01*
X206244153Y-78504756D02*
X206244153Y-78504756D01*
X208208827Y-78130831D02*
X208208827Y-78130831D01*
X210182771Y-77809416D02*
X210182771Y-77809416D01*
X212164583Y-77540739D02*
X212164583Y-77540739D01*
X191850000Y-127825000D02*
X191850000Y-127825000D01*
X193160254Y-126314267D02*
X193160254Y-126314267D01*
X194548045Y-124874435D02*
X194548045Y-124874435D01*
X196009541Y-123509477D02*
X196009541Y-123509477D01*
X197540707Y-122223161D02*
X197540707Y-122223161D01*
X199137319Y-121019038D02*
X199137319Y-121019038D01*
X200794967Y-119900431D02*
X200794967Y-119900431D01*
X202509077Y-118870429D02*
X202509077Y-118870429D01*
X204274918Y-117931873D02*
X204274918Y-117931873D01*
X206087615Y-117087355D02*
X206087615Y-117087355D01*
X207942164Y-116339207D02*
X207942164Y-116339207D01*
X209833447Y-115689492D02*
X209833447Y-115689492D01*
X211756243Y-115140005D02*
X211756243Y-115140005D01*
D11*
X68500000Y-152000000D02*
X58500000Y-152000000D01*
X221250000Y-152000000D02*
X221250000Y-162000000D01*
D12*
X124350000Y-71775000D02*
X124350000Y-71775000D01*
X125979610Y-72934409D02*
X125979610Y-72934409D01*
X127585159Y-74126916D02*
X127585159Y-74126916D01*
X129165975Y-75352021D02*
X129165975Y-75352021D01*
X130721395Y-76609211D02*
X130721395Y-76609211D01*
X132250770Y-77897959D02*
X132250770Y-77897959D01*
X133753459Y-79217727D02*
X133753459Y-79217727D01*
X135228832Y-80567962D02*
X135228832Y-80567962D01*
X136676273Y-81948098D02*
X136676273Y-81948098D01*
X138095175Y-83357559D02*
X138095175Y-83357559D01*
X139484944Y-84795753D02*
X139484944Y-84795753D01*
X140844999Y-86262079D02*
X140844999Y-86262079D01*
X142174769Y-87755923D02*
X142174769Y-87755923D01*
X143473700Y-89276659D02*
X143473700Y-89276659D01*
X144741246Y-90823652D02*
X144741246Y-90823652D01*
X145976877Y-92396254D02*
X145976877Y-92396254D01*
X147180077Y-93993806D02*
X147180077Y-93993806D01*
X148350341Y-95615639D02*
X148350341Y-95615639D01*
X149487179Y-97261075D02*
X149487179Y-97261075D01*
X150590116Y-98929424D02*
X150590116Y-98929424D01*
X151658689Y-100619990D02*
X151658689Y-100619990D01*
X152692453Y-102332063D02*
X152692453Y-102332063D01*
X153690973Y-104064927D02*
X153690973Y-104064927D01*
X154653832Y-105817857D02*
X154653832Y-105817857D01*
X155580626Y-107590118D02*
X155580626Y-107590118D01*
X156470969Y-109380970D02*
X156470969Y-109380970D01*
X157324487Y-111189663D02*
X157324487Y-111189663D01*
X158140822Y-113015438D02*
X158140822Y-113015438D01*
X158919634Y-114857533D02*
X158919634Y-114857533D01*
X159660596Y-116715176D02*
X159660596Y-116715176D01*
X160363398Y-118587589D02*
X160363398Y-118587589D01*
X161027745Y-120473988D02*
X161027745Y-120473988D01*
X161653360Y-122373584D02*
X161653360Y-122373584D01*
X162239981Y-124285582D02*
X162239981Y-124285582D01*
X162787363Y-126209182D02*
X162787363Y-126209182D01*
D10*
X193550869Y-111861454D02*
X193765184Y-111716300D01*
X193988738Y-111595815D01*
X194219750Y-111499748D01*
X194456441Y-111427849D01*
X194697030Y-111379867D01*
X194939739Y-111355553D01*
X195182786Y-111354656D01*
X195424392Y-111376927D01*
X195662778Y-111422114D01*
X195896163Y-111489969D01*
X196122768Y-111580241D01*
X196340812Y-111692679D01*
X196548516Y-111827034D01*
X196744100Y-111983055D01*
X196925784Y-112160493D01*
X197091789Y-112359098D01*
X108825000Y-119400000D02*
X110530989Y-118010899D01*
X111151349Y-117505772D02*
X112857338Y-116116671D01*
X113477698Y-115611544D02*
X115183687Y-114222443D01*
X115804047Y-113717315D02*
X117510036Y-112328215D01*
X118130396Y-111823087D02*
X118649999Y-111400000D01*
X195138831Y-110014603D02*
X195258843Y-110018515D01*
X195378701Y-110026140D01*
X195498313Y-110037476D01*
X195617589Y-110052524D01*
X195736435Y-110071281D01*
X195854761Y-110093746D01*
X195972475Y-110119919D01*
X196089484Y-110149797D01*
X196205699Y-110183379D01*
X196321026Y-110220664D01*
X196435375Y-110261651D01*
X196677553Y-110362387D01*
X196682088Y-110364483D01*
X196721901Y-110382984D01*
X196741746Y-110392407D01*
X196761550Y-110401946D01*
X196781312Y-110411601D01*
X196801032Y-110421371D01*
X196820708Y-110431258D01*
X196840341Y-110441262D01*
X196859929Y-110451382D01*
X196879472Y-110461621D01*
X196898969Y-110471976D01*
X196918421Y-110482449D01*
X196937825Y-110493040D01*
X196957182Y-110503749D01*
X196976490Y-110514577D01*
X196995750Y-110525523D01*
X197014959Y-110536587D01*
X197034119Y-110547772D01*
X197053229Y-110559075D01*
X197072288Y-110570499D01*
X197091295Y-110582041D01*
X197110249Y-110593705D01*
X197129150Y-110605489D01*
X197147998Y-110617393D01*
X197166791Y-110629419D01*
X197185530Y-110641564D01*
X197204213Y-110653832D01*
X197222840Y-110666221D01*
X197241410Y-110678733D01*
X197259922Y-110691366D01*
X197278377Y-110704122D01*
X197296774Y-110717001D01*
X197341062Y-110748851D01*
X197363105Y-110765067D01*
X197385076Y-110781473D01*
X197406971Y-110798067D01*
X197428790Y-110814850D01*
X197450528Y-110831816D01*
X197472183Y-110848965D01*
X197493753Y-110866294D01*
X197515233Y-110883803D01*
X197536622Y-110901487D01*
X197557915Y-110919346D01*
X197579112Y-110937377D01*
X197600207Y-110955578D01*
X197621200Y-110973947D01*
X197642087Y-110992482D01*
X197662865Y-111011183D01*
X197683530Y-111030044D01*
X197704082Y-111049065D01*
X197724516Y-111068244D01*
X197744828Y-111087579D01*
X197765018Y-111107068D01*
X197785083Y-111126709D01*
X197805017Y-111146499D01*
X197824820Y-111166436D01*
X197844488Y-111186520D01*
X197864018Y-111206746D01*
X197883409Y-111227114D01*
X197902655Y-111247622D01*
X197921755Y-111268266D01*
X197940706Y-111289047D01*
X197959506Y-111309959D01*
X198037767Y-111400420D01*
X198075687Y-111446355D01*
X198112800Y-111492749D01*
X198149106Y-111539590D01*
X198184604Y-111586869D01*
X198219293Y-111634576D01*
X198253174Y-111682701D01*
X198286247Y-111731234D01*
X198318508Y-111780167D01*
X198349962Y-111829488D01*
X198380604Y-111879189D01*
X198410436Y-111929259D01*
X198439457Y-111979688D01*
X198467667Y-112030467D01*
X198495066Y-112081587D01*
X198521652Y-112133037D01*
X198547426Y-112184807D01*
X198572387Y-112236888D01*
X198596535Y-112289270D01*
X198619870Y-112341944D01*
X198642391Y-112394898D01*
X198664097Y-112448124D01*
X198684989Y-112501613D01*
X198705065Y-112555353D01*
X198724326Y-112609336D01*
X198742772Y-112663551D01*
X198760401Y-112717989D01*
X198777214Y-112772640D01*
X198793210Y-112827494D01*
X198808389Y-112882543D01*
X198822751Y-112937774D01*
X198822895Y-112937984D01*
X198823356Y-112940091D01*
X198836704Y-112994802D01*
X198843083Y-113022218D01*
X198849266Y-113049671D01*
X198855251Y-113077162D01*
X198861037Y-113104688D01*
X198866626Y-113132250D01*
X198872017Y-113159845D01*
X198877208Y-113187473D01*
X198882200Y-113215133D01*
X198886992Y-113242822D01*
X198891584Y-113270543D01*
X198895977Y-113298291D01*
X198900168Y-113326065D01*
X198904158Y-113353866D01*
X198907947Y-113381692D01*
X198911535Y-113409541D01*
X198914920Y-113437414D01*
X198918103Y-113465308D01*
X198921083Y-113493222D01*
X198923860Y-113521157D01*
X198926433Y-113549109D01*
X198928802Y-113577078D01*
X198930968Y-113605062D01*
X198932928Y-113633063D01*
X198934683Y-113661077D01*
X198936235Y-113689104D01*
X198937579Y-113717142D01*
X198938718Y-113745191D01*
X198939650Y-113773249D01*
X198940376Y-113801316D01*
X198940895Y-113829390D01*
X198938138Y-113825731D01*
X198938605Y-113837422D01*
X200703159Y-114478550D01*
X199349532Y-115498580D01*
X198684766Y-115256958D01*
X198634117Y-115383558D01*
X198607186Y-115446039D01*
X198579196Y-115507960D01*
X198550153Y-115569309D01*
X198520067Y-115630074D01*
X198488947Y-115690245D01*
X198456800Y-115749810D01*
X198423636Y-115808757D01*
X198389461Y-115867077D01*
X198354285Y-115924756D01*
X198318117Y-115981785D01*
X198280963Y-116038151D01*
X198242834Y-116093844D01*
X198203737Y-116148852D01*
X198163680Y-116203164D01*
X198122673Y-116256769D01*
X198080723Y-116309655D01*
X198037838Y-116361812D01*
X197994029Y-116413226D01*
X197949301Y-116463890D01*
X197903664Y-116513788D01*
X197857127Y-116562913D01*
X197809698Y-116611251D01*
X197761385Y-116658792D01*
X197712196Y-116705524D01*
X197662139Y-116751435D01*
X197611225Y-116796516D01*
X197559460Y-116840754D01*
X197506853Y-116884139D01*
X197453412Y-116926658D01*
X197399147Y-116968301D01*
X197137536Y-117148935D01*
X197002511Y-117230275D01*
X196864934Y-117305630D01*
X196725000Y-117375000D01*
X196582905Y-117438385D01*
X196438841Y-117495786D01*
X196293008Y-117547203D01*
X196145597Y-117592634D01*
X195996805Y-117632081D01*
X195846828Y-117665545D01*
X195695861Y-117693024D01*
X195544099Y-117714518D01*
X195391736Y-117730029D01*
X195238970Y-117739556D01*
X195085993Y-117743097D01*
X194933003Y-117740656D01*
X194780193Y-117732231D01*
X194627761Y-117717822D01*
X194475900Y-117697429D01*
X194324806Y-117671053D01*
X194174675Y-117638693D01*
X194025701Y-117600349D01*
X193878079Y-117556022D01*
X193732007Y-117505711D01*
X193587677Y-117449418D01*
X193445285Y-117387141D01*
X193305028Y-117318881D01*
X193167099Y-117244637D01*
X193031696Y-117164412D01*
X192899011Y-117078203D01*
X192769242Y-116986010D01*
X190858307Y-118426003D01*
X191134787Y-120106710D01*
X189800070Y-121112492D01*
X188897924Y-114843506D01*
X190228384Y-113840933D01*
X191256682Y-114507623D01*
X191222010Y-114240442D01*
X191211603Y-114107190D01*
X191205765Y-113974292D01*
X191204459Y-113841846D01*
X191207648Y-113709950D01*
X191215292Y-113578701D01*
X191227357Y-113448196D01*
X191243803Y-113318533D01*
X191264593Y-113189809D01*
X191289691Y-113062120D01*
X191319058Y-112935567D01*
X191352657Y-112810243D01*
X191390451Y-112686247D01*
X191432401Y-112563679D01*
X191478472Y-112442632D01*
X191528625Y-112323207D01*
X191582822Y-112205497D01*
X191641027Y-112089605D01*
X191703202Y-111975624D01*
X191769309Y-111863653D01*
X191839311Y-111753789D01*
X191913171Y-111646130D01*
X191990851Y-111540772D01*
X192072313Y-111437814D01*
X192157520Y-111337352D01*
X192246436Y-111239484D01*
X192339021Y-111144308D01*
X192435239Y-111051919D01*
X192535052Y-110962416D01*
X192638423Y-110875897D01*
X192745316Y-110792459D01*
X192951237Y-110647482D01*
X193056762Y-110580601D01*
X193163874Y-110517457D01*
X193272481Y-110458050D01*
X193382493Y-110402378D01*
X193493817Y-110350439D01*
X193606362Y-110302233D01*
X193720036Y-110257757D01*
X193834747Y-110217012D01*
X193950404Y-110179993D01*
X194066916Y-110146703D01*
X194184189Y-110117138D01*
X194302134Y-110091299D01*
X194420658Y-110069182D01*
X194539669Y-110050787D01*
X194659076Y-110036115D01*
X194778788Y-110025161D01*
X194898711Y-110017925D01*
X195018757Y-110014406D01*
X195138831Y-110014603D01*
X191300000Y-127750000D02*
X189590696Y-126364981D01*
X188969130Y-125861337D02*
X187259826Y-124476318D01*
X186638261Y-123972675D02*
X184928956Y-122587655D01*
X184307391Y-122084012D02*
X182598087Y-120698993D01*
X181976521Y-120195349D02*
X180267217Y-118810330D01*
X179645652Y-118306687D02*
X177936347Y-116921667D01*
X177314782Y-116418024D02*
X175605478Y-115033005D01*
X174983912Y-114529361D02*
X173274608Y-113144342D01*
X172653043Y-112640699D02*
X170943738Y-111255679D01*
X170322173Y-110752036D02*
X168612869Y-109367017D01*
X167991303Y-108863373D02*
X166281999Y-107478354D01*
X165660434Y-106974711D02*
X163951129Y-105589691D01*
X163329564Y-105086048D02*
X161620260Y-103701029D01*
X160998695Y-103197385D02*
X159289390Y-101812366D01*
X158667825Y-101308723D02*
X156958520Y-99923703D01*
X156336955Y-99420060D02*
X154627651Y-98035041D01*
X154006086Y-97531397D02*
X152296781Y-96146378D01*
X151675216Y-95642735D02*
X149965911Y-94257715D01*
X149344346Y-93754072D02*
X147635042Y-92369053D01*
X147013477Y-91865409D02*
X145304172Y-90480390D01*
X144682607Y-89976747D02*
X142973303Y-88591727D01*
X142351737Y-88088084D02*
X140642433Y-86703065D01*
X140020868Y-86199421D02*
X138311563Y-84814402D01*
X137689998Y-84310759D02*
X135980694Y-82925739D01*
X135359128Y-82422096D02*
X133649824Y-81037077D01*
X133028259Y-80533433D02*
X131318954Y-79148414D01*
X130697389Y-78644771D02*
X128988085Y-77259751D01*
X128366519Y-76756108D02*
X126657215Y-75371089D01*
X126035650Y-74867445D02*
X124326345Y-73482426D01*
X123704780Y-72978783D02*
X122250001Y-71800000D01*
X193053221Y-115402377D02*
X192908067Y-115188060D01*
X192787582Y-114964506D01*
X192691514Y-114733493D01*
X192619615Y-114496802D01*
X192571634Y-114256212D01*
X192547320Y-114013503D01*
X192546424Y-113770456D01*
X192568695Y-113528849D01*
X192613883Y-113290464D01*
X192681738Y-113057078D01*
X192772010Y-112830474D01*
X192884449Y-112612430D01*
X193018804Y-112404726D01*
X193174826Y-112209142D01*
X193352264Y-112027458D01*
X193550869Y-111861454D01*
D12*
X90734681Y-95241739D02*
X90734681Y-95241739D01*
X92584588Y-96001662D02*
X92584588Y-96001662D01*
X94408572Y-96821860D02*
X94408572Y-96821860D01*
X96204668Y-97701449D02*
X96204668Y-97701449D01*
X97970945Y-98639484D02*
X97970945Y-98639484D01*
X99705500Y-99634954D02*
X99705500Y-99634954D01*
X101406466Y-100686788D02*
X101406466Y-100686788D01*
X103072013Y-101793853D02*
X103072013Y-101793853D01*
X104700348Y-102954959D02*
X104700348Y-102954959D01*
X106289718Y-104168855D02*
X106289718Y-104168855D01*
X107838413Y-105434235D02*
X107838413Y-105434235D01*
X109344765Y-106749736D02*
X109344765Y-106749736D01*
X110807154Y-108113943D02*
X110807154Y-108113943D01*
X112224004Y-109525388D02*
X112224004Y-109525388D01*
X113593792Y-110982551D02*
X113593792Y-110982551D01*
X114915042Y-112483863D02*
X114915042Y-112483863D01*
X116186333Y-114027709D02*
X116186333Y-114027709D01*
X117406296Y-115612427D02*
X117406296Y-115612427D01*
X118573618Y-117236312D02*
X118573618Y-117236312D01*
X119687042Y-118897615D02*
X119687042Y-118897615D01*
X120745371Y-120594548D02*
X120745371Y-120594548D01*
X121747464Y-122325284D02*
X121747464Y-122325284D01*
X122692244Y-124087962D02*
X122692244Y-124087962D01*
X123578694Y-125880683D02*
X123578694Y-125880683D01*
X124405858Y-127701518D02*
X124405858Y-127701518D01*
D10*
X197091789Y-112359098D02*
X197236942Y-112573414D01*
X197357427Y-112796968D01*
X197453495Y-113027981D01*
X197525394Y-113264672D01*
X197573375Y-113505262D01*
X197597689Y-113747970D01*
X197598586Y-113991018D01*
X197576315Y-114232624D01*
X197531127Y-114471010D01*
X197463272Y-114704395D01*
X197373000Y-114930999D01*
X197260562Y-115149043D01*
X197126207Y-115356747D01*
X196970186Y-115552330D01*
X196792748Y-115734014D01*
X196594145Y-115900018D01*
X79450000Y-126175000D02*
X80319401Y-124154074D01*
X80635547Y-123419192D02*
X81504948Y-121398266D01*
X81821094Y-120663384D02*
X82690495Y-118642458D01*
X83006641Y-117907576D02*
X83876042Y-115886650D01*
X84192188Y-115151768D02*
X85061589Y-113130842D01*
X85377735Y-112395960D02*
X86247137Y-110375034D01*
X86563282Y-109640152D02*
X87000000Y-108625000D01*
D12*
X78000000Y-115250000D02*
X78000000Y-115250000D01*
X79922269Y-115801322D02*
X79922269Y-115801322D01*
X81812834Y-116453116D02*
X81812834Y-116453116D01*
X83666449Y-117203573D02*
X83666449Y-117203573D01*
X85477969Y-118050610D02*
X85477969Y-118050610D01*
X87242365Y-118991876D02*
X87242365Y-118991876D01*
X88954740Y-120024758D02*
X88954740Y-120024758D01*
X90610342Y-121146390D02*
X90610342Y-121146390D01*
X92204575Y-122353657D02*
X92204575Y-122353657D01*
X93733014Y-123643211D02*
X93733014Y-123643211D01*
X95191418Y-125011471D02*
X95191418Y-125011471D01*
X96575737Y-126454639D02*
X96575737Y-126454639D01*
D10*
X98525000Y-127700000D02*
X100227353Y-126306446D01*
X100846391Y-125799699D02*
X102548744Y-124406144D01*
X103167782Y-123899397D02*
X103899999Y-123300000D01*
D11*
X82356265Y-96159895D02*
X82356265Y-95359895D01*
X82356265Y-95359895D02*
X82546741Y-95359895D01*
X82546741Y-95359895D02*
X82661027Y-95397990D01*
X82661027Y-95397990D02*
X82737217Y-95474180D01*
X82737217Y-95474180D02*
X82775312Y-95550371D01*
X82775312Y-95550371D02*
X82813408Y-95702752D01*
X82813408Y-95702752D02*
X82813408Y-95817038D01*
X82813408Y-95817038D02*
X82775312Y-95969419D01*
X82775312Y-95969419D02*
X82737217Y-96045609D01*
X82737217Y-96045609D02*
X82661027Y-96121800D01*
X82661027Y-96121800D02*
X82546741Y-96159895D01*
X82546741Y-96159895D02*
X82356265Y-96159895D01*
X83080074Y-95359895D02*
X83575312Y-95359895D01*
X83575312Y-95359895D02*
X83308646Y-95664657D01*
X83308646Y-95664657D02*
X83422931Y-95664657D01*
X83422931Y-95664657D02*
X83499122Y-95702752D01*
X83499122Y-95702752D02*
X83537217Y-95740847D01*
X83537217Y-95740847D02*
X83575312Y-95817038D01*
X83575312Y-95817038D02*
X83575312Y-96007514D01*
X83575312Y-96007514D02*
X83537217Y-96083704D01*
X83537217Y-96083704D02*
X83499122Y-96121800D01*
X83499122Y-96121800D02*
X83422931Y-96159895D01*
X83422931Y-96159895D02*
X83194360Y-96159895D01*
X83194360Y-96159895D02*
X83118169Y-96121800D01*
X83118169Y-96121800D02*
X83080074Y-96083704D01*
X166810341Y-126773108D02*
X166810341Y-125773108D01*
X166810341Y-125773108D02*
X167048436Y-125773108D01*
X167048436Y-125773108D02*
X167191293Y-125820727D01*
X167191293Y-125820727D02*
X167286531Y-125915965D01*
X167286531Y-125915965D02*
X167334150Y-126011203D01*
X167334150Y-126011203D02*
X167381769Y-126201679D01*
X167381769Y-126201679D02*
X167381769Y-126344536D01*
X167381769Y-126344536D02*
X167334150Y-126535012D01*
X167334150Y-126535012D02*
X167286531Y-126630250D01*
X167286531Y-126630250D02*
X167191293Y-126725489D01*
X167191293Y-126725489D02*
X167048436Y-126773108D01*
X167048436Y-126773108D02*
X166810341Y-126773108D01*
X168191293Y-126725489D02*
X168096055Y-126773108D01*
X168096055Y-126773108D02*
X167905579Y-126773108D01*
X167905579Y-126773108D02*
X167810341Y-126725489D01*
X167810341Y-126725489D02*
X167762722Y-126630250D01*
X167762722Y-126630250D02*
X167762722Y-126249298D01*
X167762722Y-126249298D02*
X167810341Y-126154060D01*
X167810341Y-126154060D02*
X167905579Y-126106441D01*
X167905579Y-126106441D02*
X168096055Y-126106441D01*
X168096055Y-126106441D02*
X168191293Y-126154060D01*
X168191293Y-126154060D02*
X168238912Y-126249298D01*
X168238912Y-126249298D02*
X168238912Y-126344536D01*
X168238912Y-126344536D02*
X167762722Y-126439774D01*
X168619865Y-126725489D02*
X168715103Y-126773108D01*
X168715103Y-126773108D02*
X168905579Y-126773108D01*
X168905579Y-126773108D02*
X169000817Y-126725489D01*
X169000817Y-126725489D02*
X169048436Y-126630250D01*
X169048436Y-126630250D02*
X169048436Y-126582631D01*
X169048436Y-126582631D02*
X169000817Y-126487393D01*
X169000817Y-126487393D02*
X168905579Y-126439774D01*
X168905579Y-126439774D02*
X168762722Y-126439774D01*
X168762722Y-126439774D02*
X168667484Y-126392155D01*
X168667484Y-126392155D02*
X168619865Y-126296917D01*
X168619865Y-126296917D02*
X168619865Y-126249298D01*
X168619865Y-126249298D02*
X168667484Y-126154060D01*
X168667484Y-126154060D02*
X168762722Y-126106441D01*
X168762722Y-126106441D02*
X168905579Y-126106441D01*
X168905579Y-126106441D02*
X169000817Y-126154060D01*
X169477008Y-126773108D02*
X169477008Y-126106441D01*
X169477008Y-125773108D02*
X169429389Y-125820727D01*
X169429389Y-125820727D02*
X169477008Y-125868346D01*
X169477008Y-125868346D02*
X169524627Y-125820727D01*
X169524627Y-125820727D02*
X169477008Y-125773108D01*
X169477008Y-125773108D02*
X169477008Y-125868346D01*
X170381769Y-126106441D02*
X170381769Y-126915965D01*
X170381769Y-126915965D02*
X170334150Y-127011203D01*
X170334150Y-127011203D02*
X170286531Y-127058822D01*
X170286531Y-127058822D02*
X170191293Y-127106441D01*
X170191293Y-127106441D02*
X170048436Y-127106441D01*
X170048436Y-127106441D02*
X169953198Y-127058822D01*
X170381769Y-126725489D02*
X170286531Y-126773108D01*
X170286531Y-126773108D02*
X170096055Y-126773108D01*
X170096055Y-126773108D02*
X170000817Y-126725489D01*
X170000817Y-126725489D02*
X169953198Y-126677869D01*
X169953198Y-126677869D02*
X169905579Y-126582631D01*
X169905579Y-126582631D02*
X169905579Y-126296917D01*
X169905579Y-126296917D02*
X169953198Y-126201679D01*
X169953198Y-126201679D02*
X170000817Y-126154060D01*
X170000817Y-126154060D02*
X170096055Y-126106441D01*
X170096055Y-126106441D02*
X170286531Y-126106441D01*
X170286531Y-126106441D02*
X170381769Y-126154060D01*
X170857960Y-126106441D02*
X170857960Y-126773108D01*
X170857960Y-126201679D02*
X170905579Y-126154060D01*
X170905579Y-126154060D02*
X171000817Y-126106441D01*
X171000817Y-126106441D02*
X171143674Y-126106441D01*
X171143674Y-126106441D02*
X171238912Y-126154060D01*
X171238912Y-126154060D02*
X171286531Y-126249298D01*
X171286531Y-126249298D02*
X171286531Y-126773108D01*
X172143674Y-126725489D02*
X172048436Y-126773108D01*
X172048436Y-126773108D02*
X171857960Y-126773108D01*
X171857960Y-126773108D02*
X171762722Y-126725489D01*
X171762722Y-126725489D02*
X171715103Y-126630250D01*
X171715103Y-126630250D02*
X171715103Y-126249298D01*
X171715103Y-126249298D02*
X171762722Y-126154060D01*
X171762722Y-126154060D02*
X171857960Y-126106441D01*
X171857960Y-126106441D02*
X172048436Y-126106441D01*
X172048436Y-126106441D02*
X172143674Y-126154060D01*
X172143674Y-126154060D02*
X172191293Y-126249298D01*
X172191293Y-126249298D02*
X172191293Y-126344536D01*
X172191293Y-126344536D02*
X171715103Y-126439774D01*
X173048436Y-126773108D02*
X173048436Y-125773108D01*
X173048436Y-126725489D02*
X172953198Y-126773108D01*
X172953198Y-126773108D02*
X172762722Y-126773108D01*
X172762722Y-126773108D02*
X172667484Y-126725489D01*
X172667484Y-126725489D02*
X172619865Y-126677869D01*
X172619865Y-126677869D02*
X172572246Y-126582631D01*
X172572246Y-126582631D02*
X172572246Y-126296917D01*
X172572246Y-126296917D02*
X172619865Y-126201679D01*
X172619865Y-126201679D02*
X172667484Y-126154060D01*
X172667484Y-126154060D02*
X172762722Y-126106441D01*
X172762722Y-126106441D02*
X172953198Y-126106441D01*
X172953198Y-126106441D02*
X173048436Y-126154060D01*
X174286532Y-126773108D02*
X174286532Y-125773108D01*
X174286532Y-126154060D02*
X174381770Y-126106441D01*
X174381770Y-126106441D02*
X174572246Y-126106441D01*
X174572246Y-126106441D02*
X174667484Y-126154060D01*
X174667484Y-126154060D02*
X174715103Y-126201679D01*
X174715103Y-126201679D02*
X174762722Y-126296917D01*
X174762722Y-126296917D02*
X174762722Y-126582631D01*
X174762722Y-126582631D02*
X174715103Y-126677869D01*
X174715103Y-126677869D02*
X174667484Y-126725489D01*
X174667484Y-126725489D02*
X174572246Y-126773108D01*
X174572246Y-126773108D02*
X174381770Y-126773108D01*
X174381770Y-126773108D02*
X174286532Y-126725489D01*
X175096056Y-126106441D02*
X175334151Y-126773108D01*
X175572246Y-126106441D02*
X175334151Y-126773108D01*
X175334151Y-126773108D02*
X175238913Y-127011203D01*
X175238913Y-127011203D02*
X175191294Y-127058822D01*
X175191294Y-127058822D02*
X175096056Y-127106441D01*
X176667485Y-126725489D02*
X176810342Y-126773108D01*
X176810342Y-126773108D02*
X177048437Y-126773108D01*
X177048437Y-126773108D02*
X177143675Y-126725489D01*
X177143675Y-126725489D02*
X177191294Y-126677869D01*
X177191294Y-126677869D02*
X177238913Y-126582631D01*
X177238913Y-126582631D02*
X177238913Y-126487393D01*
X177238913Y-126487393D02*
X177191294Y-126392155D01*
X177191294Y-126392155D02*
X177143675Y-126344536D01*
X177143675Y-126344536D02*
X177048437Y-126296917D01*
X177048437Y-126296917D02*
X176857961Y-126249298D01*
X176857961Y-126249298D02*
X176762723Y-126201679D01*
X176762723Y-126201679D02*
X176715104Y-126154060D01*
X176715104Y-126154060D02*
X176667485Y-126058822D01*
X176667485Y-126058822D02*
X176667485Y-125963584D01*
X176667485Y-125963584D02*
X176715104Y-125868346D01*
X176715104Y-125868346D02*
X176762723Y-125820727D01*
X176762723Y-125820727D02*
X176857961Y-125773108D01*
X176857961Y-125773108D02*
X177096056Y-125773108D01*
X177096056Y-125773108D02*
X177238913Y-125820727D01*
X178048437Y-126725489D02*
X177953199Y-126773108D01*
X177953199Y-126773108D02*
X177762723Y-126773108D01*
X177762723Y-126773108D02*
X177667485Y-126725489D01*
X177667485Y-126725489D02*
X177619866Y-126630250D01*
X177619866Y-126630250D02*
X177619866Y-126249298D01*
X177619866Y-126249298D02*
X177667485Y-126154060D01*
X177667485Y-126154060D02*
X177762723Y-126106441D01*
X177762723Y-126106441D02*
X177953199Y-126106441D01*
X177953199Y-126106441D02*
X178048437Y-126154060D01*
X178048437Y-126154060D02*
X178096056Y-126249298D01*
X178096056Y-126249298D02*
X178096056Y-126344536D01*
X178096056Y-126344536D02*
X177619866Y-126439774D01*
X178953199Y-126773108D02*
X178953199Y-126249298D01*
X178953199Y-126249298D02*
X178905580Y-126154060D01*
X178905580Y-126154060D02*
X178810342Y-126106441D01*
X178810342Y-126106441D02*
X178619866Y-126106441D01*
X178619866Y-126106441D02*
X178524628Y-126154060D01*
X178953199Y-126725489D02*
X178857961Y-126773108D01*
X178857961Y-126773108D02*
X178619866Y-126773108D01*
X178619866Y-126773108D02*
X178524628Y-126725489D01*
X178524628Y-126725489D02*
X178477009Y-126630250D01*
X178477009Y-126630250D02*
X178477009Y-126535012D01*
X178477009Y-126535012D02*
X178524628Y-126439774D01*
X178524628Y-126439774D02*
X178619866Y-126392155D01*
X178619866Y-126392155D02*
X178857961Y-126392155D01*
X178857961Y-126392155D02*
X178953199Y-126344536D01*
X179429390Y-126106441D02*
X179429390Y-126773108D01*
X179429390Y-126201679D02*
X179477009Y-126154060D01*
X179477009Y-126154060D02*
X179572247Y-126106441D01*
X179572247Y-126106441D02*
X179715104Y-126106441D01*
X179715104Y-126106441D02*
X179810342Y-126154060D01*
X179810342Y-126154060D02*
X179857961Y-126249298D01*
X179857961Y-126249298D02*
X179857961Y-126773108D01*
X181096057Y-126773108D02*
X181096057Y-125773108D01*
X181096057Y-126249298D02*
X181667485Y-126249298D01*
X181667485Y-126773108D02*
X181667485Y-125773108D01*
X182572247Y-126773108D02*
X182572247Y-126249298D01*
X182572247Y-126249298D02*
X182524628Y-126154060D01*
X182524628Y-126154060D02*
X182429390Y-126106441D01*
X182429390Y-126106441D02*
X182238914Y-126106441D01*
X182238914Y-126106441D02*
X182143676Y-126154060D01*
X182572247Y-126725489D02*
X182477009Y-126773108D01*
X182477009Y-126773108D02*
X182238914Y-126773108D01*
X182238914Y-126773108D02*
X182143676Y-126725489D01*
X182143676Y-126725489D02*
X182096057Y-126630250D01*
X182096057Y-126630250D02*
X182096057Y-126535012D01*
X182096057Y-126535012D02*
X182143676Y-126439774D01*
X182143676Y-126439774D02*
X182238914Y-126392155D01*
X182238914Y-126392155D02*
X182477009Y-126392155D01*
X182477009Y-126392155D02*
X182572247Y-126344536D01*
X183048438Y-126773108D02*
X183048438Y-126106441D01*
X183048438Y-126296917D02*
X183096057Y-126201679D01*
X183096057Y-126201679D02*
X183143676Y-126154060D01*
X183143676Y-126154060D02*
X183238914Y-126106441D01*
X183238914Y-126106441D02*
X183334152Y-126106441D01*
X183667486Y-126773108D02*
X183667486Y-126106441D01*
X183667486Y-126296917D02*
X183715105Y-126201679D01*
X183715105Y-126201679D02*
X183762724Y-126154060D01*
X183762724Y-126154060D02*
X183857962Y-126106441D01*
X183857962Y-126106441D02*
X183953200Y-126106441D01*
X184286534Y-126773108D02*
X184286534Y-126106441D01*
X184286534Y-125773108D02*
X184238915Y-125820727D01*
X184238915Y-125820727D02*
X184286534Y-125868346D01*
X184286534Y-125868346D02*
X184334153Y-125820727D01*
X184334153Y-125820727D02*
X184286534Y-125773108D01*
X184286534Y-125773108D02*
X184286534Y-125868346D01*
X184762724Y-126106441D02*
X184762724Y-126773108D01*
X184762724Y-126201679D02*
X184810343Y-126154060D01*
X184810343Y-126154060D02*
X184905581Y-126106441D01*
X184905581Y-126106441D02*
X185048438Y-126106441D01*
X185048438Y-126106441D02*
X185143676Y-126154060D01*
X185143676Y-126154060D02*
X185191295Y-126249298D01*
X185191295Y-126249298D02*
X185191295Y-126773108D01*
X186096057Y-126106441D02*
X186096057Y-126915965D01*
X186096057Y-126915965D02*
X186048438Y-127011203D01*
X186048438Y-127011203D02*
X186000819Y-127058822D01*
X186000819Y-127058822D02*
X185905581Y-127106441D01*
X185905581Y-127106441D02*
X185762724Y-127106441D01*
X185762724Y-127106441D02*
X185667486Y-127058822D01*
X186096057Y-126725489D02*
X186000819Y-126773108D01*
X186000819Y-126773108D02*
X185810343Y-126773108D01*
X185810343Y-126773108D02*
X185715105Y-126725489D01*
X185715105Y-126725489D02*
X185667486Y-126677869D01*
X185667486Y-126677869D02*
X185619867Y-126582631D01*
X185619867Y-126582631D02*
X185619867Y-126296917D01*
X185619867Y-126296917D02*
X185667486Y-126201679D01*
X185667486Y-126201679D02*
X185715105Y-126154060D01*
X185715105Y-126154060D02*
X185810343Y-126106441D01*
X185810343Y-126106441D02*
X186000819Y-126106441D01*
X186000819Y-126106441D02*
X186096057Y-126154060D01*
X186429391Y-126106441D02*
X186810343Y-126106441D01*
X186572248Y-125773108D02*
X186572248Y-126630250D01*
X186572248Y-126630250D02*
X186619867Y-126725489D01*
X186619867Y-126725489D02*
X186715105Y-126773108D01*
X186715105Y-126773108D02*
X186810343Y-126773108D01*
X187286534Y-126773108D02*
X187191296Y-126725489D01*
X187191296Y-126725489D02*
X187143677Y-126677869D01*
X187143677Y-126677869D02*
X187096058Y-126582631D01*
X187096058Y-126582631D02*
X187096058Y-126296917D01*
X187096058Y-126296917D02*
X187143677Y-126201679D01*
X187143677Y-126201679D02*
X187191296Y-126154060D01*
X187191296Y-126154060D02*
X187286534Y-126106441D01*
X187286534Y-126106441D02*
X187429391Y-126106441D01*
X187429391Y-126106441D02*
X187524629Y-126154060D01*
X187524629Y-126154060D02*
X187572248Y-126201679D01*
X187572248Y-126201679D02*
X187619867Y-126296917D01*
X187619867Y-126296917D02*
X187619867Y-126582631D01*
X187619867Y-126582631D02*
X187572248Y-126677869D01*
X187572248Y-126677869D02*
X187524629Y-126725489D01*
X187524629Y-126725489D02*
X187429391Y-126773108D01*
X187429391Y-126773108D02*
X187286534Y-126773108D01*
X188048439Y-126106441D02*
X188048439Y-126773108D01*
X188048439Y-126201679D02*
X188096058Y-126154060D01*
X188096058Y-126154060D02*
X188191296Y-126106441D01*
X188191296Y-126106441D02*
X188334153Y-126106441D01*
X188334153Y-126106441D02*
X188429391Y-126154060D01*
X188429391Y-126154060D02*
X188477010Y-126249298D01*
X188477010Y-126249298D02*
X188477010Y-126773108D01*
X82356265Y-103779895D02*
X82356265Y-102979895D01*
X82356265Y-102979895D02*
X82546741Y-102979895D01*
X82546741Y-102979895D02*
X82661027Y-103017990D01*
X82661027Y-103017990D02*
X82737217Y-103094180D01*
X82737217Y-103094180D02*
X82775312Y-103170371D01*
X82775312Y-103170371D02*
X82813408Y-103322752D01*
X82813408Y-103322752D02*
X82813408Y-103437038D01*
X82813408Y-103437038D02*
X82775312Y-103589419D01*
X82775312Y-103589419D02*
X82737217Y-103665609D01*
X82737217Y-103665609D02*
X82661027Y-103741800D01*
X82661027Y-103741800D02*
X82546741Y-103779895D01*
X82546741Y-103779895D02*
X82356265Y-103779895D01*
X83499122Y-102979895D02*
X83346741Y-102979895D01*
X83346741Y-102979895D02*
X83270550Y-103017990D01*
X83270550Y-103017990D02*
X83232455Y-103056085D01*
X83232455Y-103056085D02*
X83156265Y-103170371D01*
X83156265Y-103170371D02*
X83118169Y-103322752D01*
X83118169Y-103322752D02*
X83118169Y-103627514D01*
X83118169Y-103627514D02*
X83156265Y-103703704D01*
X83156265Y-103703704D02*
X83194360Y-103741800D01*
X83194360Y-103741800D02*
X83270550Y-103779895D01*
X83270550Y-103779895D02*
X83422931Y-103779895D01*
X83422931Y-103779895D02*
X83499122Y-103741800D01*
X83499122Y-103741800D02*
X83537217Y-103703704D01*
X83537217Y-103703704D02*
X83575312Y-103627514D01*
X83575312Y-103627514D02*
X83575312Y-103437038D01*
X83575312Y-103437038D02*
X83537217Y-103360847D01*
X83537217Y-103360847D02*
X83499122Y-103322752D01*
X83499122Y-103322752D02*
X83422931Y-103284657D01*
X83422931Y-103284657D02*
X83270550Y-103284657D01*
X83270550Y-103284657D02*
X83194360Y-103322752D01*
X83194360Y-103322752D02*
X83156265Y-103360847D01*
X83156265Y-103360847D02*
X83118169Y-103437038D01*
X120559524Y-105789895D02*
X120559524Y-104989895D01*
X120559524Y-104989895D02*
X120750000Y-104989895D01*
X120750000Y-104989895D02*
X120864286Y-105027990D01*
X120864286Y-105027990D02*
X120940476Y-105104180D01*
X120940476Y-105104180D02*
X120978571Y-105180371D01*
X120978571Y-105180371D02*
X121016667Y-105332752D01*
X121016667Y-105332752D02*
X121016667Y-105447038D01*
X121016667Y-105447038D02*
X120978571Y-105599419D01*
X120978571Y-105599419D02*
X120940476Y-105675609D01*
X120940476Y-105675609D02*
X120864286Y-105751800D01*
X120864286Y-105751800D02*
X120750000Y-105789895D01*
X120750000Y-105789895D02*
X120559524Y-105789895D01*
X121359524Y-105370847D02*
X121626190Y-105370847D01*
X121740476Y-105789895D02*
X121359524Y-105789895D01*
X121359524Y-105789895D02*
X121359524Y-104989895D01*
X121359524Y-104989895D02*
X121740476Y-104989895D01*
X122350000Y-105370847D02*
X122464286Y-105408942D01*
X122464286Y-105408942D02*
X122502381Y-105447038D01*
X122502381Y-105447038D02*
X122540477Y-105523228D01*
X122540477Y-105523228D02*
X122540477Y-105637514D01*
X122540477Y-105637514D02*
X122502381Y-105713704D01*
X122502381Y-105713704D02*
X122464286Y-105751800D01*
X122464286Y-105751800D02*
X122388096Y-105789895D01*
X122388096Y-105789895D02*
X122083334Y-105789895D01*
X122083334Y-105789895D02*
X122083334Y-104989895D01*
X122083334Y-104989895D02*
X122350000Y-104989895D01*
X122350000Y-104989895D02*
X122426191Y-105027990D01*
X122426191Y-105027990D02*
X122464286Y-105066085D01*
X122464286Y-105066085D02*
X122502381Y-105142276D01*
X122502381Y-105142276D02*
X122502381Y-105218466D01*
X122502381Y-105218466D02*
X122464286Y-105294657D01*
X122464286Y-105294657D02*
X122426191Y-105332752D01*
X122426191Y-105332752D02*
X122350000Y-105370847D01*
X122350000Y-105370847D02*
X122083334Y-105370847D01*
X122883334Y-104989895D02*
X122883334Y-105637514D01*
X122883334Y-105637514D02*
X122921429Y-105713704D01*
X122921429Y-105713704D02*
X122959524Y-105751800D01*
X122959524Y-105751800D02*
X123035715Y-105789895D01*
X123035715Y-105789895D02*
X123188096Y-105789895D01*
X123188096Y-105789895D02*
X123264286Y-105751800D01*
X123264286Y-105751800D02*
X123302381Y-105713704D01*
X123302381Y-105713704D02*
X123340477Y-105637514D01*
X123340477Y-105637514D02*
X123340477Y-104989895D01*
X124140476Y-105027990D02*
X124064286Y-104989895D01*
X124064286Y-104989895D02*
X123950000Y-104989895D01*
X123950000Y-104989895D02*
X123835714Y-105027990D01*
X123835714Y-105027990D02*
X123759524Y-105104180D01*
X123759524Y-105104180D02*
X123721429Y-105180371D01*
X123721429Y-105180371D02*
X123683333Y-105332752D01*
X123683333Y-105332752D02*
X123683333Y-105447038D01*
X123683333Y-105447038D02*
X123721429Y-105599419D01*
X123721429Y-105599419D02*
X123759524Y-105675609D01*
X123759524Y-105675609D02*
X123835714Y-105751800D01*
X123835714Y-105751800D02*
X123950000Y-105789895D01*
X123950000Y-105789895D02*
X124026191Y-105789895D01*
X124026191Y-105789895D02*
X124140476Y-105751800D01*
X124140476Y-105751800D02*
X124178572Y-105713704D01*
X124178572Y-105713704D02*
X124178572Y-105447038D01*
X124178572Y-105447038D02*
X124026191Y-105447038D01*
D10*
X134435714Y-99947814D02*
X134935714Y-99947814D01*
X135150000Y-100733528D02*
X134435714Y-100733528D01*
X134435714Y-100733528D02*
X134435714Y-99233528D01*
X134435714Y-99233528D02*
X135150000Y-99233528D01*
X135721429Y-100662100D02*
X135935715Y-100733528D01*
X135935715Y-100733528D02*
X136292857Y-100733528D01*
X136292857Y-100733528D02*
X136435715Y-100662100D01*
X136435715Y-100662100D02*
X136507143Y-100590671D01*
X136507143Y-100590671D02*
X136578572Y-100447814D01*
X136578572Y-100447814D02*
X136578572Y-100304957D01*
X136578572Y-100304957D02*
X136507143Y-100162100D01*
X136507143Y-100162100D02*
X136435715Y-100090671D01*
X136435715Y-100090671D02*
X136292857Y-100019242D01*
X136292857Y-100019242D02*
X136007143Y-99947814D01*
X136007143Y-99947814D02*
X135864286Y-99876385D01*
X135864286Y-99876385D02*
X135792857Y-99804957D01*
X135792857Y-99804957D02*
X135721429Y-99662100D01*
X135721429Y-99662100D02*
X135721429Y-99519242D01*
X135721429Y-99519242D02*
X135792857Y-99376385D01*
X135792857Y-99376385D02*
X135864286Y-99304957D01*
X135864286Y-99304957D02*
X136007143Y-99233528D01*
X136007143Y-99233528D02*
X136364286Y-99233528D01*
X136364286Y-99233528D02*
X136578572Y-99304957D01*
X137221428Y-100733528D02*
X137221428Y-99233528D01*
X137221428Y-99233528D02*
X137792857Y-99233528D01*
X137792857Y-99233528D02*
X137935714Y-99304957D01*
X137935714Y-99304957D02*
X138007143Y-99376385D01*
X138007143Y-99376385D02*
X138078571Y-99519242D01*
X138078571Y-99519242D02*
X138078571Y-99733528D01*
X138078571Y-99733528D02*
X138007143Y-99876385D01*
X138007143Y-99876385D02*
X137935714Y-99947814D01*
X137935714Y-99947814D02*
X137792857Y-100019242D01*
X137792857Y-100019242D02*
X137221428Y-100019242D01*
X138578571Y-99233528D02*
X139507143Y-99233528D01*
X139507143Y-99233528D02*
X139007143Y-99804957D01*
X139007143Y-99804957D02*
X139221428Y-99804957D01*
X139221428Y-99804957D02*
X139364286Y-99876385D01*
X139364286Y-99876385D02*
X139435714Y-99947814D01*
X139435714Y-99947814D02*
X139507143Y-100090671D01*
X139507143Y-100090671D02*
X139507143Y-100447814D01*
X139507143Y-100447814D02*
X139435714Y-100590671D01*
X139435714Y-100590671D02*
X139364286Y-100662100D01*
X139364286Y-100662100D02*
X139221428Y-100733528D01*
X139221428Y-100733528D02*
X138792857Y-100733528D01*
X138792857Y-100733528D02*
X138650000Y-100662100D01*
X138650000Y-100662100D02*
X138578571Y-100590671D01*
X140078571Y-99376385D02*
X140149999Y-99304957D01*
X140149999Y-99304957D02*
X140292857Y-99233528D01*
X140292857Y-99233528D02*
X140649999Y-99233528D01*
X140649999Y-99233528D02*
X140792857Y-99304957D01*
X140792857Y-99304957D02*
X140864285Y-99376385D01*
X140864285Y-99376385D02*
X140935714Y-99519242D01*
X140935714Y-99519242D02*
X140935714Y-99662100D01*
X140935714Y-99662100D02*
X140864285Y-99876385D01*
X140864285Y-99876385D02*
X140007142Y-100733528D01*
X140007142Y-100733528D02*
X140935714Y-100733528D01*
X121932142Y-93247814D02*
X122146428Y-93319242D01*
X122146428Y-93319242D02*
X122217857Y-93390671D01*
X122217857Y-93390671D02*
X122289285Y-93533528D01*
X122289285Y-93533528D02*
X122289285Y-93747814D01*
X122289285Y-93747814D02*
X122217857Y-93890671D01*
X122217857Y-93890671D02*
X122146428Y-93962100D01*
X122146428Y-93962100D02*
X122003571Y-94033528D01*
X122003571Y-94033528D02*
X121432142Y-94033528D01*
X121432142Y-94033528D02*
X121432142Y-92533528D01*
X121432142Y-92533528D02*
X121932142Y-92533528D01*
X121932142Y-92533528D02*
X122075000Y-92604957D01*
X122075000Y-92604957D02*
X122146428Y-92676385D01*
X122146428Y-92676385D02*
X122217857Y-92819242D01*
X122217857Y-92819242D02*
X122217857Y-92962100D01*
X122217857Y-92962100D02*
X122146428Y-93104957D01*
X122146428Y-93104957D02*
X122075000Y-93176385D01*
X122075000Y-93176385D02*
X121932142Y-93247814D01*
X121932142Y-93247814D02*
X121432142Y-93247814D01*
X123575000Y-94033528D02*
X123575000Y-93247814D01*
X123575000Y-93247814D02*
X123503571Y-93104957D01*
X123503571Y-93104957D02*
X123360714Y-93033528D01*
X123360714Y-93033528D02*
X123075000Y-93033528D01*
X123075000Y-93033528D02*
X122932142Y-93104957D01*
X123575000Y-93962100D02*
X123432142Y-94033528D01*
X123432142Y-94033528D02*
X123075000Y-94033528D01*
X123075000Y-94033528D02*
X122932142Y-93962100D01*
X122932142Y-93962100D02*
X122860714Y-93819242D01*
X122860714Y-93819242D02*
X122860714Y-93676385D01*
X122860714Y-93676385D02*
X122932142Y-93533528D01*
X122932142Y-93533528D02*
X123075000Y-93462100D01*
X123075000Y-93462100D02*
X123432142Y-93462100D01*
X123432142Y-93462100D02*
X123575000Y-93390671D01*
X124075000Y-93033528D02*
X124646428Y-93033528D01*
X124289285Y-92533528D02*
X124289285Y-93819242D01*
X124289285Y-93819242D02*
X124360714Y-93962100D01*
X124360714Y-93962100D02*
X124503571Y-94033528D01*
X124503571Y-94033528D02*
X124646428Y-94033528D01*
X124932143Y-93033528D02*
X125503571Y-93033528D01*
X125146428Y-92533528D02*
X125146428Y-93819242D01*
X125146428Y-93819242D02*
X125217857Y-93962100D01*
X125217857Y-93962100D02*
X125360714Y-94033528D01*
X125360714Y-94033528D02*
X125503571Y-94033528D01*
X126575000Y-93962100D02*
X126432143Y-94033528D01*
X126432143Y-94033528D02*
X126146429Y-94033528D01*
X126146429Y-94033528D02*
X126003571Y-93962100D01*
X126003571Y-93962100D02*
X125932143Y-93819242D01*
X125932143Y-93819242D02*
X125932143Y-93247814D01*
X125932143Y-93247814D02*
X126003571Y-93104957D01*
X126003571Y-93104957D02*
X126146429Y-93033528D01*
X126146429Y-93033528D02*
X126432143Y-93033528D01*
X126432143Y-93033528D02*
X126575000Y-93104957D01*
X126575000Y-93104957D02*
X126646429Y-93247814D01*
X126646429Y-93247814D02*
X126646429Y-93390671D01*
X126646429Y-93390671D02*
X125932143Y-93533528D01*
X127289285Y-94033528D02*
X127289285Y-93033528D01*
X127289285Y-93319242D02*
X127360714Y-93176385D01*
X127360714Y-93176385D02*
X127432143Y-93104957D01*
X127432143Y-93104957D02*
X127575000Y-93033528D01*
X127575000Y-93033528D02*
X127717857Y-93033528D01*
X128074999Y-93033528D02*
X128432142Y-94033528D01*
X128789285Y-93033528D02*
X128432142Y-94033528D01*
X128432142Y-94033528D02*
X128289285Y-94390671D01*
X128289285Y-94390671D02*
X128217856Y-94462100D01*
X128217856Y-94462100D02*
X128074999Y-94533528D01*
X130503570Y-94033528D02*
X130503570Y-92533528D01*
X130503570Y-92533528D02*
X131003570Y-93604957D01*
X131003570Y-93604957D02*
X131503570Y-92533528D01*
X131503570Y-92533528D02*
X131503570Y-94033528D01*
X132860714Y-93033528D02*
X132860714Y-94247814D01*
X132860714Y-94247814D02*
X132789285Y-94390671D01*
X132789285Y-94390671D02*
X132717856Y-94462100D01*
X132717856Y-94462100D02*
X132574999Y-94533528D01*
X132574999Y-94533528D02*
X132360714Y-94533528D01*
X132360714Y-94533528D02*
X132217856Y-94462100D01*
X132860714Y-93962100D02*
X132717856Y-94033528D01*
X132717856Y-94033528D02*
X132432142Y-94033528D01*
X132432142Y-94033528D02*
X132289285Y-93962100D01*
X132289285Y-93962100D02*
X132217856Y-93890671D01*
X132217856Y-93890671D02*
X132146428Y-93747814D01*
X132146428Y-93747814D02*
X132146428Y-93319242D01*
X132146428Y-93319242D02*
X132217856Y-93176385D01*
X132217856Y-93176385D02*
X132289285Y-93104957D01*
X132289285Y-93104957D02*
X132432142Y-93033528D01*
X132432142Y-93033528D02*
X132717856Y-93033528D01*
X132717856Y-93033528D02*
X132860714Y-93104957D01*
X133574999Y-94033528D02*
X133574999Y-93033528D01*
X133574999Y-93176385D02*
X133646428Y-93104957D01*
X133646428Y-93104957D02*
X133789285Y-93033528D01*
X133789285Y-93033528D02*
X134003571Y-93033528D01*
X134003571Y-93033528D02*
X134146428Y-93104957D01*
X134146428Y-93104957D02*
X134217857Y-93247814D01*
X134217857Y-93247814D02*
X134217857Y-94033528D01*
X134217857Y-93247814D02*
X134289285Y-93104957D01*
X134289285Y-93104957D02*
X134432142Y-93033528D01*
X134432142Y-93033528D02*
X134646428Y-93033528D01*
X134646428Y-93033528D02*
X134789285Y-93104957D01*
X134789285Y-93104957D02*
X134860714Y-93247814D01*
X134860714Y-93247814D02*
X134860714Y-94033528D01*
X135360714Y-93033528D02*
X135932142Y-93033528D01*
X135574999Y-92533528D02*
X135574999Y-93819242D01*
X135574999Y-93819242D02*
X135646428Y-93962100D01*
X135646428Y-93962100D02*
X135789285Y-94033528D01*
X135789285Y-94033528D02*
X135932142Y-94033528D01*
D11*
X82356265Y-106319895D02*
X82356265Y-105519895D01*
X82356265Y-105519895D02*
X82546741Y-105519895D01*
X82546741Y-105519895D02*
X82661027Y-105557990D01*
X82661027Y-105557990D02*
X82737217Y-105634180D01*
X82737217Y-105634180D02*
X82775312Y-105710371D01*
X82775312Y-105710371D02*
X82813408Y-105862752D01*
X82813408Y-105862752D02*
X82813408Y-105977038D01*
X82813408Y-105977038D02*
X82775312Y-106129419D01*
X82775312Y-106129419D02*
X82737217Y-106205609D01*
X82737217Y-106205609D02*
X82661027Y-106281800D01*
X82661027Y-106281800D02*
X82546741Y-106319895D01*
X82546741Y-106319895D02*
X82356265Y-106319895D01*
X83080074Y-105519895D02*
X83613408Y-105519895D01*
X83613408Y-105519895D02*
X83270550Y-106319895D01*
G36*
X193334399Y-121473991D02*
G01*
X193393358Y-121430803D01*
X193450567Y-121388529D01*
X193506025Y-121347167D01*
X193536078Y-121324583D01*
X193594592Y-121280399D01*
X193656488Y-121233424D01*
X193711523Y-121191373D01*
X193766018Y-121149344D01*
X193789905Y-121130742D01*
X193829016Y-121193190D01*
X193870025Y-121256897D01*
X193910217Y-121318238D01*
X193955065Y-121385796D01*
X193995993Y-121446843D01*
X194036984Y-121507570D01*
X194082072Y-121573903D01*
X194122686Y-121633100D01*
X194164415Y-121693145D01*
X194204649Y-121749876D01*
X194153833Y-121801226D01*
X194104995Y-121849156D01*
X194072886Y-121879565D01*
X194021446Y-121926161D01*
X193969802Y-121971138D01*
X193941365Y-121995371D01*
X193885084Y-122042479D01*
X193828571Y-122087706D01*
X193800061Y-122109559D01*
X193740521Y-122152325D01*
X193679568Y-122191957D01*
X193617201Y-122228455D01*
X193581942Y-122247377D01*
X193518779Y-122277709D01*
X193449597Y-122304621D01*
X193381467Y-122324384D01*
X193361233Y-122328919D01*
X193287847Y-122338691D01*
X193216003Y-122337485D01*
X193152029Y-122326863D01*
X193083084Y-122305242D01*
X193015586Y-122273727D01*
X192955482Y-122236490D01*
X192898484Y-122192313D01*
X192846163Y-122142688D01*
X192798517Y-122087617D01*
X192789549Y-122075949D01*
X192749030Y-122016505D01*
X192715135Y-121954507D01*
X192687866Y-121889955D01*
X192667222Y-121822849D01*
X192653204Y-121753189D01*
X192650003Y-121729401D01*
X192645294Y-121657668D01*
X192648319Y-121586249D01*
X192659076Y-121515143D01*
X192677566Y-121444353D01*
X192703789Y-121373876D01*
X192714248Y-121350454D01*
X192751955Y-121280715D01*
X192791079Y-121223328D01*
X192837203Y-121166603D01*
X192890327Y-121110540D01*
X192950453Y-121055139D01*
X193003593Y-121011295D01*
X193031844Y-120989532D01*
X193096657Y-120941655D01*
X193153311Y-120901238D01*
X193212369Y-120860347D01*
X193273829Y-120818984D01*
X193337693Y-120777147D01*
X193403961Y-120734838D01*
X193417502Y-120726319D01*
X193460424Y-120782272D01*
X193506361Y-120840215D01*
X193555313Y-120900147D01*
X193599672Y-120953100D01*
X193638330Y-120998345D01*
X193570754Y-121018709D01*
X193524681Y-121033891D01*
X193458456Y-121060724D01*
X193429645Y-121074251D01*
X193367046Y-121106236D01*
X193332515Y-121126036D01*
X193272899Y-121164537D01*
X193256035Y-121176817D01*
X193201226Y-121222570D01*
X193152827Y-121272398D01*
X193114389Y-121321232D01*
X193077315Y-121383148D01*
X193051576Y-121447961D01*
X193040714Y-121492780D01*
X193034253Y-121566328D01*
X193041537Y-121639551D01*
X193049536Y-121673237D01*
X193073240Y-121738624D01*
X193106091Y-121800490D01*
X193133074Y-121839777D01*
X193180001Y-121893103D01*
X193236432Y-121938098D01*
X193269227Y-121956822D01*
X193339234Y-121979299D01*
X193409027Y-121981009D01*
X193437097Y-121976752D01*
X193504099Y-121956789D01*
X193568630Y-121924598D01*
X193610278Y-121896345D01*
X193665915Y-121849897D01*
X193717174Y-121799068D01*
X193747032Y-121765892D01*
X193636966Y-121602215D01*
X193581601Y-121643935D01*
X193577706Y-121646870D01*
X193496944Y-121709014D01*
X193427706Y-121605768D01*
X193395113Y-121557970D01*
X193355175Y-121501832D01*
X193334399Y-121473991D01*
G37*
G36*
X194041330Y-121023485D02*
G01*
X194009315Y-120958892D01*
X193981840Y-120906471D01*
X193948504Y-120846486D01*
X193927043Y-120808185D01*
X193972110Y-120754958D01*
X194027443Y-120692790D01*
X194081666Y-120635474D01*
X194134777Y-120583008D01*
X194186778Y-120535393D01*
X194247712Y-120484660D01*
X194267668Y-120469301D01*
X194324347Y-120429726D01*
X194386725Y-120393414D01*
X194449137Y-120364665D01*
X194515064Y-120344287D01*
X194586866Y-120338369D01*
X194615953Y-120341718D01*
X194680411Y-120367054D01*
X194735842Y-120414899D01*
X194756028Y-120439537D01*
X194797661Y-120499353D01*
X194838538Y-120561359D01*
X194877967Y-120622330D01*
X194890460Y-120641798D01*
X194931343Y-120704621D01*
X194969482Y-120761794D01*
X195011321Y-120823350D01*
X195056860Y-120889289D01*
X195106098Y-120959611D01*
X195148153Y-121019024D01*
X195170068Y-121049782D01*
X195112941Y-121091265D01*
X195056468Y-121132978D01*
X195019183Y-121160914D01*
X194963813Y-121202999D01*
X194906257Y-121247454D01*
X194866670Y-121278409D01*
X194826229Y-121211872D01*
X194787546Y-121151510D01*
X194748148Y-121091428D01*
X194702238Y-121022455D01*
X194660822Y-120960875D01*
X194627025Y-120910956D01*
X194595551Y-120964644D01*
X194554829Y-121020467D01*
X194550827Y-121025748D01*
X194509424Y-121082317D01*
X194501128Y-121094454D01*
X194475599Y-121145803D01*
X194470571Y-121190267D01*
X194485490Y-121224837D01*
X194538347Y-121251799D01*
X194603716Y-121229273D01*
X194617604Y-121219477D01*
X194649955Y-121190817D01*
X194689636Y-121137794D01*
X194711335Y-121203930D01*
X194736588Y-121272221D01*
X194764889Y-121343925D01*
X194768360Y-121352491D01*
X194720896Y-121406990D01*
X194667463Y-121455683D01*
X194656457Y-121464218D01*
X194598081Y-121504193D01*
X194536619Y-121536821D01*
X194478039Y-121557563D01*
X194406262Y-121566015D01*
X194336375Y-121553703D01*
X194316754Y-121546371D01*
X194254706Y-121512581D01*
X194202727Y-121465450D01*
X194194131Y-121454668D01*
X194160430Y-121393993D01*
X194154012Y-121375292D01*
X194143129Y-121307492D01*
X194143192Y-121278547D01*
X194153248Y-121209989D01*
X194164089Y-121175028D01*
X194193997Y-121112904D01*
X194229747Y-121057046D01*
X194273832Y-120998024D01*
X194320131Y-120942295D01*
X194358983Y-120898434D01*
X194404203Y-120846241D01*
X194419823Y-120826899D01*
X194456295Y-120775867D01*
X194467298Y-120742742D01*
X194465522Y-120713681D01*
X194453294Y-120689499D01*
X194398055Y-120667330D01*
X194332648Y-120695137D01*
X194315260Y-120707457D01*
X194256975Y-120756622D01*
X194206287Y-120807663D01*
X194154925Y-120866918D01*
X194111609Y-120922573D01*
X194067825Y-120983932D01*
X194041330Y-121023485D01*
G37*
G36*
X195339927Y-120921784D02*
G01*
X195081634Y-120534131D01*
X194874901Y-120234787D01*
X194782496Y-120108752D01*
X194838889Y-120067719D01*
X194894776Y-120026508D01*
X194932835Y-119998032D01*
X194991243Y-119953595D01*
X195047981Y-119909567D01*
X195073605Y-119889385D01*
X195147232Y-119997887D01*
X195151023Y-119928158D01*
X195151980Y-119920666D01*
X195168526Y-119858532D01*
X195199778Y-119797732D01*
X195244169Y-119742531D01*
X195245879Y-119740729D01*
X195297264Y-119693653D01*
X195307850Y-119685467D01*
X195365826Y-119647560D01*
X195384883Y-119637694D01*
X195450291Y-119612565D01*
X195454238Y-119611549D01*
X195513033Y-119603209D01*
X195566595Y-119609516D01*
X195631166Y-119632731D01*
X195633739Y-119633846D01*
X195635924Y-119564444D01*
X195648835Y-119505584D01*
X195678147Y-119443759D01*
X195706597Y-119403828D01*
X195754211Y-119352716D01*
X195796400Y-119317318D01*
X195856089Y-119278158D01*
X195918548Y-119248547D01*
X195936903Y-119241841D01*
X196005940Y-119227605D01*
X196074932Y-119232784D01*
X196084127Y-119234941D01*
X196149258Y-119264685D01*
X196203483Y-119315048D01*
X196214277Y-119328679D01*
X196253621Y-119384695D01*
X196289551Y-119439366D01*
X196327230Y-119496537D01*
X196367716Y-119557118D01*
X196410684Y-119620950D01*
X196453116Y-119683705D01*
X196460691Y-119694886D01*
X196504093Y-119758721D01*
X196548464Y-119823418D01*
X196590915Y-119884466D01*
X196631588Y-119941438D01*
X196634899Y-119945953D01*
X196577398Y-119987620D01*
X196521837Y-120028673D01*
X196496848Y-120047413D01*
X196440673Y-120090047D01*
X196382918Y-120134479D01*
X196329043Y-120176432D01*
X196289117Y-120114410D01*
X196248753Y-120052659D01*
X196209671Y-119993517D01*
X196167076Y-119929605D01*
X196160705Y-119920085D01*
X196118630Y-119857608D01*
X196077566Y-119797522D01*
X196036770Y-119739388D01*
X196015176Y-119709917D01*
X195967430Y-119658884D01*
X195950614Y-119648104D01*
X195896771Y-119638583D01*
X195851067Y-119659751D01*
X195817097Y-119698194D01*
X195805863Y-119750331D01*
X195817137Y-119818151D01*
X195822743Y-119835231D01*
X195853297Y-119898067D01*
X195875561Y-119935436D01*
X195915077Y-119996264D01*
X195956839Y-120057466D01*
X195992006Y-120107578D01*
X196140887Y-120318218D01*
X196080751Y-120361968D01*
X196025494Y-120402764D01*
X195991367Y-120428320D01*
X195932800Y-120472878D01*
X195877366Y-120515671D01*
X195833666Y-120549725D01*
X195795013Y-120488062D01*
X195756881Y-120429158D01*
X195716594Y-120367907D01*
X195676919Y-120308192D01*
X195637296Y-120249046D01*
X195597395Y-120190152D01*
X195556102Y-120130431D01*
X195523428Y-120085185D01*
X195476363Y-120034518D01*
X195464755Y-120026641D01*
X195412539Y-120010757D01*
X195358694Y-120030780D01*
X195319226Y-120087495D01*
X195317086Y-120157338D01*
X195318514Y-120165528D01*
X195341542Y-120230519D01*
X195363069Y-120270676D01*
X195400178Y-120330627D01*
X195439601Y-120390665D01*
X195477948Y-120447413D01*
X195483167Y-120455051D01*
X195525218Y-120515792D01*
X195566839Y-120575037D01*
X195608028Y-120632787D01*
X195648787Y-120689042D01*
X195588413Y-120733074D01*
X195532378Y-120774396D01*
X195497082Y-120800790D01*
X195440318Y-120843989D01*
X195384719Y-120886907D01*
X195339927Y-120921784D01*
G37*
G36*
X196986282Y-118562825D02*
G01*
X197058412Y-118575802D01*
X197123188Y-118600962D01*
X197150604Y-118616684D01*
X197205690Y-118658148D01*
X197255537Y-118708788D01*
X197276776Y-118735256D01*
X197314681Y-118792968D01*
X197339520Y-118839542D01*
X196801886Y-119245963D01*
X196818558Y-119269793D01*
X196870946Y-119322055D01*
X196935513Y-119350090D01*
X196973646Y-119352874D01*
X197045929Y-119339710D01*
X197111268Y-119309911D01*
X197148770Y-119284704D01*
X197204114Y-119237683D01*
X197255231Y-119185641D01*
X197303647Y-119129611D01*
X197349246Y-119072087D01*
X197385076Y-119024429D01*
X197415715Y-119088451D01*
X197446760Y-119150273D01*
X197481544Y-119218382D01*
X197504613Y-119263174D01*
X197456393Y-119319545D01*
X197408560Y-119371445D01*
X197375953Y-119403799D01*
X197322597Y-119451995D01*
X197266170Y-119497614D01*
X197258415Y-119503502D01*
X197201753Y-119544276D01*
X197140617Y-119583787D01*
X197080728Y-119617704D01*
X197016949Y-119646658D01*
X196949827Y-119666756D01*
X196914533Y-119672723D01*
X196845745Y-119675681D01*
X196774716Y-119666467D01*
X196760843Y-119663087D01*
X196692727Y-119637963D01*
X196630913Y-119601983D01*
X196617888Y-119592699D01*
X196564598Y-119548099D01*
X196516825Y-119497505D01*
X196496636Y-119472132D01*
X196458430Y-119415004D01*
X196426923Y-119353911D01*
X196402114Y-119288855D01*
X196391226Y-119250999D01*
X196377856Y-119183547D01*
X196372882Y-119113071D01*
X196379425Y-119040981D01*
X196381967Y-119028485D01*
X196385460Y-119016930D01*
X196681960Y-119016930D01*
X196690958Y-119064097D01*
X196715085Y-119118274D01*
X196968508Y-118927306D01*
X196953070Y-118905115D01*
X196902314Y-118857264D01*
X196889482Y-118850275D01*
X196820788Y-118840355D01*
X196818542Y-118840794D01*
X196755764Y-118868578D01*
X196749543Y-118873093D01*
X196710107Y-118913942D01*
X196686969Y-118963918D01*
X196681960Y-119016930D01*
X196385460Y-119016930D01*
X196402081Y-118961940D01*
X196432079Y-118899380D01*
X196467927Y-118845967D01*
X196514306Y-118791273D01*
X196565593Y-118741077D01*
X196616475Y-118699347D01*
X196677418Y-118657168D01*
X196740087Y-118621174D01*
X196798559Y-118593821D01*
X196863465Y-118572258D01*
X196933822Y-118561768D01*
X196986282Y-118562825D01*
G37*
G36*
X198000774Y-117819331D02*
G01*
X198068442Y-117835186D01*
X198133451Y-117861342D01*
X198190242Y-117894059D01*
X198248687Y-117937975D01*
X198301781Y-117988756D01*
X198345406Y-118040878D01*
X198383937Y-118097717D01*
X198418660Y-118163039D01*
X198439697Y-118214302D01*
X198460033Y-118284354D01*
X198470254Y-118355526D01*
X198471448Y-118403596D01*
X198464624Y-118472842D01*
X198445278Y-118541374D01*
X198429712Y-118575482D01*
X198391301Y-118633811D01*
X198340913Y-118686186D01*
X198313617Y-118708350D01*
X198255162Y-118746427D01*
X198229958Y-118759832D01*
X198166877Y-118787203D01*
X198137855Y-118796697D01*
X198069839Y-118812184D01*
X198056307Y-118814047D01*
X197985685Y-118818083D01*
X197965360Y-118818357D01*
X198121934Y-119043751D01*
X198166951Y-119107696D01*
X198207146Y-119164211D01*
X198247181Y-119219700D01*
X198288370Y-119275414D01*
X198229547Y-119318521D01*
X198172427Y-119360812D01*
X198134413Y-119389288D01*
X198076881Y-119433051D01*
X198018680Y-119477806D01*
X197975687Y-119511038D01*
X197936076Y-119447326D01*
X197896163Y-119383933D01*
X197855948Y-119320857D01*
X197815430Y-119258100D01*
X197774611Y-119195661D01*
X197760937Y-119174919D01*
X197715194Y-119105347D01*
X197671159Y-119038769D01*
X197628832Y-118975186D01*
X197588213Y-118914598D01*
X197549302Y-118857004D01*
X197503065Y-118789223D01*
X197459496Y-118726120D01*
X197442816Y-118702190D01*
X197401490Y-118643420D01*
X197359975Y-118585065D01*
X197318271Y-118527125D01*
X197276377Y-118469599D01*
X197234294Y-118412488D01*
X197192021Y-118355791D01*
X197175059Y-118333228D01*
X197190496Y-118318102D01*
X197632063Y-118318102D01*
X197663452Y-118377939D01*
X197700584Y-118436874D01*
X197739587Y-118493173D01*
X197740585Y-118494502D01*
X197786692Y-118545603D01*
X197835292Y-118579841D01*
X197901720Y-118600598D01*
X197937033Y-118601221D01*
X198005312Y-118581707D01*
X198028800Y-118566750D01*
X198075229Y-118514764D01*
X198088798Y-118485574D01*
X198098998Y-118415378D01*
X198093401Y-118374637D01*
X198068555Y-118306749D01*
X198036369Y-118255772D01*
X197985355Y-118202983D01*
X197922896Y-118169502D01*
X197898699Y-118163418D01*
X197828843Y-118165424D01*
X197762700Y-118193639D01*
X197736933Y-118211247D01*
X197684636Y-118257613D01*
X197638650Y-118309769D01*
X197632063Y-118318102D01*
X197190496Y-118318102D01*
X197225650Y-118283656D01*
X197279567Y-118231570D01*
X197334457Y-118179624D01*
X197387626Y-118130851D01*
X197398208Y-118121402D01*
X197450659Y-118076006D01*
X197504102Y-118032038D01*
X197558537Y-117989496D01*
X197569543Y-117981159D01*
X197631719Y-117937151D01*
X197693821Y-117898889D01*
X197755849Y-117866371D01*
X197790278Y-117850788D01*
X197858275Y-117827421D01*
X197930744Y-117815930D01*
X198000774Y-117819331D01*
G37*
G36*
X198400866Y-117738340D02*
G01*
X198368851Y-117673746D01*
X198341376Y-117621326D01*
X198308040Y-117561340D01*
X198286579Y-117523040D01*
X198331646Y-117469813D01*
X198386979Y-117407645D01*
X198441201Y-117350328D01*
X198494313Y-117297862D01*
X198546313Y-117250248D01*
X198607247Y-117199514D01*
X198627203Y-117184155D01*
X198683882Y-117144580D01*
X198746261Y-117108268D01*
X198808673Y-117079519D01*
X198874600Y-117059142D01*
X198946402Y-117053223D01*
X198975488Y-117056572D01*
X199039946Y-117081908D01*
X199095378Y-117129754D01*
X199115564Y-117154391D01*
X199157197Y-117214208D01*
X199198074Y-117276214D01*
X199237503Y-117337184D01*
X199249996Y-117356652D01*
X199290879Y-117419475D01*
X199329018Y-117476648D01*
X199370857Y-117538205D01*
X199416395Y-117604144D01*
X199465634Y-117674465D01*
X199507689Y-117733878D01*
X199529604Y-117764636D01*
X199472476Y-117806120D01*
X199416003Y-117847832D01*
X199378718Y-117875768D01*
X199323349Y-117917853D01*
X199265792Y-117962309D01*
X199226206Y-117993263D01*
X199185764Y-117926726D01*
X199147082Y-117866364D01*
X199107684Y-117806282D01*
X199061774Y-117737309D01*
X199020357Y-117675730D01*
X198986560Y-117625811D01*
X198955087Y-117679498D01*
X198914365Y-117735322D01*
X198910363Y-117740602D01*
X198868959Y-117797171D01*
X198860664Y-117809308D01*
X198835135Y-117860657D01*
X198830107Y-117905121D01*
X198845025Y-117939692D01*
X198897882Y-117966653D01*
X198963251Y-117944127D01*
X198977139Y-117934331D01*
X199009490Y-117905671D01*
X199049172Y-117852649D01*
X199070871Y-117918784D01*
X199096124Y-117987075D01*
X199124425Y-118058779D01*
X199127895Y-118067346D01*
X199080432Y-118121844D01*
X199026999Y-118170537D01*
X199015992Y-118179072D01*
X198957617Y-118219048D01*
X198896154Y-118251675D01*
X198837574Y-118272417D01*
X198765797Y-118280870D01*
X198695910Y-118268557D01*
X198676290Y-118261226D01*
X198614242Y-118227436D01*
X198562262Y-118180305D01*
X198553667Y-118169522D01*
X198519966Y-118108847D01*
X198513548Y-118090146D01*
X198502664Y-118022346D01*
X198502728Y-117993401D01*
X198512784Y-117924843D01*
X198523625Y-117889883D01*
X198553532Y-117827758D01*
X198589283Y-117771901D01*
X198633368Y-117712878D01*
X198679667Y-117657150D01*
X198718518Y-117613289D01*
X198763738Y-117561095D01*
X198779358Y-117541753D01*
X198815830Y-117490721D01*
X198826834Y-117457596D01*
X198825058Y-117428535D01*
X198812830Y-117404354D01*
X198757590Y-117382185D01*
X198692184Y-117409991D01*
X198674795Y-117422311D01*
X198616511Y-117471477D01*
X198565823Y-117522517D01*
X198514461Y-117581773D01*
X198471145Y-117637427D01*
X198427361Y-117698786D01*
X198400866Y-117738340D01*
G37*
G36*
X199866589Y-115958530D02*
G01*
X199907805Y-116024342D01*
X199951559Y-116093165D01*
X199997850Y-116165000D01*
X200046678Y-116239846D01*
X200084964Y-116297958D01*
X200124678Y-116357764D01*
X200165818Y-116419264D01*
X200208386Y-116482458D01*
X200250716Y-116544928D01*
X200291145Y-116604255D01*
X200342092Y-116678469D01*
X200389658Y-116747095D01*
X200433843Y-116810134D01*
X200474647Y-116867586D01*
X200520898Y-116931543D01*
X200561867Y-116986771D01*
X200503344Y-117029305D01*
X200445311Y-117072123D01*
X200423816Y-117088230D01*
X200365458Y-117132698D01*
X200307741Y-117177395D01*
X200276219Y-117202021D01*
X200205751Y-117098847D01*
X200193275Y-117167092D01*
X200188919Y-117185601D01*
X200164587Y-117249986D01*
X200157979Y-117263292D01*
X200120167Y-117323530D01*
X200102157Y-117346032D01*
X200051982Y-117396977D01*
X200026135Y-117417875D01*
X199964476Y-117457414D01*
X199899316Y-117485741D01*
X199868060Y-117495034D01*
X199799823Y-117506497D01*
X199726988Y-117505234D01*
X199701139Y-117501363D01*
X199630634Y-117481192D01*
X199568302Y-117450266D01*
X199545132Y-117435244D01*
X199488734Y-117390198D01*
X199438414Y-117338028D01*
X199417239Y-117311546D01*
X199376880Y-117251291D01*
X199343544Y-117186963D01*
X199317232Y-117118562D01*
X199305648Y-117078801D01*
X199291122Y-117007814D01*
X199285511Y-116933318D01*
X199290984Y-116863432D01*
X199294160Y-116846671D01*
X199638635Y-116846671D01*
X199640854Y-116918397D01*
X199642734Y-116928402D01*
X199662490Y-116994237D01*
X199694879Y-117055046D01*
X199702749Y-117066000D01*
X199751798Y-117115782D01*
X199776964Y-117132100D01*
X199843159Y-117151017D01*
X199866663Y-117150566D01*
X199934049Y-117129089D01*
X199954599Y-117115557D01*
X200001093Y-117063926D01*
X200014734Y-117035132D01*
X200025726Y-116966009D01*
X200021531Y-116925969D01*
X200002557Y-116860230D01*
X199973372Y-116799561D01*
X199935629Y-116737407D01*
X199896233Y-116678269D01*
X199853072Y-116616622D01*
X199787434Y-116641358D01*
X199763165Y-116656970D01*
X199709740Y-116704507D01*
X199668195Y-116759930D01*
X199657376Y-116780788D01*
X199638635Y-116846671D01*
X199294160Y-116846671D01*
X199294787Y-116843365D01*
X199315566Y-116772704D01*
X199346264Y-116707014D01*
X199382778Y-116651610D01*
X199431138Y-116594205D01*
X199481419Y-116544808D01*
X199537717Y-116498070D01*
X199543678Y-116493542D01*
X199601287Y-116454652D01*
X199664564Y-116419172D01*
X199705953Y-116398661D01*
X199664998Y-116337636D01*
X199620561Y-116273863D01*
X199575477Y-116210706D01*
X199532227Y-116151107D01*
X199516865Y-116130120D01*
X199573184Y-116089035D01*
X199631507Y-116046049D01*
X199672393Y-116015490D01*
X199730617Y-115971254D01*
X199788955Y-115926209D01*
X199827909Y-115895731D01*
X199866589Y-115958530D01*
G37*
X94113095Y-74264895D02*
X93846428Y-73883942D01*
X93655952Y-74264895D02*
X93655952Y-73464895D01*
X93655952Y-73464895D02*
X93960714Y-73464895D01*
X93960714Y-73464895D02*
X94036904Y-73502990D01*
X94036904Y-73502990D02*
X94074999Y-73541085D01*
X94074999Y-73541085D02*
X94113095Y-73617276D01*
X94113095Y-73617276D02*
X94113095Y-73731561D01*
X94113095Y-73731561D02*
X94074999Y-73807752D01*
X94074999Y-73807752D02*
X94036904Y-73845847D01*
X94036904Y-73845847D02*
X93960714Y-73883942D01*
X93960714Y-73883942D02*
X93655952Y-73883942D01*
X94455952Y-73845847D02*
X94722618Y-73845847D01*
X94836904Y-74264895D02*
X94455952Y-74264895D01*
X94455952Y-74264895D02*
X94455952Y-73464895D01*
X94455952Y-73464895D02*
X94836904Y-73464895D01*
X95141666Y-74226800D02*
X95255952Y-74264895D01*
X95255952Y-74264895D02*
X95446428Y-74264895D01*
X95446428Y-74264895D02*
X95522619Y-74226800D01*
X95522619Y-74226800D02*
X95560714Y-74188704D01*
X95560714Y-74188704D02*
X95598809Y-74112514D01*
X95598809Y-74112514D02*
X95598809Y-74036323D01*
X95598809Y-74036323D02*
X95560714Y-73960133D01*
X95560714Y-73960133D02*
X95522619Y-73922038D01*
X95522619Y-73922038D02*
X95446428Y-73883942D01*
X95446428Y-73883942D02*
X95294047Y-73845847D01*
X95294047Y-73845847D02*
X95217857Y-73807752D01*
X95217857Y-73807752D02*
X95179762Y-73769657D01*
X95179762Y-73769657D02*
X95141666Y-73693466D01*
X95141666Y-73693466D02*
X95141666Y-73617276D01*
X95141666Y-73617276D02*
X95179762Y-73541085D01*
X95179762Y-73541085D02*
X95217857Y-73502990D01*
X95217857Y-73502990D02*
X95294047Y-73464895D01*
X95294047Y-73464895D02*
X95484524Y-73464895D01*
X95484524Y-73464895D02*
X95598809Y-73502990D01*
X95941667Y-73845847D02*
X96208333Y-73845847D01*
X96322619Y-74264895D02*
X95941667Y-74264895D01*
X95941667Y-74264895D02*
X95941667Y-73464895D01*
X95941667Y-73464895D02*
X96322619Y-73464895D01*
X96551191Y-73464895D02*
X97008334Y-73464895D01*
X96779762Y-74264895D02*
X96779762Y-73464895D01*
X103114285Y-73845847D02*
X103228571Y-73883942D01*
X103228571Y-73883942D02*
X103266666Y-73922038D01*
X103266666Y-73922038D02*
X103304762Y-73998228D01*
X103304762Y-73998228D02*
X103304762Y-74112514D01*
X103304762Y-74112514D02*
X103266666Y-74188704D01*
X103266666Y-74188704D02*
X103228571Y-74226800D01*
X103228571Y-74226800D02*
X103152381Y-74264895D01*
X103152381Y-74264895D02*
X102847619Y-74264895D01*
X102847619Y-74264895D02*
X102847619Y-73464895D01*
X102847619Y-73464895D02*
X103114285Y-73464895D01*
X103114285Y-73464895D02*
X103190476Y-73502990D01*
X103190476Y-73502990D02*
X103228571Y-73541085D01*
X103228571Y-73541085D02*
X103266666Y-73617276D01*
X103266666Y-73617276D02*
X103266666Y-73693466D01*
X103266666Y-73693466D02*
X103228571Y-73769657D01*
X103228571Y-73769657D02*
X103190476Y-73807752D01*
X103190476Y-73807752D02*
X103114285Y-73845847D01*
X103114285Y-73845847D02*
X102847619Y-73845847D01*
X103800000Y-73464895D02*
X103952381Y-73464895D01*
X103952381Y-73464895D02*
X104028571Y-73502990D01*
X104028571Y-73502990D02*
X104104762Y-73579180D01*
X104104762Y-73579180D02*
X104142857Y-73731561D01*
X104142857Y-73731561D02*
X104142857Y-73998228D01*
X104142857Y-73998228D02*
X104104762Y-74150609D01*
X104104762Y-74150609D02*
X104028571Y-74226800D01*
X104028571Y-74226800D02*
X103952381Y-74264895D01*
X103952381Y-74264895D02*
X103800000Y-74264895D01*
X103800000Y-74264895D02*
X103723809Y-74226800D01*
X103723809Y-74226800D02*
X103647619Y-74150609D01*
X103647619Y-74150609D02*
X103609523Y-73998228D01*
X103609523Y-73998228D02*
X103609523Y-73731561D01*
X103609523Y-73731561D02*
X103647619Y-73579180D01*
X103647619Y-73579180D02*
X103723809Y-73502990D01*
X103723809Y-73502990D02*
X103800000Y-73464895D01*
X104638095Y-73464895D02*
X104790476Y-73464895D01*
X104790476Y-73464895D02*
X104866666Y-73502990D01*
X104866666Y-73502990D02*
X104942857Y-73579180D01*
X104942857Y-73579180D02*
X104980952Y-73731561D01*
X104980952Y-73731561D02*
X104980952Y-73998228D01*
X104980952Y-73998228D02*
X104942857Y-74150609D01*
X104942857Y-74150609D02*
X104866666Y-74226800D01*
X104866666Y-74226800D02*
X104790476Y-74264895D01*
X104790476Y-74264895D02*
X104638095Y-74264895D01*
X104638095Y-74264895D02*
X104561904Y-74226800D01*
X104561904Y-74226800D02*
X104485714Y-74150609D01*
X104485714Y-74150609D02*
X104447618Y-73998228D01*
X104447618Y-73998228D02*
X104447618Y-73731561D01*
X104447618Y-73731561D02*
X104485714Y-73579180D01*
X104485714Y-73579180D02*
X104561904Y-73502990D01*
X104561904Y-73502990D02*
X104638095Y-73464895D01*
X105209523Y-73464895D02*
X105666666Y-73464895D01*
X105438094Y-74264895D02*
X105438094Y-73464895D01*
D10*
X131764285Y-73322814D02*
X132264285Y-73322814D01*
X132478571Y-74108528D02*
X131764285Y-74108528D01*
X131764285Y-74108528D02*
X131764285Y-72608528D01*
X131764285Y-72608528D02*
X132478571Y-72608528D01*
X133050000Y-74037100D02*
X133264286Y-74108528D01*
X133264286Y-74108528D02*
X133621428Y-74108528D01*
X133621428Y-74108528D02*
X133764286Y-74037100D01*
X133764286Y-74037100D02*
X133835714Y-73965671D01*
X133835714Y-73965671D02*
X133907143Y-73822814D01*
X133907143Y-73822814D02*
X133907143Y-73679957D01*
X133907143Y-73679957D02*
X133835714Y-73537100D01*
X133835714Y-73537100D02*
X133764286Y-73465671D01*
X133764286Y-73465671D02*
X133621428Y-73394242D01*
X133621428Y-73394242D02*
X133335714Y-73322814D01*
X133335714Y-73322814D02*
X133192857Y-73251385D01*
X133192857Y-73251385D02*
X133121428Y-73179957D01*
X133121428Y-73179957D02*
X133050000Y-73037100D01*
X133050000Y-73037100D02*
X133050000Y-72894242D01*
X133050000Y-72894242D02*
X133121428Y-72751385D01*
X133121428Y-72751385D02*
X133192857Y-72679957D01*
X133192857Y-72679957D02*
X133335714Y-72608528D01*
X133335714Y-72608528D02*
X133692857Y-72608528D01*
X133692857Y-72608528D02*
X133907143Y-72679957D01*
X134549999Y-74108528D02*
X134549999Y-72608528D01*
X134549999Y-72608528D02*
X134907142Y-72608528D01*
X134907142Y-72608528D02*
X135121428Y-72679957D01*
X135121428Y-72679957D02*
X135264285Y-72822814D01*
X135264285Y-72822814D02*
X135335714Y-72965671D01*
X135335714Y-72965671D02*
X135407142Y-73251385D01*
X135407142Y-73251385D02*
X135407142Y-73465671D01*
X135407142Y-73465671D02*
X135335714Y-73751385D01*
X135335714Y-73751385D02*
X135264285Y-73894242D01*
X135264285Y-73894242D02*
X135121428Y-74037100D01*
X135121428Y-74037100D02*
X134907142Y-74108528D01*
X134907142Y-74108528D02*
X134549999Y-74108528D01*
X173796428Y-82508528D02*
X174082142Y-82508528D01*
X174082142Y-82508528D02*
X174224999Y-82579957D01*
X174224999Y-82579957D02*
X174367856Y-82722814D01*
X174367856Y-82722814D02*
X174439285Y-83008528D01*
X174439285Y-83008528D02*
X174439285Y-83508528D01*
X174439285Y-83508528D02*
X174367856Y-83794242D01*
X174367856Y-83794242D02*
X174224999Y-83937100D01*
X174224999Y-83937100D02*
X174082142Y-84008528D01*
X174082142Y-84008528D02*
X173796428Y-84008528D01*
X173796428Y-84008528D02*
X173653571Y-83937100D01*
X173653571Y-83937100D02*
X173510713Y-83794242D01*
X173510713Y-83794242D02*
X173439285Y-83508528D01*
X173439285Y-83508528D02*
X173439285Y-83008528D01*
X173439285Y-83008528D02*
X173510713Y-82722814D01*
X173510713Y-82722814D02*
X173653571Y-82579957D01*
X173653571Y-82579957D02*
X173796428Y-82508528D01*
X175082142Y-84008528D02*
X175082142Y-82508528D01*
X175082142Y-82508528D02*
X175939285Y-84008528D01*
X175939285Y-84008528D02*
X175939285Y-82508528D01*
D11*
X82356265Y-101239895D02*
X82356265Y-100439895D01*
X82356265Y-100439895D02*
X82546741Y-100439895D01*
X82546741Y-100439895D02*
X82661027Y-100477990D01*
X82661027Y-100477990D02*
X82737217Y-100554180D01*
X82737217Y-100554180D02*
X82775312Y-100630371D01*
X82775312Y-100630371D02*
X82813408Y-100782752D01*
X82813408Y-100782752D02*
X82813408Y-100897038D01*
X82813408Y-100897038D02*
X82775312Y-101049419D01*
X82775312Y-101049419D02*
X82737217Y-101125609D01*
X82737217Y-101125609D02*
X82661027Y-101201800D01*
X82661027Y-101201800D02*
X82546741Y-101239895D01*
X82546741Y-101239895D02*
X82356265Y-101239895D01*
X83537217Y-100439895D02*
X83156265Y-100439895D01*
X83156265Y-100439895D02*
X83118169Y-100820847D01*
X83118169Y-100820847D02*
X83156265Y-100782752D01*
X83156265Y-100782752D02*
X83232455Y-100744657D01*
X83232455Y-100744657D02*
X83422931Y-100744657D01*
X83422931Y-100744657D02*
X83499122Y-100782752D01*
X83499122Y-100782752D02*
X83537217Y-100820847D01*
X83537217Y-100820847D02*
X83575312Y-100897038D01*
X83575312Y-100897038D02*
X83575312Y-101087514D01*
X83575312Y-101087514D02*
X83537217Y-101163704D01*
X83537217Y-101163704D02*
X83499122Y-101201800D01*
X83499122Y-101201800D02*
X83422931Y-101239895D01*
X83422931Y-101239895D02*
X83232455Y-101239895D01*
X83232455Y-101239895D02*
X83156265Y-101201800D01*
X83156265Y-101201800D02*
X83118169Y-101163704D01*
D10*
X101403466Y-120419274D02*
X101403466Y-121490703D01*
X101403466Y-121490703D02*
X101332037Y-121704988D01*
X101332037Y-121704988D02*
X101189180Y-121847846D01*
X101189180Y-121847846D02*
X100974894Y-121919274D01*
X100974894Y-121919274D02*
X100832037Y-121919274D01*
X102332037Y-121919274D02*
X102189180Y-121847846D01*
X102189180Y-121847846D02*
X102117751Y-121776417D01*
X102117751Y-121776417D02*
X102046323Y-121633560D01*
X102046323Y-121633560D02*
X102046323Y-121204988D01*
X102046323Y-121204988D02*
X102117751Y-121062131D01*
X102117751Y-121062131D02*
X102189180Y-120990703D01*
X102189180Y-120990703D02*
X102332037Y-120919274D01*
X102332037Y-120919274D02*
X102546323Y-120919274D01*
X102546323Y-120919274D02*
X102689180Y-120990703D01*
X102689180Y-120990703D02*
X102760609Y-121062131D01*
X102760609Y-121062131D02*
X102832037Y-121204988D01*
X102832037Y-121204988D02*
X102832037Y-121633560D01*
X102832037Y-121633560D02*
X102760609Y-121776417D01*
X102760609Y-121776417D02*
X102689180Y-121847846D01*
X102689180Y-121847846D02*
X102546323Y-121919274D01*
X102546323Y-121919274D02*
X102332037Y-121919274D01*
X103332037Y-120919274D02*
X103689180Y-121919274D01*
X104046323Y-120919274D02*
X103689180Y-121919274D01*
X103689180Y-121919274D02*
X103546323Y-122276417D01*
X103546323Y-122276417D02*
X103474894Y-122347846D01*
X103474894Y-122347846D02*
X103332037Y-122419274D01*
X104546323Y-121847846D02*
X104689180Y-121919274D01*
X104689180Y-121919274D02*
X104974894Y-121919274D01*
X104974894Y-121919274D02*
X105117751Y-121847846D01*
X105117751Y-121847846D02*
X105189180Y-121704988D01*
X105189180Y-121704988D02*
X105189180Y-121633560D01*
X105189180Y-121633560D02*
X105117751Y-121490703D01*
X105117751Y-121490703D02*
X104974894Y-121419274D01*
X104974894Y-121419274D02*
X104760609Y-121419274D01*
X104760609Y-121419274D02*
X104617751Y-121347846D01*
X104617751Y-121347846D02*
X104546323Y-121204988D01*
X104546323Y-121204988D02*
X104546323Y-121133560D01*
X104546323Y-121133560D02*
X104617751Y-120990703D01*
X104617751Y-120990703D02*
X104760609Y-120919274D01*
X104760609Y-120919274D02*
X104974894Y-120919274D01*
X104974894Y-120919274D02*
X105117751Y-120990703D01*
X105617752Y-120919274D02*
X106189180Y-120919274D01*
X105832037Y-120419274D02*
X105832037Y-121704988D01*
X105832037Y-121704988D02*
X105903466Y-121847846D01*
X105903466Y-121847846D02*
X106046323Y-121919274D01*
X106046323Y-121919274D02*
X106189180Y-121919274D01*
X106689180Y-121919274D02*
X106689180Y-120919274D01*
X106689180Y-120419274D02*
X106617752Y-120490703D01*
X106617752Y-120490703D02*
X106689180Y-120562131D01*
X106689180Y-120562131D02*
X106760609Y-120490703D01*
X106760609Y-120490703D02*
X106689180Y-120419274D01*
X106689180Y-120419274D02*
X106689180Y-120562131D01*
X108046324Y-121847846D02*
X107903466Y-121919274D01*
X107903466Y-121919274D02*
X107617752Y-121919274D01*
X107617752Y-121919274D02*
X107474895Y-121847846D01*
X107474895Y-121847846D02*
X107403466Y-121776417D01*
X107403466Y-121776417D02*
X107332038Y-121633560D01*
X107332038Y-121633560D02*
X107332038Y-121204988D01*
X107332038Y-121204988D02*
X107403466Y-121062131D01*
X107403466Y-121062131D02*
X107474895Y-120990703D01*
X107474895Y-120990703D02*
X107617752Y-120919274D01*
X107617752Y-120919274D02*
X107903466Y-120919274D01*
X107903466Y-120919274D02*
X108046324Y-120990703D01*
X108689180Y-121919274D02*
X108689180Y-120419274D01*
X108832038Y-121347846D02*
X109260609Y-121919274D01*
X109260609Y-120919274D02*
X108689180Y-121490703D01*
D11*
X82356265Y-88539895D02*
X82356265Y-87739895D01*
X82356265Y-87739895D02*
X82546741Y-87739895D01*
X82546741Y-87739895D02*
X82661027Y-87777990D01*
X82661027Y-87777990D02*
X82737217Y-87854180D01*
X82737217Y-87854180D02*
X82775312Y-87930371D01*
X82775312Y-87930371D02*
X82813408Y-88082752D01*
X82813408Y-88082752D02*
X82813408Y-88197038D01*
X82813408Y-88197038D02*
X82775312Y-88349419D01*
X82775312Y-88349419D02*
X82737217Y-88425609D01*
X82737217Y-88425609D02*
X82661027Y-88501800D01*
X82661027Y-88501800D02*
X82546741Y-88539895D01*
X82546741Y-88539895D02*
X82356265Y-88539895D01*
X83308646Y-87739895D02*
X83384836Y-87739895D01*
X83384836Y-87739895D02*
X83461027Y-87777990D01*
X83461027Y-87777990D02*
X83499122Y-87816085D01*
X83499122Y-87816085D02*
X83537217Y-87892276D01*
X83537217Y-87892276D02*
X83575312Y-88044657D01*
X83575312Y-88044657D02*
X83575312Y-88235133D01*
X83575312Y-88235133D02*
X83537217Y-88387514D01*
X83537217Y-88387514D02*
X83499122Y-88463704D01*
X83499122Y-88463704D02*
X83461027Y-88501800D01*
X83461027Y-88501800D02*
X83384836Y-88539895D01*
X83384836Y-88539895D02*
X83308646Y-88539895D01*
X83308646Y-88539895D02*
X83232455Y-88501800D01*
X83232455Y-88501800D02*
X83194360Y-88463704D01*
X83194360Y-88463704D02*
X83156265Y-88387514D01*
X83156265Y-88387514D02*
X83118169Y-88235133D01*
X83118169Y-88235133D02*
X83118169Y-88044657D01*
X83118169Y-88044657D02*
X83156265Y-87892276D01*
X83156265Y-87892276D02*
X83194360Y-87816085D01*
X83194360Y-87816085D02*
X83232455Y-87777990D01*
X83232455Y-87777990D02*
X83308646Y-87739895D01*
D10*
X155071429Y-82508528D02*
X155357143Y-82508528D01*
X155357143Y-82508528D02*
X155500000Y-82579957D01*
X155500000Y-82579957D02*
X155642857Y-82722814D01*
X155642857Y-82722814D02*
X155714286Y-83008528D01*
X155714286Y-83008528D02*
X155714286Y-83508528D01*
X155714286Y-83508528D02*
X155642857Y-83794242D01*
X155642857Y-83794242D02*
X155500000Y-83937100D01*
X155500000Y-83937100D02*
X155357143Y-84008528D01*
X155357143Y-84008528D02*
X155071429Y-84008528D01*
X155071429Y-84008528D02*
X154928572Y-83937100D01*
X154928572Y-83937100D02*
X154785714Y-83794242D01*
X154785714Y-83794242D02*
X154714286Y-83508528D01*
X154714286Y-83508528D02*
X154714286Y-83008528D01*
X154714286Y-83008528D02*
X154785714Y-82722814D01*
X154785714Y-82722814D02*
X154928572Y-82579957D01*
X154928572Y-82579957D02*
X155071429Y-82508528D01*
X156857143Y-83222814D02*
X156357143Y-83222814D01*
X156357143Y-84008528D02*
X156357143Y-82508528D01*
X156357143Y-82508528D02*
X157071429Y-82508528D01*
X158142857Y-83222814D02*
X157642857Y-83222814D01*
X157642857Y-84008528D02*
X157642857Y-82508528D01*
X157642857Y-82508528D02*
X158357143Y-82508528D01*
D11*
X82356265Y-98699895D02*
X82356265Y-97899895D01*
X82356265Y-97899895D02*
X82546741Y-97899895D01*
X82546741Y-97899895D02*
X82661027Y-97937990D01*
X82661027Y-97937990D02*
X82737217Y-98014180D01*
X82737217Y-98014180D02*
X82775312Y-98090371D01*
X82775312Y-98090371D02*
X82813408Y-98242752D01*
X82813408Y-98242752D02*
X82813408Y-98357038D01*
X82813408Y-98357038D02*
X82775312Y-98509419D01*
X82775312Y-98509419D02*
X82737217Y-98585609D01*
X82737217Y-98585609D02*
X82661027Y-98661800D01*
X82661027Y-98661800D02*
X82546741Y-98699895D01*
X82546741Y-98699895D02*
X82356265Y-98699895D01*
X83499122Y-98166561D02*
X83499122Y-98699895D01*
X83308646Y-97861800D02*
X83118169Y-98433228D01*
X83118169Y-98433228D02*
X83613408Y-98433228D01*
X210217657Y-88594047D02*
X210170038Y-88546428D01*
X210170038Y-88546428D02*
X210122419Y-88451190D01*
X210122419Y-88451190D02*
X210122419Y-88213095D01*
X210122419Y-88213095D02*
X210170038Y-88117857D01*
X210170038Y-88117857D02*
X210217657Y-88070238D01*
X210217657Y-88070238D02*
X210312895Y-88022619D01*
X210312895Y-88022619D02*
X210408133Y-88022619D01*
X210408133Y-88022619D02*
X210550990Y-88070238D01*
X210550990Y-88070238D02*
X211122419Y-88641666D01*
X211122419Y-88641666D02*
X211122419Y-88022619D01*
X210122419Y-87403571D02*
X210122419Y-87308333D01*
X210122419Y-87308333D02*
X210170038Y-87213095D01*
X210170038Y-87213095D02*
X210217657Y-87165476D01*
X210217657Y-87165476D02*
X210312895Y-87117857D01*
X210312895Y-87117857D02*
X210503371Y-87070238D01*
X210503371Y-87070238D02*
X210741466Y-87070238D01*
X210741466Y-87070238D02*
X210931942Y-87117857D01*
X210931942Y-87117857D02*
X211027180Y-87165476D01*
X211027180Y-87165476D02*
X211074800Y-87213095D01*
X211074800Y-87213095D02*
X211122419Y-87308333D01*
X211122419Y-87308333D02*
X211122419Y-87403571D01*
X211122419Y-87403571D02*
X211074800Y-87498809D01*
X211074800Y-87498809D02*
X211027180Y-87546428D01*
X211027180Y-87546428D02*
X210931942Y-87594047D01*
X210931942Y-87594047D02*
X210741466Y-87641666D01*
X210741466Y-87641666D02*
X210503371Y-87641666D01*
X210503371Y-87641666D02*
X210312895Y-87594047D01*
X210312895Y-87594047D02*
X210217657Y-87546428D01*
X210217657Y-87546428D02*
X210170038Y-87498809D01*
X210170038Y-87498809D02*
X210122419Y-87403571D01*
X210217657Y-86689285D02*
X210170038Y-86641666D01*
X210170038Y-86641666D02*
X210122419Y-86546428D01*
X210122419Y-86546428D02*
X210122419Y-86308333D01*
X210122419Y-86308333D02*
X210170038Y-86213095D01*
X210170038Y-86213095D02*
X210217657Y-86165476D01*
X210217657Y-86165476D02*
X210312895Y-86117857D01*
X210312895Y-86117857D02*
X210408133Y-86117857D01*
X210408133Y-86117857D02*
X210550990Y-86165476D01*
X210550990Y-86165476D02*
X211122419Y-86736904D01*
X211122419Y-86736904D02*
X211122419Y-86117857D01*
X210455752Y-85260714D02*
X211122419Y-85260714D01*
X210074800Y-85498809D02*
X210789085Y-85736904D01*
X210789085Y-85736904D02*
X210789085Y-85117857D01*
X211122419Y-84213095D02*
X211122419Y-84784523D01*
X211122419Y-84498809D02*
X210122419Y-84498809D01*
X210122419Y-84498809D02*
X210265276Y-84594047D01*
X210265276Y-84594047D02*
X210360514Y-84689285D01*
X210360514Y-84689285D02*
X210408133Y-84784523D01*
X210217657Y-83832142D02*
X210170038Y-83784523D01*
X210170038Y-83784523D02*
X210122419Y-83689285D01*
X210122419Y-83689285D02*
X210122419Y-83451190D01*
X210122419Y-83451190D02*
X210170038Y-83355952D01*
X210170038Y-83355952D02*
X210217657Y-83308333D01*
X210217657Y-83308333D02*
X210312895Y-83260714D01*
X210312895Y-83260714D02*
X210408133Y-83260714D01*
X210408133Y-83260714D02*
X210550990Y-83308333D01*
X210550990Y-83308333D02*
X211122419Y-83879761D01*
X211122419Y-83879761D02*
X211122419Y-83260714D01*
X210122419Y-82641666D02*
X210122419Y-82546428D01*
X210122419Y-82546428D02*
X210170038Y-82451190D01*
X210170038Y-82451190D02*
X210217657Y-82403571D01*
X210217657Y-82403571D02*
X210312895Y-82355952D01*
X210312895Y-82355952D02*
X210503371Y-82308333D01*
X210503371Y-82308333D02*
X210741466Y-82308333D01*
X210741466Y-82308333D02*
X210931942Y-82355952D01*
X210931942Y-82355952D02*
X211027180Y-82403571D01*
X211027180Y-82403571D02*
X211074800Y-82451190D01*
X211074800Y-82451190D02*
X211122419Y-82546428D01*
X211122419Y-82546428D02*
X211122419Y-82641666D01*
X211122419Y-82641666D02*
X211074800Y-82736904D01*
X211074800Y-82736904D02*
X211027180Y-82784523D01*
X211027180Y-82784523D02*
X210931942Y-82832142D01*
X210931942Y-82832142D02*
X210741466Y-82879761D01*
X210741466Y-82879761D02*
X210503371Y-82879761D01*
X210503371Y-82879761D02*
X210312895Y-82832142D01*
X210312895Y-82832142D02*
X210217657Y-82784523D01*
X210217657Y-82784523D02*
X210170038Y-82736904D01*
X210170038Y-82736904D02*
X210122419Y-82641666D01*
X210455752Y-81451190D02*
X211122419Y-81451190D01*
X210074800Y-81689285D02*
X210789085Y-81927380D01*
X210789085Y-81927380D02*
X210789085Y-81308333D01*
X82775312Y-85237990D02*
X82699122Y-85199895D01*
X82699122Y-85199895D02*
X82584836Y-85199895D01*
X82584836Y-85199895D02*
X82470550Y-85237990D01*
X82470550Y-85237990D02*
X82394360Y-85314180D01*
X82394360Y-85314180D02*
X82356265Y-85390371D01*
X82356265Y-85390371D02*
X82318169Y-85542752D01*
X82318169Y-85542752D02*
X82318169Y-85657038D01*
X82318169Y-85657038D02*
X82356265Y-85809419D01*
X82356265Y-85809419D02*
X82394360Y-85885609D01*
X82394360Y-85885609D02*
X82470550Y-85961800D01*
X82470550Y-85961800D02*
X82584836Y-85999895D01*
X82584836Y-85999895D02*
X82661027Y-85999895D01*
X82661027Y-85999895D02*
X82775312Y-85961800D01*
X82775312Y-85961800D02*
X82813408Y-85923704D01*
X82813408Y-85923704D02*
X82813408Y-85657038D01*
X82813408Y-85657038D02*
X82661027Y-85657038D01*
X83156265Y-85999895D02*
X83156265Y-85199895D01*
X83156265Y-85199895D02*
X83613408Y-85999895D01*
X83613408Y-85999895D02*
X83613408Y-85199895D01*
X83994360Y-85999895D02*
X83994360Y-85199895D01*
X83994360Y-85199895D02*
X84184836Y-85199895D01*
X84184836Y-85199895D02*
X84299122Y-85237990D01*
X84299122Y-85237990D02*
X84375312Y-85314180D01*
X84375312Y-85314180D02*
X84413407Y-85390371D01*
X84413407Y-85390371D02*
X84451503Y-85542752D01*
X84451503Y-85542752D02*
X84451503Y-85657038D01*
X84451503Y-85657038D02*
X84413407Y-85809419D01*
X84413407Y-85809419D02*
X84375312Y-85885609D01*
X84375312Y-85885609D02*
X84299122Y-85961800D01*
X84299122Y-85961800D02*
X84184836Y-85999895D01*
X84184836Y-85999895D02*
X83994360Y-85999895D01*
D10*
X87308528Y-106571428D02*
X88808528Y-106214285D01*
X88808528Y-106214285D02*
X87737100Y-105928571D01*
X87737100Y-105928571D02*
X88808528Y-105642856D01*
X88808528Y-105642856D02*
X87308528Y-105285714D01*
X88808528Y-104714285D02*
X87808528Y-104714285D01*
X87308528Y-104714285D02*
X87379957Y-104785713D01*
X87379957Y-104785713D02*
X87451385Y-104714285D01*
X87451385Y-104714285D02*
X87379957Y-104642856D01*
X87379957Y-104642856D02*
X87308528Y-104714285D01*
X87308528Y-104714285D02*
X87451385Y-104714285D01*
X88808528Y-103999999D02*
X87808528Y-103999999D01*
X88094242Y-103999999D02*
X87951385Y-103928570D01*
X87951385Y-103928570D02*
X87879957Y-103857142D01*
X87879957Y-103857142D02*
X87808528Y-103714284D01*
X87808528Y-103714284D02*
X87808528Y-103571427D01*
X88737100Y-102499999D02*
X88808528Y-102642856D01*
X88808528Y-102642856D02*
X88808528Y-102928571D01*
X88808528Y-102928571D02*
X88737100Y-103071428D01*
X88737100Y-103071428D02*
X88594242Y-103142856D01*
X88594242Y-103142856D02*
X88022814Y-103142856D01*
X88022814Y-103142856D02*
X87879957Y-103071428D01*
X87879957Y-103071428D02*
X87808528Y-102928571D01*
X87808528Y-102928571D02*
X87808528Y-102642856D01*
X87808528Y-102642856D02*
X87879957Y-102499999D01*
X87879957Y-102499999D02*
X88022814Y-102428571D01*
X88022814Y-102428571D02*
X88165671Y-102428571D01*
X88165671Y-102428571D02*
X88308528Y-103142856D01*
X88808528Y-101142857D02*
X87308528Y-101142857D01*
X88737100Y-101142857D02*
X88808528Y-101285714D01*
X88808528Y-101285714D02*
X88808528Y-101571428D01*
X88808528Y-101571428D02*
X88737100Y-101714285D01*
X88737100Y-101714285D02*
X88665671Y-101785714D01*
X88665671Y-101785714D02*
X88522814Y-101857142D01*
X88522814Y-101857142D02*
X88094242Y-101857142D01*
X88094242Y-101857142D02*
X87951385Y-101785714D01*
X87951385Y-101785714D02*
X87879957Y-101714285D01*
X87879957Y-101714285D02*
X87808528Y-101571428D01*
X87808528Y-101571428D02*
X87808528Y-101285714D01*
X87808528Y-101285714D02*
X87879957Y-101142857D01*
X88665671Y-98428571D02*
X88737100Y-98499999D01*
X88737100Y-98499999D02*
X88808528Y-98714285D01*
X88808528Y-98714285D02*
X88808528Y-98857142D01*
X88808528Y-98857142D02*
X88737100Y-99071428D01*
X88737100Y-99071428D02*
X88594242Y-99214285D01*
X88594242Y-99214285D02*
X88451385Y-99285714D01*
X88451385Y-99285714D02*
X88165671Y-99357142D01*
X88165671Y-99357142D02*
X87951385Y-99357142D01*
X87951385Y-99357142D02*
X87665671Y-99285714D01*
X87665671Y-99285714D02*
X87522814Y-99214285D01*
X87522814Y-99214285D02*
X87379957Y-99071428D01*
X87379957Y-99071428D02*
X87308528Y-98857142D01*
X87308528Y-98857142D02*
X87308528Y-98714285D01*
X87308528Y-98714285D02*
X87379957Y-98499999D01*
X87379957Y-98499999D02*
X87451385Y-98428571D01*
X88808528Y-97571428D02*
X88737100Y-97714285D01*
X88737100Y-97714285D02*
X88665671Y-97785714D01*
X88665671Y-97785714D02*
X88522814Y-97857142D01*
X88522814Y-97857142D02*
X88094242Y-97857142D01*
X88094242Y-97857142D02*
X87951385Y-97785714D01*
X87951385Y-97785714D02*
X87879957Y-97714285D01*
X87879957Y-97714285D02*
X87808528Y-97571428D01*
X87808528Y-97571428D02*
X87808528Y-97357142D01*
X87808528Y-97357142D02*
X87879957Y-97214285D01*
X87879957Y-97214285D02*
X87951385Y-97142857D01*
X87951385Y-97142857D02*
X88094242Y-97071428D01*
X88094242Y-97071428D02*
X88522814Y-97071428D01*
X88522814Y-97071428D02*
X88665671Y-97142857D01*
X88665671Y-97142857D02*
X88737100Y-97214285D01*
X88737100Y-97214285D02*
X88808528Y-97357142D01*
X88808528Y-97357142D02*
X88808528Y-97571428D01*
X87808528Y-96428571D02*
X88808528Y-96428571D01*
X87951385Y-96428571D02*
X87879957Y-96357142D01*
X87879957Y-96357142D02*
X87808528Y-96214285D01*
X87808528Y-96214285D02*
X87808528Y-95999999D01*
X87808528Y-95999999D02*
X87879957Y-95857142D01*
X87879957Y-95857142D02*
X88022814Y-95785714D01*
X88022814Y-95785714D02*
X88808528Y-95785714D01*
X87808528Y-95071428D02*
X88808528Y-95071428D01*
X87951385Y-95071428D02*
X87879957Y-94999999D01*
X87879957Y-94999999D02*
X87808528Y-94857142D01*
X87808528Y-94857142D02*
X87808528Y-94642856D01*
X87808528Y-94642856D02*
X87879957Y-94499999D01*
X87879957Y-94499999D02*
X88022814Y-94428571D01*
X88022814Y-94428571D02*
X88808528Y-94428571D01*
X88737100Y-93142856D02*
X88808528Y-93285713D01*
X88808528Y-93285713D02*
X88808528Y-93571428D01*
X88808528Y-93571428D02*
X88737100Y-93714285D01*
X88737100Y-93714285D02*
X88594242Y-93785713D01*
X88594242Y-93785713D02*
X88022814Y-93785713D01*
X88022814Y-93785713D02*
X87879957Y-93714285D01*
X87879957Y-93714285D02*
X87808528Y-93571428D01*
X87808528Y-93571428D02*
X87808528Y-93285713D01*
X87808528Y-93285713D02*
X87879957Y-93142856D01*
X87879957Y-93142856D02*
X88022814Y-93071428D01*
X88022814Y-93071428D02*
X88165671Y-93071428D01*
X88165671Y-93071428D02*
X88308528Y-93785713D01*
X88737100Y-91785714D02*
X88808528Y-91928571D01*
X88808528Y-91928571D02*
X88808528Y-92214285D01*
X88808528Y-92214285D02*
X88737100Y-92357142D01*
X88737100Y-92357142D02*
X88665671Y-92428571D01*
X88665671Y-92428571D02*
X88522814Y-92499999D01*
X88522814Y-92499999D02*
X88094242Y-92499999D01*
X88094242Y-92499999D02*
X87951385Y-92428571D01*
X87951385Y-92428571D02*
X87879957Y-92357142D01*
X87879957Y-92357142D02*
X87808528Y-92214285D01*
X87808528Y-92214285D02*
X87808528Y-91928571D01*
X87808528Y-91928571D02*
X87879957Y-91785714D01*
X87808528Y-91357142D02*
X87808528Y-90785714D01*
X87308528Y-91142857D02*
X88594242Y-91142857D01*
X88594242Y-91142857D02*
X88737100Y-91071428D01*
X88737100Y-91071428D02*
X88808528Y-90928571D01*
X88808528Y-90928571D02*
X88808528Y-90785714D01*
X88808528Y-90285714D02*
X87808528Y-90285714D01*
X87308528Y-90285714D02*
X87379957Y-90357142D01*
X87379957Y-90357142D02*
X87451385Y-90285714D01*
X87451385Y-90285714D02*
X87379957Y-90214285D01*
X87379957Y-90214285D02*
X87308528Y-90285714D01*
X87308528Y-90285714D02*
X87451385Y-90285714D01*
X88808528Y-89357142D02*
X88737100Y-89499999D01*
X88737100Y-89499999D02*
X88665671Y-89571428D01*
X88665671Y-89571428D02*
X88522814Y-89642856D01*
X88522814Y-89642856D02*
X88094242Y-89642856D01*
X88094242Y-89642856D02*
X87951385Y-89571428D01*
X87951385Y-89571428D02*
X87879957Y-89499999D01*
X87879957Y-89499999D02*
X87808528Y-89357142D01*
X87808528Y-89357142D02*
X87808528Y-89142856D01*
X87808528Y-89142856D02*
X87879957Y-88999999D01*
X87879957Y-88999999D02*
X87951385Y-88928571D01*
X87951385Y-88928571D02*
X88094242Y-88857142D01*
X88094242Y-88857142D02*
X88522814Y-88857142D01*
X88522814Y-88857142D02*
X88665671Y-88928571D01*
X88665671Y-88928571D02*
X88737100Y-88999999D01*
X88737100Y-88999999D02*
X88808528Y-89142856D01*
X88808528Y-89142856D02*
X88808528Y-89357142D01*
X87808528Y-88214285D02*
X88808528Y-88214285D01*
X87951385Y-88214285D02*
X87879957Y-88142856D01*
X87879957Y-88142856D02*
X87808528Y-87999999D01*
X87808528Y-87999999D02*
X87808528Y-87785713D01*
X87808528Y-87785713D02*
X87879957Y-87642856D01*
X87879957Y-87642856D02*
X88022814Y-87571428D01*
X88022814Y-87571428D02*
X88808528Y-87571428D01*
D11*
X119178258Y-112664895D02*
X119635401Y-112664895D01*
X119406829Y-113464895D02*
X119406829Y-112664895D01*
X119825877Y-113464895D02*
X120244925Y-112931561D01*
X119825877Y-112931561D02*
X120244925Y-113464895D01*
D10*
X125685714Y-79683528D02*
X126614286Y-79683528D01*
X126614286Y-79683528D02*
X126114286Y-80254957D01*
X126114286Y-80254957D02*
X126328571Y-80254957D01*
X126328571Y-80254957D02*
X126471429Y-80326385D01*
X126471429Y-80326385D02*
X126542857Y-80397814D01*
X126542857Y-80397814D02*
X126614286Y-80540671D01*
X126614286Y-80540671D02*
X126614286Y-80897814D01*
X126614286Y-80897814D02*
X126542857Y-81040671D01*
X126542857Y-81040671D02*
X126471429Y-81112100D01*
X126471429Y-81112100D02*
X126328571Y-81183528D01*
X126328571Y-81183528D02*
X125900000Y-81183528D01*
X125900000Y-81183528D02*
X125757143Y-81112100D01*
X125757143Y-81112100D02*
X125685714Y-81040671D01*
X127257142Y-81040671D02*
X127328571Y-81112100D01*
X127328571Y-81112100D02*
X127257142Y-81183528D01*
X127257142Y-81183528D02*
X127185714Y-81112100D01*
X127185714Y-81112100D02*
X127257142Y-81040671D01*
X127257142Y-81040671D02*
X127257142Y-81183528D01*
X127828571Y-79683528D02*
X128757143Y-79683528D01*
X128757143Y-79683528D02*
X128257143Y-80254957D01*
X128257143Y-80254957D02*
X128471428Y-80254957D01*
X128471428Y-80254957D02*
X128614286Y-80326385D01*
X128614286Y-80326385D02*
X128685714Y-80397814D01*
X128685714Y-80397814D02*
X128757143Y-80540671D01*
X128757143Y-80540671D02*
X128757143Y-80897814D01*
X128757143Y-80897814D02*
X128685714Y-81040671D01*
X128685714Y-81040671D02*
X128614286Y-81112100D01*
X128614286Y-81112100D02*
X128471428Y-81183528D01*
X128471428Y-81183528D02*
X128042857Y-81183528D01*
X128042857Y-81183528D02*
X127900000Y-81112100D01*
X127900000Y-81112100D02*
X127828571Y-81040671D01*
X129185714Y-79683528D02*
X129685714Y-81183528D01*
X129685714Y-81183528D02*
X130185714Y-79683528D01*
D11*
X197014357Y-109814858D02*
X196613147Y-109282434D01*
X196727778Y-109434555D02*
X196708493Y-109329837D01*
X196708493Y-109329837D02*
X196717865Y-109263149D01*
X196717865Y-109263149D02*
X196765268Y-109167803D01*
X196765268Y-109167803D02*
X196841329Y-109110487D01*
X197784335Y-109175012D02*
X197736932Y-109270358D01*
X197736932Y-109270358D02*
X197584811Y-109384990D01*
X197584811Y-109384990D02*
X197480093Y-109404275D01*
X197480093Y-109404275D02*
X197384747Y-109356872D01*
X197384747Y-109356872D02*
X197155484Y-109052630D01*
X197155484Y-109052630D02*
X197136199Y-108947912D01*
X197136199Y-108947912D02*
X197183601Y-108852566D01*
X197183601Y-108852566D02*
X197335722Y-108737935D01*
X197335722Y-108737935D02*
X197440441Y-108718649D01*
X197440441Y-108718649D02*
X197535787Y-108766052D01*
X197535787Y-108766052D02*
X197593102Y-108842112D01*
X197593102Y-108842112D02*
X197270115Y-109204751D01*
X197716025Y-108451356D02*
X198307386Y-108840490D01*
X198307386Y-108840490D02*
X198096328Y-108164777D01*
X198352086Y-107554671D02*
X198428146Y-107497355D01*
X198428146Y-107497355D02*
X198532865Y-107478070D01*
X198532865Y-107478070D02*
X198599553Y-107487442D01*
X198599553Y-107487442D02*
X198694899Y-107534845D01*
X198694899Y-107534845D02*
X198847561Y-107658308D01*
X198847561Y-107658308D02*
X198990850Y-107848459D01*
X198990850Y-107848459D02*
X199067451Y-108029238D01*
X199067451Y-108029238D02*
X199086737Y-108133957D01*
X199086737Y-108133957D02*
X199077364Y-108200645D01*
X199077364Y-108200645D02*
X199029961Y-108295991D01*
X199029961Y-108295991D02*
X198953901Y-108353306D01*
X198953901Y-108353306D02*
X198849183Y-108372592D01*
X198849183Y-108372592D02*
X198782494Y-108363220D01*
X198782494Y-108363220D02*
X198687148Y-108315817D01*
X198687148Y-108315817D02*
X198534487Y-108192354D01*
X198534487Y-108192354D02*
X198391197Y-108002202D01*
X198391197Y-108002202D02*
X198314596Y-107821423D01*
X198314596Y-107821423D02*
X198295311Y-107716705D01*
X198295311Y-107716705D02*
X198304683Y-107650017D01*
X198304683Y-107650017D02*
X198352086Y-107554671D01*
X118605639Y-107602990D02*
X118529449Y-107564895D01*
X118529449Y-107564895D02*
X118415163Y-107564895D01*
X118415163Y-107564895D02*
X118300877Y-107602990D01*
X118300877Y-107602990D02*
X118224687Y-107679180D01*
X118224687Y-107679180D02*
X118186592Y-107755371D01*
X118186592Y-107755371D02*
X118148496Y-107907752D01*
X118148496Y-107907752D02*
X118148496Y-108022038D01*
X118148496Y-108022038D02*
X118186592Y-108174419D01*
X118186592Y-108174419D02*
X118224687Y-108250609D01*
X118224687Y-108250609D02*
X118300877Y-108326800D01*
X118300877Y-108326800D02*
X118415163Y-108364895D01*
X118415163Y-108364895D02*
X118491354Y-108364895D01*
X118491354Y-108364895D02*
X118605639Y-108326800D01*
X118605639Y-108326800D02*
X118643735Y-108288704D01*
X118643735Y-108288704D02*
X118643735Y-108022038D01*
X118643735Y-108022038D02*
X118491354Y-108022038D01*
X118986592Y-108364895D02*
X118986592Y-107564895D01*
X118986592Y-107564895D02*
X119443735Y-108364895D01*
X119443735Y-108364895D02*
X119443735Y-107564895D01*
X119824687Y-108364895D02*
X119824687Y-107564895D01*
X119824687Y-107564895D02*
X120015163Y-107564895D01*
X120015163Y-107564895D02*
X120129449Y-107602990D01*
X120129449Y-107602990D02*
X120205639Y-107679180D01*
X120205639Y-107679180D02*
X120243734Y-107755371D01*
X120243734Y-107755371D02*
X120281830Y-107907752D01*
X120281830Y-107907752D02*
X120281830Y-108022038D01*
X120281830Y-108022038D02*
X120243734Y-108174419D01*
X120243734Y-108174419D02*
X120205639Y-108250609D01*
X120205639Y-108250609D02*
X120129449Y-108326800D01*
X120129449Y-108326800D02*
X120015163Y-108364895D01*
X120015163Y-108364895D02*
X119824687Y-108364895D01*
X119632265Y-110914895D02*
X119365598Y-110533942D01*
X119175122Y-110914895D02*
X119175122Y-110114895D01*
X119175122Y-110114895D02*
X119479884Y-110114895D01*
X119479884Y-110114895D02*
X119556074Y-110152990D01*
X119556074Y-110152990D02*
X119594169Y-110191085D01*
X119594169Y-110191085D02*
X119632265Y-110267276D01*
X119632265Y-110267276D02*
X119632265Y-110381561D01*
X119632265Y-110381561D02*
X119594169Y-110457752D01*
X119594169Y-110457752D02*
X119556074Y-110495847D01*
X119556074Y-110495847D02*
X119479884Y-110533942D01*
X119479884Y-110533942D02*
X119175122Y-110533942D01*
X119898931Y-110914895D02*
X120317979Y-110381561D01*
X119898931Y-110381561D02*
X120317979Y-110914895D01*
X82356265Y-91079895D02*
X82356265Y-90279895D01*
X82356265Y-90279895D02*
X82546741Y-90279895D01*
X82546741Y-90279895D02*
X82661027Y-90317990D01*
X82661027Y-90317990D02*
X82737217Y-90394180D01*
X82737217Y-90394180D02*
X82775312Y-90470371D01*
X82775312Y-90470371D02*
X82813408Y-90622752D01*
X82813408Y-90622752D02*
X82813408Y-90737038D01*
X82813408Y-90737038D02*
X82775312Y-90889419D01*
X82775312Y-90889419D02*
X82737217Y-90965609D01*
X82737217Y-90965609D02*
X82661027Y-91041800D01*
X82661027Y-91041800D02*
X82546741Y-91079895D01*
X82546741Y-91079895D02*
X82356265Y-91079895D01*
X83575312Y-91079895D02*
X83118169Y-91079895D01*
X83346741Y-91079895D02*
X83346741Y-90279895D01*
X83346741Y-90279895D02*
X83270550Y-90394180D01*
X83270550Y-90394180D02*
X83194360Y-90470371D01*
X83194360Y-90470371D02*
X83118169Y-90508466D01*
X82356265Y-93619895D02*
X82356265Y-92819895D01*
X82356265Y-92819895D02*
X82546741Y-92819895D01*
X82546741Y-92819895D02*
X82661027Y-92857990D01*
X82661027Y-92857990D02*
X82737217Y-92934180D01*
X82737217Y-92934180D02*
X82775312Y-93010371D01*
X82775312Y-93010371D02*
X82813408Y-93162752D01*
X82813408Y-93162752D02*
X82813408Y-93277038D01*
X82813408Y-93277038D02*
X82775312Y-93429419D01*
X82775312Y-93429419D02*
X82737217Y-93505609D01*
X82737217Y-93505609D02*
X82661027Y-93581800D01*
X82661027Y-93581800D02*
X82546741Y-93619895D01*
X82546741Y-93619895D02*
X82356265Y-93619895D01*
X83118169Y-92896085D02*
X83156265Y-92857990D01*
X83156265Y-92857990D02*
X83232455Y-92819895D01*
X83232455Y-92819895D02*
X83422931Y-92819895D01*
X83422931Y-92819895D02*
X83499122Y-92857990D01*
X83499122Y-92857990D02*
X83537217Y-92896085D01*
X83537217Y-92896085D02*
X83575312Y-92972276D01*
X83575312Y-92972276D02*
X83575312Y-93048466D01*
X83575312Y-93048466D02*
X83537217Y-93162752D01*
X83537217Y-93162752D02*
X83080074Y-93619895D01*
X83080074Y-93619895D02*
X83575312Y-93619895D01*
X130584524Y-95739895D02*
X130584524Y-94939895D01*
X130584524Y-94939895D02*
X130775000Y-94939895D01*
X130775000Y-94939895D02*
X130889286Y-94977990D01*
X130889286Y-94977990D02*
X130965476Y-95054180D01*
X130965476Y-95054180D02*
X131003571Y-95130371D01*
X131003571Y-95130371D02*
X131041667Y-95282752D01*
X131041667Y-95282752D02*
X131041667Y-95397038D01*
X131041667Y-95397038D02*
X131003571Y-95549419D01*
X131003571Y-95549419D02*
X130965476Y-95625609D01*
X130965476Y-95625609D02*
X130889286Y-95701800D01*
X130889286Y-95701800D02*
X130775000Y-95739895D01*
X130775000Y-95739895D02*
X130584524Y-95739895D01*
X131727381Y-95206561D02*
X131727381Y-95739895D01*
X131536905Y-94901800D02*
X131346428Y-95473228D01*
X131346428Y-95473228D02*
X131841667Y-95473228D01*
X124865094Y-120096450D02*
X124903190Y-120134546D01*
X124903190Y-120134546D02*
X124941285Y-120248831D01*
X124941285Y-120248831D02*
X124941285Y-120325022D01*
X124941285Y-120325022D02*
X124903190Y-120439308D01*
X124903190Y-120439308D02*
X124826999Y-120515498D01*
X124826999Y-120515498D02*
X124750809Y-120553593D01*
X124750809Y-120553593D02*
X124598428Y-120591689D01*
X124598428Y-120591689D02*
X124484142Y-120591689D01*
X124484142Y-120591689D02*
X124331761Y-120553593D01*
X124331761Y-120553593D02*
X124255570Y-120515498D01*
X124255570Y-120515498D02*
X124179380Y-120439308D01*
X124179380Y-120439308D02*
X124141285Y-120325022D01*
X124141285Y-120325022D02*
X124141285Y-120248831D01*
X124141285Y-120248831D02*
X124179380Y-120134546D01*
X124179380Y-120134546D02*
X124217475Y-120096450D01*
X124141285Y-119410736D02*
X124141285Y-119563117D01*
X124141285Y-119563117D02*
X124179380Y-119639308D01*
X124179380Y-119639308D02*
X124217475Y-119677403D01*
X124217475Y-119677403D02*
X124331761Y-119753593D01*
X124331761Y-119753593D02*
X124484142Y-119791689D01*
X124484142Y-119791689D02*
X124788904Y-119791689D01*
X124788904Y-119791689D02*
X124865094Y-119753593D01*
X124865094Y-119753593D02*
X124903190Y-119715498D01*
X124903190Y-119715498D02*
X124941285Y-119639308D01*
X124941285Y-119639308D02*
X124941285Y-119486927D01*
X124941285Y-119486927D02*
X124903190Y-119410736D01*
X124903190Y-119410736D02*
X124865094Y-119372641D01*
X124865094Y-119372641D02*
X124788904Y-119334546D01*
X124788904Y-119334546D02*
X124598428Y-119334546D01*
X124598428Y-119334546D02*
X124522237Y-119372641D01*
X124522237Y-119372641D02*
X124484142Y-119410736D01*
X124484142Y-119410736D02*
X124446047Y-119486927D01*
X124446047Y-119486927D02*
X124446047Y-119639308D01*
X124446047Y-119639308D02*
X124484142Y-119715498D01*
X124484142Y-119715498D02*
X124522237Y-119753593D01*
X124522237Y-119753593D02*
X124598428Y-119791689D01*
X143958332Y-97976823D02*
X144072618Y-98014918D01*
X144072618Y-98014918D02*
X144263094Y-98014918D01*
X144263094Y-98014918D02*
X144339285Y-97976823D01*
X144339285Y-97976823D02*
X144377380Y-97938727D01*
X144377380Y-97938727D02*
X144415475Y-97862537D01*
X144415475Y-97862537D02*
X144415475Y-97786346D01*
X144415475Y-97786346D02*
X144377380Y-97710156D01*
X144377380Y-97710156D02*
X144339285Y-97672061D01*
X144339285Y-97672061D02*
X144263094Y-97633965D01*
X144263094Y-97633965D02*
X144110713Y-97595870D01*
X144110713Y-97595870D02*
X144034523Y-97557775D01*
X144034523Y-97557775D02*
X143996428Y-97519680D01*
X143996428Y-97519680D02*
X143958332Y-97443489D01*
X143958332Y-97443489D02*
X143958332Y-97367299D01*
X143958332Y-97367299D02*
X143996428Y-97291108D01*
X143996428Y-97291108D02*
X144034523Y-97253013D01*
X144034523Y-97253013D02*
X144110713Y-97214918D01*
X144110713Y-97214918D02*
X144301190Y-97214918D01*
X144301190Y-97214918D02*
X144415475Y-97253013D01*
X144682142Y-97214918D02*
X144872618Y-98014918D01*
X144872618Y-98014918D02*
X145024999Y-97443489D01*
X145024999Y-97443489D02*
X145177380Y-98014918D01*
X145177380Y-98014918D02*
X145367857Y-97214918D01*
X146015476Y-97481584D02*
X146015476Y-98014918D01*
X145825000Y-97176823D02*
X145634523Y-97748251D01*
X145634523Y-97748251D02*
X146129762Y-97748251D01*
X85216667Y-89975609D02*
X84950000Y-89594656D01*
X84759524Y-89975609D02*
X84759524Y-89175609D01*
X84759524Y-89175609D02*
X85064286Y-89175609D01*
X85064286Y-89175609D02*
X85140476Y-89213704D01*
X85140476Y-89213704D02*
X85178571Y-89251799D01*
X85178571Y-89251799D02*
X85216667Y-89327990D01*
X85216667Y-89327990D02*
X85216667Y-89442275D01*
X85216667Y-89442275D02*
X85178571Y-89518466D01*
X85178571Y-89518466D02*
X85140476Y-89556561D01*
X85140476Y-89556561D02*
X85064286Y-89594656D01*
X85064286Y-89594656D02*
X84759524Y-89594656D01*
X85483333Y-89175609D02*
X85978571Y-89175609D01*
X85978571Y-89175609D02*
X85711905Y-89480371D01*
X85711905Y-89480371D02*
X85826190Y-89480371D01*
X85826190Y-89480371D02*
X85902381Y-89518466D01*
X85902381Y-89518466D02*
X85940476Y-89556561D01*
X85940476Y-89556561D02*
X85978571Y-89632752D01*
X85978571Y-89632752D02*
X85978571Y-89823228D01*
X85978571Y-89823228D02*
X85940476Y-89899418D01*
X85940476Y-89899418D02*
X85902381Y-89937514D01*
X85902381Y-89937514D02*
X85826190Y-89975609D01*
X85826190Y-89975609D02*
X85597619Y-89975609D01*
X85597619Y-89975609D02*
X85521428Y-89937514D01*
X85521428Y-89937514D02*
X85483333Y-89899418D01*
X124510714Y-100839895D02*
X124244047Y-100458942D01*
X124053571Y-100839895D02*
X124053571Y-100039895D01*
X124053571Y-100039895D02*
X124358333Y-100039895D01*
X124358333Y-100039895D02*
X124434523Y-100077990D01*
X124434523Y-100077990D02*
X124472618Y-100116085D01*
X124472618Y-100116085D02*
X124510714Y-100192276D01*
X124510714Y-100192276D02*
X124510714Y-100306561D01*
X124510714Y-100306561D02*
X124472618Y-100382752D01*
X124472618Y-100382752D02*
X124434523Y-100420847D01*
X124434523Y-100420847D02*
X124358333Y-100458942D01*
X124358333Y-100458942D02*
X124053571Y-100458942D01*
X125272618Y-100839895D02*
X124815475Y-100839895D01*
X125044047Y-100839895D02*
X125044047Y-100039895D01*
X125044047Y-100039895D02*
X124967856Y-100154180D01*
X124967856Y-100154180D02*
X124891666Y-100230371D01*
X124891666Y-100230371D02*
X124815475Y-100268466D01*
X125767857Y-100039895D02*
X125844047Y-100039895D01*
X125844047Y-100039895D02*
X125920238Y-100077990D01*
X125920238Y-100077990D02*
X125958333Y-100116085D01*
X125958333Y-100116085D02*
X125996428Y-100192276D01*
X125996428Y-100192276D02*
X126034523Y-100344657D01*
X126034523Y-100344657D02*
X126034523Y-100535133D01*
X126034523Y-100535133D02*
X125996428Y-100687514D01*
X125996428Y-100687514D02*
X125958333Y-100763704D01*
X125958333Y-100763704D02*
X125920238Y-100801800D01*
X125920238Y-100801800D02*
X125844047Y-100839895D01*
X125844047Y-100839895D02*
X125767857Y-100839895D01*
X125767857Y-100839895D02*
X125691666Y-100801800D01*
X125691666Y-100801800D02*
X125653571Y-100763704D01*
X125653571Y-100763704D02*
X125615476Y-100687514D01*
X125615476Y-100687514D02*
X125577380Y-100535133D01*
X125577380Y-100535133D02*
X125577380Y-100344657D01*
X125577380Y-100344657D02*
X125615476Y-100192276D01*
X125615476Y-100192276D02*
X125653571Y-100116085D01*
X125653571Y-100116085D02*
X125691666Y-100077990D01*
X125691666Y-100077990D02*
X125767857Y-100039895D01*
X134264895Y-97058332D02*
X133883942Y-97324999D01*
X134264895Y-97515475D02*
X133464895Y-97515475D01*
X133464895Y-97515475D02*
X133464895Y-97210713D01*
X133464895Y-97210713D02*
X133502990Y-97134523D01*
X133502990Y-97134523D02*
X133541085Y-97096428D01*
X133541085Y-97096428D02*
X133617276Y-97058332D01*
X133617276Y-97058332D02*
X133731561Y-97058332D01*
X133731561Y-97058332D02*
X133807752Y-97096428D01*
X133807752Y-97096428D02*
X133845847Y-97134523D01*
X133845847Y-97134523D02*
X133883942Y-97210713D01*
X133883942Y-97210713D02*
X133883942Y-97515475D01*
X133464895Y-96791666D02*
X133464895Y-96258332D01*
X133464895Y-96258332D02*
X134264895Y-96601190D01*
X164852293Y-84353102D02*
X164966579Y-84391197D01*
X164966579Y-84391197D02*
X165157055Y-84391197D01*
X165157055Y-84391197D02*
X165233246Y-84353102D01*
X165233246Y-84353102D02*
X165271341Y-84315006D01*
X165271341Y-84315006D02*
X165309436Y-84238816D01*
X165309436Y-84238816D02*
X165309436Y-84162625D01*
X165309436Y-84162625D02*
X165271341Y-84086435D01*
X165271341Y-84086435D02*
X165233246Y-84048340D01*
X165233246Y-84048340D02*
X165157055Y-84010244D01*
X165157055Y-84010244D02*
X165004674Y-83972149D01*
X165004674Y-83972149D02*
X164928484Y-83934054D01*
X164928484Y-83934054D02*
X164890389Y-83895959D01*
X164890389Y-83895959D02*
X164852293Y-83819768D01*
X164852293Y-83819768D02*
X164852293Y-83743578D01*
X164852293Y-83743578D02*
X164890389Y-83667387D01*
X164890389Y-83667387D02*
X164928484Y-83629292D01*
X164928484Y-83629292D02*
X165004674Y-83591197D01*
X165004674Y-83591197D02*
X165195151Y-83591197D01*
X165195151Y-83591197D02*
X165309436Y-83629292D01*
X165576103Y-83591197D02*
X165766579Y-84391197D01*
X165766579Y-84391197D02*
X165918960Y-83819768D01*
X165918960Y-83819768D02*
X166071341Y-84391197D01*
X166071341Y-84391197D02*
X166261818Y-83591197D01*
X166528484Y-83667387D02*
X166566580Y-83629292D01*
X166566580Y-83629292D02*
X166642770Y-83591197D01*
X166642770Y-83591197D02*
X166833246Y-83591197D01*
X166833246Y-83591197D02*
X166909437Y-83629292D01*
X166909437Y-83629292D02*
X166947532Y-83667387D01*
X166947532Y-83667387D02*
X166985627Y-83743578D01*
X166985627Y-83743578D02*
X166985627Y-83819768D01*
X166985627Y-83819768D02*
X166947532Y-83934054D01*
X166947532Y-83934054D02*
X166490389Y-84391197D01*
X166490389Y-84391197D02*
X166985627Y-84391197D01*
X163492309Y-87389098D02*
X163454213Y-87427194D01*
X163454213Y-87427194D02*
X163339928Y-87465289D01*
X163339928Y-87465289D02*
X163263737Y-87465289D01*
X163263737Y-87465289D02*
X163149451Y-87427194D01*
X163149451Y-87427194D02*
X163073261Y-87351003D01*
X163073261Y-87351003D02*
X163035166Y-87274813D01*
X163035166Y-87274813D02*
X162997070Y-87122432D01*
X162997070Y-87122432D02*
X162997070Y-87008146D01*
X162997070Y-87008146D02*
X163035166Y-86855765D01*
X163035166Y-86855765D02*
X163073261Y-86779574D01*
X163073261Y-86779574D02*
X163149451Y-86703384D01*
X163149451Y-86703384D02*
X163263737Y-86665289D01*
X163263737Y-86665289D02*
X163339928Y-86665289D01*
X163339928Y-86665289D02*
X163454213Y-86703384D01*
X163454213Y-86703384D02*
X163492309Y-86741479D01*
X163758975Y-86665289D02*
X164254213Y-86665289D01*
X164254213Y-86665289D02*
X163987547Y-86970051D01*
X163987547Y-86970051D02*
X164101832Y-86970051D01*
X164101832Y-86970051D02*
X164178023Y-87008146D01*
X164178023Y-87008146D02*
X164216118Y-87046241D01*
X164216118Y-87046241D02*
X164254213Y-87122432D01*
X164254213Y-87122432D02*
X164254213Y-87312908D01*
X164254213Y-87312908D02*
X164216118Y-87389098D01*
X164216118Y-87389098D02*
X164178023Y-87427194D01*
X164178023Y-87427194D02*
X164101832Y-87465289D01*
X164101832Y-87465289D02*
X163873261Y-87465289D01*
X163873261Y-87465289D02*
X163797070Y-87427194D01*
X163797070Y-87427194D02*
X163758975Y-87389098D01*
X92026800Y-77566667D02*
X92064895Y-77452381D01*
X92064895Y-77452381D02*
X92064895Y-77261905D01*
X92064895Y-77261905D02*
X92026800Y-77185714D01*
X92026800Y-77185714D02*
X91988704Y-77147619D01*
X91988704Y-77147619D02*
X91912514Y-77109524D01*
X91912514Y-77109524D02*
X91836323Y-77109524D01*
X91836323Y-77109524D02*
X91760133Y-77147619D01*
X91760133Y-77147619D02*
X91722038Y-77185714D01*
X91722038Y-77185714D02*
X91683942Y-77261905D01*
X91683942Y-77261905D02*
X91645847Y-77414286D01*
X91645847Y-77414286D02*
X91607752Y-77490476D01*
X91607752Y-77490476D02*
X91569657Y-77528571D01*
X91569657Y-77528571D02*
X91493466Y-77566667D01*
X91493466Y-77566667D02*
X91417276Y-77566667D01*
X91417276Y-77566667D02*
X91341085Y-77528571D01*
X91341085Y-77528571D02*
X91302990Y-77490476D01*
X91302990Y-77490476D02*
X91264895Y-77414286D01*
X91264895Y-77414286D02*
X91264895Y-77223809D01*
X91264895Y-77223809D02*
X91302990Y-77109524D01*
X91264895Y-76842857D02*
X92064895Y-76652381D01*
X92064895Y-76652381D02*
X91493466Y-76500000D01*
X91493466Y-76500000D02*
X92064895Y-76347619D01*
X92064895Y-76347619D02*
X91264895Y-76157143D01*
X92064895Y-75433333D02*
X92064895Y-75890476D01*
X92064895Y-75661904D02*
X91264895Y-75661904D01*
X91264895Y-75661904D02*
X91379180Y-75738095D01*
X91379180Y-75738095D02*
X91455371Y-75814285D01*
X91455371Y-75814285D02*
X91493466Y-75890476D01*
X85216667Y-87434895D02*
X84950000Y-87053942D01*
X84759524Y-87434895D02*
X84759524Y-86634895D01*
X84759524Y-86634895D02*
X85064286Y-86634895D01*
X85064286Y-86634895D02*
X85140476Y-86672990D01*
X85140476Y-86672990D02*
X85178571Y-86711085D01*
X85178571Y-86711085D02*
X85216667Y-86787276D01*
X85216667Y-86787276D02*
X85216667Y-86901561D01*
X85216667Y-86901561D02*
X85178571Y-86977752D01*
X85178571Y-86977752D02*
X85140476Y-87015847D01*
X85140476Y-87015847D02*
X85064286Y-87053942D01*
X85064286Y-87053942D02*
X84759524Y-87053942D01*
X85978571Y-87434895D02*
X85521428Y-87434895D01*
X85750000Y-87434895D02*
X85750000Y-86634895D01*
X85750000Y-86634895D02*
X85673809Y-86749180D01*
X85673809Y-86749180D02*
X85597619Y-86825371D01*
X85597619Y-86825371D02*
X85521428Y-86863466D01*
X124414895Y-107966666D02*
X124986323Y-107966666D01*
X124986323Y-107966666D02*
X125100609Y-108004761D01*
X125100609Y-108004761D02*
X125176800Y-108080952D01*
X125176800Y-108080952D02*
X125214895Y-108195237D01*
X125214895Y-108195237D02*
X125214895Y-108271428D01*
X124414895Y-107661904D02*
X124414895Y-107166666D01*
X124414895Y-107166666D02*
X124719657Y-107433332D01*
X124719657Y-107433332D02*
X124719657Y-107319047D01*
X124719657Y-107319047D02*
X124757752Y-107242856D01*
X124757752Y-107242856D02*
X124795847Y-107204761D01*
X124795847Y-107204761D02*
X124872038Y-107166666D01*
X124872038Y-107166666D02*
X125062514Y-107166666D01*
X125062514Y-107166666D02*
X125138704Y-107204761D01*
X125138704Y-107204761D02*
X125176800Y-107242856D01*
X125176800Y-107242856D02*
X125214895Y-107319047D01*
X125214895Y-107319047D02*
X125214895Y-107547618D01*
X125214895Y-107547618D02*
X125176800Y-107623809D01*
X125176800Y-107623809D02*
X125138704Y-107661904D01*
X122663349Y-120550851D02*
X122282396Y-120817518D01*
X122663349Y-121007994D02*
X121863349Y-121007994D01*
X121863349Y-121007994D02*
X121863349Y-120703232D01*
X121863349Y-120703232D02*
X121901444Y-120627042D01*
X121901444Y-120627042D02*
X121939539Y-120588947D01*
X121939539Y-120588947D02*
X122015730Y-120550851D01*
X122015730Y-120550851D02*
X122130015Y-120550851D01*
X122130015Y-120550851D02*
X122206206Y-120588947D01*
X122206206Y-120588947D02*
X122244301Y-120627042D01*
X122244301Y-120627042D02*
X122282396Y-120703232D01*
X122282396Y-120703232D02*
X122282396Y-121007994D01*
X122663349Y-119788947D02*
X122663349Y-120246090D01*
X122663349Y-120017518D02*
X121863349Y-120017518D01*
X121863349Y-120017518D02*
X121977634Y-120093709D01*
X121977634Y-120093709D02*
X122053825Y-120169899D01*
X122053825Y-120169899D02*
X122091920Y-120246090D01*
X121863349Y-119522280D02*
X121863349Y-119027042D01*
X121863349Y-119027042D02*
X122168111Y-119293708D01*
X122168111Y-119293708D02*
X122168111Y-119179423D01*
X122168111Y-119179423D02*
X122206206Y-119103232D01*
X122206206Y-119103232D02*
X122244301Y-119065137D01*
X122244301Y-119065137D02*
X122320492Y-119027042D01*
X122320492Y-119027042D02*
X122510968Y-119027042D01*
X122510968Y-119027042D02*
X122587158Y-119065137D01*
X122587158Y-119065137D02*
X122625254Y-119103232D01*
X122625254Y-119103232D02*
X122663349Y-119179423D01*
X122663349Y-119179423D02*
X122663349Y-119407994D01*
X122663349Y-119407994D02*
X122625254Y-119484185D01*
X122625254Y-119484185D02*
X122587158Y-119522280D01*
X195445792Y-105842638D02*
X195565878Y-105833049D01*
X195565878Y-105833049D02*
X195741212Y-105758624D01*
X195741212Y-105758624D02*
X195796461Y-105693788D01*
X195796461Y-105693788D02*
X195816643Y-105643836D01*
X195816643Y-105643836D02*
X195821939Y-105558817D01*
X195821939Y-105558817D02*
X195792169Y-105488683D01*
X195792169Y-105488683D02*
X195727333Y-105433435D01*
X195727333Y-105433435D02*
X195677381Y-105413253D01*
X195677381Y-105413253D02*
X195592362Y-105407956D01*
X195592362Y-105407956D02*
X195437210Y-105432429D01*
X195437210Y-105432429D02*
X195352191Y-105427132D01*
X195352191Y-105427132D02*
X195302239Y-105406950D01*
X195302239Y-105406950D02*
X195237402Y-105351702D01*
X195237402Y-105351702D02*
X195207632Y-105281568D01*
X195207632Y-105281568D02*
X195212929Y-105196549D01*
X195212929Y-105196549D02*
X195233111Y-105146597D01*
X195233111Y-105146597D02*
X195288360Y-105081760D01*
X195288360Y-105081760D02*
X195463694Y-105007336D01*
X195463694Y-105007336D02*
X195583780Y-104997747D01*
X195814363Y-104858485D02*
X196302282Y-105520464D01*
X196302282Y-105520464D02*
X196219274Y-104934922D01*
X196219274Y-104934922D02*
X196582817Y-105401384D01*
X196582817Y-105401384D02*
X196445566Y-104590556D01*
X197041703Y-104337511D02*
X196901435Y-104397051D01*
X196901435Y-104397051D02*
X196846187Y-104461887D01*
X196846187Y-104461887D02*
X196826005Y-104511839D01*
X196826005Y-104511839D02*
X196800526Y-104646810D01*
X196800526Y-104646810D02*
X196824999Y-104801962D01*
X196824999Y-104801962D02*
X196944079Y-105082497D01*
X196944079Y-105082497D02*
X197008916Y-105137746D01*
X197008916Y-105137746D02*
X197058868Y-105157928D01*
X197058868Y-105157928D02*
X197143887Y-105163224D01*
X197143887Y-105163224D02*
X197284154Y-105103684D01*
X197284154Y-105103684D02*
X197339403Y-105038848D01*
X197339403Y-105038848D02*
X197359585Y-104988896D01*
X197359585Y-104988896D02*
X197364881Y-104903877D01*
X197364881Y-104903877D02*
X197290456Y-104728543D01*
X197290456Y-104728543D02*
X197225620Y-104673294D01*
X197225620Y-104673294D02*
X197175668Y-104653112D01*
X197175668Y-104653112D02*
X197090649Y-104647815D01*
X197090649Y-104647815D02*
X196950382Y-104707355D01*
X196950382Y-104707355D02*
X196895133Y-104772192D01*
X196895133Y-104772192D02*
X196874951Y-104822144D01*
X196874951Y-104822144D02*
X196869654Y-104907163D01*
X85216667Y-92516323D02*
X84950000Y-92135370D01*
X84759524Y-92516323D02*
X84759524Y-91716323D01*
X84759524Y-91716323D02*
X85064286Y-91716323D01*
X85064286Y-91716323D02*
X85140476Y-91754418D01*
X85140476Y-91754418D02*
X85178571Y-91792513D01*
X85178571Y-91792513D02*
X85216667Y-91868704D01*
X85216667Y-91868704D02*
X85216667Y-91982989D01*
X85216667Y-91982989D02*
X85178571Y-92059180D01*
X85178571Y-92059180D02*
X85140476Y-92097275D01*
X85140476Y-92097275D02*
X85064286Y-92135370D01*
X85064286Y-92135370D02*
X84759524Y-92135370D01*
X85902381Y-91982989D02*
X85902381Y-92516323D01*
X85711905Y-91678228D02*
X85521428Y-92249656D01*
X85521428Y-92249656D02*
X86016667Y-92249656D01*
X150783898Y-119079796D02*
X150745802Y-119117892D01*
X150745802Y-119117892D02*
X150631517Y-119155987D01*
X150631517Y-119155987D02*
X150555326Y-119155987D01*
X150555326Y-119155987D02*
X150441040Y-119117892D01*
X150441040Y-119117892D02*
X150364850Y-119041701D01*
X150364850Y-119041701D02*
X150326755Y-118965511D01*
X150326755Y-118965511D02*
X150288659Y-118813130D01*
X150288659Y-118813130D02*
X150288659Y-118698844D01*
X150288659Y-118698844D02*
X150326755Y-118546463D01*
X150326755Y-118546463D02*
X150364850Y-118470272D01*
X150364850Y-118470272D02*
X150441040Y-118394082D01*
X150441040Y-118394082D02*
X150555326Y-118355987D01*
X150555326Y-118355987D02*
X150631517Y-118355987D01*
X150631517Y-118355987D02*
X150745802Y-118394082D01*
X150745802Y-118394082D02*
X150783898Y-118432177D01*
X151241040Y-118698844D02*
X151164850Y-118660749D01*
X151164850Y-118660749D02*
X151126755Y-118622653D01*
X151126755Y-118622653D02*
X151088659Y-118546463D01*
X151088659Y-118546463D02*
X151088659Y-118508368D01*
X151088659Y-118508368D02*
X151126755Y-118432177D01*
X151126755Y-118432177D02*
X151164850Y-118394082D01*
X151164850Y-118394082D02*
X151241040Y-118355987D01*
X151241040Y-118355987D02*
X151393421Y-118355987D01*
X151393421Y-118355987D02*
X151469612Y-118394082D01*
X151469612Y-118394082D02*
X151507707Y-118432177D01*
X151507707Y-118432177D02*
X151545802Y-118508368D01*
X151545802Y-118508368D02*
X151545802Y-118546463D01*
X151545802Y-118546463D02*
X151507707Y-118622653D01*
X151507707Y-118622653D02*
X151469612Y-118660749D01*
X151469612Y-118660749D02*
X151393421Y-118698844D01*
X151393421Y-118698844D02*
X151241040Y-118698844D01*
X151241040Y-118698844D02*
X151164850Y-118736939D01*
X151164850Y-118736939D02*
X151126755Y-118775034D01*
X151126755Y-118775034D02*
X151088659Y-118851225D01*
X151088659Y-118851225D02*
X151088659Y-119003606D01*
X151088659Y-119003606D02*
X151126755Y-119079796D01*
X151126755Y-119079796D02*
X151164850Y-119117892D01*
X151164850Y-119117892D02*
X151241040Y-119155987D01*
X151241040Y-119155987D02*
X151393421Y-119155987D01*
X151393421Y-119155987D02*
X151469612Y-119117892D01*
X151469612Y-119117892D02*
X151507707Y-119079796D01*
X151507707Y-119079796D02*
X151545802Y-119003606D01*
X151545802Y-119003606D02*
X151545802Y-118851225D01*
X151545802Y-118851225D02*
X151507707Y-118775034D01*
X151507707Y-118775034D02*
X151469612Y-118736939D01*
X151469612Y-118736939D02*
X151393421Y-118698844D01*
X99852381Y-119364895D02*
X99852381Y-118564895D01*
X99852381Y-118564895D02*
X100119047Y-119136323D01*
X100119047Y-119136323D02*
X100385714Y-118564895D01*
X100385714Y-118564895D02*
X100385714Y-119364895D01*
X101185714Y-119364895D02*
X100728571Y-119364895D01*
X100957143Y-119364895D02*
X100957143Y-118564895D01*
X100957143Y-118564895D02*
X100880952Y-118679180D01*
X100880952Y-118679180D02*
X100804762Y-118755371D01*
X100804762Y-118755371D02*
X100728571Y-118793466D01*
X149624559Y-115484830D02*
X149243606Y-115751497D01*
X149624559Y-115941973D02*
X148824559Y-115941973D01*
X148824559Y-115941973D02*
X148824559Y-115637211D01*
X148824559Y-115637211D02*
X148862654Y-115561021D01*
X148862654Y-115561021D02*
X148900749Y-115522926D01*
X148900749Y-115522926D02*
X148976940Y-115484830D01*
X148976940Y-115484830D02*
X149091225Y-115484830D01*
X149091225Y-115484830D02*
X149167416Y-115522926D01*
X149167416Y-115522926D02*
X149205511Y-115561021D01*
X149205511Y-115561021D02*
X149243606Y-115637211D01*
X149243606Y-115637211D02*
X149243606Y-115941973D01*
X149624559Y-114722926D02*
X149624559Y-115180069D01*
X149624559Y-114951497D02*
X148824559Y-114951497D01*
X148824559Y-114951497D02*
X148938844Y-115027688D01*
X148938844Y-115027688D02*
X149015035Y-115103878D01*
X149015035Y-115103878D02*
X149053130Y-115180069D01*
X149091225Y-114037211D02*
X149624559Y-114037211D01*
X148786464Y-114227687D02*
X149357892Y-114418164D01*
X149357892Y-114418164D02*
X149357892Y-113922925D01*
X142056061Y-79922218D02*
X142056061Y-79122218D01*
X142056061Y-79122218D02*
X142246537Y-79122218D01*
X142246537Y-79122218D02*
X142360823Y-79160313D01*
X142360823Y-79160313D02*
X142437013Y-79236503D01*
X142437013Y-79236503D02*
X142475108Y-79312694D01*
X142475108Y-79312694D02*
X142513204Y-79465075D01*
X142513204Y-79465075D02*
X142513204Y-79579361D01*
X142513204Y-79579361D02*
X142475108Y-79731742D01*
X142475108Y-79731742D02*
X142437013Y-79807932D01*
X142437013Y-79807932D02*
X142360823Y-79884123D01*
X142360823Y-79884123D02*
X142246537Y-79922218D01*
X142246537Y-79922218D02*
X142056061Y-79922218D01*
X143275108Y-79922218D02*
X142817965Y-79922218D01*
X143046537Y-79922218D02*
X143046537Y-79122218D01*
X143046537Y-79122218D02*
X142970346Y-79236503D01*
X142970346Y-79236503D02*
X142894156Y-79312694D01*
X142894156Y-79312694D02*
X142817965Y-79350789D01*
X85216667Y-102679179D02*
X84950000Y-102298226D01*
X84759524Y-102679179D02*
X84759524Y-101879179D01*
X84759524Y-101879179D02*
X85064286Y-101879179D01*
X85064286Y-101879179D02*
X85140476Y-101917274D01*
X85140476Y-101917274D02*
X85178571Y-101955369D01*
X85178571Y-101955369D02*
X85216667Y-102031560D01*
X85216667Y-102031560D02*
X85216667Y-102145845D01*
X85216667Y-102145845D02*
X85178571Y-102222036D01*
X85178571Y-102222036D02*
X85140476Y-102260131D01*
X85140476Y-102260131D02*
X85064286Y-102298226D01*
X85064286Y-102298226D02*
X84759524Y-102298226D01*
X85597619Y-102679179D02*
X85750000Y-102679179D01*
X85750000Y-102679179D02*
X85826190Y-102641084D01*
X85826190Y-102641084D02*
X85864286Y-102602988D01*
X85864286Y-102602988D02*
X85940476Y-102488703D01*
X85940476Y-102488703D02*
X85978571Y-102336322D01*
X85978571Y-102336322D02*
X85978571Y-102031560D01*
X85978571Y-102031560D02*
X85940476Y-101955369D01*
X85940476Y-101955369D02*
X85902381Y-101917274D01*
X85902381Y-101917274D02*
X85826190Y-101879179D01*
X85826190Y-101879179D02*
X85673809Y-101879179D01*
X85673809Y-101879179D02*
X85597619Y-101917274D01*
X85597619Y-101917274D02*
X85559524Y-101955369D01*
X85559524Y-101955369D02*
X85521428Y-102031560D01*
X85521428Y-102031560D02*
X85521428Y-102222036D01*
X85521428Y-102222036D02*
X85559524Y-102298226D01*
X85559524Y-102298226D02*
X85597619Y-102336322D01*
X85597619Y-102336322D02*
X85673809Y-102374417D01*
X85673809Y-102374417D02*
X85826190Y-102374417D01*
X85826190Y-102374417D02*
X85902381Y-102336322D01*
X85902381Y-102336322D02*
X85940476Y-102298226D01*
X85940476Y-102298226D02*
X85978571Y-102222036D01*
X130038704Y-99458332D02*
X130076800Y-99496428D01*
X130076800Y-99496428D02*
X130114895Y-99610713D01*
X130114895Y-99610713D02*
X130114895Y-99686904D01*
X130114895Y-99686904D02*
X130076800Y-99801190D01*
X130076800Y-99801190D02*
X130000609Y-99877380D01*
X130000609Y-99877380D02*
X129924419Y-99915475D01*
X129924419Y-99915475D02*
X129772038Y-99953571D01*
X129772038Y-99953571D02*
X129657752Y-99953571D01*
X129657752Y-99953571D02*
X129505371Y-99915475D01*
X129505371Y-99915475D02*
X129429180Y-99877380D01*
X129429180Y-99877380D02*
X129352990Y-99801190D01*
X129352990Y-99801190D02*
X129314895Y-99686904D01*
X129314895Y-99686904D02*
X129314895Y-99610713D01*
X129314895Y-99610713D02*
X129352990Y-99496428D01*
X129352990Y-99496428D02*
X129391085Y-99458332D01*
X129314895Y-98734523D02*
X129314895Y-99115475D01*
X129314895Y-99115475D02*
X129695847Y-99153571D01*
X129695847Y-99153571D02*
X129657752Y-99115475D01*
X129657752Y-99115475D02*
X129619657Y-99039285D01*
X129619657Y-99039285D02*
X129619657Y-98848809D01*
X129619657Y-98848809D02*
X129657752Y-98772618D01*
X129657752Y-98772618D02*
X129695847Y-98734523D01*
X129695847Y-98734523D02*
X129772038Y-98696428D01*
X129772038Y-98696428D02*
X129962514Y-98696428D01*
X129962514Y-98696428D02*
X130038704Y-98734523D01*
X130038704Y-98734523D02*
X130076800Y-98772618D01*
X130076800Y-98772618D02*
X130114895Y-98848809D01*
X130114895Y-98848809D02*
X130114895Y-99039285D01*
X130114895Y-99039285D02*
X130076800Y-99115475D01*
X130076800Y-99115475D02*
X130038704Y-99153571D01*
X127140467Y-95014894D02*
X127140467Y-95662513D01*
X127140467Y-95662513D02*
X127178562Y-95738703D01*
X127178562Y-95738703D02*
X127216657Y-95776799D01*
X127216657Y-95776799D02*
X127292848Y-95814894D01*
X127292848Y-95814894D02*
X127445229Y-95814894D01*
X127445229Y-95814894D02*
X127521419Y-95776799D01*
X127521419Y-95776799D02*
X127559514Y-95738703D01*
X127559514Y-95738703D02*
X127597610Y-95662513D01*
X127597610Y-95662513D02*
X127597610Y-95014894D01*
X127902371Y-95014894D02*
X128397609Y-95014894D01*
X128397609Y-95014894D02*
X128130943Y-95319656D01*
X128130943Y-95319656D02*
X128245228Y-95319656D01*
X128245228Y-95319656D02*
X128321419Y-95357751D01*
X128321419Y-95357751D02*
X128359514Y-95395846D01*
X128359514Y-95395846D02*
X128397609Y-95472037D01*
X128397609Y-95472037D02*
X128397609Y-95662513D01*
X128397609Y-95662513D02*
X128359514Y-95738703D01*
X128359514Y-95738703D02*
X128321419Y-95776799D01*
X128321419Y-95776799D02*
X128245228Y-95814894D01*
X128245228Y-95814894D02*
X128016657Y-95814894D01*
X128016657Y-95814894D02*
X127940466Y-95776799D01*
X127940466Y-95776799D02*
X127902371Y-95738703D01*
X85216667Y-100138465D02*
X84950000Y-99757512D01*
X84759524Y-100138465D02*
X84759524Y-99338465D01*
X84759524Y-99338465D02*
X85064286Y-99338465D01*
X85064286Y-99338465D02*
X85140476Y-99376560D01*
X85140476Y-99376560D02*
X85178571Y-99414655D01*
X85178571Y-99414655D02*
X85216667Y-99490846D01*
X85216667Y-99490846D02*
X85216667Y-99605131D01*
X85216667Y-99605131D02*
X85178571Y-99681322D01*
X85178571Y-99681322D02*
X85140476Y-99719417D01*
X85140476Y-99719417D02*
X85064286Y-99757512D01*
X85064286Y-99757512D02*
X84759524Y-99757512D01*
X85673809Y-99681322D02*
X85597619Y-99643227D01*
X85597619Y-99643227D02*
X85559524Y-99605131D01*
X85559524Y-99605131D02*
X85521428Y-99528941D01*
X85521428Y-99528941D02*
X85521428Y-99490846D01*
X85521428Y-99490846D02*
X85559524Y-99414655D01*
X85559524Y-99414655D02*
X85597619Y-99376560D01*
X85597619Y-99376560D02*
X85673809Y-99338465D01*
X85673809Y-99338465D02*
X85826190Y-99338465D01*
X85826190Y-99338465D02*
X85902381Y-99376560D01*
X85902381Y-99376560D02*
X85940476Y-99414655D01*
X85940476Y-99414655D02*
X85978571Y-99490846D01*
X85978571Y-99490846D02*
X85978571Y-99528941D01*
X85978571Y-99528941D02*
X85940476Y-99605131D01*
X85940476Y-99605131D02*
X85902381Y-99643227D01*
X85902381Y-99643227D02*
X85826190Y-99681322D01*
X85826190Y-99681322D02*
X85673809Y-99681322D01*
X85673809Y-99681322D02*
X85597619Y-99719417D01*
X85597619Y-99719417D02*
X85559524Y-99757512D01*
X85559524Y-99757512D02*
X85521428Y-99833703D01*
X85521428Y-99833703D02*
X85521428Y-99986084D01*
X85521428Y-99986084D02*
X85559524Y-100062274D01*
X85559524Y-100062274D02*
X85597619Y-100100370D01*
X85597619Y-100100370D02*
X85673809Y-100138465D01*
X85673809Y-100138465D02*
X85826190Y-100138465D01*
X85826190Y-100138465D02*
X85902381Y-100100370D01*
X85902381Y-100100370D02*
X85940476Y-100062274D01*
X85940476Y-100062274D02*
X85978571Y-99986084D01*
X85978571Y-99986084D02*
X85978571Y-99833703D01*
X85978571Y-99833703D02*
X85940476Y-99757512D01*
X85940476Y-99757512D02*
X85902381Y-99719417D01*
X85902381Y-99719417D02*
X85826190Y-99681322D01*
X184054332Y-78902595D02*
X184174418Y-78893006D01*
X184174418Y-78893006D02*
X184349752Y-78818581D01*
X184349752Y-78818581D02*
X184405001Y-78753745D01*
X184405001Y-78753745D02*
X184425183Y-78703793D01*
X184425183Y-78703793D02*
X184430479Y-78618774D01*
X184430479Y-78618774D02*
X184400709Y-78548640D01*
X184400709Y-78548640D02*
X184335873Y-78493392D01*
X184335873Y-78493392D02*
X184285921Y-78473210D01*
X184285921Y-78473210D02*
X184200902Y-78467913D01*
X184200902Y-78467913D02*
X184045750Y-78492386D01*
X184045750Y-78492386D02*
X183960731Y-78487089D01*
X183960731Y-78487089D02*
X183910779Y-78466907D01*
X183910779Y-78466907D02*
X183845942Y-78411659D01*
X183845942Y-78411659D02*
X183816172Y-78341525D01*
X183816172Y-78341525D02*
X183821469Y-78256506D01*
X183821469Y-78256506D02*
X183841651Y-78206554D01*
X183841651Y-78206554D02*
X183896900Y-78141717D01*
X183896900Y-78141717D02*
X184072234Y-78067293D01*
X184072234Y-78067293D02*
X184192320Y-78057704D01*
X184422903Y-77918442D02*
X184910822Y-78580421D01*
X184910822Y-78580421D02*
X184827814Y-77994879D01*
X184827814Y-77994879D02*
X185191357Y-78461341D01*
X185191357Y-78461341D02*
X185054106Y-77650513D01*
X185264507Y-77561202D02*
X185720377Y-77367698D01*
X185720377Y-77367698D02*
X185593989Y-77752427D01*
X185593989Y-77752427D02*
X185699189Y-77707772D01*
X185699189Y-77707772D02*
X185784208Y-77713069D01*
X185784208Y-77713069D02*
X185834160Y-77733251D01*
X185834160Y-77733251D02*
X185898996Y-77788500D01*
X185898996Y-77788500D02*
X185973421Y-77963834D01*
X185973421Y-77963834D02*
X185968125Y-78048853D01*
X185968125Y-78048853D02*
X185947943Y-78098805D01*
X185947943Y-78098805D02*
X185892694Y-78163641D01*
X185892694Y-78163641D02*
X185682293Y-78252951D01*
X185682293Y-78252951D02*
X185597274Y-78247655D01*
X185597274Y-78247655D02*
X185547322Y-78227473D01*
X154628536Y-94137072D02*
X153828536Y-94137072D01*
X153828536Y-94137072D02*
X153828536Y-93946596D01*
X153828536Y-93946596D02*
X153866631Y-93832310D01*
X153866631Y-93832310D02*
X153942821Y-93756120D01*
X153942821Y-93756120D02*
X154019012Y-93718025D01*
X154019012Y-93718025D02*
X154171393Y-93679929D01*
X154171393Y-93679929D02*
X154285679Y-93679929D01*
X154285679Y-93679929D02*
X154438060Y-93718025D01*
X154438060Y-93718025D02*
X154514250Y-93756120D01*
X154514250Y-93756120D02*
X154590441Y-93832310D01*
X154590441Y-93832310D02*
X154628536Y-93946596D01*
X154628536Y-93946596D02*
X154628536Y-94137072D01*
X153828536Y-93413263D02*
X153828536Y-92918025D01*
X153828536Y-92918025D02*
X154133298Y-93184691D01*
X154133298Y-93184691D02*
X154133298Y-93070406D01*
X154133298Y-93070406D02*
X154171393Y-92994215D01*
X154171393Y-92994215D02*
X154209488Y-92956120D01*
X154209488Y-92956120D02*
X154285679Y-92918025D01*
X154285679Y-92918025D02*
X154476155Y-92918025D01*
X154476155Y-92918025D02*
X154552345Y-92956120D01*
X154552345Y-92956120D02*
X154590441Y-92994215D01*
X154590441Y-92994215D02*
X154628536Y-93070406D01*
X154628536Y-93070406D02*
X154628536Y-93298977D01*
X154628536Y-93298977D02*
X154590441Y-93375168D01*
X154590441Y-93375168D02*
X154552345Y-93413263D01*
X167186912Y-90068335D02*
X167301111Y-90029980D01*
X167301111Y-90029980D02*
X167453232Y-89915349D01*
X167453232Y-89915349D02*
X167491155Y-89839072D01*
X167491155Y-89839072D02*
X167498652Y-89785721D01*
X167498652Y-89785721D02*
X167483224Y-89701947D01*
X167483224Y-89701947D02*
X167437372Y-89641098D01*
X167437372Y-89641098D02*
X167361095Y-89603176D01*
X167361095Y-89603176D02*
X167307744Y-89595678D01*
X167307744Y-89595678D02*
X167223970Y-89611107D01*
X167223970Y-89611107D02*
X167079346Y-89672388D01*
X167079346Y-89672388D02*
X166995572Y-89687816D01*
X166995572Y-89687816D02*
X166942221Y-89680318D01*
X166942221Y-89680318D02*
X166865944Y-89642396D01*
X166865944Y-89642396D02*
X166820092Y-89581547D01*
X166820092Y-89581547D02*
X166804664Y-89497773D01*
X166804664Y-89497773D02*
X166812161Y-89444422D01*
X166812161Y-89444422D02*
X166850084Y-89368145D01*
X166850084Y-89368145D02*
X167002205Y-89253514D01*
X167002205Y-89253514D02*
X167116404Y-89215159D01*
X167306447Y-89024251D02*
X167940020Y-89548528D01*
X167940020Y-89548528D02*
X167717823Y-89000460D01*
X167717823Y-89000460D02*
X168183414Y-89365118D01*
X168183414Y-89365118D02*
X167854083Y-88611578D01*
X168401719Y-88198905D02*
X168097477Y-88428167D01*
X168097477Y-88428167D02*
X168296315Y-88755336D01*
X168296315Y-88755336D02*
X168303813Y-88701985D01*
X168303813Y-88701985D02*
X168341735Y-88625709D01*
X168341735Y-88625709D02*
X168493856Y-88511077D01*
X168493856Y-88511077D02*
X168577631Y-88495649D01*
X168577631Y-88495649D02*
X168630982Y-88503147D01*
X168630982Y-88503147D02*
X168707258Y-88541069D01*
X168707258Y-88541069D02*
X168821890Y-88693190D01*
X168821890Y-88693190D02*
X168837318Y-88776965D01*
X168837318Y-88776965D02*
X168829820Y-88830315D01*
X168829820Y-88830315D02*
X168791898Y-88906592D01*
X168791898Y-88906592D02*
X168639777Y-89021223D01*
X168639777Y-89021223D02*
X168556002Y-89036652D01*
X168556002Y-89036652D02*
X168502652Y-89029154D01*
X132898477Y-85955084D02*
X132936573Y-85993180D01*
X132936573Y-85993180D02*
X132974668Y-86107465D01*
X132974668Y-86107465D02*
X132974668Y-86183656D01*
X132974668Y-86183656D02*
X132936573Y-86297942D01*
X132936573Y-86297942D02*
X132860382Y-86374132D01*
X132860382Y-86374132D02*
X132784192Y-86412227D01*
X132784192Y-86412227D02*
X132631811Y-86450323D01*
X132631811Y-86450323D02*
X132517525Y-86450323D01*
X132517525Y-86450323D02*
X132365144Y-86412227D01*
X132365144Y-86412227D02*
X132288953Y-86374132D01*
X132288953Y-86374132D02*
X132212763Y-86297942D01*
X132212763Y-86297942D02*
X132174668Y-86183656D01*
X132174668Y-86183656D02*
X132174668Y-86107465D01*
X132174668Y-86107465D02*
X132212763Y-85993180D01*
X132212763Y-85993180D02*
X132250858Y-85955084D01*
X132250858Y-85650323D02*
X132212763Y-85612227D01*
X132212763Y-85612227D02*
X132174668Y-85536037D01*
X132174668Y-85536037D02*
X132174668Y-85345561D01*
X132174668Y-85345561D02*
X132212763Y-85269370D01*
X132212763Y-85269370D02*
X132250858Y-85231275D01*
X132250858Y-85231275D02*
X132327049Y-85193180D01*
X132327049Y-85193180D02*
X132403239Y-85193180D01*
X132403239Y-85193180D02*
X132517525Y-85231275D01*
X132517525Y-85231275D02*
X132974668Y-85688418D01*
X132974668Y-85688418D02*
X132974668Y-85193180D01*
X147520869Y-115103944D02*
X147558965Y-115142040D01*
X147558965Y-115142040D02*
X147597060Y-115256325D01*
X147597060Y-115256325D02*
X147597060Y-115332516D01*
X147597060Y-115332516D02*
X147558965Y-115446802D01*
X147558965Y-115446802D02*
X147482774Y-115522992D01*
X147482774Y-115522992D02*
X147406584Y-115561087D01*
X147406584Y-115561087D02*
X147254203Y-115599183D01*
X147254203Y-115599183D02*
X147139917Y-115599183D01*
X147139917Y-115599183D02*
X146987536Y-115561087D01*
X146987536Y-115561087D02*
X146911345Y-115522992D01*
X146911345Y-115522992D02*
X146835155Y-115446802D01*
X146835155Y-115446802D02*
X146797060Y-115332516D01*
X146797060Y-115332516D02*
X146797060Y-115256325D01*
X146797060Y-115256325D02*
X146835155Y-115142040D01*
X146835155Y-115142040D02*
X146873250Y-115103944D01*
X146797060Y-114837278D02*
X146797060Y-114303944D01*
X146797060Y-114303944D02*
X147597060Y-114646802D01*
X85216667Y-97597751D02*
X84950000Y-97216798D01*
X84759524Y-97597751D02*
X84759524Y-96797751D01*
X84759524Y-96797751D02*
X85064286Y-96797751D01*
X85064286Y-96797751D02*
X85140476Y-96835846D01*
X85140476Y-96835846D02*
X85178571Y-96873941D01*
X85178571Y-96873941D02*
X85216667Y-96950132D01*
X85216667Y-96950132D02*
X85216667Y-97064417D01*
X85216667Y-97064417D02*
X85178571Y-97140608D01*
X85178571Y-97140608D02*
X85140476Y-97178703D01*
X85140476Y-97178703D02*
X85064286Y-97216798D01*
X85064286Y-97216798D02*
X84759524Y-97216798D01*
X85940476Y-96797751D02*
X85559524Y-96797751D01*
X85559524Y-96797751D02*
X85521428Y-97178703D01*
X85521428Y-97178703D02*
X85559524Y-97140608D01*
X85559524Y-97140608D02*
X85635714Y-97102513D01*
X85635714Y-97102513D02*
X85826190Y-97102513D01*
X85826190Y-97102513D02*
X85902381Y-97140608D01*
X85902381Y-97140608D02*
X85940476Y-97178703D01*
X85940476Y-97178703D02*
X85978571Y-97254894D01*
X85978571Y-97254894D02*
X85978571Y-97445370D01*
X85978571Y-97445370D02*
X85940476Y-97521560D01*
X85940476Y-97521560D02*
X85902381Y-97559656D01*
X85902381Y-97559656D02*
X85826190Y-97597751D01*
X85826190Y-97597751D02*
X85635714Y-97597751D01*
X85635714Y-97597751D02*
X85559524Y-97559656D01*
X85559524Y-97559656D02*
X85521428Y-97521560D01*
X138890480Y-73489861D02*
X138890480Y-74137480D01*
X138890480Y-74137480D02*
X138928575Y-74213670D01*
X138928575Y-74213670D02*
X138966670Y-74251766D01*
X138966670Y-74251766D02*
X139042861Y-74289861D01*
X139042861Y-74289861D02*
X139195242Y-74289861D01*
X139195242Y-74289861D02*
X139271432Y-74251766D01*
X139271432Y-74251766D02*
X139309527Y-74213670D01*
X139309527Y-74213670D02*
X139347623Y-74137480D01*
X139347623Y-74137480D02*
X139347623Y-73489861D01*
X140147622Y-74289861D02*
X139690479Y-74289861D01*
X139919051Y-74289861D02*
X139919051Y-73489861D01*
X139919051Y-73489861D02*
X139842860Y-73604146D01*
X139842860Y-73604146D02*
X139766670Y-73680337D01*
X139766670Y-73680337D02*
X139690479Y-73718432D01*
X123722137Y-97383864D02*
X123760233Y-97421960D01*
X123760233Y-97421960D02*
X123798328Y-97536245D01*
X123798328Y-97536245D02*
X123798328Y-97612436D01*
X123798328Y-97612436D02*
X123760233Y-97726722D01*
X123760233Y-97726722D02*
X123684042Y-97802912D01*
X123684042Y-97802912D02*
X123607852Y-97841007D01*
X123607852Y-97841007D02*
X123455471Y-97879103D01*
X123455471Y-97879103D02*
X123341185Y-97879103D01*
X123341185Y-97879103D02*
X123188804Y-97841007D01*
X123188804Y-97841007D02*
X123112613Y-97802912D01*
X123112613Y-97802912D02*
X123036423Y-97726722D01*
X123036423Y-97726722D02*
X122998328Y-97612436D01*
X122998328Y-97612436D02*
X122998328Y-97536245D01*
X122998328Y-97536245D02*
X123036423Y-97421960D01*
X123036423Y-97421960D02*
X123074518Y-97383864D01*
X123264994Y-96698150D02*
X123798328Y-96698150D01*
X122960233Y-96888626D02*
X123531661Y-97079103D01*
X123531661Y-97079103D02*
X123531661Y-96583864D01*
X101608333Y-75239895D02*
X101608333Y-75811323D01*
X101608333Y-75811323D02*
X101570238Y-75925609D01*
X101570238Y-75925609D02*
X101494047Y-76001800D01*
X101494047Y-76001800D02*
X101379762Y-76039895D01*
X101379762Y-76039895D02*
X101303571Y-76039895D01*
X102408333Y-76039895D02*
X101951190Y-76039895D01*
X102179762Y-76039895D02*
X102179762Y-75239895D01*
X102179762Y-75239895D02*
X102103571Y-75354180D01*
X102103571Y-75354180D02*
X102027381Y-75430371D01*
X102027381Y-75430371D02*
X101951190Y-75468466D01*
X148295027Y-76617597D02*
X148295027Y-77189025D01*
X148295027Y-77189025D02*
X148256932Y-77303311D01*
X148256932Y-77303311D02*
X148180741Y-77379502D01*
X148180741Y-77379502D02*
X148066456Y-77417597D01*
X148066456Y-77417597D02*
X147990265Y-77417597D01*
X148637884Y-76693787D02*
X148675980Y-76655692D01*
X148675980Y-76655692D02*
X148752170Y-76617597D01*
X148752170Y-76617597D02*
X148942646Y-76617597D01*
X148942646Y-76617597D02*
X149018837Y-76655692D01*
X149018837Y-76655692D02*
X149056932Y-76693787D01*
X149056932Y-76693787D02*
X149095027Y-76769978D01*
X149095027Y-76769978D02*
X149095027Y-76846168D01*
X149095027Y-76846168D02*
X149056932Y-76960454D01*
X149056932Y-76960454D02*
X148599789Y-77417597D01*
X148599789Y-77417597D02*
X149095027Y-77417597D01*
X185044835Y-113427928D02*
X185159034Y-113389573D01*
X185159034Y-113389573D02*
X185311155Y-113274942D01*
X185311155Y-113274942D02*
X185349078Y-113198665D01*
X185349078Y-113198665D02*
X185356575Y-113145314D01*
X185356575Y-113145314D02*
X185341147Y-113061540D01*
X185341147Y-113061540D02*
X185295295Y-113000691D01*
X185295295Y-113000691D02*
X185219018Y-112962769D01*
X185219018Y-112962769D02*
X185165667Y-112955271D01*
X185165667Y-112955271D02*
X185081893Y-112970700D01*
X185081893Y-112970700D02*
X184937269Y-113031981D01*
X184937269Y-113031981D02*
X184853495Y-113047409D01*
X184853495Y-113047409D02*
X184800144Y-113039911D01*
X184800144Y-113039911D02*
X184723867Y-113001989D01*
X184723867Y-113001989D02*
X184678015Y-112941140D01*
X184678015Y-112941140D02*
X184662587Y-112857366D01*
X184662587Y-112857366D02*
X184670084Y-112804015D01*
X184670084Y-112804015D02*
X184708007Y-112727738D01*
X184708007Y-112727738D02*
X184860128Y-112613107D01*
X184860128Y-112613107D02*
X184974327Y-112574752D01*
X185164370Y-112383844D02*
X185797943Y-112908121D01*
X185797943Y-112908121D02*
X185575746Y-112360053D01*
X185575746Y-112360053D02*
X186041337Y-112724711D01*
X186041337Y-112724711D02*
X185712006Y-111971171D01*
X185894551Y-111833613D02*
X186320490Y-111512645D01*
X186320490Y-111512645D02*
X186528124Y-112357890D01*
X150752206Y-120346530D02*
X150714110Y-120384626D01*
X150714110Y-120384626D02*
X150599825Y-120422721D01*
X150599825Y-120422721D02*
X150523634Y-120422721D01*
X150523634Y-120422721D02*
X150409348Y-120384626D01*
X150409348Y-120384626D02*
X150333158Y-120308435D01*
X150333158Y-120308435D02*
X150295063Y-120232245D01*
X150295063Y-120232245D02*
X150256967Y-120079864D01*
X150256967Y-120079864D02*
X150256967Y-119965578D01*
X150256967Y-119965578D02*
X150295063Y-119813197D01*
X150295063Y-119813197D02*
X150333158Y-119737006D01*
X150333158Y-119737006D02*
X150409348Y-119660816D01*
X150409348Y-119660816D02*
X150523634Y-119622721D01*
X150523634Y-119622721D02*
X150599825Y-119622721D01*
X150599825Y-119622721D02*
X150714110Y-119660816D01*
X150714110Y-119660816D02*
X150752206Y-119698911D01*
X151133158Y-120422721D02*
X151285539Y-120422721D01*
X151285539Y-120422721D02*
X151361729Y-120384626D01*
X151361729Y-120384626D02*
X151399825Y-120346530D01*
X151399825Y-120346530D02*
X151476015Y-120232245D01*
X151476015Y-120232245D02*
X151514110Y-120079864D01*
X151514110Y-120079864D02*
X151514110Y-119775102D01*
X151514110Y-119775102D02*
X151476015Y-119698911D01*
X151476015Y-119698911D02*
X151437920Y-119660816D01*
X151437920Y-119660816D02*
X151361729Y-119622721D01*
X151361729Y-119622721D02*
X151209348Y-119622721D01*
X151209348Y-119622721D02*
X151133158Y-119660816D01*
X151133158Y-119660816D02*
X151095063Y-119698911D01*
X151095063Y-119698911D02*
X151056967Y-119775102D01*
X151056967Y-119775102D02*
X151056967Y-119965578D01*
X151056967Y-119965578D02*
X151095063Y-120041768D01*
X151095063Y-120041768D02*
X151133158Y-120079864D01*
X151133158Y-120079864D02*
X151209348Y-120117959D01*
X151209348Y-120117959D02*
X151361729Y-120117959D01*
X151361729Y-120117959D02*
X151437920Y-120079864D01*
X151437920Y-120079864D02*
X151476015Y-120041768D01*
X151476015Y-120041768D02*
X151514110Y-119965578D01*
X130779476Y-89111595D02*
X130779476Y-89759214D01*
X130779476Y-89759214D02*
X130817571Y-89835404D01*
X130817571Y-89835404D02*
X130855666Y-89873500D01*
X130855666Y-89873500D02*
X130931857Y-89911595D01*
X130931857Y-89911595D02*
X131084238Y-89911595D01*
X131084238Y-89911595D02*
X131160428Y-89873500D01*
X131160428Y-89873500D02*
X131198523Y-89835404D01*
X131198523Y-89835404D02*
X131236619Y-89759214D01*
X131236619Y-89759214D02*
X131236619Y-89111595D01*
X131579475Y-89187785D02*
X131617571Y-89149690D01*
X131617571Y-89149690D02*
X131693761Y-89111595D01*
X131693761Y-89111595D02*
X131884237Y-89111595D01*
X131884237Y-89111595D02*
X131960428Y-89149690D01*
X131960428Y-89149690D02*
X131998523Y-89187785D01*
X131998523Y-89187785D02*
X132036618Y-89263976D01*
X132036618Y-89263976D02*
X132036618Y-89340166D01*
X132036618Y-89340166D02*
X131998523Y-89454452D01*
X131998523Y-89454452D02*
X131541380Y-89911595D01*
X131541380Y-89911595D02*
X132036618Y-89911595D01*
X154593335Y-87554542D02*
X153793335Y-87554542D01*
X153793335Y-87554542D02*
X153793335Y-87364066D01*
X153793335Y-87364066D02*
X153831430Y-87249780D01*
X153831430Y-87249780D02*
X153907620Y-87173590D01*
X153907620Y-87173590D02*
X153983811Y-87135495D01*
X153983811Y-87135495D02*
X154136192Y-87097399D01*
X154136192Y-87097399D02*
X154250478Y-87097399D01*
X154250478Y-87097399D02*
X154402859Y-87135495D01*
X154402859Y-87135495D02*
X154479049Y-87173590D01*
X154479049Y-87173590D02*
X154555240Y-87249780D01*
X154555240Y-87249780D02*
X154593335Y-87364066D01*
X154593335Y-87364066D02*
X154593335Y-87554542D01*
X153869525Y-86792638D02*
X153831430Y-86754542D01*
X153831430Y-86754542D02*
X153793335Y-86678352D01*
X153793335Y-86678352D02*
X153793335Y-86487876D01*
X153793335Y-86487876D02*
X153831430Y-86411685D01*
X153831430Y-86411685D02*
X153869525Y-86373590D01*
X153869525Y-86373590D02*
X153945716Y-86335495D01*
X153945716Y-86335495D02*
X154021906Y-86335495D01*
X154021906Y-86335495D02*
X154136192Y-86373590D01*
X154136192Y-86373590D02*
X154593335Y-86830733D01*
X154593335Y-86830733D02*
X154593335Y-86335495D01*
X123377704Y-86580032D02*
X123415800Y-86618128D01*
X123415800Y-86618128D02*
X123453895Y-86732413D01*
X123453895Y-86732413D02*
X123453895Y-86808604D01*
X123453895Y-86808604D02*
X123415800Y-86922890D01*
X123415800Y-86922890D02*
X123339609Y-86999080D01*
X123339609Y-86999080D02*
X123263419Y-87037175D01*
X123263419Y-87037175D02*
X123111038Y-87075271D01*
X123111038Y-87075271D02*
X122996752Y-87075271D01*
X122996752Y-87075271D02*
X122844371Y-87037175D01*
X122844371Y-87037175D02*
X122768180Y-86999080D01*
X122768180Y-86999080D02*
X122691990Y-86922890D01*
X122691990Y-86922890D02*
X122653895Y-86808604D01*
X122653895Y-86808604D02*
X122653895Y-86732413D01*
X122653895Y-86732413D02*
X122691990Y-86618128D01*
X122691990Y-86618128D02*
X122730085Y-86580032D01*
X123453895Y-85818128D02*
X123453895Y-86275271D01*
X123453895Y-86046699D02*
X122653895Y-86046699D01*
X122653895Y-86046699D02*
X122768180Y-86122890D01*
X122768180Y-86122890D02*
X122844371Y-86199080D01*
X122844371Y-86199080D02*
X122882466Y-86275271D01*
X145490476Y-100989895D02*
X145490476Y-101637514D01*
X145490476Y-101637514D02*
X145528571Y-101713704D01*
X145528571Y-101713704D02*
X145566666Y-101751800D01*
X145566666Y-101751800D02*
X145642857Y-101789895D01*
X145642857Y-101789895D02*
X145795238Y-101789895D01*
X145795238Y-101789895D02*
X145871428Y-101751800D01*
X145871428Y-101751800D02*
X145909523Y-101713704D01*
X145909523Y-101713704D02*
X145947619Y-101637514D01*
X145947619Y-101637514D02*
X145947619Y-100989895D01*
X146671428Y-101256561D02*
X146671428Y-101789895D01*
X146480952Y-100951800D02*
X146290475Y-101523228D01*
X146290475Y-101523228D02*
X146785714Y-101523228D01*
X159398600Y-91816337D02*
X159322410Y-91778242D01*
X159322410Y-91778242D02*
X159246219Y-91702052D01*
X159246219Y-91702052D02*
X159131933Y-91587766D01*
X159131933Y-91587766D02*
X159055743Y-91549671D01*
X159055743Y-91549671D02*
X158979552Y-91549671D01*
X159017648Y-91740147D02*
X158941457Y-91702052D01*
X158941457Y-91702052D02*
X158865267Y-91625861D01*
X158865267Y-91625861D02*
X158827171Y-91473480D01*
X158827171Y-91473480D02*
X158827171Y-91206813D01*
X158827171Y-91206813D02*
X158865267Y-91054432D01*
X158865267Y-91054432D02*
X158941457Y-90978242D01*
X158941457Y-90978242D02*
X159017648Y-90940147D01*
X159017648Y-90940147D02*
X159170029Y-90940147D01*
X159170029Y-90940147D02*
X159246219Y-90978242D01*
X159246219Y-90978242D02*
X159322410Y-91054432D01*
X159322410Y-91054432D02*
X159360505Y-91206813D01*
X159360505Y-91206813D02*
X159360505Y-91473480D01*
X159360505Y-91473480D02*
X159322410Y-91625861D01*
X159322410Y-91625861D02*
X159246219Y-91702052D01*
X159246219Y-91702052D02*
X159170029Y-91740147D01*
X159170029Y-91740147D02*
X159017648Y-91740147D01*
X160122409Y-91740147D02*
X159665266Y-91740147D01*
X159893838Y-91740147D02*
X159893838Y-90940147D01*
X159893838Y-90940147D02*
X159817647Y-91054432D01*
X159817647Y-91054432D02*
X159741457Y-91130623D01*
X159741457Y-91130623D02*
X159665266Y-91168718D01*
X123714925Y-120539258D02*
X123333972Y-120805925D01*
X123714925Y-120996401D02*
X122914925Y-120996401D01*
X122914925Y-120996401D02*
X122914925Y-120691639D01*
X122914925Y-120691639D02*
X122953020Y-120615449D01*
X122953020Y-120615449D02*
X122991115Y-120577354D01*
X122991115Y-120577354D02*
X123067306Y-120539258D01*
X123067306Y-120539258D02*
X123181591Y-120539258D01*
X123181591Y-120539258D02*
X123257782Y-120577354D01*
X123257782Y-120577354D02*
X123295877Y-120615449D01*
X123295877Y-120615449D02*
X123333972Y-120691639D01*
X123333972Y-120691639D02*
X123333972Y-120996401D01*
X123714925Y-119777354D02*
X123714925Y-120234497D01*
X123714925Y-120005925D02*
X122914925Y-120005925D01*
X122914925Y-120005925D02*
X123029210Y-120082116D01*
X123029210Y-120082116D02*
X123105401Y-120158306D01*
X123105401Y-120158306D02*
X123143496Y-120234497D01*
X122991115Y-119472592D02*
X122953020Y-119434496D01*
X122953020Y-119434496D02*
X122914925Y-119358306D01*
X122914925Y-119358306D02*
X122914925Y-119167830D01*
X122914925Y-119167830D02*
X122953020Y-119091639D01*
X122953020Y-119091639D02*
X122991115Y-119053544D01*
X122991115Y-119053544D02*
X123067306Y-119015449D01*
X123067306Y-119015449D02*
X123143496Y-119015449D01*
X123143496Y-119015449D02*
X123257782Y-119053544D01*
X123257782Y-119053544D02*
X123714925Y-119510687D01*
X123714925Y-119510687D02*
X123714925Y-119015449D01*
X176982650Y-123334626D02*
X177084178Y-123269784D01*
X177084178Y-123269784D02*
X177204049Y-123121756D01*
X177204049Y-123121756D02*
X177222392Y-123038571D01*
X177222392Y-123038571D02*
X177216760Y-122984991D01*
X177216760Y-122984991D02*
X177181523Y-122907437D01*
X177181523Y-122907437D02*
X177122312Y-122859489D01*
X177122312Y-122859489D02*
X177039127Y-122841146D01*
X177039127Y-122841146D02*
X176985547Y-122846778D01*
X176985547Y-122846778D02*
X176907993Y-122882015D01*
X176907993Y-122882015D02*
X176782491Y-122976463D01*
X176782491Y-122976463D02*
X176704938Y-123011700D01*
X176704938Y-123011700D02*
X176651358Y-123017332D01*
X176651358Y-123017332D02*
X176568173Y-122998989D01*
X176568173Y-122998989D02*
X176508962Y-122951041D01*
X176508962Y-122951041D02*
X176473724Y-122873487D01*
X176473724Y-122873487D02*
X176468093Y-122819907D01*
X176468093Y-122819907D02*
X176486436Y-122736722D01*
X176486436Y-122736722D02*
X176606306Y-122588694D01*
X176606306Y-122588694D02*
X176707834Y-122523852D01*
X176846048Y-122292638D02*
X177587635Y-122648067D01*
X177587635Y-122648067D02*
X177239448Y-122170033D01*
X177239448Y-122170033D02*
X177779428Y-122411222D01*
X177779428Y-122411222D02*
X177277581Y-121759738D01*
X178115065Y-121996744D02*
X178210962Y-121878322D01*
X178210962Y-121878322D02*
X178229305Y-121795137D01*
X178229305Y-121795137D02*
X178223673Y-121741557D01*
X178223673Y-121741557D02*
X178182805Y-121610424D01*
X178182805Y-121610424D02*
X178088356Y-121484922D01*
X178088356Y-121484922D02*
X177851512Y-121293129D01*
X177851512Y-121293129D02*
X177768327Y-121274786D01*
X177768327Y-121274786D02*
X177714747Y-121280418D01*
X177714747Y-121280418D02*
X177637193Y-121315655D01*
X177637193Y-121315655D02*
X177541297Y-121434077D01*
X177541297Y-121434077D02*
X177522954Y-121517262D01*
X177522954Y-121517262D02*
X177528586Y-121570842D01*
X177528586Y-121570842D02*
X177563823Y-121648396D01*
X177563823Y-121648396D02*
X177711850Y-121768266D01*
X177711850Y-121768266D02*
X177795036Y-121786609D01*
X177795036Y-121786609D02*
X177848615Y-121780977D01*
X177848615Y-121780977D02*
X177926169Y-121745740D01*
X177926169Y-121745740D02*
X178022066Y-121627318D01*
X178022066Y-121627318D02*
X178040408Y-121544133D01*
X178040408Y-121544133D02*
X178034777Y-121490553D01*
X178034777Y-121490553D02*
X177999540Y-121412999D01*
X84835714Y-105219895D02*
X84569047Y-104838942D01*
X84378571Y-105219895D02*
X84378571Y-104419895D01*
X84378571Y-104419895D02*
X84683333Y-104419895D01*
X84683333Y-104419895D02*
X84759523Y-104457990D01*
X84759523Y-104457990D02*
X84797618Y-104496085D01*
X84797618Y-104496085D02*
X84835714Y-104572276D01*
X84835714Y-104572276D02*
X84835714Y-104686561D01*
X84835714Y-104686561D02*
X84797618Y-104762752D01*
X84797618Y-104762752D02*
X84759523Y-104800847D01*
X84759523Y-104800847D02*
X84683333Y-104838942D01*
X84683333Y-104838942D02*
X84378571Y-104838942D01*
X85597618Y-105219895D02*
X85140475Y-105219895D01*
X85369047Y-105219895D02*
X85369047Y-104419895D01*
X85369047Y-104419895D02*
X85292856Y-104534180D01*
X85292856Y-104534180D02*
X85216666Y-104610371D01*
X85216666Y-104610371D02*
X85140475Y-104648466D01*
X86359523Y-105219895D02*
X85902380Y-105219895D01*
X86130952Y-105219895D02*
X86130952Y-104419895D01*
X86130952Y-104419895D02*
X86054761Y-104534180D01*
X86054761Y-104534180D02*
X85978571Y-104610371D01*
X85978571Y-104610371D02*
X85902380Y-104648466D01*
X154564675Y-104402186D02*
X154667320Y-104339125D01*
X154667320Y-104339125D02*
X154789755Y-104193212D01*
X154789755Y-104193212D02*
X154809547Y-104110359D01*
X154809547Y-104110359D02*
X154804851Y-104056690D01*
X154804851Y-104056690D02*
X154770973Y-103978533D01*
X154770973Y-103978533D02*
X154712608Y-103929558D01*
X154712608Y-103929558D02*
X154629756Y-103909767D01*
X154629756Y-103909767D02*
X154576086Y-103914462D01*
X154576086Y-103914462D02*
X154497929Y-103948340D01*
X154497929Y-103948340D02*
X154370798Y-104040584D01*
X154370798Y-104040584D02*
X154292641Y-104074462D01*
X154292641Y-104074462D02*
X154238971Y-104079157D01*
X154238971Y-104079157D02*
X154156118Y-104059366D01*
X154156118Y-104059366D02*
X154097753Y-104010392D01*
X154097753Y-104010392D02*
X154063875Y-103932235D01*
X154063875Y-103932235D02*
X154059179Y-103878565D01*
X154059179Y-103878565D02*
X154078971Y-103795712D01*
X154078971Y-103795712D02*
X154201407Y-103649799D01*
X154201407Y-103649799D02*
X154304051Y-103586738D01*
X154446278Y-103357972D02*
X155181550Y-103726289D01*
X155181550Y-103726289D02*
X154841759Y-103242252D01*
X154841759Y-103242252D02*
X155377447Y-103492828D01*
X155377447Y-103492828D02*
X154887047Y-102832685D01*
X155419050Y-102732060D02*
X155340893Y-102765938D01*
X155340893Y-102765938D02*
X155287223Y-102770633D01*
X155287223Y-102770633D02*
X155204371Y-102750842D01*
X155204371Y-102750842D02*
X155175188Y-102726355D01*
X155175188Y-102726355D02*
X155141310Y-102648198D01*
X155141310Y-102648198D02*
X155136614Y-102594528D01*
X155136614Y-102594528D02*
X155156406Y-102511676D01*
X155156406Y-102511676D02*
X155254355Y-102394945D01*
X155254355Y-102394945D02*
X155332511Y-102361067D01*
X155332511Y-102361067D02*
X155386181Y-102356371D01*
X155386181Y-102356371D02*
X155469034Y-102376163D01*
X155469034Y-102376163D02*
X155498216Y-102400650D01*
X155498216Y-102400650D02*
X155532094Y-102478807D01*
X155532094Y-102478807D02*
X155536790Y-102532477D01*
X155536790Y-102532477D02*
X155516998Y-102615329D01*
X155516998Y-102615329D02*
X155419050Y-102732060D01*
X155419050Y-102732060D02*
X155399258Y-102814912D01*
X155399258Y-102814912D02*
X155403954Y-102868582D01*
X155403954Y-102868582D02*
X155437832Y-102946739D01*
X155437832Y-102946739D02*
X155554562Y-103044688D01*
X155554562Y-103044688D02*
X155637415Y-103064479D01*
X155637415Y-103064479D02*
X155691085Y-103059784D01*
X155691085Y-103059784D02*
X155769242Y-103025906D01*
X155769242Y-103025906D02*
X155867190Y-102909175D01*
X155867190Y-102909175D02*
X155886982Y-102826323D01*
X155886982Y-102826323D02*
X155882286Y-102772653D01*
X155882286Y-102772653D02*
X155848408Y-102694496D01*
X155848408Y-102694496D02*
X155731678Y-102596547D01*
X155731678Y-102596547D02*
X155648825Y-102576756D01*
X155648825Y-102576756D02*
X155595155Y-102581451D01*
X155595155Y-102581451D02*
X155516998Y-102615329D01*
X85191667Y-95102037D02*
X84925000Y-94721084D01*
X84734524Y-95102037D02*
X84734524Y-94302037D01*
X84734524Y-94302037D02*
X85039286Y-94302037D01*
X85039286Y-94302037D02*
X85115476Y-94340132D01*
X85115476Y-94340132D02*
X85153571Y-94378227D01*
X85153571Y-94378227D02*
X85191667Y-94454418D01*
X85191667Y-94454418D02*
X85191667Y-94568703D01*
X85191667Y-94568703D02*
X85153571Y-94644894D01*
X85153571Y-94644894D02*
X85115476Y-94682989D01*
X85115476Y-94682989D02*
X85039286Y-94721084D01*
X85039286Y-94721084D02*
X84734524Y-94721084D01*
X85877381Y-94302037D02*
X85725000Y-94302037D01*
X85725000Y-94302037D02*
X85648809Y-94340132D01*
X85648809Y-94340132D02*
X85610714Y-94378227D01*
X85610714Y-94378227D02*
X85534524Y-94492513D01*
X85534524Y-94492513D02*
X85496428Y-94644894D01*
X85496428Y-94644894D02*
X85496428Y-94949656D01*
X85496428Y-94949656D02*
X85534524Y-95025846D01*
X85534524Y-95025846D02*
X85572619Y-95063942D01*
X85572619Y-95063942D02*
X85648809Y-95102037D01*
X85648809Y-95102037D02*
X85801190Y-95102037D01*
X85801190Y-95102037D02*
X85877381Y-95063942D01*
X85877381Y-95063942D02*
X85915476Y-95025846D01*
X85915476Y-95025846D02*
X85953571Y-94949656D01*
X85953571Y-94949656D02*
X85953571Y-94759180D01*
X85953571Y-94759180D02*
X85915476Y-94682989D01*
X85915476Y-94682989D02*
X85877381Y-94644894D01*
X85877381Y-94644894D02*
X85801190Y-94606799D01*
X85801190Y-94606799D02*
X85648809Y-94606799D01*
X85648809Y-94606799D02*
X85572619Y-94644894D01*
X85572619Y-94644894D02*
X85534524Y-94682989D01*
X85534524Y-94682989D02*
X85496428Y-94759180D01*
X133339895Y-75633333D02*
X133339895Y-76014285D01*
X133339895Y-76014285D02*
X132539895Y-76014285D01*
X133339895Y-74947619D02*
X133339895Y-75404762D01*
X133339895Y-75176190D02*
X132539895Y-75176190D01*
X132539895Y-75176190D02*
X132654180Y-75252381D01*
X132654180Y-75252381D02*
X132730371Y-75328571D01*
X132730371Y-75328571D02*
X132768466Y-75404762D01*
X163137927Y-88782825D02*
X162871260Y-88401872D01*
X162680784Y-88782825D02*
X162680784Y-87982825D01*
X162680784Y-87982825D02*
X162985546Y-87982825D01*
X162985546Y-87982825D02*
X163061736Y-88020920D01*
X163061736Y-88020920D02*
X163099831Y-88059015D01*
X163099831Y-88059015D02*
X163137927Y-88135206D01*
X163137927Y-88135206D02*
X163137927Y-88249491D01*
X163137927Y-88249491D02*
X163099831Y-88325682D01*
X163099831Y-88325682D02*
X163061736Y-88363777D01*
X163061736Y-88363777D02*
X162985546Y-88401872D01*
X162985546Y-88401872D02*
X162680784Y-88401872D01*
X163442688Y-88059015D02*
X163480784Y-88020920D01*
X163480784Y-88020920D02*
X163556974Y-87982825D01*
X163556974Y-87982825D02*
X163747450Y-87982825D01*
X163747450Y-87982825D02*
X163823641Y-88020920D01*
X163823641Y-88020920D02*
X163861736Y-88059015D01*
X163861736Y-88059015D02*
X163899831Y-88135206D01*
X163899831Y-88135206D02*
X163899831Y-88211396D01*
X163899831Y-88211396D02*
X163861736Y-88325682D01*
X163861736Y-88325682D02*
X163404593Y-88782825D01*
X163404593Y-88782825D02*
X163899831Y-88782825D01*
D13*
%TO.C,D4*%
X130190000Y-95977500D02*
X130190000Y-98662500D01*
X132110000Y-95977500D02*
X130190000Y-95977500D01*
X132110000Y-98662500D02*
X132110000Y-95977500D01*
%TO.C,C6*%
X124023100Y-117198920D02*
X124023100Y-117480080D01*
X125043100Y-117198920D02*
X125043100Y-117480080D01*
D14*
%TO.C,SW4*%
X139200000Y-84424100D02*
X139200000Y-86224100D01*
X139200000Y-84424100D02*
X151200000Y-84424100D01*
X139200000Y-91424100D02*
X139200000Y-89424100D01*
X139200000Y-96424100D02*
X139200000Y-94624100D01*
X151200000Y-84424100D02*
X151200000Y-86224100D01*
X151200000Y-91424100D02*
X151200000Y-89424100D01*
X151200000Y-94624100D02*
X151200000Y-96424100D01*
X151200000Y-96424100D02*
X139200000Y-96424100D01*
D10*
X137075000Y-87924100D02*
G75*
G02*
X136875000Y-87924100I-100000J0D01*
G01*
X136875000Y-87924100D02*
G75*
G02*
X137075000Y-87924100I100000J0D01*
G01*
D13*
%TO.C,R3*%
X85443641Y-90270714D02*
X85136359Y-90270714D01*
X85443641Y-91030714D02*
X85136359Y-91030714D01*
%TO.C,R10*%
X125193641Y-98995000D02*
X124886359Y-98995000D01*
X125193641Y-99755000D02*
X124886359Y-99755000D01*
%TO.C,R7*%
X132420000Y-96761359D02*
X132420000Y-97068641D01*
X133180000Y-96761359D02*
X133180000Y-97068641D01*
D14*
%TO.C,SW2*%
X158975000Y-77707500D02*
X158975000Y-81567500D01*
X161170000Y-82887500D02*
X170580000Y-82887500D01*
X170580000Y-76387500D02*
X161170000Y-76387500D01*
X172775000Y-81567500D02*
X172775000Y-77707500D01*
D10*
X173775000Y-81037500D02*
G75*
G02*
X173575000Y-81037500I-100000J0D01*
G01*
X173575000Y-81037500D02*
G75*
G02*
X173775000Y-81037500I100000J0D01*
G01*
D13*
%TO.C,C3*%
X161090680Y-86550800D02*
X160809520Y-86550800D01*
X161090680Y-87570800D02*
X160809520Y-87570800D01*
D14*
%TO.C,SW1*%
X93200000Y-77000000D02*
X93200000Y-76000000D01*
X96550000Y-74900000D02*
X94050000Y-74900000D01*
X96550000Y-78100000D02*
X94050000Y-78100000D01*
X97400000Y-77000000D02*
X97400000Y-76000000D01*
X98200000Y-77650000D02*
G75*
G02*
X98100000Y-77650000I-50000J0D01*
G01*
X98100000Y-77650000D02*
G75*
G02*
X98200000Y-77650000I50000J0D01*
G01*
X98311803Y-77650000D02*
G75*
G02*
X98088197Y-77650000I-111803J0D01*
G01*
X98088197Y-77650000D02*
G75*
G02*
X98311803Y-77650000I111803J0D01*
G01*
D13*
%TO.C,R1*%
X85443641Y-87730000D02*
X85136359Y-87730000D01*
X85443641Y-88490000D02*
X85136359Y-88490000D01*
%TO.C,J3*%
X121020000Y-106680000D02*
X122350000Y-106680000D01*
X121020000Y-108010000D02*
X121020000Y-106680000D01*
X121020000Y-109280000D02*
X121020000Y-114420000D01*
X121020000Y-109280000D02*
X123680000Y-109280000D01*
X121020000Y-114420000D02*
X123680000Y-114420000D01*
X123680000Y-109280000D02*
X123680000Y-114420000D01*
%TO.C,R13*%
X121882100Y-117740859D02*
X121882100Y-118048141D01*
X122642100Y-117740859D02*
X122642100Y-118048141D01*
D14*
%TO.C,SW6*%
X189462484Y-92395258D02*
X191119393Y-91691942D01*
X194151258Y-103441316D02*
X189462484Y-92395258D01*
X194151258Y-103441316D02*
X195808166Y-102738000D01*
X195906018Y-89660140D02*
X194065008Y-90441602D01*
X198851634Y-88409800D02*
X200508542Y-87706484D01*
X200508542Y-87706484D02*
X205197316Y-98752542D01*
X200594792Y-100706198D02*
X198753782Y-101487660D01*
X205197316Y-98752542D02*
X203540407Y-99455858D01*
D10*
X198342401Y-104121880D02*
G75*
G02*
X198142401Y-104121880I-100000J0D01*
G01*
X198142401Y-104121880D02*
G75*
G02*
X198342401Y-104121880I100000J0D01*
G01*
D13*
%TO.C,R4*%
X85443641Y-92811428D02*
X85136359Y-92811428D01*
X85443641Y-93571428D02*
X85136359Y-93571428D01*
%TO.C,C8*%
X148381280Y-118262000D02*
X148100120Y-118262000D01*
X148381280Y-119282000D02*
X148100120Y-119282000D01*
D14*
%TO.C,M1*%
X95630000Y-99667500D02*
X97180000Y-99667500D01*
X95630000Y-107767500D02*
X95630000Y-99667500D01*
X97180000Y-99667500D02*
X97180000Y-98547500D01*
X97180000Y-107767500D02*
X95630000Y-107767500D01*
X99050000Y-95767500D02*
X100280000Y-95767500D01*
X99680000Y-111667500D02*
X99050000Y-111667500D01*
X99680000Y-117967500D02*
X99680000Y-111667500D01*
X100280000Y-95767500D02*
X100280000Y-92567500D01*
X109980000Y-92567500D02*
X109980000Y-95767500D01*
X109980000Y-95767500D02*
X111200000Y-95767500D01*
X110580000Y-111667500D02*
X110580000Y-117967500D01*
X110580000Y-117967500D02*
X99680000Y-117967500D01*
X111200000Y-111667500D02*
X110580000Y-111667500D01*
X113080000Y-98497500D02*
X113080000Y-98767500D01*
X113080000Y-98767500D02*
X116230000Y-98767500D01*
X116230000Y-98767500D02*
X116230000Y-108567500D01*
X116230000Y-108567500D02*
X113080000Y-108567500D01*
D10*
X111280000Y-117017500D02*
G75*
G02*
X111080000Y-117017500I-100000J0D01*
G01*
X111080000Y-117017500D02*
G75*
G02*
X111280000Y-117017500I100000J0D01*
G01*
D13*
%TO.C,R14*%
X148848300Y-117230541D02*
X148848300Y-116923259D01*
X149608300Y-117230541D02*
X149608300Y-116923259D01*
%TO.C,D1*%
X147100000Y-78824800D02*
X143300000Y-78824800D01*
X147100000Y-78824800D02*
X147100000Y-79574800D01*
X147100000Y-81624800D02*
X143300000Y-81624800D01*
%TO.C,R9*%
X85443641Y-102974284D02*
X85136359Y-102974284D01*
X85443641Y-103734284D02*
X85136359Y-103734284D01*
%TO.C,C5*%
X127584420Y-98790000D02*
X127865580Y-98790000D01*
X127584420Y-99810000D02*
X127865580Y-99810000D01*
%TO.C,U3*%
X129216400Y-96014200D02*
X126216400Y-96014200D01*
X129216400Y-98284200D02*
X126216400Y-98284200D01*
X129736400Y-98479200D02*
X129736400Y-98199200D01*
X130016400Y-98199200D01*
X129736400Y-98479200D01*
G36*
X129736400Y-98479200D02*
G01*
X129736400Y-98199200D01*
X130016400Y-98199200D01*
X129736400Y-98479200D01*
G37*
%TO.C,R8*%
X85443641Y-100433570D02*
X85136359Y-100433570D01*
X85443641Y-101193570D02*
X85136359Y-101193570D01*
D14*
%TO.C,SW3*%
X183984084Y-79531158D02*
X195030142Y-74842384D01*
X184687400Y-81188066D02*
X183984084Y-79531158D01*
X185937740Y-84133682D02*
X186719202Y-85974692D01*
X188672858Y-90577216D02*
X187969542Y-88920307D01*
X195030142Y-74842384D02*
X195733458Y-76499293D01*
X196983798Y-79444908D02*
X197765260Y-81285918D01*
X199718916Y-85888442D02*
X188672858Y-90577216D01*
X199718916Y-85888442D02*
X199015600Y-84231534D01*
D10*
X200499480Y-81797299D02*
G75*
G02*
X200299480Y-81797299I-100000J0D01*
G01*
X200299480Y-81797299D02*
G75*
G02*
X200499480Y-81797299I100000J0D01*
G01*
D13*
%TO.C,D3*%
X159310000Y-92551600D02*
X155450000Y-92551600D01*
X159310000Y-94551600D02*
X155450000Y-94551600D01*
X159310000Y-94551600D02*
X159310000Y-92551600D01*
D14*
%TO.C,SW5*%
X167550397Y-90701277D02*
X177134023Y-83479497D01*
X168633664Y-92138821D02*
X167550397Y-90701277D01*
X170559472Y-94694455D02*
X171763102Y-96291726D01*
X174772177Y-100284903D02*
X173688910Y-98847359D01*
X177134023Y-83479497D02*
X178217290Y-84917041D01*
X180143098Y-87472674D02*
X181346728Y-89069945D01*
X184355803Y-93063123D02*
X174772177Y-100284903D01*
X184355803Y-93063123D02*
X183272536Y-91625579D01*
D10*
X184126416Y-88928860D02*
G75*
G02*
X183926414Y-88928860I-100001J0D01*
G01*
X183926414Y-88928860D02*
G75*
G02*
X184126416Y-88928860I100001J0D01*
G01*
D13*
%TO.C,C2*%
X132154000Y-83544680D02*
X132154000Y-83263520D01*
X133174000Y-83544680D02*
X133174000Y-83263520D01*
%TO.C,C7*%
X146865000Y-116967464D02*
X146865000Y-117183136D01*
X147585000Y-116967464D02*
X147585000Y-117183136D01*
%TO.C,R5*%
X85443641Y-97892856D02*
X85136359Y-97892856D01*
X85443641Y-98652856D02*
X85136359Y-98652856D01*
%TO.C,U1*%
X137689100Y-74642600D02*
X136914100Y-74642600D01*
X137689100Y-74642600D02*
X138464100Y-74642600D01*
X137689100Y-77762600D02*
X136914100Y-77762600D01*
X137689100Y-77762600D02*
X138464100Y-77762600D01*
X136326600Y-74692600D02*
X136086600Y-74362600D01*
X136566600Y-74362600D01*
X136326600Y-74692600D01*
G36*
X136326600Y-74692600D02*
G01*
X136086600Y-74362600D01*
X136566600Y-74362600D01*
X136326600Y-74692600D01*
G37*
%TO.C,C4*%
X124240000Y-97340580D02*
X124240000Y-97059420D01*
X125260000Y-97340580D02*
X125260000Y-97059420D01*
%TO.C,J1*%
X102775000Y-76175000D02*
X102775000Y-75575000D01*
X103475000Y-74875000D02*
X104875000Y-74875000D01*
X104875000Y-76875000D02*
X103475000Y-76875000D01*
X105575000Y-75575000D02*
X105575000Y-76175000D01*
X102775000Y-75575000D02*
G75*
G02*
X103475000Y-74875000I700000J0D01*
G01*
X103475000Y-76875000D02*
G75*
G02*
X102775000Y-76175000I0J700000D01*
G01*
X104875000Y-74875000D02*
G75*
G02*
X105575000Y-75575000I1J-699999D01*
G01*
X105575000Y-76175000D02*
G75*
G02*
X104875000Y-76875000I-699999J-1D01*
G01*
%TO.C,J2*%
X141440000Y-72226300D02*
X141440000Y-71826300D01*
X141440000Y-74196300D02*
X141440000Y-76176300D01*
X141440000Y-76176300D02*
X141860000Y-76176300D01*
X146510000Y-76856300D02*
X146960000Y-76856300D01*
X146960000Y-76406300D02*
X146960000Y-76856300D01*
X148960000Y-71826300D02*
X148960000Y-72226300D01*
X148960000Y-74196300D02*
X148960000Y-76176300D01*
X148960000Y-76176300D02*
X148540000Y-76176300D01*
D14*
%TO.C,SW7*%
X175950797Y-101865177D02*
X177388341Y-100781910D01*
X181541245Y-97652472D02*
X179943974Y-98856102D01*
X183172577Y-111448803D02*
X175950797Y-101865177D01*
X183172577Y-111448803D02*
X184610121Y-110365536D01*
X184096879Y-95726664D02*
X185534423Y-94643397D01*
X185534423Y-94643397D02*
X192756203Y-104227023D01*
X188763026Y-107236098D02*
X187165755Y-108439728D01*
X192756203Y-104227023D02*
X191318659Y-105310290D01*
D10*
X187406841Y-111119415D02*
G75*
G02*
X187206839Y-111119415I-100001J0D01*
G01*
X187206839Y-111119415D02*
G75*
G02*
X187406841Y-111119415I100001J0D01*
G01*
D13*
%TO.C,C9*%
X148374336Y-119662900D02*
X148158664Y-119662900D01*
X148374336Y-120382900D02*
X148158664Y-120382900D01*
%TO.C,U2*%
X124504000Y-84471700D02*
X124504000Y-88231700D01*
X124504000Y-88231700D02*
X125764000Y-88231700D01*
X131324000Y-84471700D02*
X131324000Y-88231700D01*
X131324000Y-88231700D02*
X130064000Y-88231700D01*
X131554000Y-83431700D02*
X131224000Y-83191700D01*
X131554000Y-82951700D01*
X131554000Y-83431700D01*
G36*
X131554000Y-83431700D02*
G01*
X131224000Y-83191700D01*
X131554000Y-82951700D01*
X131554000Y-83431700D01*
G37*
%TO.C,D2*%
X159310000Y-86000000D02*
X155450000Y-86000000D01*
X159310000Y-88000000D02*
X155450000Y-88000000D01*
X159310000Y-88000000D02*
X159310000Y-86000000D01*
%TO.C,C1*%
X122654000Y-83587280D02*
X122654000Y-83306120D01*
X123674000Y-83587280D02*
X123674000Y-83306120D01*
%TO.C,U4*%
X126800000Y-101900000D02*
X126800000Y-102900000D01*
X126800000Y-101900000D02*
X128300000Y-101900000D01*
X126800000Y-127750000D02*
X126800000Y-121550000D01*
X145200000Y-101900000D02*
X143700000Y-101900000D01*
X145200000Y-102900000D02*
X145200000Y-101900000D01*
X145200000Y-127750000D02*
X126800000Y-127750000D01*
X145200000Y-127750000D02*
X145200000Y-121550000D01*
X145200000Y-121375000D02*
X145200000Y-120875000D01*
X145700000Y-120875000D01*
X145200000Y-121375000D01*
G36*
X145200000Y-121375000D02*
G01*
X145200000Y-120875000D01*
X145700000Y-120875000D01*
X145200000Y-121375000D01*
G37*
%TO.C,Q1*%
X155336800Y-90249300D02*
X155336800Y-89599300D01*
X155336800Y-90249300D02*
X155336800Y-90899300D01*
X158456800Y-90249300D02*
X158456800Y-89599300D01*
X158456800Y-90249300D02*
X158456800Y-90899300D01*
X158736800Y-89326800D02*
X158406800Y-89086800D01*
X158736800Y-88846800D01*
X158736800Y-89326800D01*
G36*
X158736800Y-89326800D02*
G01*
X158406800Y-89086800D01*
X158736800Y-88846800D01*
X158736800Y-89326800D01*
G37*
%TO.C,R12*%
X122879700Y-118048141D02*
X122879700Y-117740859D01*
X123639700Y-118048141D02*
X123639700Y-117740859D01*
D14*
%TO.C,SW9*%
X165255902Y-114267353D02*
X166388679Y-112868491D01*
X169661145Y-108827332D02*
X168402504Y-110381624D01*
X171674970Y-106340465D02*
X172807747Y-104941602D01*
X172807747Y-104941602D02*
X182133498Y-112493447D01*
X174581653Y-121819198D02*
X165255902Y-114267353D01*
X174581653Y-121819198D02*
X175714430Y-120420335D01*
X178986896Y-116379176D02*
X177728255Y-117933468D01*
X182133498Y-112493447D02*
X181000721Y-113892309D01*
D10*
X178613425Y-120499425D02*
G75*
G02*
X178413425Y-120499425I-100000J0D01*
G01*
X178413425Y-120499425D02*
G75*
G02*
X178613425Y-120499425I100000J0D01*
G01*
D13*
%TO.C,R11*%
X85443641Y-105515000D02*
X85136359Y-105515000D01*
X85443641Y-106275000D02*
X85136359Y-106275000D01*
D14*
%TO.C,SW8*%
X154406502Y-105515053D02*
X161958347Y-96189302D01*
X155805365Y-106647830D02*
X154406502Y-105515053D01*
X158292232Y-108661655D02*
X159846524Y-109920296D01*
X161958347Y-96189302D02*
X163357209Y-97322079D01*
X163732253Y-113066898D02*
X162333391Y-111934121D01*
X165844076Y-99335904D02*
X167398368Y-100594545D01*
X171284098Y-103741147D02*
X163732253Y-113066898D01*
X171284098Y-103741147D02*
X169885235Y-102608370D01*
D10*
X170064325Y-99809375D02*
G75*
G02*
X169864325Y-99809375I-100000J0D01*
G01*
X169864325Y-99809375D02*
G75*
G02*
X170064325Y-99809375I100000J0D01*
G01*
D13*
%TO.C,R6*%
X85443641Y-95352142D02*
X85136359Y-95352142D01*
X85443641Y-96112142D02*
X85136359Y-96112142D01*
%TO.C,R2*%
X160250459Y-88027500D02*
X160557741Y-88027500D01*
X160250459Y-88787500D02*
X160557741Y-88787500D01*
%TD*%
%LPC*%
D15*
%TO.C,D4*%
X131150000Y-96725000D03*
X131150000Y-98600000D03*
%TD*%
D16*
%TO.C,C6*%
X124533100Y-116564500D03*
X124533100Y-118114500D03*
%TD*%
D17*
%TO.C,SW4*%
X138950000Y-87924100D03*
D18*
X151450000Y-87924100D03*
X138950000Y-92924100D03*
X151450000Y-92924100D03*
%TD*%
D19*
%TO.C,R3*%
X85800000Y-90650714D03*
X84780000Y-90650714D03*
%TD*%
%TO.C,R10*%
X125550000Y-99375000D03*
X124530000Y-99375000D03*
%TD*%
D20*
%TO.C,R7*%
X132800000Y-96405000D03*
X132800000Y-97425000D03*
%TD*%
D21*
%TO.C,SW2*%
X169875000Y-80887500D03*
X165875000Y-80887500D03*
X161875000Y-80887500D03*
X169875000Y-78387500D03*
X165875000Y-78387500D03*
X161875000Y-78387500D03*
D22*
X171875000Y-82637500D03*
X159875000Y-82637500D03*
X171875000Y-76637500D03*
X159875000Y-76637500D03*
%TD*%
D23*
%TO.C,C3*%
X161725100Y-87060800D03*
X160175100Y-87060800D03*
%TD*%
D24*
%TO.C,SW1*%
X97375000Y-77575000D03*
X93225000Y-77575000D03*
X97375000Y-75425000D03*
X93225000Y-75425000D03*
%TD*%
D19*
%TO.C,R1*%
X85800000Y-88110000D03*
X84780000Y-88110000D03*
%TD*%
D25*
%TO.C,J3*%
X122350000Y-108010000D03*
D26*
X122350000Y-110550000D03*
X122350000Y-113090000D03*
%TD*%
D20*
%TO.C,R13*%
X122262100Y-117384500D03*
X122262100Y-118404500D03*
%TD*%
D27*
%TO.C,SW6*%
X197470707Y-102303883D03*
D18*
X192586568Y-90797572D03*
X202073232Y-100350228D03*
X197189093Y-88843917D03*
%TD*%
D19*
%TO.C,R4*%
X85800000Y-93191428D03*
X84780000Y-93191428D03*
%TD*%
D23*
%TO.C,C8*%
X149015700Y-118772000D03*
X147465700Y-118772000D03*
%TD*%
D28*
%TO.C,M1*%
X108305000Y-116367500D03*
X101955000Y-116367500D03*
X108305000Y-111287500D03*
X101955000Y-111287500D03*
X107670000Y-93507500D03*
X105130000Y-93507500D03*
X102590000Y-93507500D03*
D29*
X112750000Y-110335000D03*
X112750000Y-97000000D03*
X97510000Y-97000000D03*
X97510000Y-110335000D03*
D28*
X115290000Y-106207500D03*
X115290000Y-103667500D03*
X115290000Y-101127500D03*
%TD*%
D30*
%TO.C,R14*%
X149228300Y-117586900D03*
X149228300Y-116566900D03*
%TD*%
D31*
%TO.C,D1*%
X146200000Y-80874800D03*
X146200000Y-79574800D03*
X144200000Y-79574800D03*
X144200000Y-80874800D03*
%TD*%
D19*
%TO.C,R9*%
X85800000Y-103354284D03*
X84780000Y-103354284D03*
%TD*%
D32*
%TO.C,C5*%
X126950000Y-99300000D03*
X128500000Y-99300000D03*
%TD*%
D33*
%TO.C,U3*%
X129166400Y-97899200D03*
X129166400Y-97399200D03*
X129166400Y-96899200D03*
X129166400Y-96399200D03*
X126266400Y-96399200D03*
X126266400Y-96899200D03*
X126266400Y-97399200D03*
X126266400Y-97899200D03*
D34*
X127716400Y-97149200D03*
%TD*%
D19*
%TO.C,R8*%
X85800000Y-100813570D03*
X84780000Y-100813570D03*
%TD*%
D35*
%TO.C,SW3*%
X198581483Y-82568993D03*
D18*
X187075172Y-87453132D03*
X196627828Y-77966468D03*
X185121517Y-82850607D03*
%TD*%
D36*
%TO.C,D3*%
X158500000Y-93551600D03*
X155700000Y-93551600D03*
%TD*%
D37*
%TO.C,SW5*%
X182449109Y-90117445D03*
D18*
X172466166Y-97640133D03*
X179440034Y-86124267D03*
X169457091Y-93646955D03*
%TD*%
D38*
%TO.C,C2*%
X132664000Y-84179100D03*
X132664000Y-82629100D03*
%TD*%
D39*
%TO.C,C7*%
X147225000Y-116595300D03*
X147225000Y-117555300D03*
%TD*%
D19*
%TO.C,R5*%
X85800000Y-98272856D03*
X84780000Y-98272856D03*
%TD*%
D40*
%TO.C,U1*%
X136539100Y-75252600D03*
X136539100Y-76202600D03*
X136539100Y-77152600D03*
X138839100Y-77152600D03*
X138839100Y-76202600D03*
X138839100Y-75252600D03*
%TD*%
D38*
%TO.C,C4*%
X124750000Y-97975000D03*
X124750000Y-96425000D03*
%TD*%
D41*
%TO.C,J1*%
X104825000Y-75875000D03*
D42*
X103525000Y-75875000D03*
%TD*%
D43*
%TO.C,J2*%
X146500000Y-75916300D03*
X145850000Y-75916300D03*
X145200000Y-75916300D03*
X144550000Y-75916300D03*
X143900000Y-75916300D03*
D44*
X148700000Y-73216300D03*
D45*
X148100000Y-73216300D03*
D46*
X147700000Y-75916300D03*
D47*
X146200000Y-73216300D03*
X144200000Y-73216300D03*
D46*
X142700000Y-75916300D03*
D45*
X142300000Y-73216300D03*
D44*
X141700000Y-73216300D03*
%TD*%
D48*
%TO.C,SW7*%
X186118255Y-109542109D03*
D18*
X178595567Y-99559166D03*
X190111433Y-106533034D03*
X182588745Y-96550091D03*
%TD*%
D49*
%TO.C,C9*%
X148746500Y-120022900D03*
X147786500Y-120022900D03*
%TD*%
D50*
%TO.C,U2*%
X130214000Y-83171700D03*
X127914000Y-83171700D03*
D51*
X127914000Y-89471700D03*
D50*
X125614000Y-83171700D03*
%TD*%
D36*
%TO.C,D2*%
X158500000Y-87000000D03*
X155700000Y-87000000D03*
%TD*%
D38*
%TO.C,C1*%
X123164000Y-84221700D03*
X123164000Y-82671700D03*
%TD*%
D52*
%TO.C,U4*%
X144750000Y-120110000D03*
X144750000Y-118840000D03*
X144750000Y-117570000D03*
X144750000Y-116300000D03*
X144750000Y-115030000D03*
X144750000Y-113760000D03*
X144750000Y-112490000D03*
X144750000Y-111220000D03*
X144750000Y-109950000D03*
X144750000Y-108680000D03*
X144750000Y-107410000D03*
X144750000Y-106140000D03*
X144750000Y-104870000D03*
X144750000Y-103600000D03*
D53*
X142985000Y-102350000D03*
X141715000Y-102350000D03*
X140445000Y-102350000D03*
X139175000Y-102350000D03*
X137905000Y-102350000D03*
X136635000Y-102350000D03*
X135365000Y-102350000D03*
X134095000Y-102350000D03*
X132825000Y-102350000D03*
X131555000Y-102350000D03*
X130285000Y-102350000D03*
X129015000Y-102350000D03*
D52*
X127250000Y-103600000D03*
X127250000Y-104870000D03*
X127250000Y-106140000D03*
X127250000Y-107410000D03*
X127250000Y-108680000D03*
X127250000Y-109950000D03*
X127250000Y-111220000D03*
X127250000Y-112490000D03*
X127250000Y-113760000D03*
X127250000Y-115030000D03*
X127250000Y-116300000D03*
X127250000Y-117570000D03*
X127250000Y-118840000D03*
X127250000Y-120110000D03*
D54*
X138900000Y-113090000D03*
X138900000Y-111690000D03*
X138200000Y-113790000D03*
X138200000Y-112390000D03*
X138200000Y-110990000D03*
X137500000Y-113090000D03*
D55*
X137500000Y-112390000D03*
D54*
X137500000Y-111690000D03*
X136800000Y-113790000D03*
X136800000Y-112390000D03*
X136800000Y-110990000D03*
X136100000Y-113090000D03*
X136100000Y-111690000D03*
%TD*%
D56*
%TO.C,Q1*%
X157846800Y-89311800D03*
X155946800Y-89311800D03*
X156896800Y-91186800D03*
%TD*%
D30*
%TO.C,R12*%
X123259700Y-118404500D03*
X123259700Y-117384500D03*
%TD*%
D57*
%TO.C,SW9*%
X176978561Y-119256517D03*
D18*
X167264237Y-111390012D03*
X180125163Y-115370788D03*
X170410839Y-107504283D03*
%TD*%
D19*
%TO.C,R11*%
X85800000Y-105895000D03*
X84780000Y-105895000D03*
%TD*%
D58*
%TO.C,SW8*%
X168721417Y-101344239D03*
D18*
X160854912Y-111058563D03*
X164835688Y-98197637D03*
X156969183Y-107911961D03*
%TD*%
D19*
%TO.C,R6*%
X85800000Y-95732142D03*
X84780000Y-95732142D03*
%TD*%
D59*
%TO.C,L1*%
X134025000Y-77025000D03*
X134025000Y-75325000D03*
X134825000Y-75325000D03*
X134825000Y-77025000D03*
%TD*%
D60*
%TO.C,R2*%
X159894100Y-88407500D03*
X160914100Y-88407500D03*
%TD*%
D61*
%TO.C,J5*%
X91500001Y-119708900D03*
D62*
X91500001Y-117708900D03*
%TD*%
D25*
%TO.C,J4*%
X80700000Y-85600000D03*
D26*
X80700000Y-88140000D03*
X80700000Y-90680000D03*
X80700000Y-93220000D03*
X80700000Y-95760000D03*
X80700000Y-98300000D03*
X80700000Y-100840000D03*
X80700000Y-103380000D03*
X80700000Y-105920000D03*
%TD*%
%LPD*%
M02*
