%TF.GenerationSoftware,KiCad,Pcbnew,8.0.4*%
%TF.CreationDate,2024-10-28T14:32:02-07:00*%
%TF.ProjectId,aqp_controller,6171705f-636f-46e7-9472-6f6c6c65722e,rev0*%
%TF.SameCoordinates,Original*%
%TF.FileFunction,Soldermask,Top*%
%TF.FilePolarity,Negative*%
%FSLAX46Y46*%
G04 Gerber Fmt 4.6, Leading zero omitted, Abs format (unit mm)*
G04 Created by KiCad (PCBNEW 8.0.4) date 2024-10-28 14:32:02*
%MOMM*%
%LPD*%
G01*
G04 APERTURE LIST*
G04 Aperture macros list*
%AMRoundRect*
0 Rectangle with rounded corners*
0 $1 Rounding radius*
0 $2 $3 $4 $5 $6 $7 $8 $9 X,Y pos of 4 corners*
0 Add a 4 corners polygon primitive as box body*
4,1,4,$2,$3,$4,$5,$6,$7,$8,$9,$2,$3,0*
0 Add four circle primitives for the rounded corners*
1,1,$1+$1,$2,$3*
1,1,$1+$1,$4,$5*
1,1,$1+$1,$6,$7*
1,1,$1+$1,$8,$9*
0 Add four rect primitives between the rounded corners*
20,1,$1+$1,$2,$3,$4,$5,0*
20,1,$1+$1,$4,$5,$6,$7,0*
20,1,$1+$1,$6,$7,$8,$9,0*
20,1,$1+$1,$8,$9,$2,$3,0*%
G04 Aperture macros list end*
%ADD10O,2.600000X1.700000*%
%ADD11RoundRect,0.140000X-0.170000X0.140000X-0.170000X-0.140000X0.170000X-0.140000X0.170000X0.140000X0*%
%ADD12RoundRect,0.150000X0.150000X-0.587500X0.150000X0.587500X-0.150000X0.587500X-0.150000X-0.587500X0*%
%ADD13RoundRect,0.102000X0.200000X-0.240000X0.200000X0.240000X-0.200000X0.240000X-0.200000X-0.240000X0*%
%ADD14RoundRect,0.062500X-0.062500X0.337500X-0.062500X-0.337500X0.062500X-0.337500X0.062500X0.337500X0*%
%ADD15RoundRect,0.062500X-0.337500X0.062500X-0.337500X-0.062500X0.337500X-0.062500X0.337500X0.062500X0*%
%ADD16R,3.350000X3.350000*%
%ADD17RoundRect,0.375000X-0.625000X-0.375000X0.625000X-0.375000X0.625000X0.375000X-0.625000X0.375000X0*%
%ADD18RoundRect,0.500000X-0.500000X-1.400000X0.500000X-1.400000X0.500000X1.400000X-0.500000X1.400000X0*%
%ADD19RoundRect,0.140000X0.170000X-0.140000X0.170000X0.140000X-0.170000X0.140000X-0.170000X-0.140000X0*%
%ADD20RoundRect,0.135000X-0.135000X-0.185000X0.135000X-0.185000X0.135000X0.185000X-0.135000X0.185000X0*%
%ADD21RoundRect,0.225000X-0.225000X-0.250000X0.225000X-0.250000X0.225000X0.250000X-0.225000X0.250000X0*%
%ADD22RoundRect,0.140000X-0.140000X-0.170000X0.140000X-0.170000X0.140000X0.170000X-0.140000X0.170000X0*%
%ADD23RoundRect,0.102000X0.525000X0.325000X-0.525000X0.325000X-0.525000X-0.325000X0.525000X-0.325000X0*%
%ADD24RoundRect,0.225000X-0.250000X0.225000X-0.250000X-0.225000X0.250000X-0.225000X0.250000X0.225000X0*%
%ADD25R,0.600000X1.000000*%
%ADD26RoundRect,0.102000X0.365000X-0.605000X0.365000X0.605000X-0.365000X0.605000X-0.365000X-0.605000X0*%
%ADD27R,0.400000X1.350000*%
%ADD28O,0.890000X1.550000*%
%ADD29R,1.200000X1.550000*%
%ADD30O,1.250000X0.950000*%
%ADD31R,1.500000X1.550000*%
%ADD32RoundRect,0.135000X0.135000X0.185000X-0.135000X0.185000X-0.135000X-0.185000X0.135000X-0.185000X0*%
%ADD33RoundRect,0.200000X-0.275000X0.200000X-0.275000X-0.200000X0.275000X-0.200000X0.275000X0.200000X0*%
%ADD34RoundRect,0.243750X0.456250X-0.243750X0.456250X0.243750X-0.456250X0.243750X-0.456250X-0.243750X0*%
%ADD35R,1.500000X0.900000*%
%ADD36R,0.900000X1.500000*%
%ADD37C,0.600000*%
%ADD38R,3.900000X3.900000*%
%ADD39RoundRect,0.135000X0.185000X-0.135000X0.185000X0.135000X-0.185000X0.135000X-0.185000X-0.135000X0*%
%ADD40RoundRect,0.102000X-0.525000X-0.325000X0.525000X-0.325000X0.525000X0.325000X-0.525000X0.325000X0*%
G04 APERTURE END LIST*
D10*
%TO.C,J1*%
X135089318Y-79497752D03*
X135089318Y-82037752D03*
X135089318Y-84577752D03*
X135089318Y-87117752D03*
X135089318Y-89657752D03*
X135089318Y-92197752D03*
X135089318Y-94737752D03*
X135089318Y-97277752D03*
X135089318Y-99817752D03*
X135089318Y-102357752D03*
X135089318Y-104897752D03*
X135089318Y-107437752D03*
X135089318Y-109977752D03*
X135089318Y-112517752D03*
X135089318Y-115057752D03*
X135089318Y-117597752D03*
X135089318Y-120137752D03*
X135089318Y-122677752D03*
X135089318Y-125217752D03*
X135089318Y-127757752D03*
X135089318Y-130297752D03*
X135089318Y-132837752D03*
%TD*%
%TO.C,J3*%
X157930000Y-79510000D03*
X157930000Y-82050000D03*
X157930000Y-84590000D03*
X157930000Y-87130000D03*
X157930000Y-89670000D03*
X157930000Y-92210000D03*
X157930000Y-94750000D03*
X157930000Y-97290000D03*
X157930000Y-99830000D03*
X157930000Y-102370000D03*
X157930000Y-104910000D03*
X157930000Y-107450000D03*
X157930000Y-109990000D03*
X157930000Y-112530000D03*
X157930000Y-115070000D03*
X157930000Y-117610000D03*
X157930000Y-120150000D03*
X157930000Y-122690000D03*
X157930000Y-125230000D03*
X157930000Y-127770000D03*
X157930000Y-130310000D03*
X157930000Y-132850000D03*
%TD*%
D11*
%TO.C,C8*%
X142200000Y-104640000D03*
X142200000Y-105600000D03*
%TD*%
D12*
%TO.C,Q2*%
X145300000Y-112225000D03*
X147200000Y-112225000D03*
X146250000Y-110350000D03*
%TD*%
D13*
%TO.C,D4*%
X142950000Y-132670000D03*
X142950000Y-131350000D03*
%TD*%
D14*
%TO.C,U3*%
X149115353Y-117900000D03*
X148615353Y-117900000D03*
X148115353Y-117900000D03*
X147615353Y-117900000D03*
X147115353Y-117900000D03*
X146615353Y-117900000D03*
X146115353Y-117900000D03*
D15*
X145165353Y-118850000D03*
X145165353Y-119350000D03*
X145165353Y-119850000D03*
X145165353Y-120350000D03*
X145165353Y-120850000D03*
X145165353Y-121350000D03*
X145165353Y-121850000D03*
D14*
X146115353Y-122800000D03*
X146615353Y-122800000D03*
X147115353Y-122800000D03*
X147615353Y-122800000D03*
X148115353Y-122800000D03*
X148615353Y-122800000D03*
X149115353Y-122800000D03*
D15*
X150065353Y-121850000D03*
X150065353Y-121350000D03*
X150065353Y-120850000D03*
X150065353Y-120350000D03*
X150065353Y-119850000D03*
X150065353Y-119350000D03*
X150065353Y-118850000D03*
D16*
X147615353Y-120350000D03*
%TD*%
D17*
%TO.C,U2*%
X144300000Y-102050000D03*
X144300000Y-104350000D03*
D18*
X150600000Y-104350000D03*
D17*
X144300000Y-106650000D03*
%TD*%
D19*
%TO.C,C12*%
X142440615Y-120615490D03*
X142440615Y-119655490D03*
%TD*%
D20*
%TO.C,R12*%
X152180000Y-114350000D03*
X153200000Y-114350000D03*
%TD*%
D21*
%TO.C,C15*%
X145695000Y-125850000D03*
X147245000Y-125850000D03*
%TD*%
D22*
%TO.C,C13*%
X139691932Y-129030993D03*
X140651932Y-129030993D03*
%TD*%
D23*
%TO.C,SW1*%
X143475000Y-127725000D03*
X139325000Y-127725000D03*
X143475000Y-125575000D03*
X139325000Y-125575000D03*
%TD*%
D24*
%TO.C,C1*%
X140450000Y-100350000D03*
X140450000Y-101900000D03*
%TD*%
D20*
%TO.C,R5*%
X143930000Y-100100000D03*
X144950000Y-100100000D03*
%TD*%
D25*
%TO.C,D6*%
X140400000Y-112223311D03*
X141700000Y-112223311D03*
X141700000Y-110223311D03*
X140400000Y-110223311D03*
%TD*%
D22*
%TO.C,C14*%
X152121812Y-129149624D03*
X153081812Y-129149624D03*
%TD*%
D21*
%TO.C,C3*%
X145695000Y-127350000D03*
X147245000Y-127350000D03*
%TD*%
D20*
%TO.C,R16*%
X140395786Y-121888701D03*
X141415786Y-121888701D03*
%TD*%
D26*
%TO.C,D7*%
X147700000Y-131100000D03*
X147700000Y-134460000D03*
%TD*%
%TO.C,D1*%
X145200000Y-131100000D03*
X145200000Y-134460000D03*
%TD*%
D20*
%TO.C,R13*%
X144930000Y-114350000D03*
X145950000Y-114350000D03*
%TD*%
D21*
%TO.C,C11*%
X140565353Y-118100000D03*
X142115353Y-118100000D03*
%TD*%
D13*
%TO.C,D9*%
X151325000Y-132670000D03*
X151325000Y-131350000D03*
%TD*%
D27*
%TO.C,J2*%
X138850000Y-136600000D03*
X139500000Y-136600000D03*
X140150000Y-136600000D03*
X140800000Y-136600000D03*
X141450000Y-136600000D03*
D28*
X136650000Y-139300000D03*
D29*
X137250000Y-139300000D03*
D30*
X137650000Y-136600000D03*
D31*
X139150000Y-139300000D03*
X141150000Y-139300000D03*
D30*
X142650000Y-136600000D03*
D29*
X143050000Y-139300000D03*
D28*
X143650000Y-139300000D03*
%TD*%
D13*
%TO.C,D8*%
X149950000Y-132670000D03*
X149950000Y-131350000D03*
%TD*%
D22*
%TO.C,C6*%
X145950000Y-100100000D03*
X146910000Y-100100000D03*
%TD*%
D12*
%TO.C,Q1*%
X151000000Y-112225000D03*
X152900000Y-112225000D03*
X151950000Y-110350000D03*
%TD*%
D20*
%TO.C,R18*%
X140393754Y-119651116D03*
X141413754Y-119651116D03*
%TD*%
%TO.C,R7*%
X152197275Y-119298884D03*
X153217275Y-119298884D03*
%TD*%
D32*
%TO.C,R14*%
X141415786Y-122888701D03*
X140395786Y-122888701D03*
%TD*%
D33*
%TO.C,R24*%
X141946456Y-100284979D03*
X141946456Y-101934979D03*
%TD*%
D27*
%TO.C,J4*%
X151400000Y-136600000D03*
X152050000Y-136600000D03*
X152700000Y-136600000D03*
X153350000Y-136600000D03*
X154000000Y-136600000D03*
D28*
X149200000Y-139300000D03*
D29*
X149800000Y-139300000D03*
D30*
X150200000Y-136600000D03*
D31*
X151700000Y-139300000D03*
X153700000Y-139300000D03*
D30*
X155200000Y-136600000D03*
D29*
X155600000Y-139300000D03*
D28*
X156200000Y-139300000D03*
%TD*%
D11*
%TO.C,C2*%
X140200000Y-104640000D03*
X140200000Y-105600000D03*
%TD*%
D34*
%TO.C,D5*%
X153450000Y-107100000D03*
X153450000Y-105225000D03*
%TD*%
D20*
%TO.C,R19*%
X140390637Y-120651116D03*
X141410637Y-120651116D03*
%TD*%
D13*
%TO.C,D3*%
X141575000Y-132670000D03*
X141575000Y-131350000D03*
%TD*%
%TO.C,D2*%
X140200000Y-132670000D03*
X140200000Y-131350000D03*
%TD*%
D21*
%TO.C,C7*%
X140435167Y-106846563D03*
X141985167Y-106846563D03*
%TD*%
%TO.C,C10*%
X140425000Y-103350000D03*
X141975000Y-103350000D03*
%TD*%
D20*
%TO.C,R8*%
X147346666Y-114350000D03*
X148366666Y-114350000D03*
%TD*%
%TO.C,R10*%
X149763332Y-114350000D03*
X150783332Y-114350000D03*
%TD*%
D32*
%TO.C,R17*%
X142700000Y-114350000D03*
X141680000Y-114350000D03*
%TD*%
D35*
%TO.C,U4*%
X137766938Y-79040000D03*
X137766938Y-80310000D03*
X137766938Y-81580000D03*
X137766938Y-82850000D03*
X137766938Y-84120000D03*
X137766938Y-85390000D03*
X137766938Y-86660000D03*
X137766938Y-87930000D03*
X137766938Y-89200000D03*
X137766938Y-90470000D03*
X137766938Y-91740000D03*
X137766938Y-93010000D03*
X137766938Y-94280000D03*
X137766938Y-95550000D03*
D36*
X139531938Y-96800000D03*
X140801938Y-96800000D03*
X142071938Y-96800000D03*
X143341938Y-96800000D03*
X144611938Y-96800000D03*
X145881938Y-96800000D03*
X147151938Y-96800000D03*
X148421938Y-96800000D03*
X149691938Y-96800000D03*
X150961938Y-96800000D03*
X152231938Y-96800000D03*
X153501938Y-96800000D03*
D35*
X155266938Y-95550000D03*
X155266938Y-94280000D03*
X155266938Y-93010000D03*
X155266938Y-91740000D03*
X155266938Y-90470000D03*
X155266938Y-89200000D03*
X155266938Y-87930000D03*
X155266938Y-86660000D03*
X155266938Y-85390000D03*
X155266938Y-84120000D03*
X155266938Y-82850000D03*
X155266938Y-81580000D03*
X155266938Y-80310000D03*
X155266938Y-79040000D03*
D37*
X143616938Y-86060000D03*
X143616938Y-87460000D03*
X144316938Y-85360000D03*
X144316938Y-86760000D03*
X144316938Y-88160000D03*
X145016938Y-86060000D03*
D38*
X145016938Y-86760000D03*
D37*
X145016938Y-87460000D03*
X145716938Y-85360000D03*
X145716938Y-86760000D03*
X145716938Y-88160000D03*
X146416938Y-86060000D03*
X146416938Y-87460000D03*
%TD*%
D39*
%TO.C,R11*%
X153450000Y-102600000D03*
X153450000Y-101580000D03*
%TD*%
D40*
%TO.C,SW2*%
X149325000Y-125700000D03*
X153475000Y-125700000D03*
X149325000Y-127850000D03*
X153475000Y-127850000D03*
%TD*%
D20*
%TO.C,R9*%
X152197275Y-120600000D03*
X153217275Y-120600000D03*
%TD*%
D11*
%TO.C,C9*%
X141200000Y-104640000D03*
X141200000Y-105600000D03*
%TD*%
D13*
%TO.C,D10*%
X152700000Y-132670000D03*
X152700000Y-131350000D03*
%TD*%
M02*
