%TF.GenerationSoftware,KiCad,Pcbnew,8.0.4*%
%TF.CreationDate,2024-12-04T08:31:11-08:00*%
%TF.ProjectId,aqp_controller,6171705f-636f-46e7-9472-6f6c6c65722e,rev0*%
%TF.SameCoordinates,Original*%
%TF.FileFunction,Paste,Top*%
%TF.FilePolarity,Positive*%
%FSLAX46Y46*%
G04 Gerber Fmt 4.6, Leading zero omitted, Abs format (unit mm)*
G04 Created by KiCad (PCBNEW 8.0.4) date 2024-12-04 08:31:11*
%MOMM*%
%LPD*%
G01*
G04 APERTURE LIST*
G04 Aperture macros list*
%AMRoundRect*
0 Rectangle with rounded corners*
0 $1 Rounding radius*
0 $2 $3 $4 $5 $6 $7 $8 $9 X,Y pos of 4 corners*
0 Add a 4 corners polygon primitive as box body*
4,1,4,$2,$3,$4,$5,$6,$7,$8,$9,$2,$3,0*
0 Add four circle primitives for the rounded corners*
1,1,$1+$1,$2,$3*
1,1,$1+$1,$4,$5*
1,1,$1+$1,$6,$7*
1,1,$1+$1,$8,$9*
0 Add four rect primitives between the rounded corners*
20,1,$1+$1,$2,$3,$4,$5,0*
20,1,$1+$1,$4,$5,$6,$7,0*
20,1,$1+$1,$6,$7,$8,$9,0*
20,1,$1+$1,$8,$9,$2,$3,0*%
G04 Aperture macros list end*
%ADD10RoundRect,0.243750X-0.456250X0.243750X-0.456250X-0.243750X0.456250X-0.243750X0.456250X0.243750X0*%
%ADD11RoundRect,0.225000X-0.250000X0.225000X-0.250000X-0.225000X0.250000X-0.225000X0.250000X0.225000X0*%
%ADD12RoundRect,0.135000X0.135000X0.185000X-0.135000X0.185000X-0.135000X-0.185000X0.135000X-0.185000X0*%
%ADD13RoundRect,0.135000X-0.185000X0.135000X-0.185000X-0.135000X0.185000X-0.135000X0.185000X0.135000X0*%
%ADD14RoundRect,0.225000X0.225000X0.250000X-0.225000X0.250000X-0.225000X-0.250000X0.225000X-0.250000X0*%
%ADD15R,1.050000X0.650000*%
%ADD16RoundRect,0.135000X0.185000X-0.135000X0.185000X0.135000X-0.185000X0.135000X-0.185000X-0.135000X0*%
%ADD17R,1.000000X0.600000*%
%ADD18RoundRect,0.225000X-0.225000X-0.250000X0.225000X-0.250000X0.225000X0.250000X-0.225000X0.250000X0*%
%ADD19RoundRect,0.140000X0.205000X0.140000X-0.205000X0.140000X-0.205000X-0.140000X0.205000X-0.140000X0*%
%ADD20RoundRect,0.062500X0.337500X0.062500X-0.337500X0.062500X-0.337500X-0.062500X0.337500X-0.062500X0*%
%ADD21RoundRect,0.250000X0.300000X0.300000X-0.300000X0.300000X-0.300000X-0.300000X0.300000X-0.300000X0*%
%ADD22RoundRect,0.225000X0.250000X-0.225000X0.250000X0.225000X-0.250000X0.225000X-0.250000X-0.225000X0*%
%ADD23RoundRect,0.140000X-0.170000X0.140000X-0.170000X-0.140000X0.170000X-0.140000X0.170000X0.140000X0*%
%ADD24RoundRect,0.150000X-0.650000X-0.150000X0.650000X-0.150000X0.650000X0.150000X-0.650000X0.150000X0*%
%ADD25O,0.890000X1.550000*%
%ADD26O,1.250000X0.950000*%
%ADD27R,0.400000X1.350000*%
%ADD28R,1.200000X1.550000*%
%ADD29R,1.500000X1.550000*%
%ADD30RoundRect,0.140000X0.140000X0.170000X-0.140000X0.170000X-0.140000X-0.170000X0.140000X-0.170000X0*%
%ADD31RoundRect,0.375000X-0.375000X0.625000X-0.375000X-0.625000X0.375000X-0.625000X0.375000X0.625000X0*%
%ADD32RoundRect,0.500000X-1.400000X0.500000X-1.400000X-0.500000X1.400000X-0.500000X1.400000X0.500000X0*%
%ADD33R,0.900000X0.900000*%
%ADD34R,1.500000X0.900000*%
%ADD35R,0.900000X1.500000*%
%ADD36RoundRect,0.150000X-0.150000X0.587500X-0.150000X-0.587500X0.150000X-0.587500X0.150000X0.587500X0*%
%ADD37R,0.400000X0.900000*%
%ADD38RoundRect,0.135000X-0.135000X-0.185000X0.135000X-0.185000X0.135000X0.185000X-0.135000X0.185000X0*%
G04 APERTURE END LIST*
D10*
%TO.C,D4*%
X131150000Y-96725000D03*
X131150000Y-98600000D03*
%TD*%
D11*
%TO.C,C6*%
X124533100Y-116564500D03*
X124533100Y-118114500D03*
%TD*%
D12*
%TO.C,R3*%
X85800000Y-90650714D03*
X84780000Y-90650714D03*
%TD*%
%TO.C,R10*%
X125550000Y-99375000D03*
X124530000Y-99375000D03*
%TD*%
D13*
%TO.C,R7*%
X132800000Y-96405000D03*
X132800000Y-97425000D03*
%TD*%
D14*
%TO.C,C3*%
X161725100Y-87060800D03*
X160175100Y-87060800D03*
%TD*%
D15*
%TO.C,SW1*%
X97375000Y-77575000D03*
X93225000Y-77575000D03*
X97375000Y-75425000D03*
X93225000Y-75425000D03*
%TD*%
D12*
%TO.C,R1*%
X85800000Y-88110000D03*
X84780000Y-88110000D03*
%TD*%
D13*
%TO.C,R13*%
X122262100Y-117384500D03*
X122262100Y-118404500D03*
%TD*%
D12*
%TO.C,R4*%
X85800000Y-93191428D03*
X84780000Y-93191428D03*
%TD*%
D14*
%TO.C,C8*%
X149015700Y-118772000D03*
X147465700Y-118772000D03*
%TD*%
D16*
%TO.C,R14*%
X149228300Y-117586900D03*
X149228300Y-116566900D03*
%TD*%
D17*
%TO.C,D1*%
X146200000Y-80874800D03*
X146200000Y-79574800D03*
X144200000Y-79574800D03*
X144200000Y-80874800D03*
%TD*%
D12*
%TO.C,R9*%
X85800000Y-103354284D03*
X84780000Y-103354284D03*
%TD*%
D18*
%TO.C,C5*%
X126950000Y-99300000D03*
X128500000Y-99300000D03*
%TD*%
D19*
%TO.C,U3*%
X128141400Y-97499200D03*
X128141400Y-96799200D03*
X127291400Y-97499200D03*
X127291400Y-96799200D03*
D20*
X129166400Y-97899200D03*
X129166400Y-97399200D03*
X129166400Y-96899200D03*
X129166400Y-96399200D03*
X126266400Y-96399200D03*
X126266400Y-96899200D03*
X126266400Y-97399200D03*
X126266400Y-97899200D03*
%TD*%
D12*
%TO.C,R8*%
X85800000Y-100813570D03*
X84780000Y-100813570D03*
%TD*%
D21*
%TO.C,D3*%
X158500000Y-93551600D03*
X155700000Y-93551600D03*
%TD*%
D22*
%TO.C,C2*%
X132664000Y-84179100D03*
X132664000Y-82629100D03*
%TD*%
D23*
%TO.C,C7*%
X147225000Y-116595300D03*
X147225000Y-117555300D03*
%TD*%
D12*
%TO.C,R5*%
X85800000Y-98272856D03*
X84780000Y-98272856D03*
%TD*%
D24*
%TO.C,U1*%
X136539100Y-75252600D03*
X136539100Y-76202600D03*
X136539100Y-77152600D03*
X138839100Y-77152600D03*
X138839100Y-76202600D03*
X138839100Y-75252600D03*
%TD*%
D22*
%TO.C,C4*%
X124750000Y-97975000D03*
X124750000Y-96425000D03*
%TD*%
D25*
%TO.C,J2*%
X148700000Y-73216300D03*
D26*
X147700000Y-75916300D03*
X142700000Y-75916300D03*
D25*
X141700000Y-73216300D03*
D27*
X146500000Y-75916300D03*
X145850000Y-75916300D03*
X145200000Y-75916300D03*
X144550000Y-75916300D03*
X143900000Y-75916300D03*
D28*
X148100000Y-73216300D03*
D29*
X146200000Y-73216300D03*
X144200000Y-73216300D03*
D28*
X142300000Y-73216300D03*
%TD*%
D30*
%TO.C,C9*%
X148746500Y-120022900D03*
X147786500Y-120022900D03*
%TD*%
D31*
%TO.C,U2*%
X130214000Y-83171700D03*
X127914000Y-83171700D03*
D32*
X127914000Y-89471700D03*
D31*
X125614000Y-83171700D03*
%TD*%
D21*
%TO.C,D2*%
X158500000Y-87000000D03*
X155700000Y-87000000D03*
%TD*%
D22*
%TO.C,C1*%
X123164000Y-84221700D03*
X123164000Y-82671700D03*
%TD*%
D33*
%TO.C,U4*%
X138900000Y-113790000D03*
X138900000Y-112390000D03*
X138900000Y-110990000D03*
X137500000Y-113790000D03*
X137500000Y-112390000D03*
X137500000Y-110990000D03*
X136100000Y-113790000D03*
X136100000Y-112390000D03*
X136100000Y-110990000D03*
D34*
X144750000Y-120110000D03*
X144750000Y-118840000D03*
X144750000Y-117570000D03*
X144750000Y-116300000D03*
X144750000Y-115030000D03*
X144750000Y-113760000D03*
X144750000Y-112490000D03*
X144750000Y-111220000D03*
X144750000Y-109950000D03*
X144750000Y-108680000D03*
X144750000Y-107410000D03*
X144750000Y-106140000D03*
X144750000Y-104870000D03*
X144750000Y-103600000D03*
D35*
X142985000Y-102350000D03*
X141715000Y-102350000D03*
X140445000Y-102350000D03*
X139175000Y-102350000D03*
X137905000Y-102350000D03*
X136635000Y-102350000D03*
X135365000Y-102350000D03*
X134095000Y-102350000D03*
X132825000Y-102350000D03*
X131555000Y-102350000D03*
X130285000Y-102350000D03*
X129015000Y-102350000D03*
D34*
X127250000Y-103600000D03*
X127250000Y-104870000D03*
X127250000Y-106140000D03*
X127250000Y-107410000D03*
X127250000Y-108680000D03*
X127250000Y-109950000D03*
X127250000Y-111220000D03*
X127250000Y-112490000D03*
X127250000Y-113760000D03*
X127250000Y-115030000D03*
X127250000Y-116300000D03*
X127250000Y-117570000D03*
X127250000Y-118840000D03*
X127250000Y-120110000D03*
%TD*%
D36*
%TO.C,Q1*%
X157846800Y-89311800D03*
X155946800Y-89311800D03*
X156896800Y-91186800D03*
%TD*%
D16*
%TO.C,R12*%
X123259700Y-118404500D03*
X123259700Y-117384500D03*
%TD*%
D12*
%TO.C,R11*%
X85800000Y-105895000D03*
X84780000Y-105895000D03*
%TD*%
%TO.C,R6*%
X85800000Y-95732142D03*
X84780000Y-95732142D03*
%TD*%
D37*
%TO.C,L1*%
X134025000Y-77025000D03*
X134025000Y-75325000D03*
X134825000Y-75325000D03*
X134825000Y-77025000D03*
%TD*%
D38*
%TO.C,R2*%
X159894100Y-88407500D03*
X160914100Y-88407500D03*
%TD*%
M02*
