%TF.GenerationSoftware,KiCad,Pcbnew,8.0.4*%
%TF.CreationDate,2024-12-04T08:31:11-08:00*%
%TF.ProjectId,aqp_controller,6171705f-636f-46e7-9472-6f6c6c65722e,rev0*%
%TF.SameCoordinates,Original*%
%TF.FileFunction,Soldermask,Top*%
%TF.FilePolarity,Negative*%
%FSLAX46Y46*%
G04 Gerber Fmt 4.6, Leading zero omitted, Abs format (unit mm)*
G04 Created by KiCad (PCBNEW 8.0.4) date 2024-12-04 08:31:11*
%MOMM*%
%LPD*%
G01*
G04 APERTURE LIST*
G04 Aperture macros list*
%AMRoundRect*
0 Rectangle with rounded corners*
0 $1 Rounding radius*
0 $2 $3 $4 $5 $6 $7 $8 $9 X,Y pos of 4 corners*
0 Add a 4 corners polygon primitive as box body*
4,1,4,$2,$3,$4,$5,$6,$7,$8,$9,$2,$3,0*
0 Add four circle primitives for the rounded corners*
1,1,$1+$1,$2,$3*
1,1,$1+$1,$4,$5*
1,1,$1+$1,$6,$7*
1,1,$1+$1,$8,$9*
0 Add four rect primitives between the rounded corners*
20,1,$1+$1,$2,$3,$4,$5,0*
20,1,$1+$1,$4,$5,$6,$7,0*
20,1,$1+$1,$6,$7,$8,$9,0*
20,1,$1+$1,$8,$9,$2,$3,0*%
%AMFreePoly0*
4,1,19,0.500000,-0.750000,0.000000,-0.750000,0.000000,-0.744911,-0.071157,-0.744911,-0.207708,-0.704816,-0.327430,-0.627875,-0.420627,-0.520320,-0.479746,-0.390866,-0.500000,-0.250000,-0.500000,0.250000,-0.479746,0.390866,-0.420627,0.520320,-0.327430,0.627875,-0.207708,0.704816,-0.071157,0.744911,0.000000,0.744911,0.000000,0.750000,0.500000,0.750000,0.500000,-0.750000,0.500000,-0.750000,
$1*%
%AMFreePoly1*
4,1,19,0.000000,0.744911,0.071157,0.744911,0.207708,0.704816,0.327430,0.627875,0.420627,0.520320,0.479746,0.390866,0.500000,0.250000,0.500000,-0.250000,0.479746,-0.390866,0.420627,-0.520320,0.327430,-0.627875,0.207708,-0.704816,0.071157,-0.744911,0.000000,-0.744911,0.000000,-0.750000,-0.500000,-0.750000,-0.500000,0.750000,0.000000,0.750000,0.000000,0.744911,0.000000,0.744911,
$1*%
G04 Aperture macros list end*
%ADD10RoundRect,0.243750X-0.456250X0.243750X-0.456250X-0.243750X0.456250X-0.243750X0.456250X0.243750X0*%
%ADD11RoundRect,0.225000X-0.250000X0.225000X-0.250000X-0.225000X0.250000X-0.225000X0.250000X0.225000X0*%
%ADD12RoundRect,0.102000X-1.050000X-1.050000X1.050000X-1.050000X1.050000X1.050000X-1.050000X1.050000X0*%
%ADD13C,2.304000*%
%ADD14RoundRect,0.135000X0.135000X0.185000X-0.135000X0.185000X-0.135000X-0.185000X0.135000X-0.185000X0*%
%ADD15RoundRect,0.135000X-0.185000X0.135000X-0.185000X-0.135000X0.185000X-0.135000X0.185000X0.135000X0*%
%ADD16C,1.712000*%
%ADD17C,2.154000*%
%ADD18RoundRect,0.225000X0.225000X0.250000X-0.225000X0.250000X-0.225000X-0.250000X0.225000X-0.250000X0*%
%ADD19RoundRect,0.102000X0.525000X0.325000X-0.525000X0.325000X-0.525000X-0.325000X0.525000X-0.325000X0*%
%ADD20R,1.700000X1.700000*%
%ADD21O,1.700000X1.700000*%
%ADD22RoundRect,0.102000X1.376798X-0.556262X0.556262X1.376798X-1.376798X0.556262X-0.556262X-1.376798X0*%
%ADD23C,1.982000*%
%ADD24C,2.490000*%
%ADD25RoundRect,0.135000X0.185000X-0.135000X0.185000X0.135000X-0.185000X0.135000X-0.185000X-0.135000X0*%
%ADD26R,1.000000X0.600000*%
%ADD27RoundRect,0.225000X-0.225000X-0.250000X0.225000X-0.250000X0.225000X0.250000X-0.225000X0.250000X0*%
%ADD28RoundRect,0.062500X0.337500X0.062500X-0.337500X0.062500X-0.337500X-0.062500X0.337500X-0.062500X0*%
%ADD29R,1.700000X1.400000*%
%ADD30RoundRect,0.102000X0.556262X1.376798X-1.376798X0.556262X-0.556262X-1.376798X1.376798X-0.556262X0*%
%ADD31RoundRect,0.250000X0.300000X0.300000X-0.300000X0.300000X-0.300000X-0.300000X0.300000X-0.300000X0*%
%ADD32RoundRect,0.102000X0.206662X1.470473X-1.470473X0.206662X-0.206662X-1.470473X1.470473X-0.206662X0*%
%ADD33RoundRect,0.225000X0.250000X-0.225000X0.250000X0.225000X-0.250000X0.225000X-0.250000X-0.225000X0*%
%ADD34RoundRect,0.140000X-0.170000X0.140000X-0.170000X-0.140000X0.170000X-0.140000X0.170000X0.140000X0*%
%ADD35RoundRect,0.150000X-0.650000X-0.150000X0.650000X-0.150000X0.650000X0.150000X-0.650000X0.150000X0*%
%ADD36FreePoly0,180.000000*%
%ADD37FreePoly1,180.000000*%
%ADD38R,0.400000X1.350000*%
%ADD39O,0.890000X1.550000*%
%ADD40R,1.200000X1.550000*%
%ADD41O,1.250000X0.950000*%
%ADD42R,1.500000X1.550000*%
%ADD43RoundRect,0.102000X1.470473X-0.206662X0.206662X1.470473X-1.470473X0.206662X-0.206662X-1.470473X0*%
%ADD44RoundRect,0.140000X0.140000X0.170000X-0.140000X0.170000X-0.140000X-0.170000X0.140000X-0.170000X0*%
%ADD45RoundRect,0.375000X-0.375000X0.625000X-0.375000X-0.625000X0.375000X-0.625000X0.375000X0.625000X0*%
%ADD46RoundRect,0.500000X-1.400000X0.500000X-1.400000X-0.500000X1.400000X-0.500000X1.400000X0.500000X0*%
%ADD47R,1.500000X0.900000*%
%ADD48R,0.900000X1.500000*%
%ADD49C,0.600000*%
%ADD50R,3.900000X3.900000*%
%ADD51RoundRect,0.150000X-0.150000X0.587500X-0.150000X-0.587500X0.150000X-0.587500X0.150000X0.587500X0*%
%ADD52RoundRect,0.102000X1.476790X0.155217X-0.155217X1.476790X-1.476790X-0.155217X0.155217X-1.476790X0*%
%ADD53RoundRect,0.102000X-0.155217X1.476790X-1.476790X-0.155217X0.155217X-1.476790X1.476790X0.155217X0*%
%ADD54R,0.400000X0.900000*%
%ADD55RoundRect,0.135000X-0.135000X-0.185000X0.135000X-0.185000X0.135000X0.185000X-0.135000X0.185000X0*%
%ADD56RoundRect,0.102000X-0.654000X0.654000X-0.654000X-0.654000X0.654000X-0.654000X0.654000X0.654000X0*%
%ADD57C,1.512000*%
G04 APERTURE END LIST*
D10*
%TO.C,D4*%
X131150000Y-96725000D03*
X131150000Y-98600000D03*
%TD*%
D11*
%TO.C,C6*%
X124533100Y-116564500D03*
X124533100Y-118114500D03*
%TD*%
D12*
%TO.C,SW4*%
X138950000Y-87924100D03*
D13*
X151450000Y-87924100D03*
X138950000Y-92924100D03*
X151450000Y-92924100D03*
%TD*%
D14*
%TO.C,R3*%
X85800000Y-90650714D03*
X84780000Y-90650714D03*
%TD*%
%TO.C,R10*%
X125550000Y-99375000D03*
X124530000Y-99375000D03*
%TD*%
D15*
%TO.C,R7*%
X132800000Y-96405000D03*
X132800000Y-97425000D03*
%TD*%
D16*
%TO.C,SW2*%
X169875000Y-80887500D03*
X165875000Y-80887500D03*
X161875000Y-80887500D03*
X169875000Y-78387500D03*
X165875000Y-78387500D03*
X161875000Y-78387500D03*
D17*
X171875000Y-82637500D03*
X159875000Y-82637500D03*
X171875000Y-76637500D03*
X159875000Y-76637500D03*
%TD*%
D18*
%TO.C,C3*%
X161725100Y-87060800D03*
X160175100Y-87060800D03*
%TD*%
D19*
%TO.C,SW1*%
X97375000Y-77575000D03*
X93225000Y-77575000D03*
X97375000Y-75425000D03*
X93225000Y-75425000D03*
%TD*%
D14*
%TO.C,R1*%
X85800000Y-88110000D03*
X84780000Y-88110000D03*
%TD*%
D20*
%TO.C,J3*%
X122350000Y-108010000D03*
D21*
X122350000Y-110550000D03*
X122350000Y-113090000D03*
%TD*%
D15*
%TO.C,R13*%
X122262100Y-117384500D03*
X122262100Y-118404500D03*
%TD*%
D22*
%TO.C,SW6*%
X197470707Y-102303883D03*
D13*
X192586568Y-90797572D03*
X202073232Y-100350228D03*
X197189093Y-88843917D03*
%TD*%
D14*
%TO.C,R4*%
X85800000Y-93191428D03*
X84780000Y-93191428D03*
%TD*%
D18*
%TO.C,C8*%
X149015700Y-118772000D03*
X147465700Y-118772000D03*
%TD*%
D23*
%TO.C,M1*%
X108305000Y-116367500D03*
X101955000Y-116367500D03*
X108305000Y-111287500D03*
X101955000Y-111287500D03*
X107670000Y-93507500D03*
X105130000Y-93507500D03*
X102590000Y-93507500D03*
D24*
X112750000Y-110335000D03*
X112750000Y-97000000D03*
X97510000Y-97000000D03*
X97510000Y-110335000D03*
D23*
X115290000Y-106207500D03*
X115290000Y-103667500D03*
X115290000Y-101127500D03*
%TD*%
D25*
%TO.C,R14*%
X149228300Y-117586900D03*
X149228300Y-116566900D03*
%TD*%
D26*
%TO.C,D1*%
X146200000Y-80874800D03*
X146200000Y-79574800D03*
X144200000Y-79574800D03*
X144200000Y-80874800D03*
%TD*%
D14*
%TO.C,R9*%
X85800000Y-103354284D03*
X84780000Y-103354284D03*
%TD*%
D27*
%TO.C,C5*%
X126950000Y-99300000D03*
X128500000Y-99300000D03*
%TD*%
D28*
%TO.C,U3*%
X129166400Y-97899200D03*
X129166400Y-97399200D03*
X129166400Y-96899200D03*
X129166400Y-96399200D03*
X126266400Y-96399200D03*
X126266400Y-96899200D03*
X126266400Y-97399200D03*
X126266400Y-97899200D03*
D29*
X127716400Y-97149200D03*
%TD*%
D14*
%TO.C,R8*%
X85800000Y-100813570D03*
X84780000Y-100813570D03*
%TD*%
D30*
%TO.C,SW3*%
X198581483Y-82568993D03*
D13*
X187075172Y-87453132D03*
X196627828Y-77966468D03*
X185121517Y-82850607D03*
%TD*%
D31*
%TO.C,D3*%
X158500000Y-93551600D03*
X155700000Y-93551600D03*
%TD*%
D32*
%TO.C,SW5*%
X182449109Y-90117445D03*
D13*
X172466166Y-97640133D03*
X179440034Y-86124267D03*
X169457091Y-93646955D03*
%TD*%
D33*
%TO.C,C2*%
X132664000Y-84179100D03*
X132664000Y-82629100D03*
%TD*%
D34*
%TO.C,C7*%
X147225000Y-116595300D03*
X147225000Y-117555300D03*
%TD*%
D14*
%TO.C,R5*%
X85800000Y-98272856D03*
X84780000Y-98272856D03*
%TD*%
D35*
%TO.C,U1*%
X136539100Y-75252600D03*
X136539100Y-76202600D03*
X136539100Y-77152600D03*
X138839100Y-77152600D03*
X138839100Y-76202600D03*
X138839100Y-75252600D03*
%TD*%
D33*
%TO.C,C4*%
X124750000Y-97975000D03*
X124750000Y-96425000D03*
%TD*%
D36*
%TO.C,J1*%
X104825000Y-75875000D03*
D37*
X103525000Y-75875000D03*
%TD*%
D38*
%TO.C,J2*%
X146500000Y-75916300D03*
X145850000Y-75916300D03*
X145200000Y-75916300D03*
X144550000Y-75916300D03*
X143900000Y-75916300D03*
D39*
X148700000Y-73216300D03*
D40*
X148100000Y-73216300D03*
D41*
X147700000Y-75916300D03*
D42*
X146200000Y-73216300D03*
X144200000Y-73216300D03*
D41*
X142700000Y-75916300D03*
D40*
X142300000Y-73216300D03*
D39*
X141700000Y-73216300D03*
%TD*%
D43*
%TO.C,SW7*%
X186118255Y-109542109D03*
D13*
X178595567Y-99559166D03*
X190111433Y-106533034D03*
X182588745Y-96550091D03*
%TD*%
D44*
%TO.C,C9*%
X148746500Y-120022900D03*
X147786500Y-120022900D03*
%TD*%
D45*
%TO.C,U2*%
X130214000Y-83171700D03*
X127914000Y-83171700D03*
D46*
X127914000Y-89471700D03*
D45*
X125614000Y-83171700D03*
%TD*%
D31*
%TO.C,D2*%
X158500000Y-87000000D03*
X155700000Y-87000000D03*
%TD*%
D33*
%TO.C,C1*%
X123164000Y-84221700D03*
X123164000Y-82671700D03*
%TD*%
D47*
%TO.C,U4*%
X144750000Y-120110000D03*
X144750000Y-118840000D03*
X144750000Y-117570000D03*
X144750000Y-116300000D03*
X144750000Y-115030000D03*
X144750000Y-113760000D03*
X144750000Y-112490000D03*
X144750000Y-111220000D03*
X144750000Y-109950000D03*
X144750000Y-108680000D03*
X144750000Y-107410000D03*
X144750000Y-106140000D03*
X144750000Y-104870000D03*
X144750000Y-103600000D03*
D48*
X142985000Y-102350000D03*
X141715000Y-102350000D03*
X140445000Y-102350000D03*
X139175000Y-102350000D03*
X137905000Y-102350000D03*
X136635000Y-102350000D03*
X135365000Y-102350000D03*
X134095000Y-102350000D03*
X132825000Y-102350000D03*
X131555000Y-102350000D03*
X130285000Y-102350000D03*
X129015000Y-102350000D03*
D47*
X127250000Y-103600000D03*
X127250000Y-104870000D03*
X127250000Y-106140000D03*
X127250000Y-107410000D03*
X127250000Y-108680000D03*
X127250000Y-109950000D03*
X127250000Y-111220000D03*
X127250000Y-112490000D03*
X127250000Y-113760000D03*
X127250000Y-115030000D03*
X127250000Y-116300000D03*
X127250000Y-117570000D03*
X127250000Y-118840000D03*
X127250000Y-120110000D03*
D49*
X138900000Y-113090000D03*
X138900000Y-111690000D03*
X138200000Y-113790000D03*
X138200000Y-112390000D03*
X138200000Y-110990000D03*
X137500000Y-113090000D03*
D50*
X137500000Y-112390000D03*
D49*
X137500000Y-111690000D03*
X136800000Y-113790000D03*
X136800000Y-112390000D03*
X136800000Y-110990000D03*
X136100000Y-113090000D03*
X136100000Y-111690000D03*
%TD*%
D51*
%TO.C,Q1*%
X157846800Y-89311800D03*
X155946800Y-89311800D03*
X156896800Y-91186800D03*
%TD*%
D25*
%TO.C,R12*%
X123259700Y-118404500D03*
X123259700Y-117384500D03*
%TD*%
D52*
%TO.C,SW9*%
X176978561Y-119256517D03*
D13*
X167264237Y-111390012D03*
X180125163Y-115370788D03*
X170410839Y-107504283D03*
%TD*%
D14*
%TO.C,R11*%
X85800000Y-105895000D03*
X84780000Y-105895000D03*
%TD*%
D53*
%TO.C,SW8*%
X168721417Y-101344239D03*
D13*
X160854912Y-111058563D03*
X164835688Y-98197637D03*
X156969183Y-107911961D03*
%TD*%
D14*
%TO.C,R6*%
X85800000Y-95732142D03*
X84780000Y-95732142D03*
%TD*%
D54*
%TO.C,L1*%
X134025000Y-77025000D03*
X134025000Y-75325000D03*
X134825000Y-75325000D03*
X134825000Y-77025000D03*
%TD*%
D55*
%TO.C,R2*%
X159894100Y-88407500D03*
X160914100Y-88407500D03*
%TD*%
D56*
%TO.C,J5*%
X91500001Y-119708900D03*
D57*
X91500001Y-117708900D03*
%TD*%
D20*
%TO.C,J4*%
X80700000Y-85600000D03*
D21*
X80700000Y-88140000D03*
X80700000Y-90680000D03*
X80700000Y-93220000D03*
X80700000Y-95760000D03*
X80700000Y-98300000D03*
X80700000Y-100840000D03*
X80700000Y-103380000D03*
X80700000Y-105920000D03*
%TD*%
M02*
