%TF.GenerationSoftware,KiCad,Pcbnew,8.0.4*%
%TF.CreationDate,2025-03-19T10:06:26-07:00*%
%TF.ProjectId,aqp_controller,6171705f-636f-46e7-9472-6f6c6c65722e,rev0*%
%TF.SameCoordinates,Original*%
%TF.FileFunction,Soldermask,Bot*%
%TF.FilePolarity,Negative*%
%FSLAX46Y46*%
G04 Gerber Fmt 4.6, Leading zero omitted, Abs format (unit mm)*
G04 Created by KiCad (PCBNEW 8.0.4) date 2025-03-19 10:06:26*
%MOMM*%
%LPD*%
G01*
G04 APERTURE LIST*
G04 Aperture macros list*
%AMRoundRect*
0 Rectangle with rounded corners*
0 $1 Rounding radius*
0 $2 $3 $4 $5 $6 $7 $8 $9 X,Y pos of 4 corners*
0 Add a 4 corners polygon primitive as box body*
4,1,4,$2,$3,$4,$5,$6,$7,$8,$9,$2,$3,0*
0 Add four circle primitives for the rounded corners*
1,1,$1+$1,$2,$3*
1,1,$1+$1,$4,$5*
1,1,$1+$1,$6,$7*
1,1,$1+$1,$8,$9*
0 Add four rect primitives between the rounded corners*
20,1,$1+$1,$2,$3,$4,$5,0*
20,1,$1+$1,$4,$5,$6,$7,0*
20,1,$1+$1,$6,$7,$8,$9,0*
20,1,$1+$1,$8,$9,$2,$3,0*%
G04 Aperture macros list end*
%ADD10RoundRect,0.102000X-1.050000X-1.050000X1.050000X-1.050000X1.050000X1.050000X-1.050000X1.050000X0*%
%ADD11C,2.304000*%
%ADD12C,2.154000*%
%ADD13C,1.712000*%
%ADD14R,1.700000X1.700000*%
%ADD15O,1.700000X1.700000*%
%ADD16RoundRect,0.102000X1.376798X-0.556262X0.556262X1.376798X-1.376798X0.556262X-0.556262X-1.376798X0*%
%ADD17C,1.982000*%
%ADD18C,2.490000*%
%ADD19RoundRect,0.102000X0.556262X1.376798X-1.376798X0.556262X-0.556262X-1.376798X1.376798X-0.556262X0*%
%ADD20RoundRect,0.102000X0.206662X1.470473X-1.470473X0.206662X-0.206662X-1.470473X1.470473X-0.206662X0*%
%ADD21O,0.890000X1.550000*%
%ADD22O,1.250000X0.950000*%
%ADD23RoundRect,0.102000X1.470473X-0.206662X0.206662X1.470473X-1.470473X0.206662X-0.206662X-1.470473X0*%
%ADD24RoundRect,0.102000X1.476790X0.155217X-0.155217X1.476790X-1.476790X-0.155217X0.155217X-1.476790X0*%
%ADD25RoundRect,0.102000X-0.155217X1.476790X-1.476790X-0.155217X0.155217X-1.476790X1.476790X0.155217X0*%
%ADD26RoundRect,0.102000X-0.654000X0.654000X-0.654000X-0.654000X0.654000X-0.654000X0.654000X0.654000X0*%
%ADD27C,1.512000*%
G04 APERTURE END LIST*
D10*
%TO.C,SW4*%
X138950000Y-87924100D03*
D11*
X151450000Y-87924100D03*
X138950000Y-92924100D03*
X151450000Y-92924100D03*
%TD*%
D12*
%TO.C,SW2*%
X159875000Y-77637500D03*
X171875000Y-77637500D03*
X159875000Y-83637500D03*
X171875000Y-83637500D03*
D13*
X161875000Y-79387500D03*
X165875000Y-79387500D03*
X169875000Y-79387500D03*
X161875000Y-81887500D03*
X165875000Y-81887500D03*
X169875000Y-81887500D03*
%TD*%
D14*
%TO.C,J3*%
X122350000Y-108010000D03*
D15*
X122350000Y-110550000D03*
X122350000Y-113090000D03*
%TD*%
D16*
%TO.C,SW6*%
X197470707Y-102303883D03*
D11*
X192586568Y-90797572D03*
X202073232Y-100350228D03*
X197189093Y-88843917D03*
%TD*%
D17*
%TO.C,M1*%
X108305000Y-116367500D03*
X101955000Y-116367500D03*
X108305000Y-111287500D03*
X101955000Y-111287500D03*
X107670000Y-93507500D03*
X105130000Y-93507500D03*
X102590000Y-93507500D03*
D18*
X112750000Y-110335000D03*
X112750000Y-97000000D03*
X97510000Y-97000000D03*
X97510000Y-110335000D03*
D17*
X115290000Y-106207500D03*
X115290000Y-103667500D03*
X115290000Y-101127500D03*
%TD*%
D19*
%TO.C,SW3*%
X198581483Y-82568993D03*
D11*
X187075172Y-87453132D03*
X196627828Y-77966468D03*
X185121517Y-82850607D03*
%TD*%
D20*
%TO.C,SW5*%
X182449109Y-90117445D03*
D11*
X172466166Y-97640133D03*
X179440034Y-86124267D03*
X169457091Y-93646955D03*
%TD*%
D21*
%TO.C,J2*%
X148700000Y-73216300D03*
D22*
X147700000Y-75916300D03*
X142700000Y-75916300D03*
D21*
X141700000Y-73216300D03*
%TD*%
D23*
%TO.C,SW7*%
X186118255Y-109542109D03*
D11*
X178595567Y-99559166D03*
X190111433Y-106533034D03*
X182588745Y-96550091D03*
%TD*%
D24*
%TO.C,SW9*%
X176978561Y-119256517D03*
D11*
X167264237Y-111390012D03*
X180125163Y-115370788D03*
X170410839Y-107504283D03*
%TD*%
D25*
%TO.C,SW8*%
X168721417Y-101344239D03*
D11*
X160854912Y-111058563D03*
X164835688Y-98197637D03*
X156969183Y-107911961D03*
%TD*%
D26*
%TO.C,J5*%
X91500001Y-119708900D03*
D27*
X91500001Y-117708900D03*
%TD*%
D14*
%TO.C,J4*%
X80700000Y-85600000D03*
D15*
X80700000Y-88140000D03*
X80700000Y-90680000D03*
X80700000Y-93220000D03*
X80700000Y-95760000D03*
X80700000Y-98300000D03*
X80700000Y-100840000D03*
X80700000Y-103380000D03*
X80700000Y-105920000D03*
%TD*%
M02*
