M48
; DRILL file {KiCad 8.0.4} date 2025-03-19T10:06:29-0700
; FORMAT={-:-/ absolute / metric / decimal}
; #@! TF.CreationDate,2025-03-19T10:06:29-07:00
; #@! TF.GenerationSoftware,Kicad,Pcbnew,8.0.4
; #@! TF.FileFunction,Plated,1,2,PTH
FMAT,2
METRIC
; #@! TA.AperFunction,Plated,PTH,ViaDrill
T1C0.200
; #@! TA.AperFunction,Plated,PTH,ComponentDrill
T2C0.200
; #@! TA.AperFunction,Plated,PTH,ViaDrill
T3C0.300
; #@! TA.AperFunction,Plated,PTH,ComponentDrill
T4C0.500
; #@! TA.AperFunction,Plated,PTH,ComponentDrill
T5C0.550
; #@! TA.AperFunction,Plated,PTH,ComponentDrill
T6C0.800
; #@! TA.AperFunction,Plated,PTH,ComponentDrill
T7C0.889
; #@! TA.AperFunction,Plated,PTH,ComponentDrill
T8C0.900
; #@! TA.AperFunction,Plated,PTH,ComponentDrill
T9C1.000
; #@! TA.AperFunction,Plated,PTH,ComponentDrill
T10C1.300
; #@! TA.AperFunction,Plated,PTH,ComponentDrill
T11C1.397
; #@! TA.AperFunction,Plated,PTH,ComponentDrill
T12C1.400
%
G90
G05
T1
X86.475Y-88.125
X86.475Y-90.65
X86.475Y-103.375
X86.475Y-105.9
X86.5Y-93.2
X86.525Y-98.275
X86.55Y-95.75
X86.575Y-100.8
X98.5Y-77.6
X106.15Y-75.9
X117.716Y-116.309
X117.75Y-119.2
X119.516Y-118.109
X119.579Y-93.696
X119.9Y-119.3
X120.9Y-94.175
X120.9Y-99.725
X121.35Y-120.125
X123.5Y-86.8
X124.151Y-100.249
X124.425Y-100.825
X125.375Y-118.125
X125.775Y-113.725
X125.825Y-109.925
X125.85Y-108.675
X125.85Y-111.2
X125.85Y-112.475
X126.0Y-103.6
X126.25Y-95.7
X126.35Y-100.249
X130.0Y-95.6
X130.175Y-81.5
X130.3Y-101.075
X132.05Y-109.975
X132.85Y-101.15
X134.025Y-74.4
X134.025Y-77.9
X134.775Y-100.05
X134.825Y-77.95
X135.35Y-101.05
X136.925Y-74.2
X137.493Y-81.134
X137.9Y-101.05
X137.917Y-80.71
X138.25Y-82.1
X138.775Y-81.65
X138.875Y-78.125
X139.175Y-101.075
X139.5Y-96.0
X140.45Y-101.1
X140.5Y-96.5
X140.5Y-98.0
X142.55Y-117.0
X142.975Y-80.1
X143.05Y-83.845
X143.075Y-88.625
X144.0Y-100.8
X145.2Y-76.975
X145.925Y-111.2
X146.05Y-109.95
X146.125Y-107.375
X146.15Y-104.9
X146.15Y-117.6
X146.425Y-103.475
T2
X136.1Y-111.69
X136.1Y-113.09
X136.8Y-110.99
X136.8Y-112.39
X136.8Y-113.79
X137.5Y-111.69
X137.5Y-113.09
X138.2Y-110.99
X138.2Y-112.39
X138.2Y-113.79
X138.9Y-111.69
X138.9Y-113.09
T3
X112.825Y-115.55
X115.975Y-110.4
X117.75Y-110.4
X118.85Y-104.025
X118.85Y-115.35
X119.05Y-119.5
X119.35Y-105.9
X119.35Y-109.25
X119.475Y-112.85
X119.603Y-116.892
X121.175Y-101.4
X122.55Y-115.675
X123.05Y-104.85
X124.375Y-110.925
X125.369Y-97.275
X126.32Y-99.321
X127.975Y-91.2
X129.4Y-116.025
X129.55Y-99.4
X129.825Y-106.9
X129.825Y-112.55
X132.4Y-105.175
X134.0Y-96.5
X137.548Y-75.945
X140.275Y-76.2
X141.861Y-99.804
X144.225Y-92.25
X146.075Y-120.85
X146.225Y-118.84
X146.5Y-77.225
X147.25Y-115.775
X147.65Y-108.45
X148.75Y-112.975
X150.5Y-97.5
X151.5Y-99.0
X151.725Y-114.4
X152.775Y-103.45
X154.45Y-86.5
X154.45Y-93.55
X157.75Y-91.75
X160.2Y-91.725
X163.35Y-102.725
X166.825Y-114.35
T6
X91.5Y-117.709
X91.5Y-119.709
T7
X102.59Y-93.507
X105.13Y-93.507
X107.67Y-93.507
X115.29Y-101.127
X115.29Y-103.667
X115.29Y-106.207
T8
X101.955Y-111.287
X101.955Y-116.367
X108.305Y-111.287
X108.305Y-116.367
T9
X80.7Y-85.6
X80.7Y-88.14
X80.7Y-90.68
X80.7Y-93.22
X80.7Y-95.76
X80.7Y-98.3
X80.7Y-100.84
X80.7Y-103.38
X80.7Y-105.92
X122.35Y-108.01
X122.35Y-110.55
X122.35Y-113.09
X161.875Y-79.388
X161.875Y-81.888
X165.875Y-79.388
X165.875Y-81.888
X169.875Y-79.388
X169.875Y-81.888
T10
X159.875Y-77.638
X159.875Y-83.638
X171.875Y-77.638
X171.875Y-83.638
T11
X97.51Y-97.0
X97.51Y-110.335
X112.75Y-97.0
X112.75Y-110.335
T12
X138.95Y-87.924
X138.95Y-92.924
X151.45Y-87.924
X151.45Y-92.924
X156.969Y-107.912
X160.855Y-111.059
X164.836Y-98.198
X167.264Y-111.39
X168.721Y-101.344
X169.457Y-93.647
X170.411Y-107.504
X172.466Y-97.64
X176.979Y-119.257
X178.596Y-99.559
X179.44Y-86.124
X180.125Y-115.371
X182.449Y-90.117
X182.589Y-96.55
X185.122Y-82.851
X186.118Y-109.542
X187.075Y-87.453
X190.111Y-106.533
X192.587Y-90.798
X196.628Y-77.966
X197.189Y-88.844
X197.471Y-102.304
X198.581Y-82.569
X202.073Y-100.35
T4
G00X141.7Y-73.541
M15
G01X141.7Y-72.891
M16
G05
G00X148.7Y-73.541
M15
G01X148.7Y-72.891
M16
G05
T5
G00X142.85Y-75.916
M15
G01X142.55Y-75.916
M16
G05
G00X147.85Y-75.916
M15
G01X147.55Y-75.916
M16
G05
M30
