%TF.GenerationSoftware,KiCad,Pcbnew,8.0.4*%
%TF.CreationDate,2025-03-19T10:06:30-07:00*%
%TF.ProjectId,aqp_controller,6171705f-636f-46e7-9472-6f6c6c65722e,rev0*%
%TF.SameCoordinates,Original*%
%TF.FileFunction,Drillmap*%
%TF.FilePolarity,Positive*%
%FSLAX45Y45*%
G04 Gerber Fmt 4.5, Leading zero omitted, Abs format (unit mm)*
G04 Created by KiCad (PCBNEW 8.0.4) date 2025-03-19 10:06:30*
%MOMM*%
%LPD*%
G01*
G04 APERTURE LIST*
%ADD10C,0.050000*%
%ADD11C,0.200000*%
%ADD12C,0.100000*%
%ADD13C,0.130000*%
%ADD14C,0.139700*%
%ADD15C,0.140000*%
G04 APERTURE END LIST*
D10*
X8460000Y-12275000D02*
G75*
G02*
X8140000Y-12275000I-160000J0D01*
G01*
X8140000Y-12275000D02*
G75*
G02*
X8460000Y-12275000I160000J0D01*
G01*
X8460000Y-7675000D02*
G75*
G02*
X8140000Y-7675000I-160000J0D01*
G01*
X8140000Y-7675000D02*
G75*
G02*
X8460000Y-7675000I160000J0D01*
G01*
X20900000Y-12275000D02*
G75*
G02*
X20580000Y-12275000I-160000J0D01*
G01*
X20580000Y-12275000D02*
G75*
G02*
X20900000Y-12275000I160000J0D01*
G01*
X15570000Y-7675000D02*
G75*
G02*
X15250000Y-7675000I-160000J0D01*
G01*
X15250000Y-7675000D02*
G75*
G02*
X15570000Y-7675000I160000J0D01*
G01*
X7800000Y-7675000D02*
G75*
G02*
X8300000Y-7175000I500000J0D01*
G01*
X8300000Y-12775000D02*
X20740000Y-12775000D01*
X7800000Y-12275000D02*
X7800000Y-7675000D01*
X8300000Y-12775000D02*
G75*
G02*
X7800000Y-12275000I0J500000D01*
G01*
X21240000Y-12275000D02*
G75*
G02*
X20740000Y-12775000I-500000J0D01*
G01*
X21240000Y-12275000D02*
X21240000Y-7675000D01*
X20900000Y-7675000D02*
G75*
G02*
X20580000Y-7675000I-160000J0D01*
G01*
X20580000Y-7675000D02*
G75*
G02*
X20900000Y-7675000I160000J0D01*
G01*
X20740000Y-7175000D02*
G75*
G02*
X21240000Y-7675000I0J-500000D01*
G01*
X20740000Y-7175000D02*
X8300000Y-7175000D01*
D11*
D12*
X8637500Y-8802500D02*
X8657500Y-8822500D01*
X8657500Y-8802500D02*
X8637500Y-8822500D01*
X8637500Y-9055000D02*
X8657500Y-9075000D01*
X8657500Y-9055000D02*
X8637500Y-9075000D01*
X8637500Y-10327500D02*
X8657500Y-10347500D01*
X8657500Y-10327500D02*
X8637500Y-10347500D01*
X8637500Y-10580000D02*
X8657500Y-10600000D01*
X8657500Y-10580000D02*
X8637500Y-10600000D01*
X8640000Y-9310000D02*
X8660000Y-9330000D01*
X8660000Y-9310000D02*
X8640000Y-9330000D01*
X8642500Y-9817500D02*
X8662500Y-9837500D01*
X8662500Y-9817500D02*
X8642500Y-9837500D01*
X8645000Y-9565000D02*
X8665000Y-9585000D01*
X8665000Y-9565000D02*
X8645000Y-9585000D01*
X8647500Y-10070000D02*
X8667500Y-10090000D01*
X8667500Y-10070000D02*
X8647500Y-10090000D01*
X9840000Y-7750000D02*
X9860000Y-7770000D01*
X9860000Y-7750000D02*
X9840000Y-7770000D01*
X10605000Y-7580000D02*
X10625000Y-7600000D01*
X10625000Y-7580000D02*
X10605000Y-7600000D01*
X11761605Y-11620895D02*
X11781605Y-11640895D01*
X11781605Y-11620895D02*
X11761605Y-11640895D01*
X11765000Y-11910000D02*
X11785000Y-11930000D01*
X11785000Y-11910000D02*
X11765000Y-11930000D01*
X11941605Y-11800895D02*
X11961605Y-11820895D01*
X11961605Y-11800895D02*
X11941605Y-11820895D01*
X11947855Y-9359645D02*
X11967855Y-9379645D01*
X11967855Y-9359645D02*
X11947855Y-9379645D01*
X11980000Y-11920000D02*
X12000000Y-11940000D01*
X12000000Y-11920000D02*
X11980000Y-11940000D01*
X12080000Y-9407500D02*
X12100000Y-9427500D01*
X12100000Y-9407500D02*
X12080000Y-9427500D01*
X12080000Y-9962500D02*
X12100000Y-9982500D01*
X12100000Y-9962500D02*
X12080000Y-9982500D01*
X12125000Y-12002500D02*
X12145000Y-12022500D01*
X12145000Y-12002500D02*
X12125000Y-12022500D01*
X12340000Y-8670000D02*
X12360000Y-8690000D01*
X12360000Y-8670000D02*
X12340000Y-8690000D01*
X12405110Y-10014890D02*
X12425110Y-10034890D01*
X12425110Y-10014890D02*
X12405110Y-10034890D01*
X12432500Y-10072500D02*
X12452500Y-10092500D01*
X12452500Y-10072500D02*
X12432500Y-10092500D01*
X12527500Y-11802500D02*
X12547500Y-11822500D01*
X12547500Y-11802500D02*
X12527500Y-11822500D01*
X12567500Y-11362500D02*
X12587500Y-11382500D01*
X12587500Y-11362500D02*
X12567500Y-11382500D01*
X12572500Y-10982500D02*
X12592500Y-11002500D01*
X12592500Y-10982500D02*
X12572500Y-11002500D01*
X12575000Y-10857500D02*
X12595000Y-10877500D01*
X12595000Y-10857500D02*
X12575000Y-10877500D01*
X12575000Y-11110000D02*
X12595000Y-11130000D01*
X12595000Y-11110000D02*
X12575000Y-11130000D01*
X12575000Y-11237500D02*
X12595000Y-11257500D01*
X12595000Y-11237500D02*
X12575000Y-11257500D01*
X12590000Y-10350000D02*
X12610000Y-10370000D01*
X12610000Y-10350000D02*
X12590000Y-10370000D01*
X12615000Y-9560000D02*
X12635000Y-9580000D01*
X12635000Y-9560000D02*
X12615000Y-9580000D01*
X12625000Y-10014890D02*
X12645000Y-10034890D01*
X12645000Y-10014890D02*
X12625000Y-10034890D01*
X12990000Y-9550000D02*
X13010000Y-9570000D01*
X13010000Y-9550000D02*
X12990000Y-9570000D01*
X13007500Y-8140000D02*
X13027500Y-8160000D01*
X13027500Y-8140000D02*
X13007500Y-8160000D01*
X13020000Y-10097500D02*
X13040000Y-10117500D01*
X13040000Y-10097500D02*
X13020000Y-10117500D01*
X13195000Y-10987500D02*
X13215000Y-11007500D01*
X13215000Y-10987500D02*
X13195000Y-11007500D01*
X13275000Y-10105000D02*
X13295000Y-10125000D01*
X13295000Y-10105000D02*
X13275000Y-10125000D01*
X13392500Y-7430000D02*
X13412500Y-7450000D01*
X13412500Y-7430000D02*
X13392500Y-7450000D01*
X13392500Y-7780000D02*
X13412500Y-7800000D01*
X13412500Y-7780000D02*
X13392500Y-7800000D01*
X13467500Y-9995000D02*
X13487500Y-10015000D01*
X13487500Y-9995000D02*
X13467500Y-10015000D01*
X13472500Y-7785000D02*
X13492500Y-7805000D01*
X13492500Y-7785000D02*
X13472500Y-7805000D01*
X13525000Y-10095000D02*
X13545000Y-10115000D01*
X13545000Y-10095000D02*
X13525000Y-10115000D01*
X13682500Y-7410000D02*
X13702500Y-7430000D01*
X13702500Y-7410000D02*
X13682500Y-7430000D01*
X13739252Y-8103395D02*
X13759252Y-8123395D01*
X13759252Y-8103395D02*
X13739252Y-8123395D01*
X13780000Y-10095000D02*
X13800000Y-10115000D01*
X13800000Y-10095000D02*
X13780000Y-10115000D01*
X13781679Y-8060968D02*
X13801679Y-8080968D01*
X13801679Y-8060968D02*
X13781679Y-8080968D01*
X13815000Y-8200000D02*
X13835000Y-8220000D01*
X13835000Y-8200000D02*
X13815000Y-8220000D01*
X13867500Y-8155000D02*
X13887500Y-8175000D01*
X13887500Y-8155000D02*
X13867500Y-8175000D01*
X13877500Y-7802500D02*
X13897500Y-7822500D01*
X13897500Y-7802500D02*
X13877500Y-7822500D01*
X13907500Y-10097500D02*
X13927500Y-10117500D01*
X13927500Y-10097500D02*
X13907500Y-10117500D01*
X13940000Y-9590000D02*
X13960000Y-9610000D01*
X13960000Y-9590000D02*
X13940000Y-9610000D01*
X14035000Y-10100000D02*
X14055000Y-10120000D01*
X14055000Y-10100000D02*
X14035000Y-10120000D01*
X14040000Y-9640000D02*
X14060000Y-9660000D01*
X14060000Y-9640000D02*
X14040000Y-9660000D01*
X14040000Y-9790000D02*
X14060000Y-9810000D01*
X14060000Y-9790000D02*
X14040000Y-9810000D01*
X14245000Y-11690000D02*
X14265000Y-11710000D01*
X14265000Y-11690000D02*
X14245000Y-11710000D01*
X14287500Y-8000000D02*
X14307500Y-8020000D01*
X14307500Y-8000000D02*
X14287500Y-8020000D01*
X14295000Y-8374475D02*
X14315000Y-8394475D01*
X14315000Y-8374475D02*
X14295000Y-8394475D01*
X14297500Y-8852500D02*
X14317500Y-8872500D01*
X14317500Y-8852500D02*
X14297500Y-8872500D01*
X14390000Y-10070000D02*
X14410000Y-10090000D01*
X14410000Y-10070000D02*
X14390000Y-10090000D01*
X14510000Y-7687500D02*
X14530000Y-7707500D01*
X14530000Y-7687500D02*
X14510000Y-7707500D01*
X14582500Y-11110000D02*
X14602500Y-11130000D01*
X14602500Y-11110000D02*
X14582500Y-11130000D01*
X14595000Y-10985000D02*
X14615000Y-11005000D01*
X14615000Y-10985000D02*
X14595000Y-11005000D01*
X14602500Y-10727500D02*
X14622500Y-10747500D01*
X14622500Y-10727500D02*
X14602500Y-10747500D01*
X14605000Y-10480000D02*
X14625000Y-10500000D01*
X14625000Y-10480000D02*
X14605000Y-10500000D01*
X14605000Y-11750000D02*
X14625000Y-11770000D01*
X14625000Y-11750000D02*
X14605000Y-11770000D01*
X14632500Y-10337500D02*
X14652500Y-10357500D01*
X14652500Y-10337500D02*
X14632500Y-10357500D01*
X13620000Y-11169000D02*
G75*
G02*
X13600000Y-11169000I-10000J0D01*
G01*
X13600000Y-11169000D02*
G75*
G02*
X13620000Y-11169000I10000J0D01*
G01*
X13620000Y-11309000D02*
G75*
G02*
X13600000Y-11309000I-10000J0D01*
G01*
X13600000Y-11309000D02*
G75*
G02*
X13620000Y-11309000I10000J0D01*
G01*
X13690000Y-11099000D02*
G75*
G02*
X13670000Y-11099000I-10000J0D01*
G01*
X13670000Y-11099000D02*
G75*
G02*
X13690000Y-11099000I10000J0D01*
G01*
X13690000Y-11239000D02*
G75*
G02*
X13670000Y-11239000I-10000J0D01*
G01*
X13670000Y-11239000D02*
G75*
G02*
X13690000Y-11239000I10000J0D01*
G01*
X13690000Y-11379000D02*
G75*
G02*
X13670000Y-11379000I-10000J0D01*
G01*
X13670000Y-11379000D02*
G75*
G02*
X13690000Y-11379000I10000J0D01*
G01*
X13760000Y-11169000D02*
G75*
G02*
X13740000Y-11169000I-10000J0D01*
G01*
X13740000Y-11169000D02*
G75*
G02*
X13760000Y-11169000I10000J0D01*
G01*
X13760000Y-11309000D02*
G75*
G02*
X13740000Y-11309000I-10000J0D01*
G01*
X13740000Y-11309000D02*
G75*
G02*
X13760000Y-11309000I10000J0D01*
G01*
X13830000Y-11099000D02*
G75*
G02*
X13810000Y-11099000I-10000J0D01*
G01*
X13810000Y-11099000D02*
G75*
G02*
X13830000Y-11099000I10000J0D01*
G01*
X13830000Y-11239000D02*
G75*
G02*
X13810000Y-11239000I-10000J0D01*
G01*
X13810000Y-11239000D02*
G75*
G02*
X13830000Y-11239000I10000J0D01*
G01*
X13830000Y-11379000D02*
G75*
G02*
X13810000Y-11379000I-10000J0D01*
G01*
X13810000Y-11379000D02*
G75*
G02*
X13830000Y-11379000I10000J0D01*
G01*
X13900000Y-11169000D02*
G75*
G02*
X13880000Y-11169000I-10000J0D01*
G01*
X13880000Y-11169000D02*
G75*
G02*
X13900000Y-11169000I10000J0D01*
G01*
X13900000Y-11309000D02*
G75*
G02*
X13880000Y-11309000I-10000J0D01*
G01*
X13880000Y-11309000D02*
G75*
G02*
X13900000Y-11309000I10000J0D01*
G01*
X11282500Y-11540000D02*
X11282500Y-11570000D01*
X11267500Y-11555000D02*
X11297500Y-11555000D01*
X11597500Y-11025000D02*
X11597500Y-11055000D01*
X11582500Y-11040000D02*
X11612500Y-11040000D01*
X11775000Y-11025000D02*
X11775000Y-11055000D01*
X11760000Y-11040000D02*
X11790000Y-11040000D01*
X11885000Y-10387500D02*
X11885000Y-10417500D01*
X11870000Y-10402500D02*
X11900000Y-10402500D01*
X11885000Y-11520000D02*
X11885000Y-11550000D01*
X11870000Y-11535000D02*
X11900000Y-11535000D01*
X11905000Y-11935000D02*
X11905000Y-11965000D01*
X11890000Y-11950000D02*
X11920000Y-11950000D01*
X11935000Y-10575000D02*
X11935000Y-10605000D01*
X11920000Y-10590000D02*
X11950000Y-10590000D01*
X11935000Y-10910000D02*
X11935000Y-10940000D01*
X11920000Y-10925000D02*
X11950000Y-10925000D01*
X11947500Y-11270000D02*
X11947500Y-11300000D01*
X11932500Y-11285000D02*
X11962500Y-11285000D01*
X11960343Y-11674184D02*
X11960343Y-11704184D01*
X11945343Y-11689184D02*
X11975343Y-11689184D01*
X12117500Y-10125000D02*
X12117500Y-10155000D01*
X12102500Y-10140000D02*
X12132500Y-10140000D01*
X12255000Y-11552500D02*
X12255000Y-11582500D01*
X12240000Y-11567500D02*
X12270000Y-11567500D01*
X12305000Y-10470000D02*
X12305000Y-10500000D01*
X12290000Y-10485000D02*
X12320000Y-10485000D01*
X12437500Y-11077500D02*
X12437500Y-11107500D01*
X12422500Y-11092500D02*
X12452500Y-11092500D01*
X12536949Y-9712507D02*
X12536949Y-9742507D01*
X12521949Y-9727507D02*
X12551949Y-9727507D01*
X12632000Y-9917117D02*
X12632000Y-9947117D01*
X12617000Y-9932117D02*
X12647000Y-9932117D01*
X12797500Y-9105000D02*
X12797500Y-9135000D01*
X12782500Y-9120000D02*
X12812500Y-9120000D01*
X12940000Y-11587500D02*
X12940000Y-11617500D01*
X12925000Y-11602500D02*
X12955000Y-11602500D01*
X12955000Y-9925000D02*
X12955000Y-9955000D01*
X12940000Y-9940000D02*
X12970000Y-9940000D01*
X12982500Y-10675000D02*
X12982500Y-10705000D01*
X12967500Y-10690000D02*
X12997500Y-10690000D01*
X12982500Y-11240000D02*
X12982500Y-11270000D01*
X12967500Y-11255000D02*
X12997500Y-11255000D01*
X13240000Y-10502500D02*
X13240000Y-10532500D01*
X13225000Y-10517500D02*
X13255000Y-10517500D01*
X13400000Y-9635000D02*
X13400000Y-9665000D01*
X13385000Y-9650000D02*
X13415000Y-9650000D01*
X13754786Y-7579463D02*
X13754786Y-7609463D01*
X13739786Y-7594463D02*
X13769786Y-7594463D01*
X14027500Y-7605000D02*
X14027500Y-7635000D01*
X14012500Y-7620000D02*
X14042500Y-7620000D01*
X14186137Y-9965419D02*
X14186137Y-9995419D01*
X14171137Y-9980419D02*
X14201137Y-9980419D01*
X14422500Y-9210000D02*
X14422500Y-9240000D01*
X14407500Y-9225000D02*
X14437500Y-9225000D01*
X14607500Y-12070000D02*
X14607500Y-12100000D01*
X14592500Y-12085000D02*
X14622500Y-12085000D01*
X14622500Y-11869000D02*
X14622500Y-11899000D01*
X14607500Y-11884000D02*
X14637500Y-11884000D01*
X14650000Y-7707500D02*
X14650000Y-7737500D01*
X14635000Y-7722500D02*
X14665000Y-7722500D01*
X14725000Y-11562500D02*
X14725000Y-11592500D01*
X14710000Y-11577500D02*
X14740000Y-11577500D01*
X14765000Y-10830000D02*
X14765000Y-10860000D01*
X14750000Y-10845000D02*
X14780000Y-10845000D01*
X14875000Y-11282500D02*
X14875000Y-11312500D01*
X14860000Y-11297500D02*
X14890000Y-11297500D01*
X15050000Y-9735000D02*
X15050000Y-9765000D01*
X15035000Y-9750000D02*
X15065000Y-9750000D01*
X15150000Y-9885000D02*
X15150000Y-9915000D01*
X15135000Y-9900000D02*
X15165000Y-9900000D01*
X15172500Y-11425000D02*
X15172500Y-11455000D01*
X15157500Y-11440000D02*
X15187500Y-11440000D01*
X15277500Y-10330000D02*
X15277500Y-10360000D01*
X15262500Y-10345000D02*
X15292500Y-10345000D01*
X15445000Y-8635000D02*
X15445000Y-8665000D01*
X15430000Y-8650000D02*
X15460000Y-8650000D01*
X15445000Y-9340000D02*
X15445000Y-9370000D01*
X15430000Y-9355000D02*
X15460000Y-9355000D01*
X15775000Y-9160000D02*
X15775000Y-9190000D01*
X15760000Y-9175000D02*
X15790000Y-9175000D01*
X16020000Y-9157500D02*
X16020000Y-9187500D01*
X16005000Y-9172500D02*
X16035000Y-9172500D01*
X16335000Y-10257500D02*
X16335000Y-10287500D01*
X16320000Y-10272500D02*
X16350000Y-10272500D01*
X16682500Y-11420000D02*
X16682500Y-11450000D01*
X16667500Y-11435000D02*
X16697500Y-11435000D01*
X14187678Y-7339308D02*
X14187678Y-7303952D01*
X14152322Y-7303952D01*
X14152322Y-7339308D01*
X14187678Y-7339308D01*
X14195000Y-7354130D02*
X14195000Y-7289130D01*
X14145000Y-7289130D02*
G75*
G02*
X14195000Y-7289130I25000J0D01*
G01*
X14145000Y-7289130D02*
X14145000Y-7354130D01*
X14145000Y-7354130D02*
G75*
G03*
X14195000Y-7354130I25000J0D01*
G01*
X14887678Y-7339308D02*
X14887678Y-7303952D01*
X14852322Y-7303952D01*
X14852322Y-7339308D01*
X14887678Y-7339308D01*
X14895000Y-7354130D02*
X14895000Y-7289130D01*
X14845000Y-7289130D02*
G75*
G02*
X14895000Y-7289130I25000J0D01*
G01*
X14845000Y-7289130D02*
X14845000Y-7354130D01*
X14845000Y-7354130D02*
G75*
G03*
X14895000Y-7354130I25000J0D01*
G01*
X14270000Y-7619130D02*
X14297500Y-7591630D01*
X14270000Y-7564130D01*
X14242500Y-7591630D01*
X14270000Y-7619130D01*
X14285000Y-7564130D02*
X14255000Y-7564130D01*
X14255000Y-7619130D02*
G75*
G02*
X14255000Y-7564130I0J27500D01*
G01*
X14255000Y-7619130D02*
X14285000Y-7619130D01*
X14285000Y-7619130D02*
G75*
G03*
X14285000Y-7564130I0J27500D01*
G01*
X14770000Y-7619130D02*
X14797500Y-7591630D01*
X14770000Y-7564130D01*
X14742500Y-7591630D01*
X14770000Y-7619130D01*
X14785000Y-7564130D02*
X14755000Y-7564130D01*
X14755000Y-7619130D02*
G75*
G02*
X14755000Y-7564130I0J27500D01*
G01*
X14755000Y-7619130D02*
X14785000Y-7619130D01*
X14785000Y-7619130D02*
G75*
G03*
X14785000Y-7564130I0J27500D01*
G01*
X9110000Y-11730890D02*
X9190000Y-11810890D01*
X9190000Y-11730890D02*
X9110000Y-11810890D01*
X9190000Y-11770890D02*
G75*
G02*
X9110000Y-11770890I-40000J0D01*
G01*
X9110000Y-11770890D02*
G75*
G02*
X9190000Y-11770890I40000J0D01*
G01*
X9110000Y-11930890D02*
X9190000Y-12010890D01*
X9190000Y-11930890D02*
X9110000Y-12010890D01*
X9190000Y-11970890D02*
G75*
G02*
X9110000Y-11970890I-40000J0D01*
G01*
X9110000Y-11970890D02*
G75*
G02*
X9190000Y-11970890I40000J0D01*
G01*
X10214550Y-9306300D02*
X10303450Y-9395200D01*
X10303450Y-9306300D02*
X10214550Y-9395200D01*
X10259000Y-9306300D02*
X10259000Y-9395200D01*
X10214550Y-9350750D02*
X10303450Y-9350750D01*
X10468550Y-9306300D02*
X10557450Y-9395200D01*
X10557450Y-9306300D02*
X10468550Y-9395200D01*
X10513000Y-9306300D02*
X10513000Y-9395200D01*
X10468550Y-9350750D02*
X10557450Y-9350750D01*
X10722550Y-9306300D02*
X10811450Y-9395200D01*
X10811450Y-9306300D02*
X10722550Y-9395200D01*
X10767000Y-9306300D02*
X10767000Y-9395200D01*
X10722550Y-9350750D02*
X10811450Y-9350750D01*
X11484550Y-10068300D02*
X11573450Y-10157200D01*
X11573450Y-10068300D02*
X11484550Y-10157200D01*
X11529000Y-10068300D02*
X11529000Y-10157200D01*
X11484550Y-10112750D02*
X11573450Y-10112750D01*
X11484550Y-10322300D02*
X11573450Y-10411200D01*
X11573450Y-10322300D02*
X11484550Y-10411200D01*
X11529000Y-10322300D02*
X11529000Y-10411200D01*
X11484550Y-10366750D02*
X11573450Y-10366750D01*
X11484550Y-10576300D02*
X11573450Y-10665200D01*
X11573450Y-10576300D02*
X11484550Y-10665200D01*
X11529000Y-10576300D02*
X11529000Y-10665200D01*
X11484550Y-10620750D02*
X11573450Y-10620750D01*
X10150500Y-11083750D02*
X10240500Y-11173750D01*
X10240500Y-11083750D02*
X10150500Y-11173750D01*
X10227320Y-11160570D02*
X10227320Y-11096930D01*
X10163680Y-11096930D01*
X10163680Y-11160570D01*
X10227320Y-11160570D01*
X10150500Y-11591750D02*
X10240500Y-11681750D01*
X10240500Y-11591750D02*
X10150500Y-11681750D01*
X10227320Y-11668570D02*
X10227320Y-11604930D01*
X10163680Y-11604930D01*
X10163680Y-11668570D01*
X10227320Y-11668570D01*
X10785500Y-11083750D02*
X10875500Y-11173750D01*
X10875500Y-11083750D02*
X10785500Y-11173750D01*
X10862320Y-11160570D02*
X10862320Y-11096930D01*
X10798680Y-11096930D01*
X10798680Y-11160570D01*
X10862320Y-11160570D01*
X10785500Y-11591750D02*
X10875500Y-11681750D01*
X10875500Y-11591750D02*
X10785500Y-11681750D01*
X10862320Y-11668570D02*
X10862320Y-11604930D01*
X10798680Y-11604930D01*
X10798680Y-11668570D01*
X10862320Y-11668570D01*
X8020000Y-8510000D02*
X8120000Y-8610000D01*
X8120000Y-8510000D02*
X8020000Y-8610000D01*
X8070000Y-8610000D02*
X8120000Y-8560000D01*
X8070000Y-8510000D01*
X8020000Y-8560000D01*
X8070000Y-8610000D01*
X8020000Y-8764000D02*
X8120000Y-8864000D01*
X8120000Y-8764000D02*
X8020000Y-8864000D01*
X8070000Y-8864000D02*
X8120000Y-8814000D01*
X8070000Y-8764000D01*
X8020000Y-8814000D01*
X8070000Y-8864000D01*
X8020000Y-9018000D02*
X8120000Y-9118000D01*
X8120000Y-9018000D02*
X8020000Y-9118000D01*
X8070000Y-9118000D02*
X8120000Y-9068000D01*
X8070000Y-9018000D01*
X8020000Y-9068000D01*
X8070000Y-9118000D01*
X8020000Y-9272000D02*
X8120000Y-9372000D01*
X8120000Y-9272000D02*
X8020000Y-9372000D01*
X8070000Y-9372000D02*
X8120000Y-9322000D01*
X8070000Y-9272000D01*
X8020000Y-9322000D01*
X8070000Y-9372000D01*
X8020000Y-9526000D02*
X8120000Y-9626000D01*
X8120000Y-9526000D02*
X8020000Y-9626000D01*
X8070000Y-9626000D02*
X8120000Y-9576000D01*
X8070000Y-9526000D01*
X8020000Y-9576000D01*
X8070000Y-9626000D01*
X8020000Y-9780000D02*
X8120000Y-9880000D01*
X8120000Y-9780000D02*
X8020000Y-9880000D01*
X8070000Y-9880000D02*
X8120000Y-9830000D01*
X8070000Y-9780000D01*
X8020000Y-9830000D01*
X8070000Y-9880000D01*
X8020000Y-10034000D02*
X8120000Y-10134000D01*
X8120000Y-10034000D02*
X8020000Y-10134000D01*
X8070000Y-10134000D02*
X8120000Y-10084000D01*
X8070000Y-10034000D01*
X8020000Y-10084000D01*
X8070000Y-10134000D01*
X8020000Y-10288000D02*
X8120000Y-10388000D01*
X8120000Y-10288000D02*
X8020000Y-10388000D01*
X8070000Y-10388000D02*
X8120000Y-10338000D01*
X8070000Y-10288000D01*
X8020000Y-10338000D01*
X8070000Y-10388000D01*
X8020000Y-10542000D02*
X8120000Y-10642000D01*
X8120000Y-10542000D02*
X8020000Y-10642000D01*
X8070000Y-10642000D02*
X8120000Y-10592000D01*
X8070000Y-10542000D01*
X8020000Y-10592000D01*
X8070000Y-10642000D01*
X12185000Y-10751000D02*
X12285000Y-10851000D01*
X12285000Y-10751000D02*
X12185000Y-10851000D01*
X12235000Y-10851000D02*
X12285000Y-10801000D01*
X12235000Y-10751000D01*
X12185000Y-10801000D01*
X12235000Y-10851000D01*
X12185000Y-11005000D02*
X12285000Y-11105000D01*
X12285000Y-11005000D02*
X12185000Y-11105000D01*
X12235000Y-11105000D02*
X12285000Y-11055000D01*
X12235000Y-11005000D01*
X12185000Y-11055000D01*
X12235000Y-11105000D01*
X12185000Y-11259000D02*
X12285000Y-11359000D01*
X12285000Y-11259000D02*
X12185000Y-11359000D01*
X12235000Y-11359000D02*
X12285000Y-11309000D01*
X12235000Y-11259000D01*
X12185000Y-11309000D01*
X12235000Y-11359000D01*
X16137500Y-7888750D02*
X16237500Y-7988750D01*
X16237500Y-7888750D02*
X16137500Y-7988750D01*
X16187500Y-7988750D02*
X16237500Y-7938750D01*
X16187500Y-7888750D01*
X16137500Y-7938750D01*
X16187500Y-7988750D01*
X16137500Y-8138750D02*
X16237500Y-8238750D01*
X16237500Y-8138750D02*
X16137500Y-8238750D01*
X16187500Y-8238750D02*
X16237500Y-8188750D01*
X16187500Y-8138750D01*
X16137500Y-8188750D01*
X16187500Y-8238750D01*
X16537500Y-7888750D02*
X16637500Y-7988750D01*
X16637500Y-7888750D02*
X16537500Y-7988750D01*
X16587500Y-7988750D02*
X16637500Y-7938750D01*
X16587500Y-7888750D01*
X16537500Y-7938750D01*
X16587500Y-7988750D01*
X16537500Y-8138750D02*
X16637500Y-8238750D01*
X16637500Y-8138750D02*
X16537500Y-8238750D01*
X16587500Y-8238750D02*
X16637500Y-8188750D01*
X16587500Y-8138750D01*
X16537500Y-8188750D01*
X16587500Y-8238750D01*
X16937500Y-7888750D02*
X17037500Y-7988750D01*
X17037500Y-7888750D02*
X16937500Y-7988750D01*
X16987500Y-7988750D02*
X17037500Y-7938750D01*
X16987500Y-7888750D01*
X16937500Y-7938750D01*
X16987500Y-7988750D01*
X16937500Y-8138750D02*
X17037500Y-8238750D01*
X17037500Y-8138750D02*
X16937500Y-8238750D01*
X16987500Y-8238750D02*
X17037500Y-8188750D01*
X16987500Y-8138750D01*
X16937500Y-8188750D01*
X16987500Y-8238750D01*
D13*
X15987500Y-7698750D02*
X15987500Y-7828750D01*
X15922500Y-7763750D02*
X16052500Y-7763750D01*
X16052500Y-7763750D02*
G75*
G02*
X15922500Y-7763750I-65000J0D01*
G01*
X15922500Y-7763750D02*
G75*
G02*
X16052500Y-7763750I65000J0D01*
G01*
X15987500Y-8298750D02*
X15987500Y-8428750D01*
X15922500Y-8363750D02*
X16052500Y-8363750D01*
X16052500Y-8363750D02*
G75*
G02*
X15922500Y-8363750I-65000J0D01*
G01*
X15922500Y-8363750D02*
G75*
G02*
X16052500Y-8363750I65000J0D01*
G01*
X17187500Y-7698750D02*
X17187500Y-7828750D01*
X17122500Y-7763750D02*
X17252500Y-7763750D01*
X17252500Y-7763750D02*
G75*
G02*
X17122500Y-7763750I-65000J0D01*
G01*
X17122500Y-7763750D02*
G75*
G02*
X17252500Y-7763750I65000J0D01*
G01*
X17187500Y-8298750D02*
X17187500Y-8428750D01*
X17122500Y-8363750D02*
X17252500Y-8363750D01*
X17252500Y-8363750D02*
G75*
G02*
X17122500Y-8363750I-65000J0D01*
G01*
X17122500Y-8363750D02*
G75*
G02*
X17252500Y-8363750I65000J0D01*
G01*
D14*
X9800392Y-9749392D02*
X9800392Y-9650608D01*
X9701608Y-9650608D01*
X9701608Y-9749392D01*
X9800392Y-9749392D01*
X9820850Y-9700000D02*
G75*
G02*
X9681150Y-9700000I-69850J0D01*
G01*
X9681150Y-9700000D02*
G75*
G02*
X9820850Y-9700000I69850J0D01*
G01*
X9800392Y-11082892D02*
X9800392Y-10984108D01*
X9701608Y-10984108D01*
X9701608Y-11082892D01*
X9800392Y-11082892D01*
X9820850Y-11033500D02*
G75*
G02*
X9681150Y-11033500I-69850J0D01*
G01*
X9681150Y-11033500D02*
G75*
G02*
X9820850Y-11033500I69850J0D01*
G01*
X11324392Y-9749392D02*
X11324392Y-9650608D01*
X11225608Y-9650608D01*
X11225608Y-9749392D01*
X11324392Y-9749392D01*
X11344850Y-9700000D02*
G75*
G02*
X11205150Y-9700000I-69850J0D01*
G01*
X11205150Y-9700000D02*
G75*
G02*
X11344850Y-9700000I69850J0D01*
G01*
X11324392Y-11082892D02*
X11324392Y-10984108D01*
X11225608Y-10984108D01*
X11225608Y-11082892D01*
X11324392Y-11082892D01*
X11344850Y-11033500D02*
G75*
G02*
X11205150Y-11033500I-69850J0D01*
G01*
X11205150Y-11033500D02*
G75*
G02*
X11344850Y-11033500I69850J0D01*
G01*
D15*
X13895000Y-8862410D02*
X13965000Y-8792410D01*
X13895000Y-8722410D01*
X13825000Y-8792410D01*
X13895000Y-8862410D01*
X13965000Y-8792410D02*
G75*
G02*
X13825000Y-8792410I-70000J0D01*
G01*
X13825000Y-8792410D02*
G75*
G02*
X13965000Y-8792410I70000J0D01*
G01*
X13895000Y-9362410D02*
X13965000Y-9292410D01*
X13895000Y-9222410D01*
X13825000Y-9292410D01*
X13895000Y-9362410D01*
X13965000Y-9292410D02*
G75*
G02*
X13825000Y-9292410I-70000J0D01*
G01*
X13825000Y-9292410D02*
G75*
G02*
X13965000Y-9292410I70000J0D01*
G01*
X15145000Y-8862410D02*
X15215000Y-8792410D01*
X15145000Y-8722410D01*
X15075000Y-8792410D01*
X15145000Y-8862410D01*
X15215000Y-8792410D02*
G75*
G02*
X15075000Y-8792410I-70000J0D01*
G01*
X15075000Y-8792410D02*
G75*
G02*
X15215000Y-8792410I70000J0D01*
G01*
X15145000Y-9362410D02*
X15215000Y-9292410D01*
X15145000Y-9222410D01*
X15075000Y-9292410D01*
X15145000Y-9362410D01*
X15215000Y-9292410D02*
G75*
G02*
X15075000Y-9292410I-70000J0D01*
G01*
X15075000Y-9292410D02*
G75*
G02*
X15215000Y-9292410I70000J0D01*
G01*
X15696918Y-10861196D02*
X15766918Y-10791196D01*
X15696918Y-10721196D01*
X15626918Y-10791196D01*
X15696918Y-10861196D01*
X15766918Y-10791196D02*
G75*
G02*
X15626918Y-10791196I-70000J0D01*
G01*
X15626918Y-10791196D02*
G75*
G02*
X15766918Y-10791196I70000J0D01*
G01*
X16085491Y-11175856D02*
X16155491Y-11105856D01*
X16085491Y-11035856D01*
X16015491Y-11105856D01*
X16085491Y-11175856D01*
X16155491Y-11105856D02*
G75*
G02*
X16015491Y-11105856I-70000J0D01*
G01*
X16015491Y-11105856D02*
G75*
G02*
X16155491Y-11105856I70000J0D01*
G01*
X16483569Y-9889764D02*
X16553569Y-9819764D01*
X16483569Y-9749764D01*
X16413569Y-9819764D01*
X16483569Y-9889764D01*
X16553569Y-9819764D02*
G75*
G02*
X16413569Y-9819764I-70000J0D01*
G01*
X16413569Y-9819764D02*
G75*
G02*
X16553569Y-9819764I70000J0D01*
G01*
X16726424Y-11209001D02*
X16796424Y-11139001D01*
X16726424Y-11069001D01*
X16656424Y-11139001D01*
X16726424Y-11209001D01*
X16796424Y-11139001D02*
G75*
G02*
X16656424Y-11139001I-70000J0D01*
G01*
X16656424Y-11139001D02*
G75*
G02*
X16796424Y-11139001I70000J0D01*
G01*
X16872142Y-10204424D02*
X16942142Y-10134424D01*
X16872142Y-10064424D01*
X16802142Y-10134424D01*
X16872142Y-10204424D01*
X16942142Y-10134424D02*
G75*
G02*
X16802142Y-10134424I-70000J0D01*
G01*
X16802142Y-10134424D02*
G75*
G02*
X16942142Y-10134424I70000J0D01*
G01*
X16945709Y-9434696D02*
X17015709Y-9364696D01*
X16945709Y-9294696D01*
X16875709Y-9364696D01*
X16945709Y-9434696D01*
X17015709Y-9364696D02*
G75*
G02*
X16875709Y-9364696I-70000J0D01*
G01*
X16875709Y-9364696D02*
G75*
G02*
X17015709Y-9364696I70000J0D01*
G01*
X17041084Y-10820428D02*
X17111084Y-10750428D01*
X17041084Y-10680428D01*
X16971084Y-10750428D01*
X17041084Y-10820428D01*
X17111084Y-10750428D02*
G75*
G02*
X16971084Y-10750428I-70000J0D01*
G01*
X16971084Y-10750428D02*
G75*
G02*
X17111084Y-10750428I70000J0D01*
G01*
X17246617Y-9834013D02*
X17316617Y-9764013D01*
X17246617Y-9694013D01*
X17176617Y-9764013D01*
X17246617Y-9834013D01*
X17316617Y-9764013D02*
G75*
G02*
X17176617Y-9764013I-70000J0D01*
G01*
X17176617Y-9764013D02*
G75*
G02*
X17316617Y-9764013I70000J0D01*
G01*
X17697856Y-11995652D02*
X17767856Y-11925652D01*
X17697856Y-11855652D01*
X17627856Y-11925652D01*
X17697856Y-11995652D01*
X17767856Y-11925652D02*
G75*
G02*
X17627856Y-11925652I-70000J0D01*
G01*
X17627856Y-11925652D02*
G75*
G02*
X17767856Y-11925652I70000J0D01*
G01*
X17859557Y-10025917D02*
X17929557Y-9955917D01*
X17859557Y-9885917D01*
X17789557Y-9955917D01*
X17859557Y-10025917D01*
X17929557Y-9955917D02*
G75*
G02*
X17789557Y-9955917I-70000J0D01*
G01*
X17789557Y-9955917D02*
G75*
G02*
X17929557Y-9955917I70000J0D01*
G01*
X17944003Y-8682427D02*
X18014003Y-8612427D01*
X17944003Y-8542427D01*
X17874003Y-8612427D01*
X17944003Y-8682427D01*
X18014003Y-8612427D02*
G75*
G02*
X17874003Y-8612427I-70000J0D01*
G01*
X17874003Y-8612427D02*
G75*
G02*
X18014003Y-8612427I70000J0D01*
G01*
X18012516Y-11607079D02*
X18082516Y-11537079D01*
X18012516Y-11467079D01*
X17942516Y-11537079D01*
X18012516Y-11607079D01*
X18082516Y-11537079D02*
G75*
G02*
X17942516Y-11537079I-70000J0D01*
G01*
X17942516Y-11537079D02*
G75*
G02*
X18082516Y-11537079I70000J0D01*
G01*
X18244911Y-9081745D02*
X18314911Y-9011745D01*
X18244911Y-8941745D01*
X18174911Y-9011745D01*
X18244911Y-9081745D01*
X18314911Y-9011745D02*
G75*
G02*
X18174911Y-9011745I-70000J0D01*
G01*
X18174911Y-9011745D02*
G75*
G02*
X18314911Y-9011745I70000J0D01*
G01*
X18258875Y-9725009D02*
X18328875Y-9655009D01*
X18258875Y-9585009D01*
X18188875Y-9655009D01*
X18258875Y-9725009D01*
X18328875Y-9655009D02*
G75*
G02*
X18188875Y-9655009I-70000J0D01*
G01*
X18188875Y-9655009D02*
G75*
G02*
X18328875Y-9655009I70000J0D01*
G01*
X18512152Y-8355061D02*
X18582152Y-8285061D01*
X18512152Y-8215061D01*
X18442152Y-8285061D01*
X18512152Y-8355061D01*
X18582152Y-8285061D02*
G75*
G02*
X18442152Y-8285061I-70000J0D01*
G01*
X18442152Y-8285061D02*
G75*
G02*
X18582152Y-8285061I70000J0D01*
G01*
X18611826Y-11024211D02*
X18681826Y-10954211D01*
X18611826Y-10884211D01*
X18541826Y-10954211D01*
X18611826Y-11024211D01*
X18681826Y-10954211D02*
G75*
G02*
X18541826Y-10954211I-70000J0D01*
G01*
X18541826Y-10954211D02*
G75*
G02*
X18681826Y-10954211I70000J0D01*
G01*
X18707517Y-8815313D02*
X18777517Y-8745313D01*
X18707517Y-8675313D01*
X18637517Y-8745313D01*
X18707517Y-8815313D01*
X18777517Y-8745313D02*
G75*
G02*
X18637517Y-8745313I-70000J0D01*
G01*
X18637517Y-8745313D02*
G75*
G02*
X18777517Y-8745313I70000J0D01*
G01*
X19011143Y-10723303D02*
X19081143Y-10653303D01*
X19011143Y-10583303D01*
X18941143Y-10653303D01*
X19011143Y-10723303D01*
X19081143Y-10653303D02*
G75*
G02*
X18941143Y-10653303I-70000J0D01*
G01*
X18941143Y-10653303D02*
G75*
G02*
X19081143Y-10653303I70000J0D01*
G01*
X19258657Y-9149757D02*
X19328657Y-9079757D01*
X19258657Y-9009757D01*
X19188657Y-9079757D01*
X19258657Y-9149757D01*
X19328657Y-9079757D02*
G75*
G02*
X19188657Y-9079757I-70000J0D01*
G01*
X19188657Y-9079757D02*
G75*
G02*
X19328657Y-9079757I70000J0D01*
G01*
X19662783Y-7866647D02*
X19732783Y-7796647D01*
X19662783Y-7726647D01*
X19592783Y-7796647D01*
X19662783Y-7866647D01*
X19732783Y-7796647D02*
G75*
G02*
X19592783Y-7796647I-70000J0D01*
G01*
X19592783Y-7796647D02*
G75*
G02*
X19732783Y-7796647I70000J0D01*
G01*
X19718909Y-8954392D02*
X19788909Y-8884392D01*
X19718909Y-8814392D01*
X19648909Y-8884392D01*
X19718909Y-8954392D01*
X19788909Y-8884392D02*
G75*
G02*
X19648909Y-8884392I-70000J0D01*
G01*
X19648909Y-8884392D02*
G75*
G02*
X19788909Y-8884392I70000J0D01*
G01*
X19747071Y-10300388D02*
X19817071Y-10230388D01*
X19747071Y-10160388D01*
X19677071Y-10230388D01*
X19747071Y-10300388D01*
X19817071Y-10230388D02*
G75*
G02*
X19677071Y-10230388I-70000J0D01*
G01*
X19677071Y-10230388D02*
G75*
G02*
X19817071Y-10230388I70000J0D01*
G01*
X19858148Y-8326899D02*
X19928148Y-8256899D01*
X19858148Y-8186899D01*
X19788148Y-8256899D01*
X19858148Y-8326899D01*
X19928148Y-8256899D02*
G75*
G02*
X19788148Y-8256899I-70000J0D01*
G01*
X19788148Y-8256899D02*
G75*
G02*
X19928148Y-8256899I70000J0D01*
G01*
X20207323Y-10105023D02*
X20277323Y-10035023D01*
X20207323Y-9965023D01*
X20137323Y-10035023D01*
X20207323Y-10105023D01*
X20277323Y-10035023D02*
G75*
G02*
X20137323Y-10035023I-70000J0D01*
G01*
X20137323Y-10035023D02*
G75*
G02*
X20277323Y-10035023I70000J0D01*
G01*
D11*
X8058277Y-13088984D02*
X8058277Y-12888984D01*
X8058277Y-12888984D02*
X8105896Y-12888984D01*
X8105896Y-12888984D02*
X8134467Y-12898508D01*
X8134467Y-12898508D02*
X8153515Y-12917555D01*
X8153515Y-12917555D02*
X8163039Y-12936603D01*
X8163039Y-12936603D02*
X8172562Y-12974698D01*
X8172562Y-12974698D02*
X8172562Y-13003269D01*
X8172562Y-13003269D02*
X8163039Y-13041365D01*
X8163039Y-13041365D02*
X8153515Y-13060412D01*
X8153515Y-13060412D02*
X8134467Y-13079460D01*
X8134467Y-13079460D02*
X8105896Y-13088984D01*
X8105896Y-13088984D02*
X8058277Y-13088984D01*
X8258277Y-13088984D02*
X8258277Y-12955650D01*
X8258277Y-12993746D02*
X8267801Y-12974698D01*
X8267801Y-12974698D02*
X8277324Y-12965174D01*
X8277324Y-12965174D02*
X8296372Y-12955650D01*
X8296372Y-12955650D02*
X8315420Y-12955650D01*
X8382086Y-13088984D02*
X8382086Y-12955650D01*
X8382086Y-12888984D02*
X8372562Y-12898508D01*
X8372562Y-12898508D02*
X8382086Y-12908031D01*
X8382086Y-12908031D02*
X8391610Y-12898508D01*
X8391610Y-12898508D02*
X8382086Y-12888984D01*
X8382086Y-12888984D02*
X8382086Y-12908031D01*
X8505896Y-13088984D02*
X8486848Y-13079460D01*
X8486848Y-13079460D02*
X8477324Y-13060412D01*
X8477324Y-13060412D02*
X8477324Y-12888984D01*
X8610658Y-13088984D02*
X8591610Y-13079460D01*
X8591610Y-13079460D02*
X8582086Y-13060412D01*
X8582086Y-13060412D02*
X8582086Y-12888984D01*
X8839229Y-13088984D02*
X8839229Y-12888984D01*
X8839229Y-12888984D02*
X8905896Y-13031841D01*
X8905896Y-13031841D02*
X8972563Y-12888984D01*
X8972563Y-12888984D02*
X8972563Y-13088984D01*
X9153515Y-13088984D02*
X9153515Y-12984222D01*
X9153515Y-12984222D02*
X9143991Y-12965174D01*
X9143991Y-12965174D02*
X9124944Y-12955650D01*
X9124944Y-12955650D02*
X9086848Y-12955650D01*
X9086848Y-12955650D02*
X9067801Y-12965174D01*
X9153515Y-13079460D02*
X9134467Y-13088984D01*
X9134467Y-13088984D02*
X9086848Y-13088984D01*
X9086848Y-13088984D02*
X9067801Y-13079460D01*
X9067801Y-13079460D02*
X9058277Y-13060412D01*
X9058277Y-13060412D02*
X9058277Y-13041365D01*
X9058277Y-13041365D02*
X9067801Y-13022317D01*
X9067801Y-13022317D02*
X9086848Y-13012793D01*
X9086848Y-13012793D02*
X9134467Y-13012793D01*
X9134467Y-13012793D02*
X9153515Y-13003269D01*
X9248753Y-12955650D02*
X9248753Y-13155650D01*
X9248753Y-12965174D02*
X9267801Y-12955650D01*
X9267801Y-12955650D02*
X9305896Y-12955650D01*
X9305896Y-12955650D02*
X9324944Y-12965174D01*
X9324944Y-12965174D02*
X9334467Y-12974698D01*
X9334467Y-12974698D02*
X9343991Y-12993746D01*
X9343991Y-12993746D02*
X9343991Y-13050888D01*
X9343991Y-13050888D02*
X9334467Y-13069936D01*
X9334467Y-13069936D02*
X9324944Y-13079460D01*
X9324944Y-13079460D02*
X9305896Y-13088984D01*
X9305896Y-13088984D02*
X9267801Y-13088984D01*
X9267801Y-13088984D02*
X9248753Y-13079460D01*
X9429705Y-13069936D02*
X9439229Y-13079460D01*
X9439229Y-13079460D02*
X9429705Y-13088984D01*
X9429705Y-13088984D02*
X9420182Y-13079460D01*
X9420182Y-13079460D02*
X9429705Y-13069936D01*
X9429705Y-13069936D02*
X9429705Y-13088984D01*
X9429705Y-12965174D02*
X9439229Y-12974698D01*
X9439229Y-12974698D02*
X9429705Y-12984222D01*
X9429705Y-12984222D02*
X9420182Y-12974698D01*
X9420182Y-12974698D02*
X9429705Y-12965174D01*
X9429705Y-12965174D02*
X9429705Y-12984222D01*
D12*
X7777500Y-13407500D02*
X7797500Y-13427500D01*
X7797500Y-13407500D02*
X7777500Y-13427500D01*
D11*
X8096372Y-13308984D02*
X8115420Y-13308984D01*
X8115420Y-13308984D02*
X8134467Y-13318508D01*
X8134467Y-13318508D02*
X8143991Y-13328031D01*
X8143991Y-13328031D02*
X8153515Y-13347079D01*
X8153515Y-13347079D02*
X8163039Y-13385174D01*
X8163039Y-13385174D02*
X8163039Y-13432793D01*
X8163039Y-13432793D02*
X8153515Y-13470888D01*
X8153515Y-13470888D02*
X8143991Y-13489936D01*
X8143991Y-13489936D02*
X8134467Y-13499460D01*
X8134467Y-13499460D02*
X8115420Y-13508984D01*
X8115420Y-13508984D02*
X8096372Y-13508984D01*
X8096372Y-13508984D02*
X8077324Y-13499460D01*
X8077324Y-13499460D02*
X8067801Y-13489936D01*
X8067801Y-13489936D02*
X8058277Y-13470888D01*
X8058277Y-13470888D02*
X8048753Y-13432793D01*
X8048753Y-13432793D02*
X8048753Y-13385174D01*
X8048753Y-13385174D02*
X8058277Y-13347079D01*
X8058277Y-13347079D02*
X8067801Y-13328031D01*
X8067801Y-13328031D02*
X8077324Y-13318508D01*
X8077324Y-13318508D02*
X8096372Y-13308984D01*
X8248753Y-13489936D02*
X8258277Y-13499460D01*
X8258277Y-13499460D02*
X8248753Y-13508984D01*
X8248753Y-13508984D02*
X8239229Y-13499460D01*
X8239229Y-13499460D02*
X8248753Y-13489936D01*
X8248753Y-13489936D02*
X8248753Y-13508984D01*
X8334467Y-13328031D02*
X8343991Y-13318508D01*
X8343991Y-13318508D02*
X8363039Y-13308984D01*
X8363039Y-13308984D02*
X8410658Y-13308984D01*
X8410658Y-13308984D02*
X8429705Y-13318508D01*
X8429705Y-13318508D02*
X8439229Y-13328031D01*
X8439229Y-13328031D02*
X8448753Y-13347079D01*
X8448753Y-13347079D02*
X8448753Y-13366127D01*
X8448753Y-13366127D02*
X8439229Y-13394698D01*
X8439229Y-13394698D02*
X8324943Y-13508984D01*
X8324943Y-13508984D02*
X8448753Y-13508984D01*
X8572563Y-13308984D02*
X8591610Y-13308984D01*
X8591610Y-13308984D02*
X8610658Y-13318508D01*
X8610658Y-13318508D02*
X8620182Y-13328031D01*
X8620182Y-13328031D02*
X8629705Y-13347079D01*
X8629705Y-13347079D02*
X8639229Y-13385174D01*
X8639229Y-13385174D02*
X8639229Y-13432793D01*
X8639229Y-13432793D02*
X8629705Y-13470888D01*
X8629705Y-13470888D02*
X8620182Y-13489936D01*
X8620182Y-13489936D02*
X8610658Y-13499460D01*
X8610658Y-13499460D02*
X8591610Y-13508984D01*
X8591610Y-13508984D02*
X8572563Y-13508984D01*
X8572563Y-13508984D02*
X8553515Y-13499460D01*
X8553515Y-13499460D02*
X8543991Y-13489936D01*
X8543991Y-13489936D02*
X8534467Y-13470888D01*
X8534467Y-13470888D02*
X8524944Y-13432793D01*
X8524944Y-13432793D02*
X8524944Y-13385174D01*
X8524944Y-13385174D02*
X8534467Y-13347079D01*
X8534467Y-13347079D02*
X8543991Y-13328031D01*
X8543991Y-13328031D02*
X8553515Y-13318508D01*
X8553515Y-13318508D02*
X8572563Y-13308984D01*
X8763039Y-13308984D02*
X8782086Y-13308984D01*
X8782086Y-13308984D02*
X8801134Y-13318508D01*
X8801134Y-13318508D02*
X8810658Y-13328031D01*
X8810658Y-13328031D02*
X8820182Y-13347079D01*
X8820182Y-13347079D02*
X8829705Y-13385174D01*
X8829705Y-13385174D02*
X8829705Y-13432793D01*
X8829705Y-13432793D02*
X8820182Y-13470888D01*
X8820182Y-13470888D02*
X8810658Y-13489936D01*
X8810658Y-13489936D02*
X8801134Y-13499460D01*
X8801134Y-13499460D02*
X8782086Y-13508984D01*
X8782086Y-13508984D02*
X8763039Y-13508984D01*
X8763039Y-13508984D02*
X8743991Y-13499460D01*
X8743991Y-13499460D02*
X8734467Y-13489936D01*
X8734467Y-13489936D02*
X8724944Y-13470888D01*
X8724944Y-13470888D02*
X8715420Y-13432793D01*
X8715420Y-13432793D02*
X8715420Y-13385174D01*
X8715420Y-13385174D02*
X8724944Y-13347079D01*
X8724944Y-13347079D02*
X8734467Y-13328031D01*
X8734467Y-13328031D02*
X8743991Y-13318508D01*
X8743991Y-13318508D02*
X8763039Y-13308984D01*
X8915420Y-13508984D02*
X8915420Y-13375650D01*
X8915420Y-13394698D02*
X8924944Y-13385174D01*
X8924944Y-13385174D02*
X8943991Y-13375650D01*
X8943991Y-13375650D02*
X8972563Y-13375650D01*
X8972563Y-13375650D02*
X8991610Y-13385174D01*
X8991610Y-13385174D02*
X9001134Y-13404222D01*
X9001134Y-13404222D02*
X9001134Y-13508984D01*
X9001134Y-13404222D02*
X9010658Y-13385174D01*
X9010658Y-13385174D02*
X9029705Y-13375650D01*
X9029705Y-13375650D02*
X9058277Y-13375650D01*
X9058277Y-13375650D02*
X9077325Y-13385174D01*
X9077325Y-13385174D02*
X9086848Y-13404222D01*
X9086848Y-13404222D02*
X9086848Y-13508984D01*
X9182086Y-13508984D02*
X9182086Y-13375650D01*
X9182086Y-13394698D02*
X9191610Y-13385174D01*
X9191610Y-13385174D02*
X9210658Y-13375650D01*
X9210658Y-13375650D02*
X9239229Y-13375650D01*
X9239229Y-13375650D02*
X9258277Y-13385174D01*
X9258277Y-13385174D02*
X9267801Y-13404222D01*
X9267801Y-13404222D02*
X9267801Y-13508984D01*
X9267801Y-13404222D02*
X9277325Y-13385174D01*
X9277325Y-13385174D02*
X9296372Y-13375650D01*
X9296372Y-13375650D02*
X9324944Y-13375650D01*
X9324944Y-13375650D02*
X9343991Y-13385174D01*
X9343991Y-13385174D02*
X9353515Y-13404222D01*
X9353515Y-13404222D02*
X9353515Y-13508984D01*
X9743991Y-13299460D02*
X9572563Y-13556603D01*
X10001134Y-13308984D02*
X10020182Y-13308984D01*
X10020182Y-13308984D02*
X10039229Y-13318508D01*
X10039229Y-13318508D02*
X10048753Y-13328031D01*
X10048753Y-13328031D02*
X10058277Y-13347079D01*
X10058277Y-13347079D02*
X10067801Y-13385174D01*
X10067801Y-13385174D02*
X10067801Y-13432793D01*
X10067801Y-13432793D02*
X10058277Y-13470888D01*
X10058277Y-13470888D02*
X10048753Y-13489936D01*
X10048753Y-13489936D02*
X10039229Y-13499460D01*
X10039229Y-13499460D02*
X10020182Y-13508984D01*
X10020182Y-13508984D02*
X10001134Y-13508984D01*
X10001134Y-13508984D02*
X9982087Y-13499460D01*
X9982087Y-13499460D02*
X9972563Y-13489936D01*
X9972563Y-13489936D02*
X9963039Y-13470888D01*
X9963039Y-13470888D02*
X9953515Y-13432793D01*
X9953515Y-13432793D02*
X9953515Y-13385174D01*
X9953515Y-13385174D02*
X9963039Y-13347079D01*
X9963039Y-13347079D02*
X9972563Y-13328031D01*
X9972563Y-13328031D02*
X9982087Y-13318508D01*
X9982087Y-13318508D02*
X10001134Y-13308984D01*
X10153515Y-13489936D02*
X10163039Y-13499460D01*
X10163039Y-13499460D02*
X10153515Y-13508984D01*
X10153515Y-13508984D02*
X10143991Y-13499460D01*
X10143991Y-13499460D02*
X10153515Y-13489936D01*
X10153515Y-13489936D02*
X10153515Y-13508984D01*
X10286848Y-13308984D02*
X10305896Y-13308984D01*
X10305896Y-13308984D02*
X10324944Y-13318508D01*
X10324944Y-13318508D02*
X10334468Y-13328031D01*
X10334468Y-13328031D02*
X10343991Y-13347079D01*
X10343991Y-13347079D02*
X10353515Y-13385174D01*
X10353515Y-13385174D02*
X10353515Y-13432793D01*
X10353515Y-13432793D02*
X10343991Y-13470888D01*
X10343991Y-13470888D02*
X10334468Y-13489936D01*
X10334468Y-13489936D02*
X10324944Y-13499460D01*
X10324944Y-13499460D02*
X10305896Y-13508984D01*
X10305896Y-13508984D02*
X10286848Y-13508984D01*
X10286848Y-13508984D02*
X10267801Y-13499460D01*
X10267801Y-13499460D02*
X10258277Y-13489936D01*
X10258277Y-13489936D02*
X10248753Y-13470888D01*
X10248753Y-13470888D02*
X10239229Y-13432793D01*
X10239229Y-13432793D02*
X10239229Y-13385174D01*
X10239229Y-13385174D02*
X10248753Y-13347079D01*
X10248753Y-13347079D02*
X10258277Y-13328031D01*
X10258277Y-13328031D02*
X10267801Y-13318508D01*
X10267801Y-13318508D02*
X10286848Y-13308984D01*
X10477325Y-13308984D02*
X10496372Y-13308984D01*
X10496372Y-13308984D02*
X10515420Y-13318508D01*
X10515420Y-13318508D02*
X10524944Y-13328031D01*
X10524944Y-13328031D02*
X10534468Y-13347079D01*
X10534468Y-13347079D02*
X10543991Y-13385174D01*
X10543991Y-13385174D02*
X10543991Y-13432793D01*
X10543991Y-13432793D02*
X10534468Y-13470888D01*
X10534468Y-13470888D02*
X10524944Y-13489936D01*
X10524944Y-13489936D02*
X10515420Y-13499460D01*
X10515420Y-13499460D02*
X10496372Y-13508984D01*
X10496372Y-13508984D02*
X10477325Y-13508984D01*
X10477325Y-13508984D02*
X10458277Y-13499460D01*
X10458277Y-13499460D02*
X10448753Y-13489936D01*
X10448753Y-13489936D02*
X10439229Y-13470888D01*
X10439229Y-13470888D02*
X10429706Y-13432793D01*
X10429706Y-13432793D02*
X10429706Y-13385174D01*
X10429706Y-13385174D02*
X10439229Y-13347079D01*
X10439229Y-13347079D02*
X10448753Y-13328031D01*
X10448753Y-13328031D02*
X10458277Y-13318508D01*
X10458277Y-13318508D02*
X10477325Y-13308984D01*
X10610658Y-13308984D02*
X10743991Y-13308984D01*
X10743991Y-13308984D02*
X10658277Y-13508984D01*
X10829706Y-13508984D02*
X10867801Y-13508984D01*
X10867801Y-13508984D02*
X10886849Y-13499460D01*
X10886849Y-13499460D02*
X10896372Y-13489936D01*
X10896372Y-13489936D02*
X10915420Y-13461365D01*
X10915420Y-13461365D02*
X10924944Y-13423269D01*
X10924944Y-13423269D02*
X10924944Y-13347079D01*
X10924944Y-13347079D02*
X10915420Y-13328031D01*
X10915420Y-13328031D02*
X10905896Y-13318508D01*
X10905896Y-13318508D02*
X10886849Y-13308984D01*
X10886849Y-13308984D02*
X10848753Y-13308984D01*
X10848753Y-13308984D02*
X10829706Y-13318508D01*
X10829706Y-13318508D02*
X10820182Y-13328031D01*
X10820182Y-13328031D02*
X10810658Y-13347079D01*
X10810658Y-13347079D02*
X10810658Y-13394698D01*
X10810658Y-13394698D02*
X10820182Y-13413746D01*
X10820182Y-13413746D02*
X10829706Y-13423269D01*
X10829706Y-13423269D02*
X10848753Y-13432793D01*
X10848753Y-13432793D02*
X10886849Y-13432793D01*
X10886849Y-13432793D02*
X10905896Y-13423269D01*
X10905896Y-13423269D02*
X10915420Y-13413746D01*
X10915420Y-13413746D02*
X10924944Y-13394698D01*
X11001134Y-13308984D02*
X11001134Y-13347079D01*
X11077325Y-13308984D02*
X11077325Y-13347079D01*
X11372563Y-13585174D02*
X11363039Y-13575650D01*
X11363039Y-13575650D02*
X11343991Y-13547079D01*
X11343991Y-13547079D02*
X11334468Y-13528031D01*
X11334468Y-13528031D02*
X11324944Y-13499460D01*
X11324944Y-13499460D02*
X11315420Y-13451841D01*
X11315420Y-13451841D02*
X11315420Y-13413746D01*
X11315420Y-13413746D02*
X11324944Y-13366127D01*
X11324944Y-13366127D02*
X11334468Y-13337555D01*
X11334468Y-13337555D02*
X11343991Y-13318508D01*
X11343991Y-13318508D02*
X11363039Y-13289936D01*
X11363039Y-13289936D02*
X11372563Y-13280412D01*
X11534468Y-13308984D02*
X11496372Y-13308984D01*
X11496372Y-13308984D02*
X11477325Y-13318508D01*
X11477325Y-13318508D02*
X11467801Y-13328031D01*
X11467801Y-13328031D02*
X11448753Y-13356603D01*
X11448753Y-13356603D02*
X11439229Y-13394698D01*
X11439229Y-13394698D02*
X11439229Y-13470888D01*
X11439229Y-13470888D02*
X11448753Y-13489936D01*
X11448753Y-13489936D02*
X11458277Y-13499460D01*
X11458277Y-13499460D02*
X11477325Y-13508984D01*
X11477325Y-13508984D02*
X11515420Y-13508984D01*
X11515420Y-13508984D02*
X11534468Y-13499460D01*
X11534468Y-13499460D02*
X11543991Y-13489936D01*
X11543991Y-13489936D02*
X11553515Y-13470888D01*
X11553515Y-13470888D02*
X11553515Y-13423269D01*
X11553515Y-13423269D02*
X11543991Y-13404222D01*
X11543991Y-13404222D02*
X11534468Y-13394698D01*
X11534468Y-13394698D02*
X11515420Y-13385174D01*
X11515420Y-13385174D02*
X11477325Y-13385174D01*
X11477325Y-13385174D02*
X11458277Y-13394698D01*
X11458277Y-13394698D02*
X11448753Y-13404222D01*
X11448753Y-13404222D02*
X11439229Y-13423269D01*
X11724944Y-13375650D02*
X11724944Y-13508984D01*
X11677325Y-13299460D02*
X11629706Y-13442317D01*
X11629706Y-13442317D02*
X11753515Y-13442317D01*
X11982087Y-13508984D02*
X11982087Y-13308984D01*
X12067801Y-13508984D02*
X12067801Y-13404222D01*
X12067801Y-13404222D02*
X12058277Y-13385174D01*
X12058277Y-13385174D02*
X12039230Y-13375650D01*
X12039230Y-13375650D02*
X12010658Y-13375650D01*
X12010658Y-13375650D02*
X11991610Y-13385174D01*
X11991610Y-13385174D02*
X11982087Y-13394698D01*
X12191610Y-13508984D02*
X12172563Y-13499460D01*
X12172563Y-13499460D02*
X12163039Y-13489936D01*
X12163039Y-13489936D02*
X12153515Y-13470888D01*
X12153515Y-13470888D02*
X12153515Y-13413746D01*
X12153515Y-13413746D02*
X12163039Y-13394698D01*
X12163039Y-13394698D02*
X12172563Y-13385174D01*
X12172563Y-13385174D02*
X12191610Y-13375650D01*
X12191610Y-13375650D02*
X12220182Y-13375650D01*
X12220182Y-13375650D02*
X12239230Y-13385174D01*
X12239230Y-13385174D02*
X12248753Y-13394698D01*
X12248753Y-13394698D02*
X12258277Y-13413746D01*
X12258277Y-13413746D02*
X12258277Y-13470888D01*
X12258277Y-13470888D02*
X12248753Y-13489936D01*
X12248753Y-13489936D02*
X12239230Y-13499460D01*
X12239230Y-13499460D02*
X12220182Y-13508984D01*
X12220182Y-13508984D02*
X12191610Y-13508984D01*
X12372563Y-13508984D02*
X12353515Y-13499460D01*
X12353515Y-13499460D02*
X12343991Y-13480412D01*
X12343991Y-13480412D02*
X12343991Y-13308984D01*
X12524944Y-13499460D02*
X12505896Y-13508984D01*
X12505896Y-13508984D02*
X12467801Y-13508984D01*
X12467801Y-13508984D02*
X12448753Y-13499460D01*
X12448753Y-13499460D02*
X12439230Y-13480412D01*
X12439230Y-13480412D02*
X12439230Y-13404222D01*
X12439230Y-13404222D02*
X12448753Y-13385174D01*
X12448753Y-13385174D02*
X12467801Y-13375650D01*
X12467801Y-13375650D02*
X12505896Y-13375650D01*
X12505896Y-13375650D02*
X12524944Y-13385174D01*
X12524944Y-13385174D02*
X12534468Y-13404222D01*
X12534468Y-13404222D02*
X12534468Y-13423269D01*
X12534468Y-13423269D02*
X12439230Y-13442317D01*
X12610658Y-13499460D02*
X12629706Y-13508984D01*
X12629706Y-13508984D02*
X12667801Y-13508984D01*
X12667801Y-13508984D02*
X12686849Y-13499460D01*
X12686849Y-13499460D02*
X12696372Y-13480412D01*
X12696372Y-13480412D02*
X12696372Y-13470888D01*
X12696372Y-13470888D02*
X12686849Y-13451841D01*
X12686849Y-13451841D02*
X12667801Y-13442317D01*
X12667801Y-13442317D02*
X12639230Y-13442317D01*
X12639230Y-13442317D02*
X12620182Y-13432793D01*
X12620182Y-13432793D02*
X12610658Y-13413746D01*
X12610658Y-13413746D02*
X12610658Y-13404222D01*
X12610658Y-13404222D02*
X12620182Y-13385174D01*
X12620182Y-13385174D02*
X12639230Y-13375650D01*
X12639230Y-13375650D02*
X12667801Y-13375650D01*
X12667801Y-13375650D02*
X12686849Y-13385174D01*
X12763039Y-13585174D02*
X12772563Y-13575650D01*
X12772563Y-13575650D02*
X12791611Y-13547079D01*
X12791611Y-13547079D02*
X12801134Y-13528031D01*
X12801134Y-13528031D02*
X12810658Y-13499460D01*
X12810658Y-13499460D02*
X12820182Y-13451841D01*
X12820182Y-13451841D02*
X12820182Y-13413746D01*
X12820182Y-13413746D02*
X12810658Y-13366127D01*
X12810658Y-13366127D02*
X12801134Y-13337555D01*
X12801134Y-13337555D02*
X12791611Y-13318508D01*
X12791611Y-13318508D02*
X12772563Y-13289936D01*
X12772563Y-13289936D02*
X12763039Y-13280412D01*
D12*
X7797500Y-13681500D02*
G75*
G02*
X7777500Y-13681500I-10000J0D01*
G01*
X7777500Y-13681500D02*
G75*
G02*
X7797500Y-13681500I10000J0D01*
G01*
D11*
X8096372Y-13572984D02*
X8115420Y-13572984D01*
X8115420Y-13572984D02*
X8134467Y-13582508D01*
X8134467Y-13582508D02*
X8143991Y-13592031D01*
X8143991Y-13592031D02*
X8153515Y-13611079D01*
X8153515Y-13611079D02*
X8163039Y-13649174D01*
X8163039Y-13649174D02*
X8163039Y-13696793D01*
X8163039Y-13696793D02*
X8153515Y-13734888D01*
X8153515Y-13734888D02*
X8143991Y-13753936D01*
X8143991Y-13753936D02*
X8134467Y-13763460D01*
X8134467Y-13763460D02*
X8115420Y-13772984D01*
X8115420Y-13772984D02*
X8096372Y-13772984D01*
X8096372Y-13772984D02*
X8077324Y-13763460D01*
X8077324Y-13763460D02*
X8067801Y-13753936D01*
X8067801Y-13753936D02*
X8058277Y-13734888D01*
X8058277Y-13734888D02*
X8048753Y-13696793D01*
X8048753Y-13696793D02*
X8048753Y-13649174D01*
X8048753Y-13649174D02*
X8058277Y-13611079D01*
X8058277Y-13611079D02*
X8067801Y-13592031D01*
X8067801Y-13592031D02*
X8077324Y-13582508D01*
X8077324Y-13582508D02*
X8096372Y-13572984D01*
X8248753Y-13753936D02*
X8258277Y-13763460D01*
X8258277Y-13763460D02*
X8248753Y-13772984D01*
X8248753Y-13772984D02*
X8239229Y-13763460D01*
X8239229Y-13763460D02*
X8248753Y-13753936D01*
X8248753Y-13753936D02*
X8248753Y-13772984D01*
X8334467Y-13592031D02*
X8343991Y-13582508D01*
X8343991Y-13582508D02*
X8363039Y-13572984D01*
X8363039Y-13572984D02*
X8410658Y-13572984D01*
X8410658Y-13572984D02*
X8429705Y-13582508D01*
X8429705Y-13582508D02*
X8439229Y-13592031D01*
X8439229Y-13592031D02*
X8448753Y-13611079D01*
X8448753Y-13611079D02*
X8448753Y-13630127D01*
X8448753Y-13630127D02*
X8439229Y-13658698D01*
X8439229Y-13658698D02*
X8324943Y-13772984D01*
X8324943Y-13772984D02*
X8448753Y-13772984D01*
X8572563Y-13572984D02*
X8591610Y-13572984D01*
X8591610Y-13572984D02*
X8610658Y-13582508D01*
X8610658Y-13582508D02*
X8620182Y-13592031D01*
X8620182Y-13592031D02*
X8629705Y-13611079D01*
X8629705Y-13611079D02*
X8639229Y-13649174D01*
X8639229Y-13649174D02*
X8639229Y-13696793D01*
X8639229Y-13696793D02*
X8629705Y-13734888D01*
X8629705Y-13734888D02*
X8620182Y-13753936D01*
X8620182Y-13753936D02*
X8610658Y-13763460D01*
X8610658Y-13763460D02*
X8591610Y-13772984D01*
X8591610Y-13772984D02*
X8572563Y-13772984D01*
X8572563Y-13772984D02*
X8553515Y-13763460D01*
X8553515Y-13763460D02*
X8543991Y-13753936D01*
X8543991Y-13753936D02*
X8534467Y-13734888D01*
X8534467Y-13734888D02*
X8524944Y-13696793D01*
X8524944Y-13696793D02*
X8524944Y-13649174D01*
X8524944Y-13649174D02*
X8534467Y-13611079D01*
X8534467Y-13611079D02*
X8543991Y-13592031D01*
X8543991Y-13592031D02*
X8553515Y-13582508D01*
X8553515Y-13582508D02*
X8572563Y-13572984D01*
X8763039Y-13572984D02*
X8782086Y-13572984D01*
X8782086Y-13572984D02*
X8801134Y-13582508D01*
X8801134Y-13582508D02*
X8810658Y-13592031D01*
X8810658Y-13592031D02*
X8820182Y-13611079D01*
X8820182Y-13611079D02*
X8829705Y-13649174D01*
X8829705Y-13649174D02*
X8829705Y-13696793D01*
X8829705Y-13696793D02*
X8820182Y-13734888D01*
X8820182Y-13734888D02*
X8810658Y-13753936D01*
X8810658Y-13753936D02*
X8801134Y-13763460D01*
X8801134Y-13763460D02*
X8782086Y-13772984D01*
X8782086Y-13772984D02*
X8763039Y-13772984D01*
X8763039Y-13772984D02*
X8743991Y-13763460D01*
X8743991Y-13763460D02*
X8734467Y-13753936D01*
X8734467Y-13753936D02*
X8724944Y-13734888D01*
X8724944Y-13734888D02*
X8715420Y-13696793D01*
X8715420Y-13696793D02*
X8715420Y-13649174D01*
X8715420Y-13649174D02*
X8724944Y-13611079D01*
X8724944Y-13611079D02*
X8734467Y-13592031D01*
X8734467Y-13592031D02*
X8743991Y-13582508D01*
X8743991Y-13582508D02*
X8763039Y-13572984D01*
X8915420Y-13772984D02*
X8915420Y-13639650D01*
X8915420Y-13658698D02*
X8924944Y-13649174D01*
X8924944Y-13649174D02*
X8943991Y-13639650D01*
X8943991Y-13639650D02*
X8972563Y-13639650D01*
X8972563Y-13639650D02*
X8991610Y-13649174D01*
X8991610Y-13649174D02*
X9001134Y-13668222D01*
X9001134Y-13668222D02*
X9001134Y-13772984D01*
X9001134Y-13668222D02*
X9010658Y-13649174D01*
X9010658Y-13649174D02*
X9029705Y-13639650D01*
X9029705Y-13639650D02*
X9058277Y-13639650D01*
X9058277Y-13639650D02*
X9077325Y-13649174D01*
X9077325Y-13649174D02*
X9086848Y-13668222D01*
X9086848Y-13668222D02*
X9086848Y-13772984D01*
X9182086Y-13772984D02*
X9182086Y-13639650D01*
X9182086Y-13658698D02*
X9191610Y-13649174D01*
X9191610Y-13649174D02*
X9210658Y-13639650D01*
X9210658Y-13639650D02*
X9239229Y-13639650D01*
X9239229Y-13639650D02*
X9258277Y-13649174D01*
X9258277Y-13649174D02*
X9267801Y-13668222D01*
X9267801Y-13668222D02*
X9267801Y-13772984D01*
X9267801Y-13668222D02*
X9277325Y-13649174D01*
X9277325Y-13649174D02*
X9296372Y-13639650D01*
X9296372Y-13639650D02*
X9324944Y-13639650D01*
X9324944Y-13639650D02*
X9343991Y-13649174D01*
X9343991Y-13649174D02*
X9353515Y-13668222D01*
X9353515Y-13668222D02*
X9353515Y-13772984D01*
X9743991Y-13563460D02*
X9572563Y-13820603D01*
X10001134Y-13572984D02*
X10020182Y-13572984D01*
X10020182Y-13572984D02*
X10039229Y-13582508D01*
X10039229Y-13582508D02*
X10048753Y-13592031D01*
X10048753Y-13592031D02*
X10058277Y-13611079D01*
X10058277Y-13611079D02*
X10067801Y-13649174D01*
X10067801Y-13649174D02*
X10067801Y-13696793D01*
X10067801Y-13696793D02*
X10058277Y-13734888D01*
X10058277Y-13734888D02*
X10048753Y-13753936D01*
X10048753Y-13753936D02*
X10039229Y-13763460D01*
X10039229Y-13763460D02*
X10020182Y-13772984D01*
X10020182Y-13772984D02*
X10001134Y-13772984D01*
X10001134Y-13772984D02*
X9982087Y-13763460D01*
X9982087Y-13763460D02*
X9972563Y-13753936D01*
X9972563Y-13753936D02*
X9963039Y-13734888D01*
X9963039Y-13734888D02*
X9953515Y-13696793D01*
X9953515Y-13696793D02*
X9953515Y-13649174D01*
X9953515Y-13649174D02*
X9963039Y-13611079D01*
X9963039Y-13611079D02*
X9972563Y-13592031D01*
X9972563Y-13592031D02*
X9982087Y-13582508D01*
X9982087Y-13582508D02*
X10001134Y-13572984D01*
X10153515Y-13753936D02*
X10163039Y-13763460D01*
X10163039Y-13763460D02*
X10153515Y-13772984D01*
X10153515Y-13772984D02*
X10143991Y-13763460D01*
X10143991Y-13763460D02*
X10153515Y-13753936D01*
X10153515Y-13753936D02*
X10153515Y-13772984D01*
X10286848Y-13572984D02*
X10305896Y-13572984D01*
X10305896Y-13572984D02*
X10324944Y-13582508D01*
X10324944Y-13582508D02*
X10334468Y-13592031D01*
X10334468Y-13592031D02*
X10343991Y-13611079D01*
X10343991Y-13611079D02*
X10353515Y-13649174D01*
X10353515Y-13649174D02*
X10353515Y-13696793D01*
X10353515Y-13696793D02*
X10343991Y-13734888D01*
X10343991Y-13734888D02*
X10334468Y-13753936D01*
X10334468Y-13753936D02*
X10324944Y-13763460D01*
X10324944Y-13763460D02*
X10305896Y-13772984D01*
X10305896Y-13772984D02*
X10286848Y-13772984D01*
X10286848Y-13772984D02*
X10267801Y-13763460D01*
X10267801Y-13763460D02*
X10258277Y-13753936D01*
X10258277Y-13753936D02*
X10248753Y-13734888D01*
X10248753Y-13734888D02*
X10239229Y-13696793D01*
X10239229Y-13696793D02*
X10239229Y-13649174D01*
X10239229Y-13649174D02*
X10248753Y-13611079D01*
X10248753Y-13611079D02*
X10258277Y-13592031D01*
X10258277Y-13592031D02*
X10267801Y-13582508D01*
X10267801Y-13582508D02*
X10286848Y-13572984D01*
X10477325Y-13572984D02*
X10496372Y-13572984D01*
X10496372Y-13572984D02*
X10515420Y-13582508D01*
X10515420Y-13582508D02*
X10524944Y-13592031D01*
X10524944Y-13592031D02*
X10534468Y-13611079D01*
X10534468Y-13611079D02*
X10543991Y-13649174D01*
X10543991Y-13649174D02*
X10543991Y-13696793D01*
X10543991Y-13696793D02*
X10534468Y-13734888D01*
X10534468Y-13734888D02*
X10524944Y-13753936D01*
X10524944Y-13753936D02*
X10515420Y-13763460D01*
X10515420Y-13763460D02*
X10496372Y-13772984D01*
X10496372Y-13772984D02*
X10477325Y-13772984D01*
X10477325Y-13772984D02*
X10458277Y-13763460D01*
X10458277Y-13763460D02*
X10448753Y-13753936D01*
X10448753Y-13753936D02*
X10439229Y-13734888D01*
X10439229Y-13734888D02*
X10429706Y-13696793D01*
X10429706Y-13696793D02*
X10429706Y-13649174D01*
X10429706Y-13649174D02*
X10439229Y-13611079D01*
X10439229Y-13611079D02*
X10448753Y-13592031D01*
X10448753Y-13592031D02*
X10458277Y-13582508D01*
X10458277Y-13582508D02*
X10477325Y-13572984D01*
X10610658Y-13572984D02*
X10743991Y-13572984D01*
X10743991Y-13572984D02*
X10658277Y-13772984D01*
X10829706Y-13772984D02*
X10867801Y-13772984D01*
X10867801Y-13772984D02*
X10886849Y-13763460D01*
X10886849Y-13763460D02*
X10896372Y-13753936D01*
X10896372Y-13753936D02*
X10915420Y-13725365D01*
X10915420Y-13725365D02*
X10924944Y-13687269D01*
X10924944Y-13687269D02*
X10924944Y-13611079D01*
X10924944Y-13611079D02*
X10915420Y-13592031D01*
X10915420Y-13592031D02*
X10905896Y-13582508D01*
X10905896Y-13582508D02*
X10886849Y-13572984D01*
X10886849Y-13572984D02*
X10848753Y-13572984D01*
X10848753Y-13572984D02*
X10829706Y-13582508D01*
X10829706Y-13582508D02*
X10820182Y-13592031D01*
X10820182Y-13592031D02*
X10810658Y-13611079D01*
X10810658Y-13611079D02*
X10810658Y-13658698D01*
X10810658Y-13658698D02*
X10820182Y-13677746D01*
X10820182Y-13677746D02*
X10829706Y-13687269D01*
X10829706Y-13687269D02*
X10848753Y-13696793D01*
X10848753Y-13696793D02*
X10886849Y-13696793D01*
X10886849Y-13696793D02*
X10905896Y-13687269D01*
X10905896Y-13687269D02*
X10915420Y-13677746D01*
X10915420Y-13677746D02*
X10924944Y-13658698D01*
X11001134Y-13572984D02*
X11001134Y-13611079D01*
X11077325Y-13572984D02*
X11077325Y-13611079D01*
X11372563Y-13849174D02*
X11363039Y-13839650D01*
X11363039Y-13839650D02*
X11343991Y-13811079D01*
X11343991Y-13811079D02*
X11334468Y-13792031D01*
X11334468Y-13792031D02*
X11324944Y-13763460D01*
X11324944Y-13763460D02*
X11315420Y-13715841D01*
X11315420Y-13715841D02*
X11315420Y-13677746D01*
X11315420Y-13677746D02*
X11324944Y-13630127D01*
X11324944Y-13630127D02*
X11334468Y-13601555D01*
X11334468Y-13601555D02*
X11343991Y-13582508D01*
X11343991Y-13582508D02*
X11363039Y-13553936D01*
X11363039Y-13553936D02*
X11372563Y-13544412D01*
X11553515Y-13772984D02*
X11439229Y-13772984D01*
X11496372Y-13772984D02*
X11496372Y-13572984D01*
X11496372Y-13572984D02*
X11477325Y-13601555D01*
X11477325Y-13601555D02*
X11458277Y-13620603D01*
X11458277Y-13620603D02*
X11439229Y-13630127D01*
X11629706Y-13592031D02*
X11639229Y-13582508D01*
X11639229Y-13582508D02*
X11658277Y-13572984D01*
X11658277Y-13572984D02*
X11705896Y-13572984D01*
X11705896Y-13572984D02*
X11724944Y-13582508D01*
X11724944Y-13582508D02*
X11734468Y-13592031D01*
X11734468Y-13592031D02*
X11743991Y-13611079D01*
X11743991Y-13611079D02*
X11743991Y-13630127D01*
X11743991Y-13630127D02*
X11734468Y-13658698D01*
X11734468Y-13658698D02*
X11620182Y-13772984D01*
X11620182Y-13772984D02*
X11743991Y-13772984D01*
X11982087Y-13772984D02*
X11982087Y-13572984D01*
X12067801Y-13772984D02*
X12067801Y-13668222D01*
X12067801Y-13668222D02*
X12058277Y-13649174D01*
X12058277Y-13649174D02*
X12039230Y-13639650D01*
X12039230Y-13639650D02*
X12010658Y-13639650D01*
X12010658Y-13639650D02*
X11991610Y-13649174D01*
X11991610Y-13649174D02*
X11982087Y-13658698D01*
X12191610Y-13772984D02*
X12172563Y-13763460D01*
X12172563Y-13763460D02*
X12163039Y-13753936D01*
X12163039Y-13753936D02*
X12153515Y-13734888D01*
X12153515Y-13734888D02*
X12153515Y-13677746D01*
X12153515Y-13677746D02*
X12163039Y-13658698D01*
X12163039Y-13658698D02*
X12172563Y-13649174D01*
X12172563Y-13649174D02*
X12191610Y-13639650D01*
X12191610Y-13639650D02*
X12220182Y-13639650D01*
X12220182Y-13639650D02*
X12239230Y-13649174D01*
X12239230Y-13649174D02*
X12248753Y-13658698D01*
X12248753Y-13658698D02*
X12258277Y-13677746D01*
X12258277Y-13677746D02*
X12258277Y-13734888D01*
X12258277Y-13734888D02*
X12248753Y-13753936D01*
X12248753Y-13753936D02*
X12239230Y-13763460D01*
X12239230Y-13763460D02*
X12220182Y-13772984D01*
X12220182Y-13772984D02*
X12191610Y-13772984D01*
X12372563Y-13772984D02*
X12353515Y-13763460D01*
X12353515Y-13763460D02*
X12343991Y-13744412D01*
X12343991Y-13744412D02*
X12343991Y-13572984D01*
X12524944Y-13763460D02*
X12505896Y-13772984D01*
X12505896Y-13772984D02*
X12467801Y-13772984D01*
X12467801Y-13772984D02*
X12448753Y-13763460D01*
X12448753Y-13763460D02*
X12439230Y-13744412D01*
X12439230Y-13744412D02*
X12439230Y-13668222D01*
X12439230Y-13668222D02*
X12448753Y-13649174D01*
X12448753Y-13649174D02*
X12467801Y-13639650D01*
X12467801Y-13639650D02*
X12505896Y-13639650D01*
X12505896Y-13639650D02*
X12524944Y-13649174D01*
X12524944Y-13649174D02*
X12534468Y-13668222D01*
X12534468Y-13668222D02*
X12534468Y-13687269D01*
X12534468Y-13687269D02*
X12439230Y-13706317D01*
X12610658Y-13763460D02*
X12629706Y-13772984D01*
X12629706Y-13772984D02*
X12667801Y-13772984D01*
X12667801Y-13772984D02*
X12686849Y-13763460D01*
X12686849Y-13763460D02*
X12696372Y-13744412D01*
X12696372Y-13744412D02*
X12696372Y-13734888D01*
X12696372Y-13734888D02*
X12686849Y-13715841D01*
X12686849Y-13715841D02*
X12667801Y-13706317D01*
X12667801Y-13706317D02*
X12639230Y-13706317D01*
X12639230Y-13706317D02*
X12620182Y-13696793D01*
X12620182Y-13696793D02*
X12610658Y-13677746D01*
X12610658Y-13677746D02*
X12610658Y-13668222D01*
X12610658Y-13668222D02*
X12620182Y-13649174D01*
X12620182Y-13649174D02*
X12639230Y-13639650D01*
X12639230Y-13639650D02*
X12667801Y-13639650D01*
X12667801Y-13639650D02*
X12686849Y-13649174D01*
X12763039Y-13849174D02*
X12772563Y-13839650D01*
X12772563Y-13839650D02*
X12791611Y-13811079D01*
X12791611Y-13811079D02*
X12801134Y-13792031D01*
X12801134Y-13792031D02*
X12810658Y-13763460D01*
X12810658Y-13763460D02*
X12820182Y-13715841D01*
X12820182Y-13715841D02*
X12820182Y-13677746D01*
X12820182Y-13677746D02*
X12810658Y-13630127D01*
X12810658Y-13630127D02*
X12801134Y-13601555D01*
X12801134Y-13601555D02*
X12791611Y-13582508D01*
X12791611Y-13582508D02*
X12772563Y-13553936D01*
X12772563Y-13553936D02*
X12763039Y-13544412D01*
D12*
X7782500Y-13930500D02*
X7782500Y-13960500D01*
X7767500Y-13945500D02*
X7797500Y-13945500D01*
D11*
X8096372Y-13836984D02*
X8115420Y-13836984D01*
X8115420Y-13836984D02*
X8134467Y-13846508D01*
X8134467Y-13846508D02*
X8143991Y-13856031D01*
X8143991Y-13856031D02*
X8153515Y-13875079D01*
X8153515Y-13875079D02*
X8163039Y-13913174D01*
X8163039Y-13913174D02*
X8163039Y-13960793D01*
X8163039Y-13960793D02*
X8153515Y-13998888D01*
X8153515Y-13998888D02*
X8143991Y-14017936D01*
X8143991Y-14017936D02*
X8134467Y-14027460D01*
X8134467Y-14027460D02*
X8115420Y-14036984D01*
X8115420Y-14036984D02*
X8096372Y-14036984D01*
X8096372Y-14036984D02*
X8077324Y-14027460D01*
X8077324Y-14027460D02*
X8067801Y-14017936D01*
X8067801Y-14017936D02*
X8058277Y-13998888D01*
X8058277Y-13998888D02*
X8048753Y-13960793D01*
X8048753Y-13960793D02*
X8048753Y-13913174D01*
X8048753Y-13913174D02*
X8058277Y-13875079D01*
X8058277Y-13875079D02*
X8067801Y-13856031D01*
X8067801Y-13856031D02*
X8077324Y-13846508D01*
X8077324Y-13846508D02*
X8096372Y-13836984D01*
X8248753Y-14017936D02*
X8258277Y-14027460D01*
X8258277Y-14027460D02*
X8248753Y-14036984D01*
X8248753Y-14036984D02*
X8239229Y-14027460D01*
X8239229Y-14027460D02*
X8248753Y-14017936D01*
X8248753Y-14017936D02*
X8248753Y-14036984D01*
X8324943Y-13836984D02*
X8448753Y-13836984D01*
X8448753Y-13836984D02*
X8382086Y-13913174D01*
X8382086Y-13913174D02*
X8410658Y-13913174D01*
X8410658Y-13913174D02*
X8429705Y-13922698D01*
X8429705Y-13922698D02*
X8439229Y-13932222D01*
X8439229Y-13932222D02*
X8448753Y-13951269D01*
X8448753Y-13951269D02*
X8448753Y-13998888D01*
X8448753Y-13998888D02*
X8439229Y-14017936D01*
X8439229Y-14017936D02*
X8429705Y-14027460D01*
X8429705Y-14027460D02*
X8410658Y-14036984D01*
X8410658Y-14036984D02*
X8353515Y-14036984D01*
X8353515Y-14036984D02*
X8334467Y-14027460D01*
X8334467Y-14027460D02*
X8324943Y-14017936D01*
X8572563Y-13836984D02*
X8591610Y-13836984D01*
X8591610Y-13836984D02*
X8610658Y-13846508D01*
X8610658Y-13846508D02*
X8620182Y-13856031D01*
X8620182Y-13856031D02*
X8629705Y-13875079D01*
X8629705Y-13875079D02*
X8639229Y-13913174D01*
X8639229Y-13913174D02*
X8639229Y-13960793D01*
X8639229Y-13960793D02*
X8629705Y-13998888D01*
X8629705Y-13998888D02*
X8620182Y-14017936D01*
X8620182Y-14017936D02*
X8610658Y-14027460D01*
X8610658Y-14027460D02*
X8591610Y-14036984D01*
X8591610Y-14036984D02*
X8572563Y-14036984D01*
X8572563Y-14036984D02*
X8553515Y-14027460D01*
X8553515Y-14027460D02*
X8543991Y-14017936D01*
X8543991Y-14017936D02*
X8534467Y-13998888D01*
X8534467Y-13998888D02*
X8524944Y-13960793D01*
X8524944Y-13960793D02*
X8524944Y-13913174D01*
X8524944Y-13913174D02*
X8534467Y-13875079D01*
X8534467Y-13875079D02*
X8543991Y-13856031D01*
X8543991Y-13856031D02*
X8553515Y-13846508D01*
X8553515Y-13846508D02*
X8572563Y-13836984D01*
X8763039Y-13836984D02*
X8782086Y-13836984D01*
X8782086Y-13836984D02*
X8801134Y-13846508D01*
X8801134Y-13846508D02*
X8810658Y-13856031D01*
X8810658Y-13856031D02*
X8820182Y-13875079D01*
X8820182Y-13875079D02*
X8829705Y-13913174D01*
X8829705Y-13913174D02*
X8829705Y-13960793D01*
X8829705Y-13960793D02*
X8820182Y-13998888D01*
X8820182Y-13998888D02*
X8810658Y-14017936D01*
X8810658Y-14017936D02*
X8801134Y-14027460D01*
X8801134Y-14027460D02*
X8782086Y-14036984D01*
X8782086Y-14036984D02*
X8763039Y-14036984D01*
X8763039Y-14036984D02*
X8743991Y-14027460D01*
X8743991Y-14027460D02*
X8734467Y-14017936D01*
X8734467Y-14017936D02*
X8724944Y-13998888D01*
X8724944Y-13998888D02*
X8715420Y-13960793D01*
X8715420Y-13960793D02*
X8715420Y-13913174D01*
X8715420Y-13913174D02*
X8724944Y-13875079D01*
X8724944Y-13875079D02*
X8734467Y-13856031D01*
X8734467Y-13856031D02*
X8743991Y-13846508D01*
X8743991Y-13846508D02*
X8763039Y-13836984D01*
X8915420Y-14036984D02*
X8915420Y-13903650D01*
X8915420Y-13922698D02*
X8924944Y-13913174D01*
X8924944Y-13913174D02*
X8943991Y-13903650D01*
X8943991Y-13903650D02*
X8972563Y-13903650D01*
X8972563Y-13903650D02*
X8991610Y-13913174D01*
X8991610Y-13913174D02*
X9001134Y-13932222D01*
X9001134Y-13932222D02*
X9001134Y-14036984D01*
X9001134Y-13932222D02*
X9010658Y-13913174D01*
X9010658Y-13913174D02*
X9029705Y-13903650D01*
X9029705Y-13903650D02*
X9058277Y-13903650D01*
X9058277Y-13903650D02*
X9077325Y-13913174D01*
X9077325Y-13913174D02*
X9086848Y-13932222D01*
X9086848Y-13932222D02*
X9086848Y-14036984D01*
X9182086Y-14036984D02*
X9182086Y-13903650D01*
X9182086Y-13922698D02*
X9191610Y-13913174D01*
X9191610Y-13913174D02*
X9210658Y-13903650D01*
X9210658Y-13903650D02*
X9239229Y-13903650D01*
X9239229Y-13903650D02*
X9258277Y-13913174D01*
X9258277Y-13913174D02*
X9267801Y-13932222D01*
X9267801Y-13932222D02*
X9267801Y-14036984D01*
X9267801Y-13932222D02*
X9277325Y-13913174D01*
X9277325Y-13913174D02*
X9296372Y-13903650D01*
X9296372Y-13903650D02*
X9324944Y-13903650D01*
X9324944Y-13903650D02*
X9343991Y-13913174D01*
X9343991Y-13913174D02*
X9353515Y-13932222D01*
X9353515Y-13932222D02*
X9353515Y-14036984D01*
X9743991Y-13827460D02*
X9572563Y-14084603D01*
X10001134Y-13836984D02*
X10020182Y-13836984D01*
X10020182Y-13836984D02*
X10039229Y-13846508D01*
X10039229Y-13846508D02*
X10048753Y-13856031D01*
X10048753Y-13856031D02*
X10058277Y-13875079D01*
X10058277Y-13875079D02*
X10067801Y-13913174D01*
X10067801Y-13913174D02*
X10067801Y-13960793D01*
X10067801Y-13960793D02*
X10058277Y-13998888D01*
X10058277Y-13998888D02*
X10048753Y-14017936D01*
X10048753Y-14017936D02*
X10039229Y-14027460D01*
X10039229Y-14027460D02*
X10020182Y-14036984D01*
X10020182Y-14036984D02*
X10001134Y-14036984D01*
X10001134Y-14036984D02*
X9982087Y-14027460D01*
X9982087Y-14027460D02*
X9972563Y-14017936D01*
X9972563Y-14017936D02*
X9963039Y-13998888D01*
X9963039Y-13998888D02*
X9953515Y-13960793D01*
X9953515Y-13960793D02*
X9953515Y-13913174D01*
X9953515Y-13913174D02*
X9963039Y-13875079D01*
X9963039Y-13875079D02*
X9972563Y-13856031D01*
X9972563Y-13856031D02*
X9982087Y-13846508D01*
X9982087Y-13846508D02*
X10001134Y-13836984D01*
X10153515Y-14017936D02*
X10163039Y-14027460D01*
X10163039Y-14027460D02*
X10153515Y-14036984D01*
X10153515Y-14036984D02*
X10143991Y-14027460D01*
X10143991Y-14027460D02*
X10153515Y-14017936D01*
X10153515Y-14017936D02*
X10153515Y-14036984D01*
X10286848Y-13836984D02*
X10305896Y-13836984D01*
X10305896Y-13836984D02*
X10324944Y-13846508D01*
X10324944Y-13846508D02*
X10334468Y-13856031D01*
X10334468Y-13856031D02*
X10343991Y-13875079D01*
X10343991Y-13875079D02*
X10353515Y-13913174D01*
X10353515Y-13913174D02*
X10353515Y-13960793D01*
X10353515Y-13960793D02*
X10343991Y-13998888D01*
X10343991Y-13998888D02*
X10334468Y-14017936D01*
X10334468Y-14017936D02*
X10324944Y-14027460D01*
X10324944Y-14027460D02*
X10305896Y-14036984D01*
X10305896Y-14036984D02*
X10286848Y-14036984D01*
X10286848Y-14036984D02*
X10267801Y-14027460D01*
X10267801Y-14027460D02*
X10258277Y-14017936D01*
X10258277Y-14017936D02*
X10248753Y-13998888D01*
X10248753Y-13998888D02*
X10239229Y-13960793D01*
X10239229Y-13960793D02*
X10239229Y-13913174D01*
X10239229Y-13913174D02*
X10248753Y-13875079D01*
X10248753Y-13875079D02*
X10258277Y-13856031D01*
X10258277Y-13856031D02*
X10267801Y-13846508D01*
X10267801Y-13846508D02*
X10286848Y-13836984D01*
X10543991Y-14036984D02*
X10429706Y-14036984D01*
X10486848Y-14036984D02*
X10486848Y-13836984D01*
X10486848Y-13836984D02*
X10467801Y-13865555D01*
X10467801Y-13865555D02*
X10448753Y-13884603D01*
X10448753Y-13884603D02*
X10429706Y-13894127D01*
X10734468Y-14036984D02*
X10620182Y-14036984D01*
X10677325Y-14036984D02*
X10677325Y-13836984D01*
X10677325Y-13836984D02*
X10658277Y-13865555D01*
X10658277Y-13865555D02*
X10639229Y-13884603D01*
X10639229Y-13884603D02*
X10620182Y-13894127D01*
X10848753Y-13922698D02*
X10829706Y-13913174D01*
X10829706Y-13913174D02*
X10820182Y-13903650D01*
X10820182Y-13903650D02*
X10810658Y-13884603D01*
X10810658Y-13884603D02*
X10810658Y-13875079D01*
X10810658Y-13875079D02*
X10820182Y-13856031D01*
X10820182Y-13856031D02*
X10829706Y-13846508D01*
X10829706Y-13846508D02*
X10848753Y-13836984D01*
X10848753Y-13836984D02*
X10886849Y-13836984D01*
X10886849Y-13836984D02*
X10905896Y-13846508D01*
X10905896Y-13846508D02*
X10915420Y-13856031D01*
X10915420Y-13856031D02*
X10924944Y-13875079D01*
X10924944Y-13875079D02*
X10924944Y-13884603D01*
X10924944Y-13884603D02*
X10915420Y-13903650D01*
X10915420Y-13903650D02*
X10905896Y-13913174D01*
X10905896Y-13913174D02*
X10886849Y-13922698D01*
X10886849Y-13922698D02*
X10848753Y-13922698D01*
X10848753Y-13922698D02*
X10829706Y-13932222D01*
X10829706Y-13932222D02*
X10820182Y-13941746D01*
X10820182Y-13941746D02*
X10810658Y-13960793D01*
X10810658Y-13960793D02*
X10810658Y-13998888D01*
X10810658Y-13998888D02*
X10820182Y-14017936D01*
X10820182Y-14017936D02*
X10829706Y-14027460D01*
X10829706Y-14027460D02*
X10848753Y-14036984D01*
X10848753Y-14036984D02*
X10886849Y-14036984D01*
X10886849Y-14036984D02*
X10905896Y-14027460D01*
X10905896Y-14027460D02*
X10915420Y-14017936D01*
X10915420Y-14017936D02*
X10924944Y-13998888D01*
X10924944Y-13998888D02*
X10924944Y-13960793D01*
X10924944Y-13960793D02*
X10915420Y-13941746D01*
X10915420Y-13941746D02*
X10905896Y-13932222D01*
X10905896Y-13932222D02*
X10886849Y-13922698D01*
X11001134Y-13836984D02*
X11001134Y-13875079D01*
X11077325Y-13836984D02*
X11077325Y-13875079D01*
X11372563Y-14113174D02*
X11363039Y-14103650D01*
X11363039Y-14103650D02*
X11343991Y-14075079D01*
X11343991Y-14075079D02*
X11334468Y-14056031D01*
X11334468Y-14056031D02*
X11324944Y-14027460D01*
X11324944Y-14027460D02*
X11315420Y-13979841D01*
X11315420Y-13979841D02*
X11315420Y-13941746D01*
X11315420Y-13941746D02*
X11324944Y-13894127D01*
X11324944Y-13894127D02*
X11334468Y-13865555D01*
X11334468Y-13865555D02*
X11343991Y-13846508D01*
X11343991Y-13846508D02*
X11363039Y-13817936D01*
X11363039Y-13817936D02*
X11372563Y-13808412D01*
X11534468Y-13903650D02*
X11534468Y-14036984D01*
X11486848Y-13827460D02*
X11439229Y-13970317D01*
X11439229Y-13970317D02*
X11563039Y-13970317D01*
X11620182Y-13836984D02*
X11743991Y-13836984D01*
X11743991Y-13836984D02*
X11677325Y-13913174D01*
X11677325Y-13913174D02*
X11705896Y-13913174D01*
X11705896Y-13913174D02*
X11724944Y-13922698D01*
X11724944Y-13922698D02*
X11734468Y-13932222D01*
X11734468Y-13932222D02*
X11743991Y-13951269D01*
X11743991Y-13951269D02*
X11743991Y-13998888D01*
X11743991Y-13998888D02*
X11734468Y-14017936D01*
X11734468Y-14017936D02*
X11724944Y-14027460D01*
X11724944Y-14027460D02*
X11705896Y-14036984D01*
X11705896Y-14036984D02*
X11648753Y-14036984D01*
X11648753Y-14036984D02*
X11629706Y-14027460D01*
X11629706Y-14027460D02*
X11620182Y-14017936D01*
X11982087Y-14036984D02*
X11982087Y-13836984D01*
X12067801Y-14036984D02*
X12067801Y-13932222D01*
X12067801Y-13932222D02*
X12058277Y-13913174D01*
X12058277Y-13913174D02*
X12039230Y-13903650D01*
X12039230Y-13903650D02*
X12010658Y-13903650D01*
X12010658Y-13903650D02*
X11991610Y-13913174D01*
X11991610Y-13913174D02*
X11982087Y-13922698D01*
X12191610Y-14036984D02*
X12172563Y-14027460D01*
X12172563Y-14027460D02*
X12163039Y-14017936D01*
X12163039Y-14017936D02*
X12153515Y-13998888D01*
X12153515Y-13998888D02*
X12153515Y-13941746D01*
X12153515Y-13941746D02*
X12163039Y-13922698D01*
X12163039Y-13922698D02*
X12172563Y-13913174D01*
X12172563Y-13913174D02*
X12191610Y-13903650D01*
X12191610Y-13903650D02*
X12220182Y-13903650D01*
X12220182Y-13903650D02*
X12239230Y-13913174D01*
X12239230Y-13913174D02*
X12248753Y-13922698D01*
X12248753Y-13922698D02*
X12258277Y-13941746D01*
X12258277Y-13941746D02*
X12258277Y-13998888D01*
X12258277Y-13998888D02*
X12248753Y-14017936D01*
X12248753Y-14017936D02*
X12239230Y-14027460D01*
X12239230Y-14027460D02*
X12220182Y-14036984D01*
X12220182Y-14036984D02*
X12191610Y-14036984D01*
X12372563Y-14036984D02*
X12353515Y-14027460D01*
X12353515Y-14027460D02*
X12343991Y-14008412D01*
X12343991Y-14008412D02*
X12343991Y-13836984D01*
X12524944Y-14027460D02*
X12505896Y-14036984D01*
X12505896Y-14036984D02*
X12467801Y-14036984D01*
X12467801Y-14036984D02*
X12448753Y-14027460D01*
X12448753Y-14027460D02*
X12439230Y-14008412D01*
X12439230Y-14008412D02*
X12439230Y-13932222D01*
X12439230Y-13932222D02*
X12448753Y-13913174D01*
X12448753Y-13913174D02*
X12467801Y-13903650D01*
X12467801Y-13903650D02*
X12505896Y-13903650D01*
X12505896Y-13903650D02*
X12524944Y-13913174D01*
X12524944Y-13913174D02*
X12534468Y-13932222D01*
X12534468Y-13932222D02*
X12534468Y-13951269D01*
X12534468Y-13951269D02*
X12439230Y-13970317D01*
X12610658Y-14027460D02*
X12629706Y-14036984D01*
X12629706Y-14036984D02*
X12667801Y-14036984D01*
X12667801Y-14036984D02*
X12686849Y-14027460D01*
X12686849Y-14027460D02*
X12696372Y-14008412D01*
X12696372Y-14008412D02*
X12696372Y-13998888D01*
X12696372Y-13998888D02*
X12686849Y-13979841D01*
X12686849Y-13979841D02*
X12667801Y-13970317D01*
X12667801Y-13970317D02*
X12639230Y-13970317D01*
X12639230Y-13970317D02*
X12620182Y-13960793D01*
X12620182Y-13960793D02*
X12610658Y-13941746D01*
X12610658Y-13941746D02*
X12610658Y-13932222D01*
X12610658Y-13932222D02*
X12620182Y-13913174D01*
X12620182Y-13913174D02*
X12639230Y-13903650D01*
X12639230Y-13903650D02*
X12667801Y-13903650D01*
X12667801Y-13903650D02*
X12686849Y-13913174D01*
X12763039Y-14113174D02*
X12772563Y-14103650D01*
X12772563Y-14103650D02*
X12791611Y-14075079D01*
X12791611Y-14075079D02*
X12801134Y-14056031D01*
X12801134Y-14056031D02*
X12810658Y-14027460D01*
X12810658Y-14027460D02*
X12820182Y-13979841D01*
X12820182Y-13979841D02*
X12820182Y-13941746D01*
X12820182Y-13941746D02*
X12810658Y-13894127D01*
X12810658Y-13894127D02*
X12801134Y-13865555D01*
X12801134Y-13865555D02*
X12791611Y-13846508D01*
X12791611Y-13846508D02*
X12772563Y-13817936D01*
X12772563Y-13817936D02*
X12763039Y-13808412D01*
D12*
X7790178Y-14227178D02*
X7790178Y-14191822D01*
X7754822Y-14191822D01*
X7754822Y-14227178D01*
X7790178Y-14227178D01*
D11*
X8096372Y-14100984D02*
X8115420Y-14100984D01*
X8115420Y-14100984D02*
X8134467Y-14110508D01*
X8134467Y-14110508D02*
X8143991Y-14120031D01*
X8143991Y-14120031D02*
X8153515Y-14139079D01*
X8153515Y-14139079D02*
X8163039Y-14177174D01*
X8163039Y-14177174D02*
X8163039Y-14224793D01*
X8163039Y-14224793D02*
X8153515Y-14262888D01*
X8153515Y-14262888D02*
X8143991Y-14281936D01*
X8143991Y-14281936D02*
X8134467Y-14291460D01*
X8134467Y-14291460D02*
X8115420Y-14300984D01*
X8115420Y-14300984D02*
X8096372Y-14300984D01*
X8096372Y-14300984D02*
X8077324Y-14291460D01*
X8077324Y-14291460D02*
X8067801Y-14281936D01*
X8067801Y-14281936D02*
X8058277Y-14262888D01*
X8058277Y-14262888D02*
X8048753Y-14224793D01*
X8048753Y-14224793D02*
X8048753Y-14177174D01*
X8048753Y-14177174D02*
X8058277Y-14139079D01*
X8058277Y-14139079D02*
X8067801Y-14120031D01*
X8067801Y-14120031D02*
X8077324Y-14110508D01*
X8077324Y-14110508D02*
X8096372Y-14100984D01*
X8248753Y-14281936D02*
X8258277Y-14291460D01*
X8258277Y-14291460D02*
X8248753Y-14300984D01*
X8248753Y-14300984D02*
X8239229Y-14291460D01*
X8239229Y-14291460D02*
X8248753Y-14281936D01*
X8248753Y-14281936D02*
X8248753Y-14300984D01*
X8439229Y-14100984D02*
X8343991Y-14100984D01*
X8343991Y-14100984D02*
X8334467Y-14196222D01*
X8334467Y-14196222D02*
X8343991Y-14186698D01*
X8343991Y-14186698D02*
X8363039Y-14177174D01*
X8363039Y-14177174D02*
X8410658Y-14177174D01*
X8410658Y-14177174D02*
X8429705Y-14186698D01*
X8429705Y-14186698D02*
X8439229Y-14196222D01*
X8439229Y-14196222D02*
X8448753Y-14215269D01*
X8448753Y-14215269D02*
X8448753Y-14262888D01*
X8448753Y-14262888D02*
X8439229Y-14281936D01*
X8439229Y-14281936D02*
X8429705Y-14291460D01*
X8429705Y-14291460D02*
X8410658Y-14300984D01*
X8410658Y-14300984D02*
X8363039Y-14300984D01*
X8363039Y-14300984D02*
X8343991Y-14291460D01*
X8343991Y-14291460D02*
X8334467Y-14281936D01*
X8572563Y-14100984D02*
X8591610Y-14100984D01*
X8591610Y-14100984D02*
X8610658Y-14110508D01*
X8610658Y-14110508D02*
X8620182Y-14120031D01*
X8620182Y-14120031D02*
X8629705Y-14139079D01*
X8629705Y-14139079D02*
X8639229Y-14177174D01*
X8639229Y-14177174D02*
X8639229Y-14224793D01*
X8639229Y-14224793D02*
X8629705Y-14262888D01*
X8629705Y-14262888D02*
X8620182Y-14281936D01*
X8620182Y-14281936D02*
X8610658Y-14291460D01*
X8610658Y-14291460D02*
X8591610Y-14300984D01*
X8591610Y-14300984D02*
X8572563Y-14300984D01*
X8572563Y-14300984D02*
X8553515Y-14291460D01*
X8553515Y-14291460D02*
X8543991Y-14281936D01*
X8543991Y-14281936D02*
X8534467Y-14262888D01*
X8534467Y-14262888D02*
X8524944Y-14224793D01*
X8524944Y-14224793D02*
X8524944Y-14177174D01*
X8524944Y-14177174D02*
X8534467Y-14139079D01*
X8534467Y-14139079D02*
X8543991Y-14120031D01*
X8543991Y-14120031D02*
X8553515Y-14110508D01*
X8553515Y-14110508D02*
X8572563Y-14100984D01*
X8763039Y-14100984D02*
X8782086Y-14100984D01*
X8782086Y-14100984D02*
X8801134Y-14110508D01*
X8801134Y-14110508D02*
X8810658Y-14120031D01*
X8810658Y-14120031D02*
X8820182Y-14139079D01*
X8820182Y-14139079D02*
X8829705Y-14177174D01*
X8829705Y-14177174D02*
X8829705Y-14224793D01*
X8829705Y-14224793D02*
X8820182Y-14262888D01*
X8820182Y-14262888D02*
X8810658Y-14281936D01*
X8810658Y-14281936D02*
X8801134Y-14291460D01*
X8801134Y-14291460D02*
X8782086Y-14300984D01*
X8782086Y-14300984D02*
X8763039Y-14300984D01*
X8763039Y-14300984D02*
X8743991Y-14291460D01*
X8743991Y-14291460D02*
X8734467Y-14281936D01*
X8734467Y-14281936D02*
X8724944Y-14262888D01*
X8724944Y-14262888D02*
X8715420Y-14224793D01*
X8715420Y-14224793D02*
X8715420Y-14177174D01*
X8715420Y-14177174D02*
X8724944Y-14139079D01*
X8724944Y-14139079D02*
X8734467Y-14120031D01*
X8734467Y-14120031D02*
X8743991Y-14110508D01*
X8743991Y-14110508D02*
X8763039Y-14100984D01*
X8915420Y-14300984D02*
X8915420Y-14167650D01*
X8915420Y-14186698D02*
X8924944Y-14177174D01*
X8924944Y-14177174D02*
X8943991Y-14167650D01*
X8943991Y-14167650D02*
X8972563Y-14167650D01*
X8972563Y-14167650D02*
X8991610Y-14177174D01*
X8991610Y-14177174D02*
X9001134Y-14196222D01*
X9001134Y-14196222D02*
X9001134Y-14300984D01*
X9001134Y-14196222D02*
X9010658Y-14177174D01*
X9010658Y-14177174D02*
X9029705Y-14167650D01*
X9029705Y-14167650D02*
X9058277Y-14167650D01*
X9058277Y-14167650D02*
X9077325Y-14177174D01*
X9077325Y-14177174D02*
X9086848Y-14196222D01*
X9086848Y-14196222D02*
X9086848Y-14300984D01*
X9182086Y-14300984D02*
X9182086Y-14167650D01*
X9182086Y-14186698D02*
X9191610Y-14177174D01*
X9191610Y-14177174D02*
X9210658Y-14167650D01*
X9210658Y-14167650D02*
X9239229Y-14167650D01*
X9239229Y-14167650D02*
X9258277Y-14177174D01*
X9258277Y-14177174D02*
X9267801Y-14196222D01*
X9267801Y-14196222D02*
X9267801Y-14300984D01*
X9267801Y-14196222D02*
X9277325Y-14177174D01*
X9277325Y-14177174D02*
X9296372Y-14167650D01*
X9296372Y-14167650D02*
X9324944Y-14167650D01*
X9324944Y-14167650D02*
X9343991Y-14177174D01*
X9343991Y-14177174D02*
X9353515Y-14196222D01*
X9353515Y-14196222D02*
X9353515Y-14300984D01*
X9743991Y-14091460D02*
X9572563Y-14348603D01*
X10001134Y-14100984D02*
X10020182Y-14100984D01*
X10020182Y-14100984D02*
X10039229Y-14110508D01*
X10039229Y-14110508D02*
X10048753Y-14120031D01*
X10048753Y-14120031D02*
X10058277Y-14139079D01*
X10058277Y-14139079D02*
X10067801Y-14177174D01*
X10067801Y-14177174D02*
X10067801Y-14224793D01*
X10067801Y-14224793D02*
X10058277Y-14262888D01*
X10058277Y-14262888D02*
X10048753Y-14281936D01*
X10048753Y-14281936D02*
X10039229Y-14291460D01*
X10039229Y-14291460D02*
X10020182Y-14300984D01*
X10020182Y-14300984D02*
X10001134Y-14300984D01*
X10001134Y-14300984D02*
X9982087Y-14291460D01*
X9982087Y-14291460D02*
X9972563Y-14281936D01*
X9972563Y-14281936D02*
X9963039Y-14262888D01*
X9963039Y-14262888D02*
X9953515Y-14224793D01*
X9953515Y-14224793D02*
X9953515Y-14177174D01*
X9953515Y-14177174D02*
X9963039Y-14139079D01*
X9963039Y-14139079D02*
X9972563Y-14120031D01*
X9972563Y-14120031D02*
X9982087Y-14110508D01*
X9982087Y-14110508D02*
X10001134Y-14100984D01*
X10153515Y-14281936D02*
X10163039Y-14291460D01*
X10163039Y-14291460D02*
X10153515Y-14300984D01*
X10153515Y-14300984D02*
X10143991Y-14291460D01*
X10143991Y-14291460D02*
X10153515Y-14281936D01*
X10153515Y-14281936D02*
X10153515Y-14300984D01*
X10286848Y-14100984D02*
X10305896Y-14100984D01*
X10305896Y-14100984D02*
X10324944Y-14110508D01*
X10324944Y-14110508D02*
X10334468Y-14120031D01*
X10334468Y-14120031D02*
X10343991Y-14139079D01*
X10343991Y-14139079D02*
X10353515Y-14177174D01*
X10353515Y-14177174D02*
X10353515Y-14224793D01*
X10353515Y-14224793D02*
X10343991Y-14262888D01*
X10343991Y-14262888D02*
X10334468Y-14281936D01*
X10334468Y-14281936D02*
X10324944Y-14291460D01*
X10324944Y-14291460D02*
X10305896Y-14300984D01*
X10305896Y-14300984D02*
X10286848Y-14300984D01*
X10286848Y-14300984D02*
X10267801Y-14291460D01*
X10267801Y-14291460D02*
X10258277Y-14281936D01*
X10258277Y-14281936D02*
X10248753Y-14262888D01*
X10248753Y-14262888D02*
X10239229Y-14224793D01*
X10239229Y-14224793D02*
X10239229Y-14177174D01*
X10239229Y-14177174D02*
X10248753Y-14139079D01*
X10248753Y-14139079D02*
X10258277Y-14120031D01*
X10258277Y-14120031D02*
X10267801Y-14110508D01*
X10267801Y-14110508D02*
X10286848Y-14100984D01*
X10543991Y-14300984D02*
X10429706Y-14300984D01*
X10486848Y-14300984D02*
X10486848Y-14100984D01*
X10486848Y-14100984D02*
X10467801Y-14129555D01*
X10467801Y-14129555D02*
X10448753Y-14148603D01*
X10448753Y-14148603D02*
X10429706Y-14158127D01*
X10639229Y-14300984D02*
X10677325Y-14300984D01*
X10677325Y-14300984D02*
X10696372Y-14291460D01*
X10696372Y-14291460D02*
X10705896Y-14281936D01*
X10705896Y-14281936D02*
X10724944Y-14253365D01*
X10724944Y-14253365D02*
X10734468Y-14215269D01*
X10734468Y-14215269D02*
X10734468Y-14139079D01*
X10734468Y-14139079D02*
X10724944Y-14120031D01*
X10724944Y-14120031D02*
X10715420Y-14110508D01*
X10715420Y-14110508D02*
X10696372Y-14100984D01*
X10696372Y-14100984D02*
X10658277Y-14100984D01*
X10658277Y-14100984D02*
X10639229Y-14110508D01*
X10639229Y-14110508D02*
X10629706Y-14120031D01*
X10629706Y-14120031D02*
X10620182Y-14139079D01*
X10620182Y-14139079D02*
X10620182Y-14186698D01*
X10620182Y-14186698D02*
X10629706Y-14205746D01*
X10629706Y-14205746D02*
X10639229Y-14215269D01*
X10639229Y-14215269D02*
X10658277Y-14224793D01*
X10658277Y-14224793D02*
X10696372Y-14224793D01*
X10696372Y-14224793D02*
X10715420Y-14215269D01*
X10715420Y-14215269D02*
X10724944Y-14205746D01*
X10724944Y-14205746D02*
X10734468Y-14186698D01*
X10801134Y-14100984D02*
X10934468Y-14100984D01*
X10934468Y-14100984D02*
X10848753Y-14300984D01*
X11001134Y-14100984D02*
X11001134Y-14139079D01*
X11077325Y-14100984D02*
X11077325Y-14139079D01*
X11372563Y-14377174D02*
X11363039Y-14367650D01*
X11363039Y-14367650D02*
X11343991Y-14339079D01*
X11343991Y-14339079D02*
X11334468Y-14320031D01*
X11334468Y-14320031D02*
X11324944Y-14291460D01*
X11324944Y-14291460D02*
X11315420Y-14243841D01*
X11315420Y-14243841D02*
X11315420Y-14205746D01*
X11315420Y-14205746D02*
X11324944Y-14158127D01*
X11324944Y-14158127D02*
X11334468Y-14129555D01*
X11334468Y-14129555D02*
X11343991Y-14110508D01*
X11343991Y-14110508D02*
X11363039Y-14081936D01*
X11363039Y-14081936D02*
X11372563Y-14072412D01*
X11486848Y-14100984D02*
X11505896Y-14100984D01*
X11505896Y-14100984D02*
X11524944Y-14110508D01*
X11524944Y-14110508D02*
X11534468Y-14120031D01*
X11534468Y-14120031D02*
X11543991Y-14139079D01*
X11543991Y-14139079D02*
X11553515Y-14177174D01*
X11553515Y-14177174D02*
X11553515Y-14224793D01*
X11553515Y-14224793D02*
X11543991Y-14262888D01*
X11543991Y-14262888D02*
X11534468Y-14281936D01*
X11534468Y-14281936D02*
X11524944Y-14291460D01*
X11524944Y-14291460D02*
X11505896Y-14300984D01*
X11505896Y-14300984D02*
X11486848Y-14300984D01*
X11486848Y-14300984D02*
X11467801Y-14291460D01*
X11467801Y-14291460D02*
X11458277Y-14281936D01*
X11458277Y-14281936D02*
X11448753Y-14262888D01*
X11448753Y-14262888D02*
X11439229Y-14224793D01*
X11439229Y-14224793D02*
X11439229Y-14177174D01*
X11439229Y-14177174D02*
X11448753Y-14139079D01*
X11448753Y-14139079D02*
X11458277Y-14120031D01*
X11458277Y-14120031D02*
X11467801Y-14110508D01*
X11467801Y-14110508D02*
X11486848Y-14100984D01*
X11791610Y-14300984D02*
X11791610Y-14100984D01*
X11877325Y-14300984D02*
X11877325Y-14196222D01*
X11877325Y-14196222D02*
X11867801Y-14177174D01*
X11867801Y-14177174D02*
X11848753Y-14167650D01*
X11848753Y-14167650D02*
X11820182Y-14167650D01*
X11820182Y-14167650D02*
X11801134Y-14177174D01*
X11801134Y-14177174D02*
X11791610Y-14186698D01*
X12001134Y-14300984D02*
X11982087Y-14291460D01*
X11982087Y-14291460D02*
X11972563Y-14281936D01*
X11972563Y-14281936D02*
X11963039Y-14262888D01*
X11963039Y-14262888D02*
X11963039Y-14205746D01*
X11963039Y-14205746D02*
X11972563Y-14186698D01*
X11972563Y-14186698D02*
X11982087Y-14177174D01*
X11982087Y-14177174D02*
X12001134Y-14167650D01*
X12001134Y-14167650D02*
X12029706Y-14167650D01*
X12029706Y-14167650D02*
X12048753Y-14177174D01*
X12048753Y-14177174D02*
X12058277Y-14186698D01*
X12058277Y-14186698D02*
X12067801Y-14205746D01*
X12067801Y-14205746D02*
X12067801Y-14262888D01*
X12067801Y-14262888D02*
X12058277Y-14281936D01*
X12058277Y-14281936D02*
X12048753Y-14291460D01*
X12048753Y-14291460D02*
X12029706Y-14300984D01*
X12029706Y-14300984D02*
X12001134Y-14300984D01*
X12182087Y-14300984D02*
X12163039Y-14291460D01*
X12163039Y-14291460D02*
X12153515Y-14272412D01*
X12153515Y-14272412D02*
X12153515Y-14100984D01*
X12334468Y-14291460D02*
X12315420Y-14300984D01*
X12315420Y-14300984D02*
X12277325Y-14300984D01*
X12277325Y-14300984D02*
X12258277Y-14291460D01*
X12258277Y-14291460D02*
X12248753Y-14272412D01*
X12248753Y-14272412D02*
X12248753Y-14196222D01*
X12248753Y-14196222D02*
X12258277Y-14177174D01*
X12258277Y-14177174D02*
X12277325Y-14167650D01*
X12277325Y-14167650D02*
X12315420Y-14167650D01*
X12315420Y-14167650D02*
X12334468Y-14177174D01*
X12334468Y-14177174D02*
X12343991Y-14196222D01*
X12343991Y-14196222D02*
X12343991Y-14215269D01*
X12343991Y-14215269D02*
X12248753Y-14234317D01*
X12420182Y-14291460D02*
X12439230Y-14300984D01*
X12439230Y-14300984D02*
X12477325Y-14300984D01*
X12477325Y-14300984D02*
X12496372Y-14291460D01*
X12496372Y-14291460D02*
X12505896Y-14272412D01*
X12505896Y-14272412D02*
X12505896Y-14262888D01*
X12505896Y-14262888D02*
X12496372Y-14243841D01*
X12496372Y-14243841D02*
X12477325Y-14234317D01*
X12477325Y-14234317D02*
X12448753Y-14234317D01*
X12448753Y-14234317D02*
X12429706Y-14224793D01*
X12429706Y-14224793D02*
X12420182Y-14205746D01*
X12420182Y-14205746D02*
X12420182Y-14196222D01*
X12420182Y-14196222D02*
X12429706Y-14177174D01*
X12429706Y-14177174D02*
X12448753Y-14167650D01*
X12448753Y-14167650D02*
X12477325Y-14167650D01*
X12477325Y-14167650D02*
X12496372Y-14177174D01*
X12743992Y-14224793D02*
X12896373Y-14224793D01*
X12820182Y-14300984D02*
X12820182Y-14148603D01*
X13134468Y-14120031D02*
X13143992Y-14110508D01*
X13143992Y-14110508D02*
X13163039Y-14100984D01*
X13163039Y-14100984D02*
X13210658Y-14100984D01*
X13210658Y-14100984D02*
X13229706Y-14110508D01*
X13229706Y-14110508D02*
X13239230Y-14120031D01*
X13239230Y-14120031D02*
X13248753Y-14139079D01*
X13248753Y-14139079D02*
X13248753Y-14158127D01*
X13248753Y-14158127D02*
X13239230Y-14186698D01*
X13239230Y-14186698D02*
X13124944Y-14300984D01*
X13124944Y-14300984D02*
X13248753Y-14300984D01*
X13477325Y-14291460D02*
X13496373Y-14300984D01*
X13496373Y-14300984D02*
X13534468Y-14300984D01*
X13534468Y-14300984D02*
X13553515Y-14291460D01*
X13553515Y-14291460D02*
X13563039Y-14272412D01*
X13563039Y-14272412D02*
X13563039Y-14262888D01*
X13563039Y-14262888D02*
X13553515Y-14243841D01*
X13553515Y-14243841D02*
X13534468Y-14234317D01*
X13534468Y-14234317D02*
X13505896Y-14234317D01*
X13505896Y-14234317D02*
X13486849Y-14224793D01*
X13486849Y-14224793D02*
X13477325Y-14205746D01*
X13477325Y-14205746D02*
X13477325Y-14196222D01*
X13477325Y-14196222D02*
X13486849Y-14177174D01*
X13486849Y-14177174D02*
X13505896Y-14167650D01*
X13505896Y-14167650D02*
X13534468Y-14167650D01*
X13534468Y-14167650D02*
X13553515Y-14177174D01*
X13677325Y-14300984D02*
X13658277Y-14291460D01*
X13658277Y-14291460D02*
X13648754Y-14272412D01*
X13648754Y-14272412D02*
X13648754Y-14100984D01*
X13782087Y-14300984D02*
X13763039Y-14291460D01*
X13763039Y-14291460D02*
X13753515Y-14281936D01*
X13753515Y-14281936D02*
X13743992Y-14262888D01*
X13743992Y-14262888D02*
X13743992Y-14205746D01*
X13743992Y-14205746D02*
X13753515Y-14186698D01*
X13753515Y-14186698D02*
X13763039Y-14177174D01*
X13763039Y-14177174D02*
X13782087Y-14167650D01*
X13782087Y-14167650D02*
X13810658Y-14167650D01*
X13810658Y-14167650D02*
X13829706Y-14177174D01*
X13829706Y-14177174D02*
X13839230Y-14186698D01*
X13839230Y-14186698D02*
X13848754Y-14205746D01*
X13848754Y-14205746D02*
X13848754Y-14262888D01*
X13848754Y-14262888D02*
X13839230Y-14281936D01*
X13839230Y-14281936D02*
X13829706Y-14291460D01*
X13829706Y-14291460D02*
X13810658Y-14300984D01*
X13810658Y-14300984D02*
X13782087Y-14300984D01*
X13905896Y-14167650D02*
X13982087Y-14167650D01*
X13934468Y-14100984D02*
X13934468Y-14272412D01*
X13934468Y-14272412D02*
X13943992Y-14291460D01*
X13943992Y-14291460D02*
X13963039Y-14300984D01*
X13963039Y-14300984D02*
X13982087Y-14300984D01*
X14039230Y-14291460D02*
X14058277Y-14300984D01*
X14058277Y-14300984D02*
X14096373Y-14300984D01*
X14096373Y-14300984D02*
X14115420Y-14291460D01*
X14115420Y-14291460D02*
X14124944Y-14272412D01*
X14124944Y-14272412D02*
X14124944Y-14262888D01*
X14124944Y-14262888D02*
X14115420Y-14243841D01*
X14115420Y-14243841D02*
X14096373Y-14234317D01*
X14096373Y-14234317D02*
X14067801Y-14234317D01*
X14067801Y-14234317D02*
X14048754Y-14224793D01*
X14048754Y-14224793D02*
X14039230Y-14205746D01*
X14039230Y-14205746D02*
X14039230Y-14196222D01*
X14039230Y-14196222D02*
X14048754Y-14177174D01*
X14048754Y-14177174D02*
X14067801Y-14167650D01*
X14067801Y-14167650D02*
X14096373Y-14167650D01*
X14096373Y-14167650D02*
X14115420Y-14177174D01*
X14191611Y-14377174D02*
X14201135Y-14367650D01*
X14201135Y-14367650D02*
X14220182Y-14339079D01*
X14220182Y-14339079D02*
X14229706Y-14320031D01*
X14229706Y-14320031D02*
X14239230Y-14291460D01*
X14239230Y-14291460D02*
X14248754Y-14243841D01*
X14248754Y-14243841D02*
X14248754Y-14205746D01*
X14248754Y-14205746D02*
X14239230Y-14158127D01*
X14239230Y-14158127D02*
X14229706Y-14129555D01*
X14229706Y-14129555D02*
X14220182Y-14110508D01*
X14220182Y-14110508D02*
X14201135Y-14081936D01*
X14201135Y-14081936D02*
X14191611Y-14072412D01*
D12*
X7770000Y-14501000D02*
X7797500Y-14473500D01*
X7770000Y-14446000D01*
X7742500Y-14473500D01*
X7770000Y-14501000D01*
D11*
X8096372Y-14364984D02*
X8115420Y-14364984D01*
X8115420Y-14364984D02*
X8134467Y-14374508D01*
X8134467Y-14374508D02*
X8143991Y-14384031D01*
X8143991Y-14384031D02*
X8153515Y-14403079D01*
X8153515Y-14403079D02*
X8163039Y-14441174D01*
X8163039Y-14441174D02*
X8163039Y-14488793D01*
X8163039Y-14488793D02*
X8153515Y-14526888D01*
X8153515Y-14526888D02*
X8143991Y-14545936D01*
X8143991Y-14545936D02*
X8134467Y-14555460D01*
X8134467Y-14555460D02*
X8115420Y-14564984D01*
X8115420Y-14564984D02*
X8096372Y-14564984D01*
X8096372Y-14564984D02*
X8077324Y-14555460D01*
X8077324Y-14555460D02*
X8067801Y-14545936D01*
X8067801Y-14545936D02*
X8058277Y-14526888D01*
X8058277Y-14526888D02*
X8048753Y-14488793D01*
X8048753Y-14488793D02*
X8048753Y-14441174D01*
X8048753Y-14441174D02*
X8058277Y-14403079D01*
X8058277Y-14403079D02*
X8067801Y-14384031D01*
X8067801Y-14384031D02*
X8077324Y-14374508D01*
X8077324Y-14374508D02*
X8096372Y-14364984D01*
X8248753Y-14545936D02*
X8258277Y-14555460D01*
X8258277Y-14555460D02*
X8248753Y-14564984D01*
X8248753Y-14564984D02*
X8239229Y-14555460D01*
X8239229Y-14555460D02*
X8248753Y-14545936D01*
X8248753Y-14545936D02*
X8248753Y-14564984D01*
X8439229Y-14364984D02*
X8343991Y-14364984D01*
X8343991Y-14364984D02*
X8334467Y-14460222D01*
X8334467Y-14460222D02*
X8343991Y-14450698D01*
X8343991Y-14450698D02*
X8363039Y-14441174D01*
X8363039Y-14441174D02*
X8410658Y-14441174D01*
X8410658Y-14441174D02*
X8429705Y-14450698D01*
X8429705Y-14450698D02*
X8439229Y-14460222D01*
X8439229Y-14460222D02*
X8448753Y-14479269D01*
X8448753Y-14479269D02*
X8448753Y-14526888D01*
X8448753Y-14526888D02*
X8439229Y-14545936D01*
X8439229Y-14545936D02*
X8429705Y-14555460D01*
X8429705Y-14555460D02*
X8410658Y-14564984D01*
X8410658Y-14564984D02*
X8363039Y-14564984D01*
X8363039Y-14564984D02*
X8343991Y-14555460D01*
X8343991Y-14555460D02*
X8334467Y-14545936D01*
X8629705Y-14364984D02*
X8534467Y-14364984D01*
X8534467Y-14364984D02*
X8524944Y-14460222D01*
X8524944Y-14460222D02*
X8534467Y-14450698D01*
X8534467Y-14450698D02*
X8553515Y-14441174D01*
X8553515Y-14441174D02*
X8601134Y-14441174D01*
X8601134Y-14441174D02*
X8620182Y-14450698D01*
X8620182Y-14450698D02*
X8629705Y-14460222D01*
X8629705Y-14460222D02*
X8639229Y-14479269D01*
X8639229Y-14479269D02*
X8639229Y-14526888D01*
X8639229Y-14526888D02*
X8629705Y-14545936D01*
X8629705Y-14545936D02*
X8620182Y-14555460D01*
X8620182Y-14555460D02*
X8601134Y-14564984D01*
X8601134Y-14564984D02*
X8553515Y-14564984D01*
X8553515Y-14564984D02*
X8534467Y-14555460D01*
X8534467Y-14555460D02*
X8524944Y-14545936D01*
X8763039Y-14364984D02*
X8782086Y-14364984D01*
X8782086Y-14364984D02*
X8801134Y-14374508D01*
X8801134Y-14374508D02*
X8810658Y-14384031D01*
X8810658Y-14384031D02*
X8820182Y-14403079D01*
X8820182Y-14403079D02*
X8829705Y-14441174D01*
X8829705Y-14441174D02*
X8829705Y-14488793D01*
X8829705Y-14488793D02*
X8820182Y-14526888D01*
X8820182Y-14526888D02*
X8810658Y-14545936D01*
X8810658Y-14545936D02*
X8801134Y-14555460D01*
X8801134Y-14555460D02*
X8782086Y-14564984D01*
X8782086Y-14564984D02*
X8763039Y-14564984D01*
X8763039Y-14564984D02*
X8743991Y-14555460D01*
X8743991Y-14555460D02*
X8734467Y-14545936D01*
X8734467Y-14545936D02*
X8724944Y-14526888D01*
X8724944Y-14526888D02*
X8715420Y-14488793D01*
X8715420Y-14488793D02*
X8715420Y-14441174D01*
X8715420Y-14441174D02*
X8724944Y-14403079D01*
X8724944Y-14403079D02*
X8734467Y-14384031D01*
X8734467Y-14384031D02*
X8743991Y-14374508D01*
X8743991Y-14374508D02*
X8763039Y-14364984D01*
X8915420Y-14564984D02*
X8915420Y-14431650D01*
X8915420Y-14450698D02*
X8924944Y-14441174D01*
X8924944Y-14441174D02*
X8943991Y-14431650D01*
X8943991Y-14431650D02*
X8972563Y-14431650D01*
X8972563Y-14431650D02*
X8991610Y-14441174D01*
X8991610Y-14441174D02*
X9001134Y-14460222D01*
X9001134Y-14460222D02*
X9001134Y-14564984D01*
X9001134Y-14460222D02*
X9010658Y-14441174D01*
X9010658Y-14441174D02*
X9029705Y-14431650D01*
X9029705Y-14431650D02*
X9058277Y-14431650D01*
X9058277Y-14431650D02*
X9077325Y-14441174D01*
X9077325Y-14441174D02*
X9086848Y-14460222D01*
X9086848Y-14460222D02*
X9086848Y-14564984D01*
X9182086Y-14564984D02*
X9182086Y-14431650D01*
X9182086Y-14450698D02*
X9191610Y-14441174D01*
X9191610Y-14441174D02*
X9210658Y-14431650D01*
X9210658Y-14431650D02*
X9239229Y-14431650D01*
X9239229Y-14431650D02*
X9258277Y-14441174D01*
X9258277Y-14441174D02*
X9267801Y-14460222D01*
X9267801Y-14460222D02*
X9267801Y-14564984D01*
X9267801Y-14460222D02*
X9277325Y-14441174D01*
X9277325Y-14441174D02*
X9296372Y-14431650D01*
X9296372Y-14431650D02*
X9324944Y-14431650D01*
X9324944Y-14431650D02*
X9343991Y-14441174D01*
X9343991Y-14441174D02*
X9353515Y-14460222D01*
X9353515Y-14460222D02*
X9353515Y-14564984D01*
X9743991Y-14355460D02*
X9572563Y-14612603D01*
X10001134Y-14364984D02*
X10020182Y-14364984D01*
X10020182Y-14364984D02*
X10039229Y-14374508D01*
X10039229Y-14374508D02*
X10048753Y-14384031D01*
X10048753Y-14384031D02*
X10058277Y-14403079D01*
X10058277Y-14403079D02*
X10067801Y-14441174D01*
X10067801Y-14441174D02*
X10067801Y-14488793D01*
X10067801Y-14488793D02*
X10058277Y-14526888D01*
X10058277Y-14526888D02*
X10048753Y-14545936D01*
X10048753Y-14545936D02*
X10039229Y-14555460D01*
X10039229Y-14555460D02*
X10020182Y-14564984D01*
X10020182Y-14564984D02*
X10001134Y-14564984D01*
X10001134Y-14564984D02*
X9982087Y-14555460D01*
X9982087Y-14555460D02*
X9972563Y-14545936D01*
X9972563Y-14545936D02*
X9963039Y-14526888D01*
X9963039Y-14526888D02*
X9953515Y-14488793D01*
X9953515Y-14488793D02*
X9953515Y-14441174D01*
X9953515Y-14441174D02*
X9963039Y-14403079D01*
X9963039Y-14403079D02*
X9972563Y-14384031D01*
X9972563Y-14384031D02*
X9982087Y-14374508D01*
X9982087Y-14374508D02*
X10001134Y-14364984D01*
X10153515Y-14545936D02*
X10163039Y-14555460D01*
X10163039Y-14555460D02*
X10153515Y-14564984D01*
X10153515Y-14564984D02*
X10143991Y-14555460D01*
X10143991Y-14555460D02*
X10153515Y-14545936D01*
X10153515Y-14545936D02*
X10153515Y-14564984D01*
X10286848Y-14364984D02*
X10305896Y-14364984D01*
X10305896Y-14364984D02*
X10324944Y-14374508D01*
X10324944Y-14374508D02*
X10334468Y-14384031D01*
X10334468Y-14384031D02*
X10343991Y-14403079D01*
X10343991Y-14403079D02*
X10353515Y-14441174D01*
X10353515Y-14441174D02*
X10353515Y-14488793D01*
X10353515Y-14488793D02*
X10343991Y-14526888D01*
X10343991Y-14526888D02*
X10334468Y-14545936D01*
X10334468Y-14545936D02*
X10324944Y-14555460D01*
X10324944Y-14555460D02*
X10305896Y-14564984D01*
X10305896Y-14564984D02*
X10286848Y-14564984D01*
X10286848Y-14564984D02*
X10267801Y-14555460D01*
X10267801Y-14555460D02*
X10258277Y-14545936D01*
X10258277Y-14545936D02*
X10248753Y-14526888D01*
X10248753Y-14526888D02*
X10239229Y-14488793D01*
X10239229Y-14488793D02*
X10239229Y-14441174D01*
X10239229Y-14441174D02*
X10248753Y-14403079D01*
X10248753Y-14403079D02*
X10258277Y-14384031D01*
X10258277Y-14384031D02*
X10267801Y-14374508D01*
X10267801Y-14374508D02*
X10286848Y-14364984D01*
X10429706Y-14384031D02*
X10439229Y-14374508D01*
X10439229Y-14374508D02*
X10458277Y-14364984D01*
X10458277Y-14364984D02*
X10505896Y-14364984D01*
X10505896Y-14364984D02*
X10524944Y-14374508D01*
X10524944Y-14374508D02*
X10534468Y-14384031D01*
X10534468Y-14384031D02*
X10543991Y-14403079D01*
X10543991Y-14403079D02*
X10543991Y-14422127D01*
X10543991Y-14422127D02*
X10534468Y-14450698D01*
X10534468Y-14450698D02*
X10420182Y-14564984D01*
X10420182Y-14564984D02*
X10543991Y-14564984D01*
X10734468Y-14564984D02*
X10620182Y-14564984D01*
X10677325Y-14564984D02*
X10677325Y-14364984D01*
X10677325Y-14364984D02*
X10658277Y-14393555D01*
X10658277Y-14393555D02*
X10639229Y-14412603D01*
X10639229Y-14412603D02*
X10620182Y-14422127D01*
X10801134Y-14364984D02*
X10934468Y-14364984D01*
X10934468Y-14364984D02*
X10848753Y-14564984D01*
X11001134Y-14364984D02*
X11001134Y-14403079D01*
X11077325Y-14364984D02*
X11077325Y-14403079D01*
X11372563Y-14641174D02*
X11363039Y-14631650D01*
X11363039Y-14631650D02*
X11343991Y-14603079D01*
X11343991Y-14603079D02*
X11334468Y-14584031D01*
X11334468Y-14584031D02*
X11324944Y-14555460D01*
X11324944Y-14555460D02*
X11315420Y-14507841D01*
X11315420Y-14507841D02*
X11315420Y-14469746D01*
X11315420Y-14469746D02*
X11324944Y-14422127D01*
X11324944Y-14422127D02*
X11334468Y-14393555D01*
X11334468Y-14393555D02*
X11343991Y-14374508D01*
X11343991Y-14374508D02*
X11363039Y-14345936D01*
X11363039Y-14345936D02*
X11372563Y-14336412D01*
X11486848Y-14364984D02*
X11505896Y-14364984D01*
X11505896Y-14364984D02*
X11524944Y-14374508D01*
X11524944Y-14374508D02*
X11534468Y-14384031D01*
X11534468Y-14384031D02*
X11543991Y-14403079D01*
X11543991Y-14403079D02*
X11553515Y-14441174D01*
X11553515Y-14441174D02*
X11553515Y-14488793D01*
X11553515Y-14488793D02*
X11543991Y-14526888D01*
X11543991Y-14526888D02*
X11534468Y-14545936D01*
X11534468Y-14545936D02*
X11524944Y-14555460D01*
X11524944Y-14555460D02*
X11505896Y-14564984D01*
X11505896Y-14564984D02*
X11486848Y-14564984D01*
X11486848Y-14564984D02*
X11467801Y-14555460D01*
X11467801Y-14555460D02*
X11458277Y-14545936D01*
X11458277Y-14545936D02*
X11448753Y-14526888D01*
X11448753Y-14526888D02*
X11439229Y-14488793D01*
X11439229Y-14488793D02*
X11439229Y-14441174D01*
X11439229Y-14441174D02*
X11448753Y-14403079D01*
X11448753Y-14403079D02*
X11458277Y-14384031D01*
X11458277Y-14384031D02*
X11467801Y-14374508D01*
X11467801Y-14374508D02*
X11486848Y-14364984D01*
X11791610Y-14564984D02*
X11791610Y-14364984D01*
X11877325Y-14564984D02*
X11877325Y-14460222D01*
X11877325Y-14460222D02*
X11867801Y-14441174D01*
X11867801Y-14441174D02*
X11848753Y-14431650D01*
X11848753Y-14431650D02*
X11820182Y-14431650D01*
X11820182Y-14431650D02*
X11801134Y-14441174D01*
X11801134Y-14441174D02*
X11791610Y-14450698D01*
X12001134Y-14564984D02*
X11982087Y-14555460D01*
X11982087Y-14555460D02*
X11972563Y-14545936D01*
X11972563Y-14545936D02*
X11963039Y-14526888D01*
X11963039Y-14526888D02*
X11963039Y-14469746D01*
X11963039Y-14469746D02*
X11972563Y-14450698D01*
X11972563Y-14450698D02*
X11982087Y-14441174D01*
X11982087Y-14441174D02*
X12001134Y-14431650D01*
X12001134Y-14431650D02*
X12029706Y-14431650D01*
X12029706Y-14431650D02*
X12048753Y-14441174D01*
X12048753Y-14441174D02*
X12058277Y-14450698D01*
X12058277Y-14450698D02*
X12067801Y-14469746D01*
X12067801Y-14469746D02*
X12067801Y-14526888D01*
X12067801Y-14526888D02*
X12058277Y-14545936D01*
X12058277Y-14545936D02*
X12048753Y-14555460D01*
X12048753Y-14555460D02*
X12029706Y-14564984D01*
X12029706Y-14564984D02*
X12001134Y-14564984D01*
X12182087Y-14564984D02*
X12163039Y-14555460D01*
X12163039Y-14555460D02*
X12153515Y-14536412D01*
X12153515Y-14536412D02*
X12153515Y-14364984D01*
X12334468Y-14555460D02*
X12315420Y-14564984D01*
X12315420Y-14564984D02*
X12277325Y-14564984D01*
X12277325Y-14564984D02*
X12258277Y-14555460D01*
X12258277Y-14555460D02*
X12248753Y-14536412D01*
X12248753Y-14536412D02*
X12248753Y-14460222D01*
X12248753Y-14460222D02*
X12258277Y-14441174D01*
X12258277Y-14441174D02*
X12277325Y-14431650D01*
X12277325Y-14431650D02*
X12315420Y-14431650D01*
X12315420Y-14431650D02*
X12334468Y-14441174D01*
X12334468Y-14441174D02*
X12343991Y-14460222D01*
X12343991Y-14460222D02*
X12343991Y-14479269D01*
X12343991Y-14479269D02*
X12248753Y-14498317D01*
X12420182Y-14555460D02*
X12439230Y-14564984D01*
X12439230Y-14564984D02*
X12477325Y-14564984D01*
X12477325Y-14564984D02*
X12496372Y-14555460D01*
X12496372Y-14555460D02*
X12505896Y-14536412D01*
X12505896Y-14536412D02*
X12505896Y-14526888D01*
X12505896Y-14526888D02*
X12496372Y-14507841D01*
X12496372Y-14507841D02*
X12477325Y-14498317D01*
X12477325Y-14498317D02*
X12448753Y-14498317D01*
X12448753Y-14498317D02*
X12429706Y-14488793D01*
X12429706Y-14488793D02*
X12420182Y-14469746D01*
X12420182Y-14469746D02*
X12420182Y-14460222D01*
X12420182Y-14460222D02*
X12429706Y-14441174D01*
X12429706Y-14441174D02*
X12448753Y-14431650D01*
X12448753Y-14431650D02*
X12477325Y-14431650D01*
X12477325Y-14431650D02*
X12496372Y-14441174D01*
X12743992Y-14488793D02*
X12896373Y-14488793D01*
X12820182Y-14564984D02*
X12820182Y-14412603D01*
X13134468Y-14384031D02*
X13143992Y-14374508D01*
X13143992Y-14374508D02*
X13163039Y-14364984D01*
X13163039Y-14364984D02*
X13210658Y-14364984D01*
X13210658Y-14364984D02*
X13229706Y-14374508D01*
X13229706Y-14374508D02*
X13239230Y-14384031D01*
X13239230Y-14384031D02*
X13248753Y-14403079D01*
X13248753Y-14403079D02*
X13248753Y-14422127D01*
X13248753Y-14422127D02*
X13239230Y-14450698D01*
X13239230Y-14450698D02*
X13124944Y-14564984D01*
X13124944Y-14564984D02*
X13248753Y-14564984D01*
X13477325Y-14555460D02*
X13496373Y-14564984D01*
X13496373Y-14564984D02*
X13534468Y-14564984D01*
X13534468Y-14564984D02*
X13553515Y-14555460D01*
X13553515Y-14555460D02*
X13563039Y-14536412D01*
X13563039Y-14536412D02*
X13563039Y-14526888D01*
X13563039Y-14526888D02*
X13553515Y-14507841D01*
X13553515Y-14507841D02*
X13534468Y-14498317D01*
X13534468Y-14498317D02*
X13505896Y-14498317D01*
X13505896Y-14498317D02*
X13486849Y-14488793D01*
X13486849Y-14488793D02*
X13477325Y-14469746D01*
X13477325Y-14469746D02*
X13477325Y-14460222D01*
X13477325Y-14460222D02*
X13486849Y-14441174D01*
X13486849Y-14441174D02*
X13505896Y-14431650D01*
X13505896Y-14431650D02*
X13534468Y-14431650D01*
X13534468Y-14431650D02*
X13553515Y-14441174D01*
X13677325Y-14564984D02*
X13658277Y-14555460D01*
X13658277Y-14555460D02*
X13648754Y-14536412D01*
X13648754Y-14536412D02*
X13648754Y-14364984D01*
X13782087Y-14564984D02*
X13763039Y-14555460D01*
X13763039Y-14555460D02*
X13753515Y-14545936D01*
X13753515Y-14545936D02*
X13743992Y-14526888D01*
X13743992Y-14526888D02*
X13743992Y-14469746D01*
X13743992Y-14469746D02*
X13753515Y-14450698D01*
X13753515Y-14450698D02*
X13763039Y-14441174D01*
X13763039Y-14441174D02*
X13782087Y-14431650D01*
X13782087Y-14431650D02*
X13810658Y-14431650D01*
X13810658Y-14431650D02*
X13829706Y-14441174D01*
X13829706Y-14441174D02*
X13839230Y-14450698D01*
X13839230Y-14450698D02*
X13848754Y-14469746D01*
X13848754Y-14469746D02*
X13848754Y-14526888D01*
X13848754Y-14526888D02*
X13839230Y-14545936D01*
X13839230Y-14545936D02*
X13829706Y-14555460D01*
X13829706Y-14555460D02*
X13810658Y-14564984D01*
X13810658Y-14564984D02*
X13782087Y-14564984D01*
X13905896Y-14431650D02*
X13982087Y-14431650D01*
X13934468Y-14364984D02*
X13934468Y-14536412D01*
X13934468Y-14536412D02*
X13943992Y-14555460D01*
X13943992Y-14555460D02*
X13963039Y-14564984D01*
X13963039Y-14564984D02*
X13982087Y-14564984D01*
X14039230Y-14555460D02*
X14058277Y-14564984D01*
X14058277Y-14564984D02*
X14096373Y-14564984D01*
X14096373Y-14564984D02*
X14115420Y-14555460D01*
X14115420Y-14555460D02*
X14124944Y-14536412D01*
X14124944Y-14536412D02*
X14124944Y-14526888D01*
X14124944Y-14526888D02*
X14115420Y-14507841D01*
X14115420Y-14507841D02*
X14096373Y-14498317D01*
X14096373Y-14498317D02*
X14067801Y-14498317D01*
X14067801Y-14498317D02*
X14048754Y-14488793D01*
X14048754Y-14488793D02*
X14039230Y-14469746D01*
X14039230Y-14469746D02*
X14039230Y-14460222D01*
X14039230Y-14460222D02*
X14048754Y-14441174D01*
X14048754Y-14441174D02*
X14067801Y-14431650D01*
X14067801Y-14431650D02*
X14096373Y-14431650D01*
X14096373Y-14431650D02*
X14115420Y-14441174D01*
X14191611Y-14641174D02*
X14201135Y-14631650D01*
X14201135Y-14631650D02*
X14220182Y-14603079D01*
X14220182Y-14603079D02*
X14229706Y-14584031D01*
X14229706Y-14584031D02*
X14239230Y-14555460D01*
X14239230Y-14555460D02*
X14248754Y-14507841D01*
X14248754Y-14507841D02*
X14248754Y-14469746D01*
X14248754Y-14469746D02*
X14239230Y-14422127D01*
X14239230Y-14422127D02*
X14229706Y-14393555D01*
X14229706Y-14393555D02*
X14220182Y-14374508D01*
X14220182Y-14374508D02*
X14201135Y-14345936D01*
X14201135Y-14345936D02*
X14191611Y-14336412D01*
D12*
X7717500Y-14697500D02*
X7797500Y-14777500D01*
X7797500Y-14697500D02*
X7717500Y-14777500D01*
X7797500Y-14737500D02*
G75*
G02*
X7717500Y-14737500I-40000J0D01*
G01*
X7717500Y-14737500D02*
G75*
G02*
X7797500Y-14737500I40000J0D01*
G01*
D11*
X8096372Y-14628984D02*
X8115420Y-14628984D01*
X8115420Y-14628984D02*
X8134467Y-14638508D01*
X8134467Y-14638508D02*
X8143991Y-14648031D01*
X8143991Y-14648031D02*
X8153515Y-14667079D01*
X8153515Y-14667079D02*
X8163039Y-14705174D01*
X8163039Y-14705174D02*
X8163039Y-14752793D01*
X8163039Y-14752793D02*
X8153515Y-14790888D01*
X8153515Y-14790888D02*
X8143991Y-14809936D01*
X8143991Y-14809936D02*
X8134467Y-14819460D01*
X8134467Y-14819460D02*
X8115420Y-14828984D01*
X8115420Y-14828984D02*
X8096372Y-14828984D01*
X8096372Y-14828984D02*
X8077324Y-14819460D01*
X8077324Y-14819460D02*
X8067801Y-14809936D01*
X8067801Y-14809936D02*
X8058277Y-14790888D01*
X8058277Y-14790888D02*
X8048753Y-14752793D01*
X8048753Y-14752793D02*
X8048753Y-14705174D01*
X8048753Y-14705174D02*
X8058277Y-14667079D01*
X8058277Y-14667079D02*
X8067801Y-14648031D01*
X8067801Y-14648031D02*
X8077324Y-14638508D01*
X8077324Y-14638508D02*
X8096372Y-14628984D01*
X8248753Y-14809936D02*
X8258277Y-14819460D01*
X8258277Y-14819460D02*
X8248753Y-14828984D01*
X8248753Y-14828984D02*
X8239229Y-14819460D01*
X8239229Y-14819460D02*
X8248753Y-14809936D01*
X8248753Y-14809936D02*
X8248753Y-14828984D01*
X8372562Y-14714698D02*
X8353515Y-14705174D01*
X8353515Y-14705174D02*
X8343991Y-14695650D01*
X8343991Y-14695650D02*
X8334467Y-14676603D01*
X8334467Y-14676603D02*
X8334467Y-14667079D01*
X8334467Y-14667079D02*
X8343991Y-14648031D01*
X8343991Y-14648031D02*
X8353515Y-14638508D01*
X8353515Y-14638508D02*
X8372562Y-14628984D01*
X8372562Y-14628984D02*
X8410658Y-14628984D01*
X8410658Y-14628984D02*
X8429705Y-14638508D01*
X8429705Y-14638508D02*
X8439229Y-14648031D01*
X8439229Y-14648031D02*
X8448753Y-14667079D01*
X8448753Y-14667079D02*
X8448753Y-14676603D01*
X8448753Y-14676603D02*
X8439229Y-14695650D01*
X8439229Y-14695650D02*
X8429705Y-14705174D01*
X8429705Y-14705174D02*
X8410658Y-14714698D01*
X8410658Y-14714698D02*
X8372562Y-14714698D01*
X8372562Y-14714698D02*
X8353515Y-14724222D01*
X8353515Y-14724222D02*
X8343991Y-14733746D01*
X8343991Y-14733746D02*
X8334467Y-14752793D01*
X8334467Y-14752793D02*
X8334467Y-14790888D01*
X8334467Y-14790888D02*
X8343991Y-14809936D01*
X8343991Y-14809936D02*
X8353515Y-14819460D01*
X8353515Y-14819460D02*
X8372562Y-14828984D01*
X8372562Y-14828984D02*
X8410658Y-14828984D01*
X8410658Y-14828984D02*
X8429705Y-14819460D01*
X8429705Y-14819460D02*
X8439229Y-14809936D01*
X8439229Y-14809936D02*
X8448753Y-14790888D01*
X8448753Y-14790888D02*
X8448753Y-14752793D01*
X8448753Y-14752793D02*
X8439229Y-14733746D01*
X8439229Y-14733746D02*
X8429705Y-14724222D01*
X8429705Y-14724222D02*
X8410658Y-14714698D01*
X8572563Y-14628984D02*
X8591610Y-14628984D01*
X8591610Y-14628984D02*
X8610658Y-14638508D01*
X8610658Y-14638508D02*
X8620182Y-14648031D01*
X8620182Y-14648031D02*
X8629705Y-14667079D01*
X8629705Y-14667079D02*
X8639229Y-14705174D01*
X8639229Y-14705174D02*
X8639229Y-14752793D01*
X8639229Y-14752793D02*
X8629705Y-14790888D01*
X8629705Y-14790888D02*
X8620182Y-14809936D01*
X8620182Y-14809936D02*
X8610658Y-14819460D01*
X8610658Y-14819460D02*
X8591610Y-14828984D01*
X8591610Y-14828984D02*
X8572563Y-14828984D01*
X8572563Y-14828984D02*
X8553515Y-14819460D01*
X8553515Y-14819460D02*
X8543991Y-14809936D01*
X8543991Y-14809936D02*
X8534467Y-14790888D01*
X8534467Y-14790888D02*
X8524944Y-14752793D01*
X8524944Y-14752793D02*
X8524944Y-14705174D01*
X8524944Y-14705174D02*
X8534467Y-14667079D01*
X8534467Y-14667079D02*
X8543991Y-14648031D01*
X8543991Y-14648031D02*
X8553515Y-14638508D01*
X8553515Y-14638508D02*
X8572563Y-14628984D01*
X8763039Y-14628984D02*
X8782086Y-14628984D01*
X8782086Y-14628984D02*
X8801134Y-14638508D01*
X8801134Y-14638508D02*
X8810658Y-14648031D01*
X8810658Y-14648031D02*
X8820182Y-14667079D01*
X8820182Y-14667079D02*
X8829705Y-14705174D01*
X8829705Y-14705174D02*
X8829705Y-14752793D01*
X8829705Y-14752793D02*
X8820182Y-14790888D01*
X8820182Y-14790888D02*
X8810658Y-14809936D01*
X8810658Y-14809936D02*
X8801134Y-14819460D01*
X8801134Y-14819460D02*
X8782086Y-14828984D01*
X8782086Y-14828984D02*
X8763039Y-14828984D01*
X8763039Y-14828984D02*
X8743991Y-14819460D01*
X8743991Y-14819460D02*
X8734467Y-14809936D01*
X8734467Y-14809936D02*
X8724944Y-14790888D01*
X8724944Y-14790888D02*
X8715420Y-14752793D01*
X8715420Y-14752793D02*
X8715420Y-14705174D01*
X8715420Y-14705174D02*
X8724944Y-14667079D01*
X8724944Y-14667079D02*
X8734467Y-14648031D01*
X8734467Y-14648031D02*
X8743991Y-14638508D01*
X8743991Y-14638508D02*
X8763039Y-14628984D01*
X8915420Y-14828984D02*
X8915420Y-14695650D01*
X8915420Y-14714698D02*
X8924944Y-14705174D01*
X8924944Y-14705174D02*
X8943991Y-14695650D01*
X8943991Y-14695650D02*
X8972563Y-14695650D01*
X8972563Y-14695650D02*
X8991610Y-14705174D01*
X8991610Y-14705174D02*
X9001134Y-14724222D01*
X9001134Y-14724222D02*
X9001134Y-14828984D01*
X9001134Y-14724222D02*
X9010658Y-14705174D01*
X9010658Y-14705174D02*
X9029705Y-14695650D01*
X9029705Y-14695650D02*
X9058277Y-14695650D01*
X9058277Y-14695650D02*
X9077325Y-14705174D01*
X9077325Y-14705174D02*
X9086848Y-14724222D01*
X9086848Y-14724222D02*
X9086848Y-14828984D01*
X9182086Y-14828984D02*
X9182086Y-14695650D01*
X9182086Y-14714698D02*
X9191610Y-14705174D01*
X9191610Y-14705174D02*
X9210658Y-14695650D01*
X9210658Y-14695650D02*
X9239229Y-14695650D01*
X9239229Y-14695650D02*
X9258277Y-14705174D01*
X9258277Y-14705174D02*
X9267801Y-14724222D01*
X9267801Y-14724222D02*
X9267801Y-14828984D01*
X9267801Y-14724222D02*
X9277325Y-14705174D01*
X9277325Y-14705174D02*
X9296372Y-14695650D01*
X9296372Y-14695650D02*
X9324944Y-14695650D01*
X9324944Y-14695650D02*
X9343991Y-14705174D01*
X9343991Y-14705174D02*
X9353515Y-14724222D01*
X9353515Y-14724222D02*
X9353515Y-14828984D01*
X9743991Y-14619460D02*
X9572563Y-14876603D01*
X10001134Y-14628984D02*
X10020182Y-14628984D01*
X10020182Y-14628984D02*
X10039229Y-14638508D01*
X10039229Y-14638508D02*
X10048753Y-14648031D01*
X10048753Y-14648031D02*
X10058277Y-14667079D01*
X10058277Y-14667079D02*
X10067801Y-14705174D01*
X10067801Y-14705174D02*
X10067801Y-14752793D01*
X10067801Y-14752793D02*
X10058277Y-14790888D01*
X10058277Y-14790888D02*
X10048753Y-14809936D01*
X10048753Y-14809936D02*
X10039229Y-14819460D01*
X10039229Y-14819460D02*
X10020182Y-14828984D01*
X10020182Y-14828984D02*
X10001134Y-14828984D01*
X10001134Y-14828984D02*
X9982087Y-14819460D01*
X9982087Y-14819460D02*
X9972563Y-14809936D01*
X9972563Y-14809936D02*
X9963039Y-14790888D01*
X9963039Y-14790888D02*
X9953515Y-14752793D01*
X9953515Y-14752793D02*
X9953515Y-14705174D01*
X9953515Y-14705174D02*
X9963039Y-14667079D01*
X9963039Y-14667079D02*
X9972563Y-14648031D01*
X9972563Y-14648031D02*
X9982087Y-14638508D01*
X9982087Y-14638508D02*
X10001134Y-14628984D01*
X10153515Y-14809936D02*
X10163039Y-14819460D01*
X10163039Y-14819460D02*
X10153515Y-14828984D01*
X10153515Y-14828984D02*
X10143991Y-14819460D01*
X10143991Y-14819460D02*
X10153515Y-14809936D01*
X10153515Y-14809936D02*
X10153515Y-14828984D01*
X10286848Y-14628984D02*
X10305896Y-14628984D01*
X10305896Y-14628984D02*
X10324944Y-14638508D01*
X10324944Y-14638508D02*
X10334468Y-14648031D01*
X10334468Y-14648031D02*
X10343991Y-14667079D01*
X10343991Y-14667079D02*
X10353515Y-14705174D01*
X10353515Y-14705174D02*
X10353515Y-14752793D01*
X10353515Y-14752793D02*
X10343991Y-14790888D01*
X10343991Y-14790888D02*
X10334468Y-14809936D01*
X10334468Y-14809936D02*
X10324944Y-14819460D01*
X10324944Y-14819460D02*
X10305896Y-14828984D01*
X10305896Y-14828984D02*
X10286848Y-14828984D01*
X10286848Y-14828984D02*
X10267801Y-14819460D01*
X10267801Y-14819460D02*
X10258277Y-14809936D01*
X10258277Y-14809936D02*
X10248753Y-14790888D01*
X10248753Y-14790888D02*
X10239229Y-14752793D01*
X10239229Y-14752793D02*
X10239229Y-14705174D01*
X10239229Y-14705174D02*
X10248753Y-14667079D01*
X10248753Y-14667079D02*
X10258277Y-14648031D01*
X10258277Y-14648031D02*
X10267801Y-14638508D01*
X10267801Y-14638508D02*
X10286848Y-14628984D01*
X10420182Y-14628984D02*
X10543991Y-14628984D01*
X10543991Y-14628984D02*
X10477325Y-14705174D01*
X10477325Y-14705174D02*
X10505896Y-14705174D01*
X10505896Y-14705174D02*
X10524944Y-14714698D01*
X10524944Y-14714698D02*
X10534468Y-14724222D01*
X10534468Y-14724222D02*
X10543991Y-14743269D01*
X10543991Y-14743269D02*
X10543991Y-14790888D01*
X10543991Y-14790888D02*
X10534468Y-14809936D01*
X10534468Y-14809936D02*
X10524944Y-14819460D01*
X10524944Y-14819460D02*
X10505896Y-14828984D01*
X10505896Y-14828984D02*
X10448753Y-14828984D01*
X10448753Y-14828984D02*
X10429706Y-14819460D01*
X10429706Y-14819460D02*
X10420182Y-14809936D01*
X10734468Y-14828984D02*
X10620182Y-14828984D01*
X10677325Y-14828984D02*
X10677325Y-14628984D01*
X10677325Y-14628984D02*
X10658277Y-14657555D01*
X10658277Y-14657555D02*
X10639229Y-14676603D01*
X10639229Y-14676603D02*
X10620182Y-14686127D01*
X10915420Y-14628984D02*
X10820182Y-14628984D01*
X10820182Y-14628984D02*
X10810658Y-14724222D01*
X10810658Y-14724222D02*
X10820182Y-14714698D01*
X10820182Y-14714698D02*
X10839229Y-14705174D01*
X10839229Y-14705174D02*
X10886849Y-14705174D01*
X10886849Y-14705174D02*
X10905896Y-14714698D01*
X10905896Y-14714698D02*
X10915420Y-14724222D01*
X10915420Y-14724222D02*
X10924944Y-14743269D01*
X10924944Y-14743269D02*
X10924944Y-14790888D01*
X10924944Y-14790888D02*
X10915420Y-14809936D01*
X10915420Y-14809936D02*
X10905896Y-14819460D01*
X10905896Y-14819460D02*
X10886849Y-14828984D01*
X10886849Y-14828984D02*
X10839229Y-14828984D01*
X10839229Y-14828984D02*
X10820182Y-14819460D01*
X10820182Y-14819460D02*
X10810658Y-14809936D01*
X11001134Y-14628984D02*
X11001134Y-14667079D01*
X11077325Y-14628984D02*
X11077325Y-14667079D01*
X11372563Y-14905174D02*
X11363039Y-14895650D01*
X11363039Y-14895650D02*
X11343991Y-14867079D01*
X11343991Y-14867079D02*
X11334468Y-14848031D01*
X11334468Y-14848031D02*
X11324944Y-14819460D01*
X11324944Y-14819460D02*
X11315420Y-14771841D01*
X11315420Y-14771841D02*
X11315420Y-14733746D01*
X11315420Y-14733746D02*
X11324944Y-14686127D01*
X11324944Y-14686127D02*
X11334468Y-14657555D01*
X11334468Y-14657555D02*
X11343991Y-14638508D01*
X11343991Y-14638508D02*
X11363039Y-14609936D01*
X11363039Y-14609936D02*
X11372563Y-14600412D01*
X11439229Y-14648031D02*
X11448753Y-14638508D01*
X11448753Y-14638508D02*
X11467801Y-14628984D01*
X11467801Y-14628984D02*
X11515420Y-14628984D01*
X11515420Y-14628984D02*
X11534468Y-14638508D01*
X11534468Y-14638508D02*
X11543991Y-14648031D01*
X11543991Y-14648031D02*
X11553515Y-14667079D01*
X11553515Y-14667079D02*
X11553515Y-14686127D01*
X11553515Y-14686127D02*
X11543991Y-14714698D01*
X11543991Y-14714698D02*
X11429706Y-14828984D01*
X11429706Y-14828984D02*
X11553515Y-14828984D01*
X11791610Y-14828984D02*
X11791610Y-14628984D01*
X11877325Y-14828984D02*
X11877325Y-14724222D01*
X11877325Y-14724222D02*
X11867801Y-14705174D01*
X11867801Y-14705174D02*
X11848753Y-14695650D01*
X11848753Y-14695650D02*
X11820182Y-14695650D01*
X11820182Y-14695650D02*
X11801134Y-14705174D01*
X11801134Y-14705174D02*
X11791610Y-14714698D01*
X12001134Y-14828984D02*
X11982087Y-14819460D01*
X11982087Y-14819460D02*
X11972563Y-14809936D01*
X11972563Y-14809936D02*
X11963039Y-14790888D01*
X11963039Y-14790888D02*
X11963039Y-14733746D01*
X11963039Y-14733746D02*
X11972563Y-14714698D01*
X11972563Y-14714698D02*
X11982087Y-14705174D01*
X11982087Y-14705174D02*
X12001134Y-14695650D01*
X12001134Y-14695650D02*
X12029706Y-14695650D01*
X12029706Y-14695650D02*
X12048753Y-14705174D01*
X12048753Y-14705174D02*
X12058277Y-14714698D01*
X12058277Y-14714698D02*
X12067801Y-14733746D01*
X12067801Y-14733746D02*
X12067801Y-14790888D01*
X12067801Y-14790888D02*
X12058277Y-14809936D01*
X12058277Y-14809936D02*
X12048753Y-14819460D01*
X12048753Y-14819460D02*
X12029706Y-14828984D01*
X12029706Y-14828984D02*
X12001134Y-14828984D01*
X12182087Y-14828984D02*
X12163039Y-14819460D01*
X12163039Y-14819460D02*
X12153515Y-14800412D01*
X12153515Y-14800412D02*
X12153515Y-14628984D01*
X12334468Y-14819460D02*
X12315420Y-14828984D01*
X12315420Y-14828984D02*
X12277325Y-14828984D01*
X12277325Y-14828984D02*
X12258277Y-14819460D01*
X12258277Y-14819460D02*
X12248753Y-14800412D01*
X12248753Y-14800412D02*
X12248753Y-14724222D01*
X12248753Y-14724222D02*
X12258277Y-14705174D01*
X12258277Y-14705174D02*
X12277325Y-14695650D01*
X12277325Y-14695650D02*
X12315420Y-14695650D01*
X12315420Y-14695650D02*
X12334468Y-14705174D01*
X12334468Y-14705174D02*
X12343991Y-14724222D01*
X12343991Y-14724222D02*
X12343991Y-14743269D01*
X12343991Y-14743269D02*
X12248753Y-14762317D01*
X12420182Y-14819460D02*
X12439230Y-14828984D01*
X12439230Y-14828984D02*
X12477325Y-14828984D01*
X12477325Y-14828984D02*
X12496372Y-14819460D01*
X12496372Y-14819460D02*
X12505896Y-14800412D01*
X12505896Y-14800412D02*
X12505896Y-14790888D01*
X12505896Y-14790888D02*
X12496372Y-14771841D01*
X12496372Y-14771841D02*
X12477325Y-14762317D01*
X12477325Y-14762317D02*
X12448753Y-14762317D01*
X12448753Y-14762317D02*
X12429706Y-14752793D01*
X12429706Y-14752793D02*
X12420182Y-14733746D01*
X12420182Y-14733746D02*
X12420182Y-14724222D01*
X12420182Y-14724222D02*
X12429706Y-14705174D01*
X12429706Y-14705174D02*
X12448753Y-14695650D01*
X12448753Y-14695650D02*
X12477325Y-14695650D01*
X12477325Y-14695650D02*
X12496372Y-14705174D01*
X12572563Y-14905174D02*
X12582087Y-14895650D01*
X12582087Y-14895650D02*
X12601134Y-14867079D01*
X12601134Y-14867079D02*
X12610658Y-14848031D01*
X12610658Y-14848031D02*
X12620182Y-14819460D01*
X12620182Y-14819460D02*
X12629706Y-14771841D01*
X12629706Y-14771841D02*
X12629706Y-14733746D01*
X12629706Y-14733746D02*
X12620182Y-14686127D01*
X12620182Y-14686127D02*
X12610658Y-14657555D01*
X12610658Y-14657555D02*
X12601134Y-14638508D01*
X12601134Y-14638508D02*
X12582087Y-14609936D01*
X12582087Y-14609936D02*
X12572563Y-14600412D01*
D12*
X7708600Y-14957050D02*
X7797500Y-15045950D01*
X7797500Y-14957050D02*
X7708600Y-15045950D01*
X7753050Y-14957050D02*
X7753050Y-15045950D01*
X7708600Y-15001500D02*
X7797500Y-15001500D01*
D11*
X8096372Y-14892984D02*
X8115420Y-14892984D01*
X8115420Y-14892984D02*
X8134467Y-14902508D01*
X8134467Y-14902508D02*
X8143991Y-14912031D01*
X8143991Y-14912031D02*
X8153515Y-14931079D01*
X8153515Y-14931079D02*
X8163039Y-14969174D01*
X8163039Y-14969174D02*
X8163039Y-15016793D01*
X8163039Y-15016793D02*
X8153515Y-15054888D01*
X8153515Y-15054888D02*
X8143991Y-15073936D01*
X8143991Y-15073936D02*
X8134467Y-15083460D01*
X8134467Y-15083460D02*
X8115420Y-15092984D01*
X8115420Y-15092984D02*
X8096372Y-15092984D01*
X8096372Y-15092984D02*
X8077324Y-15083460D01*
X8077324Y-15083460D02*
X8067801Y-15073936D01*
X8067801Y-15073936D02*
X8058277Y-15054888D01*
X8058277Y-15054888D02*
X8048753Y-15016793D01*
X8048753Y-15016793D02*
X8048753Y-14969174D01*
X8048753Y-14969174D02*
X8058277Y-14931079D01*
X8058277Y-14931079D02*
X8067801Y-14912031D01*
X8067801Y-14912031D02*
X8077324Y-14902508D01*
X8077324Y-14902508D02*
X8096372Y-14892984D01*
X8248753Y-15073936D02*
X8258277Y-15083460D01*
X8258277Y-15083460D02*
X8248753Y-15092984D01*
X8248753Y-15092984D02*
X8239229Y-15083460D01*
X8239229Y-15083460D02*
X8248753Y-15073936D01*
X8248753Y-15073936D02*
X8248753Y-15092984D01*
X8372562Y-14978698D02*
X8353515Y-14969174D01*
X8353515Y-14969174D02*
X8343991Y-14959650D01*
X8343991Y-14959650D02*
X8334467Y-14940603D01*
X8334467Y-14940603D02*
X8334467Y-14931079D01*
X8334467Y-14931079D02*
X8343991Y-14912031D01*
X8343991Y-14912031D02*
X8353515Y-14902508D01*
X8353515Y-14902508D02*
X8372562Y-14892984D01*
X8372562Y-14892984D02*
X8410658Y-14892984D01*
X8410658Y-14892984D02*
X8429705Y-14902508D01*
X8429705Y-14902508D02*
X8439229Y-14912031D01*
X8439229Y-14912031D02*
X8448753Y-14931079D01*
X8448753Y-14931079D02*
X8448753Y-14940603D01*
X8448753Y-14940603D02*
X8439229Y-14959650D01*
X8439229Y-14959650D02*
X8429705Y-14969174D01*
X8429705Y-14969174D02*
X8410658Y-14978698D01*
X8410658Y-14978698D02*
X8372562Y-14978698D01*
X8372562Y-14978698D02*
X8353515Y-14988222D01*
X8353515Y-14988222D02*
X8343991Y-14997746D01*
X8343991Y-14997746D02*
X8334467Y-15016793D01*
X8334467Y-15016793D02*
X8334467Y-15054888D01*
X8334467Y-15054888D02*
X8343991Y-15073936D01*
X8343991Y-15073936D02*
X8353515Y-15083460D01*
X8353515Y-15083460D02*
X8372562Y-15092984D01*
X8372562Y-15092984D02*
X8410658Y-15092984D01*
X8410658Y-15092984D02*
X8429705Y-15083460D01*
X8429705Y-15083460D02*
X8439229Y-15073936D01*
X8439229Y-15073936D02*
X8448753Y-15054888D01*
X8448753Y-15054888D02*
X8448753Y-15016793D01*
X8448753Y-15016793D02*
X8439229Y-14997746D01*
X8439229Y-14997746D02*
X8429705Y-14988222D01*
X8429705Y-14988222D02*
X8410658Y-14978698D01*
X8563039Y-14978698D02*
X8543991Y-14969174D01*
X8543991Y-14969174D02*
X8534467Y-14959650D01*
X8534467Y-14959650D02*
X8524944Y-14940603D01*
X8524944Y-14940603D02*
X8524944Y-14931079D01*
X8524944Y-14931079D02*
X8534467Y-14912031D01*
X8534467Y-14912031D02*
X8543991Y-14902508D01*
X8543991Y-14902508D02*
X8563039Y-14892984D01*
X8563039Y-14892984D02*
X8601134Y-14892984D01*
X8601134Y-14892984D02*
X8620182Y-14902508D01*
X8620182Y-14902508D02*
X8629705Y-14912031D01*
X8629705Y-14912031D02*
X8639229Y-14931079D01*
X8639229Y-14931079D02*
X8639229Y-14940603D01*
X8639229Y-14940603D02*
X8629705Y-14959650D01*
X8629705Y-14959650D02*
X8620182Y-14969174D01*
X8620182Y-14969174D02*
X8601134Y-14978698D01*
X8601134Y-14978698D02*
X8563039Y-14978698D01*
X8563039Y-14978698D02*
X8543991Y-14988222D01*
X8543991Y-14988222D02*
X8534467Y-14997746D01*
X8534467Y-14997746D02*
X8524944Y-15016793D01*
X8524944Y-15016793D02*
X8524944Y-15054888D01*
X8524944Y-15054888D02*
X8534467Y-15073936D01*
X8534467Y-15073936D02*
X8543991Y-15083460D01*
X8543991Y-15083460D02*
X8563039Y-15092984D01*
X8563039Y-15092984D02*
X8601134Y-15092984D01*
X8601134Y-15092984D02*
X8620182Y-15083460D01*
X8620182Y-15083460D02*
X8629705Y-15073936D01*
X8629705Y-15073936D02*
X8639229Y-15054888D01*
X8639229Y-15054888D02*
X8639229Y-15016793D01*
X8639229Y-15016793D02*
X8629705Y-14997746D01*
X8629705Y-14997746D02*
X8620182Y-14988222D01*
X8620182Y-14988222D02*
X8601134Y-14978698D01*
X8734467Y-15092984D02*
X8772563Y-15092984D01*
X8772563Y-15092984D02*
X8791610Y-15083460D01*
X8791610Y-15083460D02*
X8801134Y-15073936D01*
X8801134Y-15073936D02*
X8820182Y-15045365D01*
X8820182Y-15045365D02*
X8829705Y-15007269D01*
X8829705Y-15007269D02*
X8829705Y-14931079D01*
X8829705Y-14931079D02*
X8820182Y-14912031D01*
X8820182Y-14912031D02*
X8810658Y-14902508D01*
X8810658Y-14902508D02*
X8791610Y-14892984D01*
X8791610Y-14892984D02*
X8753515Y-14892984D01*
X8753515Y-14892984D02*
X8734467Y-14902508D01*
X8734467Y-14902508D02*
X8724944Y-14912031D01*
X8724944Y-14912031D02*
X8715420Y-14931079D01*
X8715420Y-14931079D02*
X8715420Y-14978698D01*
X8715420Y-14978698D02*
X8724944Y-14997746D01*
X8724944Y-14997746D02*
X8734467Y-15007269D01*
X8734467Y-15007269D02*
X8753515Y-15016793D01*
X8753515Y-15016793D02*
X8791610Y-15016793D01*
X8791610Y-15016793D02*
X8810658Y-15007269D01*
X8810658Y-15007269D02*
X8820182Y-14997746D01*
X8820182Y-14997746D02*
X8829705Y-14978698D01*
X8915420Y-15092984D02*
X8915420Y-14959650D01*
X8915420Y-14978698D02*
X8924944Y-14969174D01*
X8924944Y-14969174D02*
X8943991Y-14959650D01*
X8943991Y-14959650D02*
X8972563Y-14959650D01*
X8972563Y-14959650D02*
X8991610Y-14969174D01*
X8991610Y-14969174D02*
X9001134Y-14988222D01*
X9001134Y-14988222D02*
X9001134Y-15092984D01*
X9001134Y-14988222D02*
X9010658Y-14969174D01*
X9010658Y-14969174D02*
X9029705Y-14959650D01*
X9029705Y-14959650D02*
X9058277Y-14959650D01*
X9058277Y-14959650D02*
X9077325Y-14969174D01*
X9077325Y-14969174D02*
X9086848Y-14988222D01*
X9086848Y-14988222D02*
X9086848Y-15092984D01*
X9182086Y-15092984D02*
X9182086Y-14959650D01*
X9182086Y-14978698D02*
X9191610Y-14969174D01*
X9191610Y-14969174D02*
X9210658Y-14959650D01*
X9210658Y-14959650D02*
X9239229Y-14959650D01*
X9239229Y-14959650D02*
X9258277Y-14969174D01*
X9258277Y-14969174D02*
X9267801Y-14988222D01*
X9267801Y-14988222D02*
X9267801Y-15092984D01*
X9267801Y-14988222D02*
X9277325Y-14969174D01*
X9277325Y-14969174D02*
X9296372Y-14959650D01*
X9296372Y-14959650D02*
X9324944Y-14959650D01*
X9324944Y-14959650D02*
X9343991Y-14969174D01*
X9343991Y-14969174D02*
X9353515Y-14988222D01*
X9353515Y-14988222D02*
X9353515Y-15092984D01*
X9743991Y-14883460D02*
X9572563Y-15140603D01*
X10001134Y-14892984D02*
X10020182Y-14892984D01*
X10020182Y-14892984D02*
X10039229Y-14902508D01*
X10039229Y-14902508D02*
X10048753Y-14912031D01*
X10048753Y-14912031D02*
X10058277Y-14931079D01*
X10058277Y-14931079D02*
X10067801Y-14969174D01*
X10067801Y-14969174D02*
X10067801Y-15016793D01*
X10067801Y-15016793D02*
X10058277Y-15054888D01*
X10058277Y-15054888D02*
X10048753Y-15073936D01*
X10048753Y-15073936D02*
X10039229Y-15083460D01*
X10039229Y-15083460D02*
X10020182Y-15092984D01*
X10020182Y-15092984D02*
X10001134Y-15092984D01*
X10001134Y-15092984D02*
X9982087Y-15083460D01*
X9982087Y-15083460D02*
X9972563Y-15073936D01*
X9972563Y-15073936D02*
X9963039Y-15054888D01*
X9963039Y-15054888D02*
X9953515Y-15016793D01*
X9953515Y-15016793D02*
X9953515Y-14969174D01*
X9953515Y-14969174D02*
X9963039Y-14931079D01*
X9963039Y-14931079D02*
X9972563Y-14912031D01*
X9972563Y-14912031D02*
X9982087Y-14902508D01*
X9982087Y-14902508D02*
X10001134Y-14892984D01*
X10153515Y-15073936D02*
X10163039Y-15083460D01*
X10163039Y-15083460D02*
X10153515Y-15092984D01*
X10153515Y-15092984D02*
X10143991Y-15083460D01*
X10143991Y-15083460D02*
X10153515Y-15073936D01*
X10153515Y-15073936D02*
X10153515Y-15092984D01*
X10286848Y-14892984D02*
X10305896Y-14892984D01*
X10305896Y-14892984D02*
X10324944Y-14902508D01*
X10324944Y-14902508D02*
X10334468Y-14912031D01*
X10334468Y-14912031D02*
X10343991Y-14931079D01*
X10343991Y-14931079D02*
X10353515Y-14969174D01*
X10353515Y-14969174D02*
X10353515Y-15016793D01*
X10353515Y-15016793D02*
X10343991Y-15054888D01*
X10343991Y-15054888D02*
X10334468Y-15073936D01*
X10334468Y-15073936D02*
X10324944Y-15083460D01*
X10324944Y-15083460D02*
X10305896Y-15092984D01*
X10305896Y-15092984D02*
X10286848Y-15092984D01*
X10286848Y-15092984D02*
X10267801Y-15083460D01*
X10267801Y-15083460D02*
X10258277Y-15073936D01*
X10258277Y-15073936D02*
X10248753Y-15054888D01*
X10248753Y-15054888D02*
X10239229Y-15016793D01*
X10239229Y-15016793D02*
X10239229Y-14969174D01*
X10239229Y-14969174D02*
X10248753Y-14931079D01*
X10248753Y-14931079D02*
X10258277Y-14912031D01*
X10258277Y-14912031D02*
X10267801Y-14902508D01*
X10267801Y-14902508D02*
X10286848Y-14892984D01*
X10420182Y-14892984D02*
X10543991Y-14892984D01*
X10543991Y-14892984D02*
X10477325Y-14969174D01*
X10477325Y-14969174D02*
X10505896Y-14969174D01*
X10505896Y-14969174D02*
X10524944Y-14978698D01*
X10524944Y-14978698D02*
X10534468Y-14988222D01*
X10534468Y-14988222D02*
X10543991Y-15007269D01*
X10543991Y-15007269D02*
X10543991Y-15054888D01*
X10543991Y-15054888D02*
X10534468Y-15073936D01*
X10534468Y-15073936D02*
X10524944Y-15083460D01*
X10524944Y-15083460D02*
X10505896Y-15092984D01*
X10505896Y-15092984D02*
X10448753Y-15092984D01*
X10448753Y-15092984D02*
X10429706Y-15083460D01*
X10429706Y-15083460D02*
X10420182Y-15073936D01*
X10724944Y-14892984D02*
X10629706Y-14892984D01*
X10629706Y-14892984D02*
X10620182Y-14988222D01*
X10620182Y-14988222D02*
X10629706Y-14978698D01*
X10629706Y-14978698D02*
X10648753Y-14969174D01*
X10648753Y-14969174D02*
X10696372Y-14969174D01*
X10696372Y-14969174D02*
X10715420Y-14978698D01*
X10715420Y-14978698D02*
X10724944Y-14988222D01*
X10724944Y-14988222D02*
X10734468Y-15007269D01*
X10734468Y-15007269D02*
X10734468Y-15054888D01*
X10734468Y-15054888D02*
X10724944Y-15073936D01*
X10724944Y-15073936D02*
X10715420Y-15083460D01*
X10715420Y-15083460D02*
X10696372Y-15092984D01*
X10696372Y-15092984D02*
X10648753Y-15092984D01*
X10648753Y-15092984D02*
X10629706Y-15083460D01*
X10629706Y-15083460D02*
X10620182Y-15073936D01*
X10858277Y-14892984D02*
X10877325Y-14892984D01*
X10877325Y-14892984D02*
X10896372Y-14902508D01*
X10896372Y-14902508D02*
X10905896Y-14912031D01*
X10905896Y-14912031D02*
X10915420Y-14931079D01*
X10915420Y-14931079D02*
X10924944Y-14969174D01*
X10924944Y-14969174D02*
X10924944Y-15016793D01*
X10924944Y-15016793D02*
X10915420Y-15054888D01*
X10915420Y-15054888D02*
X10905896Y-15073936D01*
X10905896Y-15073936D02*
X10896372Y-15083460D01*
X10896372Y-15083460D02*
X10877325Y-15092984D01*
X10877325Y-15092984D02*
X10858277Y-15092984D01*
X10858277Y-15092984D02*
X10839229Y-15083460D01*
X10839229Y-15083460D02*
X10829706Y-15073936D01*
X10829706Y-15073936D02*
X10820182Y-15054888D01*
X10820182Y-15054888D02*
X10810658Y-15016793D01*
X10810658Y-15016793D02*
X10810658Y-14969174D01*
X10810658Y-14969174D02*
X10820182Y-14931079D01*
X10820182Y-14931079D02*
X10829706Y-14912031D01*
X10829706Y-14912031D02*
X10839229Y-14902508D01*
X10839229Y-14902508D02*
X10858277Y-14892984D01*
X11001134Y-14892984D02*
X11001134Y-14931079D01*
X11077325Y-14892984D02*
X11077325Y-14931079D01*
X11372563Y-15169174D02*
X11363039Y-15159650D01*
X11363039Y-15159650D02*
X11343991Y-15131079D01*
X11343991Y-15131079D02*
X11334468Y-15112031D01*
X11334468Y-15112031D02*
X11324944Y-15083460D01*
X11324944Y-15083460D02*
X11315420Y-15035841D01*
X11315420Y-15035841D02*
X11315420Y-14997746D01*
X11315420Y-14997746D02*
X11324944Y-14950127D01*
X11324944Y-14950127D02*
X11334468Y-14921555D01*
X11334468Y-14921555D02*
X11343991Y-14902508D01*
X11343991Y-14902508D02*
X11363039Y-14873936D01*
X11363039Y-14873936D02*
X11372563Y-14864412D01*
X11534468Y-14892984D02*
X11496372Y-14892984D01*
X11496372Y-14892984D02*
X11477325Y-14902508D01*
X11477325Y-14902508D02*
X11467801Y-14912031D01*
X11467801Y-14912031D02*
X11448753Y-14940603D01*
X11448753Y-14940603D02*
X11439229Y-14978698D01*
X11439229Y-14978698D02*
X11439229Y-15054888D01*
X11439229Y-15054888D02*
X11448753Y-15073936D01*
X11448753Y-15073936D02*
X11458277Y-15083460D01*
X11458277Y-15083460D02*
X11477325Y-15092984D01*
X11477325Y-15092984D02*
X11515420Y-15092984D01*
X11515420Y-15092984D02*
X11534468Y-15083460D01*
X11534468Y-15083460D02*
X11543991Y-15073936D01*
X11543991Y-15073936D02*
X11553515Y-15054888D01*
X11553515Y-15054888D02*
X11553515Y-15007269D01*
X11553515Y-15007269D02*
X11543991Y-14988222D01*
X11543991Y-14988222D02*
X11534468Y-14978698D01*
X11534468Y-14978698D02*
X11515420Y-14969174D01*
X11515420Y-14969174D02*
X11477325Y-14969174D01*
X11477325Y-14969174D02*
X11458277Y-14978698D01*
X11458277Y-14978698D02*
X11448753Y-14988222D01*
X11448753Y-14988222D02*
X11439229Y-15007269D01*
X11791610Y-15092984D02*
X11791610Y-14892984D01*
X11877325Y-15092984D02*
X11877325Y-14988222D01*
X11877325Y-14988222D02*
X11867801Y-14969174D01*
X11867801Y-14969174D02*
X11848753Y-14959650D01*
X11848753Y-14959650D02*
X11820182Y-14959650D01*
X11820182Y-14959650D02*
X11801134Y-14969174D01*
X11801134Y-14969174D02*
X11791610Y-14978698D01*
X12001134Y-15092984D02*
X11982087Y-15083460D01*
X11982087Y-15083460D02*
X11972563Y-15073936D01*
X11972563Y-15073936D02*
X11963039Y-15054888D01*
X11963039Y-15054888D02*
X11963039Y-14997746D01*
X11963039Y-14997746D02*
X11972563Y-14978698D01*
X11972563Y-14978698D02*
X11982087Y-14969174D01*
X11982087Y-14969174D02*
X12001134Y-14959650D01*
X12001134Y-14959650D02*
X12029706Y-14959650D01*
X12029706Y-14959650D02*
X12048753Y-14969174D01*
X12048753Y-14969174D02*
X12058277Y-14978698D01*
X12058277Y-14978698D02*
X12067801Y-14997746D01*
X12067801Y-14997746D02*
X12067801Y-15054888D01*
X12067801Y-15054888D02*
X12058277Y-15073936D01*
X12058277Y-15073936D02*
X12048753Y-15083460D01*
X12048753Y-15083460D02*
X12029706Y-15092984D01*
X12029706Y-15092984D02*
X12001134Y-15092984D01*
X12182087Y-15092984D02*
X12163039Y-15083460D01*
X12163039Y-15083460D02*
X12153515Y-15064412D01*
X12153515Y-15064412D02*
X12153515Y-14892984D01*
X12334468Y-15083460D02*
X12315420Y-15092984D01*
X12315420Y-15092984D02*
X12277325Y-15092984D01*
X12277325Y-15092984D02*
X12258277Y-15083460D01*
X12258277Y-15083460D02*
X12248753Y-15064412D01*
X12248753Y-15064412D02*
X12248753Y-14988222D01*
X12248753Y-14988222D02*
X12258277Y-14969174D01*
X12258277Y-14969174D02*
X12277325Y-14959650D01*
X12277325Y-14959650D02*
X12315420Y-14959650D01*
X12315420Y-14959650D02*
X12334468Y-14969174D01*
X12334468Y-14969174D02*
X12343991Y-14988222D01*
X12343991Y-14988222D02*
X12343991Y-15007269D01*
X12343991Y-15007269D02*
X12248753Y-15026317D01*
X12420182Y-15083460D02*
X12439230Y-15092984D01*
X12439230Y-15092984D02*
X12477325Y-15092984D01*
X12477325Y-15092984D02*
X12496372Y-15083460D01*
X12496372Y-15083460D02*
X12505896Y-15064412D01*
X12505896Y-15064412D02*
X12505896Y-15054888D01*
X12505896Y-15054888D02*
X12496372Y-15035841D01*
X12496372Y-15035841D02*
X12477325Y-15026317D01*
X12477325Y-15026317D02*
X12448753Y-15026317D01*
X12448753Y-15026317D02*
X12429706Y-15016793D01*
X12429706Y-15016793D02*
X12420182Y-14997746D01*
X12420182Y-14997746D02*
X12420182Y-14988222D01*
X12420182Y-14988222D02*
X12429706Y-14969174D01*
X12429706Y-14969174D02*
X12448753Y-14959650D01*
X12448753Y-14959650D02*
X12477325Y-14959650D01*
X12477325Y-14959650D02*
X12496372Y-14969174D01*
X12572563Y-15169174D02*
X12582087Y-15159650D01*
X12582087Y-15159650D02*
X12601134Y-15131079D01*
X12601134Y-15131079D02*
X12610658Y-15112031D01*
X12610658Y-15112031D02*
X12620182Y-15083460D01*
X12620182Y-15083460D02*
X12629706Y-15035841D01*
X12629706Y-15035841D02*
X12629706Y-14997746D01*
X12629706Y-14997746D02*
X12620182Y-14950127D01*
X12620182Y-14950127D02*
X12610658Y-14921555D01*
X12610658Y-14921555D02*
X12601134Y-14902508D01*
X12601134Y-14902508D02*
X12582087Y-14873936D01*
X12582087Y-14873936D02*
X12572563Y-14864412D01*
D12*
X7707500Y-15220500D02*
X7797500Y-15310500D01*
X7797500Y-15220500D02*
X7707500Y-15310500D01*
X7784320Y-15297320D02*
X7784320Y-15233680D01*
X7720680Y-15233680D01*
X7720680Y-15297320D01*
X7784320Y-15297320D01*
D11*
X8096372Y-15156984D02*
X8115420Y-15156984D01*
X8115420Y-15156984D02*
X8134467Y-15166508D01*
X8134467Y-15166508D02*
X8143991Y-15176031D01*
X8143991Y-15176031D02*
X8153515Y-15195079D01*
X8153515Y-15195079D02*
X8163039Y-15233174D01*
X8163039Y-15233174D02*
X8163039Y-15280793D01*
X8163039Y-15280793D02*
X8153515Y-15318888D01*
X8153515Y-15318888D02*
X8143991Y-15337936D01*
X8143991Y-15337936D02*
X8134467Y-15347460D01*
X8134467Y-15347460D02*
X8115420Y-15356984D01*
X8115420Y-15356984D02*
X8096372Y-15356984D01*
X8096372Y-15356984D02*
X8077324Y-15347460D01*
X8077324Y-15347460D02*
X8067801Y-15337936D01*
X8067801Y-15337936D02*
X8058277Y-15318888D01*
X8058277Y-15318888D02*
X8048753Y-15280793D01*
X8048753Y-15280793D02*
X8048753Y-15233174D01*
X8048753Y-15233174D02*
X8058277Y-15195079D01*
X8058277Y-15195079D02*
X8067801Y-15176031D01*
X8067801Y-15176031D02*
X8077324Y-15166508D01*
X8077324Y-15166508D02*
X8096372Y-15156984D01*
X8248753Y-15337936D02*
X8258277Y-15347460D01*
X8258277Y-15347460D02*
X8248753Y-15356984D01*
X8248753Y-15356984D02*
X8239229Y-15347460D01*
X8239229Y-15347460D02*
X8248753Y-15337936D01*
X8248753Y-15337936D02*
X8248753Y-15356984D01*
X8353515Y-15356984D02*
X8391610Y-15356984D01*
X8391610Y-15356984D02*
X8410658Y-15347460D01*
X8410658Y-15347460D02*
X8420182Y-15337936D01*
X8420182Y-15337936D02*
X8439229Y-15309365D01*
X8439229Y-15309365D02*
X8448753Y-15271269D01*
X8448753Y-15271269D02*
X8448753Y-15195079D01*
X8448753Y-15195079D02*
X8439229Y-15176031D01*
X8439229Y-15176031D02*
X8429705Y-15166508D01*
X8429705Y-15166508D02*
X8410658Y-15156984D01*
X8410658Y-15156984D02*
X8372562Y-15156984D01*
X8372562Y-15156984D02*
X8353515Y-15166508D01*
X8353515Y-15166508D02*
X8343991Y-15176031D01*
X8343991Y-15176031D02*
X8334467Y-15195079D01*
X8334467Y-15195079D02*
X8334467Y-15242698D01*
X8334467Y-15242698D02*
X8343991Y-15261746D01*
X8343991Y-15261746D02*
X8353515Y-15271269D01*
X8353515Y-15271269D02*
X8372562Y-15280793D01*
X8372562Y-15280793D02*
X8410658Y-15280793D01*
X8410658Y-15280793D02*
X8429705Y-15271269D01*
X8429705Y-15271269D02*
X8439229Y-15261746D01*
X8439229Y-15261746D02*
X8448753Y-15242698D01*
X8572563Y-15156984D02*
X8591610Y-15156984D01*
X8591610Y-15156984D02*
X8610658Y-15166508D01*
X8610658Y-15166508D02*
X8620182Y-15176031D01*
X8620182Y-15176031D02*
X8629705Y-15195079D01*
X8629705Y-15195079D02*
X8639229Y-15233174D01*
X8639229Y-15233174D02*
X8639229Y-15280793D01*
X8639229Y-15280793D02*
X8629705Y-15318888D01*
X8629705Y-15318888D02*
X8620182Y-15337936D01*
X8620182Y-15337936D02*
X8610658Y-15347460D01*
X8610658Y-15347460D02*
X8591610Y-15356984D01*
X8591610Y-15356984D02*
X8572563Y-15356984D01*
X8572563Y-15356984D02*
X8553515Y-15347460D01*
X8553515Y-15347460D02*
X8543991Y-15337936D01*
X8543991Y-15337936D02*
X8534467Y-15318888D01*
X8534467Y-15318888D02*
X8524944Y-15280793D01*
X8524944Y-15280793D02*
X8524944Y-15233174D01*
X8524944Y-15233174D02*
X8534467Y-15195079D01*
X8534467Y-15195079D02*
X8543991Y-15176031D01*
X8543991Y-15176031D02*
X8553515Y-15166508D01*
X8553515Y-15166508D02*
X8572563Y-15156984D01*
X8763039Y-15156984D02*
X8782086Y-15156984D01*
X8782086Y-15156984D02*
X8801134Y-15166508D01*
X8801134Y-15166508D02*
X8810658Y-15176031D01*
X8810658Y-15176031D02*
X8820182Y-15195079D01*
X8820182Y-15195079D02*
X8829705Y-15233174D01*
X8829705Y-15233174D02*
X8829705Y-15280793D01*
X8829705Y-15280793D02*
X8820182Y-15318888D01*
X8820182Y-15318888D02*
X8810658Y-15337936D01*
X8810658Y-15337936D02*
X8801134Y-15347460D01*
X8801134Y-15347460D02*
X8782086Y-15356984D01*
X8782086Y-15356984D02*
X8763039Y-15356984D01*
X8763039Y-15356984D02*
X8743991Y-15347460D01*
X8743991Y-15347460D02*
X8734467Y-15337936D01*
X8734467Y-15337936D02*
X8724944Y-15318888D01*
X8724944Y-15318888D02*
X8715420Y-15280793D01*
X8715420Y-15280793D02*
X8715420Y-15233174D01*
X8715420Y-15233174D02*
X8724944Y-15195079D01*
X8724944Y-15195079D02*
X8734467Y-15176031D01*
X8734467Y-15176031D02*
X8743991Y-15166508D01*
X8743991Y-15166508D02*
X8763039Y-15156984D01*
X8915420Y-15356984D02*
X8915420Y-15223650D01*
X8915420Y-15242698D02*
X8924944Y-15233174D01*
X8924944Y-15233174D02*
X8943991Y-15223650D01*
X8943991Y-15223650D02*
X8972563Y-15223650D01*
X8972563Y-15223650D02*
X8991610Y-15233174D01*
X8991610Y-15233174D02*
X9001134Y-15252222D01*
X9001134Y-15252222D02*
X9001134Y-15356984D01*
X9001134Y-15252222D02*
X9010658Y-15233174D01*
X9010658Y-15233174D02*
X9029705Y-15223650D01*
X9029705Y-15223650D02*
X9058277Y-15223650D01*
X9058277Y-15223650D02*
X9077325Y-15233174D01*
X9077325Y-15233174D02*
X9086848Y-15252222D01*
X9086848Y-15252222D02*
X9086848Y-15356984D01*
X9182086Y-15356984D02*
X9182086Y-15223650D01*
X9182086Y-15242698D02*
X9191610Y-15233174D01*
X9191610Y-15233174D02*
X9210658Y-15223650D01*
X9210658Y-15223650D02*
X9239229Y-15223650D01*
X9239229Y-15223650D02*
X9258277Y-15233174D01*
X9258277Y-15233174D02*
X9267801Y-15252222D01*
X9267801Y-15252222D02*
X9267801Y-15356984D01*
X9267801Y-15252222D02*
X9277325Y-15233174D01*
X9277325Y-15233174D02*
X9296372Y-15223650D01*
X9296372Y-15223650D02*
X9324944Y-15223650D01*
X9324944Y-15223650D02*
X9343991Y-15233174D01*
X9343991Y-15233174D02*
X9353515Y-15252222D01*
X9353515Y-15252222D02*
X9353515Y-15356984D01*
X9743991Y-15147460D02*
X9572563Y-15404603D01*
X10001134Y-15156984D02*
X10020182Y-15156984D01*
X10020182Y-15156984D02*
X10039229Y-15166508D01*
X10039229Y-15166508D02*
X10048753Y-15176031D01*
X10048753Y-15176031D02*
X10058277Y-15195079D01*
X10058277Y-15195079D02*
X10067801Y-15233174D01*
X10067801Y-15233174D02*
X10067801Y-15280793D01*
X10067801Y-15280793D02*
X10058277Y-15318888D01*
X10058277Y-15318888D02*
X10048753Y-15337936D01*
X10048753Y-15337936D02*
X10039229Y-15347460D01*
X10039229Y-15347460D02*
X10020182Y-15356984D01*
X10020182Y-15356984D02*
X10001134Y-15356984D01*
X10001134Y-15356984D02*
X9982087Y-15347460D01*
X9982087Y-15347460D02*
X9972563Y-15337936D01*
X9972563Y-15337936D02*
X9963039Y-15318888D01*
X9963039Y-15318888D02*
X9953515Y-15280793D01*
X9953515Y-15280793D02*
X9953515Y-15233174D01*
X9953515Y-15233174D02*
X9963039Y-15195079D01*
X9963039Y-15195079D02*
X9972563Y-15176031D01*
X9972563Y-15176031D02*
X9982087Y-15166508D01*
X9982087Y-15166508D02*
X10001134Y-15156984D01*
X10153515Y-15337936D02*
X10163039Y-15347460D01*
X10163039Y-15347460D02*
X10153515Y-15356984D01*
X10153515Y-15356984D02*
X10143991Y-15347460D01*
X10143991Y-15347460D02*
X10153515Y-15337936D01*
X10153515Y-15337936D02*
X10153515Y-15356984D01*
X10286848Y-15156984D02*
X10305896Y-15156984D01*
X10305896Y-15156984D02*
X10324944Y-15166508D01*
X10324944Y-15166508D02*
X10334468Y-15176031D01*
X10334468Y-15176031D02*
X10343991Y-15195079D01*
X10343991Y-15195079D02*
X10353515Y-15233174D01*
X10353515Y-15233174D02*
X10353515Y-15280793D01*
X10353515Y-15280793D02*
X10343991Y-15318888D01*
X10343991Y-15318888D02*
X10334468Y-15337936D01*
X10334468Y-15337936D02*
X10324944Y-15347460D01*
X10324944Y-15347460D02*
X10305896Y-15356984D01*
X10305896Y-15356984D02*
X10286848Y-15356984D01*
X10286848Y-15356984D02*
X10267801Y-15347460D01*
X10267801Y-15347460D02*
X10258277Y-15337936D01*
X10258277Y-15337936D02*
X10248753Y-15318888D01*
X10248753Y-15318888D02*
X10239229Y-15280793D01*
X10239229Y-15280793D02*
X10239229Y-15233174D01*
X10239229Y-15233174D02*
X10248753Y-15195079D01*
X10248753Y-15195079D02*
X10258277Y-15176031D01*
X10258277Y-15176031D02*
X10267801Y-15166508D01*
X10267801Y-15166508D02*
X10286848Y-15156984D01*
X10420182Y-15156984D02*
X10543991Y-15156984D01*
X10543991Y-15156984D02*
X10477325Y-15233174D01*
X10477325Y-15233174D02*
X10505896Y-15233174D01*
X10505896Y-15233174D02*
X10524944Y-15242698D01*
X10524944Y-15242698D02*
X10534468Y-15252222D01*
X10534468Y-15252222D02*
X10543991Y-15271269D01*
X10543991Y-15271269D02*
X10543991Y-15318888D01*
X10543991Y-15318888D02*
X10534468Y-15337936D01*
X10534468Y-15337936D02*
X10524944Y-15347460D01*
X10524944Y-15347460D02*
X10505896Y-15356984D01*
X10505896Y-15356984D02*
X10448753Y-15356984D01*
X10448753Y-15356984D02*
X10429706Y-15347460D01*
X10429706Y-15347460D02*
X10420182Y-15337936D01*
X10724944Y-15156984D02*
X10629706Y-15156984D01*
X10629706Y-15156984D02*
X10620182Y-15252222D01*
X10620182Y-15252222D02*
X10629706Y-15242698D01*
X10629706Y-15242698D02*
X10648753Y-15233174D01*
X10648753Y-15233174D02*
X10696372Y-15233174D01*
X10696372Y-15233174D02*
X10715420Y-15242698D01*
X10715420Y-15242698D02*
X10724944Y-15252222D01*
X10724944Y-15252222D02*
X10734468Y-15271269D01*
X10734468Y-15271269D02*
X10734468Y-15318888D01*
X10734468Y-15318888D02*
X10724944Y-15337936D01*
X10724944Y-15337936D02*
X10715420Y-15347460D01*
X10715420Y-15347460D02*
X10696372Y-15356984D01*
X10696372Y-15356984D02*
X10648753Y-15356984D01*
X10648753Y-15356984D02*
X10629706Y-15347460D01*
X10629706Y-15347460D02*
X10620182Y-15337936D01*
X10905896Y-15223650D02*
X10905896Y-15356984D01*
X10858277Y-15147460D02*
X10810658Y-15290317D01*
X10810658Y-15290317D02*
X10934468Y-15290317D01*
X11001134Y-15156984D02*
X11001134Y-15195079D01*
X11077325Y-15156984D02*
X11077325Y-15195079D01*
X11372563Y-15433174D02*
X11363039Y-15423650D01*
X11363039Y-15423650D02*
X11343991Y-15395079D01*
X11343991Y-15395079D02*
X11334468Y-15376031D01*
X11334468Y-15376031D02*
X11324944Y-15347460D01*
X11324944Y-15347460D02*
X11315420Y-15299841D01*
X11315420Y-15299841D02*
X11315420Y-15261746D01*
X11315420Y-15261746D02*
X11324944Y-15214127D01*
X11324944Y-15214127D02*
X11334468Y-15185555D01*
X11334468Y-15185555D02*
X11343991Y-15166508D01*
X11343991Y-15166508D02*
X11363039Y-15137936D01*
X11363039Y-15137936D02*
X11372563Y-15128412D01*
X11534468Y-15223650D02*
X11534468Y-15356984D01*
X11486848Y-15147460D02*
X11439229Y-15290317D01*
X11439229Y-15290317D02*
X11563039Y-15290317D01*
X11791610Y-15356984D02*
X11791610Y-15156984D01*
X11877325Y-15356984D02*
X11877325Y-15252222D01*
X11877325Y-15252222D02*
X11867801Y-15233174D01*
X11867801Y-15233174D02*
X11848753Y-15223650D01*
X11848753Y-15223650D02*
X11820182Y-15223650D01*
X11820182Y-15223650D02*
X11801134Y-15233174D01*
X11801134Y-15233174D02*
X11791610Y-15242698D01*
X12001134Y-15356984D02*
X11982087Y-15347460D01*
X11982087Y-15347460D02*
X11972563Y-15337936D01*
X11972563Y-15337936D02*
X11963039Y-15318888D01*
X11963039Y-15318888D02*
X11963039Y-15261746D01*
X11963039Y-15261746D02*
X11972563Y-15242698D01*
X11972563Y-15242698D02*
X11982087Y-15233174D01*
X11982087Y-15233174D02*
X12001134Y-15223650D01*
X12001134Y-15223650D02*
X12029706Y-15223650D01*
X12029706Y-15223650D02*
X12048753Y-15233174D01*
X12048753Y-15233174D02*
X12058277Y-15242698D01*
X12058277Y-15242698D02*
X12067801Y-15261746D01*
X12067801Y-15261746D02*
X12067801Y-15318888D01*
X12067801Y-15318888D02*
X12058277Y-15337936D01*
X12058277Y-15337936D02*
X12048753Y-15347460D01*
X12048753Y-15347460D02*
X12029706Y-15356984D01*
X12029706Y-15356984D02*
X12001134Y-15356984D01*
X12182087Y-15356984D02*
X12163039Y-15347460D01*
X12163039Y-15347460D02*
X12153515Y-15328412D01*
X12153515Y-15328412D02*
X12153515Y-15156984D01*
X12334468Y-15347460D02*
X12315420Y-15356984D01*
X12315420Y-15356984D02*
X12277325Y-15356984D01*
X12277325Y-15356984D02*
X12258277Y-15347460D01*
X12258277Y-15347460D02*
X12248753Y-15328412D01*
X12248753Y-15328412D02*
X12248753Y-15252222D01*
X12248753Y-15252222D02*
X12258277Y-15233174D01*
X12258277Y-15233174D02*
X12277325Y-15223650D01*
X12277325Y-15223650D02*
X12315420Y-15223650D01*
X12315420Y-15223650D02*
X12334468Y-15233174D01*
X12334468Y-15233174D02*
X12343991Y-15252222D01*
X12343991Y-15252222D02*
X12343991Y-15271269D01*
X12343991Y-15271269D02*
X12248753Y-15290317D01*
X12420182Y-15347460D02*
X12439230Y-15356984D01*
X12439230Y-15356984D02*
X12477325Y-15356984D01*
X12477325Y-15356984D02*
X12496372Y-15347460D01*
X12496372Y-15347460D02*
X12505896Y-15328412D01*
X12505896Y-15328412D02*
X12505896Y-15318888D01*
X12505896Y-15318888D02*
X12496372Y-15299841D01*
X12496372Y-15299841D02*
X12477325Y-15290317D01*
X12477325Y-15290317D02*
X12448753Y-15290317D01*
X12448753Y-15290317D02*
X12429706Y-15280793D01*
X12429706Y-15280793D02*
X12420182Y-15261746D01*
X12420182Y-15261746D02*
X12420182Y-15252222D01*
X12420182Y-15252222D02*
X12429706Y-15233174D01*
X12429706Y-15233174D02*
X12448753Y-15223650D01*
X12448753Y-15223650D02*
X12477325Y-15223650D01*
X12477325Y-15223650D02*
X12496372Y-15233174D01*
X12572563Y-15433174D02*
X12582087Y-15423650D01*
X12582087Y-15423650D02*
X12601134Y-15395079D01*
X12601134Y-15395079D02*
X12610658Y-15376031D01*
X12610658Y-15376031D02*
X12620182Y-15347460D01*
X12620182Y-15347460D02*
X12629706Y-15299841D01*
X12629706Y-15299841D02*
X12629706Y-15261746D01*
X12629706Y-15261746D02*
X12620182Y-15214127D01*
X12620182Y-15214127D02*
X12610658Y-15185555D01*
X12610658Y-15185555D02*
X12601134Y-15166508D01*
X12601134Y-15166508D02*
X12582087Y-15137936D01*
X12582087Y-15137936D02*
X12572563Y-15128412D01*
D12*
X7697500Y-15479500D02*
X7797500Y-15579500D01*
X7797500Y-15479500D02*
X7697500Y-15579500D01*
X7747500Y-15579500D02*
X7797500Y-15529500D01*
X7747500Y-15479500D01*
X7697500Y-15529500D01*
X7747500Y-15579500D01*
D11*
X8163039Y-15620984D02*
X8048753Y-15620984D01*
X8105896Y-15620984D02*
X8105896Y-15420984D01*
X8105896Y-15420984D02*
X8086848Y-15449555D01*
X8086848Y-15449555D02*
X8067801Y-15468603D01*
X8067801Y-15468603D02*
X8048753Y-15478127D01*
X8248753Y-15601936D02*
X8258277Y-15611460D01*
X8258277Y-15611460D02*
X8248753Y-15620984D01*
X8248753Y-15620984D02*
X8239229Y-15611460D01*
X8239229Y-15611460D02*
X8248753Y-15601936D01*
X8248753Y-15601936D02*
X8248753Y-15620984D01*
X8382086Y-15420984D02*
X8401134Y-15420984D01*
X8401134Y-15420984D02*
X8420182Y-15430508D01*
X8420182Y-15430508D02*
X8429705Y-15440031D01*
X8429705Y-15440031D02*
X8439229Y-15459079D01*
X8439229Y-15459079D02*
X8448753Y-15497174D01*
X8448753Y-15497174D02*
X8448753Y-15544793D01*
X8448753Y-15544793D02*
X8439229Y-15582888D01*
X8439229Y-15582888D02*
X8429705Y-15601936D01*
X8429705Y-15601936D02*
X8420182Y-15611460D01*
X8420182Y-15611460D02*
X8401134Y-15620984D01*
X8401134Y-15620984D02*
X8382086Y-15620984D01*
X8382086Y-15620984D02*
X8363039Y-15611460D01*
X8363039Y-15611460D02*
X8353515Y-15601936D01*
X8353515Y-15601936D02*
X8343991Y-15582888D01*
X8343991Y-15582888D02*
X8334467Y-15544793D01*
X8334467Y-15544793D02*
X8334467Y-15497174D01*
X8334467Y-15497174D02*
X8343991Y-15459079D01*
X8343991Y-15459079D02*
X8353515Y-15440031D01*
X8353515Y-15440031D02*
X8363039Y-15430508D01*
X8363039Y-15430508D02*
X8382086Y-15420984D01*
X8572563Y-15420984D02*
X8591610Y-15420984D01*
X8591610Y-15420984D02*
X8610658Y-15430508D01*
X8610658Y-15430508D02*
X8620182Y-15440031D01*
X8620182Y-15440031D02*
X8629705Y-15459079D01*
X8629705Y-15459079D02*
X8639229Y-15497174D01*
X8639229Y-15497174D02*
X8639229Y-15544793D01*
X8639229Y-15544793D02*
X8629705Y-15582888D01*
X8629705Y-15582888D02*
X8620182Y-15601936D01*
X8620182Y-15601936D02*
X8610658Y-15611460D01*
X8610658Y-15611460D02*
X8591610Y-15620984D01*
X8591610Y-15620984D02*
X8572563Y-15620984D01*
X8572563Y-15620984D02*
X8553515Y-15611460D01*
X8553515Y-15611460D02*
X8543991Y-15601936D01*
X8543991Y-15601936D02*
X8534467Y-15582888D01*
X8534467Y-15582888D02*
X8524944Y-15544793D01*
X8524944Y-15544793D02*
X8524944Y-15497174D01*
X8524944Y-15497174D02*
X8534467Y-15459079D01*
X8534467Y-15459079D02*
X8543991Y-15440031D01*
X8543991Y-15440031D02*
X8553515Y-15430508D01*
X8553515Y-15430508D02*
X8572563Y-15420984D01*
X8763039Y-15420984D02*
X8782086Y-15420984D01*
X8782086Y-15420984D02*
X8801134Y-15430508D01*
X8801134Y-15430508D02*
X8810658Y-15440031D01*
X8810658Y-15440031D02*
X8820182Y-15459079D01*
X8820182Y-15459079D02*
X8829705Y-15497174D01*
X8829705Y-15497174D02*
X8829705Y-15544793D01*
X8829705Y-15544793D02*
X8820182Y-15582888D01*
X8820182Y-15582888D02*
X8810658Y-15601936D01*
X8810658Y-15601936D02*
X8801134Y-15611460D01*
X8801134Y-15611460D02*
X8782086Y-15620984D01*
X8782086Y-15620984D02*
X8763039Y-15620984D01*
X8763039Y-15620984D02*
X8743991Y-15611460D01*
X8743991Y-15611460D02*
X8734467Y-15601936D01*
X8734467Y-15601936D02*
X8724944Y-15582888D01*
X8724944Y-15582888D02*
X8715420Y-15544793D01*
X8715420Y-15544793D02*
X8715420Y-15497174D01*
X8715420Y-15497174D02*
X8724944Y-15459079D01*
X8724944Y-15459079D02*
X8734467Y-15440031D01*
X8734467Y-15440031D02*
X8743991Y-15430508D01*
X8743991Y-15430508D02*
X8763039Y-15420984D01*
X8915420Y-15620984D02*
X8915420Y-15487650D01*
X8915420Y-15506698D02*
X8924944Y-15497174D01*
X8924944Y-15497174D02*
X8943991Y-15487650D01*
X8943991Y-15487650D02*
X8972563Y-15487650D01*
X8972563Y-15487650D02*
X8991610Y-15497174D01*
X8991610Y-15497174D02*
X9001134Y-15516222D01*
X9001134Y-15516222D02*
X9001134Y-15620984D01*
X9001134Y-15516222D02*
X9010658Y-15497174D01*
X9010658Y-15497174D02*
X9029705Y-15487650D01*
X9029705Y-15487650D02*
X9058277Y-15487650D01*
X9058277Y-15487650D02*
X9077325Y-15497174D01*
X9077325Y-15497174D02*
X9086848Y-15516222D01*
X9086848Y-15516222D02*
X9086848Y-15620984D01*
X9182086Y-15620984D02*
X9182086Y-15487650D01*
X9182086Y-15506698D02*
X9191610Y-15497174D01*
X9191610Y-15497174D02*
X9210658Y-15487650D01*
X9210658Y-15487650D02*
X9239229Y-15487650D01*
X9239229Y-15487650D02*
X9258277Y-15497174D01*
X9258277Y-15497174D02*
X9267801Y-15516222D01*
X9267801Y-15516222D02*
X9267801Y-15620984D01*
X9267801Y-15516222D02*
X9277325Y-15497174D01*
X9277325Y-15497174D02*
X9296372Y-15487650D01*
X9296372Y-15487650D02*
X9324944Y-15487650D01*
X9324944Y-15487650D02*
X9343991Y-15497174D01*
X9343991Y-15497174D02*
X9353515Y-15516222D01*
X9353515Y-15516222D02*
X9353515Y-15620984D01*
X9743991Y-15411460D02*
X9572563Y-15668603D01*
X10001134Y-15420984D02*
X10020182Y-15420984D01*
X10020182Y-15420984D02*
X10039229Y-15430508D01*
X10039229Y-15430508D02*
X10048753Y-15440031D01*
X10048753Y-15440031D02*
X10058277Y-15459079D01*
X10058277Y-15459079D02*
X10067801Y-15497174D01*
X10067801Y-15497174D02*
X10067801Y-15544793D01*
X10067801Y-15544793D02*
X10058277Y-15582888D01*
X10058277Y-15582888D02*
X10048753Y-15601936D01*
X10048753Y-15601936D02*
X10039229Y-15611460D01*
X10039229Y-15611460D02*
X10020182Y-15620984D01*
X10020182Y-15620984D02*
X10001134Y-15620984D01*
X10001134Y-15620984D02*
X9982087Y-15611460D01*
X9982087Y-15611460D02*
X9972563Y-15601936D01*
X9972563Y-15601936D02*
X9963039Y-15582888D01*
X9963039Y-15582888D02*
X9953515Y-15544793D01*
X9953515Y-15544793D02*
X9953515Y-15497174D01*
X9953515Y-15497174D02*
X9963039Y-15459079D01*
X9963039Y-15459079D02*
X9972563Y-15440031D01*
X9972563Y-15440031D02*
X9982087Y-15430508D01*
X9982087Y-15430508D02*
X10001134Y-15420984D01*
X10153515Y-15601936D02*
X10163039Y-15611460D01*
X10163039Y-15611460D02*
X10153515Y-15620984D01*
X10153515Y-15620984D02*
X10143991Y-15611460D01*
X10143991Y-15611460D02*
X10153515Y-15601936D01*
X10153515Y-15601936D02*
X10153515Y-15620984D01*
X10286848Y-15420984D02*
X10305896Y-15420984D01*
X10305896Y-15420984D02*
X10324944Y-15430508D01*
X10324944Y-15430508D02*
X10334468Y-15440031D01*
X10334468Y-15440031D02*
X10343991Y-15459079D01*
X10343991Y-15459079D02*
X10353515Y-15497174D01*
X10353515Y-15497174D02*
X10353515Y-15544793D01*
X10353515Y-15544793D02*
X10343991Y-15582888D01*
X10343991Y-15582888D02*
X10334468Y-15601936D01*
X10334468Y-15601936D02*
X10324944Y-15611460D01*
X10324944Y-15611460D02*
X10305896Y-15620984D01*
X10305896Y-15620984D02*
X10286848Y-15620984D01*
X10286848Y-15620984D02*
X10267801Y-15611460D01*
X10267801Y-15611460D02*
X10258277Y-15601936D01*
X10258277Y-15601936D02*
X10248753Y-15582888D01*
X10248753Y-15582888D02*
X10239229Y-15544793D01*
X10239229Y-15544793D02*
X10239229Y-15497174D01*
X10239229Y-15497174D02*
X10248753Y-15459079D01*
X10248753Y-15459079D02*
X10258277Y-15440031D01*
X10258277Y-15440031D02*
X10267801Y-15430508D01*
X10267801Y-15430508D02*
X10286848Y-15420984D01*
X10420182Y-15420984D02*
X10543991Y-15420984D01*
X10543991Y-15420984D02*
X10477325Y-15497174D01*
X10477325Y-15497174D02*
X10505896Y-15497174D01*
X10505896Y-15497174D02*
X10524944Y-15506698D01*
X10524944Y-15506698D02*
X10534468Y-15516222D01*
X10534468Y-15516222D02*
X10543991Y-15535269D01*
X10543991Y-15535269D02*
X10543991Y-15582888D01*
X10543991Y-15582888D02*
X10534468Y-15601936D01*
X10534468Y-15601936D02*
X10524944Y-15611460D01*
X10524944Y-15611460D02*
X10505896Y-15620984D01*
X10505896Y-15620984D02*
X10448753Y-15620984D01*
X10448753Y-15620984D02*
X10429706Y-15611460D01*
X10429706Y-15611460D02*
X10420182Y-15601936D01*
X10639229Y-15620984D02*
X10677325Y-15620984D01*
X10677325Y-15620984D02*
X10696372Y-15611460D01*
X10696372Y-15611460D02*
X10705896Y-15601936D01*
X10705896Y-15601936D02*
X10724944Y-15573365D01*
X10724944Y-15573365D02*
X10734468Y-15535269D01*
X10734468Y-15535269D02*
X10734468Y-15459079D01*
X10734468Y-15459079D02*
X10724944Y-15440031D01*
X10724944Y-15440031D02*
X10715420Y-15430508D01*
X10715420Y-15430508D02*
X10696372Y-15420984D01*
X10696372Y-15420984D02*
X10658277Y-15420984D01*
X10658277Y-15420984D02*
X10639229Y-15430508D01*
X10639229Y-15430508D02*
X10629706Y-15440031D01*
X10629706Y-15440031D02*
X10620182Y-15459079D01*
X10620182Y-15459079D02*
X10620182Y-15506698D01*
X10620182Y-15506698D02*
X10629706Y-15525746D01*
X10629706Y-15525746D02*
X10639229Y-15535269D01*
X10639229Y-15535269D02*
X10658277Y-15544793D01*
X10658277Y-15544793D02*
X10696372Y-15544793D01*
X10696372Y-15544793D02*
X10715420Y-15535269D01*
X10715420Y-15535269D02*
X10724944Y-15525746D01*
X10724944Y-15525746D02*
X10734468Y-15506698D01*
X10905896Y-15487650D02*
X10905896Y-15620984D01*
X10858277Y-15411460D02*
X10810658Y-15554317D01*
X10810658Y-15554317D02*
X10934468Y-15554317D01*
X11001134Y-15420984D02*
X11001134Y-15459079D01*
X11077325Y-15420984D02*
X11077325Y-15459079D01*
X11372563Y-15697174D02*
X11363039Y-15687650D01*
X11363039Y-15687650D02*
X11343991Y-15659079D01*
X11343991Y-15659079D02*
X11334468Y-15640031D01*
X11334468Y-15640031D02*
X11324944Y-15611460D01*
X11324944Y-15611460D02*
X11315420Y-15563841D01*
X11315420Y-15563841D02*
X11315420Y-15525746D01*
X11315420Y-15525746D02*
X11324944Y-15478127D01*
X11324944Y-15478127D02*
X11334468Y-15449555D01*
X11334468Y-15449555D02*
X11343991Y-15430508D01*
X11343991Y-15430508D02*
X11363039Y-15401936D01*
X11363039Y-15401936D02*
X11372563Y-15392412D01*
X11553515Y-15620984D02*
X11439229Y-15620984D01*
X11496372Y-15620984D02*
X11496372Y-15420984D01*
X11496372Y-15420984D02*
X11477325Y-15449555D01*
X11477325Y-15449555D02*
X11458277Y-15468603D01*
X11458277Y-15468603D02*
X11439229Y-15478127D01*
X11667801Y-15506698D02*
X11648753Y-15497174D01*
X11648753Y-15497174D02*
X11639229Y-15487650D01*
X11639229Y-15487650D02*
X11629706Y-15468603D01*
X11629706Y-15468603D02*
X11629706Y-15459079D01*
X11629706Y-15459079D02*
X11639229Y-15440031D01*
X11639229Y-15440031D02*
X11648753Y-15430508D01*
X11648753Y-15430508D02*
X11667801Y-15420984D01*
X11667801Y-15420984D02*
X11705896Y-15420984D01*
X11705896Y-15420984D02*
X11724944Y-15430508D01*
X11724944Y-15430508D02*
X11734468Y-15440031D01*
X11734468Y-15440031D02*
X11743991Y-15459079D01*
X11743991Y-15459079D02*
X11743991Y-15468603D01*
X11743991Y-15468603D02*
X11734468Y-15487650D01*
X11734468Y-15487650D02*
X11724944Y-15497174D01*
X11724944Y-15497174D02*
X11705896Y-15506698D01*
X11705896Y-15506698D02*
X11667801Y-15506698D01*
X11667801Y-15506698D02*
X11648753Y-15516222D01*
X11648753Y-15516222D02*
X11639229Y-15525746D01*
X11639229Y-15525746D02*
X11629706Y-15544793D01*
X11629706Y-15544793D02*
X11629706Y-15582888D01*
X11629706Y-15582888D02*
X11639229Y-15601936D01*
X11639229Y-15601936D02*
X11648753Y-15611460D01*
X11648753Y-15611460D02*
X11667801Y-15620984D01*
X11667801Y-15620984D02*
X11705896Y-15620984D01*
X11705896Y-15620984D02*
X11724944Y-15611460D01*
X11724944Y-15611460D02*
X11734468Y-15601936D01*
X11734468Y-15601936D02*
X11743991Y-15582888D01*
X11743991Y-15582888D02*
X11743991Y-15544793D01*
X11743991Y-15544793D02*
X11734468Y-15525746D01*
X11734468Y-15525746D02*
X11724944Y-15516222D01*
X11724944Y-15516222D02*
X11705896Y-15506698D01*
X11982087Y-15620984D02*
X11982087Y-15420984D01*
X12067801Y-15620984D02*
X12067801Y-15516222D01*
X12067801Y-15516222D02*
X12058277Y-15497174D01*
X12058277Y-15497174D02*
X12039230Y-15487650D01*
X12039230Y-15487650D02*
X12010658Y-15487650D01*
X12010658Y-15487650D02*
X11991610Y-15497174D01*
X11991610Y-15497174D02*
X11982087Y-15506698D01*
X12191610Y-15620984D02*
X12172563Y-15611460D01*
X12172563Y-15611460D02*
X12163039Y-15601936D01*
X12163039Y-15601936D02*
X12153515Y-15582888D01*
X12153515Y-15582888D02*
X12153515Y-15525746D01*
X12153515Y-15525746D02*
X12163039Y-15506698D01*
X12163039Y-15506698D02*
X12172563Y-15497174D01*
X12172563Y-15497174D02*
X12191610Y-15487650D01*
X12191610Y-15487650D02*
X12220182Y-15487650D01*
X12220182Y-15487650D02*
X12239230Y-15497174D01*
X12239230Y-15497174D02*
X12248753Y-15506698D01*
X12248753Y-15506698D02*
X12258277Y-15525746D01*
X12258277Y-15525746D02*
X12258277Y-15582888D01*
X12258277Y-15582888D02*
X12248753Y-15601936D01*
X12248753Y-15601936D02*
X12239230Y-15611460D01*
X12239230Y-15611460D02*
X12220182Y-15620984D01*
X12220182Y-15620984D02*
X12191610Y-15620984D01*
X12372563Y-15620984D02*
X12353515Y-15611460D01*
X12353515Y-15611460D02*
X12343991Y-15592412D01*
X12343991Y-15592412D02*
X12343991Y-15420984D01*
X12524944Y-15611460D02*
X12505896Y-15620984D01*
X12505896Y-15620984D02*
X12467801Y-15620984D01*
X12467801Y-15620984D02*
X12448753Y-15611460D01*
X12448753Y-15611460D02*
X12439230Y-15592412D01*
X12439230Y-15592412D02*
X12439230Y-15516222D01*
X12439230Y-15516222D02*
X12448753Y-15497174D01*
X12448753Y-15497174D02*
X12467801Y-15487650D01*
X12467801Y-15487650D02*
X12505896Y-15487650D01*
X12505896Y-15487650D02*
X12524944Y-15497174D01*
X12524944Y-15497174D02*
X12534468Y-15516222D01*
X12534468Y-15516222D02*
X12534468Y-15535269D01*
X12534468Y-15535269D02*
X12439230Y-15554317D01*
X12610658Y-15611460D02*
X12629706Y-15620984D01*
X12629706Y-15620984D02*
X12667801Y-15620984D01*
X12667801Y-15620984D02*
X12686849Y-15611460D01*
X12686849Y-15611460D02*
X12696372Y-15592412D01*
X12696372Y-15592412D02*
X12696372Y-15582888D01*
X12696372Y-15582888D02*
X12686849Y-15563841D01*
X12686849Y-15563841D02*
X12667801Y-15554317D01*
X12667801Y-15554317D02*
X12639230Y-15554317D01*
X12639230Y-15554317D02*
X12620182Y-15544793D01*
X12620182Y-15544793D02*
X12610658Y-15525746D01*
X12610658Y-15525746D02*
X12610658Y-15516222D01*
X12610658Y-15516222D02*
X12620182Y-15497174D01*
X12620182Y-15497174D02*
X12639230Y-15487650D01*
X12639230Y-15487650D02*
X12667801Y-15487650D01*
X12667801Y-15487650D02*
X12686849Y-15497174D01*
X12763039Y-15697174D02*
X12772563Y-15687650D01*
X12772563Y-15687650D02*
X12791611Y-15659079D01*
X12791611Y-15659079D02*
X12801134Y-15640031D01*
X12801134Y-15640031D02*
X12810658Y-15611460D01*
X12810658Y-15611460D02*
X12820182Y-15563841D01*
X12820182Y-15563841D02*
X12820182Y-15525746D01*
X12820182Y-15525746D02*
X12810658Y-15478127D01*
X12810658Y-15478127D02*
X12801134Y-15449555D01*
X12801134Y-15449555D02*
X12791611Y-15430508D01*
X12791611Y-15430508D02*
X12772563Y-15401936D01*
X12772563Y-15401936D02*
X12763039Y-15392412D01*
D13*
X7732500Y-15728500D02*
X7732500Y-15858500D01*
X7667500Y-15793500D02*
X7797500Y-15793500D01*
X7797500Y-15793500D02*
G75*
G02*
X7667500Y-15793500I-65000J0D01*
G01*
X7667500Y-15793500D02*
G75*
G02*
X7797500Y-15793500I65000J0D01*
G01*
D11*
X8163039Y-15884984D02*
X8048753Y-15884984D01*
X8105896Y-15884984D02*
X8105896Y-15684984D01*
X8105896Y-15684984D02*
X8086848Y-15713555D01*
X8086848Y-15713555D02*
X8067801Y-15732603D01*
X8067801Y-15732603D02*
X8048753Y-15742127D01*
X8248753Y-15865936D02*
X8258277Y-15875460D01*
X8258277Y-15875460D02*
X8248753Y-15884984D01*
X8248753Y-15884984D02*
X8239229Y-15875460D01*
X8239229Y-15875460D02*
X8248753Y-15865936D01*
X8248753Y-15865936D02*
X8248753Y-15884984D01*
X8324943Y-15684984D02*
X8448753Y-15684984D01*
X8448753Y-15684984D02*
X8382086Y-15761174D01*
X8382086Y-15761174D02*
X8410658Y-15761174D01*
X8410658Y-15761174D02*
X8429705Y-15770698D01*
X8429705Y-15770698D02*
X8439229Y-15780222D01*
X8439229Y-15780222D02*
X8448753Y-15799269D01*
X8448753Y-15799269D02*
X8448753Y-15846888D01*
X8448753Y-15846888D02*
X8439229Y-15865936D01*
X8439229Y-15865936D02*
X8429705Y-15875460D01*
X8429705Y-15875460D02*
X8410658Y-15884984D01*
X8410658Y-15884984D02*
X8353515Y-15884984D01*
X8353515Y-15884984D02*
X8334467Y-15875460D01*
X8334467Y-15875460D02*
X8324943Y-15865936D01*
X8572563Y-15684984D02*
X8591610Y-15684984D01*
X8591610Y-15684984D02*
X8610658Y-15694508D01*
X8610658Y-15694508D02*
X8620182Y-15704031D01*
X8620182Y-15704031D02*
X8629705Y-15723079D01*
X8629705Y-15723079D02*
X8639229Y-15761174D01*
X8639229Y-15761174D02*
X8639229Y-15808793D01*
X8639229Y-15808793D02*
X8629705Y-15846888D01*
X8629705Y-15846888D02*
X8620182Y-15865936D01*
X8620182Y-15865936D02*
X8610658Y-15875460D01*
X8610658Y-15875460D02*
X8591610Y-15884984D01*
X8591610Y-15884984D02*
X8572563Y-15884984D01*
X8572563Y-15884984D02*
X8553515Y-15875460D01*
X8553515Y-15875460D02*
X8543991Y-15865936D01*
X8543991Y-15865936D02*
X8534467Y-15846888D01*
X8534467Y-15846888D02*
X8524944Y-15808793D01*
X8524944Y-15808793D02*
X8524944Y-15761174D01*
X8524944Y-15761174D02*
X8534467Y-15723079D01*
X8534467Y-15723079D02*
X8543991Y-15704031D01*
X8543991Y-15704031D02*
X8553515Y-15694508D01*
X8553515Y-15694508D02*
X8572563Y-15684984D01*
X8763039Y-15684984D02*
X8782086Y-15684984D01*
X8782086Y-15684984D02*
X8801134Y-15694508D01*
X8801134Y-15694508D02*
X8810658Y-15704031D01*
X8810658Y-15704031D02*
X8820182Y-15723079D01*
X8820182Y-15723079D02*
X8829705Y-15761174D01*
X8829705Y-15761174D02*
X8829705Y-15808793D01*
X8829705Y-15808793D02*
X8820182Y-15846888D01*
X8820182Y-15846888D02*
X8810658Y-15865936D01*
X8810658Y-15865936D02*
X8801134Y-15875460D01*
X8801134Y-15875460D02*
X8782086Y-15884984D01*
X8782086Y-15884984D02*
X8763039Y-15884984D01*
X8763039Y-15884984D02*
X8743991Y-15875460D01*
X8743991Y-15875460D02*
X8734467Y-15865936D01*
X8734467Y-15865936D02*
X8724944Y-15846888D01*
X8724944Y-15846888D02*
X8715420Y-15808793D01*
X8715420Y-15808793D02*
X8715420Y-15761174D01*
X8715420Y-15761174D02*
X8724944Y-15723079D01*
X8724944Y-15723079D02*
X8734467Y-15704031D01*
X8734467Y-15704031D02*
X8743991Y-15694508D01*
X8743991Y-15694508D02*
X8763039Y-15684984D01*
X8915420Y-15884984D02*
X8915420Y-15751650D01*
X8915420Y-15770698D02*
X8924944Y-15761174D01*
X8924944Y-15761174D02*
X8943991Y-15751650D01*
X8943991Y-15751650D02*
X8972563Y-15751650D01*
X8972563Y-15751650D02*
X8991610Y-15761174D01*
X8991610Y-15761174D02*
X9001134Y-15780222D01*
X9001134Y-15780222D02*
X9001134Y-15884984D01*
X9001134Y-15780222D02*
X9010658Y-15761174D01*
X9010658Y-15761174D02*
X9029705Y-15751650D01*
X9029705Y-15751650D02*
X9058277Y-15751650D01*
X9058277Y-15751650D02*
X9077325Y-15761174D01*
X9077325Y-15761174D02*
X9086848Y-15780222D01*
X9086848Y-15780222D02*
X9086848Y-15884984D01*
X9182086Y-15884984D02*
X9182086Y-15751650D01*
X9182086Y-15770698D02*
X9191610Y-15761174D01*
X9191610Y-15761174D02*
X9210658Y-15751650D01*
X9210658Y-15751650D02*
X9239229Y-15751650D01*
X9239229Y-15751650D02*
X9258277Y-15761174D01*
X9258277Y-15761174D02*
X9267801Y-15780222D01*
X9267801Y-15780222D02*
X9267801Y-15884984D01*
X9267801Y-15780222D02*
X9277325Y-15761174D01*
X9277325Y-15761174D02*
X9296372Y-15751650D01*
X9296372Y-15751650D02*
X9324944Y-15751650D01*
X9324944Y-15751650D02*
X9343991Y-15761174D01*
X9343991Y-15761174D02*
X9353515Y-15780222D01*
X9353515Y-15780222D02*
X9353515Y-15884984D01*
X9743991Y-15675460D02*
X9572563Y-15932603D01*
X10001134Y-15684984D02*
X10020182Y-15684984D01*
X10020182Y-15684984D02*
X10039229Y-15694508D01*
X10039229Y-15694508D02*
X10048753Y-15704031D01*
X10048753Y-15704031D02*
X10058277Y-15723079D01*
X10058277Y-15723079D02*
X10067801Y-15761174D01*
X10067801Y-15761174D02*
X10067801Y-15808793D01*
X10067801Y-15808793D02*
X10058277Y-15846888D01*
X10058277Y-15846888D02*
X10048753Y-15865936D01*
X10048753Y-15865936D02*
X10039229Y-15875460D01*
X10039229Y-15875460D02*
X10020182Y-15884984D01*
X10020182Y-15884984D02*
X10001134Y-15884984D01*
X10001134Y-15884984D02*
X9982087Y-15875460D01*
X9982087Y-15875460D02*
X9972563Y-15865936D01*
X9972563Y-15865936D02*
X9963039Y-15846888D01*
X9963039Y-15846888D02*
X9953515Y-15808793D01*
X9953515Y-15808793D02*
X9953515Y-15761174D01*
X9953515Y-15761174D02*
X9963039Y-15723079D01*
X9963039Y-15723079D02*
X9972563Y-15704031D01*
X9972563Y-15704031D02*
X9982087Y-15694508D01*
X9982087Y-15694508D02*
X10001134Y-15684984D01*
X10153515Y-15865936D02*
X10163039Y-15875460D01*
X10163039Y-15875460D02*
X10153515Y-15884984D01*
X10153515Y-15884984D02*
X10143991Y-15875460D01*
X10143991Y-15875460D02*
X10153515Y-15865936D01*
X10153515Y-15865936D02*
X10153515Y-15884984D01*
X10286848Y-15684984D02*
X10305896Y-15684984D01*
X10305896Y-15684984D02*
X10324944Y-15694508D01*
X10324944Y-15694508D02*
X10334468Y-15704031D01*
X10334468Y-15704031D02*
X10343991Y-15723079D01*
X10343991Y-15723079D02*
X10353515Y-15761174D01*
X10353515Y-15761174D02*
X10353515Y-15808793D01*
X10353515Y-15808793D02*
X10343991Y-15846888D01*
X10343991Y-15846888D02*
X10334468Y-15865936D01*
X10334468Y-15865936D02*
X10324944Y-15875460D01*
X10324944Y-15875460D02*
X10305896Y-15884984D01*
X10305896Y-15884984D02*
X10286848Y-15884984D01*
X10286848Y-15884984D02*
X10267801Y-15875460D01*
X10267801Y-15875460D02*
X10258277Y-15865936D01*
X10258277Y-15865936D02*
X10248753Y-15846888D01*
X10248753Y-15846888D02*
X10239229Y-15808793D01*
X10239229Y-15808793D02*
X10239229Y-15761174D01*
X10239229Y-15761174D02*
X10248753Y-15723079D01*
X10248753Y-15723079D02*
X10258277Y-15704031D01*
X10258277Y-15704031D02*
X10267801Y-15694508D01*
X10267801Y-15694508D02*
X10286848Y-15684984D01*
X10534468Y-15684984D02*
X10439229Y-15684984D01*
X10439229Y-15684984D02*
X10429706Y-15780222D01*
X10429706Y-15780222D02*
X10439229Y-15770698D01*
X10439229Y-15770698D02*
X10458277Y-15761174D01*
X10458277Y-15761174D02*
X10505896Y-15761174D01*
X10505896Y-15761174D02*
X10524944Y-15770698D01*
X10524944Y-15770698D02*
X10534468Y-15780222D01*
X10534468Y-15780222D02*
X10543991Y-15799269D01*
X10543991Y-15799269D02*
X10543991Y-15846888D01*
X10543991Y-15846888D02*
X10534468Y-15865936D01*
X10534468Y-15865936D02*
X10524944Y-15875460D01*
X10524944Y-15875460D02*
X10505896Y-15884984D01*
X10505896Y-15884984D02*
X10458277Y-15884984D01*
X10458277Y-15884984D02*
X10439229Y-15875460D01*
X10439229Y-15875460D02*
X10429706Y-15865936D01*
X10734468Y-15884984D02*
X10620182Y-15884984D01*
X10677325Y-15884984D02*
X10677325Y-15684984D01*
X10677325Y-15684984D02*
X10658277Y-15713555D01*
X10658277Y-15713555D02*
X10639229Y-15732603D01*
X10639229Y-15732603D02*
X10620182Y-15742127D01*
X10810658Y-15704031D02*
X10820182Y-15694508D01*
X10820182Y-15694508D02*
X10839229Y-15684984D01*
X10839229Y-15684984D02*
X10886849Y-15684984D01*
X10886849Y-15684984D02*
X10905896Y-15694508D01*
X10905896Y-15694508D02*
X10915420Y-15704031D01*
X10915420Y-15704031D02*
X10924944Y-15723079D01*
X10924944Y-15723079D02*
X10924944Y-15742127D01*
X10924944Y-15742127D02*
X10915420Y-15770698D01*
X10915420Y-15770698D02*
X10801134Y-15884984D01*
X10801134Y-15884984D02*
X10924944Y-15884984D01*
X11001134Y-15684984D02*
X11001134Y-15723079D01*
X11077325Y-15684984D02*
X11077325Y-15723079D01*
X11372563Y-15961174D02*
X11363039Y-15951650D01*
X11363039Y-15951650D02*
X11343991Y-15923079D01*
X11343991Y-15923079D02*
X11334468Y-15904031D01*
X11334468Y-15904031D02*
X11324944Y-15875460D01*
X11324944Y-15875460D02*
X11315420Y-15827841D01*
X11315420Y-15827841D02*
X11315420Y-15789746D01*
X11315420Y-15789746D02*
X11324944Y-15742127D01*
X11324944Y-15742127D02*
X11334468Y-15713555D01*
X11334468Y-15713555D02*
X11343991Y-15694508D01*
X11343991Y-15694508D02*
X11363039Y-15665936D01*
X11363039Y-15665936D02*
X11372563Y-15656412D01*
X11534468Y-15751650D02*
X11534468Y-15884984D01*
X11486848Y-15675460D02*
X11439229Y-15818317D01*
X11439229Y-15818317D02*
X11563039Y-15818317D01*
X11791610Y-15884984D02*
X11791610Y-15684984D01*
X11877325Y-15884984D02*
X11877325Y-15780222D01*
X11877325Y-15780222D02*
X11867801Y-15761174D01*
X11867801Y-15761174D02*
X11848753Y-15751650D01*
X11848753Y-15751650D02*
X11820182Y-15751650D01*
X11820182Y-15751650D02*
X11801134Y-15761174D01*
X11801134Y-15761174D02*
X11791610Y-15770698D01*
X12001134Y-15884984D02*
X11982087Y-15875460D01*
X11982087Y-15875460D02*
X11972563Y-15865936D01*
X11972563Y-15865936D02*
X11963039Y-15846888D01*
X11963039Y-15846888D02*
X11963039Y-15789746D01*
X11963039Y-15789746D02*
X11972563Y-15770698D01*
X11972563Y-15770698D02*
X11982087Y-15761174D01*
X11982087Y-15761174D02*
X12001134Y-15751650D01*
X12001134Y-15751650D02*
X12029706Y-15751650D01*
X12029706Y-15751650D02*
X12048753Y-15761174D01*
X12048753Y-15761174D02*
X12058277Y-15770698D01*
X12058277Y-15770698D02*
X12067801Y-15789746D01*
X12067801Y-15789746D02*
X12067801Y-15846888D01*
X12067801Y-15846888D02*
X12058277Y-15865936D01*
X12058277Y-15865936D02*
X12048753Y-15875460D01*
X12048753Y-15875460D02*
X12029706Y-15884984D01*
X12029706Y-15884984D02*
X12001134Y-15884984D01*
X12182087Y-15884984D02*
X12163039Y-15875460D01*
X12163039Y-15875460D02*
X12153515Y-15856412D01*
X12153515Y-15856412D02*
X12153515Y-15684984D01*
X12334468Y-15875460D02*
X12315420Y-15884984D01*
X12315420Y-15884984D02*
X12277325Y-15884984D01*
X12277325Y-15884984D02*
X12258277Y-15875460D01*
X12258277Y-15875460D02*
X12248753Y-15856412D01*
X12248753Y-15856412D02*
X12248753Y-15780222D01*
X12248753Y-15780222D02*
X12258277Y-15761174D01*
X12258277Y-15761174D02*
X12277325Y-15751650D01*
X12277325Y-15751650D02*
X12315420Y-15751650D01*
X12315420Y-15751650D02*
X12334468Y-15761174D01*
X12334468Y-15761174D02*
X12343991Y-15780222D01*
X12343991Y-15780222D02*
X12343991Y-15799269D01*
X12343991Y-15799269D02*
X12248753Y-15818317D01*
X12420182Y-15875460D02*
X12439230Y-15884984D01*
X12439230Y-15884984D02*
X12477325Y-15884984D01*
X12477325Y-15884984D02*
X12496372Y-15875460D01*
X12496372Y-15875460D02*
X12505896Y-15856412D01*
X12505896Y-15856412D02*
X12505896Y-15846888D01*
X12505896Y-15846888D02*
X12496372Y-15827841D01*
X12496372Y-15827841D02*
X12477325Y-15818317D01*
X12477325Y-15818317D02*
X12448753Y-15818317D01*
X12448753Y-15818317D02*
X12429706Y-15808793D01*
X12429706Y-15808793D02*
X12420182Y-15789746D01*
X12420182Y-15789746D02*
X12420182Y-15780222D01*
X12420182Y-15780222D02*
X12429706Y-15761174D01*
X12429706Y-15761174D02*
X12448753Y-15751650D01*
X12448753Y-15751650D02*
X12477325Y-15751650D01*
X12477325Y-15751650D02*
X12496372Y-15761174D01*
X12572563Y-15961174D02*
X12582087Y-15951650D01*
X12582087Y-15951650D02*
X12601134Y-15923079D01*
X12601134Y-15923079D02*
X12610658Y-15904031D01*
X12610658Y-15904031D02*
X12620182Y-15875460D01*
X12620182Y-15875460D02*
X12629706Y-15827841D01*
X12629706Y-15827841D02*
X12629706Y-15789746D01*
X12629706Y-15789746D02*
X12620182Y-15742127D01*
X12620182Y-15742127D02*
X12610658Y-15713555D01*
X12610658Y-15713555D02*
X12601134Y-15694508D01*
X12601134Y-15694508D02*
X12582087Y-15665936D01*
X12582087Y-15665936D02*
X12572563Y-15656412D01*
D14*
X7777042Y-16106892D02*
X7777042Y-16008108D01*
X7678258Y-16008108D01*
X7678258Y-16106892D01*
X7777042Y-16106892D01*
X7797500Y-16057500D02*
G75*
G02*
X7657800Y-16057500I-69850J0D01*
G01*
X7657800Y-16057500D02*
G75*
G02*
X7797500Y-16057500I69850J0D01*
G01*
D11*
X8163039Y-16148984D02*
X8048753Y-16148984D01*
X8105896Y-16148984D02*
X8105896Y-15948984D01*
X8105896Y-15948984D02*
X8086848Y-15977555D01*
X8086848Y-15977555D02*
X8067801Y-15996603D01*
X8067801Y-15996603D02*
X8048753Y-16006127D01*
X8248753Y-16129936D02*
X8258277Y-16139460D01*
X8258277Y-16139460D02*
X8248753Y-16148984D01*
X8248753Y-16148984D02*
X8239229Y-16139460D01*
X8239229Y-16139460D02*
X8248753Y-16129936D01*
X8248753Y-16129936D02*
X8248753Y-16148984D01*
X8324943Y-15948984D02*
X8448753Y-15948984D01*
X8448753Y-15948984D02*
X8382086Y-16025174D01*
X8382086Y-16025174D02*
X8410658Y-16025174D01*
X8410658Y-16025174D02*
X8429705Y-16034698D01*
X8429705Y-16034698D02*
X8439229Y-16044222D01*
X8439229Y-16044222D02*
X8448753Y-16063269D01*
X8448753Y-16063269D02*
X8448753Y-16110888D01*
X8448753Y-16110888D02*
X8439229Y-16129936D01*
X8439229Y-16129936D02*
X8429705Y-16139460D01*
X8429705Y-16139460D02*
X8410658Y-16148984D01*
X8410658Y-16148984D02*
X8353515Y-16148984D01*
X8353515Y-16148984D02*
X8334467Y-16139460D01*
X8334467Y-16139460D02*
X8324943Y-16129936D01*
X8543991Y-16148984D02*
X8582086Y-16148984D01*
X8582086Y-16148984D02*
X8601134Y-16139460D01*
X8601134Y-16139460D02*
X8610658Y-16129936D01*
X8610658Y-16129936D02*
X8629705Y-16101365D01*
X8629705Y-16101365D02*
X8639229Y-16063269D01*
X8639229Y-16063269D02*
X8639229Y-15987079D01*
X8639229Y-15987079D02*
X8629705Y-15968031D01*
X8629705Y-15968031D02*
X8620182Y-15958508D01*
X8620182Y-15958508D02*
X8601134Y-15948984D01*
X8601134Y-15948984D02*
X8563039Y-15948984D01*
X8563039Y-15948984D02*
X8543991Y-15958508D01*
X8543991Y-15958508D02*
X8534467Y-15968031D01*
X8534467Y-15968031D02*
X8524944Y-15987079D01*
X8524944Y-15987079D02*
X8524944Y-16034698D01*
X8524944Y-16034698D02*
X8534467Y-16053746D01*
X8534467Y-16053746D02*
X8543991Y-16063269D01*
X8543991Y-16063269D02*
X8563039Y-16072793D01*
X8563039Y-16072793D02*
X8601134Y-16072793D01*
X8601134Y-16072793D02*
X8620182Y-16063269D01*
X8620182Y-16063269D02*
X8629705Y-16053746D01*
X8629705Y-16053746D02*
X8639229Y-16034698D01*
X8705896Y-15948984D02*
X8839229Y-15948984D01*
X8839229Y-15948984D02*
X8753515Y-16148984D01*
X8915420Y-16148984D02*
X8915420Y-16015650D01*
X8915420Y-16034698D02*
X8924944Y-16025174D01*
X8924944Y-16025174D02*
X8943991Y-16015650D01*
X8943991Y-16015650D02*
X8972563Y-16015650D01*
X8972563Y-16015650D02*
X8991610Y-16025174D01*
X8991610Y-16025174D02*
X9001134Y-16044222D01*
X9001134Y-16044222D02*
X9001134Y-16148984D01*
X9001134Y-16044222D02*
X9010658Y-16025174D01*
X9010658Y-16025174D02*
X9029705Y-16015650D01*
X9029705Y-16015650D02*
X9058277Y-16015650D01*
X9058277Y-16015650D02*
X9077325Y-16025174D01*
X9077325Y-16025174D02*
X9086848Y-16044222D01*
X9086848Y-16044222D02*
X9086848Y-16148984D01*
X9182086Y-16148984D02*
X9182086Y-16015650D01*
X9182086Y-16034698D02*
X9191610Y-16025174D01*
X9191610Y-16025174D02*
X9210658Y-16015650D01*
X9210658Y-16015650D02*
X9239229Y-16015650D01*
X9239229Y-16015650D02*
X9258277Y-16025174D01*
X9258277Y-16025174D02*
X9267801Y-16044222D01*
X9267801Y-16044222D02*
X9267801Y-16148984D01*
X9267801Y-16044222D02*
X9277325Y-16025174D01*
X9277325Y-16025174D02*
X9296372Y-16015650D01*
X9296372Y-16015650D02*
X9324944Y-16015650D01*
X9324944Y-16015650D02*
X9343991Y-16025174D01*
X9343991Y-16025174D02*
X9353515Y-16044222D01*
X9353515Y-16044222D02*
X9353515Y-16148984D01*
X9743991Y-15939460D02*
X9572563Y-16196603D01*
X10001134Y-15948984D02*
X10020182Y-15948984D01*
X10020182Y-15948984D02*
X10039229Y-15958508D01*
X10039229Y-15958508D02*
X10048753Y-15968031D01*
X10048753Y-15968031D02*
X10058277Y-15987079D01*
X10058277Y-15987079D02*
X10067801Y-16025174D01*
X10067801Y-16025174D02*
X10067801Y-16072793D01*
X10067801Y-16072793D02*
X10058277Y-16110888D01*
X10058277Y-16110888D02*
X10048753Y-16129936D01*
X10048753Y-16129936D02*
X10039229Y-16139460D01*
X10039229Y-16139460D02*
X10020182Y-16148984D01*
X10020182Y-16148984D02*
X10001134Y-16148984D01*
X10001134Y-16148984D02*
X9982087Y-16139460D01*
X9982087Y-16139460D02*
X9972563Y-16129936D01*
X9972563Y-16129936D02*
X9963039Y-16110888D01*
X9963039Y-16110888D02*
X9953515Y-16072793D01*
X9953515Y-16072793D02*
X9953515Y-16025174D01*
X9953515Y-16025174D02*
X9963039Y-15987079D01*
X9963039Y-15987079D02*
X9972563Y-15968031D01*
X9972563Y-15968031D02*
X9982087Y-15958508D01*
X9982087Y-15958508D02*
X10001134Y-15948984D01*
X10153515Y-16129936D02*
X10163039Y-16139460D01*
X10163039Y-16139460D02*
X10153515Y-16148984D01*
X10153515Y-16148984D02*
X10143991Y-16139460D01*
X10143991Y-16139460D02*
X10153515Y-16129936D01*
X10153515Y-16129936D02*
X10153515Y-16148984D01*
X10286848Y-15948984D02*
X10305896Y-15948984D01*
X10305896Y-15948984D02*
X10324944Y-15958508D01*
X10324944Y-15958508D02*
X10334468Y-15968031D01*
X10334468Y-15968031D02*
X10343991Y-15987079D01*
X10343991Y-15987079D02*
X10353515Y-16025174D01*
X10353515Y-16025174D02*
X10353515Y-16072793D01*
X10353515Y-16072793D02*
X10343991Y-16110888D01*
X10343991Y-16110888D02*
X10334468Y-16129936D01*
X10334468Y-16129936D02*
X10324944Y-16139460D01*
X10324944Y-16139460D02*
X10305896Y-16148984D01*
X10305896Y-16148984D02*
X10286848Y-16148984D01*
X10286848Y-16148984D02*
X10267801Y-16139460D01*
X10267801Y-16139460D02*
X10258277Y-16129936D01*
X10258277Y-16129936D02*
X10248753Y-16110888D01*
X10248753Y-16110888D02*
X10239229Y-16072793D01*
X10239229Y-16072793D02*
X10239229Y-16025174D01*
X10239229Y-16025174D02*
X10248753Y-15987079D01*
X10248753Y-15987079D02*
X10258277Y-15968031D01*
X10258277Y-15968031D02*
X10267801Y-15958508D01*
X10267801Y-15958508D02*
X10286848Y-15948984D01*
X10534468Y-15948984D02*
X10439229Y-15948984D01*
X10439229Y-15948984D02*
X10429706Y-16044222D01*
X10429706Y-16044222D02*
X10439229Y-16034698D01*
X10439229Y-16034698D02*
X10458277Y-16025174D01*
X10458277Y-16025174D02*
X10505896Y-16025174D01*
X10505896Y-16025174D02*
X10524944Y-16034698D01*
X10524944Y-16034698D02*
X10534468Y-16044222D01*
X10534468Y-16044222D02*
X10543991Y-16063269D01*
X10543991Y-16063269D02*
X10543991Y-16110888D01*
X10543991Y-16110888D02*
X10534468Y-16129936D01*
X10534468Y-16129936D02*
X10524944Y-16139460D01*
X10524944Y-16139460D02*
X10505896Y-16148984D01*
X10505896Y-16148984D02*
X10458277Y-16148984D01*
X10458277Y-16148984D02*
X10439229Y-16139460D01*
X10439229Y-16139460D02*
X10429706Y-16129936D01*
X10724944Y-15948984D02*
X10629706Y-15948984D01*
X10629706Y-15948984D02*
X10620182Y-16044222D01*
X10620182Y-16044222D02*
X10629706Y-16034698D01*
X10629706Y-16034698D02*
X10648753Y-16025174D01*
X10648753Y-16025174D02*
X10696372Y-16025174D01*
X10696372Y-16025174D02*
X10715420Y-16034698D01*
X10715420Y-16034698D02*
X10724944Y-16044222D01*
X10724944Y-16044222D02*
X10734468Y-16063269D01*
X10734468Y-16063269D02*
X10734468Y-16110888D01*
X10734468Y-16110888D02*
X10724944Y-16129936D01*
X10724944Y-16129936D02*
X10715420Y-16139460D01*
X10715420Y-16139460D02*
X10696372Y-16148984D01*
X10696372Y-16148984D02*
X10648753Y-16148984D01*
X10648753Y-16148984D02*
X10629706Y-16139460D01*
X10629706Y-16139460D02*
X10620182Y-16129936D01*
X10858277Y-15948984D02*
X10877325Y-15948984D01*
X10877325Y-15948984D02*
X10896372Y-15958508D01*
X10896372Y-15958508D02*
X10905896Y-15968031D01*
X10905896Y-15968031D02*
X10915420Y-15987079D01*
X10915420Y-15987079D02*
X10924944Y-16025174D01*
X10924944Y-16025174D02*
X10924944Y-16072793D01*
X10924944Y-16072793D02*
X10915420Y-16110888D01*
X10915420Y-16110888D02*
X10905896Y-16129936D01*
X10905896Y-16129936D02*
X10896372Y-16139460D01*
X10896372Y-16139460D02*
X10877325Y-16148984D01*
X10877325Y-16148984D02*
X10858277Y-16148984D01*
X10858277Y-16148984D02*
X10839229Y-16139460D01*
X10839229Y-16139460D02*
X10829706Y-16129936D01*
X10829706Y-16129936D02*
X10820182Y-16110888D01*
X10820182Y-16110888D02*
X10810658Y-16072793D01*
X10810658Y-16072793D02*
X10810658Y-16025174D01*
X10810658Y-16025174D02*
X10820182Y-15987079D01*
X10820182Y-15987079D02*
X10829706Y-15968031D01*
X10829706Y-15968031D02*
X10839229Y-15958508D01*
X10839229Y-15958508D02*
X10858277Y-15948984D01*
X11001134Y-15948984D02*
X11001134Y-15987079D01*
X11077325Y-15948984D02*
X11077325Y-15987079D01*
X11372563Y-16225174D02*
X11363039Y-16215650D01*
X11363039Y-16215650D02*
X11343991Y-16187079D01*
X11343991Y-16187079D02*
X11334468Y-16168031D01*
X11334468Y-16168031D02*
X11324944Y-16139460D01*
X11324944Y-16139460D02*
X11315420Y-16091841D01*
X11315420Y-16091841D02*
X11315420Y-16053746D01*
X11315420Y-16053746D02*
X11324944Y-16006127D01*
X11324944Y-16006127D02*
X11334468Y-15977555D01*
X11334468Y-15977555D02*
X11343991Y-15958508D01*
X11343991Y-15958508D02*
X11363039Y-15929936D01*
X11363039Y-15929936D02*
X11372563Y-15920412D01*
X11534468Y-16015650D02*
X11534468Y-16148984D01*
X11486848Y-15939460D02*
X11439229Y-16082317D01*
X11439229Y-16082317D02*
X11563039Y-16082317D01*
X11791610Y-16148984D02*
X11791610Y-15948984D01*
X11877325Y-16148984D02*
X11877325Y-16044222D01*
X11877325Y-16044222D02*
X11867801Y-16025174D01*
X11867801Y-16025174D02*
X11848753Y-16015650D01*
X11848753Y-16015650D02*
X11820182Y-16015650D01*
X11820182Y-16015650D02*
X11801134Y-16025174D01*
X11801134Y-16025174D02*
X11791610Y-16034698D01*
X12001134Y-16148984D02*
X11982087Y-16139460D01*
X11982087Y-16139460D02*
X11972563Y-16129936D01*
X11972563Y-16129936D02*
X11963039Y-16110888D01*
X11963039Y-16110888D02*
X11963039Y-16053746D01*
X11963039Y-16053746D02*
X11972563Y-16034698D01*
X11972563Y-16034698D02*
X11982087Y-16025174D01*
X11982087Y-16025174D02*
X12001134Y-16015650D01*
X12001134Y-16015650D02*
X12029706Y-16015650D01*
X12029706Y-16015650D02*
X12048753Y-16025174D01*
X12048753Y-16025174D02*
X12058277Y-16034698D01*
X12058277Y-16034698D02*
X12067801Y-16053746D01*
X12067801Y-16053746D02*
X12067801Y-16110888D01*
X12067801Y-16110888D02*
X12058277Y-16129936D01*
X12058277Y-16129936D02*
X12048753Y-16139460D01*
X12048753Y-16139460D02*
X12029706Y-16148984D01*
X12029706Y-16148984D02*
X12001134Y-16148984D01*
X12182087Y-16148984D02*
X12163039Y-16139460D01*
X12163039Y-16139460D02*
X12153515Y-16120412D01*
X12153515Y-16120412D02*
X12153515Y-15948984D01*
X12334468Y-16139460D02*
X12315420Y-16148984D01*
X12315420Y-16148984D02*
X12277325Y-16148984D01*
X12277325Y-16148984D02*
X12258277Y-16139460D01*
X12258277Y-16139460D02*
X12248753Y-16120412D01*
X12248753Y-16120412D02*
X12248753Y-16044222D01*
X12248753Y-16044222D02*
X12258277Y-16025174D01*
X12258277Y-16025174D02*
X12277325Y-16015650D01*
X12277325Y-16015650D02*
X12315420Y-16015650D01*
X12315420Y-16015650D02*
X12334468Y-16025174D01*
X12334468Y-16025174D02*
X12343991Y-16044222D01*
X12343991Y-16044222D02*
X12343991Y-16063269D01*
X12343991Y-16063269D02*
X12248753Y-16082317D01*
X12420182Y-16139460D02*
X12439230Y-16148984D01*
X12439230Y-16148984D02*
X12477325Y-16148984D01*
X12477325Y-16148984D02*
X12496372Y-16139460D01*
X12496372Y-16139460D02*
X12505896Y-16120412D01*
X12505896Y-16120412D02*
X12505896Y-16110888D01*
X12505896Y-16110888D02*
X12496372Y-16091841D01*
X12496372Y-16091841D02*
X12477325Y-16082317D01*
X12477325Y-16082317D02*
X12448753Y-16082317D01*
X12448753Y-16082317D02*
X12429706Y-16072793D01*
X12429706Y-16072793D02*
X12420182Y-16053746D01*
X12420182Y-16053746D02*
X12420182Y-16044222D01*
X12420182Y-16044222D02*
X12429706Y-16025174D01*
X12429706Y-16025174D02*
X12448753Y-16015650D01*
X12448753Y-16015650D02*
X12477325Y-16015650D01*
X12477325Y-16015650D02*
X12496372Y-16025174D01*
X12572563Y-16225174D02*
X12582087Y-16215650D01*
X12582087Y-16215650D02*
X12601134Y-16187079D01*
X12601134Y-16187079D02*
X12610658Y-16168031D01*
X12610658Y-16168031D02*
X12620182Y-16139460D01*
X12620182Y-16139460D02*
X12629706Y-16091841D01*
X12629706Y-16091841D02*
X12629706Y-16053746D01*
X12629706Y-16053746D02*
X12620182Y-16006127D01*
X12620182Y-16006127D02*
X12610658Y-15977555D01*
X12610658Y-15977555D02*
X12601134Y-15958508D01*
X12601134Y-15958508D02*
X12582087Y-15929936D01*
X12582087Y-15929936D02*
X12572563Y-15920412D01*
D15*
X7727500Y-16391500D02*
X7797500Y-16321500D01*
X7727500Y-16251500D01*
X7657500Y-16321500D01*
X7727500Y-16391500D01*
X7797500Y-16321500D02*
G75*
G02*
X7657500Y-16321500I-70000J0D01*
G01*
X7657500Y-16321500D02*
G75*
G02*
X7797500Y-16321500I70000J0D01*
G01*
D11*
X8163039Y-16412984D02*
X8048753Y-16412984D01*
X8105896Y-16412984D02*
X8105896Y-16212984D01*
X8105896Y-16212984D02*
X8086848Y-16241555D01*
X8086848Y-16241555D02*
X8067801Y-16260603D01*
X8067801Y-16260603D02*
X8048753Y-16270127D01*
X8248753Y-16393936D02*
X8258277Y-16403460D01*
X8258277Y-16403460D02*
X8248753Y-16412984D01*
X8248753Y-16412984D02*
X8239229Y-16403460D01*
X8239229Y-16403460D02*
X8248753Y-16393936D01*
X8248753Y-16393936D02*
X8248753Y-16412984D01*
X8429705Y-16279650D02*
X8429705Y-16412984D01*
X8382086Y-16203460D02*
X8334467Y-16346317D01*
X8334467Y-16346317D02*
X8458277Y-16346317D01*
X8572563Y-16212984D02*
X8591610Y-16212984D01*
X8591610Y-16212984D02*
X8610658Y-16222508D01*
X8610658Y-16222508D02*
X8620182Y-16232031D01*
X8620182Y-16232031D02*
X8629705Y-16251079D01*
X8629705Y-16251079D02*
X8639229Y-16289174D01*
X8639229Y-16289174D02*
X8639229Y-16336793D01*
X8639229Y-16336793D02*
X8629705Y-16374888D01*
X8629705Y-16374888D02*
X8620182Y-16393936D01*
X8620182Y-16393936D02*
X8610658Y-16403460D01*
X8610658Y-16403460D02*
X8591610Y-16412984D01*
X8591610Y-16412984D02*
X8572563Y-16412984D01*
X8572563Y-16412984D02*
X8553515Y-16403460D01*
X8553515Y-16403460D02*
X8543991Y-16393936D01*
X8543991Y-16393936D02*
X8534467Y-16374888D01*
X8534467Y-16374888D02*
X8524944Y-16336793D01*
X8524944Y-16336793D02*
X8524944Y-16289174D01*
X8524944Y-16289174D02*
X8534467Y-16251079D01*
X8534467Y-16251079D02*
X8543991Y-16232031D01*
X8543991Y-16232031D02*
X8553515Y-16222508D01*
X8553515Y-16222508D02*
X8572563Y-16212984D01*
X8763039Y-16212984D02*
X8782086Y-16212984D01*
X8782086Y-16212984D02*
X8801134Y-16222508D01*
X8801134Y-16222508D02*
X8810658Y-16232031D01*
X8810658Y-16232031D02*
X8820182Y-16251079D01*
X8820182Y-16251079D02*
X8829705Y-16289174D01*
X8829705Y-16289174D02*
X8829705Y-16336793D01*
X8829705Y-16336793D02*
X8820182Y-16374888D01*
X8820182Y-16374888D02*
X8810658Y-16393936D01*
X8810658Y-16393936D02*
X8801134Y-16403460D01*
X8801134Y-16403460D02*
X8782086Y-16412984D01*
X8782086Y-16412984D02*
X8763039Y-16412984D01*
X8763039Y-16412984D02*
X8743991Y-16403460D01*
X8743991Y-16403460D02*
X8734467Y-16393936D01*
X8734467Y-16393936D02*
X8724944Y-16374888D01*
X8724944Y-16374888D02*
X8715420Y-16336793D01*
X8715420Y-16336793D02*
X8715420Y-16289174D01*
X8715420Y-16289174D02*
X8724944Y-16251079D01*
X8724944Y-16251079D02*
X8734467Y-16232031D01*
X8734467Y-16232031D02*
X8743991Y-16222508D01*
X8743991Y-16222508D02*
X8763039Y-16212984D01*
X8915420Y-16412984D02*
X8915420Y-16279650D01*
X8915420Y-16298698D02*
X8924944Y-16289174D01*
X8924944Y-16289174D02*
X8943991Y-16279650D01*
X8943991Y-16279650D02*
X8972563Y-16279650D01*
X8972563Y-16279650D02*
X8991610Y-16289174D01*
X8991610Y-16289174D02*
X9001134Y-16308222D01*
X9001134Y-16308222D02*
X9001134Y-16412984D01*
X9001134Y-16308222D02*
X9010658Y-16289174D01*
X9010658Y-16289174D02*
X9029705Y-16279650D01*
X9029705Y-16279650D02*
X9058277Y-16279650D01*
X9058277Y-16279650D02*
X9077325Y-16289174D01*
X9077325Y-16289174D02*
X9086848Y-16308222D01*
X9086848Y-16308222D02*
X9086848Y-16412984D01*
X9182086Y-16412984D02*
X9182086Y-16279650D01*
X9182086Y-16298698D02*
X9191610Y-16289174D01*
X9191610Y-16289174D02*
X9210658Y-16279650D01*
X9210658Y-16279650D02*
X9239229Y-16279650D01*
X9239229Y-16279650D02*
X9258277Y-16289174D01*
X9258277Y-16289174D02*
X9267801Y-16308222D01*
X9267801Y-16308222D02*
X9267801Y-16412984D01*
X9267801Y-16308222D02*
X9277325Y-16289174D01*
X9277325Y-16289174D02*
X9296372Y-16279650D01*
X9296372Y-16279650D02*
X9324944Y-16279650D01*
X9324944Y-16279650D02*
X9343991Y-16289174D01*
X9343991Y-16289174D02*
X9353515Y-16308222D01*
X9353515Y-16308222D02*
X9353515Y-16412984D01*
X9743991Y-16203460D02*
X9572563Y-16460603D01*
X10001134Y-16212984D02*
X10020182Y-16212984D01*
X10020182Y-16212984D02*
X10039229Y-16222508D01*
X10039229Y-16222508D02*
X10048753Y-16232031D01*
X10048753Y-16232031D02*
X10058277Y-16251079D01*
X10058277Y-16251079D02*
X10067801Y-16289174D01*
X10067801Y-16289174D02*
X10067801Y-16336793D01*
X10067801Y-16336793D02*
X10058277Y-16374888D01*
X10058277Y-16374888D02*
X10048753Y-16393936D01*
X10048753Y-16393936D02*
X10039229Y-16403460D01*
X10039229Y-16403460D02*
X10020182Y-16412984D01*
X10020182Y-16412984D02*
X10001134Y-16412984D01*
X10001134Y-16412984D02*
X9982087Y-16403460D01*
X9982087Y-16403460D02*
X9972563Y-16393936D01*
X9972563Y-16393936D02*
X9963039Y-16374888D01*
X9963039Y-16374888D02*
X9953515Y-16336793D01*
X9953515Y-16336793D02*
X9953515Y-16289174D01*
X9953515Y-16289174D02*
X9963039Y-16251079D01*
X9963039Y-16251079D02*
X9972563Y-16232031D01*
X9972563Y-16232031D02*
X9982087Y-16222508D01*
X9982087Y-16222508D02*
X10001134Y-16212984D01*
X10153515Y-16393936D02*
X10163039Y-16403460D01*
X10163039Y-16403460D02*
X10153515Y-16412984D01*
X10153515Y-16412984D02*
X10143991Y-16403460D01*
X10143991Y-16403460D02*
X10153515Y-16393936D01*
X10153515Y-16393936D02*
X10153515Y-16412984D01*
X10286848Y-16212984D02*
X10305896Y-16212984D01*
X10305896Y-16212984D02*
X10324944Y-16222508D01*
X10324944Y-16222508D02*
X10334468Y-16232031D01*
X10334468Y-16232031D02*
X10343991Y-16251079D01*
X10343991Y-16251079D02*
X10353515Y-16289174D01*
X10353515Y-16289174D02*
X10353515Y-16336793D01*
X10353515Y-16336793D02*
X10343991Y-16374888D01*
X10343991Y-16374888D02*
X10334468Y-16393936D01*
X10334468Y-16393936D02*
X10324944Y-16403460D01*
X10324944Y-16403460D02*
X10305896Y-16412984D01*
X10305896Y-16412984D02*
X10286848Y-16412984D01*
X10286848Y-16412984D02*
X10267801Y-16403460D01*
X10267801Y-16403460D02*
X10258277Y-16393936D01*
X10258277Y-16393936D02*
X10248753Y-16374888D01*
X10248753Y-16374888D02*
X10239229Y-16336793D01*
X10239229Y-16336793D02*
X10239229Y-16289174D01*
X10239229Y-16289174D02*
X10248753Y-16251079D01*
X10248753Y-16251079D02*
X10258277Y-16232031D01*
X10258277Y-16232031D02*
X10267801Y-16222508D01*
X10267801Y-16222508D02*
X10286848Y-16212984D01*
X10534468Y-16212984D02*
X10439229Y-16212984D01*
X10439229Y-16212984D02*
X10429706Y-16308222D01*
X10429706Y-16308222D02*
X10439229Y-16298698D01*
X10439229Y-16298698D02*
X10458277Y-16289174D01*
X10458277Y-16289174D02*
X10505896Y-16289174D01*
X10505896Y-16289174D02*
X10524944Y-16298698D01*
X10524944Y-16298698D02*
X10534468Y-16308222D01*
X10534468Y-16308222D02*
X10543991Y-16327269D01*
X10543991Y-16327269D02*
X10543991Y-16374888D01*
X10543991Y-16374888D02*
X10534468Y-16393936D01*
X10534468Y-16393936D02*
X10524944Y-16403460D01*
X10524944Y-16403460D02*
X10505896Y-16412984D01*
X10505896Y-16412984D02*
X10458277Y-16412984D01*
X10458277Y-16412984D02*
X10439229Y-16403460D01*
X10439229Y-16403460D02*
X10429706Y-16393936D01*
X10724944Y-16212984D02*
X10629706Y-16212984D01*
X10629706Y-16212984D02*
X10620182Y-16308222D01*
X10620182Y-16308222D02*
X10629706Y-16298698D01*
X10629706Y-16298698D02*
X10648753Y-16289174D01*
X10648753Y-16289174D02*
X10696372Y-16289174D01*
X10696372Y-16289174D02*
X10715420Y-16298698D01*
X10715420Y-16298698D02*
X10724944Y-16308222D01*
X10724944Y-16308222D02*
X10734468Y-16327269D01*
X10734468Y-16327269D02*
X10734468Y-16374888D01*
X10734468Y-16374888D02*
X10724944Y-16393936D01*
X10724944Y-16393936D02*
X10715420Y-16403460D01*
X10715420Y-16403460D02*
X10696372Y-16412984D01*
X10696372Y-16412984D02*
X10648753Y-16412984D01*
X10648753Y-16412984D02*
X10629706Y-16403460D01*
X10629706Y-16403460D02*
X10620182Y-16393936D01*
X10924944Y-16412984D02*
X10810658Y-16412984D01*
X10867801Y-16412984D02*
X10867801Y-16212984D01*
X10867801Y-16212984D02*
X10848753Y-16241555D01*
X10848753Y-16241555D02*
X10829706Y-16260603D01*
X10829706Y-16260603D02*
X10810658Y-16270127D01*
X11001134Y-16212984D02*
X11001134Y-16251079D01*
X11077325Y-16212984D02*
X11077325Y-16251079D01*
X11372563Y-16489174D02*
X11363039Y-16479650D01*
X11363039Y-16479650D02*
X11343991Y-16451079D01*
X11343991Y-16451079D02*
X11334468Y-16432031D01*
X11334468Y-16432031D02*
X11324944Y-16403460D01*
X11324944Y-16403460D02*
X11315420Y-16355841D01*
X11315420Y-16355841D02*
X11315420Y-16317746D01*
X11315420Y-16317746D02*
X11324944Y-16270127D01*
X11324944Y-16270127D02*
X11334468Y-16241555D01*
X11334468Y-16241555D02*
X11343991Y-16222508D01*
X11343991Y-16222508D02*
X11363039Y-16193936D01*
X11363039Y-16193936D02*
X11372563Y-16184412D01*
X11439229Y-16232031D02*
X11448753Y-16222508D01*
X11448753Y-16222508D02*
X11467801Y-16212984D01*
X11467801Y-16212984D02*
X11515420Y-16212984D01*
X11515420Y-16212984D02*
X11534468Y-16222508D01*
X11534468Y-16222508D02*
X11543991Y-16232031D01*
X11543991Y-16232031D02*
X11553515Y-16251079D01*
X11553515Y-16251079D02*
X11553515Y-16270127D01*
X11553515Y-16270127D02*
X11543991Y-16298698D01*
X11543991Y-16298698D02*
X11429706Y-16412984D01*
X11429706Y-16412984D02*
X11553515Y-16412984D01*
X11667801Y-16298698D02*
X11648753Y-16289174D01*
X11648753Y-16289174D02*
X11639229Y-16279650D01*
X11639229Y-16279650D02*
X11629706Y-16260603D01*
X11629706Y-16260603D02*
X11629706Y-16251079D01*
X11629706Y-16251079D02*
X11639229Y-16232031D01*
X11639229Y-16232031D02*
X11648753Y-16222508D01*
X11648753Y-16222508D02*
X11667801Y-16212984D01*
X11667801Y-16212984D02*
X11705896Y-16212984D01*
X11705896Y-16212984D02*
X11724944Y-16222508D01*
X11724944Y-16222508D02*
X11734468Y-16232031D01*
X11734468Y-16232031D02*
X11743991Y-16251079D01*
X11743991Y-16251079D02*
X11743991Y-16260603D01*
X11743991Y-16260603D02*
X11734468Y-16279650D01*
X11734468Y-16279650D02*
X11724944Y-16289174D01*
X11724944Y-16289174D02*
X11705896Y-16298698D01*
X11705896Y-16298698D02*
X11667801Y-16298698D01*
X11667801Y-16298698D02*
X11648753Y-16308222D01*
X11648753Y-16308222D02*
X11639229Y-16317746D01*
X11639229Y-16317746D02*
X11629706Y-16336793D01*
X11629706Y-16336793D02*
X11629706Y-16374888D01*
X11629706Y-16374888D02*
X11639229Y-16393936D01*
X11639229Y-16393936D02*
X11648753Y-16403460D01*
X11648753Y-16403460D02*
X11667801Y-16412984D01*
X11667801Y-16412984D02*
X11705896Y-16412984D01*
X11705896Y-16412984D02*
X11724944Y-16403460D01*
X11724944Y-16403460D02*
X11734468Y-16393936D01*
X11734468Y-16393936D02*
X11743991Y-16374888D01*
X11743991Y-16374888D02*
X11743991Y-16336793D01*
X11743991Y-16336793D02*
X11734468Y-16317746D01*
X11734468Y-16317746D02*
X11724944Y-16308222D01*
X11724944Y-16308222D02*
X11705896Y-16298698D01*
X11982087Y-16412984D02*
X11982087Y-16212984D01*
X12067801Y-16412984D02*
X12067801Y-16308222D01*
X12067801Y-16308222D02*
X12058277Y-16289174D01*
X12058277Y-16289174D02*
X12039230Y-16279650D01*
X12039230Y-16279650D02*
X12010658Y-16279650D01*
X12010658Y-16279650D02*
X11991610Y-16289174D01*
X11991610Y-16289174D02*
X11982087Y-16298698D01*
X12191610Y-16412984D02*
X12172563Y-16403460D01*
X12172563Y-16403460D02*
X12163039Y-16393936D01*
X12163039Y-16393936D02*
X12153515Y-16374888D01*
X12153515Y-16374888D02*
X12153515Y-16317746D01*
X12153515Y-16317746D02*
X12163039Y-16298698D01*
X12163039Y-16298698D02*
X12172563Y-16289174D01*
X12172563Y-16289174D02*
X12191610Y-16279650D01*
X12191610Y-16279650D02*
X12220182Y-16279650D01*
X12220182Y-16279650D02*
X12239230Y-16289174D01*
X12239230Y-16289174D02*
X12248753Y-16298698D01*
X12248753Y-16298698D02*
X12258277Y-16317746D01*
X12258277Y-16317746D02*
X12258277Y-16374888D01*
X12258277Y-16374888D02*
X12248753Y-16393936D01*
X12248753Y-16393936D02*
X12239230Y-16403460D01*
X12239230Y-16403460D02*
X12220182Y-16412984D01*
X12220182Y-16412984D02*
X12191610Y-16412984D01*
X12372563Y-16412984D02*
X12353515Y-16403460D01*
X12353515Y-16403460D02*
X12343991Y-16384412D01*
X12343991Y-16384412D02*
X12343991Y-16212984D01*
X12524944Y-16403460D02*
X12505896Y-16412984D01*
X12505896Y-16412984D02*
X12467801Y-16412984D01*
X12467801Y-16412984D02*
X12448753Y-16403460D01*
X12448753Y-16403460D02*
X12439230Y-16384412D01*
X12439230Y-16384412D02*
X12439230Y-16308222D01*
X12439230Y-16308222D02*
X12448753Y-16289174D01*
X12448753Y-16289174D02*
X12467801Y-16279650D01*
X12467801Y-16279650D02*
X12505896Y-16279650D01*
X12505896Y-16279650D02*
X12524944Y-16289174D01*
X12524944Y-16289174D02*
X12534468Y-16308222D01*
X12534468Y-16308222D02*
X12534468Y-16327269D01*
X12534468Y-16327269D02*
X12439230Y-16346317D01*
X12610658Y-16403460D02*
X12629706Y-16412984D01*
X12629706Y-16412984D02*
X12667801Y-16412984D01*
X12667801Y-16412984D02*
X12686849Y-16403460D01*
X12686849Y-16403460D02*
X12696372Y-16384412D01*
X12696372Y-16384412D02*
X12696372Y-16374888D01*
X12696372Y-16374888D02*
X12686849Y-16355841D01*
X12686849Y-16355841D02*
X12667801Y-16346317D01*
X12667801Y-16346317D02*
X12639230Y-16346317D01*
X12639230Y-16346317D02*
X12620182Y-16336793D01*
X12620182Y-16336793D02*
X12610658Y-16317746D01*
X12610658Y-16317746D02*
X12610658Y-16308222D01*
X12610658Y-16308222D02*
X12620182Y-16289174D01*
X12620182Y-16289174D02*
X12639230Y-16279650D01*
X12639230Y-16279650D02*
X12667801Y-16279650D01*
X12667801Y-16279650D02*
X12686849Y-16289174D01*
X12763039Y-16489174D02*
X12772563Y-16479650D01*
X12772563Y-16479650D02*
X12791611Y-16451079D01*
X12791611Y-16451079D02*
X12801134Y-16432031D01*
X12801134Y-16432031D02*
X12810658Y-16403460D01*
X12810658Y-16403460D02*
X12820182Y-16355841D01*
X12820182Y-16355841D02*
X12820182Y-16317746D01*
X12820182Y-16317746D02*
X12810658Y-16270127D01*
X12810658Y-16270127D02*
X12801134Y-16241555D01*
X12801134Y-16241555D02*
X12791611Y-16222508D01*
X12791611Y-16222508D02*
X12772563Y-16193936D01*
X12772563Y-16193936D02*
X12763039Y-16184412D01*
M02*
