%TF.GenerationSoftware,KiCad,Pcbnew,8.0.4*%
%TF.CreationDate,2025-03-19T10:06:25-07:00*%
%TF.ProjectId,aqp_controller,6171705f-636f-46e7-9472-6f6c6c65722e,rev0*%
%TF.SameCoordinates,Original*%
%TF.FileFunction,Legend,Bot*%
%TF.FilePolarity,Positive*%
%FSLAX46Y46*%
G04 Gerber Fmt 4.6, Leading zero omitted, Abs format (unit mm)*
G04 Created by KiCad (PCBNEW 8.0.4) date 2025-03-19 10:06:25*
%MOMM*%
%LPD*%
G01*
G04 APERTURE LIST*
G04 Aperture macros list*
%AMRoundRect*
0 Rectangle with rounded corners*
0 $1 Rounding radius*
0 $2 $3 $4 $5 $6 $7 $8 $9 X,Y pos of 4 corners*
0 Add a 4 corners polygon primitive as box body*
4,1,4,$2,$3,$4,$5,$6,$7,$8,$9,$2,$3,0*
0 Add four circle primitives for the rounded corners*
1,1,$1+$1,$2,$3*
1,1,$1+$1,$4,$5*
1,1,$1+$1,$6,$7*
1,1,$1+$1,$8,$9*
0 Add four rect primitives between the rounded corners*
20,1,$1+$1,$2,$3,$4,$5,0*
20,1,$1+$1,$4,$5,$6,$7,0*
20,1,$1+$1,$6,$7,$8,$9,0*
20,1,$1+$1,$8,$9,$2,$3,0*%
G04 Aperture macros list end*
%ADD10C,0.200000*%
%ADD11C,0.750000*%
%ADD12C,0.500000*%
%ADD13C,0.100000*%
%ADD14C,0.150000*%
%ADD15C,0.127000*%
%ADD16C,0.120000*%
%ADD17RoundRect,0.102000X-1.050000X-1.050000X1.050000X-1.050000X1.050000X1.050000X-1.050000X1.050000X0*%
%ADD18C,2.304000*%
%ADD19C,2.154000*%
%ADD20C,1.712000*%
%ADD21R,1.700000X1.700000*%
%ADD22O,1.700000X1.700000*%
%ADD23RoundRect,0.102000X1.376798X-0.556262X0.556262X1.376798X-1.376798X0.556262X-0.556262X-1.376798X0*%
%ADD24C,1.982000*%
%ADD25C,2.490000*%
%ADD26RoundRect,0.102000X0.556262X1.376798X-1.376798X0.556262X-0.556262X-1.376798X1.376798X-0.556262X0*%
%ADD27RoundRect,0.102000X0.206662X1.470473X-1.470473X0.206662X-0.206662X-1.470473X1.470473X-0.206662X0*%
%ADD28O,0.890000X1.550000*%
%ADD29O,1.250000X0.950000*%
%ADD30RoundRect,0.102000X1.470473X-0.206662X0.206662X1.470473X-1.470473X0.206662X-0.206662X-1.470473X0*%
%ADD31RoundRect,0.102000X1.476790X0.155217X-0.155217X1.476790X-1.476790X-0.155217X0.155217X-1.476790X0*%
%ADD32RoundRect,0.102000X-0.155217X1.476790X-1.476790X-0.155217X0.155217X-1.476790X1.476790X0.155217X0*%
%ADD33RoundRect,0.102000X-0.654000X0.654000X-0.654000X-0.654000X0.654000X-0.654000X0.654000X0.654000X0*%
%ADD34C,1.512000*%
G04 APERTURE END LIST*
D10*
X133679792Y-112704115D02*
X133225429Y-114856684D01*
X133060206Y-115639437D02*
X132605842Y-117792006D01*
D11*
X113481878Y-81959008D02*
X114007234Y-81302978D01*
X114549322Y-80665686D01*
X115107521Y-80047074D01*
X115681213Y-79447086D01*
X116269780Y-78865668D01*
X116872602Y-78302763D01*
X117117584Y-78082773D01*
D10*
X142875000Y-97475000D02*
X144968455Y-96798653D01*
X145729712Y-96552709D02*
X147823167Y-95876361D01*
X148584423Y-95630417D02*
X150677878Y-94954070D01*
X151439135Y-94708126D02*
X153532590Y-94031779D01*
D11*
X123037020Y-90274170D02*
X121309693Y-98197508D01*
X135082867Y-84654239D02*
X133062246Y-93923053D01*
X108514581Y-107887158D02*
X108292227Y-107074818D01*
X108093880Y-106256455D01*
X107919533Y-105432629D01*
X107769179Y-104603897D01*
X107642812Y-103770821D01*
X107540425Y-102933960D01*
X107462011Y-102093872D01*
X107407563Y-101251118D01*
X129314300Y-111115206D02*
X138045283Y-114293024D01*
D10*
X92600000Y-118300000D02*
X90604147Y-119225511D01*
X89878382Y-119562060D02*
X87882529Y-120487571D01*
X87156764Y-120824120D02*
X85160911Y-121749631D01*
X84435146Y-122086180D02*
X82439293Y-123011691D01*
X81713528Y-123348240D02*
X79717675Y-124273751D01*
X78991910Y-124610300D02*
X78475000Y-124850000D01*
D11*
X107406251Y-101234997D02*
X107406827Y-101233168D01*
D12*
X92302103Y-115318995D02*
X92302103Y-115318995D01*
X91668273Y-113422246D02*
X91668273Y-113422246D01*
X91115682Y-111500257D02*
X91115682Y-111500257D01*
X90645331Y-109556506D02*
X90645331Y-109556506D01*
X90258071Y-107594511D02*
X90258071Y-107594511D01*
X89954602Y-105617821D02*
X89954602Y-105617821D01*
X89735474Y-103630013D02*
X89735474Y-103630013D01*
X89601082Y-101634684D02*
X89601082Y-101634684D01*
X89551670Y-99635446D02*
X89551670Y-99635446D01*
X89587329Y-97635915D02*
X89587329Y-97635915D01*
X89707992Y-95639709D02*
X89707992Y-95639709D01*
X89913441Y-93650441D02*
X89913441Y-93650441D01*
X90203306Y-91671710D02*
X90203306Y-91671710D01*
X90577061Y-89707097D02*
X90577061Y-89707097D01*
X91034030Y-87760157D02*
X91034030Y-87760157D01*
X91573387Y-85834413D02*
X91573387Y-85834413D01*
D11*
X165115182Y-95901787D02*
X171028512Y-88865262D01*
D12*
X174037525Y-105669006D02*
X174037525Y-105669006D01*
X173659516Y-107632723D02*
X173659516Y-107632723D01*
X173178676Y-109573823D02*
X173178676Y-109573823D01*
X172596337Y-111486924D02*
X172596337Y-111486924D01*
D11*
X154191892Y-106258651D02*
X154502462Y-105333221D01*
X154763024Y-104403223D01*
X154974290Y-103470183D01*
X155136971Y-102535628D01*
X155251781Y-101601086D01*
X155319430Y-100668084D01*
X155340632Y-99738148D01*
X155316099Y-98812807D01*
X155246541Y-97893587D01*
X155132673Y-96982015D01*
X154975205Y-96079619D01*
X154774849Y-95187925D01*
X154532319Y-94308460D01*
X154248326Y-93442753D01*
X153923582Y-92592330D01*
X153558800Y-91758718D01*
X153154691Y-90943443D01*
X152711968Y-90148035D01*
X152231342Y-89374019D01*
X151713526Y-88622922D01*
X151159233Y-87896273D01*
X150569173Y-87195597D01*
X149944060Y-86522422D01*
X149284605Y-85878276D01*
X148591521Y-85264685D01*
X147865519Y-84683176D01*
X147107312Y-84135277D01*
X146317612Y-83622515D01*
X145497130Y-83146417D01*
X144646580Y-82708509D01*
X143766674Y-82310320D01*
X142858123Y-81953377D01*
X110028810Y-87665103D02*
X110392940Y-86904052D01*
X110778411Y-86153960D01*
X111184194Y-85416175D01*
X111609263Y-84692043D01*
X112052593Y-83982913D01*
X112513156Y-83290132D01*
X112989926Y-82615048D01*
X113481878Y-81959008D01*
X141793855Y-97101099D02*
X143814476Y-87832284D01*
D10*
X186225000Y-115675000D02*
X188315525Y-116360351D01*
X189075715Y-116609570D02*
X191166240Y-117294922D01*
X191926431Y-117544140D02*
X194016956Y-118229492D01*
X194777146Y-118478710D02*
X196867671Y-119164062D01*
X197627862Y-119413281D02*
X199718387Y-120098632D01*
X200478577Y-120347851D02*
X202569102Y-121033202D01*
X203329293Y-121282421D02*
X205419817Y-121967772D01*
X206180008Y-122216991D02*
X208270533Y-122902342D01*
X209030724Y-123151561D02*
X211121248Y-123836913D01*
X211881439Y-124086131D02*
X212000000Y-124125000D01*
D12*
X168377202Y-120222420D02*
X168377202Y-120222420D01*
X167241029Y-121868077D02*
X167241029Y-121868077D01*
X166019815Y-123451653D02*
X166019815Y-123451653D01*
X164716945Y-124968757D02*
X164716945Y-124968757D01*
X163336030Y-126415183D02*
X163336030Y-126415183D01*
D10*
X111587500Y-75587500D02*
X110001957Y-74062359D01*
X109425397Y-73507762D02*
X107839854Y-71982621D01*
D11*
X150093008Y-108673778D02*
X151820335Y-100750439D01*
X171028512Y-88865262D02*
X182769380Y-93138588D01*
D12*
X128248176Y-92248415D02*
X128248176Y-92248415D01*
X129689367Y-90865666D02*
X129689367Y-90865666D01*
X131356527Y-89765847D02*
X131356527Y-89765847D01*
X133194862Y-88985109D02*
X133194862Y-88985109D01*
D10*
X147875000Y-84750000D02*
X146536733Y-86496150D01*
X146050090Y-87131114D02*
X144711823Y-88877264D01*
X144225180Y-89512228D02*
X143627055Y-90292653D01*
D11*
X108526331Y-107854873D02*
X108514581Y-107887158D01*
X176564610Y-123131982D02*
X159701240Y-116994217D01*
D12*
X195429825Y-71969469D02*
X195429825Y-71969469D01*
X196248429Y-73794180D02*
X196248429Y-73794180D01*
X197010487Y-75643220D02*
X197010487Y-75643220D01*
X197715277Y-77514839D02*
X197715277Y-77514839D01*
X198362131Y-79407261D02*
X198362131Y-79407261D01*
X198950436Y-81318696D02*
X198950436Y-81318696D01*
X199479635Y-83247331D02*
X199479635Y-83247331D01*
X199949226Y-85191339D02*
X199949226Y-85191339D01*
X200358765Y-87148879D02*
X200358765Y-87148879D01*
X200707863Y-89118096D02*
X200707863Y-89118096D01*
X200996190Y-91097124D02*
X200996190Y-91097124D01*
X201223472Y-93084088D02*
X201223472Y-93084088D01*
X201389494Y-95077106D02*
X201389494Y-95077106D01*
X201494100Y-97074290D02*
X201494100Y-97074290D01*
X201537189Y-99073746D02*
X201537189Y-99073746D01*
X201518721Y-101073582D02*
X201518721Y-101073582D01*
X201438714Y-103071902D02*
X201438714Y-103071902D01*
X201297242Y-105066813D02*
X201297242Y-105066813D01*
X201094442Y-107056425D02*
X201094442Y-107056425D01*
X200830503Y-109038853D02*
X200830503Y-109038853D01*
X200505677Y-111012219D02*
X200505677Y-111012219D01*
X200120272Y-112974653D02*
X200120272Y-112974653D01*
X199674652Y-114924296D02*
X199674652Y-114924296D01*
X199169239Y-116859300D02*
X199169239Y-116859300D01*
X198604513Y-118777833D02*
X198604513Y-118777833D01*
X197981008Y-120678077D02*
X197981008Y-120678077D01*
X197299315Y-122558231D02*
X197299315Y-122558231D01*
X196560081Y-124416514D02*
X196560081Y-124416514D01*
X195764005Y-126251166D02*
X195764005Y-126251166D01*
D11*
X126455403Y-127019599D02*
X125498351Y-126652140D01*
X124557626Y-126252552D01*
X123633908Y-125821335D01*
X122727875Y-125358987D01*
X121840205Y-124866008D01*
X120971577Y-124342898D01*
X120122671Y-123790156D01*
X119294165Y-123208281D01*
X118486737Y-122597773D01*
X117701067Y-121959132D01*
X116937833Y-121292856D01*
X116197715Y-120599446D01*
X115481390Y-119879401D01*
X114789538Y-119133220D01*
X114122838Y-118361403D01*
X113481968Y-117564449D01*
X177175000Y-127800000D02*
X176564610Y-123131982D01*
X142858123Y-81953377D02*
X141932696Y-81642807D01*
X141002701Y-81382246D01*
X140069664Y-81170980D01*
X139135111Y-81008299D01*
X138200571Y-80893489D01*
X137267571Y-80825839D01*
X136337637Y-80804636D01*
X135412297Y-80829169D01*
X134493078Y-80898725D01*
X133581507Y-81012592D01*
X132679111Y-81170058D01*
X131787417Y-81370412D01*
X130907953Y-81612940D01*
X130042246Y-81896931D01*
X129191823Y-82221673D01*
X128358210Y-82586453D01*
X127542936Y-82990560D01*
X126747527Y-83433281D01*
X125973510Y-83913904D01*
X125222413Y-84431718D01*
X124495763Y-84986009D01*
X123795087Y-85576067D01*
X123121911Y-86201178D01*
X122477764Y-86860631D01*
X121864173Y-87553714D01*
X121282663Y-88279714D01*
X120734764Y-89037920D01*
X120222001Y-89827619D01*
X119745902Y-90648099D01*
X119307995Y-91498648D01*
X118909805Y-92378554D01*
X118552862Y-93287106D01*
X121309693Y-98197508D02*
X131334920Y-101846392D01*
X167116727Y-109527301D02*
X175127328Y-112442922D01*
D10*
X154050000Y-76675000D02*
X155403730Y-74940810D01*
X155895995Y-74310195D02*
X157249725Y-72576005D01*
X157741991Y-71945391D02*
X157875000Y-71775000D01*
D11*
X140066529Y-105024438D02*
X150093008Y-108673778D01*
X109243897Y-120755123D02*
X97298593Y-116407388D01*
D12*
X129920394Y-108239059D02*
X129920394Y-108239059D01*
X128444831Y-106893062D02*
X128444831Y-106893062D01*
X127237002Y-105302421D02*
X127237002Y-105302421D01*
X126336734Y-103519584D02*
X126336734Y-103519584D01*
X125773710Y-101603339D02*
X125773710Y-101603339D01*
D11*
X151820335Y-100750439D02*
X141793855Y-97101099D01*
D10*
X115525000Y-79375000D02*
X114059375Y-77965188D01*
D11*
X118552862Y-93287106D02*
X118242291Y-94212535D01*
X117981729Y-95142534D01*
X117770463Y-96075574D01*
X117607781Y-97010128D01*
X117492972Y-97944670D01*
X117425322Y-98877673D01*
X117404120Y-99807608D01*
X117428653Y-100732949D01*
X117498210Y-101652169D01*
X117612079Y-102563741D01*
X117769546Y-103466138D01*
X117969901Y-104357831D01*
X118212431Y-105237295D01*
X118496423Y-106103003D01*
X118821166Y-106953426D01*
X119185948Y-107787038D01*
X119590056Y-108602311D01*
X120032778Y-109397720D01*
X120513402Y-110171735D01*
X121031217Y-110922831D01*
X121585509Y-111649480D01*
X122175567Y-112350155D01*
X122800678Y-113023329D01*
X123460131Y-113667475D01*
X124153214Y-114281065D01*
X124879213Y-114862573D01*
X125637418Y-115410471D01*
X126427115Y-115923233D01*
X127247593Y-116399330D01*
X128098140Y-116837236D01*
X128978044Y-117235424D01*
X129886592Y-117592367D01*
X117117584Y-78082773D02*
X117145512Y-78057794D01*
X133062246Y-93923053D02*
X123037020Y-90274170D01*
X131334920Y-101846392D02*
X129314300Y-111115206D01*
D10*
X109700000Y-88125000D02*
X107674405Y-87266534D01*
X106937825Y-86954364D02*
X104912230Y-86095897D01*
X104175650Y-85783728D02*
X102150055Y-84925261D01*
X101413475Y-84613092D02*
X99387880Y-83754625D01*
X98651300Y-83442456D02*
X96625705Y-82583989D01*
X95889125Y-82271819D02*
X93863530Y-81413353D01*
X93126950Y-81101183D02*
X91101355Y-80242717D01*
X90364775Y-79930547D02*
X88339179Y-79072081D01*
X87602599Y-78759911D02*
X85577004Y-77901445D01*
X84840424Y-77589275D02*
X82814829Y-76730809D01*
X82078249Y-76418639D02*
X80052654Y-75560173D01*
X79316074Y-75248003D02*
X78200001Y-74775000D01*
X151224387Y-104272291D02*
X153320777Y-104939485D01*
X154083101Y-105182101D02*
X154374998Y-105275000D01*
D11*
X113481968Y-117564449D02*
X109243897Y-120755123D01*
X117145512Y-78057794D02*
X118661596Y-76804248D01*
D12*
X174742631Y-71966335D02*
X174742631Y-71966335D01*
X175876943Y-73613372D02*
X175876943Y-73613372D01*
X176940248Y-75307120D02*
X176940248Y-75307120D01*
X177930625Y-77044517D02*
X177930625Y-77044517D01*
X178846286Y-78822427D02*
X178846286Y-78822427D01*
X179685577Y-80637638D02*
X179685577Y-80637638D01*
X180446981Y-82486870D02*
X180446981Y-82486870D01*
X181129123Y-84366785D02*
X181129123Y-84366785D01*
X181730772Y-86273986D02*
X181730772Y-86273986D01*
X182250840Y-88205029D02*
X182250840Y-88205029D01*
X182688388Y-90156426D02*
X182688388Y-90156426D01*
X183042626Y-92124652D02*
X183042626Y-92124652D01*
X183312915Y-94106152D02*
X183312915Y-94106152D01*
X183498765Y-96097347D02*
X183498765Y-96097347D01*
X183599841Y-98094641D02*
X183599841Y-98094641D01*
X162605510Y-71878115D02*
X162605510Y-71878115D01*
X164023256Y-73288458D02*
X164023256Y-73288458D01*
X165364728Y-74771538D02*
X165364728Y-74771538D01*
X166626198Y-76323236D02*
X166626198Y-76323236D01*
X167804163Y-77939241D02*
X167804163Y-77939241D01*
X168895350Y-79615065D02*
X168895350Y-79615065D01*
X169896728Y-81346052D02*
X169896728Y-81346052D01*
X170805515Y-83127394D02*
X170805515Y-83127394D01*
X171619188Y-84954143D02*
X171619188Y-84954143D01*
X172335485Y-86821224D02*
X172335485Y-86821224D01*
X172952418Y-88723451D02*
X172952418Y-88723451D01*
X111227721Y-127777817D02*
X111227721Y-127777817D01*
X109773348Y-126405273D02*
X109773348Y-126405273D01*
X108393220Y-124958095D02*
X108393220Y-124958095D01*
X107091161Y-123440295D02*
X107091161Y-123440295D01*
X105870779Y-121856077D02*
X105870779Y-121856077D01*
X104735457Y-120209833D02*
X104735457Y-120209833D01*
X176780891Y-123863411D02*
X176780891Y-123863411D01*
X175707748Y-125550942D02*
X175707748Y-125550942D01*
X174563841Y-127191330D02*
X174563841Y-127191330D01*
D11*
X173696466Y-101800515D02*
X167116727Y-109527301D01*
X159701240Y-116994217D02*
X158972653Y-117940001D01*
X158210041Y-118849266D01*
X157414804Y-119721583D01*
X156588342Y-120556524D01*
X155732055Y-121353660D01*
X154847343Y-122112561D01*
X153935608Y-122832800D01*
X152998249Y-123513948D01*
X152036667Y-124155576D01*
X151052261Y-124757256D01*
X150046433Y-125318558D01*
X149020583Y-125839054D01*
X147976111Y-126318316D01*
X146914417Y-126755915D01*
X145836901Y-127151421D01*
X144744965Y-127504408D01*
X143640008Y-127814444D01*
X142523431Y-128081103D01*
X141396634Y-128303956D01*
X140261017Y-128482573D01*
X139117980Y-128616527D01*
X137968925Y-128705387D01*
X136815251Y-128748727D01*
X135658359Y-128746117D01*
X134499649Y-128697128D01*
X133340521Y-128601332D01*
X132182376Y-128458300D01*
X131026614Y-128267603D01*
X129874635Y-128028814D01*
X128727840Y-127741502D01*
X127587629Y-127405240D01*
X126455403Y-127019599D01*
D10*
X164100000Y-90600000D02*
X166194384Y-89926533D01*
X166955978Y-89681636D02*
X169050361Y-89008170D01*
X169811955Y-88763273D02*
X171906339Y-88089806D01*
X172667933Y-87844909D02*
X174762316Y-87171442D01*
X175523910Y-86926545D02*
X177618294Y-86253078D01*
X178379888Y-86008181D02*
X180474272Y-85334715D01*
X181235866Y-85089818D02*
X183330249Y-84416351D01*
X184091843Y-84171454D02*
X186186227Y-83497987D01*
X186947821Y-83253090D02*
X189042204Y-82579624D01*
X189803798Y-82334727D02*
X191898182Y-81661260D01*
X192659776Y-81416363D02*
X194754160Y-80742896D01*
X195515754Y-80497999D02*
X197610137Y-79824532D01*
X198371731Y-79579635D02*
X200466115Y-78906169D01*
X201227709Y-78661272D02*
X203322092Y-77987805D01*
X204083687Y-77742908D02*
X206178070Y-77069441D01*
X206939664Y-76824544D02*
X209034048Y-76151078D01*
X209795642Y-75906181D02*
X211890025Y-75232714D01*
D11*
X108548622Y-107939745D02*
X108526331Y-107854873D01*
D12*
X143171776Y-90679292D02*
X143171776Y-90679292D01*
X144653057Y-92018993D02*
X144653057Y-92018993D01*
X145867678Y-93604454D02*
X145867678Y-93604454D01*
X146775596Y-95383408D02*
X146775596Y-95383408D01*
X147346881Y-97297207D02*
X147346881Y-97297207D01*
X147562698Y-99282759D02*
X147562698Y-99282759D01*
X107500000Y-74975000D02*
X107500000Y-74975000D01*
X108828617Y-73480392D02*
X108828617Y-73480392D01*
X110233998Y-72057725D02*
X110233998Y-72057725D01*
D11*
X129886592Y-117592367D02*
X130812021Y-117902937D01*
X131742020Y-118163500D01*
X132675060Y-118374766D01*
X133609615Y-118537449D01*
X134544158Y-118652260D01*
X135477161Y-118719911D01*
X136407097Y-118741114D01*
X137332439Y-118716582D01*
X138251660Y-118647027D01*
X139163233Y-118533160D01*
X140065630Y-118375695D01*
X140957325Y-118175342D01*
X141836791Y-117932814D01*
X142702499Y-117648824D01*
X143552924Y-117324082D01*
X144386537Y-116959302D01*
X145201812Y-116555196D01*
X145997222Y-116112475D01*
X146771239Y-115631852D01*
X147522337Y-115114038D01*
X148248988Y-114559747D01*
X148949665Y-113969690D01*
X149622840Y-113344578D01*
X150266988Y-112685125D01*
X150880580Y-111992043D01*
X151462089Y-111266042D01*
X152009989Y-110507837D01*
X152522752Y-109718138D01*
X152998850Y-108897657D01*
X153436758Y-108047108D01*
X153834948Y-107167202D01*
X154191892Y-106258651D01*
X107407563Y-101251118D02*
X107406251Y-101234997D01*
X143814476Y-87832284D02*
X135082867Y-84654239D01*
D10*
X129250000Y-92450000D02*
X127656017Y-90933683D01*
X127076386Y-90382295D02*
X125482403Y-88865978D01*
X124902773Y-88314590D02*
X123308789Y-86798273D01*
D12*
X88092437Y-127522776D02*
X88092437Y-127522776D01*
X87121850Y-125774194D02*
X87121850Y-125774194D01*
X86214316Y-123992073D02*
X86214316Y-123992073D01*
X85370991Y-122178684D02*
X85370991Y-122178684D01*
X84592951Y-120336341D02*
X84592951Y-120336341D01*
X83881188Y-118467392D02*
X83881188Y-118467392D01*
X83236610Y-116574222D02*
X83236610Y-116574222D01*
X82660039Y-114659244D02*
X82660039Y-114659244D01*
X82152211Y-112724900D02*
X82152211Y-112724900D01*
X81713771Y-110773658D02*
X81713771Y-110773658D01*
X81345281Y-108808006D02*
X81345281Y-108808006D01*
X81047210Y-106830450D02*
X81047210Y-106830450D01*
X80819937Y-104843512D02*
X80819937Y-104843512D01*
X80663754Y-102849726D02*
X80663754Y-102849726D01*
X80578858Y-100851635D02*
X80578858Y-100851635D01*
X80565358Y-98851787D02*
X80565358Y-98851787D01*
X80623272Y-96852732D02*
X80623272Y-96852732D01*
X80752525Y-94857019D02*
X80752525Y-94857019D01*
X80952954Y-92867194D02*
X80952954Y-92867194D01*
X81224301Y-90885794D02*
X81224301Y-90885794D01*
X81566221Y-88915346D02*
X81566221Y-88915346D01*
X81978278Y-86958363D02*
X81978278Y-86958363D01*
X82459947Y-85017340D02*
X82459947Y-85017340D01*
X83010613Y-83094753D02*
X83010613Y-83094753D01*
X83629575Y-81193053D02*
X83629575Y-81193053D01*
X84316042Y-79314666D02*
X84316042Y-79314666D01*
X85069139Y-77461987D02*
X85069139Y-77461987D01*
X85887906Y-75637379D02*
X85887906Y-75637379D01*
X86771299Y-73843168D02*
X86771299Y-73843168D01*
X87718191Y-72081644D02*
X87718191Y-72081644D01*
X144769018Y-106811728D02*
X144769018Y-106811728D01*
X143307990Y-108173493D02*
X143307990Y-108173493D01*
X141624944Y-109248837D02*
X141624944Y-109248837D01*
X139775290Y-110002355D02*
X139775290Y-110002355D01*
X101242478Y-113387811D02*
X101242478Y-113387811D01*
X100558801Y-111508539D02*
X100558801Y-111508539D01*
X99975031Y-109595874D02*
X99975031Y-109595874D01*
X99492787Y-107655123D02*
X99492787Y-107655123D01*
X99113408Y-105691670D02*
X99113408Y-105691670D01*
X98837946Y-103710964D02*
X98837946Y-103710964D01*
X98667165Y-101718501D02*
X98667165Y-101718501D01*
X98601539Y-99719810D02*
X98601539Y-99719810D01*
X98641251Y-97720435D02*
X98641251Y-97720435D01*
X98786190Y-95725926D02*
X98786190Y-95725926D01*
X99035954Y-93741816D02*
X99035954Y-93741816D01*
X99389850Y-91773610D02*
X99389850Y-91773610D01*
X99846896Y-89826771D02*
X99846896Y-89826771D01*
X100405823Y-87906699D02*
X100405823Y-87906699D01*
X101065082Y-86018723D02*
X101065082Y-86018723D01*
X185224858Y-71775081D02*
X185224858Y-71775081D01*
X186182995Y-73530514D02*
X186182995Y-73530514D01*
X187077830Y-75319046D02*
X187077830Y-75319046D01*
X187908223Y-77138392D02*
X187908223Y-77138392D01*
X188673113Y-78986234D02*
X188673113Y-78986234D01*
X189371526Y-80860212D02*
X189371526Y-80860212D01*
X190002569Y-82757937D02*
X190002569Y-82757937D01*
X190565438Y-84676987D02*
X190565438Y-84676987D01*
X191059415Y-86614914D02*
X191059415Y-86614914D01*
X191483869Y-88569246D02*
X191483869Y-88569246D01*
X191838259Y-90537489D02*
X191838259Y-90537489D01*
X192122133Y-92517133D02*
X192122133Y-92517133D01*
X192335129Y-94505652D02*
X192335129Y-94505652D01*
X192476975Y-96500509D02*
X192476975Y-96500509D01*
X192547490Y-98499159D02*
X192547490Y-98499159D01*
X192546585Y-100499053D02*
X192546585Y-100499053D01*
X192474259Y-102497638D02*
X192474259Y-102497638D01*
X192330606Y-104492366D02*
X192330606Y-104492366D01*
X192115809Y-106480691D02*
X192115809Y-106480691D01*
X191830141Y-108460077D02*
X191830141Y-108460077D01*
X191473968Y-110427999D02*
X191473968Y-110427999D01*
X191047744Y-112381945D02*
X191047744Y-112381945D01*
X190552012Y-114319424D02*
X190552012Y-114319424D01*
X189987405Y-116237964D02*
X189987405Y-116237964D01*
X189354643Y-118135116D02*
X189354643Y-118135116D01*
X188654533Y-120008461D02*
X188654533Y-120008461D01*
X187887969Y-121855608D02*
X187887969Y-121855608D01*
D10*
X122325000Y-93450000D02*
X120302083Y-92585242D01*
X119566477Y-92270784D02*
X119050000Y-92050000D01*
D12*
X98748767Y-127456411D02*
X98748767Y-127456411D01*
X97593631Y-125823909D02*
X97593631Y-125823909D01*
X96508923Y-124143788D02*
X96508923Y-124143788D01*
X205273347Y-71915364D02*
X205273347Y-71915364D01*
X205992706Y-73781450D02*
X205992706Y-73781450D01*
X206661395Y-75666287D02*
X206661395Y-75666287D01*
X207278925Y-77568500D02*
X207278925Y-77568500D01*
X207844845Y-79486700D02*
X207844845Y-79486700D01*
X208358742Y-81419487D02*
X208358742Y-81419487D01*
X208820241Y-83365451D02*
X208820241Y-83365451D01*
X209229006Y-85323171D02*
X209229006Y-85323171D01*
X209584738Y-87291219D02*
X209584738Y-87291219D01*
X209887178Y-89268158D02*
X209887178Y-89268158D01*
X210136104Y-91252545D02*
X210136104Y-91252545D01*
X210331336Y-93242932D02*
X210331336Y-93242932D01*
X210472729Y-95237867D02*
X210472729Y-95237867D01*
X210560183Y-97235893D02*
X210560183Y-97235893D01*
X210593632Y-99235552D02*
X210593632Y-99235552D01*
X210573051Y-101235386D02*
X210573051Y-101235386D01*
X210498458Y-103233933D02*
X210498458Y-103233933D01*
X210369904Y-105229737D02*
X210369904Y-105229737D01*
X210187486Y-107221339D02*
X210187486Y-107221339D01*
X209951334Y-109207287D02*
X209951334Y-109207287D01*
X209661623Y-111186131D02*
X209661623Y-111186131D01*
X209318563Y-113156427D02*
X209318563Y-113156427D01*
X208922405Y-115116737D02*
X208922405Y-115116737D01*
X208473437Y-117065630D02*
X208473437Y-117065630D01*
X207971988Y-119001685D02*
X207971988Y-119001685D01*
X207418424Y-120923487D02*
X207418424Y-120923487D01*
X206813148Y-122829634D02*
X206813148Y-122829634D01*
X206156602Y-124718735D02*
X206156602Y-124718735D01*
X205449266Y-126589412D02*
X205449266Y-126589412D01*
D11*
X107406827Y-101233168D02*
X107376875Y-100377439D01*
X107372067Y-99520092D01*
X107392553Y-98661694D01*
X107438482Y-97802814D01*
X107510004Y-96944017D01*
X107607270Y-96085872D01*
X107730428Y-95228946D01*
X107879631Y-94373807D01*
X108055026Y-93521021D01*
X108256765Y-92671157D01*
X108484998Y-91824782D01*
X108739873Y-90982464D01*
X109021542Y-90144769D01*
X109330155Y-89312266D01*
X109665860Y-88485521D01*
X110028810Y-87665103D01*
X146291696Y-72519833D02*
X147241317Y-72883886D01*
X148172444Y-73277754D01*
X149084595Y-73700821D01*
X149977287Y-74152470D01*
X150850038Y-74632085D01*
X151702367Y-75139050D01*
X152533791Y-75672750D01*
X153343828Y-76232567D01*
X154131995Y-76817887D01*
X154897812Y-77428092D01*
X155640795Y-78062567D01*
X156360463Y-78720695D01*
X157056334Y-79401862D01*
X157727925Y-80105449D01*
X158374754Y-80830843D01*
X158996340Y-81577425D01*
X159592200Y-82344581D01*
X160161852Y-83131694D01*
X160704814Y-83938149D01*
X161220604Y-84763328D01*
X161708740Y-85606617D01*
X162168739Y-86467398D01*
X162600121Y-87345056D01*
X163002401Y-88238975D01*
X163375100Y-89148539D01*
X163717733Y-90073132D01*
X164029820Y-91012136D01*
X164310879Y-91964938D01*
X164560426Y-92930920D01*
X164777980Y-93909466D01*
X164963059Y-94899960D01*
X165115182Y-95901787D01*
D12*
X92302104Y-115318995D02*
X92302104Y-115318995D01*
X91668274Y-113422246D02*
X91668274Y-113422246D01*
X91115683Y-111500257D02*
X91115683Y-111500257D01*
X90645332Y-109556506D02*
X90645332Y-109556506D01*
X90258072Y-107594511D02*
X90258072Y-107594511D01*
X89954603Y-105617821D02*
X89954603Y-105617821D01*
X89735474Y-103630013D02*
X89735474Y-103630013D01*
X89601082Y-101634685D02*
X89601082Y-101634685D01*
X89551670Y-99635446D02*
X89551670Y-99635446D01*
X89587328Y-97635915D02*
X89587328Y-97635915D01*
X89707991Y-95639709D02*
X89707991Y-95639709D01*
X89913441Y-93650441D02*
X89913441Y-93650441D01*
X90203305Y-91671710D02*
X90203305Y-91671710D01*
X90577060Y-89707097D02*
X90577060Y-89707097D01*
X91034029Y-87760157D02*
X91034029Y-87760157D01*
X91573385Y-85834413D02*
X91573385Y-85834413D01*
X92194152Y-83933348D02*
X92194152Y-83933348D01*
X92895208Y-82060405D02*
X92895208Y-82060405D01*
X93675282Y-80218970D02*
X93675282Y-80218970D01*
X94532965Y-78412378D02*
X94532965Y-78412378D01*
X95466703Y-76643895D02*
X95466703Y-76643895D01*
X96474808Y-74916724D02*
X96474808Y-74916724D01*
X97555455Y-73233988D02*
X97555455Y-73233988D01*
D11*
X138045283Y-114293024D02*
X140066529Y-105024438D01*
X118661596Y-76804248D02*
X119391859Y-76259534D01*
X120137259Y-75739224D01*
X120897143Y-75243529D01*
X121670854Y-74772659D01*
X122457740Y-74326824D01*
X123257145Y-73906233D01*
X124068414Y-73511097D01*
X124890894Y-73141626D01*
X125723930Y-72798030D01*
X126566866Y-72480518D01*
X127419050Y-72189301D01*
X128279825Y-71924590D01*
X129148538Y-71686593D01*
X130024534Y-71475521D01*
X130907158Y-71291584D01*
X131795757Y-71134992D01*
X132689674Y-71005955D01*
X133588257Y-70904684D01*
X134490850Y-70831387D01*
X135396799Y-70786276D01*
X136305450Y-70769559D01*
X137216147Y-70781448D01*
X138128236Y-70822153D01*
X139041063Y-70891882D01*
X139953974Y-70990847D01*
X140866313Y-71119257D01*
X141777426Y-71277323D01*
X142686659Y-71465254D01*
X143593357Y-71683260D01*
X144496865Y-71931552D01*
X145396530Y-72210340D01*
X146291696Y-72519833D01*
X175127328Y-112442922D02*
X173696466Y-101800515D01*
X97298593Y-116407388D02*
X108548622Y-107939745D01*
X182769380Y-93138588D02*
X188126221Y-127580386D01*
D10*
X131334920Y-101846392D02*
X129316348Y-102721245D01*
X128582322Y-103039373D02*
X126563750Y-103914226D01*
X125829724Y-104232354D02*
X123811152Y-105107207D01*
X123077126Y-105425335D02*
X121058554Y-106300188D01*
X120324528Y-106618317D02*
X118924955Y-107224894D01*
D13*
X85587217Y-106334895D02*
X85587217Y-105534895D01*
X85587217Y-105534895D02*
X85396741Y-105534895D01*
X85396741Y-105534895D02*
X85282455Y-105572990D01*
X85282455Y-105572990D02*
X85206265Y-105649180D01*
X85206265Y-105649180D02*
X85168170Y-105725371D01*
X85168170Y-105725371D02*
X85130074Y-105877752D01*
X85130074Y-105877752D02*
X85130074Y-105992038D01*
X85130074Y-105992038D02*
X85168170Y-106144419D01*
X85168170Y-106144419D02*
X85206265Y-106220609D01*
X85206265Y-106220609D02*
X85282455Y-106296800D01*
X85282455Y-106296800D02*
X85396741Y-106334895D01*
X85396741Y-106334895D02*
X85587217Y-106334895D01*
X84787217Y-106334895D02*
X84787217Y-105534895D01*
X84787217Y-105534895D02*
X84482455Y-105534895D01*
X84482455Y-105534895D02*
X84406265Y-105572990D01*
X84406265Y-105572990D02*
X84368170Y-105611085D01*
X84368170Y-105611085D02*
X84330074Y-105687276D01*
X84330074Y-105687276D02*
X84330074Y-105801561D01*
X84330074Y-105801561D02*
X84368170Y-105877752D01*
X84368170Y-105877752D02*
X84406265Y-105915847D01*
X84406265Y-105915847D02*
X84482455Y-105953942D01*
X84482455Y-105953942D02*
X84787217Y-105953942D01*
X84025313Y-105611085D02*
X83987217Y-105572990D01*
X83987217Y-105572990D02*
X83911027Y-105534895D01*
X83911027Y-105534895D02*
X83720551Y-105534895D01*
X83720551Y-105534895D02*
X83644360Y-105572990D01*
X83644360Y-105572990D02*
X83606265Y-105611085D01*
X83606265Y-105611085D02*
X83568170Y-105687276D01*
X83568170Y-105687276D02*
X83568170Y-105763466D01*
X83568170Y-105763466D02*
X83606265Y-105877752D01*
X83606265Y-105877752D02*
X84063408Y-106334895D01*
X84063408Y-106334895D02*
X83568170Y-106334895D01*
X85587217Y-101254895D02*
X85587217Y-100454895D01*
X85587217Y-100454895D02*
X85396741Y-100454895D01*
X85396741Y-100454895D02*
X85282455Y-100492990D01*
X85282455Y-100492990D02*
X85206265Y-100569180D01*
X85206265Y-100569180D02*
X85168170Y-100645371D01*
X85168170Y-100645371D02*
X85130074Y-100797752D01*
X85130074Y-100797752D02*
X85130074Y-100912038D01*
X85130074Y-100912038D02*
X85168170Y-101064419D01*
X85168170Y-101064419D02*
X85206265Y-101140609D01*
X85206265Y-101140609D02*
X85282455Y-101216800D01*
X85282455Y-101216800D02*
X85396741Y-101254895D01*
X85396741Y-101254895D02*
X85587217Y-101254895D01*
X84787217Y-101254895D02*
X84787217Y-100454895D01*
X84787217Y-100454895D02*
X84482455Y-100454895D01*
X84482455Y-100454895D02*
X84406265Y-100492990D01*
X84406265Y-100492990D02*
X84368170Y-100531085D01*
X84368170Y-100531085D02*
X84330074Y-100607276D01*
X84330074Y-100607276D02*
X84330074Y-100721561D01*
X84330074Y-100721561D02*
X84368170Y-100797752D01*
X84368170Y-100797752D02*
X84406265Y-100835847D01*
X84406265Y-100835847D02*
X84482455Y-100873942D01*
X84482455Y-100873942D02*
X84787217Y-100873942D01*
X83644360Y-100721561D02*
X83644360Y-101254895D01*
X83834836Y-100416800D02*
X84025313Y-100988228D01*
X84025313Y-100988228D02*
X83530074Y-100988228D01*
X93112217Y-106359895D02*
X93112217Y-105559895D01*
X93112217Y-105559895D02*
X92921741Y-105559895D01*
X92921741Y-105559895D02*
X92807455Y-105597990D01*
X92807455Y-105597990D02*
X92731265Y-105674180D01*
X92731265Y-105674180D02*
X92693170Y-105750371D01*
X92693170Y-105750371D02*
X92655074Y-105902752D01*
X92655074Y-105902752D02*
X92655074Y-106017038D01*
X92655074Y-106017038D02*
X92693170Y-106169419D01*
X92693170Y-106169419D02*
X92731265Y-106245609D01*
X92731265Y-106245609D02*
X92807455Y-106321800D01*
X92807455Y-106321800D02*
X92921741Y-106359895D01*
X92921741Y-106359895D02*
X93112217Y-106359895D01*
X92388408Y-105559895D02*
X91855074Y-105559895D01*
X91855074Y-105559895D02*
X92197932Y-106359895D01*
X85537217Y-83964895D02*
X85537217Y-83164895D01*
X85537217Y-83164895D02*
X85346741Y-83164895D01*
X85346741Y-83164895D02*
X85232455Y-83202990D01*
X85232455Y-83202990D02*
X85156265Y-83279180D01*
X85156265Y-83279180D02*
X85118170Y-83355371D01*
X85118170Y-83355371D02*
X85080074Y-83507752D01*
X85080074Y-83507752D02*
X85080074Y-83622038D01*
X85080074Y-83622038D02*
X85118170Y-83774419D01*
X85118170Y-83774419D02*
X85156265Y-83850609D01*
X85156265Y-83850609D02*
X85232455Y-83926800D01*
X85232455Y-83926800D02*
X85346741Y-83964895D01*
X85346741Y-83964895D02*
X85537217Y-83964895D01*
X84737217Y-83964895D02*
X84737217Y-83164895D01*
X84737217Y-83164895D02*
X84432455Y-83164895D01*
X84432455Y-83164895D02*
X84356265Y-83202990D01*
X84356265Y-83202990D02*
X84318170Y-83241085D01*
X84318170Y-83241085D02*
X84280074Y-83317276D01*
X84280074Y-83317276D02*
X84280074Y-83431561D01*
X84280074Y-83431561D02*
X84318170Y-83507752D01*
X84318170Y-83507752D02*
X84356265Y-83545847D01*
X84356265Y-83545847D02*
X84432455Y-83583942D01*
X84432455Y-83583942D02*
X84737217Y-83583942D01*
X83518170Y-83964895D02*
X83975313Y-83964895D01*
X83746741Y-83964895D02*
X83746741Y-83164895D01*
X83746741Y-83164895D02*
X83822932Y-83279180D01*
X83822932Y-83279180D02*
X83899122Y-83355371D01*
X83899122Y-83355371D02*
X83975313Y-83393466D01*
X93112217Y-91119895D02*
X93112217Y-90319895D01*
X93112217Y-90319895D02*
X92921741Y-90319895D01*
X92921741Y-90319895D02*
X92807455Y-90357990D01*
X92807455Y-90357990D02*
X92731265Y-90434180D01*
X92731265Y-90434180D02*
X92693170Y-90510371D01*
X92693170Y-90510371D02*
X92655074Y-90662752D01*
X92655074Y-90662752D02*
X92655074Y-90777038D01*
X92655074Y-90777038D02*
X92693170Y-90929419D01*
X92693170Y-90929419D02*
X92731265Y-91005609D01*
X92731265Y-91005609D02*
X92807455Y-91081800D01*
X92807455Y-91081800D02*
X92921741Y-91119895D01*
X92921741Y-91119895D02*
X93112217Y-91119895D01*
X91893170Y-91119895D02*
X92350313Y-91119895D01*
X92121741Y-91119895D02*
X92121741Y-90319895D01*
X92121741Y-90319895D02*
X92197932Y-90434180D01*
X92197932Y-90434180D02*
X92274122Y-90510371D01*
X92274122Y-90510371D02*
X92350313Y-90548466D01*
X85587217Y-93634895D02*
X85587217Y-92834895D01*
X85587217Y-92834895D02*
X85396741Y-92834895D01*
X85396741Y-92834895D02*
X85282455Y-92872990D01*
X85282455Y-92872990D02*
X85206265Y-92949180D01*
X85206265Y-92949180D02*
X85168170Y-93025371D01*
X85168170Y-93025371D02*
X85130074Y-93177752D01*
X85130074Y-93177752D02*
X85130074Y-93292038D01*
X85130074Y-93292038D02*
X85168170Y-93444419D01*
X85168170Y-93444419D02*
X85206265Y-93520609D01*
X85206265Y-93520609D02*
X85282455Y-93596800D01*
X85282455Y-93596800D02*
X85396741Y-93634895D01*
X85396741Y-93634895D02*
X85587217Y-93634895D01*
X84787217Y-93634895D02*
X84787217Y-92834895D01*
X84787217Y-92834895D02*
X84482455Y-92834895D01*
X84482455Y-92834895D02*
X84406265Y-92872990D01*
X84406265Y-92872990D02*
X84368170Y-92911085D01*
X84368170Y-92911085D02*
X84330074Y-92987276D01*
X84330074Y-92987276D02*
X84330074Y-93101561D01*
X84330074Y-93101561D02*
X84368170Y-93177752D01*
X84368170Y-93177752D02*
X84406265Y-93215847D01*
X84406265Y-93215847D02*
X84482455Y-93253942D01*
X84482455Y-93253942D02*
X84787217Y-93253942D01*
X83872932Y-93177752D02*
X83949122Y-93139657D01*
X83949122Y-93139657D02*
X83987217Y-93101561D01*
X83987217Y-93101561D02*
X84025313Y-93025371D01*
X84025313Y-93025371D02*
X84025313Y-92987276D01*
X84025313Y-92987276D02*
X83987217Y-92911085D01*
X83987217Y-92911085D02*
X83949122Y-92872990D01*
X83949122Y-92872990D02*
X83872932Y-92834895D01*
X83872932Y-92834895D02*
X83720551Y-92834895D01*
X83720551Y-92834895D02*
X83644360Y-92872990D01*
X83644360Y-92872990D02*
X83606265Y-92911085D01*
X83606265Y-92911085D02*
X83568170Y-92987276D01*
X83568170Y-92987276D02*
X83568170Y-93025371D01*
X83568170Y-93025371D02*
X83606265Y-93101561D01*
X83606265Y-93101561D02*
X83644360Y-93139657D01*
X83644360Y-93139657D02*
X83720551Y-93177752D01*
X83720551Y-93177752D02*
X83872932Y-93177752D01*
X83872932Y-93177752D02*
X83949122Y-93215847D01*
X83949122Y-93215847D02*
X83987217Y-93253942D01*
X83987217Y-93253942D02*
X84025313Y-93330133D01*
X84025313Y-93330133D02*
X84025313Y-93482514D01*
X84025313Y-93482514D02*
X83987217Y-93558704D01*
X83987217Y-93558704D02*
X83949122Y-93596800D01*
X83949122Y-93596800D02*
X83872932Y-93634895D01*
X83872932Y-93634895D02*
X83720551Y-93634895D01*
X83720551Y-93634895D02*
X83644360Y-93596800D01*
X83644360Y-93596800D02*
X83606265Y-93558704D01*
X83606265Y-93558704D02*
X83568170Y-93482514D01*
X83568170Y-93482514D02*
X83568170Y-93330133D01*
X83568170Y-93330133D02*
X83606265Y-93253942D01*
X83606265Y-93253942D02*
X83644360Y-93215847D01*
X83644360Y-93215847D02*
X83720551Y-93177752D01*
X85587217Y-103794895D02*
X85587217Y-102994895D01*
X85587217Y-102994895D02*
X85396741Y-102994895D01*
X85396741Y-102994895D02*
X85282455Y-103032990D01*
X85282455Y-103032990D02*
X85206265Y-103109180D01*
X85206265Y-103109180D02*
X85168170Y-103185371D01*
X85168170Y-103185371D02*
X85130074Y-103337752D01*
X85130074Y-103337752D02*
X85130074Y-103452038D01*
X85130074Y-103452038D02*
X85168170Y-103604419D01*
X85168170Y-103604419D02*
X85206265Y-103680609D01*
X85206265Y-103680609D02*
X85282455Y-103756800D01*
X85282455Y-103756800D02*
X85396741Y-103794895D01*
X85396741Y-103794895D02*
X85587217Y-103794895D01*
X84787217Y-103794895D02*
X84787217Y-102994895D01*
X84787217Y-102994895D02*
X84482455Y-102994895D01*
X84482455Y-102994895D02*
X84406265Y-103032990D01*
X84406265Y-103032990D02*
X84368170Y-103071085D01*
X84368170Y-103071085D02*
X84330074Y-103147276D01*
X84330074Y-103147276D02*
X84330074Y-103261561D01*
X84330074Y-103261561D02*
X84368170Y-103337752D01*
X84368170Y-103337752D02*
X84406265Y-103375847D01*
X84406265Y-103375847D02*
X84482455Y-103413942D01*
X84482455Y-103413942D02*
X84787217Y-103413942D01*
X84063408Y-102994895D02*
X83568170Y-102994895D01*
X83568170Y-102994895D02*
X83834836Y-103299657D01*
X83834836Y-103299657D02*
X83720551Y-103299657D01*
X83720551Y-103299657D02*
X83644360Y-103337752D01*
X83644360Y-103337752D02*
X83606265Y-103375847D01*
X83606265Y-103375847D02*
X83568170Y-103452038D01*
X83568170Y-103452038D02*
X83568170Y-103642514D01*
X83568170Y-103642514D02*
X83606265Y-103718704D01*
X83606265Y-103718704D02*
X83644360Y-103756800D01*
X83644360Y-103756800D02*
X83720551Y-103794895D01*
X83720551Y-103794895D02*
X83949122Y-103794895D01*
X83949122Y-103794895D02*
X84025313Y-103756800D01*
X84025313Y-103756800D02*
X84063408Y-103718704D01*
X93112217Y-103819895D02*
X93112217Y-103019895D01*
X93112217Y-103019895D02*
X92921741Y-103019895D01*
X92921741Y-103019895D02*
X92807455Y-103057990D01*
X92807455Y-103057990D02*
X92731265Y-103134180D01*
X92731265Y-103134180D02*
X92693170Y-103210371D01*
X92693170Y-103210371D02*
X92655074Y-103362752D01*
X92655074Y-103362752D02*
X92655074Y-103477038D01*
X92655074Y-103477038D02*
X92693170Y-103629419D01*
X92693170Y-103629419D02*
X92731265Y-103705609D01*
X92731265Y-103705609D02*
X92807455Y-103781800D01*
X92807455Y-103781800D02*
X92921741Y-103819895D01*
X92921741Y-103819895D02*
X93112217Y-103819895D01*
X91969360Y-103019895D02*
X92121741Y-103019895D01*
X92121741Y-103019895D02*
X92197932Y-103057990D01*
X92197932Y-103057990D02*
X92236027Y-103096085D01*
X92236027Y-103096085D02*
X92312217Y-103210371D01*
X92312217Y-103210371D02*
X92350313Y-103362752D01*
X92350313Y-103362752D02*
X92350313Y-103667514D01*
X92350313Y-103667514D02*
X92312217Y-103743704D01*
X92312217Y-103743704D02*
X92274122Y-103781800D01*
X92274122Y-103781800D02*
X92197932Y-103819895D01*
X92197932Y-103819895D02*
X92045551Y-103819895D01*
X92045551Y-103819895D02*
X91969360Y-103781800D01*
X91969360Y-103781800D02*
X91931265Y-103743704D01*
X91931265Y-103743704D02*
X91893170Y-103667514D01*
X91893170Y-103667514D02*
X91893170Y-103477038D01*
X91893170Y-103477038D02*
X91931265Y-103400847D01*
X91931265Y-103400847D02*
X91969360Y-103362752D01*
X91969360Y-103362752D02*
X92045551Y-103324657D01*
X92045551Y-103324657D02*
X92197932Y-103324657D01*
X92197932Y-103324657D02*
X92274122Y-103362752D01*
X92274122Y-103362752D02*
X92312217Y-103400847D01*
X92312217Y-103400847D02*
X92350313Y-103477038D01*
D14*
X91504576Y-115387877D02*
X91504576Y-114245020D01*
X90933147Y-114816448D02*
X92076004Y-114816448D01*
D13*
X93112217Y-101279895D02*
X93112217Y-100479895D01*
X93112217Y-100479895D02*
X92921741Y-100479895D01*
X92921741Y-100479895D02*
X92807455Y-100517990D01*
X92807455Y-100517990D02*
X92731265Y-100594180D01*
X92731265Y-100594180D02*
X92693170Y-100670371D01*
X92693170Y-100670371D02*
X92655074Y-100822752D01*
X92655074Y-100822752D02*
X92655074Y-100937038D01*
X92655074Y-100937038D02*
X92693170Y-101089419D01*
X92693170Y-101089419D02*
X92731265Y-101165609D01*
X92731265Y-101165609D02*
X92807455Y-101241800D01*
X92807455Y-101241800D02*
X92921741Y-101279895D01*
X92921741Y-101279895D02*
X93112217Y-101279895D01*
X91931265Y-100479895D02*
X92312217Y-100479895D01*
X92312217Y-100479895D02*
X92350313Y-100860847D01*
X92350313Y-100860847D02*
X92312217Y-100822752D01*
X92312217Y-100822752D02*
X92236027Y-100784657D01*
X92236027Y-100784657D02*
X92045551Y-100784657D01*
X92045551Y-100784657D02*
X91969360Y-100822752D01*
X91969360Y-100822752D02*
X91931265Y-100860847D01*
X91931265Y-100860847D02*
X91893170Y-100937038D01*
X91893170Y-100937038D02*
X91893170Y-101127514D01*
X91893170Y-101127514D02*
X91931265Y-101203704D01*
X91931265Y-101203704D02*
X91969360Y-101241800D01*
X91969360Y-101241800D02*
X92045551Y-101279895D01*
X92045551Y-101279895D02*
X92236027Y-101279895D01*
X92236027Y-101279895D02*
X92312217Y-101241800D01*
X92312217Y-101241800D02*
X92350313Y-101203704D01*
X85587217Y-88554895D02*
X85587217Y-87754895D01*
X85587217Y-87754895D02*
X85396741Y-87754895D01*
X85396741Y-87754895D02*
X85282455Y-87792990D01*
X85282455Y-87792990D02*
X85206265Y-87869180D01*
X85206265Y-87869180D02*
X85168170Y-87945371D01*
X85168170Y-87945371D02*
X85130074Y-88097752D01*
X85130074Y-88097752D02*
X85130074Y-88212038D01*
X85130074Y-88212038D02*
X85168170Y-88364419D01*
X85168170Y-88364419D02*
X85206265Y-88440609D01*
X85206265Y-88440609D02*
X85282455Y-88516800D01*
X85282455Y-88516800D02*
X85396741Y-88554895D01*
X85396741Y-88554895D02*
X85587217Y-88554895D01*
X84787217Y-88554895D02*
X84787217Y-87754895D01*
X84787217Y-87754895D02*
X84482455Y-87754895D01*
X84482455Y-87754895D02*
X84406265Y-87792990D01*
X84406265Y-87792990D02*
X84368170Y-87831085D01*
X84368170Y-87831085D02*
X84330074Y-87907276D01*
X84330074Y-87907276D02*
X84330074Y-88021561D01*
X84330074Y-88021561D02*
X84368170Y-88097752D01*
X84368170Y-88097752D02*
X84406265Y-88135847D01*
X84406265Y-88135847D02*
X84482455Y-88173942D01*
X84482455Y-88173942D02*
X84787217Y-88173942D01*
X83644360Y-87754895D02*
X83796741Y-87754895D01*
X83796741Y-87754895D02*
X83872932Y-87792990D01*
X83872932Y-87792990D02*
X83911027Y-87831085D01*
X83911027Y-87831085D02*
X83987217Y-87945371D01*
X83987217Y-87945371D02*
X84025313Y-88097752D01*
X84025313Y-88097752D02*
X84025313Y-88402514D01*
X84025313Y-88402514D02*
X83987217Y-88478704D01*
X83987217Y-88478704D02*
X83949122Y-88516800D01*
X83949122Y-88516800D02*
X83872932Y-88554895D01*
X83872932Y-88554895D02*
X83720551Y-88554895D01*
X83720551Y-88554895D02*
X83644360Y-88516800D01*
X83644360Y-88516800D02*
X83606265Y-88478704D01*
X83606265Y-88478704D02*
X83568170Y-88402514D01*
X83568170Y-88402514D02*
X83568170Y-88212038D01*
X83568170Y-88212038D02*
X83606265Y-88135847D01*
X83606265Y-88135847D02*
X83644360Y-88097752D01*
X83644360Y-88097752D02*
X83720551Y-88059657D01*
X83720551Y-88059657D02*
X83872932Y-88059657D01*
X83872932Y-88059657D02*
X83949122Y-88097752D01*
X83949122Y-88097752D02*
X83987217Y-88135847D01*
X83987217Y-88135847D02*
X84025313Y-88212038D01*
X93112217Y-96199895D02*
X93112217Y-95399895D01*
X93112217Y-95399895D02*
X92921741Y-95399895D01*
X92921741Y-95399895D02*
X92807455Y-95437990D01*
X92807455Y-95437990D02*
X92731265Y-95514180D01*
X92731265Y-95514180D02*
X92693170Y-95590371D01*
X92693170Y-95590371D02*
X92655074Y-95742752D01*
X92655074Y-95742752D02*
X92655074Y-95857038D01*
X92655074Y-95857038D02*
X92693170Y-96009419D01*
X92693170Y-96009419D02*
X92731265Y-96085609D01*
X92731265Y-96085609D02*
X92807455Y-96161800D01*
X92807455Y-96161800D02*
X92921741Y-96199895D01*
X92921741Y-96199895D02*
X93112217Y-96199895D01*
X92388408Y-95399895D02*
X91893170Y-95399895D01*
X91893170Y-95399895D02*
X92159836Y-95704657D01*
X92159836Y-95704657D02*
X92045551Y-95704657D01*
X92045551Y-95704657D02*
X91969360Y-95742752D01*
X91969360Y-95742752D02*
X91931265Y-95780847D01*
X91931265Y-95780847D02*
X91893170Y-95857038D01*
X91893170Y-95857038D02*
X91893170Y-96047514D01*
X91893170Y-96047514D02*
X91931265Y-96123704D01*
X91931265Y-96123704D02*
X91969360Y-96161800D01*
X91969360Y-96161800D02*
X92045551Y-96199895D01*
X92045551Y-96199895D02*
X92274122Y-96199895D01*
X92274122Y-96199895D02*
X92350313Y-96161800D01*
X92350313Y-96161800D02*
X92388408Y-96123704D01*
D10*
X94622814Y-115767857D02*
X94694242Y-115982143D01*
X94694242Y-115982143D02*
X94765671Y-116053572D01*
X94765671Y-116053572D02*
X94908528Y-116125000D01*
X94908528Y-116125000D02*
X95122814Y-116125000D01*
X95122814Y-116125000D02*
X95265671Y-116053572D01*
X95265671Y-116053572D02*
X95337100Y-115982143D01*
X95337100Y-115982143D02*
X95408528Y-115839286D01*
X95408528Y-115839286D02*
X95408528Y-115267857D01*
X95408528Y-115267857D02*
X93908528Y-115267857D01*
X93908528Y-115267857D02*
X93908528Y-115767857D01*
X93908528Y-115767857D02*
X93979957Y-115910715D01*
X93979957Y-115910715D02*
X94051385Y-115982143D01*
X94051385Y-115982143D02*
X94194242Y-116053572D01*
X94194242Y-116053572D02*
X94337100Y-116053572D01*
X94337100Y-116053572D02*
X94479957Y-115982143D01*
X94479957Y-115982143D02*
X94551385Y-115910715D01*
X94551385Y-115910715D02*
X94622814Y-115767857D01*
X94622814Y-115767857D02*
X94622814Y-115267857D01*
X95408528Y-117410715D02*
X94622814Y-117410715D01*
X94622814Y-117410715D02*
X94479957Y-117339286D01*
X94479957Y-117339286D02*
X94408528Y-117196429D01*
X94408528Y-117196429D02*
X94408528Y-116910715D01*
X94408528Y-116910715D02*
X94479957Y-116767857D01*
X95337100Y-117410715D02*
X95408528Y-117267857D01*
X95408528Y-117267857D02*
X95408528Y-116910715D01*
X95408528Y-116910715D02*
X95337100Y-116767857D01*
X95337100Y-116767857D02*
X95194242Y-116696429D01*
X95194242Y-116696429D02*
X95051385Y-116696429D01*
X95051385Y-116696429D02*
X94908528Y-116767857D01*
X94908528Y-116767857D02*
X94837100Y-116910715D01*
X94837100Y-116910715D02*
X94837100Y-117267857D01*
X94837100Y-117267857D02*
X94765671Y-117410715D01*
X94408528Y-117910715D02*
X94408528Y-118482143D01*
X93908528Y-118125000D02*
X95194242Y-118125000D01*
X95194242Y-118125000D02*
X95337100Y-118196429D01*
X95337100Y-118196429D02*
X95408528Y-118339286D01*
X95408528Y-118339286D02*
X95408528Y-118482143D01*
X94408528Y-118767858D02*
X94408528Y-119339286D01*
X93908528Y-118982143D02*
X95194242Y-118982143D01*
X95194242Y-118982143D02*
X95337100Y-119053572D01*
X95337100Y-119053572D02*
X95408528Y-119196429D01*
X95408528Y-119196429D02*
X95408528Y-119339286D01*
X95337100Y-120410715D02*
X95408528Y-120267858D01*
X95408528Y-120267858D02*
X95408528Y-119982144D01*
X95408528Y-119982144D02*
X95337100Y-119839286D01*
X95337100Y-119839286D02*
X95194242Y-119767858D01*
X95194242Y-119767858D02*
X94622814Y-119767858D01*
X94622814Y-119767858D02*
X94479957Y-119839286D01*
X94479957Y-119839286D02*
X94408528Y-119982144D01*
X94408528Y-119982144D02*
X94408528Y-120267858D01*
X94408528Y-120267858D02*
X94479957Y-120410715D01*
X94479957Y-120410715D02*
X94622814Y-120482144D01*
X94622814Y-120482144D02*
X94765671Y-120482144D01*
X94765671Y-120482144D02*
X94908528Y-119767858D01*
X95408528Y-121125000D02*
X94408528Y-121125000D01*
X94694242Y-121125000D02*
X94551385Y-121196429D01*
X94551385Y-121196429D02*
X94479957Y-121267858D01*
X94479957Y-121267858D02*
X94408528Y-121410715D01*
X94408528Y-121410715D02*
X94408528Y-121553572D01*
X94408528Y-121910714D02*
X95408528Y-122267857D01*
X94408528Y-122625000D02*
X95408528Y-122267857D01*
X95408528Y-122267857D02*
X95765671Y-122125000D01*
X95765671Y-122125000D02*
X95837100Y-122053571D01*
X95837100Y-122053571D02*
X95908528Y-121910714D01*
D13*
X93569360Y-85277990D02*
X93645550Y-85239895D01*
X93645550Y-85239895D02*
X93759836Y-85239895D01*
X93759836Y-85239895D02*
X93874122Y-85277990D01*
X93874122Y-85277990D02*
X93950312Y-85354180D01*
X93950312Y-85354180D02*
X93988407Y-85430371D01*
X93988407Y-85430371D02*
X94026503Y-85582752D01*
X94026503Y-85582752D02*
X94026503Y-85697038D01*
X94026503Y-85697038D02*
X93988407Y-85849419D01*
X93988407Y-85849419D02*
X93950312Y-85925609D01*
X93950312Y-85925609D02*
X93874122Y-86001800D01*
X93874122Y-86001800D02*
X93759836Y-86039895D01*
X93759836Y-86039895D02*
X93683645Y-86039895D01*
X93683645Y-86039895D02*
X93569360Y-86001800D01*
X93569360Y-86001800D02*
X93531264Y-85963704D01*
X93531264Y-85963704D02*
X93531264Y-85697038D01*
X93531264Y-85697038D02*
X93683645Y-85697038D01*
X93188407Y-86039895D02*
X93188407Y-85239895D01*
X93188407Y-85239895D02*
X92731264Y-86039895D01*
X92731264Y-86039895D02*
X92731264Y-85239895D01*
X92350312Y-86039895D02*
X92350312Y-85239895D01*
X92350312Y-85239895D02*
X92159836Y-85239895D01*
X92159836Y-85239895D02*
X92045550Y-85277990D01*
X92045550Y-85277990D02*
X91969360Y-85354180D01*
X91969360Y-85354180D02*
X91931265Y-85430371D01*
X91931265Y-85430371D02*
X91893169Y-85582752D01*
X91893169Y-85582752D02*
X91893169Y-85697038D01*
X91893169Y-85697038D02*
X91931265Y-85849419D01*
X91931265Y-85849419D02*
X91969360Y-85925609D01*
X91969360Y-85925609D02*
X92045550Y-86001800D01*
X92045550Y-86001800D02*
X92159836Y-86039895D01*
X92159836Y-86039895D02*
X92350312Y-86039895D01*
D10*
X95991471Y-105346428D02*
X94491471Y-104989285D01*
X94491471Y-104989285D02*
X95562900Y-104703571D01*
X95562900Y-104703571D02*
X94491471Y-104417856D01*
X94491471Y-104417856D02*
X95991471Y-104060714D01*
X94491471Y-103489285D02*
X95491471Y-103489285D01*
X95991471Y-103489285D02*
X95920042Y-103560713D01*
X95920042Y-103560713D02*
X95848614Y-103489285D01*
X95848614Y-103489285D02*
X95920042Y-103417856D01*
X95920042Y-103417856D02*
X95991471Y-103489285D01*
X95991471Y-103489285D02*
X95848614Y-103489285D01*
X94491471Y-102774999D02*
X95491471Y-102774999D01*
X95205757Y-102774999D02*
X95348614Y-102703570D01*
X95348614Y-102703570D02*
X95420042Y-102632142D01*
X95420042Y-102632142D02*
X95491471Y-102489284D01*
X95491471Y-102489284D02*
X95491471Y-102346427D01*
X94562900Y-101274999D02*
X94491471Y-101417856D01*
X94491471Y-101417856D02*
X94491471Y-101703571D01*
X94491471Y-101703571D02*
X94562900Y-101846428D01*
X94562900Y-101846428D02*
X94705757Y-101917856D01*
X94705757Y-101917856D02*
X95277185Y-101917856D01*
X95277185Y-101917856D02*
X95420042Y-101846428D01*
X95420042Y-101846428D02*
X95491471Y-101703571D01*
X95491471Y-101703571D02*
X95491471Y-101417856D01*
X95491471Y-101417856D02*
X95420042Y-101274999D01*
X95420042Y-101274999D02*
X95277185Y-101203571D01*
X95277185Y-101203571D02*
X95134328Y-101203571D01*
X95134328Y-101203571D02*
X94991471Y-101917856D01*
X94491471Y-99917857D02*
X95991471Y-99917857D01*
X94562900Y-99917857D02*
X94491471Y-100060714D01*
X94491471Y-100060714D02*
X94491471Y-100346428D01*
X94491471Y-100346428D02*
X94562900Y-100489285D01*
X94562900Y-100489285D02*
X94634328Y-100560714D01*
X94634328Y-100560714D02*
X94777185Y-100632142D01*
X94777185Y-100632142D02*
X95205757Y-100632142D01*
X95205757Y-100632142D02*
X95348614Y-100560714D01*
X95348614Y-100560714D02*
X95420042Y-100489285D01*
X95420042Y-100489285D02*
X95491471Y-100346428D01*
X95491471Y-100346428D02*
X95491471Y-100060714D01*
X95491471Y-100060714D02*
X95420042Y-99917857D01*
X94634328Y-97203571D02*
X94562900Y-97274999D01*
X94562900Y-97274999D02*
X94491471Y-97489285D01*
X94491471Y-97489285D02*
X94491471Y-97632142D01*
X94491471Y-97632142D02*
X94562900Y-97846428D01*
X94562900Y-97846428D02*
X94705757Y-97989285D01*
X94705757Y-97989285D02*
X94848614Y-98060714D01*
X94848614Y-98060714D02*
X95134328Y-98132142D01*
X95134328Y-98132142D02*
X95348614Y-98132142D01*
X95348614Y-98132142D02*
X95634328Y-98060714D01*
X95634328Y-98060714D02*
X95777185Y-97989285D01*
X95777185Y-97989285D02*
X95920042Y-97846428D01*
X95920042Y-97846428D02*
X95991471Y-97632142D01*
X95991471Y-97632142D02*
X95991471Y-97489285D01*
X95991471Y-97489285D02*
X95920042Y-97274999D01*
X95920042Y-97274999D02*
X95848614Y-97203571D01*
X94491471Y-96346428D02*
X94562900Y-96489285D01*
X94562900Y-96489285D02*
X94634328Y-96560714D01*
X94634328Y-96560714D02*
X94777185Y-96632142D01*
X94777185Y-96632142D02*
X95205757Y-96632142D01*
X95205757Y-96632142D02*
X95348614Y-96560714D01*
X95348614Y-96560714D02*
X95420042Y-96489285D01*
X95420042Y-96489285D02*
X95491471Y-96346428D01*
X95491471Y-96346428D02*
X95491471Y-96132142D01*
X95491471Y-96132142D02*
X95420042Y-95989285D01*
X95420042Y-95989285D02*
X95348614Y-95917857D01*
X95348614Y-95917857D02*
X95205757Y-95846428D01*
X95205757Y-95846428D02*
X94777185Y-95846428D01*
X94777185Y-95846428D02*
X94634328Y-95917857D01*
X94634328Y-95917857D02*
X94562900Y-95989285D01*
X94562900Y-95989285D02*
X94491471Y-96132142D01*
X94491471Y-96132142D02*
X94491471Y-96346428D01*
X95491471Y-95203571D02*
X94491471Y-95203571D01*
X95348614Y-95203571D02*
X95420042Y-95132142D01*
X95420042Y-95132142D02*
X95491471Y-94989285D01*
X95491471Y-94989285D02*
X95491471Y-94774999D01*
X95491471Y-94774999D02*
X95420042Y-94632142D01*
X95420042Y-94632142D02*
X95277185Y-94560714D01*
X95277185Y-94560714D02*
X94491471Y-94560714D01*
X95491471Y-93846428D02*
X94491471Y-93846428D01*
X95348614Y-93846428D02*
X95420042Y-93774999D01*
X95420042Y-93774999D02*
X95491471Y-93632142D01*
X95491471Y-93632142D02*
X95491471Y-93417856D01*
X95491471Y-93417856D02*
X95420042Y-93274999D01*
X95420042Y-93274999D02*
X95277185Y-93203571D01*
X95277185Y-93203571D02*
X94491471Y-93203571D01*
X94562900Y-91917856D02*
X94491471Y-92060713D01*
X94491471Y-92060713D02*
X94491471Y-92346428D01*
X94491471Y-92346428D02*
X94562900Y-92489285D01*
X94562900Y-92489285D02*
X94705757Y-92560713D01*
X94705757Y-92560713D02*
X95277185Y-92560713D01*
X95277185Y-92560713D02*
X95420042Y-92489285D01*
X95420042Y-92489285D02*
X95491471Y-92346428D01*
X95491471Y-92346428D02*
X95491471Y-92060713D01*
X95491471Y-92060713D02*
X95420042Y-91917856D01*
X95420042Y-91917856D02*
X95277185Y-91846428D01*
X95277185Y-91846428D02*
X95134328Y-91846428D01*
X95134328Y-91846428D02*
X94991471Y-92560713D01*
X94562900Y-90560714D02*
X94491471Y-90703571D01*
X94491471Y-90703571D02*
X94491471Y-90989285D01*
X94491471Y-90989285D02*
X94562900Y-91132142D01*
X94562900Y-91132142D02*
X94634328Y-91203571D01*
X94634328Y-91203571D02*
X94777185Y-91274999D01*
X94777185Y-91274999D02*
X95205757Y-91274999D01*
X95205757Y-91274999D02*
X95348614Y-91203571D01*
X95348614Y-91203571D02*
X95420042Y-91132142D01*
X95420042Y-91132142D02*
X95491471Y-90989285D01*
X95491471Y-90989285D02*
X95491471Y-90703571D01*
X95491471Y-90703571D02*
X95420042Y-90560714D01*
X95491471Y-90132142D02*
X95491471Y-89560714D01*
X95991471Y-89917857D02*
X94705757Y-89917857D01*
X94705757Y-89917857D02*
X94562900Y-89846428D01*
X94562900Y-89846428D02*
X94491471Y-89703571D01*
X94491471Y-89703571D02*
X94491471Y-89560714D01*
X94491471Y-89060714D02*
X95491471Y-89060714D01*
X95991471Y-89060714D02*
X95920042Y-89132142D01*
X95920042Y-89132142D02*
X95848614Y-89060714D01*
X95848614Y-89060714D02*
X95920042Y-88989285D01*
X95920042Y-88989285D02*
X95991471Y-89060714D01*
X95991471Y-89060714D02*
X95848614Y-89060714D01*
X94491471Y-88132142D02*
X94562900Y-88274999D01*
X94562900Y-88274999D02*
X94634328Y-88346428D01*
X94634328Y-88346428D02*
X94777185Y-88417856D01*
X94777185Y-88417856D02*
X95205757Y-88417856D01*
X95205757Y-88417856D02*
X95348614Y-88346428D01*
X95348614Y-88346428D02*
X95420042Y-88274999D01*
X95420042Y-88274999D02*
X95491471Y-88132142D01*
X95491471Y-88132142D02*
X95491471Y-87917856D01*
X95491471Y-87917856D02*
X95420042Y-87774999D01*
X95420042Y-87774999D02*
X95348614Y-87703571D01*
X95348614Y-87703571D02*
X95205757Y-87632142D01*
X95205757Y-87632142D02*
X94777185Y-87632142D01*
X94777185Y-87632142D02*
X94634328Y-87703571D01*
X94634328Y-87703571D02*
X94562900Y-87774999D01*
X94562900Y-87774999D02*
X94491471Y-87917856D01*
X94491471Y-87917856D02*
X94491471Y-88132142D01*
X95491471Y-86989285D02*
X94491471Y-86989285D01*
X95348614Y-86989285D02*
X95420042Y-86917856D01*
X95420042Y-86917856D02*
X95491471Y-86774999D01*
X95491471Y-86774999D02*
X95491471Y-86560713D01*
X95491471Y-86560713D02*
X95420042Y-86417856D01*
X95420042Y-86417856D02*
X95277185Y-86346428D01*
X95277185Y-86346428D02*
X94491471Y-86346428D01*
D13*
X93112217Y-93659895D02*
X93112217Y-92859895D01*
X93112217Y-92859895D02*
X92921741Y-92859895D01*
X92921741Y-92859895D02*
X92807455Y-92897990D01*
X92807455Y-92897990D02*
X92731265Y-92974180D01*
X92731265Y-92974180D02*
X92693170Y-93050371D01*
X92693170Y-93050371D02*
X92655074Y-93202752D01*
X92655074Y-93202752D02*
X92655074Y-93317038D01*
X92655074Y-93317038D02*
X92693170Y-93469419D01*
X92693170Y-93469419D02*
X92731265Y-93545609D01*
X92731265Y-93545609D02*
X92807455Y-93621800D01*
X92807455Y-93621800D02*
X92921741Y-93659895D01*
X92921741Y-93659895D02*
X93112217Y-93659895D01*
X92350313Y-92936085D02*
X92312217Y-92897990D01*
X92312217Y-92897990D02*
X92236027Y-92859895D01*
X92236027Y-92859895D02*
X92045551Y-92859895D01*
X92045551Y-92859895D02*
X91969360Y-92897990D01*
X91969360Y-92897990D02*
X91931265Y-92936085D01*
X91931265Y-92936085D02*
X91893170Y-93012276D01*
X91893170Y-93012276D02*
X91893170Y-93088466D01*
X91893170Y-93088466D02*
X91931265Y-93202752D01*
X91931265Y-93202752D02*
X92388408Y-93659895D01*
X92388408Y-93659895D02*
X91893170Y-93659895D01*
X85587217Y-98714895D02*
X85587217Y-97914895D01*
X85587217Y-97914895D02*
X85396741Y-97914895D01*
X85396741Y-97914895D02*
X85282455Y-97952990D01*
X85282455Y-97952990D02*
X85206265Y-98029180D01*
X85206265Y-98029180D02*
X85168170Y-98105371D01*
X85168170Y-98105371D02*
X85130074Y-98257752D01*
X85130074Y-98257752D02*
X85130074Y-98372038D01*
X85130074Y-98372038D02*
X85168170Y-98524419D01*
X85168170Y-98524419D02*
X85206265Y-98600609D01*
X85206265Y-98600609D02*
X85282455Y-98676800D01*
X85282455Y-98676800D02*
X85396741Y-98714895D01*
X85396741Y-98714895D02*
X85587217Y-98714895D01*
X84787217Y-98714895D02*
X84787217Y-97914895D01*
X84787217Y-97914895D02*
X84482455Y-97914895D01*
X84482455Y-97914895D02*
X84406265Y-97952990D01*
X84406265Y-97952990D02*
X84368170Y-97991085D01*
X84368170Y-97991085D02*
X84330074Y-98067276D01*
X84330074Y-98067276D02*
X84330074Y-98181561D01*
X84330074Y-98181561D02*
X84368170Y-98257752D01*
X84368170Y-98257752D02*
X84406265Y-98295847D01*
X84406265Y-98295847D02*
X84482455Y-98333942D01*
X84482455Y-98333942D02*
X84787217Y-98333942D01*
X83606265Y-97914895D02*
X83987217Y-97914895D01*
X83987217Y-97914895D02*
X84025313Y-98295847D01*
X84025313Y-98295847D02*
X83987217Y-98257752D01*
X83987217Y-98257752D02*
X83911027Y-98219657D01*
X83911027Y-98219657D02*
X83720551Y-98219657D01*
X83720551Y-98219657D02*
X83644360Y-98257752D01*
X83644360Y-98257752D02*
X83606265Y-98295847D01*
X83606265Y-98295847D02*
X83568170Y-98372038D01*
X83568170Y-98372038D02*
X83568170Y-98562514D01*
X83568170Y-98562514D02*
X83606265Y-98638704D01*
X83606265Y-98638704D02*
X83644360Y-98676800D01*
X83644360Y-98676800D02*
X83720551Y-98714895D01*
X83720551Y-98714895D02*
X83911027Y-98714895D01*
X83911027Y-98714895D02*
X83987217Y-98676800D01*
X83987217Y-98676800D02*
X84025313Y-98638704D01*
X85587217Y-91094895D02*
X85587217Y-90294895D01*
X85587217Y-90294895D02*
X85396741Y-90294895D01*
X85396741Y-90294895D02*
X85282455Y-90332990D01*
X85282455Y-90332990D02*
X85206265Y-90409180D01*
X85206265Y-90409180D02*
X85168170Y-90485371D01*
X85168170Y-90485371D02*
X85130074Y-90637752D01*
X85130074Y-90637752D02*
X85130074Y-90752038D01*
X85130074Y-90752038D02*
X85168170Y-90904419D01*
X85168170Y-90904419D02*
X85206265Y-90980609D01*
X85206265Y-90980609D02*
X85282455Y-91056800D01*
X85282455Y-91056800D02*
X85396741Y-91094895D01*
X85396741Y-91094895D02*
X85587217Y-91094895D01*
X84787217Y-91094895D02*
X84787217Y-90294895D01*
X84787217Y-90294895D02*
X84482455Y-90294895D01*
X84482455Y-90294895D02*
X84406265Y-90332990D01*
X84406265Y-90332990D02*
X84368170Y-90371085D01*
X84368170Y-90371085D02*
X84330074Y-90447276D01*
X84330074Y-90447276D02*
X84330074Y-90561561D01*
X84330074Y-90561561D02*
X84368170Y-90637752D01*
X84368170Y-90637752D02*
X84406265Y-90675847D01*
X84406265Y-90675847D02*
X84482455Y-90713942D01*
X84482455Y-90713942D02*
X84787217Y-90713942D01*
X84063408Y-90294895D02*
X83530074Y-90294895D01*
X83530074Y-90294895D02*
X83872932Y-91094895D01*
X93112217Y-88579895D02*
X93112217Y-87779895D01*
X93112217Y-87779895D02*
X92921741Y-87779895D01*
X92921741Y-87779895D02*
X92807455Y-87817990D01*
X92807455Y-87817990D02*
X92731265Y-87894180D01*
X92731265Y-87894180D02*
X92693170Y-87970371D01*
X92693170Y-87970371D02*
X92655074Y-88122752D01*
X92655074Y-88122752D02*
X92655074Y-88237038D01*
X92655074Y-88237038D02*
X92693170Y-88389419D01*
X92693170Y-88389419D02*
X92731265Y-88465609D01*
X92731265Y-88465609D02*
X92807455Y-88541800D01*
X92807455Y-88541800D02*
X92921741Y-88579895D01*
X92921741Y-88579895D02*
X93112217Y-88579895D01*
X92159836Y-87779895D02*
X92083646Y-87779895D01*
X92083646Y-87779895D02*
X92007455Y-87817990D01*
X92007455Y-87817990D02*
X91969360Y-87856085D01*
X91969360Y-87856085D02*
X91931265Y-87932276D01*
X91931265Y-87932276D02*
X91893170Y-88084657D01*
X91893170Y-88084657D02*
X91893170Y-88275133D01*
X91893170Y-88275133D02*
X91931265Y-88427514D01*
X91931265Y-88427514D02*
X91969360Y-88503704D01*
X91969360Y-88503704D02*
X92007455Y-88541800D01*
X92007455Y-88541800D02*
X92083646Y-88579895D01*
X92083646Y-88579895D02*
X92159836Y-88579895D01*
X92159836Y-88579895D02*
X92236027Y-88541800D01*
X92236027Y-88541800D02*
X92274122Y-88503704D01*
X92274122Y-88503704D02*
X92312217Y-88427514D01*
X92312217Y-88427514D02*
X92350313Y-88275133D01*
X92350313Y-88275133D02*
X92350313Y-88084657D01*
X92350313Y-88084657D02*
X92312217Y-87932276D01*
X92312217Y-87932276D02*
X92274122Y-87856085D01*
X92274122Y-87856085D02*
X92236027Y-87817990D01*
X92236027Y-87817990D02*
X92159836Y-87779895D01*
X93112217Y-98739895D02*
X93112217Y-97939895D01*
X93112217Y-97939895D02*
X92921741Y-97939895D01*
X92921741Y-97939895D02*
X92807455Y-97977990D01*
X92807455Y-97977990D02*
X92731265Y-98054180D01*
X92731265Y-98054180D02*
X92693170Y-98130371D01*
X92693170Y-98130371D02*
X92655074Y-98282752D01*
X92655074Y-98282752D02*
X92655074Y-98397038D01*
X92655074Y-98397038D02*
X92693170Y-98549419D01*
X92693170Y-98549419D02*
X92731265Y-98625609D01*
X92731265Y-98625609D02*
X92807455Y-98701800D01*
X92807455Y-98701800D02*
X92921741Y-98739895D01*
X92921741Y-98739895D02*
X93112217Y-98739895D01*
X91969360Y-98206561D02*
X91969360Y-98739895D01*
X92159836Y-97901800D02*
X92350313Y-98473228D01*
X92350313Y-98473228D02*
X91855074Y-98473228D01*
X85587217Y-96174895D02*
X85587217Y-95374895D01*
X85587217Y-95374895D02*
X85396741Y-95374895D01*
X85396741Y-95374895D02*
X85282455Y-95412990D01*
X85282455Y-95412990D02*
X85206265Y-95489180D01*
X85206265Y-95489180D02*
X85168170Y-95565371D01*
X85168170Y-95565371D02*
X85130074Y-95717752D01*
X85130074Y-95717752D02*
X85130074Y-95832038D01*
X85130074Y-95832038D02*
X85168170Y-95984419D01*
X85168170Y-95984419D02*
X85206265Y-96060609D01*
X85206265Y-96060609D02*
X85282455Y-96136800D01*
X85282455Y-96136800D02*
X85396741Y-96174895D01*
X85396741Y-96174895D02*
X85587217Y-96174895D01*
X84787217Y-96174895D02*
X84787217Y-95374895D01*
X84787217Y-95374895D02*
X84482455Y-95374895D01*
X84482455Y-95374895D02*
X84406265Y-95412990D01*
X84406265Y-95412990D02*
X84368170Y-95451085D01*
X84368170Y-95451085D02*
X84330074Y-95527276D01*
X84330074Y-95527276D02*
X84330074Y-95641561D01*
X84330074Y-95641561D02*
X84368170Y-95717752D01*
X84368170Y-95717752D02*
X84406265Y-95755847D01*
X84406265Y-95755847D02*
X84482455Y-95793942D01*
X84482455Y-95793942D02*
X84787217Y-95793942D01*
X83949122Y-96174895D02*
X83796741Y-96174895D01*
X83796741Y-96174895D02*
X83720551Y-96136800D01*
X83720551Y-96136800D02*
X83682455Y-96098704D01*
X83682455Y-96098704D02*
X83606265Y-95984419D01*
X83606265Y-95984419D02*
X83568170Y-95832038D01*
X83568170Y-95832038D02*
X83568170Y-95527276D01*
X83568170Y-95527276D02*
X83606265Y-95451085D01*
X83606265Y-95451085D02*
X83644360Y-95412990D01*
X83644360Y-95412990D02*
X83720551Y-95374895D01*
X83720551Y-95374895D02*
X83872932Y-95374895D01*
X83872932Y-95374895D02*
X83949122Y-95412990D01*
X83949122Y-95412990D02*
X83987217Y-95451085D01*
X83987217Y-95451085D02*
X84025313Y-95527276D01*
X84025313Y-95527276D02*
X84025313Y-95717752D01*
X84025313Y-95717752D02*
X83987217Y-95793942D01*
X83987217Y-95793942D02*
X83949122Y-95832038D01*
X83949122Y-95832038D02*
X83872932Y-95870133D01*
X83872932Y-95870133D02*
X83720551Y-95870133D01*
X83720551Y-95870133D02*
X83644360Y-95832038D01*
X83644360Y-95832038D02*
X83606265Y-95793942D01*
X83606265Y-95793942D02*
X83568170Y-95717752D01*
D14*
X91504576Y-123137877D02*
X91504576Y-121995020D01*
D13*
X87039896Y-117958298D02*
X87611324Y-117958298D01*
X87611324Y-117958298D02*
X87725610Y-117920203D01*
X87725610Y-117920203D02*
X87801801Y-117844012D01*
X87801801Y-117844012D02*
X87839896Y-117729727D01*
X87839896Y-117729727D02*
X87839896Y-117653536D01*
X87039896Y-118720203D02*
X87039896Y-118339251D01*
X87039896Y-118339251D02*
X87420848Y-118301155D01*
X87420848Y-118301155D02*
X87382753Y-118339251D01*
X87382753Y-118339251D02*
X87344658Y-118415441D01*
X87344658Y-118415441D02*
X87344658Y-118605917D01*
X87344658Y-118605917D02*
X87382753Y-118682108D01*
X87382753Y-118682108D02*
X87420848Y-118720203D01*
X87420848Y-118720203D02*
X87497039Y-118758298D01*
X87497039Y-118758298D02*
X87687515Y-118758298D01*
X87687515Y-118758298D02*
X87763705Y-118720203D01*
X87763705Y-118720203D02*
X87801801Y-118682108D01*
X87801801Y-118682108D02*
X87839896Y-118605917D01*
X87839896Y-118605917D02*
X87839896Y-118415441D01*
X87839896Y-118415441D02*
X87801801Y-118339251D01*
X87801801Y-118339251D02*
X87763705Y-118301155D01*
D14*
X89358333Y-82504819D02*
X89358333Y-83219104D01*
X89358333Y-83219104D02*
X89405952Y-83361961D01*
X89405952Y-83361961D02*
X89501190Y-83457200D01*
X89501190Y-83457200D02*
X89644047Y-83504819D01*
X89644047Y-83504819D02*
X89739285Y-83504819D01*
X88453571Y-82838152D02*
X88453571Y-83504819D01*
X88691666Y-82457200D02*
X88929761Y-83171485D01*
X88929761Y-83171485D02*
X88310714Y-83171485D01*
D15*
%TO.C,J5*%
X88699999Y-115758900D02*
X93200000Y-115758900D01*
X88700000Y-121658900D02*
X88699999Y-115758900D01*
X93200000Y-115758900D02*
X93200001Y-121658900D01*
X93200001Y-121658900D02*
X88700000Y-121658900D01*
D10*
X94000000Y-119708900D02*
G75*
G02*
X93800000Y-119708900I-100000J0D01*
G01*
X93800000Y-119708900D02*
G75*
G02*
X94000000Y-119708900I100000J0D01*
G01*
D16*
%TO.C,J4*%
X79590000Y-84270000D02*
X80700000Y-84270000D01*
X79590000Y-85600000D02*
X79590000Y-84270000D01*
X81750000Y-87780000D02*
X82160000Y-87780000D01*
X81750000Y-88500000D02*
X82160000Y-88500000D01*
X81750000Y-90320000D02*
X82160000Y-90320000D01*
X81750000Y-91040000D02*
X82160000Y-91040000D01*
X81750000Y-92860000D02*
X82160000Y-92860000D01*
X81750000Y-93580000D02*
X82160000Y-93580000D01*
X81750000Y-95400000D02*
X82160000Y-95400000D01*
X81750000Y-96120000D02*
X82160000Y-96120000D01*
X81750000Y-97940000D02*
X82160000Y-97940000D01*
X81750000Y-98660000D02*
X82160000Y-98660000D01*
X81750000Y-100480000D02*
X82160000Y-100480000D01*
X81750000Y-101200000D02*
X82160000Y-101200000D01*
X81750000Y-103020000D02*
X82160000Y-103020000D01*
X81750000Y-103740000D02*
X82160000Y-103740000D01*
X81750000Y-105560000D02*
X82160000Y-105560000D01*
X81750000Y-106280000D02*
X82160000Y-106280000D01*
X81810000Y-85240000D02*
X82160000Y-85240000D01*
X81810000Y-85960000D02*
X82160000Y-85960000D01*
X82160000Y-84270000D02*
X90790000Y-84270000D01*
X82160000Y-84390000D02*
X90790000Y-84390000D01*
X82160000Y-84508095D02*
X90790000Y-84508095D01*
X82160000Y-84626190D02*
X90790000Y-84626190D01*
X82160000Y-84744285D02*
X90790000Y-84744285D01*
X82160000Y-84862380D02*
X90790000Y-84862380D01*
X82160000Y-84980475D02*
X90790000Y-84980475D01*
X82160000Y-85098570D02*
X90790000Y-85098570D01*
X82160000Y-85216665D02*
X90790000Y-85216665D01*
X82160000Y-85334760D02*
X90790000Y-85334760D01*
X82160000Y-85452855D02*
X90790000Y-85452855D01*
X82160000Y-85570950D02*
X90790000Y-85570950D01*
X82160000Y-85689045D02*
X90790000Y-85689045D01*
X82160000Y-85807140D02*
X90790000Y-85807140D01*
X82160000Y-85925235D02*
X90790000Y-85925235D01*
X82160000Y-86043330D02*
X90790000Y-86043330D01*
X82160000Y-86161425D02*
X90790000Y-86161425D01*
X82160000Y-86279520D02*
X90790000Y-86279520D01*
X82160000Y-86397615D02*
X90790000Y-86397615D01*
X82160000Y-86515710D02*
X90790000Y-86515710D01*
X82160000Y-86633805D02*
X90790000Y-86633805D01*
X82160000Y-86751900D02*
X90790000Y-86751900D01*
X82160000Y-86870000D02*
X90790000Y-86870000D01*
X82160000Y-89410000D02*
X90790000Y-89410000D01*
X82160000Y-91950000D02*
X90790000Y-91950000D01*
X82160000Y-94490000D02*
X90790000Y-94490000D01*
X82160000Y-97030000D02*
X90790000Y-97030000D01*
X82160000Y-99570000D02*
X90790000Y-99570000D01*
X82160000Y-102110000D02*
X90790000Y-102110000D01*
X82160000Y-104650000D02*
X90790000Y-104650000D01*
X82160000Y-107250000D02*
X82160000Y-84270000D01*
X82160000Y-107250000D02*
X90790000Y-107250000D01*
X90790000Y-107250000D02*
X90790000Y-84270000D01*
%TD*%
%LPC*%
D17*
%TO.C,SW4*%
X138950000Y-87924100D03*
D18*
X151450000Y-87924100D03*
X138950000Y-92924100D03*
X151450000Y-92924100D03*
%TD*%
D19*
%TO.C,SW2*%
X159875000Y-77637500D03*
X171875000Y-77637500D03*
X159875000Y-83637500D03*
X171875000Y-83637500D03*
D20*
X161875000Y-79387500D03*
X165875000Y-79387500D03*
X169875000Y-79387500D03*
X161875000Y-81887500D03*
X165875000Y-81887500D03*
X169875000Y-81887500D03*
%TD*%
D21*
%TO.C,J3*%
X122350000Y-108010000D03*
D22*
X122350000Y-110550000D03*
X122350000Y-113090000D03*
%TD*%
D23*
%TO.C,SW6*%
X197470707Y-102303883D03*
D18*
X192586568Y-90797572D03*
X202073232Y-100350228D03*
X197189093Y-88843917D03*
%TD*%
D24*
%TO.C,M1*%
X108305000Y-116367500D03*
X101955000Y-116367500D03*
X108305000Y-111287500D03*
X101955000Y-111287500D03*
X107670000Y-93507500D03*
X105130000Y-93507500D03*
X102590000Y-93507500D03*
D25*
X112750000Y-110335000D03*
X112750000Y-97000000D03*
X97510000Y-97000000D03*
X97510000Y-110335000D03*
D24*
X115290000Y-106207500D03*
X115290000Y-103667500D03*
X115290000Y-101127500D03*
%TD*%
D26*
%TO.C,SW3*%
X198581483Y-82568993D03*
D18*
X187075172Y-87453132D03*
X196627828Y-77966468D03*
X185121517Y-82850607D03*
%TD*%
D27*
%TO.C,SW5*%
X182449109Y-90117445D03*
D18*
X172466166Y-97640133D03*
X179440034Y-86124267D03*
X169457091Y-93646955D03*
%TD*%
D28*
%TO.C,J2*%
X148700000Y-73216300D03*
D29*
X147700000Y-75916300D03*
X142700000Y-75916300D03*
D28*
X141700000Y-73216300D03*
%TD*%
D30*
%TO.C,SW7*%
X186118255Y-109542109D03*
D18*
X178595567Y-99559166D03*
X190111433Y-106533034D03*
X182588745Y-96550091D03*
%TD*%
D31*
%TO.C,SW9*%
X176978561Y-119256517D03*
D18*
X167264237Y-111390012D03*
X180125163Y-115370788D03*
X170410839Y-107504283D03*
%TD*%
D32*
%TO.C,SW8*%
X168721417Y-101344239D03*
D18*
X160854912Y-111058563D03*
X164835688Y-98197637D03*
X156969183Y-107911961D03*
%TD*%
D33*
%TO.C,J5*%
X91500001Y-119708900D03*
D34*
X91500001Y-117708900D03*
%TD*%
D21*
%TO.C,J4*%
X80700000Y-85600000D03*
D22*
X80700000Y-88140000D03*
X80700000Y-90680000D03*
X80700000Y-93220000D03*
X80700000Y-95760000D03*
X80700000Y-98300000D03*
X80700000Y-100840000D03*
X80700000Y-103380000D03*
X80700000Y-105920000D03*
%TD*%
%LPD*%
M02*
