%TF.GenerationSoftware,KiCad,Pcbnew,8.0.4*%
%TF.CreationDate,2024-10-28T15:11:12-07:00*%
%TF.ProjectId,ESP32-S3-DEVKITC-1,45535033-322d-4533-932d-4445564b4954,rev0*%
%TF.SameCoordinates,Original*%
%TF.FileFunction,Legend,Top*%
%TF.FilePolarity,Positive*%
%FSLAX46Y46*%
G04 Gerber Fmt 4.6, Leading zero omitted, Abs format (unit mm)*
G04 Created by KiCad (PCBNEW 8.0.4) date 2024-10-28 15:11:12*
%MOMM*%
%LPD*%
G01*
G04 APERTURE LIST*
G04 Aperture macros list*
%AMRoundRect*
0 Rectangle with rounded corners*
0 $1 Rounding radius*
0 $2 $3 $4 $5 $6 $7 $8 $9 X,Y pos of 4 corners*
0 Add a 4 corners polygon primitive as box body*
4,1,4,$2,$3,$4,$5,$6,$7,$8,$9,$2,$3,0*
0 Add four circle primitives for the rounded corners*
1,1,$1+$1,$2,$3*
1,1,$1+$1,$4,$5*
1,1,$1+$1,$6,$7*
1,1,$1+$1,$8,$9*
0 Add four rect primitives between the rounded corners*
20,1,$1+$1,$2,$3,$4,$5,0*
20,1,$1+$1,$4,$5,$6,$7,0*
20,1,$1+$1,$6,$7,$8,$9,0*
20,1,$1+$1,$8,$9,$2,$3,0*%
G04 Aperture macros list end*
%ADD10C,0.100000*%
%ADD11C,0.120000*%
%ADD12C,0.127000*%
%ADD13C,0.200000*%
%ADD14RoundRect,0.140000X-0.170000X0.140000X-0.170000X-0.140000X0.170000X-0.140000X0.170000X0.140000X0*%
%ADD15RoundRect,0.150000X0.150000X-0.587500X0.150000X0.587500X-0.150000X0.587500X-0.150000X-0.587500X0*%
%ADD16O,2.600000X1.700000*%
%ADD17RoundRect,0.102000X0.200000X-0.240000X0.200000X0.240000X-0.200000X0.240000X-0.200000X-0.240000X0*%
%ADD18RoundRect,0.062500X-0.062500X0.337500X-0.062500X-0.337500X0.062500X-0.337500X0.062500X0.337500X0*%
%ADD19RoundRect,0.062500X-0.337500X0.062500X-0.337500X-0.062500X0.337500X-0.062500X0.337500X0.062500X0*%
%ADD20R,3.350000X3.350000*%
%ADD21RoundRect,0.375000X-0.625000X-0.375000X0.625000X-0.375000X0.625000X0.375000X-0.625000X0.375000X0*%
%ADD22RoundRect,0.500000X-0.500000X-1.400000X0.500000X-1.400000X0.500000X1.400000X-0.500000X1.400000X0*%
%ADD23RoundRect,0.140000X0.170000X-0.140000X0.170000X0.140000X-0.170000X0.140000X-0.170000X-0.140000X0*%
%ADD24RoundRect,0.135000X-0.135000X-0.185000X0.135000X-0.185000X0.135000X0.185000X-0.135000X0.185000X0*%
%ADD25RoundRect,0.225000X-0.225000X-0.250000X0.225000X-0.250000X0.225000X0.250000X-0.225000X0.250000X0*%
%ADD26RoundRect,0.140000X-0.140000X-0.170000X0.140000X-0.170000X0.140000X0.170000X-0.140000X0.170000X0*%
%ADD27RoundRect,0.102000X0.525000X0.325000X-0.525000X0.325000X-0.525000X-0.325000X0.525000X-0.325000X0*%
%ADD28RoundRect,0.225000X-0.250000X0.225000X-0.250000X-0.225000X0.250000X-0.225000X0.250000X0.225000X0*%
%ADD29R,0.600000X1.000000*%
%ADD30RoundRect,0.102000X0.365000X-0.605000X0.365000X0.605000X-0.365000X0.605000X-0.365000X-0.605000X0*%
%ADD31R,0.400000X1.350000*%
%ADD32O,0.890000X1.550000*%
%ADD33R,1.200000X1.550000*%
%ADD34O,1.250000X0.950000*%
%ADD35R,1.500000X1.550000*%
%ADD36RoundRect,0.135000X0.135000X0.185000X-0.135000X0.185000X-0.135000X-0.185000X0.135000X-0.185000X0*%
%ADD37RoundRect,0.200000X-0.275000X0.200000X-0.275000X-0.200000X0.275000X-0.200000X0.275000X0.200000X0*%
%ADD38RoundRect,0.243750X0.456250X-0.243750X0.456250X0.243750X-0.456250X0.243750X-0.456250X-0.243750X0*%
%ADD39R,1.500000X0.900000*%
%ADD40R,0.900000X1.500000*%
%ADD41C,0.600000*%
%ADD42R,3.900000X3.900000*%
%ADD43RoundRect,0.135000X0.185000X-0.135000X0.185000X0.135000X-0.185000X0.135000X-0.185000X-0.135000X0*%
%ADD44RoundRect,0.102000X-0.525000X-0.325000X0.525000X-0.325000X0.525000X0.325000X-0.525000X0.325000X0*%
G04 APERTURE END LIST*
D10*
X157771047Y-95935581D02*
X157771047Y-96335581D01*
X157628189Y-95707010D02*
X157485332Y-96135581D01*
X157485332Y-96135581D02*
X157856761Y-96135581D01*
X158399618Y-96335581D02*
X158056761Y-96335581D01*
X158228190Y-96335581D02*
X158228190Y-95735581D01*
X158228190Y-95735581D02*
X158171047Y-95821295D01*
X158171047Y-95821295D02*
X158113904Y-95878438D01*
X158113904Y-95878438D02*
X158056761Y-95907010D01*
X157485332Y-83035581D02*
X157828190Y-83035581D01*
X157656761Y-83635581D02*
X157656761Y-83035581D01*
X157971047Y-83035581D02*
X158371047Y-83635581D01*
X158371047Y-83035581D02*
X157971047Y-83635581D01*
X158099618Y-80524152D02*
X158042476Y-80495581D01*
X158042476Y-80495581D02*
X157956761Y-80495581D01*
X157956761Y-80495581D02*
X157871047Y-80524152D01*
X157871047Y-80524152D02*
X157813904Y-80581295D01*
X157813904Y-80581295D02*
X157785333Y-80638438D01*
X157785333Y-80638438D02*
X157756761Y-80752724D01*
X157756761Y-80752724D02*
X157756761Y-80838438D01*
X157756761Y-80838438D02*
X157785333Y-80952724D01*
X157785333Y-80952724D02*
X157813904Y-81009867D01*
X157813904Y-81009867D02*
X157871047Y-81067010D01*
X157871047Y-81067010D02*
X157956761Y-81095581D01*
X157956761Y-81095581D02*
X158013904Y-81095581D01*
X158013904Y-81095581D02*
X158099618Y-81067010D01*
X158099618Y-81067010D02*
X158128190Y-81038438D01*
X158128190Y-81038438D02*
X158128190Y-80838438D01*
X158128190Y-80838438D02*
X158013904Y-80838438D01*
X135005627Y-131300911D02*
X134719913Y-131300911D01*
X134719913Y-131300911D02*
X134691341Y-131586625D01*
X134691341Y-131586625D02*
X134719913Y-131558054D01*
X134719913Y-131558054D02*
X134777056Y-131529482D01*
X134777056Y-131529482D02*
X134919913Y-131529482D01*
X134919913Y-131529482D02*
X134977056Y-131558054D01*
X134977056Y-131558054D02*
X135005627Y-131586625D01*
X135005627Y-131586625D02*
X135034198Y-131643768D01*
X135034198Y-131643768D02*
X135034198Y-131786625D01*
X135034198Y-131786625D02*
X135005627Y-131843768D01*
X135005627Y-131843768D02*
X134977056Y-131872340D01*
X134977056Y-131872340D02*
X134919913Y-131900911D01*
X134919913Y-131900911D02*
X134777056Y-131900911D01*
X134777056Y-131900911D02*
X134719913Y-131872340D01*
X134719913Y-131872340D02*
X134691341Y-131843768D01*
X135205627Y-131300911D02*
X135405627Y-131900911D01*
X135405627Y-131900911D02*
X135605627Y-131300911D01*
X134791341Y-86180911D02*
X134591341Y-85895197D01*
X134448484Y-86180911D02*
X134448484Y-85580911D01*
X134448484Y-85580911D02*
X134677055Y-85580911D01*
X134677055Y-85580911D02*
X134734198Y-85609482D01*
X134734198Y-85609482D02*
X134762769Y-85638054D01*
X134762769Y-85638054D02*
X134791341Y-85695197D01*
X134791341Y-85695197D02*
X134791341Y-85780911D01*
X134791341Y-85780911D02*
X134762769Y-85838054D01*
X134762769Y-85838054D02*
X134734198Y-85866625D01*
X134734198Y-85866625D02*
X134677055Y-85895197D01*
X134677055Y-85895197D02*
X134448484Y-85895197D01*
X135019912Y-86152340D02*
X135105627Y-86180911D01*
X135105627Y-86180911D02*
X135248484Y-86180911D01*
X135248484Y-86180911D02*
X135305627Y-86152340D01*
X135305627Y-86152340D02*
X135334198Y-86123768D01*
X135334198Y-86123768D02*
X135362769Y-86066625D01*
X135362769Y-86066625D02*
X135362769Y-86009482D01*
X135362769Y-86009482D02*
X135334198Y-85952340D01*
X135334198Y-85952340D02*
X135305627Y-85923768D01*
X135305627Y-85923768D02*
X135248484Y-85895197D01*
X135248484Y-85895197D02*
X135134198Y-85866625D01*
X135134198Y-85866625D02*
X135077055Y-85838054D01*
X135077055Y-85838054D02*
X135048484Y-85809482D01*
X135048484Y-85809482D02*
X135019912Y-85752340D01*
X135019912Y-85752340D02*
X135019912Y-85695197D01*
X135019912Y-85695197D02*
X135048484Y-85638054D01*
X135048484Y-85638054D02*
X135077055Y-85609482D01*
X135077055Y-85609482D02*
X135134198Y-85580911D01*
X135134198Y-85580911D02*
X135277055Y-85580911D01*
X135277055Y-85580911D02*
X135362769Y-85609482D01*
X135534198Y-85580911D02*
X135877056Y-85580911D01*
X135705627Y-86180911D02*
X135705627Y-85580911D01*
X157456761Y-105895581D02*
X157828189Y-105895581D01*
X157828189Y-105895581D02*
X157628189Y-106124152D01*
X157628189Y-106124152D02*
X157713904Y-106124152D01*
X157713904Y-106124152D02*
X157771047Y-106152724D01*
X157771047Y-106152724D02*
X157799618Y-106181295D01*
X157799618Y-106181295D02*
X157828189Y-106238438D01*
X157828189Y-106238438D02*
X157828189Y-106381295D01*
X157828189Y-106381295D02*
X157799618Y-106438438D01*
X157799618Y-106438438D02*
X157771047Y-106467010D01*
X157771047Y-106467010D02*
X157713904Y-106495581D01*
X157713904Y-106495581D02*
X157542475Y-106495581D01*
X157542475Y-106495581D02*
X157485332Y-106467010D01*
X157485332Y-106467010D02*
X157456761Y-106438438D01*
X158028190Y-105895581D02*
X158428190Y-105895581D01*
X158428190Y-105895581D02*
X158171047Y-106495581D01*
X155680579Y-108096944D02*
X155680579Y-108296944D01*
X155366293Y-108382658D02*
X155366293Y-108096944D01*
X155366293Y-108096944D02*
X155966293Y-108096944D01*
X155966293Y-108096944D02*
X155966293Y-108382658D01*
X155394865Y-108611229D02*
X155366293Y-108696944D01*
X155366293Y-108696944D02*
X155366293Y-108839801D01*
X155366293Y-108839801D02*
X155394865Y-108896944D01*
X155394865Y-108896944D02*
X155423436Y-108925515D01*
X155423436Y-108925515D02*
X155480579Y-108954086D01*
X155480579Y-108954086D02*
X155537722Y-108954086D01*
X155537722Y-108954086D02*
X155594865Y-108925515D01*
X155594865Y-108925515D02*
X155623436Y-108896944D01*
X155623436Y-108896944D02*
X155652007Y-108839801D01*
X155652007Y-108839801D02*
X155680579Y-108725515D01*
X155680579Y-108725515D02*
X155709150Y-108668372D01*
X155709150Y-108668372D02*
X155737722Y-108639801D01*
X155737722Y-108639801D02*
X155794865Y-108611229D01*
X155794865Y-108611229D02*
X155852007Y-108611229D01*
X155852007Y-108611229D02*
X155909150Y-108639801D01*
X155909150Y-108639801D02*
X155937722Y-108668372D01*
X155937722Y-108668372D02*
X155966293Y-108725515D01*
X155966293Y-108725515D02*
X155966293Y-108868372D01*
X155966293Y-108868372D02*
X155937722Y-108954086D01*
X155366293Y-109211230D02*
X155966293Y-109211230D01*
X155966293Y-109211230D02*
X155966293Y-109439801D01*
X155966293Y-109439801D02*
X155937722Y-109496944D01*
X155937722Y-109496944D02*
X155909150Y-109525515D01*
X155909150Y-109525515D02*
X155852007Y-109554087D01*
X155852007Y-109554087D02*
X155766293Y-109554087D01*
X155766293Y-109554087D02*
X155709150Y-109525515D01*
X155709150Y-109525515D02*
X155680579Y-109496944D01*
X155680579Y-109496944D02*
X155652007Y-109439801D01*
X155652007Y-109439801D02*
X155652007Y-109211230D01*
X155966293Y-109754087D02*
X155966293Y-110125515D01*
X155966293Y-110125515D02*
X155737722Y-109925515D01*
X155737722Y-109925515D02*
X155737722Y-110011230D01*
X155737722Y-110011230D02*
X155709150Y-110068373D01*
X155709150Y-110068373D02*
X155680579Y-110096944D01*
X155680579Y-110096944D02*
X155623436Y-110125515D01*
X155623436Y-110125515D02*
X155480579Y-110125515D01*
X155480579Y-110125515D02*
X155423436Y-110096944D01*
X155423436Y-110096944D02*
X155394865Y-110068373D01*
X155394865Y-110068373D02*
X155366293Y-110011230D01*
X155366293Y-110011230D02*
X155366293Y-109839801D01*
X155366293Y-109839801D02*
X155394865Y-109782658D01*
X155394865Y-109782658D02*
X155423436Y-109754087D01*
X155909150Y-110354087D02*
X155937722Y-110382659D01*
X155937722Y-110382659D02*
X155966293Y-110439802D01*
X155966293Y-110439802D02*
X155966293Y-110582659D01*
X155966293Y-110582659D02*
X155937722Y-110639802D01*
X155937722Y-110639802D02*
X155909150Y-110668373D01*
X155909150Y-110668373D02*
X155852007Y-110696944D01*
X155852007Y-110696944D02*
X155794865Y-110696944D01*
X155794865Y-110696944D02*
X155709150Y-110668373D01*
X155709150Y-110668373D02*
X155366293Y-110325516D01*
X155366293Y-110325516D02*
X155366293Y-110696944D01*
X155594865Y-110954088D02*
X155594865Y-111411231D01*
X155394865Y-111668373D02*
X155366293Y-111754088D01*
X155366293Y-111754088D02*
X155366293Y-111896945D01*
X155366293Y-111896945D02*
X155394865Y-111954088D01*
X155394865Y-111954088D02*
X155423436Y-111982659D01*
X155423436Y-111982659D02*
X155480579Y-112011230D01*
X155480579Y-112011230D02*
X155537722Y-112011230D01*
X155537722Y-112011230D02*
X155594865Y-111982659D01*
X155594865Y-111982659D02*
X155623436Y-111954088D01*
X155623436Y-111954088D02*
X155652007Y-111896945D01*
X155652007Y-111896945D02*
X155680579Y-111782659D01*
X155680579Y-111782659D02*
X155709150Y-111725516D01*
X155709150Y-111725516D02*
X155737722Y-111696945D01*
X155737722Y-111696945D02*
X155794865Y-111668373D01*
X155794865Y-111668373D02*
X155852007Y-111668373D01*
X155852007Y-111668373D02*
X155909150Y-111696945D01*
X155909150Y-111696945D02*
X155937722Y-111725516D01*
X155937722Y-111725516D02*
X155966293Y-111782659D01*
X155966293Y-111782659D02*
X155966293Y-111925516D01*
X155966293Y-111925516D02*
X155937722Y-112011230D01*
X155966293Y-112211231D02*
X155966293Y-112582659D01*
X155966293Y-112582659D02*
X155737722Y-112382659D01*
X155737722Y-112382659D02*
X155737722Y-112468374D01*
X155737722Y-112468374D02*
X155709150Y-112525517D01*
X155709150Y-112525517D02*
X155680579Y-112554088D01*
X155680579Y-112554088D02*
X155623436Y-112582659D01*
X155623436Y-112582659D02*
X155480579Y-112582659D01*
X155480579Y-112582659D02*
X155423436Y-112554088D01*
X155423436Y-112554088D02*
X155394865Y-112525517D01*
X155394865Y-112525517D02*
X155366293Y-112468374D01*
X155366293Y-112468374D02*
X155366293Y-112296945D01*
X155366293Y-112296945D02*
X155394865Y-112239802D01*
X155394865Y-112239802D02*
X155423436Y-112211231D01*
X155594865Y-112839803D02*
X155594865Y-113296946D01*
X155366293Y-113582660D02*
X155966293Y-113582660D01*
X155966293Y-113582660D02*
X155966293Y-113725517D01*
X155966293Y-113725517D02*
X155937722Y-113811231D01*
X155937722Y-113811231D02*
X155880579Y-113868374D01*
X155880579Y-113868374D02*
X155823436Y-113896945D01*
X155823436Y-113896945D02*
X155709150Y-113925517D01*
X155709150Y-113925517D02*
X155623436Y-113925517D01*
X155623436Y-113925517D02*
X155509150Y-113896945D01*
X155509150Y-113896945D02*
X155452007Y-113868374D01*
X155452007Y-113868374D02*
X155394865Y-113811231D01*
X155394865Y-113811231D02*
X155366293Y-113725517D01*
X155366293Y-113725517D02*
X155366293Y-113582660D01*
X155394865Y-114411231D02*
X155366293Y-114354088D01*
X155366293Y-114354088D02*
X155366293Y-114239803D01*
X155366293Y-114239803D02*
X155394865Y-114182660D01*
X155394865Y-114182660D02*
X155452007Y-114154088D01*
X155452007Y-114154088D02*
X155680579Y-114154088D01*
X155680579Y-114154088D02*
X155737722Y-114182660D01*
X155737722Y-114182660D02*
X155766293Y-114239803D01*
X155766293Y-114239803D02*
X155766293Y-114354088D01*
X155766293Y-114354088D02*
X155737722Y-114411231D01*
X155737722Y-114411231D02*
X155680579Y-114439803D01*
X155680579Y-114439803D02*
X155623436Y-114439803D01*
X155623436Y-114439803D02*
X155566293Y-114154088D01*
X155766293Y-114639803D02*
X155366293Y-114782660D01*
X155366293Y-114782660D02*
X155766293Y-114925517D01*
X155366293Y-115154089D02*
X155966293Y-115154089D01*
X155366293Y-115496946D02*
X155709150Y-115239803D01*
X155966293Y-115496946D02*
X155623436Y-115154089D01*
X155366293Y-115754089D02*
X155766293Y-115754089D01*
X155966293Y-115754089D02*
X155937722Y-115725517D01*
X155937722Y-115725517D02*
X155909150Y-115754089D01*
X155909150Y-115754089D02*
X155937722Y-115782660D01*
X155937722Y-115782660D02*
X155966293Y-115754089D01*
X155966293Y-115754089D02*
X155909150Y-115754089D01*
X155766293Y-115954088D02*
X155766293Y-116182660D01*
X155966293Y-116039803D02*
X155452007Y-116039803D01*
X155452007Y-116039803D02*
X155394865Y-116068374D01*
X155394865Y-116068374D02*
X155366293Y-116125517D01*
X155366293Y-116125517D02*
X155366293Y-116182660D01*
X155423436Y-116725517D02*
X155394865Y-116696945D01*
X155394865Y-116696945D02*
X155366293Y-116611231D01*
X155366293Y-116611231D02*
X155366293Y-116554088D01*
X155366293Y-116554088D02*
X155394865Y-116468374D01*
X155394865Y-116468374D02*
X155452007Y-116411231D01*
X155452007Y-116411231D02*
X155509150Y-116382660D01*
X155509150Y-116382660D02*
X155623436Y-116354088D01*
X155623436Y-116354088D02*
X155709150Y-116354088D01*
X155709150Y-116354088D02*
X155823436Y-116382660D01*
X155823436Y-116382660D02*
X155880579Y-116411231D01*
X155880579Y-116411231D02*
X155937722Y-116468374D01*
X155937722Y-116468374D02*
X155966293Y-116554088D01*
X155966293Y-116554088D02*
X155966293Y-116611231D01*
X155966293Y-116611231D02*
X155937722Y-116696945D01*
X155937722Y-116696945D02*
X155909150Y-116725517D01*
X155594865Y-116982660D02*
X155594865Y-117439803D01*
X155366293Y-118039802D02*
X155366293Y-117696945D01*
X155366293Y-117868374D02*
X155966293Y-117868374D01*
X155966293Y-117868374D02*
X155880579Y-117811231D01*
X155880579Y-117811231D02*
X155823436Y-117754088D01*
X155823436Y-117754088D02*
X155794865Y-117696945D01*
X158099618Y-131324152D02*
X158042476Y-131295581D01*
X158042476Y-131295581D02*
X157956761Y-131295581D01*
X157956761Y-131295581D02*
X157871047Y-131324152D01*
X157871047Y-131324152D02*
X157813904Y-131381295D01*
X157813904Y-131381295D02*
X157785333Y-131438438D01*
X157785333Y-131438438D02*
X157756761Y-131552724D01*
X157756761Y-131552724D02*
X157756761Y-131638438D01*
X157756761Y-131638438D02*
X157785333Y-131752724D01*
X157785333Y-131752724D02*
X157813904Y-131809867D01*
X157813904Y-131809867D02*
X157871047Y-131867010D01*
X157871047Y-131867010D02*
X157956761Y-131895581D01*
X157956761Y-131895581D02*
X158013904Y-131895581D01*
X158013904Y-131895581D02*
X158099618Y-131867010D01*
X158099618Y-131867010D02*
X158128190Y-131838438D01*
X158128190Y-131838438D02*
X158128190Y-131638438D01*
X158128190Y-131638438D02*
X158013904Y-131638438D01*
X157771047Y-93395581D02*
X157771047Y-93795581D01*
X157628189Y-93167010D02*
X157485332Y-93595581D01*
X157485332Y-93595581D02*
X157856761Y-93595581D01*
X158056761Y-93252724D02*
X158085333Y-93224152D01*
X158085333Y-93224152D02*
X158142476Y-93195581D01*
X158142476Y-93195581D02*
X158285333Y-93195581D01*
X158285333Y-93195581D02*
X158342476Y-93224152D01*
X158342476Y-93224152D02*
X158371047Y-93252724D01*
X158371047Y-93252724D02*
X158399618Y-93309867D01*
X158399618Y-93309867D02*
X158399618Y-93367010D01*
X158399618Y-93367010D02*
X158371047Y-93452724D01*
X158371047Y-93452724D02*
X158028190Y-93795581D01*
X158028190Y-93795581D02*
X158399618Y-93795581D01*
X135005626Y-101420911D02*
X134662769Y-101420911D01*
X134834198Y-101420911D02*
X134834198Y-100820911D01*
X134834198Y-100820911D02*
X134777055Y-100906625D01*
X134777055Y-100906625D02*
X134719912Y-100963768D01*
X134719912Y-100963768D02*
X134662769Y-100992340D01*
X135519913Y-100820911D02*
X135405627Y-100820911D01*
X135405627Y-100820911D02*
X135348484Y-100849482D01*
X135348484Y-100849482D02*
X135319913Y-100878054D01*
X135319913Y-100878054D02*
X135262770Y-100963768D01*
X135262770Y-100963768D02*
X135234198Y-101078054D01*
X135234198Y-101078054D02*
X135234198Y-101306625D01*
X135234198Y-101306625D02*
X135262770Y-101363768D01*
X135262770Y-101363768D02*
X135291341Y-101392340D01*
X135291341Y-101392340D02*
X135348484Y-101420911D01*
X135348484Y-101420911D02*
X135462770Y-101420911D01*
X135462770Y-101420911D02*
X135519913Y-101392340D01*
X135519913Y-101392340D02*
X135548484Y-101363768D01*
X135548484Y-101363768D02*
X135577055Y-101306625D01*
X135577055Y-101306625D02*
X135577055Y-101163768D01*
X135577055Y-101163768D02*
X135548484Y-101106625D01*
X135548484Y-101106625D02*
X135519913Y-101078054D01*
X135519913Y-101078054D02*
X135462770Y-101049482D01*
X135462770Y-101049482D02*
X135348484Y-101049482D01*
X135348484Y-101049482D02*
X135291341Y-101078054D01*
X135291341Y-101078054D02*
X135262770Y-101106625D01*
X135262770Y-101106625D02*
X135234198Y-101163768D01*
X158113904Y-88715581D02*
X157771047Y-88715581D01*
X157942476Y-88715581D02*
X157942476Y-88115581D01*
X157942476Y-88115581D02*
X157885333Y-88201295D01*
X157885333Y-88201295D02*
X157828190Y-88258438D01*
X157828190Y-88258438D02*
X157771047Y-88287010D01*
X157913904Y-113515581D02*
X157971047Y-113515581D01*
X157971047Y-113515581D02*
X158028190Y-113544152D01*
X158028190Y-113544152D02*
X158056762Y-113572724D01*
X158056762Y-113572724D02*
X158085333Y-113629867D01*
X158085333Y-113629867D02*
X158113904Y-113744152D01*
X158113904Y-113744152D02*
X158113904Y-113887010D01*
X158113904Y-113887010D02*
X158085333Y-114001295D01*
X158085333Y-114001295D02*
X158056762Y-114058438D01*
X158056762Y-114058438D02*
X158028190Y-114087010D01*
X158028190Y-114087010D02*
X157971047Y-114115581D01*
X157971047Y-114115581D02*
X157913904Y-114115581D01*
X157913904Y-114115581D02*
X157856762Y-114087010D01*
X157856762Y-114087010D02*
X157828190Y-114058438D01*
X157828190Y-114058438D02*
X157799619Y-114001295D01*
X157799619Y-114001295D02*
X157771047Y-113887010D01*
X157771047Y-113887010D02*
X157771047Y-113744152D01*
X157771047Y-113744152D02*
X157799619Y-113629867D01*
X157799619Y-113629867D02*
X157828190Y-113572724D01*
X157828190Y-113572724D02*
X157856762Y-113544152D01*
X157856762Y-113544152D02*
X157913904Y-113515581D01*
X135005626Y-119200911D02*
X134662769Y-119200911D01*
X134834198Y-119200911D02*
X134834198Y-118600911D01*
X134834198Y-118600911D02*
X134777055Y-118686625D01*
X134777055Y-118686625D02*
X134719912Y-118743768D01*
X134719912Y-118743768D02*
X134662769Y-118772340D01*
X135377055Y-118600911D02*
X135434198Y-118600911D01*
X135434198Y-118600911D02*
X135491341Y-118629482D01*
X135491341Y-118629482D02*
X135519913Y-118658054D01*
X135519913Y-118658054D02*
X135548484Y-118715197D01*
X135548484Y-118715197D02*
X135577055Y-118829482D01*
X135577055Y-118829482D02*
X135577055Y-118972340D01*
X135577055Y-118972340D02*
X135548484Y-119086625D01*
X135548484Y-119086625D02*
X135519913Y-119143768D01*
X135519913Y-119143768D02*
X135491341Y-119172340D01*
X135491341Y-119172340D02*
X135434198Y-119200911D01*
X135434198Y-119200911D02*
X135377055Y-119200911D01*
X135377055Y-119200911D02*
X135319913Y-119172340D01*
X135319913Y-119172340D02*
X135291341Y-119143768D01*
X135291341Y-119143768D02*
X135262770Y-119086625D01*
X135262770Y-119086625D02*
X135234198Y-118972340D01*
X135234198Y-118972340D02*
X135234198Y-118829482D01*
X135234198Y-118829482D02*
X135262770Y-118715197D01*
X135262770Y-118715197D02*
X135291341Y-118658054D01*
X135291341Y-118658054D02*
X135319913Y-118629482D01*
X135319913Y-118629482D02*
X135377055Y-118600911D01*
X157771047Y-116255581D02*
X157771047Y-116655581D01*
X157628189Y-116027010D02*
X157485332Y-116455581D01*
X157485332Y-116455581D02*
X157856761Y-116455581D01*
X158371047Y-116055581D02*
X158085333Y-116055581D01*
X158085333Y-116055581D02*
X158056761Y-116341295D01*
X158056761Y-116341295D02*
X158085333Y-116312724D01*
X158085333Y-116312724D02*
X158142476Y-116284152D01*
X158142476Y-116284152D02*
X158285333Y-116284152D01*
X158285333Y-116284152D02*
X158342476Y-116312724D01*
X158342476Y-116312724D02*
X158371047Y-116341295D01*
X158371047Y-116341295D02*
X158399618Y-116398438D01*
X158399618Y-116398438D02*
X158399618Y-116541295D01*
X158399618Y-116541295D02*
X158371047Y-116598438D01*
X158371047Y-116598438D02*
X158342476Y-116627010D01*
X158342476Y-116627010D02*
X158285333Y-116655581D01*
X158285333Y-116655581D02*
X158142476Y-116655581D01*
X158142476Y-116655581D02*
X158085333Y-116627010D01*
X158085333Y-116627010D02*
X158056761Y-116598438D01*
X157771047Y-98475581D02*
X157771047Y-98875581D01*
X157628189Y-98247010D02*
X157485332Y-98675581D01*
X157485332Y-98675581D02*
X157856761Y-98675581D01*
X158199618Y-98275581D02*
X158256761Y-98275581D01*
X158256761Y-98275581D02*
X158313904Y-98304152D01*
X158313904Y-98304152D02*
X158342476Y-98332724D01*
X158342476Y-98332724D02*
X158371047Y-98389867D01*
X158371047Y-98389867D02*
X158399618Y-98504152D01*
X158399618Y-98504152D02*
X158399618Y-98647010D01*
X158399618Y-98647010D02*
X158371047Y-98761295D01*
X158371047Y-98761295D02*
X158342476Y-98818438D01*
X158342476Y-98818438D02*
X158313904Y-98847010D01*
X158313904Y-98847010D02*
X158256761Y-98875581D01*
X158256761Y-98875581D02*
X158199618Y-98875581D01*
X158199618Y-98875581D02*
X158142476Y-98847010D01*
X158142476Y-98847010D02*
X158113904Y-98818438D01*
X158113904Y-98818438D02*
X158085333Y-98761295D01*
X158085333Y-98761295D02*
X158056761Y-98647010D01*
X158056761Y-98647010D02*
X158056761Y-98504152D01*
X158056761Y-98504152D02*
X158085333Y-98389867D01*
X158085333Y-98389867D02*
X158113904Y-98332724D01*
X158113904Y-98332724D02*
X158142476Y-98304152D01*
X158142476Y-98304152D02*
X158199618Y-98275581D01*
X157485332Y-123732724D02*
X157513904Y-123704152D01*
X157513904Y-123704152D02*
X157571047Y-123675581D01*
X157571047Y-123675581D02*
X157713904Y-123675581D01*
X157713904Y-123675581D02*
X157771047Y-123704152D01*
X157771047Y-123704152D02*
X157799618Y-123732724D01*
X157799618Y-123732724D02*
X157828189Y-123789867D01*
X157828189Y-123789867D02*
X157828189Y-123847010D01*
X157828189Y-123847010D02*
X157799618Y-123932724D01*
X157799618Y-123932724D02*
X157456761Y-124275581D01*
X157456761Y-124275581D02*
X157828189Y-124275581D01*
X158399618Y-124275581D02*
X158056761Y-124275581D01*
X158228190Y-124275581D02*
X158228190Y-123675581D01*
X158228190Y-123675581D02*
X158171047Y-123761295D01*
X158171047Y-123761295D02*
X158113904Y-123818438D01*
X158113904Y-123818438D02*
X158056761Y-123847010D01*
X134377055Y-80500911D02*
X134748483Y-80500911D01*
X134748483Y-80500911D02*
X134548483Y-80729482D01*
X134548483Y-80729482D02*
X134634198Y-80729482D01*
X134634198Y-80729482D02*
X134691341Y-80758054D01*
X134691341Y-80758054D02*
X134719912Y-80786625D01*
X134719912Y-80786625D02*
X134748483Y-80843768D01*
X134748483Y-80843768D02*
X134748483Y-80986625D01*
X134748483Y-80986625D02*
X134719912Y-81043768D01*
X134719912Y-81043768D02*
X134691341Y-81072340D01*
X134691341Y-81072340D02*
X134634198Y-81100911D01*
X134634198Y-81100911D02*
X134462769Y-81100911D01*
X134462769Y-81100911D02*
X134405626Y-81072340D01*
X134405626Y-81072340D02*
X134377055Y-81043768D01*
X134919912Y-80500911D02*
X135119912Y-81100911D01*
X135119912Y-81100911D02*
X135319912Y-80500911D01*
X135462770Y-80500911D02*
X135834198Y-80500911D01*
X135834198Y-80500911D02*
X135634198Y-80729482D01*
X135634198Y-80729482D02*
X135719913Y-80729482D01*
X135719913Y-80729482D02*
X135777056Y-80758054D01*
X135777056Y-80758054D02*
X135805627Y-80786625D01*
X135805627Y-80786625D02*
X135834198Y-80843768D01*
X135834198Y-80843768D02*
X135834198Y-80986625D01*
X135834198Y-80986625D02*
X135805627Y-81043768D01*
X135805627Y-81043768D02*
X135777056Y-81072340D01*
X135777056Y-81072340D02*
X135719913Y-81100911D01*
X135719913Y-81100911D02*
X135548484Y-81100911D01*
X135548484Y-81100911D02*
X135491341Y-81072340D01*
X135491341Y-81072340D02*
X135462770Y-81043768D01*
X134948484Y-113720911D02*
X134948484Y-114120911D01*
X134805626Y-113492340D02*
X134662769Y-113920911D01*
X134662769Y-113920911D02*
X135034198Y-113920911D01*
X135519913Y-113520911D02*
X135405627Y-113520911D01*
X135405627Y-113520911D02*
X135348484Y-113549482D01*
X135348484Y-113549482D02*
X135319913Y-113578054D01*
X135319913Y-113578054D02*
X135262770Y-113663768D01*
X135262770Y-113663768D02*
X135234198Y-113778054D01*
X135234198Y-113778054D02*
X135234198Y-114006625D01*
X135234198Y-114006625D02*
X135262770Y-114063768D01*
X135262770Y-114063768D02*
X135291341Y-114092340D01*
X135291341Y-114092340D02*
X135348484Y-114120911D01*
X135348484Y-114120911D02*
X135462770Y-114120911D01*
X135462770Y-114120911D02*
X135519913Y-114092340D01*
X135519913Y-114092340D02*
X135548484Y-114063768D01*
X135548484Y-114063768D02*
X135577055Y-114006625D01*
X135577055Y-114006625D02*
X135577055Y-113863768D01*
X135577055Y-113863768D02*
X135548484Y-113806625D01*
X135548484Y-113806625D02*
X135519913Y-113778054D01*
X135519913Y-113778054D02*
X135462770Y-113749482D01*
X135462770Y-113749482D02*
X135348484Y-113749482D01*
X135348484Y-113749482D02*
X135291341Y-113778054D01*
X135291341Y-113778054D02*
X135262770Y-113806625D01*
X135262770Y-113806625D02*
X135234198Y-113863768D01*
X135262770Y-90660911D02*
X134977056Y-90660911D01*
X134977056Y-90660911D02*
X134948484Y-90946625D01*
X134948484Y-90946625D02*
X134977056Y-90918054D01*
X134977056Y-90918054D02*
X135034199Y-90889482D01*
X135034199Y-90889482D02*
X135177056Y-90889482D01*
X135177056Y-90889482D02*
X135234199Y-90918054D01*
X135234199Y-90918054D02*
X135262770Y-90946625D01*
X135262770Y-90946625D02*
X135291341Y-91003768D01*
X135291341Y-91003768D02*
X135291341Y-91146625D01*
X135291341Y-91146625D02*
X135262770Y-91203768D01*
X135262770Y-91203768D02*
X135234199Y-91232340D01*
X135234199Y-91232340D02*
X135177056Y-91260911D01*
X135177056Y-91260911D02*
X135034199Y-91260911D01*
X135034199Y-91260911D02*
X134977056Y-91232340D01*
X134977056Y-91232340D02*
X134948484Y-91203768D01*
X157456761Y-110975581D02*
X157828189Y-110975581D01*
X157828189Y-110975581D02*
X157628189Y-111204152D01*
X157628189Y-111204152D02*
X157713904Y-111204152D01*
X157713904Y-111204152D02*
X157771047Y-111232724D01*
X157771047Y-111232724D02*
X157799618Y-111261295D01*
X157799618Y-111261295D02*
X157828189Y-111318438D01*
X157828189Y-111318438D02*
X157828189Y-111461295D01*
X157828189Y-111461295D02*
X157799618Y-111518438D01*
X157799618Y-111518438D02*
X157771047Y-111547010D01*
X157771047Y-111547010D02*
X157713904Y-111575581D01*
X157713904Y-111575581D02*
X157542475Y-111575581D01*
X157542475Y-111575581D02*
X157485332Y-111547010D01*
X157485332Y-111547010D02*
X157456761Y-111518438D01*
X158371047Y-110975581D02*
X158085333Y-110975581D01*
X158085333Y-110975581D02*
X158056761Y-111261295D01*
X158056761Y-111261295D02*
X158085333Y-111232724D01*
X158085333Y-111232724D02*
X158142476Y-111204152D01*
X158142476Y-111204152D02*
X158285333Y-111204152D01*
X158285333Y-111204152D02*
X158342476Y-111232724D01*
X158342476Y-111232724D02*
X158371047Y-111261295D01*
X158371047Y-111261295D02*
X158399618Y-111318438D01*
X158399618Y-111318438D02*
X158399618Y-111461295D01*
X158399618Y-111461295D02*
X158371047Y-111518438D01*
X158371047Y-111518438D02*
X158342476Y-111547010D01*
X158342476Y-111547010D02*
X158285333Y-111575581D01*
X158285333Y-111575581D02*
X158142476Y-111575581D01*
X158142476Y-111575581D02*
X158085333Y-111547010D01*
X158085333Y-111547010D02*
X158056761Y-111518438D01*
X135005627Y-116660911D02*
X135119913Y-116660911D01*
X135119913Y-116660911D02*
X135177056Y-116632340D01*
X135177056Y-116632340D02*
X135205627Y-116603768D01*
X135205627Y-116603768D02*
X135262770Y-116518054D01*
X135262770Y-116518054D02*
X135291341Y-116403768D01*
X135291341Y-116403768D02*
X135291341Y-116175197D01*
X135291341Y-116175197D02*
X135262770Y-116118054D01*
X135262770Y-116118054D02*
X135234199Y-116089482D01*
X135234199Y-116089482D02*
X135177056Y-116060911D01*
X135177056Y-116060911D02*
X135062770Y-116060911D01*
X135062770Y-116060911D02*
X135005627Y-116089482D01*
X135005627Y-116089482D02*
X134977056Y-116118054D01*
X134977056Y-116118054D02*
X134948484Y-116175197D01*
X134948484Y-116175197D02*
X134948484Y-116318054D01*
X134948484Y-116318054D02*
X134977056Y-116375197D01*
X134977056Y-116375197D02*
X135005627Y-116403768D01*
X135005627Y-116403768D02*
X135062770Y-116432340D01*
X135062770Y-116432340D02*
X135177056Y-116432340D01*
X135177056Y-116432340D02*
X135234199Y-116403768D01*
X135234199Y-116403768D02*
X135262770Y-116375197D01*
X135262770Y-116375197D02*
X135291341Y-116318054D01*
X158099618Y-133864152D02*
X158042476Y-133835581D01*
X158042476Y-133835581D02*
X157956761Y-133835581D01*
X157956761Y-133835581D02*
X157871047Y-133864152D01*
X157871047Y-133864152D02*
X157813904Y-133921295D01*
X157813904Y-133921295D02*
X157785333Y-133978438D01*
X157785333Y-133978438D02*
X157756761Y-134092724D01*
X157756761Y-134092724D02*
X157756761Y-134178438D01*
X157756761Y-134178438D02*
X157785333Y-134292724D01*
X157785333Y-134292724D02*
X157813904Y-134349867D01*
X157813904Y-134349867D02*
X157871047Y-134407010D01*
X157871047Y-134407010D02*
X157956761Y-134435581D01*
X157956761Y-134435581D02*
X158013904Y-134435581D01*
X158013904Y-134435581D02*
X158099618Y-134407010D01*
X158099618Y-134407010D02*
X158128190Y-134378438D01*
X158128190Y-134378438D02*
X158128190Y-134178438D01*
X158128190Y-134178438D02*
X158013904Y-134178438D01*
X157456761Y-100815581D02*
X157828189Y-100815581D01*
X157828189Y-100815581D02*
X157628189Y-101044152D01*
X157628189Y-101044152D02*
X157713904Y-101044152D01*
X157713904Y-101044152D02*
X157771047Y-101072724D01*
X157771047Y-101072724D02*
X157799618Y-101101295D01*
X157799618Y-101101295D02*
X157828189Y-101158438D01*
X157828189Y-101158438D02*
X157828189Y-101301295D01*
X157828189Y-101301295D02*
X157799618Y-101358438D01*
X157799618Y-101358438D02*
X157771047Y-101387010D01*
X157771047Y-101387010D02*
X157713904Y-101415581D01*
X157713904Y-101415581D02*
X157542475Y-101415581D01*
X157542475Y-101415581D02*
X157485332Y-101387010D01*
X157485332Y-101387010D02*
X157456761Y-101358438D01*
X158113904Y-101415581D02*
X158228190Y-101415581D01*
X158228190Y-101415581D02*
X158285333Y-101387010D01*
X158285333Y-101387010D02*
X158313904Y-101358438D01*
X158313904Y-101358438D02*
X158371047Y-101272724D01*
X158371047Y-101272724D02*
X158399618Y-101158438D01*
X158399618Y-101158438D02*
X158399618Y-100929867D01*
X158399618Y-100929867D02*
X158371047Y-100872724D01*
X158371047Y-100872724D02*
X158342476Y-100844152D01*
X158342476Y-100844152D02*
X158285333Y-100815581D01*
X158285333Y-100815581D02*
X158171047Y-100815581D01*
X158171047Y-100815581D02*
X158113904Y-100844152D01*
X158113904Y-100844152D02*
X158085333Y-100872724D01*
X158085333Y-100872724D02*
X158056761Y-100929867D01*
X158056761Y-100929867D02*
X158056761Y-101072724D01*
X158056761Y-101072724D02*
X158085333Y-101129867D01*
X158085333Y-101129867D02*
X158113904Y-101158438D01*
X158113904Y-101158438D02*
X158171047Y-101187010D01*
X158171047Y-101187010D02*
X158285333Y-101187010D01*
X158285333Y-101187010D02*
X158342476Y-101158438D01*
X158342476Y-101158438D02*
X158371047Y-101129867D01*
X158371047Y-101129867D02*
X158399618Y-101072724D01*
X135234199Y-93200911D02*
X135119913Y-93200911D01*
X135119913Y-93200911D02*
X135062770Y-93229482D01*
X135062770Y-93229482D02*
X135034199Y-93258054D01*
X135034199Y-93258054D02*
X134977056Y-93343768D01*
X134977056Y-93343768D02*
X134948484Y-93458054D01*
X134948484Y-93458054D02*
X134948484Y-93686625D01*
X134948484Y-93686625D02*
X134977056Y-93743768D01*
X134977056Y-93743768D02*
X135005627Y-93772340D01*
X135005627Y-93772340D02*
X135062770Y-93800911D01*
X135062770Y-93800911D02*
X135177056Y-93800911D01*
X135177056Y-93800911D02*
X135234199Y-93772340D01*
X135234199Y-93772340D02*
X135262770Y-93743768D01*
X135262770Y-93743768D02*
X135291341Y-93686625D01*
X135291341Y-93686625D02*
X135291341Y-93543768D01*
X135291341Y-93543768D02*
X135262770Y-93486625D01*
X135262770Y-93486625D02*
X135234199Y-93458054D01*
X135234199Y-93458054D02*
X135177056Y-93429482D01*
X135177056Y-93429482D02*
X135062770Y-93429482D01*
X135062770Y-93429482D02*
X135005627Y-93458054D01*
X135005627Y-93458054D02*
X134977056Y-93486625D01*
X134977056Y-93486625D02*
X134948484Y-93543768D01*
X135005626Y-121740911D02*
X134662769Y-121740911D01*
X134834198Y-121740911D02*
X134834198Y-121140911D01*
X134834198Y-121140911D02*
X134777055Y-121226625D01*
X134777055Y-121226625D02*
X134719912Y-121283768D01*
X134719912Y-121283768D02*
X134662769Y-121312340D01*
X135577055Y-121740911D02*
X135234198Y-121740911D01*
X135405627Y-121740911D02*
X135405627Y-121140911D01*
X135405627Y-121140911D02*
X135348484Y-121226625D01*
X135348484Y-121226625D02*
X135291341Y-121283768D01*
X135291341Y-121283768D02*
X135234198Y-121312340D01*
X157771047Y-90712724D02*
X157799619Y-90684152D01*
X157799619Y-90684152D02*
X157856762Y-90655581D01*
X157856762Y-90655581D02*
X157999619Y-90655581D01*
X157999619Y-90655581D02*
X158056762Y-90684152D01*
X158056762Y-90684152D02*
X158085333Y-90712724D01*
X158085333Y-90712724D02*
X158113904Y-90769867D01*
X158113904Y-90769867D02*
X158113904Y-90827010D01*
X158113904Y-90827010D02*
X158085333Y-90912724D01*
X158085333Y-90912724D02*
X157742476Y-91255581D01*
X157742476Y-91255581D02*
X158113904Y-91255581D01*
X135005626Y-103960911D02*
X134662769Y-103960911D01*
X134834198Y-103960911D02*
X134834198Y-103360911D01*
X134834198Y-103360911D02*
X134777055Y-103446625D01*
X134777055Y-103446625D02*
X134719912Y-103503768D01*
X134719912Y-103503768D02*
X134662769Y-103532340D01*
X135205627Y-103360911D02*
X135605627Y-103360911D01*
X135605627Y-103360911D02*
X135348484Y-103960911D01*
X150617790Y-124640547D02*
X150417790Y-124354833D01*
X150274933Y-124640547D02*
X150274933Y-124040547D01*
X150274933Y-124040547D02*
X150503504Y-124040547D01*
X150503504Y-124040547D02*
X150560647Y-124069118D01*
X150560647Y-124069118D02*
X150589218Y-124097690D01*
X150589218Y-124097690D02*
X150617790Y-124154833D01*
X150617790Y-124154833D02*
X150617790Y-124240547D01*
X150617790Y-124240547D02*
X150589218Y-124297690D01*
X150589218Y-124297690D02*
X150560647Y-124326261D01*
X150560647Y-124326261D02*
X150503504Y-124354833D01*
X150503504Y-124354833D02*
X150274933Y-124354833D01*
X150874933Y-124326261D02*
X151074933Y-124326261D01*
X151160647Y-124640547D02*
X150874933Y-124640547D01*
X150874933Y-124640547D02*
X150874933Y-124040547D01*
X150874933Y-124040547D02*
X151160647Y-124040547D01*
X151389218Y-124611976D02*
X151474933Y-124640547D01*
X151474933Y-124640547D02*
X151617790Y-124640547D01*
X151617790Y-124640547D02*
X151674933Y-124611976D01*
X151674933Y-124611976D02*
X151703504Y-124583404D01*
X151703504Y-124583404D02*
X151732075Y-124526261D01*
X151732075Y-124526261D02*
X151732075Y-124469118D01*
X151732075Y-124469118D02*
X151703504Y-124411976D01*
X151703504Y-124411976D02*
X151674933Y-124383404D01*
X151674933Y-124383404D02*
X151617790Y-124354833D01*
X151617790Y-124354833D02*
X151503504Y-124326261D01*
X151503504Y-124326261D02*
X151446361Y-124297690D01*
X151446361Y-124297690D02*
X151417790Y-124269118D01*
X151417790Y-124269118D02*
X151389218Y-124211976D01*
X151389218Y-124211976D02*
X151389218Y-124154833D01*
X151389218Y-124154833D02*
X151417790Y-124097690D01*
X151417790Y-124097690D02*
X151446361Y-124069118D01*
X151446361Y-124069118D02*
X151503504Y-124040547D01*
X151503504Y-124040547D02*
X151646361Y-124040547D01*
X151646361Y-124040547D02*
X151732075Y-124069118D01*
X151989219Y-124326261D02*
X152189219Y-124326261D01*
X152274933Y-124640547D02*
X151989219Y-124640547D01*
X151989219Y-124640547D02*
X151989219Y-124040547D01*
X151989219Y-124040547D02*
X152274933Y-124040547D01*
X152446361Y-124040547D02*
X152789219Y-124040547D01*
X152617790Y-124640547D02*
X152617790Y-124040547D01*
X157456761Y-108435581D02*
X157828189Y-108435581D01*
X157828189Y-108435581D02*
X157628189Y-108664152D01*
X157628189Y-108664152D02*
X157713904Y-108664152D01*
X157713904Y-108664152D02*
X157771047Y-108692724D01*
X157771047Y-108692724D02*
X157799618Y-108721295D01*
X157799618Y-108721295D02*
X157828189Y-108778438D01*
X157828189Y-108778438D02*
X157828189Y-108921295D01*
X157828189Y-108921295D02*
X157799618Y-108978438D01*
X157799618Y-108978438D02*
X157771047Y-109007010D01*
X157771047Y-109007010D02*
X157713904Y-109035581D01*
X157713904Y-109035581D02*
X157542475Y-109035581D01*
X157542475Y-109035581D02*
X157485332Y-109007010D01*
X157485332Y-109007010D02*
X157456761Y-108978438D01*
X158342476Y-108435581D02*
X158228190Y-108435581D01*
X158228190Y-108435581D02*
X158171047Y-108464152D01*
X158171047Y-108464152D02*
X158142476Y-108492724D01*
X158142476Y-108492724D02*
X158085333Y-108578438D01*
X158085333Y-108578438D02*
X158056761Y-108692724D01*
X158056761Y-108692724D02*
X158056761Y-108921295D01*
X158056761Y-108921295D02*
X158085333Y-108978438D01*
X158085333Y-108978438D02*
X158113904Y-109007010D01*
X158113904Y-109007010D02*
X158171047Y-109035581D01*
X158171047Y-109035581D02*
X158285333Y-109035581D01*
X158285333Y-109035581D02*
X158342476Y-109007010D01*
X158342476Y-109007010D02*
X158371047Y-108978438D01*
X158371047Y-108978438D02*
X158399618Y-108921295D01*
X158399618Y-108921295D02*
X158399618Y-108778438D01*
X158399618Y-108778438D02*
X158371047Y-108721295D01*
X158371047Y-108721295D02*
X158342476Y-108692724D01*
X158342476Y-108692724D02*
X158285333Y-108664152D01*
X158285333Y-108664152D02*
X158171047Y-108664152D01*
X158171047Y-108664152D02*
X158113904Y-108692724D01*
X158113904Y-108692724D02*
X158085333Y-108721295D01*
X158085333Y-108721295D02*
X158056761Y-108778438D01*
X157828189Y-129355581D02*
X157485332Y-129355581D01*
X157656761Y-129355581D02*
X157656761Y-128755581D01*
X157656761Y-128755581D02*
X157599618Y-128841295D01*
X157599618Y-128841295D02*
X157542475Y-128898438D01*
X157542475Y-128898438D02*
X157485332Y-128927010D01*
X158113904Y-129355581D02*
X158228190Y-129355581D01*
X158228190Y-129355581D02*
X158285333Y-129327010D01*
X158285333Y-129327010D02*
X158313904Y-129298438D01*
X158313904Y-129298438D02*
X158371047Y-129212724D01*
X158371047Y-129212724D02*
X158399618Y-129098438D01*
X158399618Y-129098438D02*
X158399618Y-128869867D01*
X158399618Y-128869867D02*
X158371047Y-128812724D01*
X158371047Y-128812724D02*
X158342476Y-128784152D01*
X158342476Y-128784152D02*
X158285333Y-128755581D01*
X158285333Y-128755581D02*
X158171047Y-128755581D01*
X158171047Y-128755581D02*
X158113904Y-128784152D01*
X158113904Y-128784152D02*
X158085333Y-128812724D01*
X158085333Y-128812724D02*
X158056761Y-128869867D01*
X158056761Y-128869867D02*
X158056761Y-129012724D01*
X158056761Y-129012724D02*
X158085333Y-129069867D01*
X158085333Y-129069867D02*
X158113904Y-129098438D01*
X158113904Y-129098438D02*
X158171047Y-129127010D01*
X158171047Y-129127010D02*
X158285333Y-129127010D01*
X158285333Y-129127010D02*
X158342476Y-129098438D01*
X158342476Y-129098438D02*
X158371047Y-129069867D01*
X158371047Y-129069867D02*
X158399618Y-129012724D01*
X135062770Y-108698054D02*
X135005627Y-108669482D01*
X135005627Y-108669482D02*
X134977056Y-108640911D01*
X134977056Y-108640911D02*
X134948484Y-108583768D01*
X134948484Y-108583768D02*
X134948484Y-108555197D01*
X134948484Y-108555197D02*
X134977056Y-108498054D01*
X134977056Y-108498054D02*
X135005627Y-108469482D01*
X135005627Y-108469482D02*
X135062770Y-108440911D01*
X135062770Y-108440911D02*
X135177056Y-108440911D01*
X135177056Y-108440911D02*
X135234199Y-108469482D01*
X135234199Y-108469482D02*
X135262770Y-108498054D01*
X135262770Y-108498054D02*
X135291341Y-108555197D01*
X135291341Y-108555197D02*
X135291341Y-108583768D01*
X135291341Y-108583768D02*
X135262770Y-108640911D01*
X135262770Y-108640911D02*
X135234199Y-108669482D01*
X135234199Y-108669482D02*
X135177056Y-108698054D01*
X135177056Y-108698054D02*
X135062770Y-108698054D01*
X135062770Y-108698054D02*
X135005627Y-108726625D01*
X135005627Y-108726625D02*
X134977056Y-108755197D01*
X134977056Y-108755197D02*
X134948484Y-108812340D01*
X134948484Y-108812340D02*
X134948484Y-108926625D01*
X134948484Y-108926625D02*
X134977056Y-108983768D01*
X134977056Y-108983768D02*
X135005627Y-109012340D01*
X135005627Y-109012340D02*
X135062770Y-109040911D01*
X135062770Y-109040911D02*
X135177056Y-109040911D01*
X135177056Y-109040911D02*
X135234199Y-109012340D01*
X135234199Y-109012340D02*
X135262770Y-108983768D01*
X135262770Y-108983768D02*
X135291341Y-108926625D01*
X135291341Y-108926625D02*
X135291341Y-108812340D01*
X135291341Y-108812340D02*
X135262770Y-108755197D01*
X135262770Y-108755197D02*
X135234199Y-108726625D01*
X135234199Y-108726625D02*
X135177056Y-108698054D01*
X134377055Y-83040911D02*
X134748483Y-83040911D01*
X134748483Y-83040911D02*
X134548483Y-83269482D01*
X134548483Y-83269482D02*
X134634198Y-83269482D01*
X134634198Y-83269482D02*
X134691341Y-83298054D01*
X134691341Y-83298054D02*
X134719912Y-83326625D01*
X134719912Y-83326625D02*
X134748483Y-83383768D01*
X134748483Y-83383768D02*
X134748483Y-83526625D01*
X134748483Y-83526625D02*
X134719912Y-83583768D01*
X134719912Y-83583768D02*
X134691341Y-83612340D01*
X134691341Y-83612340D02*
X134634198Y-83640911D01*
X134634198Y-83640911D02*
X134462769Y-83640911D01*
X134462769Y-83640911D02*
X134405626Y-83612340D01*
X134405626Y-83612340D02*
X134377055Y-83583768D01*
X134919912Y-83040911D02*
X135119912Y-83640911D01*
X135119912Y-83640911D02*
X135319912Y-83040911D01*
X135462770Y-83040911D02*
X135834198Y-83040911D01*
X135834198Y-83040911D02*
X135634198Y-83269482D01*
X135634198Y-83269482D02*
X135719913Y-83269482D01*
X135719913Y-83269482D02*
X135777056Y-83298054D01*
X135777056Y-83298054D02*
X135805627Y-83326625D01*
X135805627Y-83326625D02*
X135834198Y-83383768D01*
X135834198Y-83383768D02*
X135834198Y-83526625D01*
X135834198Y-83526625D02*
X135805627Y-83583768D01*
X135805627Y-83583768D02*
X135777056Y-83612340D01*
X135777056Y-83612340D02*
X135719913Y-83640911D01*
X135719913Y-83640911D02*
X135548484Y-83640911D01*
X135548484Y-83640911D02*
X135491341Y-83612340D01*
X135491341Y-83612340D02*
X135462770Y-83583768D01*
X135005626Y-129360911D02*
X134662769Y-129360911D01*
X134834198Y-129360911D02*
X134834198Y-128760911D01*
X134834198Y-128760911D02*
X134777055Y-128846625D01*
X134777055Y-128846625D02*
X134719912Y-128903768D01*
X134719912Y-128903768D02*
X134662769Y-128932340D01*
X135519913Y-128960911D02*
X135519913Y-129360911D01*
X135377055Y-128732340D02*
X135234198Y-129160911D01*
X135234198Y-129160911D02*
X135605627Y-129160911D01*
X135005626Y-124280911D02*
X134662769Y-124280911D01*
X134834198Y-124280911D02*
X134834198Y-123680911D01*
X134834198Y-123680911D02*
X134777055Y-123766625D01*
X134777055Y-123766625D02*
X134719912Y-123823768D01*
X134719912Y-123823768D02*
X134662769Y-123852340D01*
X135234198Y-123738054D02*
X135262770Y-123709482D01*
X135262770Y-123709482D02*
X135319913Y-123680911D01*
X135319913Y-123680911D02*
X135462770Y-123680911D01*
X135462770Y-123680911D02*
X135519913Y-123709482D01*
X135519913Y-123709482D02*
X135548484Y-123738054D01*
X135548484Y-123738054D02*
X135577055Y-123795197D01*
X135577055Y-123795197D02*
X135577055Y-123852340D01*
X135577055Y-123852340D02*
X135548484Y-123938054D01*
X135548484Y-123938054D02*
X135205627Y-124280911D01*
X135205627Y-124280911D02*
X135577055Y-124280911D01*
X135234199Y-88320911D02*
X135234199Y-88720911D01*
X135091341Y-88092340D02*
X134948484Y-88520911D01*
X134948484Y-88520911D02*
X135319913Y-88520911D01*
X157456761Y-103355581D02*
X157828189Y-103355581D01*
X157828189Y-103355581D02*
X157628189Y-103584152D01*
X157628189Y-103584152D02*
X157713904Y-103584152D01*
X157713904Y-103584152D02*
X157771047Y-103612724D01*
X157771047Y-103612724D02*
X157799618Y-103641295D01*
X157799618Y-103641295D02*
X157828189Y-103698438D01*
X157828189Y-103698438D02*
X157828189Y-103841295D01*
X157828189Y-103841295D02*
X157799618Y-103898438D01*
X157799618Y-103898438D02*
X157771047Y-103927010D01*
X157771047Y-103927010D02*
X157713904Y-103955581D01*
X157713904Y-103955581D02*
X157542475Y-103955581D01*
X157542475Y-103955581D02*
X157485332Y-103927010D01*
X157485332Y-103927010D02*
X157456761Y-103898438D01*
X158171047Y-103612724D02*
X158113904Y-103584152D01*
X158113904Y-103584152D02*
X158085333Y-103555581D01*
X158085333Y-103555581D02*
X158056761Y-103498438D01*
X158056761Y-103498438D02*
X158056761Y-103469867D01*
X158056761Y-103469867D02*
X158085333Y-103412724D01*
X158085333Y-103412724D02*
X158113904Y-103384152D01*
X158113904Y-103384152D02*
X158171047Y-103355581D01*
X158171047Y-103355581D02*
X158285333Y-103355581D01*
X158285333Y-103355581D02*
X158342476Y-103384152D01*
X158342476Y-103384152D02*
X158371047Y-103412724D01*
X158371047Y-103412724D02*
X158399618Y-103469867D01*
X158399618Y-103469867D02*
X158399618Y-103498438D01*
X158399618Y-103498438D02*
X158371047Y-103555581D01*
X158371047Y-103555581D02*
X158342476Y-103584152D01*
X158342476Y-103584152D02*
X158285333Y-103612724D01*
X158285333Y-103612724D02*
X158171047Y-103612724D01*
X158171047Y-103612724D02*
X158113904Y-103641295D01*
X158113904Y-103641295D02*
X158085333Y-103669867D01*
X158085333Y-103669867D02*
X158056761Y-103727010D01*
X158056761Y-103727010D02*
X158056761Y-103841295D01*
X158056761Y-103841295D02*
X158085333Y-103898438D01*
X158085333Y-103898438D02*
X158113904Y-103927010D01*
X158113904Y-103927010D02*
X158171047Y-103955581D01*
X158171047Y-103955581D02*
X158285333Y-103955581D01*
X158285333Y-103955581D02*
X158342476Y-103927010D01*
X158342476Y-103927010D02*
X158371047Y-103898438D01*
X158371047Y-103898438D02*
X158399618Y-103841295D01*
X158399618Y-103841295D02*
X158399618Y-103727010D01*
X158399618Y-103727010D02*
X158371047Y-103669867D01*
X158371047Y-103669867D02*
X158342476Y-103641295D01*
X158342476Y-103641295D02*
X158285333Y-103612724D01*
X134919913Y-110980911D02*
X135291341Y-110980911D01*
X135291341Y-110980911D02*
X135091341Y-111209482D01*
X135091341Y-111209482D02*
X135177056Y-111209482D01*
X135177056Y-111209482D02*
X135234199Y-111238054D01*
X135234199Y-111238054D02*
X135262770Y-111266625D01*
X135262770Y-111266625D02*
X135291341Y-111323768D01*
X135291341Y-111323768D02*
X135291341Y-111466625D01*
X135291341Y-111466625D02*
X135262770Y-111523768D01*
X135262770Y-111523768D02*
X135234199Y-111552340D01*
X135234199Y-111552340D02*
X135177056Y-111580911D01*
X135177056Y-111580911D02*
X135005627Y-111580911D01*
X135005627Y-111580911D02*
X134948484Y-111552340D01*
X134948484Y-111552340D02*
X134919913Y-111523768D01*
X135005626Y-126820911D02*
X134662769Y-126820911D01*
X134834198Y-126820911D02*
X134834198Y-126220911D01*
X134834198Y-126220911D02*
X134777055Y-126306625D01*
X134777055Y-126306625D02*
X134719912Y-126363768D01*
X134719912Y-126363768D02*
X134662769Y-126392340D01*
X135205627Y-126220911D02*
X135577055Y-126220911D01*
X135577055Y-126220911D02*
X135377055Y-126449482D01*
X135377055Y-126449482D02*
X135462770Y-126449482D01*
X135462770Y-126449482D02*
X135519913Y-126478054D01*
X135519913Y-126478054D02*
X135548484Y-126506625D01*
X135548484Y-126506625D02*
X135577055Y-126563768D01*
X135577055Y-126563768D02*
X135577055Y-126706625D01*
X135577055Y-126706625D02*
X135548484Y-126763768D01*
X135548484Y-126763768D02*
X135519913Y-126792340D01*
X135519913Y-126792340D02*
X135462770Y-126820911D01*
X135462770Y-126820911D02*
X135291341Y-126820911D01*
X135291341Y-126820911D02*
X135234198Y-126792340D01*
X135234198Y-126792340D02*
X135205627Y-126763768D01*
X157771047Y-121335581D02*
X157771047Y-121735581D01*
X157628189Y-121107010D02*
X157485332Y-121535581D01*
X157485332Y-121535581D02*
X157856761Y-121535581D01*
X158028190Y-121135581D02*
X158428190Y-121135581D01*
X158428190Y-121135581D02*
X158171047Y-121735581D01*
X135005626Y-98880911D02*
X134662769Y-98880911D01*
X134834198Y-98880911D02*
X134834198Y-98280911D01*
X134834198Y-98280911D02*
X134777055Y-98366625D01*
X134777055Y-98366625D02*
X134719912Y-98423768D01*
X134719912Y-98423768D02*
X134662769Y-98452340D01*
X135548484Y-98280911D02*
X135262770Y-98280911D01*
X135262770Y-98280911D02*
X135234198Y-98566625D01*
X135234198Y-98566625D02*
X135262770Y-98538054D01*
X135262770Y-98538054D02*
X135319913Y-98509482D01*
X135319913Y-98509482D02*
X135462770Y-98509482D01*
X135462770Y-98509482D02*
X135519913Y-98538054D01*
X135519913Y-98538054D02*
X135548484Y-98566625D01*
X135548484Y-98566625D02*
X135577055Y-98623768D01*
X135577055Y-98623768D02*
X135577055Y-98766625D01*
X135577055Y-98766625D02*
X135548484Y-98823768D01*
X135548484Y-98823768D02*
X135519913Y-98852340D01*
X135519913Y-98852340D02*
X135462770Y-98880911D01*
X135462770Y-98880911D02*
X135319913Y-98880911D01*
X135319913Y-98880911D02*
X135262770Y-98852340D01*
X135262770Y-98852340D02*
X135234198Y-98823768D01*
X157842476Y-86175581D02*
X157642476Y-85889867D01*
X157499619Y-86175581D02*
X157499619Y-85575581D01*
X157499619Y-85575581D02*
X157728190Y-85575581D01*
X157728190Y-85575581D02*
X157785333Y-85604152D01*
X157785333Y-85604152D02*
X157813904Y-85632724D01*
X157813904Y-85632724D02*
X157842476Y-85689867D01*
X157842476Y-85689867D02*
X157842476Y-85775581D01*
X157842476Y-85775581D02*
X157813904Y-85832724D01*
X157813904Y-85832724D02*
X157785333Y-85861295D01*
X157785333Y-85861295D02*
X157728190Y-85889867D01*
X157728190Y-85889867D02*
X157499619Y-85889867D01*
X158042476Y-85575581D02*
X158442476Y-86175581D01*
X158442476Y-85575581D02*
X158042476Y-86175581D01*
X135277055Y-133869482D02*
X135219913Y-133840911D01*
X135219913Y-133840911D02*
X135134198Y-133840911D01*
X135134198Y-133840911D02*
X135048484Y-133869482D01*
X135048484Y-133869482D02*
X134991341Y-133926625D01*
X134991341Y-133926625D02*
X134962770Y-133983768D01*
X134962770Y-133983768D02*
X134934198Y-134098054D01*
X134934198Y-134098054D02*
X134934198Y-134183768D01*
X134934198Y-134183768D02*
X134962770Y-134298054D01*
X134962770Y-134298054D02*
X134991341Y-134355197D01*
X134991341Y-134355197D02*
X135048484Y-134412340D01*
X135048484Y-134412340D02*
X135134198Y-134440911D01*
X135134198Y-134440911D02*
X135191341Y-134440911D01*
X135191341Y-134440911D02*
X135277055Y-134412340D01*
X135277055Y-134412340D02*
X135305627Y-134383768D01*
X135305627Y-134383768D02*
X135305627Y-134183768D01*
X135305627Y-134183768D02*
X135191341Y-134183768D01*
X157771047Y-118795581D02*
X157771047Y-119195581D01*
X157628189Y-118567010D02*
X157485332Y-118995581D01*
X157485332Y-118995581D02*
X157856761Y-118995581D01*
X158171047Y-118852724D02*
X158113904Y-118824152D01*
X158113904Y-118824152D02*
X158085333Y-118795581D01*
X158085333Y-118795581D02*
X158056761Y-118738438D01*
X158056761Y-118738438D02*
X158056761Y-118709867D01*
X158056761Y-118709867D02*
X158085333Y-118652724D01*
X158085333Y-118652724D02*
X158113904Y-118624152D01*
X158113904Y-118624152D02*
X158171047Y-118595581D01*
X158171047Y-118595581D02*
X158285333Y-118595581D01*
X158285333Y-118595581D02*
X158342476Y-118624152D01*
X158342476Y-118624152D02*
X158371047Y-118652724D01*
X158371047Y-118652724D02*
X158399618Y-118709867D01*
X158399618Y-118709867D02*
X158399618Y-118738438D01*
X158399618Y-118738438D02*
X158371047Y-118795581D01*
X158371047Y-118795581D02*
X158342476Y-118824152D01*
X158342476Y-118824152D02*
X158285333Y-118852724D01*
X158285333Y-118852724D02*
X158171047Y-118852724D01*
X158171047Y-118852724D02*
X158113904Y-118881295D01*
X158113904Y-118881295D02*
X158085333Y-118909867D01*
X158085333Y-118909867D02*
X158056761Y-118967010D01*
X158056761Y-118967010D02*
X158056761Y-119081295D01*
X158056761Y-119081295D02*
X158085333Y-119138438D01*
X158085333Y-119138438D02*
X158113904Y-119167010D01*
X158113904Y-119167010D02*
X158171047Y-119195581D01*
X158171047Y-119195581D02*
X158285333Y-119195581D01*
X158285333Y-119195581D02*
X158342476Y-119167010D01*
X158342476Y-119167010D02*
X158371047Y-119138438D01*
X158371047Y-119138438D02*
X158399618Y-119081295D01*
X158399618Y-119081295D02*
X158399618Y-118967010D01*
X158399618Y-118967010D02*
X158371047Y-118909867D01*
X158371047Y-118909867D02*
X158342476Y-118881295D01*
X158342476Y-118881295D02*
X158285333Y-118852724D01*
X134919913Y-95740911D02*
X135319913Y-95740911D01*
X135319913Y-95740911D02*
X135062770Y-96340911D01*
X157485332Y-126272724D02*
X157513904Y-126244152D01*
X157513904Y-126244152D02*
X157571047Y-126215581D01*
X157571047Y-126215581D02*
X157713904Y-126215581D01*
X157713904Y-126215581D02*
X157771047Y-126244152D01*
X157771047Y-126244152D02*
X157799618Y-126272724D01*
X157799618Y-126272724D02*
X157828189Y-126329867D01*
X157828189Y-126329867D02*
X157828189Y-126387010D01*
X157828189Y-126387010D02*
X157799618Y-126472724D01*
X157799618Y-126472724D02*
X157456761Y-126815581D01*
X157456761Y-126815581D02*
X157828189Y-126815581D01*
X158199618Y-126215581D02*
X158256761Y-126215581D01*
X158256761Y-126215581D02*
X158313904Y-126244152D01*
X158313904Y-126244152D02*
X158342476Y-126272724D01*
X158342476Y-126272724D02*
X158371047Y-126329867D01*
X158371047Y-126329867D02*
X158399618Y-126444152D01*
X158399618Y-126444152D02*
X158399618Y-126587010D01*
X158399618Y-126587010D02*
X158371047Y-126701295D01*
X158371047Y-126701295D02*
X158342476Y-126758438D01*
X158342476Y-126758438D02*
X158313904Y-126787010D01*
X158313904Y-126787010D02*
X158256761Y-126815581D01*
X158256761Y-126815581D02*
X158199618Y-126815581D01*
X158199618Y-126815581D02*
X158142476Y-126787010D01*
X158142476Y-126787010D02*
X158113904Y-126758438D01*
X158113904Y-126758438D02*
X158085333Y-126701295D01*
X158085333Y-126701295D02*
X158056761Y-126587010D01*
X158056761Y-126587010D02*
X158056761Y-126444152D01*
X158056761Y-126444152D02*
X158085333Y-126329867D01*
X158085333Y-126329867D02*
X158113904Y-126272724D01*
X158113904Y-126272724D02*
X158142476Y-126244152D01*
X158142476Y-126244152D02*
X158199618Y-126215581D01*
X135005626Y-106500911D02*
X134662769Y-106500911D01*
X134834198Y-106500911D02*
X134834198Y-105900911D01*
X134834198Y-105900911D02*
X134777055Y-105986625D01*
X134777055Y-105986625D02*
X134719912Y-106043768D01*
X134719912Y-106043768D02*
X134662769Y-106072340D01*
X135348484Y-106158054D02*
X135291341Y-106129482D01*
X135291341Y-106129482D02*
X135262770Y-106100911D01*
X135262770Y-106100911D02*
X135234198Y-106043768D01*
X135234198Y-106043768D02*
X135234198Y-106015197D01*
X135234198Y-106015197D02*
X135262770Y-105958054D01*
X135262770Y-105958054D02*
X135291341Y-105929482D01*
X135291341Y-105929482D02*
X135348484Y-105900911D01*
X135348484Y-105900911D02*
X135462770Y-105900911D01*
X135462770Y-105900911D02*
X135519913Y-105929482D01*
X135519913Y-105929482D02*
X135548484Y-105958054D01*
X135548484Y-105958054D02*
X135577055Y-106015197D01*
X135577055Y-106015197D02*
X135577055Y-106043768D01*
X135577055Y-106043768D02*
X135548484Y-106100911D01*
X135548484Y-106100911D02*
X135519913Y-106129482D01*
X135519913Y-106129482D02*
X135462770Y-106158054D01*
X135462770Y-106158054D02*
X135348484Y-106158054D01*
X135348484Y-106158054D02*
X135291341Y-106186625D01*
X135291341Y-106186625D02*
X135262770Y-106215197D01*
X135262770Y-106215197D02*
X135234198Y-106272340D01*
X135234198Y-106272340D02*
X135234198Y-106386625D01*
X135234198Y-106386625D02*
X135262770Y-106443768D01*
X135262770Y-106443768D02*
X135291341Y-106472340D01*
X135291341Y-106472340D02*
X135348484Y-106500911D01*
X135348484Y-106500911D02*
X135462770Y-106500911D01*
X135462770Y-106500911D02*
X135519913Y-106472340D01*
X135519913Y-106472340D02*
X135548484Y-106443768D01*
X135548484Y-106443768D02*
X135577055Y-106386625D01*
X135577055Y-106386625D02*
X135577055Y-106272340D01*
X135577055Y-106272340D02*
X135548484Y-106215197D01*
X135548484Y-106215197D02*
X135519913Y-106186625D01*
X135519913Y-106186625D02*
X135462770Y-106158054D01*
X140674934Y-124326261D02*
X140760648Y-124354833D01*
X140760648Y-124354833D02*
X140789219Y-124383404D01*
X140789219Y-124383404D02*
X140817791Y-124440547D01*
X140817791Y-124440547D02*
X140817791Y-124526261D01*
X140817791Y-124526261D02*
X140789219Y-124583404D01*
X140789219Y-124583404D02*
X140760648Y-124611976D01*
X140760648Y-124611976D02*
X140703505Y-124640547D01*
X140703505Y-124640547D02*
X140474934Y-124640547D01*
X140474934Y-124640547D02*
X140474934Y-124040547D01*
X140474934Y-124040547D02*
X140674934Y-124040547D01*
X140674934Y-124040547D02*
X140732077Y-124069118D01*
X140732077Y-124069118D02*
X140760648Y-124097690D01*
X140760648Y-124097690D02*
X140789219Y-124154833D01*
X140789219Y-124154833D02*
X140789219Y-124211976D01*
X140789219Y-124211976D02*
X140760648Y-124269118D01*
X140760648Y-124269118D02*
X140732077Y-124297690D01*
X140732077Y-124297690D02*
X140674934Y-124326261D01*
X140674934Y-124326261D02*
X140474934Y-124326261D01*
X141189219Y-124040547D02*
X141303505Y-124040547D01*
X141303505Y-124040547D02*
X141360648Y-124069118D01*
X141360648Y-124069118D02*
X141417791Y-124126261D01*
X141417791Y-124126261D02*
X141446362Y-124240547D01*
X141446362Y-124240547D02*
X141446362Y-124440547D01*
X141446362Y-124440547D02*
X141417791Y-124554833D01*
X141417791Y-124554833D02*
X141360648Y-124611976D01*
X141360648Y-124611976D02*
X141303505Y-124640547D01*
X141303505Y-124640547D02*
X141189219Y-124640547D01*
X141189219Y-124640547D02*
X141132077Y-124611976D01*
X141132077Y-124611976D02*
X141074934Y-124554833D01*
X141074934Y-124554833D02*
X141046362Y-124440547D01*
X141046362Y-124440547D02*
X141046362Y-124240547D01*
X141046362Y-124240547D02*
X141074934Y-124126261D01*
X141074934Y-124126261D02*
X141132077Y-124069118D01*
X141132077Y-124069118D02*
X141189219Y-124040547D01*
X141817790Y-124040547D02*
X141932076Y-124040547D01*
X141932076Y-124040547D02*
X141989219Y-124069118D01*
X141989219Y-124069118D02*
X142046362Y-124126261D01*
X142046362Y-124126261D02*
X142074933Y-124240547D01*
X142074933Y-124240547D02*
X142074933Y-124440547D01*
X142074933Y-124440547D02*
X142046362Y-124554833D01*
X142046362Y-124554833D02*
X141989219Y-124611976D01*
X141989219Y-124611976D02*
X141932076Y-124640547D01*
X141932076Y-124640547D02*
X141817790Y-124640547D01*
X141817790Y-124640547D02*
X141760648Y-124611976D01*
X141760648Y-124611976D02*
X141703505Y-124554833D01*
X141703505Y-124554833D02*
X141674933Y-124440547D01*
X141674933Y-124440547D02*
X141674933Y-124240547D01*
X141674933Y-124240547D02*
X141703505Y-124126261D01*
X141703505Y-124126261D02*
X141760648Y-124069118D01*
X141760648Y-124069118D02*
X141817790Y-124040547D01*
X142246361Y-124040547D02*
X142589219Y-124040547D01*
X142417790Y-124640547D02*
X142417790Y-124040547D01*
X138984771Y-105000000D02*
X138956200Y-104971428D01*
X138956200Y-104971428D02*
X138927628Y-104885714D01*
X138927628Y-104885714D02*
X138927628Y-104828571D01*
X138927628Y-104828571D02*
X138956200Y-104742857D01*
X138956200Y-104742857D02*
X139013342Y-104685714D01*
X139013342Y-104685714D02*
X139070485Y-104657143D01*
X139070485Y-104657143D02*
X139184771Y-104628571D01*
X139184771Y-104628571D02*
X139270485Y-104628571D01*
X139270485Y-104628571D02*
X139384771Y-104657143D01*
X139384771Y-104657143D02*
X139441914Y-104685714D01*
X139441914Y-104685714D02*
X139499057Y-104742857D01*
X139499057Y-104742857D02*
X139527628Y-104828571D01*
X139527628Y-104828571D02*
X139527628Y-104885714D01*
X139527628Y-104885714D02*
X139499057Y-104971428D01*
X139499057Y-104971428D02*
X139470485Y-105000000D01*
X139270485Y-105342857D02*
X139299057Y-105285714D01*
X139299057Y-105285714D02*
X139327628Y-105257143D01*
X139327628Y-105257143D02*
X139384771Y-105228571D01*
X139384771Y-105228571D02*
X139413342Y-105228571D01*
X139413342Y-105228571D02*
X139470485Y-105257143D01*
X139470485Y-105257143D02*
X139499057Y-105285714D01*
X139499057Y-105285714D02*
X139527628Y-105342857D01*
X139527628Y-105342857D02*
X139527628Y-105457143D01*
X139527628Y-105457143D02*
X139499057Y-105514286D01*
X139499057Y-105514286D02*
X139470485Y-105542857D01*
X139470485Y-105542857D02*
X139413342Y-105571428D01*
X139413342Y-105571428D02*
X139384771Y-105571428D01*
X139384771Y-105571428D02*
X139327628Y-105542857D01*
X139327628Y-105542857D02*
X139299057Y-105514286D01*
X139299057Y-105514286D02*
X139270485Y-105457143D01*
X139270485Y-105457143D02*
X139270485Y-105342857D01*
X139270485Y-105342857D02*
X139241914Y-105285714D01*
X139241914Y-105285714D02*
X139213342Y-105257143D01*
X139213342Y-105257143D02*
X139156200Y-105228571D01*
X139156200Y-105228571D02*
X139041914Y-105228571D01*
X139041914Y-105228571D02*
X138984771Y-105257143D01*
X138984771Y-105257143D02*
X138956200Y-105285714D01*
X138956200Y-105285714D02*
X138927628Y-105342857D01*
X138927628Y-105342857D02*
X138927628Y-105457143D01*
X138927628Y-105457143D02*
X138956200Y-105514286D01*
X138956200Y-105514286D02*
X138984771Y-105542857D01*
X138984771Y-105542857D02*
X139041914Y-105571428D01*
X139041914Y-105571428D02*
X139156200Y-105571428D01*
X139156200Y-105571428D02*
X139213342Y-105542857D01*
X139213342Y-105542857D02*
X139241914Y-105514286D01*
X139241914Y-105514286D02*
X139270485Y-105457143D01*
X145084320Y-110296104D02*
X145027177Y-110267532D01*
X145027177Y-110267532D02*
X144970034Y-110210390D01*
X144970034Y-110210390D02*
X144884320Y-110124675D01*
X144884320Y-110124675D02*
X144827177Y-110096104D01*
X144827177Y-110096104D02*
X144770034Y-110096104D01*
X144798605Y-110238961D02*
X144741463Y-110210390D01*
X144741463Y-110210390D02*
X144684320Y-110153247D01*
X144684320Y-110153247D02*
X144655748Y-110038961D01*
X144655748Y-110038961D02*
X144655748Y-109838961D01*
X144655748Y-109838961D02*
X144684320Y-109724675D01*
X144684320Y-109724675D02*
X144741463Y-109667532D01*
X144741463Y-109667532D02*
X144798605Y-109638961D01*
X144798605Y-109638961D02*
X144912891Y-109638961D01*
X144912891Y-109638961D02*
X144970034Y-109667532D01*
X144970034Y-109667532D02*
X145027177Y-109724675D01*
X145027177Y-109724675D02*
X145055748Y-109838961D01*
X145055748Y-109838961D02*
X145055748Y-110038961D01*
X145055748Y-110038961D02*
X145027177Y-110153247D01*
X145027177Y-110153247D02*
X144970034Y-110210390D01*
X144970034Y-110210390D02*
X144912891Y-110238961D01*
X144912891Y-110238961D02*
X144798605Y-110238961D01*
X145284319Y-109696104D02*
X145312891Y-109667532D01*
X145312891Y-109667532D02*
X145370034Y-109638961D01*
X145370034Y-109638961D02*
X145512891Y-109638961D01*
X145512891Y-109638961D02*
X145570034Y-109667532D01*
X145570034Y-109667532D02*
X145598605Y-109696104D01*
X145598605Y-109696104D02*
X145627176Y-109753247D01*
X145627176Y-109753247D02*
X145627176Y-109810390D01*
X145627176Y-109810390D02*
X145598605Y-109896104D01*
X145598605Y-109896104D02*
X145255748Y-110238961D01*
X145255748Y-110238961D02*
X145627176Y-110238961D01*
X136999999Y-133272371D02*
X136999999Y-133700942D01*
X136999999Y-133700942D02*
X136971428Y-133786657D01*
X136971428Y-133786657D02*
X136914285Y-133843800D01*
X136914285Y-133843800D02*
X136828571Y-133872371D01*
X136828571Y-133872371D02*
X136771428Y-133872371D01*
X137599999Y-133872371D02*
X137257142Y-133872371D01*
X137428571Y-133872371D02*
X137428571Y-133272371D01*
X137428571Y-133272371D02*
X137371428Y-133358085D01*
X137371428Y-133358085D02*
X137314285Y-133415228D01*
X137314285Y-133415228D02*
X137257142Y-133443800D01*
X138837359Y-131540726D02*
X139437359Y-131540726D01*
X139437359Y-131540726D02*
X139437359Y-131683583D01*
X139437359Y-131683583D02*
X139408788Y-131769297D01*
X139408788Y-131769297D02*
X139351645Y-131826440D01*
X139351645Y-131826440D02*
X139294502Y-131855011D01*
X139294502Y-131855011D02*
X139180216Y-131883583D01*
X139180216Y-131883583D02*
X139094502Y-131883583D01*
X139094502Y-131883583D02*
X138980216Y-131855011D01*
X138980216Y-131855011D02*
X138923073Y-131826440D01*
X138923073Y-131826440D02*
X138865931Y-131769297D01*
X138865931Y-131769297D02*
X138837359Y-131683583D01*
X138837359Y-131683583D02*
X138837359Y-131540726D01*
X139237359Y-132397869D02*
X138837359Y-132397869D01*
X139465931Y-132255011D02*
X139037359Y-132112154D01*
X139037359Y-132112154D02*
X139037359Y-132483583D01*
X151017035Y-122452370D02*
X151017035Y-122938084D01*
X151017035Y-122938084D02*
X151045606Y-122995227D01*
X151045606Y-122995227D02*
X151074178Y-123023799D01*
X151074178Y-123023799D02*
X151131320Y-123052370D01*
X151131320Y-123052370D02*
X151245606Y-123052370D01*
X151245606Y-123052370D02*
X151302749Y-123023799D01*
X151302749Y-123023799D02*
X151331320Y-122995227D01*
X151331320Y-122995227D02*
X151359892Y-122938084D01*
X151359892Y-122938084D02*
X151359892Y-122452370D01*
X151588463Y-122452370D02*
X151959891Y-122452370D01*
X151959891Y-122452370D02*
X151759891Y-122680941D01*
X151759891Y-122680941D02*
X151845606Y-122680941D01*
X151845606Y-122680941D02*
X151902749Y-122709513D01*
X151902749Y-122709513D02*
X151931320Y-122738084D01*
X151931320Y-122738084D02*
X151959891Y-122795227D01*
X151959891Y-122795227D02*
X151959891Y-122938084D01*
X151959891Y-122938084D02*
X151931320Y-122995227D01*
X151931320Y-122995227D02*
X151902749Y-123023799D01*
X151902749Y-123023799D02*
X151845606Y-123052370D01*
X151845606Y-123052370D02*
X151674177Y-123052370D01*
X151674177Y-123052370D02*
X151617034Y-123023799D01*
X151617034Y-123023799D02*
X151588463Y-122995227D01*
X150178329Y-107054563D02*
X150178329Y-107540277D01*
X150178329Y-107540277D02*
X150206900Y-107597420D01*
X150206900Y-107597420D02*
X150235472Y-107625992D01*
X150235472Y-107625992D02*
X150292614Y-107654563D01*
X150292614Y-107654563D02*
X150406900Y-107654563D01*
X150406900Y-107654563D02*
X150464043Y-107625992D01*
X150464043Y-107625992D02*
X150492614Y-107597420D01*
X150492614Y-107597420D02*
X150521186Y-107540277D01*
X150521186Y-107540277D02*
X150521186Y-107054563D01*
X150778328Y-107111706D02*
X150806900Y-107083134D01*
X150806900Y-107083134D02*
X150864043Y-107054563D01*
X150864043Y-107054563D02*
X151006900Y-107054563D01*
X151006900Y-107054563D02*
X151064043Y-107083134D01*
X151064043Y-107083134D02*
X151092614Y-107111706D01*
X151092614Y-107111706D02*
X151121185Y-107168849D01*
X151121185Y-107168849D02*
X151121185Y-107225992D01*
X151121185Y-107225992D02*
X151092614Y-107311706D01*
X151092614Y-107311706D02*
X150749757Y-107654563D01*
X150749757Y-107654563D02*
X151121185Y-107654563D01*
X143195227Y-119753828D02*
X143166656Y-119725256D01*
X143166656Y-119725256D02*
X143138084Y-119639542D01*
X143138084Y-119639542D02*
X143138084Y-119582399D01*
X143138084Y-119582399D02*
X143166656Y-119496685D01*
X143166656Y-119496685D02*
X143223798Y-119439542D01*
X143223798Y-119439542D02*
X143280941Y-119410971D01*
X143280941Y-119410971D02*
X143395227Y-119382399D01*
X143395227Y-119382399D02*
X143480941Y-119382399D01*
X143480941Y-119382399D02*
X143595227Y-119410971D01*
X143595227Y-119410971D02*
X143652370Y-119439542D01*
X143652370Y-119439542D02*
X143709513Y-119496685D01*
X143709513Y-119496685D02*
X143738084Y-119582399D01*
X143738084Y-119582399D02*
X143738084Y-119639542D01*
X143738084Y-119639542D02*
X143709513Y-119725256D01*
X143709513Y-119725256D02*
X143680941Y-119753828D01*
X143138084Y-120325256D02*
X143138084Y-119982399D01*
X143138084Y-120153828D02*
X143738084Y-120153828D01*
X143738084Y-120153828D02*
X143652370Y-120096685D01*
X143652370Y-120096685D02*
X143595227Y-120039542D01*
X143595227Y-120039542D02*
X143566656Y-119982399D01*
X143680941Y-120553828D02*
X143709513Y-120582400D01*
X143709513Y-120582400D02*
X143738084Y-120639543D01*
X143738084Y-120639543D02*
X143738084Y-120782400D01*
X143738084Y-120782400D02*
X143709513Y-120839543D01*
X143709513Y-120839543D02*
X143680941Y-120868114D01*
X143680941Y-120868114D02*
X143623798Y-120896685D01*
X143623798Y-120896685D02*
X143566656Y-120896685D01*
X143566656Y-120896685D02*
X143480941Y-120868114D01*
X143480941Y-120868114D02*
X143138084Y-120525257D01*
X143138084Y-120525257D02*
X143138084Y-120896685D01*
X152314285Y-115622371D02*
X152114285Y-115336657D01*
X151971428Y-115622371D02*
X151971428Y-115022371D01*
X151971428Y-115022371D02*
X152199999Y-115022371D01*
X152199999Y-115022371D02*
X152257142Y-115050942D01*
X152257142Y-115050942D02*
X152285713Y-115079514D01*
X152285713Y-115079514D02*
X152314285Y-115136657D01*
X152314285Y-115136657D02*
X152314285Y-115222371D01*
X152314285Y-115222371D02*
X152285713Y-115279514D01*
X152285713Y-115279514D02*
X152257142Y-115308085D01*
X152257142Y-115308085D02*
X152199999Y-115336657D01*
X152199999Y-115336657D02*
X151971428Y-115336657D01*
X152885713Y-115622371D02*
X152542856Y-115622371D01*
X152714285Y-115622371D02*
X152714285Y-115022371D01*
X152714285Y-115022371D02*
X152657142Y-115108085D01*
X152657142Y-115108085D02*
X152599999Y-115165228D01*
X152599999Y-115165228D02*
X152542856Y-115193800D01*
X153114285Y-115079514D02*
X153142857Y-115050942D01*
X153142857Y-115050942D02*
X153200000Y-115022371D01*
X153200000Y-115022371D02*
X153342857Y-115022371D01*
X153342857Y-115022371D02*
X153400000Y-115050942D01*
X153400000Y-115050942D02*
X153428571Y-115079514D01*
X153428571Y-115079514D02*
X153457142Y-115136657D01*
X153457142Y-115136657D02*
X153457142Y-115193800D01*
X153457142Y-115193800D02*
X153428571Y-115279514D01*
X153428571Y-115279514D02*
X153085714Y-115622371D01*
X153085714Y-115622371D02*
X153457142Y-115622371D01*
X146084285Y-124635228D02*
X146055713Y-124663800D01*
X146055713Y-124663800D02*
X145969999Y-124692371D01*
X145969999Y-124692371D02*
X145912856Y-124692371D01*
X145912856Y-124692371D02*
X145827142Y-124663800D01*
X145827142Y-124663800D02*
X145769999Y-124606657D01*
X145769999Y-124606657D02*
X145741428Y-124549514D01*
X145741428Y-124549514D02*
X145712856Y-124435228D01*
X145712856Y-124435228D02*
X145712856Y-124349514D01*
X145712856Y-124349514D02*
X145741428Y-124235228D01*
X145741428Y-124235228D02*
X145769999Y-124178085D01*
X145769999Y-124178085D02*
X145827142Y-124120942D01*
X145827142Y-124120942D02*
X145912856Y-124092371D01*
X145912856Y-124092371D02*
X145969999Y-124092371D01*
X145969999Y-124092371D02*
X146055713Y-124120942D01*
X146055713Y-124120942D02*
X146084285Y-124149514D01*
X146655713Y-124692371D02*
X146312856Y-124692371D01*
X146484285Y-124692371D02*
X146484285Y-124092371D01*
X146484285Y-124092371D02*
X146427142Y-124178085D01*
X146427142Y-124178085D02*
X146369999Y-124235228D01*
X146369999Y-124235228D02*
X146312856Y-124263800D01*
X147198571Y-124092371D02*
X146912857Y-124092371D01*
X146912857Y-124092371D02*
X146884285Y-124378085D01*
X146884285Y-124378085D02*
X146912857Y-124349514D01*
X146912857Y-124349514D02*
X146970000Y-124320942D01*
X146970000Y-124320942D02*
X147112857Y-124320942D01*
X147112857Y-124320942D02*
X147170000Y-124349514D01*
X147170000Y-124349514D02*
X147198571Y-124378085D01*
X147198571Y-124378085D02*
X147227142Y-124435228D01*
X147227142Y-124435228D02*
X147227142Y-124578085D01*
X147227142Y-124578085D02*
X147198571Y-124635228D01*
X147198571Y-124635228D02*
X147170000Y-124663800D01*
X147170000Y-124663800D02*
X147112857Y-124692371D01*
X147112857Y-124692371D02*
X146970000Y-124692371D01*
X146970000Y-124692371D02*
X146912857Y-124663800D01*
X146912857Y-124663800D02*
X146884285Y-124635228D01*
X155499999Y-133522371D02*
X155499999Y-133950942D01*
X155499999Y-133950942D02*
X155471428Y-134036657D01*
X155471428Y-134036657D02*
X155414285Y-134093800D01*
X155414285Y-134093800D02*
X155328571Y-134122371D01*
X155328571Y-134122371D02*
X155271428Y-134122371D01*
X155728571Y-133522371D02*
X156099999Y-133522371D01*
X156099999Y-133522371D02*
X155899999Y-133750942D01*
X155899999Y-133750942D02*
X155985714Y-133750942D01*
X155985714Y-133750942D02*
X156042857Y-133779514D01*
X156042857Y-133779514D02*
X156071428Y-133808085D01*
X156071428Y-133808085D02*
X156099999Y-133865228D01*
X156099999Y-133865228D02*
X156099999Y-134008085D01*
X156099999Y-134008085D02*
X156071428Y-134065228D01*
X156071428Y-134065228D02*
X156042857Y-134093800D01*
X156042857Y-134093800D02*
X155985714Y-134122371D01*
X155985714Y-134122371D02*
X155814285Y-134122371D01*
X155814285Y-134122371D02*
X155757142Y-134093800D01*
X155757142Y-134093800D02*
X155728571Y-134065228D01*
X141612969Y-129216368D02*
X141584397Y-129244940D01*
X141584397Y-129244940D02*
X141498683Y-129273511D01*
X141498683Y-129273511D02*
X141441540Y-129273511D01*
X141441540Y-129273511D02*
X141355826Y-129244940D01*
X141355826Y-129244940D02*
X141298683Y-129187797D01*
X141298683Y-129187797D02*
X141270112Y-129130654D01*
X141270112Y-129130654D02*
X141241540Y-129016368D01*
X141241540Y-129016368D02*
X141241540Y-128930654D01*
X141241540Y-128930654D02*
X141270112Y-128816368D01*
X141270112Y-128816368D02*
X141298683Y-128759225D01*
X141298683Y-128759225D02*
X141355826Y-128702082D01*
X141355826Y-128702082D02*
X141441540Y-128673511D01*
X141441540Y-128673511D02*
X141498683Y-128673511D01*
X141498683Y-128673511D02*
X141584397Y-128702082D01*
X141584397Y-128702082D02*
X141612969Y-128730654D01*
X142184397Y-129273511D02*
X141841540Y-129273511D01*
X142012969Y-129273511D02*
X142012969Y-128673511D01*
X142012969Y-128673511D02*
X141955826Y-128759225D01*
X141955826Y-128759225D02*
X141898683Y-128816368D01*
X141898683Y-128816368D02*
X141841540Y-128844940D01*
X142384398Y-128673511D02*
X142755826Y-128673511D01*
X142755826Y-128673511D02*
X142555826Y-128902082D01*
X142555826Y-128902082D02*
X142641541Y-128902082D01*
X142641541Y-128902082D02*
X142698684Y-128930654D01*
X142698684Y-128930654D02*
X142727255Y-128959225D01*
X142727255Y-128959225D02*
X142755826Y-129016368D01*
X142755826Y-129016368D02*
X142755826Y-129159225D01*
X142755826Y-129159225D02*
X142727255Y-129216368D01*
X142727255Y-129216368D02*
X142698684Y-129244940D01*
X142698684Y-129244940D02*
X142641541Y-129273511D01*
X142641541Y-129273511D02*
X142470112Y-129273511D01*
X142470112Y-129273511D02*
X142412969Y-129244940D01*
X142412969Y-129244940D02*
X142384398Y-129216368D01*
X138346640Y-127405211D02*
X138375211Y-127319497D01*
X138375211Y-127319497D02*
X138375211Y-127176639D01*
X138375211Y-127176639D02*
X138346640Y-127119497D01*
X138346640Y-127119497D02*
X138318068Y-127090925D01*
X138318068Y-127090925D02*
X138260925Y-127062354D01*
X138260925Y-127062354D02*
X138203782Y-127062354D01*
X138203782Y-127062354D02*
X138146640Y-127090925D01*
X138146640Y-127090925D02*
X138118068Y-127119497D01*
X138118068Y-127119497D02*
X138089497Y-127176639D01*
X138089497Y-127176639D02*
X138060925Y-127290925D01*
X138060925Y-127290925D02*
X138032354Y-127348068D01*
X138032354Y-127348068D02*
X138003782Y-127376639D01*
X138003782Y-127376639D02*
X137946640Y-127405211D01*
X137946640Y-127405211D02*
X137889497Y-127405211D01*
X137889497Y-127405211D02*
X137832354Y-127376639D01*
X137832354Y-127376639D02*
X137803782Y-127348068D01*
X137803782Y-127348068D02*
X137775211Y-127290925D01*
X137775211Y-127290925D02*
X137775211Y-127148068D01*
X137775211Y-127148068D02*
X137803782Y-127062354D01*
X137775211Y-126862353D02*
X138375211Y-126719496D01*
X138375211Y-126719496D02*
X137946640Y-126605210D01*
X137946640Y-126605210D02*
X138375211Y-126490925D01*
X138375211Y-126490925D02*
X137775211Y-126348068D01*
X138375211Y-125805211D02*
X138375211Y-126148068D01*
X138375211Y-125976639D02*
X137775211Y-125976639D01*
X137775211Y-125976639D02*
X137860925Y-126033782D01*
X137860925Y-126033782D02*
X137918068Y-126090925D01*
X137918068Y-126090925D02*
X137946640Y-126148068D01*
X138962429Y-101327966D02*
X138933857Y-101356538D01*
X138933857Y-101356538D02*
X138848143Y-101385109D01*
X138848143Y-101385109D02*
X138791000Y-101385109D01*
X138791000Y-101385109D02*
X138705286Y-101356538D01*
X138705286Y-101356538D02*
X138648143Y-101299395D01*
X138648143Y-101299395D02*
X138619572Y-101242252D01*
X138619572Y-101242252D02*
X138591000Y-101127966D01*
X138591000Y-101127966D02*
X138591000Y-101042252D01*
X138591000Y-101042252D02*
X138619572Y-100927966D01*
X138619572Y-100927966D02*
X138648143Y-100870823D01*
X138648143Y-100870823D02*
X138705286Y-100813680D01*
X138705286Y-100813680D02*
X138791000Y-100785109D01*
X138791000Y-100785109D02*
X138848143Y-100785109D01*
X138848143Y-100785109D02*
X138933857Y-100813680D01*
X138933857Y-100813680D02*
X138962429Y-100842252D01*
X139533857Y-101385109D02*
X139191000Y-101385109D01*
X139362429Y-101385109D02*
X139362429Y-100785109D01*
X139362429Y-100785109D02*
X139305286Y-100870823D01*
X139305286Y-100870823D02*
X139248143Y-100927966D01*
X139248143Y-100927966D02*
X139191000Y-100956538D01*
X144361852Y-99489673D02*
X144161852Y-99203959D01*
X144018995Y-99489673D02*
X144018995Y-98889673D01*
X144018995Y-98889673D02*
X144247566Y-98889673D01*
X144247566Y-98889673D02*
X144304709Y-98918244D01*
X144304709Y-98918244D02*
X144333280Y-98946816D01*
X144333280Y-98946816D02*
X144361852Y-99003959D01*
X144361852Y-99003959D02*
X144361852Y-99089673D01*
X144361852Y-99089673D02*
X144333280Y-99146816D01*
X144333280Y-99146816D02*
X144304709Y-99175387D01*
X144304709Y-99175387D02*
X144247566Y-99203959D01*
X144247566Y-99203959D02*
X144018995Y-99203959D01*
X144904709Y-98889673D02*
X144618995Y-98889673D01*
X144618995Y-98889673D02*
X144590423Y-99175387D01*
X144590423Y-99175387D02*
X144618995Y-99146816D01*
X144618995Y-99146816D02*
X144676138Y-99118244D01*
X144676138Y-99118244D02*
X144818995Y-99118244D01*
X144818995Y-99118244D02*
X144876138Y-99146816D01*
X144876138Y-99146816D02*
X144904709Y-99175387D01*
X144904709Y-99175387D02*
X144933280Y-99232530D01*
X144933280Y-99232530D02*
X144933280Y-99375387D01*
X144933280Y-99375387D02*
X144904709Y-99432530D01*
X144904709Y-99432530D02*
X144876138Y-99461102D01*
X144876138Y-99461102D02*
X144818995Y-99489673D01*
X144818995Y-99489673D02*
X144676138Y-99489673D01*
X144676138Y-99489673D02*
X144618995Y-99461102D01*
X144618995Y-99461102D02*
X144590423Y-99432530D01*
X138197235Y-109977772D02*
X138197235Y-109377772D01*
X138197235Y-109377772D02*
X138340092Y-109377772D01*
X138340092Y-109377772D02*
X138425806Y-109406343D01*
X138425806Y-109406343D02*
X138482949Y-109463486D01*
X138482949Y-109463486D02*
X138511520Y-109520629D01*
X138511520Y-109520629D02*
X138540092Y-109634915D01*
X138540092Y-109634915D02*
X138540092Y-109720629D01*
X138540092Y-109720629D02*
X138511520Y-109834915D01*
X138511520Y-109834915D02*
X138482949Y-109892058D01*
X138482949Y-109892058D02*
X138425806Y-109949201D01*
X138425806Y-109949201D02*
X138340092Y-109977772D01*
X138340092Y-109977772D02*
X138197235Y-109977772D01*
X139054378Y-109377772D02*
X138940092Y-109377772D01*
X138940092Y-109377772D02*
X138882949Y-109406343D01*
X138882949Y-109406343D02*
X138854378Y-109434915D01*
X138854378Y-109434915D02*
X138797235Y-109520629D01*
X138797235Y-109520629D02*
X138768663Y-109634915D01*
X138768663Y-109634915D02*
X138768663Y-109863486D01*
X138768663Y-109863486D02*
X138797235Y-109920629D01*
X138797235Y-109920629D02*
X138825806Y-109949201D01*
X138825806Y-109949201D02*
X138882949Y-109977772D01*
X138882949Y-109977772D02*
X138997235Y-109977772D01*
X138997235Y-109977772D02*
X139054378Y-109949201D01*
X139054378Y-109949201D02*
X139082949Y-109920629D01*
X139082949Y-109920629D02*
X139111520Y-109863486D01*
X139111520Y-109863486D02*
X139111520Y-109720629D01*
X139111520Y-109720629D02*
X139082949Y-109663486D01*
X139082949Y-109663486D02*
X139054378Y-109634915D01*
X139054378Y-109634915D02*
X138997235Y-109606343D01*
X138997235Y-109606343D02*
X138882949Y-109606343D01*
X138882949Y-109606343D02*
X138825806Y-109634915D01*
X138825806Y-109634915D02*
X138797235Y-109663486D01*
X138797235Y-109663486D02*
X138768663Y-109720629D01*
X139222371Y-112928571D02*
X139222371Y-113271428D01*
X139222371Y-113099999D02*
X138622371Y-113099999D01*
X138622371Y-113099999D02*
X138708085Y-113157142D01*
X138708085Y-113157142D02*
X138765228Y-113214285D01*
X138765228Y-113214285D02*
X138793800Y-113271428D01*
X150352110Y-129394315D02*
X150323538Y-129422887D01*
X150323538Y-129422887D02*
X150237824Y-129451458D01*
X150237824Y-129451458D02*
X150180681Y-129451458D01*
X150180681Y-129451458D02*
X150094967Y-129422887D01*
X150094967Y-129422887D02*
X150037824Y-129365744D01*
X150037824Y-129365744D02*
X150009253Y-129308601D01*
X150009253Y-129308601D02*
X149980681Y-129194315D01*
X149980681Y-129194315D02*
X149980681Y-129108601D01*
X149980681Y-129108601D02*
X150009253Y-128994315D01*
X150009253Y-128994315D02*
X150037824Y-128937172D01*
X150037824Y-128937172D02*
X150094967Y-128880029D01*
X150094967Y-128880029D02*
X150180681Y-128851458D01*
X150180681Y-128851458D02*
X150237824Y-128851458D01*
X150237824Y-128851458D02*
X150323538Y-128880029D01*
X150323538Y-128880029D02*
X150352110Y-128908601D01*
X150923538Y-129451458D02*
X150580681Y-129451458D01*
X150752110Y-129451458D02*
X150752110Y-128851458D01*
X150752110Y-128851458D02*
X150694967Y-128937172D01*
X150694967Y-128937172D02*
X150637824Y-128994315D01*
X150637824Y-128994315D02*
X150580681Y-129022887D01*
X151437825Y-129051458D02*
X151437825Y-129451458D01*
X151294967Y-128822887D02*
X151152110Y-129251458D01*
X151152110Y-129251458D02*
X151523539Y-129251458D01*
X146350000Y-128815228D02*
X146321428Y-128843800D01*
X146321428Y-128843800D02*
X146235714Y-128872371D01*
X146235714Y-128872371D02*
X146178571Y-128872371D01*
X146178571Y-128872371D02*
X146092857Y-128843800D01*
X146092857Y-128843800D02*
X146035714Y-128786657D01*
X146035714Y-128786657D02*
X146007143Y-128729514D01*
X146007143Y-128729514D02*
X145978571Y-128615228D01*
X145978571Y-128615228D02*
X145978571Y-128529514D01*
X145978571Y-128529514D02*
X146007143Y-128415228D01*
X146007143Y-128415228D02*
X146035714Y-128358085D01*
X146035714Y-128358085D02*
X146092857Y-128300942D01*
X146092857Y-128300942D02*
X146178571Y-128272371D01*
X146178571Y-128272371D02*
X146235714Y-128272371D01*
X146235714Y-128272371D02*
X146321428Y-128300942D01*
X146321428Y-128300942D02*
X146350000Y-128329514D01*
X146550000Y-128272371D02*
X146921428Y-128272371D01*
X146921428Y-128272371D02*
X146721428Y-128500942D01*
X146721428Y-128500942D02*
X146807143Y-128500942D01*
X146807143Y-128500942D02*
X146864286Y-128529514D01*
X146864286Y-128529514D02*
X146892857Y-128558085D01*
X146892857Y-128558085D02*
X146921428Y-128615228D01*
X146921428Y-128615228D02*
X146921428Y-128758085D01*
X146921428Y-128758085D02*
X146892857Y-128815228D01*
X146892857Y-128815228D02*
X146864286Y-128843800D01*
X146864286Y-128843800D02*
X146807143Y-128872371D01*
X146807143Y-128872371D02*
X146635714Y-128872371D01*
X146635714Y-128872371D02*
X146578571Y-128843800D01*
X146578571Y-128843800D02*
X146550000Y-128815228D01*
X142440268Y-122178215D02*
X142240268Y-121892501D01*
X142097411Y-122178215D02*
X142097411Y-121578215D01*
X142097411Y-121578215D02*
X142325982Y-121578215D01*
X142325982Y-121578215D02*
X142383125Y-121606786D01*
X142383125Y-121606786D02*
X142411696Y-121635358D01*
X142411696Y-121635358D02*
X142440268Y-121692501D01*
X142440268Y-121692501D02*
X142440268Y-121778215D01*
X142440268Y-121778215D02*
X142411696Y-121835358D01*
X142411696Y-121835358D02*
X142383125Y-121863929D01*
X142383125Y-121863929D02*
X142325982Y-121892501D01*
X142325982Y-121892501D02*
X142097411Y-121892501D01*
X143011696Y-122178215D02*
X142668839Y-122178215D01*
X142840268Y-122178215D02*
X142840268Y-121578215D01*
X142840268Y-121578215D02*
X142783125Y-121663929D01*
X142783125Y-121663929D02*
X142725982Y-121721072D01*
X142725982Y-121721072D02*
X142668839Y-121749644D01*
X143525983Y-121578215D02*
X143411697Y-121578215D01*
X143411697Y-121578215D02*
X143354554Y-121606786D01*
X143354554Y-121606786D02*
X143325983Y-121635358D01*
X143325983Y-121635358D02*
X143268840Y-121721072D01*
X143268840Y-121721072D02*
X143240268Y-121835358D01*
X143240268Y-121835358D02*
X143240268Y-122063929D01*
X143240268Y-122063929D02*
X143268840Y-122121072D01*
X143268840Y-122121072D02*
X143297411Y-122149644D01*
X143297411Y-122149644D02*
X143354554Y-122178215D01*
X143354554Y-122178215D02*
X143468840Y-122178215D01*
X143468840Y-122178215D02*
X143525983Y-122149644D01*
X143525983Y-122149644D02*
X143554554Y-122121072D01*
X143554554Y-122121072D02*
X143583125Y-122063929D01*
X143583125Y-122063929D02*
X143583125Y-121921072D01*
X143583125Y-121921072D02*
X143554554Y-121863929D01*
X143554554Y-121863929D02*
X143525983Y-121835358D01*
X143525983Y-121835358D02*
X143468840Y-121806786D01*
X143468840Y-121806786D02*
X143354554Y-121806786D01*
X143354554Y-121806786D02*
X143297411Y-121835358D01*
X143297411Y-121835358D02*
X143268840Y-121863929D01*
X143268840Y-121863929D02*
X143240268Y-121921072D01*
X148275975Y-130845565D02*
X148275975Y-130245565D01*
X148275975Y-130245565D02*
X148418832Y-130245565D01*
X148418832Y-130245565D02*
X148504546Y-130274136D01*
X148504546Y-130274136D02*
X148561689Y-130331279D01*
X148561689Y-130331279D02*
X148590260Y-130388422D01*
X148590260Y-130388422D02*
X148618832Y-130502708D01*
X148618832Y-130502708D02*
X148618832Y-130588422D01*
X148618832Y-130588422D02*
X148590260Y-130702708D01*
X148590260Y-130702708D02*
X148561689Y-130759851D01*
X148561689Y-130759851D02*
X148504546Y-130816994D01*
X148504546Y-130816994D02*
X148418832Y-130845565D01*
X148418832Y-130845565D02*
X148275975Y-130845565D01*
X148818832Y-130245565D02*
X149218832Y-130245565D01*
X149218832Y-130245565D02*
X148961689Y-130845565D01*
X143741639Y-130819203D02*
X143741639Y-130219203D01*
X143741639Y-130219203D02*
X143884496Y-130219203D01*
X143884496Y-130219203D02*
X143970210Y-130247774D01*
X143970210Y-130247774D02*
X144027353Y-130304917D01*
X144027353Y-130304917D02*
X144055924Y-130362060D01*
X144055924Y-130362060D02*
X144084496Y-130476346D01*
X144084496Y-130476346D02*
X144084496Y-130562060D01*
X144084496Y-130562060D02*
X144055924Y-130676346D01*
X144055924Y-130676346D02*
X144027353Y-130733489D01*
X144027353Y-130733489D02*
X143970210Y-130790632D01*
X143970210Y-130790632D02*
X143884496Y-130819203D01*
X143884496Y-130819203D02*
X143741639Y-130819203D01*
X144655924Y-130819203D02*
X144313067Y-130819203D01*
X144484496Y-130819203D02*
X144484496Y-130219203D01*
X144484496Y-130219203D02*
X144427353Y-130304917D01*
X144427353Y-130304917D02*
X144370210Y-130362060D01*
X144370210Y-130362060D02*
X144313067Y-130390632D01*
X145064285Y-115622371D02*
X144864285Y-115336657D01*
X144721428Y-115622371D02*
X144721428Y-115022371D01*
X144721428Y-115022371D02*
X144949999Y-115022371D01*
X144949999Y-115022371D02*
X145007142Y-115050942D01*
X145007142Y-115050942D02*
X145035713Y-115079514D01*
X145035713Y-115079514D02*
X145064285Y-115136657D01*
X145064285Y-115136657D02*
X145064285Y-115222371D01*
X145064285Y-115222371D02*
X145035713Y-115279514D01*
X145035713Y-115279514D02*
X145007142Y-115308085D01*
X145007142Y-115308085D02*
X144949999Y-115336657D01*
X144949999Y-115336657D02*
X144721428Y-115336657D01*
X145635713Y-115622371D02*
X145292856Y-115622371D01*
X145464285Y-115622371D02*
X145464285Y-115022371D01*
X145464285Y-115022371D02*
X145407142Y-115108085D01*
X145407142Y-115108085D02*
X145349999Y-115165228D01*
X145349999Y-115165228D02*
X145292856Y-115193800D01*
X145835714Y-115022371D02*
X146207142Y-115022371D01*
X146207142Y-115022371D02*
X146007142Y-115250942D01*
X146007142Y-115250942D02*
X146092857Y-115250942D01*
X146092857Y-115250942D02*
X146150000Y-115279514D01*
X146150000Y-115279514D02*
X146178571Y-115308085D01*
X146178571Y-115308085D02*
X146207142Y-115365228D01*
X146207142Y-115365228D02*
X146207142Y-115508085D01*
X146207142Y-115508085D02*
X146178571Y-115565228D01*
X146178571Y-115565228D02*
X146150000Y-115593800D01*
X146150000Y-115593800D02*
X146092857Y-115622371D01*
X146092857Y-115622371D02*
X145921428Y-115622371D01*
X145921428Y-115622371D02*
X145864285Y-115593800D01*
X145864285Y-115593800D02*
X145835714Y-115565228D01*
X138517211Y-118353442D02*
X138488639Y-118382014D01*
X138488639Y-118382014D02*
X138402925Y-118410585D01*
X138402925Y-118410585D02*
X138345782Y-118410585D01*
X138345782Y-118410585D02*
X138260068Y-118382014D01*
X138260068Y-118382014D02*
X138202925Y-118324871D01*
X138202925Y-118324871D02*
X138174354Y-118267728D01*
X138174354Y-118267728D02*
X138145782Y-118153442D01*
X138145782Y-118153442D02*
X138145782Y-118067728D01*
X138145782Y-118067728D02*
X138174354Y-117953442D01*
X138174354Y-117953442D02*
X138202925Y-117896299D01*
X138202925Y-117896299D02*
X138260068Y-117839156D01*
X138260068Y-117839156D02*
X138345782Y-117810585D01*
X138345782Y-117810585D02*
X138402925Y-117810585D01*
X138402925Y-117810585D02*
X138488639Y-117839156D01*
X138488639Y-117839156D02*
X138517211Y-117867728D01*
X139088639Y-118410585D02*
X138745782Y-118410585D01*
X138917211Y-118410585D02*
X138917211Y-117810585D01*
X138917211Y-117810585D02*
X138860068Y-117896299D01*
X138860068Y-117896299D02*
X138802925Y-117953442D01*
X138802925Y-117953442D02*
X138745782Y-117982014D01*
X139660068Y-118410585D02*
X139317211Y-118410585D01*
X139488640Y-118410585D02*
X139488640Y-117810585D01*
X139488640Y-117810585D02*
X139431497Y-117896299D01*
X139431497Y-117896299D02*
X139374354Y-117953442D01*
X139374354Y-117953442D02*
X139317211Y-117982014D01*
X154260473Y-131502797D02*
X154860473Y-131502797D01*
X154860473Y-131502797D02*
X154860473Y-131645654D01*
X154860473Y-131645654D02*
X154831902Y-131731368D01*
X154831902Y-131731368D02*
X154774759Y-131788511D01*
X154774759Y-131788511D02*
X154717616Y-131817082D01*
X154717616Y-131817082D02*
X154603330Y-131845654D01*
X154603330Y-131845654D02*
X154517616Y-131845654D01*
X154517616Y-131845654D02*
X154403330Y-131817082D01*
X154403330Y-131817082D02*
X154346187Y-131788511D01*
X154346187Y-131788511D02*
X154289045Y-131731368D01*
X154289045Y-131731368D02*
X154260473Y-131645654D01*
X154260473Y-131645654D02*
X154260473Y-131502797D01*
X154260473Y-132131368D02*
X154260473Y-132245654D01*
X154260473Y-132245654D02*
X154289045Y-132302797D01*
X154289045Y-132302797D02*
X154317616Y-132331368D01*
X154317616Y-132331368D02*
X154403330Y-132388511D01*
X154403330Y-132388511D02*
X154517616Y-132417082D01*
X154517616Y-132417082D02*
X154746187Y-132417082D01*
X154746187Y-132417082D02*
X154803330Y-132388511D01*
X154803330Y-132388511D02*
X154831902Y-132359940D01*
X154831902Y-132359940D02*
X154860473Y-132302797D01*
X154860473Y-132302797D02*
X154860473Y-132188511D01*
X154860473Y-132188511D02*
X154831902Y-132131368D01*
X154831902Y-132131368D02*
X154803330Y-132102797D01*
X154803330Y-132102797D02*
X154746187Y-132074225D01*
X154746187Y-132074225D02*
X154603330Y-132074225D01*
X154603330Y-132074225D02*
X154546187Y-132102797D01*
X154546187Y-132102797D02*
X154517616Y-132131368D01*
X154517616Y-132131368D02*
X154489045Y-132188511D01*
X154489045Y-132188511D02*
X154489045Y-132302797D01*
X154489045Y-132302797D02*
X154517616Y-132359940D01*
X154517616Y-132359940D02*
X154546187Y-132388511D01*
X154546187Y-132388511D02*
X154603330Y-132417082D01*
X134887690Y-139644404D02*
X134887690Y-140072975D01*
X134887690Y-140072975D02*
X134859119Y-140158690D01*
X134859119Y-140158690D02*
X134801976Y-140215833D01*
X134801976Y-140215833D02*
X134716262Y-140244404D01*
X134716262Y-140244404D02*
X134659119Y-140244404D01*
X135144833Y-139701547D02*
X135173405Y-139672975D01*
X135173405Y-139672975D02*
X135230548Y-139644404D01*
X135230548Y-139644404D02*
X135373405Y-139644404D01*
X135373405Y-139644404D02*
X135430548Y-139672975D01*
X135430548Y-139672975D02*
X135459119Y-139701547D01*
X135459119Y-139701547D02*
X135487690Y-139758690D01*
X135487690Y-139758690D02*
X135487690Y-139815833D01*
X135487690Y-139815833D02*
X135459119Y-139901547D01*
X135459119Y-139901547D02*
X135116262Y-140244404D01*
X135116262Y-140244404D02*
X135487690Y-140244404D01*
X153510473Y-131502797D02*
X154110473Y-131502797D01*
X154110473Y-131502797D02*
X154110473Y-131645654D01*
X154110473Y-131645654D02*
X154081902Y-131731368D01*
X154081902Y-131731368D02*
X154024759Y-131788511D01*
X154024759Y-131788511D02*
X153967616Y-131817082D01*
X153967616Y-131817082D02*
X153853330Y-131845654D01*
X153853330Y-131845654D02*
X153767616Y-131845654D01*
X153767616Y-131845654D02*
X153653330Y-131817082D01*
X153653330Y-131817082D02*
X153596187Y-131788511D01*
X153596187Y-131788511D02*
X153539045Y-131731368D01*
X153539045Y-131731368D02*
X153510473Y-131645654D01*
X153510473Y-131645654D02*
X153510473Y-131502797D01*
X153853330Y-132188511D02*
X153881902Y-132131368D01*
X153881902Y-132131368D02*
X153910473Y-132102797D01*
X153910473Y-132102797D02*
X153967616Y-132074225D01*
X153967616Y-132074225D02*
X153996187Y-132074225D01*
X153996187Y-132074225D02*
X154053330Y-132102797D01*
X154053330Y-132102797D02*
X154081902Y-132131368D01*
X154081902Y-132131368D02*
X154110473Y-132188511D01*
X154110473Y-132188511D02*
X154110473Y-132302797D01*
X154110473Y-132302797D02*
X154081902Y-132359940D01*
X154081902Y-132359940D02*
X154053330Y-132388511D01*
X154053330Y-132388511D02*
X153996187Y-132417082D01*
X153996187Y-132417082D02*
X153967616Y-132417082D01*
X153967616Y-132417082D02*
X153910473Y-132388511D01*
X153910473Y-132388511D02*
X153881902Y-132359940D01*
X153881902Y-132359940D02*
X153853330Y-132302797D01*
X153853330Y-132302797D02*
X153853330Y-132188511D01*
X153853330Y-132188511D02*
X153824759Y-132131368D01*
X153824759Y-132131368D02*
X153796187Y-132102797D01*
X153796187Y-132102797D02*
X153739045Y-132074225D01*
X153739045Y-132074225D02*
X153624759Y-132074225D01*
X153624759Y-132074225D02*
X153567616Y-132102797D01*
X153567616Y-132102797D02*
X153539045Y-132131368D01*
X153539045Y-132131368D02*
X153510473Y-132188511D01*
X153510473Y-132188511D02*
X153510473Y-132302797D01*
X153510473Y-132302797D02*
X153539045Y-132359940D01*
X153539045Y-132359940D02*
X153567616Y-132388511D01*
X153567616Y-132388511D02*
X153624759Y-132417082D01*
X153624759Y-132417082D02*
X153739045Y-132417082D01*
X153739045Y-132417082D02*
X153796187Y-132388511D01*
X153796187Y-132388511D02*
X153824759Y-132359940D01*
X153824759Y-132359940D02*
X153853330Y-132302797D01*
X146336104Y-99455963D02*
X146307532Y-99484535D01*
X146307532Y-99484535D02*
X146221818Y-99513106D01*
X146221818Y-99513106D02*
X146164675Y-99513106D01*
X146164675Y-99513106D02*
X146078961Y-99484535D01*
X146078961Y-99484535D02*
X146021818Y-99427392D01*
X146021818Y-99427392D02*
X145993247Y-99370249D01*
X145993247Y-99370249D02*
X145964675Y-99255963D01*
X145964675Y-99255963D02*
X145964675Y-99170249D01*
X145964675Y-99170249D02*
X145993247Y-99055963D01*
X145993247Y-99055963D02*
X146021818Y-98998820D01*
X146021818Y-98998820D02*
X146078961Y-98941677D01*
X146078961Y-98941677D02*
X146164675Y-98913106D01*
X146164675Y-98913106D02*
X146221818Y-98913106D01*
X146221818Y-98913106D02*
X146307532Y-98941677D01*
X146307532Y-98941677D02*
X146336104Y-98970249D01*
X146850390Y-98913106D02*
X146736104Y-98913106D01*
X146736104Y-98913106D02*
X146678961Y-98941677D01*
X146678961Y-98941677D02*
X146650390Y-98970249D01*
X146650390Y-98970249D02*
X146593247Y-99055963D01*
X146593247Y-99055963D02*
X146564675Y-99170249D01*
X146564675Y-99170249D02*
X146564675Y-99398820D01*
X146564675Y-99398820D02*
X146593247Y-99455963D01*
X146593247Y-99455963D02*
X146621818Y-99484535D01*
X146621818Y-99484535D02*
X146678961Y-99513106D01*
X146678961Y-99513106D02*
X146793247Y-99513106D01*
X146793247Y-99513106D02*
X146850390Y-99484535D01*
X146850390Y-99484535D02*
X146878961Y-99455963D01*
X146878961Y-99455963D02*
X146907532Y-99398820D01*
X146907532Y-99398820D02*
X146907532Y-99255963D01*
X146907532Y-99255963D02*
X146878961Y-99198820D01*
X146878961Y-99198820D02*
X146850390Y-99170249D01*
X146850390Y-99170249D02*
X146793247Y-99141677D01*
X146793247Y-99141677D02*
X146678961Y-99141677D01*
X146678961Y-99141677D02*
X146621818Y-99170249D01*
X146621818Y-99170249D02*
X146593247Y-99198820D01*
X146593247Y-99198820D02*
X146564675Y-99255963D01*
X150837917Y-110315876D02*
X150780774Y-110287304D01*
X150780774Y-110287304D02*
X150723631Y-110230162D01*
X150723631Y-110230162D02*
X150637917Y-110144447D01*
X150637917Y-110144447D02*
X150580774Y-110115876D01*
X150580774Y-110115876D02*
X150523631Y-110115876D01*
X150552202Y-110258733D02*
X150495060Y-110230162D01*
X150495060Y-110230162D02*
X150437917Y-110173019D01*
X150437917Y-110173019D02*
X150409345Y-110058733D01*
X150409345Y-110058733D02*
X150409345Y-109858733D01*
X150409345Y-109858733D02*
X150437917Y-109744447D01*
X150437917Y-109744447D02*
X150495060Y-109687304D01*
X150495060Y-109687304D02*
X150552202Y-109658733D01*
X150552202Y-109658733D02*
X150666488Y-109658733D01*
X150666488Y-109658733D02*
X150723631Y-109687304D01*
X150723631Y-109687304D02*
X150780774Y-109744447D01*
X150780774Y-109744447D02*
X150809345Y-109858733D01*
X150809345Y-109858733D02*
X150809345Y-110058733D01*
X150809345Y-110058733D02*
X150780774Y-110173019D01*
X150780774Y-110173019D02*
X150723631Y-110230162D01*
X150723631Y-110230162D02*
X150666488Y-110258733D01*
X150666488Y-110258733D02*
X150552202Y-110258733D01*
X151380773Y-110258733D02*
X151037916Y-110258733D01*
X151209345Y-110258733D02*
X151209345Y-109658733D01*
X151209345Y-109658733D02*
X151152202Y-109744447D01*
X151152202Y-109744447D02*
X151095059Y-109801590D01*
X151095059Y-109801590D02*
X151037916Y-109830162D01*
X138525307Y-119974058D02*
X138325307Y-119688344D01*
X138182450Y-119974058D02*
X138182450Y-119374058D01*
X138182450Y-119374058D02*
X138411021Y-119374058D01*
X138411021Y-119374058D02*
X138468164Y-119402629D01*
X138468164Y-119402629D02*
X138496735Y-119431201D01*
X138496735Y-119431201D02*
X138525307Y-119488344D01*
X138525307Y-119488344D02*
X138525307Y-119574058D01*
X138525307Y-119574058D02*
X138496735Y-119631201D01*
X138496735Y-119631201D02*
X138468164Y-119659772D01*
X138468164Y-119659772D02*
X138411021Y-119688344D01*
X138411021Y-119688344D02*
X138182450Y-119688344D01*
X139096735Y-119974058D02*
X138753878Y-119974058D01*
X138925307Y-119974058D02*
X138925307Y-119374058D01*
X138925307Y-119374058D02*
X138868164Y-119459772D01*
X138868164Y-119459772D02*
X138811021Y-119516915D01*
X138811021Y-119516915D02*
X138753878Y-119545487D01*
X139439593Y-119631201D02*
X139382450Y-119602629D01*
X139382450Y-119602629D02*
X139353879Y-119574058D01*
X139353879Y-119574058D02*
X139325307Y-119516915D01*
X139325307Y-119516915D02*
X139325307Y-119488344D01*
X139325307Y-119488344D02*
X139353879Y-119431201D01*
X139353879Y-119431201D02*
X139382450Y-119402629D01*
X139382450Y-119402629D02*
X139439593Y-119374058D01*
X139439593Y-119374058D02*
X139553879Y-119374058D01*
X139553879Y-119374058D02*
X139611022Y-119402629D01*
X139611022Y-119402629D02*
X139639593Y-119431201D01*
X139639593Y-119431201D02*
X139668164Y-119488344D01*
X139668164Y-119488344D02*
X139668164Y-119516915D01*
X139668164Y-119516915D02*
X139639593Y-119574058D01*
X139639593Y-119574058D02*
X139611022Y-119602629D01*
X139611022Y-119602629D02*
X139553879Y-119631201D01*
X139553879Y-119631201D02*
X139439593Y-119631201D01*
X139439593Y-119631201D02*
X139382450Y-119659772D01*
X139382450Y-119659772D02*
X139353879Y-119688344D01*
X139353879Y-119688344D02*
X139325307Y-119745487D01*
X139325307Y-119745487D02*
X139325307Y-119859772D01*
X139325307Y-119859772D02*
X139353879Y-119916915D01*
X139353879Y-119916915D02*
X139382450Y-119945487D01*
X139382450Y-119945487D02*
X139439593Y-119974058D01*
X139439593Y-119974058D02*
X139553879Y-119974058D01*
X139553879Y-119974058D02*
X139611022Y-119945487D01*
X139611022Y-119945487D02*
X139639593Y-119916915D01*
X139639593Y-119916915D02*
X139668164Y-119859772D01*
X139668164Y-119859772D02*
X139668164Y-119745487D01*
X139668164Y-119745487D02*
X139639593Y-119688344D01*
X139639593Y-119688344D02*
X139611022Y-119659772D01*
X139611022Y-119659772D02*
X139553879Y-119631201D01*
X154617275Y-119571255D02*
X154417275Y-119285541D01*
X154274418Y-119571255D02*
X154274418Y-118971255D01*
X154274418Y-118971255D02*
X154502989Y-118971255D01*
X154502989Y-118971255D02*
X154560132Y-118999826D01*
X154560132Y-118999826D02*
X154588703Y-119028398D01*
X154588703Y-119028398D02*
X154617275Y-119085541D01*
X154617275Y-119085541D02*
X154617275Y-119171255D01*
X154617275Y-119171255D02*
X154588703Y-119228398D01*
X154588703Y-119228398D02*
X154560132Y-119256969D01*
X154560132Y-119256969D02*
X154502989Y-119285541D01*
X154502989Y-119285541D02*
X154274418Y-119285541D01*
X154817275Y-118971255D02*
X155217275Y-118971255D01*
X155217275Y-118971255D02*
X154960132Y-119571255D01*
X142449161Y-123172030D02*
X142249161Y-122886316D01*
X142106304Y-123172030D02*
X142106304Y-122572030D01*
X142106304Y-122572030D02*
X142334875Y-122572030D01*
X142334875Y-122572030D02*
X142392018Y-122600601D01*
X142392018Y-122600601D02*
X142420589Y-122629173D01*
X142420589Y-122629173D02*
X142449161Y-122686316D01*
X142449161Y-122686316D02*
X142449161Y-122772030D01*
X142449161Y-122772030D02*
X142420589Y-122829173D01*
X142420589Y-122829173D02*
X142392018Y-122857744D01*
X142392018Y-122857744D02*
X142334875Y-122886316D01*
X142334875Y-122886316D02*
X142106304Y-122886316D01*
X143020589Y-123172030D02*
X142677732Y-123172030D01*
X142849161Y-123172030D02*
X142849161Y-122572030D01*
X142849161Y-122572030D02*
X142792018Y-122657744D01*
X142792018Y-122657744D02*
X142734875Y-122714887D01*
X142734875Y-122714887D02*
X142677732Y-122743459D01*
X143534876Y-122772030D02*
X143534876Y-123172030D01*
X143392018Y-122543459D02*
X143249161Y-122972030D01*
X143249161Y-122972030D02*
X143620590Y-122972030D01*
X141576580Y-99473834D02*
X141376580Y-99188120D01*
X141233723Y-99473834D02*
X141233723Y-98873834D01*
X141233723Y-98873834D02*
X141462294Y-98873834D01*
X141462294Y-98873834D02*
X141519437Y-98902405D01*
X141519437Y-98902405D02*
X141548008Y-98930977D01*
X141548008Y-98930977D02*
X141576580Y-98988120D01*
X141576580Y-98988120D02*
X141576580Y-99073834D01*
X141576580Y-99073834D02*
X141548008Y-99130977D01*
X141548008Y-99130977D02*
X141519437Y-99159548D01*
X141519437Y-99159548D02*
X141462294Y-99188120D01*
X141462294Y-99188120D02*
X141233723Y-99188120D01*
X141805151Y-98930977D02*
X141833723Y-98902405D01*
X141833723Y-98902405D02*
X141890866Y-98873834D01*
X141890866Y-98873834D02*
X142033723Y-98873834D01*
X142033723Y-98873834D02*
X142090866Y-98902405D01*
X142090866Y-98902405D02*
X142119437Y-98930977D01*
X142119437Y-98930977D02*
X142148008Y-98988120D01*
X142148008Y-98988120D02*
X142148008Y-99045263D01*
X142148008Y-99045263D02*
X142119437Y-99130977D01*
X142119437Y-99130977D02*
X141776580Y-99473834D01*
X141776580Y-99473834D02*
X142148008Y-99473834D01*
X142662295Y-99073834D02*
X142662295Y-99473834D01*
X142519437Y-98845263D02*
X142376580Y-99273834D01*
X142376580Y-99273834D02*
X142748009Y-99273834D01*
X157486871Y-139733377D02*
X157486871Y-140161948D01*
X157486871Y-140161948D02*
X157458300Y-140247663D01*
X157458300Y-140247663D02*
X157401157Y-140304806D01*
X157401157Y-140304806D02*
X157315443Y-140333377D01*
X157315443Y-140333377D02*
X157258300Y-140333377D01*
X158029729Y-139933377D02*
X158029729Y-140333377D01*
X157886871Y-139704806D02*
X157744014Y-140133377D01*
X157744014Y-140133377D02*
X158115443Y-140133377D01*
X138234771Y-105000000D02*
X138206200Y-104971428D01*
X138206200Y-104971428D02*
X138177628Y-104885714D01*
X138177628Y-104885714D02*
X138177628Y-104828571D01*
X138177628Y-104828571D02*
X138206200Y-104742857D01*
X138206200Y-104742857D02*
X138263342Y-104685714D01*
X138263342Y-104685714D02*
X138320485Y-104657143D01*
X138320485Y-104657143D02*
X138434771Y-104628571D01*
X138434771Y-104628571D02*
X138520485Y-104628571D01*
X138520485Y-104628571D02*
X138634771Y-104657143D01*
X138634771Y-104657143D02*
X138691914Y-104685714D01*
X138691914Y-104685714D02*
X138749057Y-104742857D01*
X138749057Y-104742857D02*
X138777628Y-104828571D01*
X138777628Y-104828571D02*
X138777628Y-104885714D01*
X138777628Y-104885714D02*
X138749057Y-104971428D01*
X138749057Y-104971428D02*
X138720485Y-105000000D01*
X138720485Y-105228571D02*
X138749057Y-105257143D01*
X138749057Y-105257143D02*
X138777628Y-105314286D01*
X138777628Y-105314286D02*
X138777628Y-105457143D01*
X138777628Y-105457143D02*
X138749057Y-105514286D01*
X138749057Y-105514286D02*
X138720485Y-105542857D01*
X138720485Y-105542857D02*
X138663342Y-105571428D01*
X138663342Y-105571428D02*
X138606200Y-105571428D01*
X138606200Y-105571428D02*
X138520485Y-105542857D01*
X138520485Y-105542857D02*
X138177628Y-105200000D01*
X138177628Y-105200000D02*
X138177628Y-105571428D01*
X154591862Y-104618538D02*
X155191862Y-104618538D01*
X155191862Y-104618538D02*
X155191862Y-104761395D01*
X155191862Y-104761395D02*
X155163291Y-104847109D01*
X155163291Y-104847109D02*
X155106148Y-104904252D01*
X155106148Y-104904252D02*
X155049005Y-104932823D01*
X155049005Y-104932823D02*
X154934719Y-104961395D01*
X154934719Y-104961395D02*
X154849005Y-104961395D01*
X154849005Y-104961395D02*
X154734719Y-104932823D01*
X154734719Y-104932823D02*
X154677576Y-104904252D01*
X154677576Y-104904252D02*
X154620434Y-104847109D01*
X154620434Y-104847109D02*
X154591862Y-104761395D01*
X154591862Y-104761395D02*
X154591862Y-104618538D01*
X155191862Y-105504252D02*
X155191862Y-105218538D01*
X155191862Y-105218538D02*
X154906148Y-105189966D01*
X154906148Y-105189966D02*
X154934719Y-105218538D01*
X154934719Y-105218538D02*
X154963291Y-105275681D01*
X154963291Y-105275681D02*
X154963291Y-105418538D01*
X154963291Y-105418538D02*
X154934719Y-105475681D01*
X154934719Y-105475681D02*
X154906148Y-105504252D01*
X154906148Y-105504252D02*
X154849005Y-105532823D01*
X154849005Y-105532823D02*
X154706148Y-105532823D01*
X154706148Y-105532823D02*
X154649005Y-105504252D01*
X154649005Y-105504252D02*
X154620434Y-105475681D01*
X154620434Y-105475681D02*
X154591862Y-105418538D01*
X154591862Y-105418538D02*
X154591862Y-105275681D01*
X154591862Y-105275681D02*
X154620434Y-105218538D01*
X154620434Y-105218538D02*
X154649005Y-105189966D01*
X138530392Y-120915015D02*
X138330392Y-120629301D01*
X138187535Y-120915015D02*
X138187535Y-120315015D01*
X138187535Y-120315015D02*
X138416106Y-120315015D01*
X138416106Y-120315015D02*
X138473249Y-120343586D01*
X138473249Y-120343586D02*
X138501820Y-120372158D01*
X138501820Y-120372158D02*
X138530392Y-120429301D01*
X138530392Y-120429301D02*
X138530392Y-120515015D01*
X138530392Y-120515015D02*
X138501820Y-120572158D01*
X138501820Y-120572158D02*
X138473249Y-120600729D01*
X138473249Y-120600729D02*
X138416106Y-120629301D01*
X138416106Y-120629301D02*
X138187535Y-120629301D01*
X139101820Y-120915015D02*
X138758963Y-120915015D01*
X138930392Y-120915015D02*
X138930392Y-120315015D01*
X138930392Y-120315015D02*
X138873249Y-120400729D01*
X138873249Y-120400729D02*
X138816106Y-120457872D01*
X138816106Y-120457872D02*
X138758963Y-120486444D01*
X139387535Y-120915015D02*
X139501821Y-120915015D01*
X139501821Y-120915015D02*
X139558964Y-120886444D01*
X139558964Y-120886444D02*
X139587535Y-120857872D01*
X139587535Y-120857872D02*
X139644678Y-120772158D01*
X139644678Y-120772158D02*
X139673249Y-120657872D01*
X139673249Y-120657872D02*
X139673249Y-120429301D01*
X139673249Y-120429301D02*
X139644678Y-120372158D01*
X139644678Y-120372158D02*
X139616107Y-120343586D01*
X139616107Y-120343586D02*
X139558964Y-120315015D01*
X139558964Y-120315015D02*
X139444678Y-120315015D01*
X139444678Y-120315015D02*
X139387535Y-120343586D01*
X139387535Y-120343586D02*
X139358964Y-120372158D01*
X139358964Y-120372158D02*
X139330392Y-120429301D01*
X139330392Y-120429301D02*
X139330392Y-120572158D01*
X139330392Y-120572158D02*
X139358964Y-120629301D01*
X139358964Y-120629301D02*
X139387535Y-120657872D01*
X139387535Y-120657872D02*
X139444678Y-120686444D01*
X139444678Y-120686444D02*
X139558964Y-120686444D01*
X139558964Y-120686444D02*
X139616107Y-120657872D01*
X139616107Y-120657872D02*
X139644678Y-120629301D01*
X139644678Y-120629301D02*
X139673249Y-120572158D01*
X138087359Y-131540726D02*
X138687359Y-131540726D01*
X138687359Y-131540726D02*
X138687359Y-131683583D01*
X138687359Y-131683583D02*
X138658788Y-131769297D01*
X138658788Y-131769297D02*
X138601645Y-131826440D01*
X138601645Y-131826440D02*
X138544502Y-131855011D01*
X138544502Y-131855011D02*
X138430216Y-131883583D01*
X138430216Y-131883583D02*
X138344502Y-131883583D01*
X138344502Y-131883583D02*
X138230216Y-131855011D01*
X138230216Y-131855011D02*
X138173073Y-131826440D01*
X138173073Y-131826440D02*
X138115931Y-131769297D01*
X138115931Y-131769297D02*
X138087359Y-131683583D01*
X138087359Y-131683583D02*
X138087359Y-131540726D01*
X138687359Y-132083583D02*
X138687359Y-132455011D01*
X138687359Y-132455011D02*
X138458788Y-132255011D01*
X138458788Y-132255011D02*
X138458788Y-132340726D01*
X138458788Y-132340726D02*
X138430216Y-132397869D01*
X138430216Y-132397869D02*
X138401645Y-132426440D01*
X138401645Y-132426440D02*
X138344502Y-132455011D01*
X138344502Y-132455011D02*
X138201645Y-132455011D01*
X138201645Y-132455011D02*
X138144502Y-132426440D01*
X138144502Y-132426440D02*
X138115931Y-132397869D01*
X138115931Y-132397869D02*
X138087359Y-132340726D01*
X138087359Y-132340726D02*
X138087359Y-132169297D01*
X138087359Y-132169297D02*
X138115931Y-132112154D01*
X138115931Y-132112154D02*
X138144502Y-132083583D01*
X137337359Y-131540726D02*
X137937359Y-131540726D01*
X137937359Y-131540726D02*
X137937359Y-131683583D01*
X137937359Y-131683583D02*
X137908788Y-131769297D01*
X137908788Y-131769297D02*
X137851645Y-131826440D01*
X137851645Y-131826440D02*
X137794502Y-131855011D01*
X137794502Y-131855011D02*
X137680216Y-131883583D01*
X137680216Y-131883583D02*
X137594502Y-131883583D01*
X137594502Y-131883583D02*
X137480216Y-131855011D01*
X137480216Y-131855011D02*
X137423073Y-131826440D01*
X137423073Y-131826440D02*
X137365931Y-131769297D01*
X137365931Y-131769297D02*
X137337359Y-131683583D01*
X137337359Y-131683583D02*
X137337359Y-131540726D01*
X137880216Y-132112154D02*
X137908788Y-132140726D01*
X137908788Y-132140726D02*
X137937359Y-132197869D01*
X137937359Y-132197869D02*
X137937359Y-132340726D01*
X137937359Y-132340726D02*
X137908788Y-132397869D01*
X137908788Y-132397869D02*
X137880216Y-132426440D01*
X137880216Y-132426440D02*
X137823073Y-132455011D01*
X137823073Y-132455011D02*
X137765931Y-132455011D01*
X137765931Y-132455011D02*
X137680216Y-132426440D01*
X137680216Y-132426440D02*
X137337359Y-132083583D01*
X137337359Y-132083583D02*
X137337359Y-132455011D01*
X138840167Y-107061791D02*
X138811595Y-107090363D01*
X138811595Y-107090363D02*
X138725881Y-107118934D01*
X138725881Y-107118934D02*
X138668738Y-107118934D01*
X138668738Y-107118934D02*
X138583024Y-107090363D01*
X138583024Y-107090363D02*
X138525881Y-107033220D01*
X138525881Y-107033220D02*
X138497310Y-106976077D01*
X138497310Y-106976077D02*
X138468738Y-106861791D01*
X138468738Y-106861791D02*
X138468738Y-106776077D01*
X138468738Y-106776077D02*
X138497310Y-106661791D01*
X138497310Y-106661791D02*
X138525881Y-106604648D01*
X138525881Y-106604648D02*
X138583024Y-106547505D01*
X138583024Y-106547505D02*
X138668738Y-106518934D01*
X138668738Y-106518934D02*
X138725881Y-106518934D01*
X138725881Y-106518934D02*
X138811595Y-106547505D01*
X138811595Y-106547505D02*
X138840167Y-106576077D01*
X139040167Y-106518934D02*
X139440167Y-106518934D01*
X139440167Y-106518934D02*
X139183024Y-107118934D01*
X138368123Y-103657120D02*
X138339551Y-103685692D01*
X138339551Y-103685692D02*
X138253837Y-103714263D01*
X138253837Y-103714263D02*
X138196694Y-103714263D01*
X138196694Y-103714263D02*
X138110980Y-103685692D01*
X138110980Y-103685692D02*
X138053837Y-103628549D01*
X138053837Y-103628549D02*
X138025266Y-103571406D01*
X138025266Y-103571406D02*
X137996694Y-103457120D01*
X137996694Y-103457120D02*
X137996694Y-103371406D01*
X137996694Y-103371406D02*
X138025266Y-103257120D01*
X138025266Y-103257120D02*
X138053837Y-103199977D01*
X138053837Y-103199977D02*
X138110980Y-103142834D01*
X138110980Y-103142834D02*
X138196694Y-103114263D01*
X138196694Y-103114263D02*
X138253837Y-103114263D01*
X138253837Y-103114263D02*
X138339551Y-103142834D01*
X138339551Y-103142834D02*
X138368123Y-103171406D01*
X138939551Y-103714263D02*
X138596694Y-103714263D01*
X138768123Y-103714263D02*
X138768123Y-103114263D01*
X138768123Y-103114263D02*
X138710980Y-103199977D01*
X138710980Y-103199977D02*
X138653837Y-103257120D01*
X138653837Y-103257120D02*
X138596694Y-103285692D01*
X139310980Y-103114263D02*
X139368123Y-103114263D01*
X139368123Y-103114263D02*
X139425266Y-103142834D01*
X139425266Y-103142834D02*
X139453838Y-103171406D01*
X139453838Y-103171406D02*
X139482409Y-103228549D01*
X139482409Y-103228549D02*
X139510980Y-103342834D01*
X139510980Y-103342834D02*
X139510980Y-103485692D01*
X139510980Y-103485692D02*
X139482409Y-103599977D01*
X139482409Y-103599977D02*
X139453838Y-103657120D01*
X139453838Y-103657120D02*
X139425266Y-103685692D01*
X139425266Y-103685692D02*
X139368123Y-103714263D01*
X139368123Y-103714263D02*
X139310980Y-103714263D01*
X139310980Y-103714263D02*
X139253838Y-103685692D01*
X139253838Y-103685692D02*
X139225266Y-103657120D01*
X139225266Y-103657120D02*
X139196695Y-103599977D01*
X139196695Y-103599977D02*
X139168123Y-103485692D01*
X139168123Y-103485692D02*
X139168123Y-103342834D01*
X139168123Y-103342834D02*
X139196695Y-103228549D01*
X139196695Y-103228549D02*
X139225266Y-103171406D01*
X139225266Y-103171406D02*
X139253838Y-103142834D01*
X139253838Y-103142834D02*
X139310980Y-103114263D01*
X147766666Y-115622371D02*
X147566666Y-115336657D01*
X147423809Y-115622371D02*
X147423809Y-115022371D01*
X147423809Y-115022371D02*
X147652380Y-115022371D01*
X147652380Y-115022371D02*
X147709523Y-115050942D01*
X147709523Y-115050942D02*
X147738094Y-115079514D01*
X147738094Y-115079514D02*
X147766666Y-115136657D01*
X147766666Y-115136657D02*
X147766666Y-115222371D01*
X147766666Y-115222371D02*
X147738094Y-115279514D01*
X147738094Y-115279514D02*
X147709523Y-115308085D01*
X147709523Y-115308085D02*
X147652380Y-115336657D01*
X147652380Y-115336657D02*
X147423809Y-115336657D01*
X148109523Y-115279514D02*
X148052380Y-115250942D01*
X148052380Y-115250942D02*
X148023809Y-115222371D01*
X148023809Y-115222371D02*
X147995237Y-115165228D01*
X147995237Y-115165228D02*
X147995237Y-115136657D01*
X147995237Y-115136657D02*
X148023809Y-115079514D01*
X148023809Y-115079514D02*
X148052380Y-115050942D01*
X148052380Y-115050942D02*
X148109523Y-115022371D01*
X148109523Y-115022371D02*
X148223809Y-115022371D01*
X148223809Y-115022371D02*
X148280952Y-115050942D01*
X148280952Y-115050942D02*
X148309523Y-115079514D01*
X148309523Y-115079514D02*
X148338094Y-115136657D01*
X148338094Y-115136657D02*
X148338094Y-115165228D01*
X148338094Y-115165228D02*
X148309523Y-115222371D01*
X148309523Y-115222371D02*
X148280952Y-115250942D01*
X148280952Y-115250942D02*
X148223809Y-115279514D01*
X148223809Y-115279514D02*
X148109523Y-115279514D01*
X148109523Y-115279514D02*
X148052380Y-115308085D01*
X148052380Y-115308085D02*
X148023809Y-115336657D01*
X148023809Y-115336657D02*
X147995237Y-115393800D01*
X147995237Y-115393800D02*
X147995237Y-115508085D01*
X147995237Y-115508085D02*
X148023809Y-115565228D01*
X148023809Y-115565228D02*
X148052380Y-115593800D01*
X148052380Y-115593800D02*
X148109523Y-115622371D01*
X148109523Y-115622371D02*
X148223809Y-115622371D01*
X148223809Y-115622371D02*
X148280952Y-115593800D01*
X148280952Y-115593800D02*
X148309523Y-115565228D01*
X148309523Y-115565228D02*
X148338094Y-115508085D01*
X148338094Y-115508085D02*
X148338094Y-115393800D01*
X148338094Y-115393800D02*
X148309523Y-115336657D01*
X148309523Y-115336657D02*
X148280952Y-115308085D01*
X148280952Y-115308085D02*
X148223809Y-115279514D01*
X149897617Y-115622371D02*
X149697617Y-115336657D01*
X149554760Y-115622371D02*
X149554760Y-115022371D01*
X149554760Y-115022371D02*
X149783331Y-115022371D01*
X149783331Y-115022371D02*
X149840474Y-115050942D01*
X149840474Y-115050942D02*
X149869045Y-115079514D01*
X149869045Y-115079514D02*
X149897617Y-115136657D01*
X149897617Y-115136657D02*
X149897617Y-115222371D01*
X149897617Y-115222371D02*
X149869045Y-115279514D01*
X149869045Y-115279514D02*
X149840474Y-115308085D01*
X149840474Y-115308085D02*
X149783331Y-115336657D01*
X149783331Y-115336657D02*
X149554760Y-115336657D01*
X150469045Y-115622371D02*
X150126188Y-115622371D01*
X150297617Y-115622371D02*
X150297617Y-115022371D01*
X150297617Y-115022371D02*
X150240474Y-115108085D01*
X150240474Y-115108085D02*
X150183331Y-115165228D01*
X150183331Y-115165228D02*
X150126188Y-115193800D01*
X150840474Y-115022371D02*
X150897617Y-115022371D01*
X150897617Y-115022371D02*
X150954760Y-115050942D01*
X150954760Y-115050942D02*
X150983332Y-115079514D01*
X150983332Y-115079514D02*
X151011903Y-115136657D01*
X151011903Y-115136657D02*
X151040474Y-115250942D01*
X151040474Y-115250942D02*
X151040474Y-115393800D01*
X151040474Y-115393800D02*
X151011903Y-115508085D01*
X151011903Y-115508085D02*
X150983332Y-115565228D01*
X150983332Y-115565228D02*
X150954760Y-115593800D01*
X150954760Y-115593800D02*
X150897617Y-115622371D01*
X150897617Y-115622371D02*
X150840474Y-115622371D01*
X150840474Y-115622371D02*
X150783332Y-115593800D01*
X150783332Y-115593800D02*
X150754760Y-115565228D01*
X150754760Y-115565228D02*
X150726189Y-115508085D01*
X150726189Y-115508085D02*
X150697617Y-115393800D01*
X150697617Y-115393800D02*
X150697617Y-115250942D01*
X150697617Y-115250942D02*
X150726189Y-115136657D01*
X150726189Y-115136657D02*
X150754760Y-115079514D01*
X150754760Y-115079514D02*
X150783332Y-115050942D01*
X150783332Y-115050942D02*
X150840474Y-115022371D01*
X139841479Y-114686840D02*
X139641479Y-114401126D01*
X139498622Y-114686840D02*
X139498622Y-114086840D01*
X139498622Y-114086840D02*
X139727193Y-114086840D01*
X139727193Y-114086840D02*
X139784336Y-114115411D01*
X139784336Y-114115411D02*
X139812907Y-114143983D01*
X139812907Y-114143983D02*
X139841479Y-114201126D01*
X139841479Y-114201126D02*
X139841479Y-114286840D01*
X139841479Y-114286840D02*
X139812907Y-114343983D01*
X139812907Y-114343983D02*
X139784336Y-114372554D01*
X139784336Y-114372554D02*
X139727193Y-114401126D01*
X139727193Y-114401126D02*
X139498622Y-114401126D01*
X140412907Y-114686840D02*
X140070050Y-114686840D01*
X140241479Y-114686840D02*
X140241479Y-114086840D01*
X140241479Y-114086840D02*
X140184336Y-114172554D01*
X140184336Y-114172554D02*
X140127193Y-114229697D01*
X140127193Y-114229697D02*
X140070050Y-114258269D01*
X140612908Y-114086840D02*
X141012908Y-114086840D01*
X141012908Y-114086840D02*
X140755765Y-114686840D01*
X137566078Y-97677126D02*
X137566078Y-98162840D01*
X137566078Y-98162840D02*
X137594649Y-98219983D01*
X137594649Y-98219983D02*
X137623221Y-98248555D01*
X137623221Y-98248555D02*
X137680363Y-98277126D01*
X137680363Y-98277126D02*
X137794649Y-98277126D01*
X137794649Y-98277126D02*
X137851792Y-98248555D01*
X137851792Y-98248555D02*
X137880363Y-98219983D01*
X137880363Y-98219983D02*
X137908935Y-98162840D01*
X137908935Y-98162840D02*
X137908935Y-97677126D01*
X138451792Y-97877126D02*
X138451792Y-98277126D01*
X138308934Y-97648555D02*
X138166077Y-98077126D01*
X138166077Y-98077126D02*
X138537506Y-98077126D01*
X154117339Y-101650593D02*
X154403053Y-101450593D01*
X154117339Y-101307736D02*
X154717339Y-101307736D01*
X154717339Y-101307736D02*
X154717339Y-101536307D01*
X154717339Y-101536307D02*
X154688768Y-101593450D01*
X154688768Y-101593450D02*
X154660196Y-101622021D01*
X154660196Y-101622021D02*
X154603053Y-101650593D01*
X154603053Y-101650593D02*
X154517339Y-101650593D01*
X154517339Y-101650593D02*
X154460196Y-101622021D01*
X154460196Y-101622021D02*
X154431625Y-101593450D01*
X154431625Y-101593450D02*
X154403053Y-101536307D01*
X154403053Y-101536307D02*
X154403053Y-101307736D01*
X154117339Y-102222021D02*
X154117339Y-101879164D01*
X154117339Y-102050593D02*
X154717339Y-102050593D01*
X154717339Y-102050593D02*
X154631625Y-101993450D01*
X154631625Y-101993450D02*
X154574482Y-101936307D01*
X154574482Y-101936307D02*
X154545911Y-101879164D01*
X154117339Y-102793450D02*
X154117339Y-102450593D01*
X154117339Y-102622022D02*
X154717339Y-102622022D01*
X154717339Y-102622022D02*
X154631625Y-102564879D01*
X154631625Y-102564879D02*
X154574482Y-102507736D01*
X154574482Y-102507736D02*
X154545911Y-102450593D01*
X154479194Y-125880091D02*
X154450622Y-125965806D01*
X154450622Y-125965806D02*
X154450622Y-126108663D01*
X154450622Y-126108663D02*
X154479194Y-126165806D01*
X154479194Y-126165806D02*
X154507765Y-126194377D01*
X154507765Y-126194377D02*
X154564908Y-126222948D01*
X154564908Y-126222948D02*
X154622051Y-126222948D01*
X154622051Y-126222948D02*
X154679194Y-126194377D01*
X154679194Y-126194377D02*
X154707765Y-126165806D01*
X154707765Y-126165806D02*
X154736336Y-126108663D01*
X154736336Y-126108663D02*
X154764908Y-125994377D01*
X154764908Y-125994377D02*
X154793479Y-125937234D01*
X154793479Y-125937234D02*
X154822051Y-125908663D01*
X154822051Y-125908663D02*
X154879194Y-125880091D01*
X154879194Y-125880091D02*
X154936336Y-125880091D01*
X154936336Y-125880091D02*
X154993479Y-125908663D01*
X154993479Y-125908663D02*
X155022051Y-125937234D01*
X155022051Y-125937234D02*
X155050622Y-125994377D01*
X155050622Y-125994377D02*
X155050622Y-126137234D01*
X155050622Y-126137234D02*
X155022051Y-126222948D01*
X155050622Y-126422949D02*
X154450622Y-126565806D01*
X154450622Y-126565806D02*
X154879194Y-126680092D01*
X154879194Y-126680092D02*
X154450622Y-126794377D01*
X154450622Y-126794377D02*
X155050622Y-126937235D01*
X154993479Y-127137234D02*
X155022051Y-127165806D01*
X155022051Y-127165806D02*
X155050622Y-127222949D01*
X155050622Y-127222949D02*
X155050622Y-127365806D01*
X155050622Y-127365806D02*
X155022051Y-127422949D01*
X155022051Y-127422949D02*
X154993479Y-127451520D01*
X154993479Y-127451520D02*
X154936336Y-127480091D01*
X154936336Y-127480091D02*
X154879194Y-127480091D01*
X154879194Y-127480091D02*
X154793479Y-127451520D01*
X154793479Y-127451520D02*
X154450622Y-127108663D01*
X154450622Y-127108663D02*
X154450622Y-127480091D01*
X154617275Y-120872371D02*
X154417275Y-120586657D01*
X154274418Y-120872371D02*
X154274418Y-120272371D01*
X154274418Y-120272371D02*
X154502989Y-120272371D01*
X154502989Y-120272371D02*
X154560132Y-120300942D01*
X154560132Y-120300942D02*
X154588703Y-120329514D01*
X154588703Y-120329514D02*
X154617275Y-120386657D01*
X154617275Y-120386657D02*
X154617275Y-120472371D01*
X154617275Y-120472371D02*
X154588703Y-120529514D01*
X154588703Y-120529514D02*
X154560132Y-120558085D01*
X154560132Y-120558085D02*
X154502989Y-120586657D01*
X154502989Y-120586657D02*
X154274418Y-120586657D01*
X154902989Y-120872371D02*
X155017275Y-120872371D01*
X155017275Y-120872371D02*
X155074418Y-120843800D01*
X155074418Y-120843800D02*
X155102989Y-120815228D01*
X155102989Y-120815228D02*
X155160132Y-120729514D01*
X155160132Y-120729514D02*
X155188703Y-120615228D01*
X155188703Y-120615228D02*
X155188703Y-120386657D01*
X155188703Y-120386657D02*
X155160132Y-120329514D01*
X155160132Y-120329514D02*
X155131561Y-120300942D01*
X155131561Y-120300942D02*
X155074418Y-120272371D01*
X155074418Y-120272371D02*
X154960132Y-120272371D01*
X154960132Y-120272371D02*
X154902989Y-120300942D01*
X154902989Y-120300942D02*
X154874418Y-120329514D01*
X154874418Y-120329514D02*
X154845846Y-120386657D01*
X154845846Y-120386657D02*
X154845846Y-120529514D01*
X154845846Y-120529514D02*
X154874418Y-120586657D01*
X154874418Y-120586657D02*
X154902989Y-120615228D01*
X154902989Y-120615228D02*
X154960132Y-120643800D01*
X154960132Y-120643800D02*
X155074418Y-120643800D01*
X155074418Y-120643800D02*
X155131561Y-120615228D01*
X155131561Y-120615228D02*
X155160132Y-120586657D01*
X155160132Y-120586657D02*
X155188703Y-120529514D01*
X137484771Y-105000000D02*
X137456200Y-104971428D01*
X137456200Y-104971428D02*
X137427628Y-104885714D01*
X137427628Y-104885714D02*
X137427628Y-104828571D01*
X137427628Y-104828571D02*
X137456200Y-104742857D01*
X137456200Y-104742857D02*
X137513342Y-104685714D01*
X137513342Y-104685714D02*
X137570485Y-104657143D01*
X137570485Y-104657143D02*
X137684771Y-104628571D01*
X137684771Y-104628571D02*
X137770485Y-104628571D01*
X137770485Y-104628571D02*
X137884771Y-104657143D01*
X137884771Y-104657143D02*
X137941914Y-104685714D01*
X137941914Y-104685714D02*
X137999057Y-104742857D01*
X137999057Y-104742857D02*
X138027628Y-104828571D01*
X138027628Y-104828571D02*
X138027628Y-104885714D01*
X138027628Y-104885714D02*
X137999057Y-104971428D01*
X137999057Y-104971428D02*
X137970485Y-105000000D01*
X137427628Y-105285714D02*
X137427628Y-105400000D01*
X137427628Y-105400000D02*
X137456200Y-105457143D01*
X137456200Y-105457143D02*
X137484771Y-105485714D01*
X137484771Y-105485714D02*
X137570485Y-105542857D01*
X137570485Y-105542857D02*
X137684771Y-105571428D01*
X137684771Y-105571428D02*
X137913342Y-105571428D01*
X137913342Y-105571428D02*
X137970485Y-105542857D01*
X137970485Y-105542857D02*
X137999057Y-105514286D01*
X137999057Y-105514286D02*
X138027628Y-105457143D01*
X138027628Y-105457143D02*
X138027628Y-105342857D01*
X138027628Y-105342857D02*
X137999057Y-105285714D01*
X137999057Y-105285714D02*
X137970485Y-105257143D01*
X137970485Y-105257143D02*
X137913342Y-105228571D01*
X137913342Y-105228571D02*
X137770485Y-105228571D01*
X137770485Y-105228571D02*
X137713342Y-105257143D01*
X137713342Y-105257143D02*
X137684771Y-105285714D01*
X137684771Y-105285714D02*
X137656200Y-105342857D01*
X137656200Y-105342857D02*
X137656200Y-105457143D01*
X137656200Y-105457143D02*
X137684771Y-105514286D01*
X137684771Y-105514286D02*
X137713342Y-105542857D01*
X137713342Y-105542857D02*
X137770485Y-105571428D01*
X155010473Y-131502797D02*
X155610473Y-131502797D01*
X155610473Y-131502797D02*
X155610473Y-131645654D01*
X155610473Y-131645654D02*
X155581902Y-131731368D01*
X155581902Y-131731368D02*
X155524759Y-131788511D01*
X155524759Y-131788511D02*
X155467616Y-131817082D01*
X155467616Y-131817082D02*
X155353330Y-131845654D01*
X155353330Y-131845654D02*
X155267616Y-131845654D01*
X155267616Y-131845654D02*
X155153330Y-131817082D01*
X155153330Y-131817082D02*
X155096187Y-131788511D01*
X155096187Y-131788511D02*
X155039045Y-131731368D01*
X155039045Y-131731368D02*
X155010473Y-131645654D01*
X155010473Y-131645654D02*
X155010473Y-131502797D01*
X155010473Y-132417082D02*
X155010473Y-132074225D01*
X155010473Y-132245654D02*
X155610473Y-132245654D01*
X155610473Y-132245654D02*
X155524759Y-132188511D01*
X155524759Y-132188511D02*
X155467616Y-132131368D01*
X155467616Y-132131368D02*
X155439045Y-132074225D01*
X155610473Y-132788511D02*
X155610473Y-132845654D01*
X155610473Y-132845654D02*
X155581902Y-132902797D01*
X155581902Y-132902797D02*
X155553330Y-132931369D01*
X155553330Y-132931369D02*
X155496187Y-132959940D01*
X155496187Y-132959940D02*
X155381902Y-132988511D01*
X155381902Y-132988511D02*
X155239045Y-132988511D01*
X155239045Y-132988511D02*
X155124759Y-132959940D01*
X155124759Y-132959940D02*
X155067616Y-132931369D01*
X155067616Y-132931369D02*
X155039045Y-132902797D01*
X155039045Y-132902797D02*
X155010473Y-132845654D01*
X155010473Y-132845654D02*
X155010473Y-132788511D01*
X155010473Y-132788511D02*
X155039045Y-132731369D01*
X155039045Y-132731369D02*
X155067616Y-132702797D01*
X155067616Y-132702797D02*
X155124759Y-132674226D01*
X155124759Y-132674226D02*
X155239045Y-132645654D01*
X155239045Y-132645654D02*
X155381902Y-132645654D01*
X155381902Y-132645654D02*
X155496187Y-132674226D01*
X155496187Y-132674226D02*
X155553330Y-132702797D01*
X155553330Y-132702797D02*
X155581902Y-132731369D01*
X155581902Y-132731369D02*
X155610473Y-132788511D01*
D11*
%TO.C,C8*%
X141840000Y-105012164D02*
X141840000Y-105227836D01*
X142560000Y-105012164D02*
X142560000Y-105227836D01*
%TO.C,Q2*%
X144690000Y-111287500D02*
X144690000Y-110637500D01*
X144690000Y-111287500D02*
X144690000Y-111937500D01*
X147810000Y-111287500D02*
X147810000Y-110637500D01*
X147810000Y-111287500D02*
X147810000Y-111937500D01*
X144740000Y-112450000D02*
X144410000Y-112690000D01*
X144410000Y-112210000D01*
X144740000Y-112450000D01*
G36*
X144740000Y-112450000D02*
G01*
X144410000Y-112690000D01*
X144410000Y-112210000D01*
X144740000Y-112450000D01*
G37*
D12*
%TO.C,D4*%
X142430000Y-132610000D02*
X142430000Y-131410000D01*
X143470000Y-131410000D02*
X143470000Y-132610000D01*
D13*
X143050000Y-133510000D02*
G75*
G02*
X142850000Y-133510000I-100000J0D01*
G01*
X142850000Y-133510000D02*
G75*
G02*
X143050000Y-133510000I100000J0D01*
G01*
D11*
%TO.C,U3*%
X145005353Y-117740000D02*
X145730353Y-117740000D01*
X145005353Y-118465000D02*
X145005353Y-117740000D01*
X145005353Y-122235000D02*
X145005353Y-122960000D01*
X145005353Y-122960000D02*
X145730353Y-122960000D01*
X149500353Y-117740000D02*
X149985353Y-117740000D01*
X150225353Y-118465000D02*
X150225353Y-118040000D01*
X150225353Y-122235000D02*
X150225353Y-122960000D01*
X150225353Y-122960000D02*
X149500353Y-122960000D01*
X150555353Y-117980000D02*
X150225353Y-117740000D01*
X150555353Y-117500000D01*
X150555353Y-117980000D01*
G36*
X150555353Y-117980000D02*
G01*
X150225353Y-117740000D01*
X150555353Y-117500000D01*
X150555353Y-117980000D01*
G37*
%TO.C,U2*%
X145600000Y-100940000D02*
X149360000Y-100940000D01*
X145600000Y-107760000D02*
X149360000Y-107760000D01*
X149360000Y-100940000D02*
X149360000Y-102200000D01*
X149360000Y-107760000D02*
X149360000Y-106500000D01*
X144320000Y-101040000D02*
X144080000Y-100710000D01*
X144560000Y-100710000D01*
X144320000Y-101040000D01*
G36*
X144320000Y-101040000D02*
G01*
X144080000Y-100710000D01*
X144560000Y-100710000D01*
X144320000Y-101040000D01*
G37*
%TO.C,C12*%
X142080615Y-120243326D02*
X142080615Y-120027654D01*
X142800615Y-120243326D02*
X142800615Y-120027654D01*
%TO.C,R12*%
X152536359Y-113970000D02*
X152843641Y-113970000D01*
X152536359Y-114730000D02*
X152843641Y-114730000D01*
%TO.C,C15*%
X146329420Y-125340000D02*
X146610580Y-125340000D01*
X146329420Y-126360000D02*
X146610580Y-126360000D01*
%TO.C,C13*%
X140064096Y-128670993D02*
X140279768Y-128670993D01*
X140064096Y-129390993D02*
X140279768Y-129390993D01*
D12*
%TO.C,SW1*%
X139300000Y-127150000D02*
X139300000Y-126150000D01*
X142650000Y-125050000D02*
X140150000Y-125050000D01*
X142650000Y-128250000D02*
X140150000Y-128250000D01*
X143500000Y-127150000D02*
X143500000Y-126150000D01*
X144300000Y-127800000D02*
G75*
G02*
X144200000Y-127800000I-50000J0D01*
G01*
X144200000Y-127800000D02*
G75*
G02*
X144300000Y-127800000I50000J0D01*
G01*
X144411803Y-127800000D02*
G75*
G02*
X144188197Y-127800000I-111803J0D01*
G01*
X144188197Y-127800000D02*
G75*
G02*
X144411803Y-127800000I111803J0D01*
G01*
D11*
%TO.C,C1*%
X139940000Y-100984420D02*
X139940000Y-101265580D01*
X140960000Y-100984420D02*
X140960000Y-101265580D01*
%TO.C,R5*%
X144286359Y-99720000D02*
X144593641Y-99720000D01*
X144286359Y-100480000D02*
X144593641Y-100480000D01*
%TO.C,D6*%
X139650000Y-113123311D02*
X139650000Y-109323311D01*
X142450000Y-113123311D02*
X141700000Y-113123311D01*
X142450000Y-113123311D02*
X142450000Y-109323311D01*
%TO.C,C14*%
X152493976Y-128789624D02*
X152709648Y-128789624D01*
X152493976Y-129509624D02*
X152709648Y-129509624D01*
%TO.C,C3*%
X146329420Y-126840000D02*
X146610580Y-126840000D01*
X146329420Y-127860000D02*
X146610580Y-127860000D01*
%TO.C,R16*%
X140752145Y-121508701D02*
X141059427Y-121508701D01*
X140752145Y-122268701D02*
X141059427Y-122268701D01*
D12*
%TO.C,D7*%
X146850000Y-134205000D02*
X146850000Y-131355000D01*
X148550000Y-131355000D02*
X148550000Y-134205000D01*
D13*
X147800000Y-135780000D02*
G75*
G02*
X147600000Y-135780000I-100000J0D01*
G01*
X147600000Y-135780000D02*
G75*
G02*
X147800000Y-135780000I100000J0D01*
G01*
D12*
%TO.C,D1*%
X144350000Y-134205000D02*
X144350000Y-131355000D01*
X146050000Y-131355000D02*
X146050000Y-134205000D01*
D13*
X145300000Y-135780000D02*
G75*
G02*
X145100000Y-135780000I-100000J0D01*
G01*
X145100000Y-135780000D02*
G75*
G02*
X145300000Y-135780000I100000J0D01*
G01*
D11*
%TO.C,R13*%
X145286359Y-113970000D02*
X145593641Y-113970000D01*
X145286359Y-114730000D02*
X145593641Y-114730000D01*
%TO.C,C11*%
X141199773Y-117590000D02*
X141480933Y-117590000D01*
X141199773Y-118610000D02*
X141480933Y-118610000D01*
D12*
%TO.C,D9*%
X150805000Y-132610000D02*
X150805000Y-131410000D01*
X151845000Y-131410000D02*
X151845000Y-132610000D01*
D13*
X151425000Y-133510000D02*
G75*
G02*
X151225000Y-133510000I-100000J0D01*
G01*
X151225000Y-133510000D02*
G75*
G02*
X151425000Y-133510000I100000J0D01*
G01*
D11*
%TO.C,J2*%
X136390000Y-136340000D02*
X136810000Y-136340000D01*
X136390000Y-138320000D02*
X136390000Y-136340000D01*
X136390000Y-140690000D02*
X136390000Y-140290000D01*
X138390000Y-136110000D02*
X138390000Y-135660000D01*
X138840000Y-135660000D02*
X138390000Y-135660000D01*
X143910000Y-136340000D02*
X143490000Y-136340000D01*
X143910000Y-138320000D02*
X143910000Y-136340000D01*
X143910000Y-140290000D02*
X143910000Y-140690000D01*
D12*
%TO.C,D8*%
X149430000Y-132610000D02*
X149430000Y-131410000D01*
X150470000Y-131410000D02*
X150470000Y-132610000D01*
D13*
X150050000Y-133510000D02*
G75*
G02*
X149850000Y-133510000I-100000J0D01*
G01*
X149850000Y-133510000D02*
G75*
G02*
X150050000Y-133510000I100000J0D01*
G01*
D11*
%TO.C,C6*%
X146322164Y-99740000D02*
X146537836Y-99740000D01*
X146322164Y-100460000D02*
X146537836Y-100460000D01*
%TO.C,Q1*%
X150390000Y-111287500D02*
X150390000Y-110637500D01*
X150390000Y-111287500D02*
X150390000Y-111937500D01*
X153510000Y-111287500D02*
X153510000Y-110637500D01*
X153510000Y-111287500D02*
X153510000Y-111937500D01*
X150440000Y-112450000D02*
X150110000Y-112690000D01*
X150110000Y-112210000D01*
X150440000Y-112450000D01*
G36*
X150440000Y-112450000D02*
G01*
X150110000Y-112690000D01*
X150110000Y-112210000D01*
X150440000Y-112450000D01*
G37*
%TO.C,R18*%
X140750113Y-119271116D02*
X141057395Y-119271116D01*
X140750113Y-120031116D02*
X141057395Y-120031116D01*
%TO.C,R7*%
X152553634Y-118918884D02*
X152860916Y-118918884D01*
X152553634Y-119678884D02*
X152860916Y-119678884D01*
%TO.C,R14*%
X141059427Y-122508701D02*
X140752145Y-122508701D01*
X141059427Y-123268701D02*
X140752145Y-123268701D01*
%TO.C,R24*%
X141423956Y-100872721D02*
X141423956Y-101347237D01*
X142468956Y-100872721D02*
X142468956Y-101347237D01*
%TO.C,J4*%
X148940000Y-136340000D02*
X149360000Y-136340000D01*
X148940000Y-138320000D02*
X148940000Y-136340000D01*
X148940000Y-140690000D02*
X148940000Y-140290000D01*
X150940000Y-136110000D02*
X150940000Y-135660000D01*
X151390000Y-135660000D02*
X150940000Y-135660000D01*
X156460000Y-136340000D02*
X156040000Y-136340000D01*
X156460000Y-138320000D02*
X156460000Y-136340000D01*
X156460000Y-140290000D02*
X156460000Y-140690000D01*
%TO.C,C2*%
X139840000Y-105012164D02*
X139840000Y-105227836D01*
X140560000Y-105012164D02*
X140560000Y-105227836D01*
%TO.C,D5*%
X152490000Y-105162500D02*
X152490000Y-107847500D01*
X152490000Y-107847500D02*
X154410000Y-107847500D01*
X154410000Y-107847500D02*
X154410000Y-105162500D01*
%TO.C,R19*%
X140746996Y-120271116D02*
X141054278Y-120271116D01*
X140746996Y-121031116D02*
X141054278Y-121031116D01*
D12*
%TO.C,D3*%
X141055000Y-132610000D02*
X141055000Y-131410000D01*
X142095000Y-131410000D02*
X142095000Y-132610000D01*
D13*
X141675000Y-133510000D02*
G75*
G02*
X141475000Y-133510000I-100000J0D01*
G01*
X141475000Y-133510000D02*
G75*
G02*
X141675000Y-133510000I100000J0D01*
G01*
D12*
%TO.C,D2*%
X139680000Y-132610000D02*
X139680000Y-131410000D01*
X140720000Y-131410000D02*
X140720000Y-132610000D01*
D13*
X140300000Y-133510000D02*
G75*
G02*
X140100000Y-133510000I-100000J0D01*
G01*
X140100000Y-133510000D02*
G75*
G02*
X140300000Y-133510000I100000J0D01*
G01*
D11*
%TO.C,C7*%
X141069587Y-106336563D02*
X141350747Y-106336563D01*
X141069587Y-107356563D02*
X141350747Y-107356563D01*
%TO.C,C10*%
X141059420Y-102840000D02*
X141340580Y-102840000D01*
X141059420Y-103860000D02*
X141340580Y-103860000D01*
%TO.C,R8*%
X147703025Y-113970000D02*
X148010307Y-113970000D01*
X147703025Y-114730000D02*
X148010307Y-114730000D01*
%TO.C,R10*%
X150119691Y-113970000D02*
X150426973Y-113970000D01*
X150119691Y-114730000D02*
X150426973Y-114730000D01*
%TO.C,R17*%
X142343641Y-113970000D02*
X142036359Y-113970000D01*
X142343641Y-114730000D02*
X142036359Y-114730000D01*
%TO.C,U4*%
X137316938Y-71400000D02*
X137316938Y-77600000D01*
X137316938Y-71400000D02*
X155716938Y-71400000D01*
X137316938Y-96250000D02*
X137316938Y-97250000D01*
X137316938Y-97250000D02*
X138816938Y-97250000D01*
X155716938Y-71400000D02*
X155716938Y-77600000D01*
X155716938Y-97250000D02*
X154216938Y-97250000D01*
X155716938Y-97250000D02*
X155716938Y-96250000D01*
X137316938Y-78275000D02*
X136816938Y-78275000D01*
X137316938Y-77775000D01*
X137316938Y-78275000D01*
G36*
X137316938Y-78275000D02*
G01*
X136816938Y-78275000D01*
X137316938Y-77775000D01*
X137316938Y-78275000D01*
G37*
%TO.C,R11*%
X153070000Y-102243641D02*
X153070000Y-101936359D01*
X153830000Y-102243641D02*
X153830000Y-101936359D01*
D12*
%TO.C,SW2*%
X149300000Y-126275000D02*
X149300000Y-127275000D01*
X150150000Y-125175000D02*
X152650000Y-125175000D01*
X150150000Y-128375000D02*
X152650000Y-128375000D01*
X153500000Y-126275000D02*
X153500000Y-127275000D01*
X148611803Y-125625000D02*
G75*
G02*
X148388197Y-125625000I-111803J0D01*
G01*
X148388197Y-125625000D02*
G75*
G02*
X148611803Y-125625000I111803J0D01*
G01*
X148600000Y-125625000D02*
G75*
G02*
X148500000Y-125625000I-50000J0D01*
G01*
X148500000Y-125625000D02*
G75*
G02*
X148600000Y-125625000I50000J0D01*
G01*
D11*
%TO.C,R9*%
X152553634Y-120220000D02*
X152860916Y-120220000D01*
X152553634Y-120980000D02*
X152860916Y-120980000D01*
%TO.C,C9*%
X140840000Y-105012164D02*
X140840000Y-105227836D01*
X141560000Y-105012164D02*
X141560000Y-105227836D01*
D12*
%TO.C,D10*%
X152180000Y-132610000D02*
X152180000Y-131410000D01*
X153220000Y-131410000D02*
X153220000Y-132610000D01*
D13*
X152800000Y-133510000D02*
G75*
G02*
X152600000Y-133510000I-100000J0D01*
G01*
X152600000Y-133510000D02*
G75*
G02*
X152800000Y-133510000I100000J0D01*
G01*
%TD*%
%LPC*%
D14*
%TO.C,C8*%
X142200000Y-104640000D03*
X142200000Y-105600000D03*
%TD*%
D15*
%TO.C,Q2*%
X145300000Y-112225000D03*
X147200000Y-112225000D03*
X146250000Y-110350000D03*
%TD*%
D16*
%TO.C,J1*%
X135089318Y-79497752D03*
X135089318Y-82037752D03*
X135089318Y-84577752D03*
X135089318Y-87117752D03*
X135089318Y-89657752D03*
X135089318Y-92197752D03*
X135089318Y-94737752D03*
X135089318Y-97277752D03*
X135089318Y-99817752D03*
X135089318Y-102357752D03*
X135089318Y-104897752D03*
X135089318Y-107437752D03*
X135089318Y-109977752D03*
X135089318Y-112517752D03*
X135089318Y-115057752D03*
X135089318Y-117597752D03*
X135089318Y-120137752D03*
X135089318Y-122677752D03*
X135089318Y-125217752D03*
X135089318Y-127757752D03*
X135089318Y-130297752D03*
X135089318Y-132837752D03*
%TD*%
D17*
%TO.C,D4*%
X142950000Y-132670000D03*
X142950000Y-131350000D03*
%TD*%
D18*
%TO.C,U3*%
X149115353Y-117900000D03*
X148615353Y-117900000D03*
X148115353Y-117900000D03*
X147615353Y-117900000D03*
X147115353Y-117900000D03*
X146615353Y-117900000D03*
X146115353Y-117900000D03*
D19*
X145165353Y-118850000D03*
X145165353Y-119350000D03*
X145165353Y-119850000D03*
X145165353Y-120350000D03*
X145165353Y-120850000D03*
X145165353Y-121350000D03*
X145165353Y-121850000D03*
D18*
X146115353Y-122800000D03*
X146615353Y-122800000D03*
X147115353Y-122800000D03*
X147615353Y-122800000D03*
X148115353Y-122800000D03*
X148615353Y-122800000D03*
X149115353Y-122800000D03*
D19*
X150065353Y-121850000D03*
X150065353Y-121350000D03*
X150065353Y-120850000D03*
X150065353Y-120350000D03*
X150065353Y-119850000D03*
X150065353Y-119350000D03*
X150065353Y-118850000D03*
D20*
X147615353Y-120350000D03*
%TD*%
D21*
%TO.C,U2*%
X144300000Y-102050000D03*
X144300000Y-104350000D03*
D22*
X150600000Y-104350000D03*
D21*
X144300000Y-106650000D03*
%TD*%
D23*
%TO.C,C12*%
X142440615Y-120615490D03*
X142440615Y-119655490D03*
%TD*%
D24*
%TO.C,R12*%
X152180000Y-114350000D03*
X153200000Y-114350000D03*
%TD*%
D25*
%TO.C,C15*%
X145695000Y-125850000D03*
X147245000Y-125850000D03*
%TD*%
D16*
%TO.C,J3*%
X157930000Y-79510000D03*
X157930000Y-82050000D03*
X157930000Y-84590000D03*
X157930000Y-87130000D03*
X157930000Y-89670000D03*
X157930000Y-92210000D03*
X157930000Y-94750000D03*
X157930000Y-97290000D03*
X157930000Y-99830000D03*
X157930000Y-102370000D03*
X157930000Y-104910000D03*
X157930000Y-107450000D03*
X157930000Y-109990000D03*
X157930000Y-112530000D03*
X157930000Y-115070000D03*
X157930000Y-117610000D03*
X157930000Y-120150000D03*
X157930000Y-122690000D03*
X157930000Y-125230000D03*
X157930000Y-127770000D03*
X157930000Y-130310000D03*
X157930000Y-132850000D03*
%TD*%
D26*
%TO.C,C13*%
X139691932Y-129030993D03*
X140651932Y-129030993D03*
%TD*%
D27*
%TO.C,SW1*%
X143475000Y-127725000D03*
X139325000Y-127725000D03*
X143475000Y-125575000D03*
X139325000Y-125575000D03*
%TD*%
D28*
%TO.C,C1*%
X140450000Y-100350000D03*
X140450000Y-101900000D03*
%TD*%
D24*
%TO.C,R5*%
X143930000Y-100100000D03*
X144950000Y-100100000D03*
%TD*%
D29*
%TO.C,D6*%
X140400000Y-112223311D03*
X141700000Y-112223311D03*
X141700000Y-110223311D03*
X140400000Y-110223311D03*
%TD*%
D26*
%TO.C,C14*%
X152121812Y-129149624D03*
X153081812Y-129149624D03*
%TD*%
D25*
%TO.C,C3*%
X145695000Y-127350000D03*
X147245000Y-127350000D03*
%TD*%
D24*
%TO.C,R16*%
X140395786Y-121888701D03*
X141415786Y-121888701D03*
%TD*%
D30*
%TO.C,D7*%
X147700000Y-131100000D03*
X147700000Y-134460000D03*
%TD*%
%TO.C,D1*%
X145200000Y-131100000D03*
X145200000Y-134460000D03*
%TD*%
D24*
%TO.C,R13*%
X144930000Y-114350000D03*
X145950000Y-114350000D03*
%TD*%
D25*
%TO.C,C11*%
X140565353Y-118100000D03*
X142115353Y-118100000D03*
%TD*%
D17*
%TO.C,D9*%
X151325000Y-132670000D03*
X151325000Y-131350000D03*
%TD*%
D31*
%TO.C,J2*%
X138850000Y-136600000D03*
X139500000Y-136600000D03*
X140150000Y-136600000D03*
X140800000Y-136600000D03*
X141450000Y-136600000D03*
D32*
X136650000Y-139300000D03*
D33*
X137250000Y-139300000D03*
D34*
X137650000Y-136600000D03*
D35*
X139150000Y-139300000D03*
X141150000Y-139300000D03*
D34*
X142650000Y-136600000D03*
D33*
X143050000Y-139300000D03*
D32*
X143650000Y-139300000D03*
%TD*%
D17*
%TO.C,D8*%
X149950000Y-132670000D03*
X149950000Y-131350000D03*
%TD*%
D26*
%TO.C,C6*%
X145950000Y-100100000D03*
X146910000Y-100100000D03*
%TD*%
D15*
%TO.C,Q1*%
X151000000Y-112225000D03*
X152900000Y-112225000D03*
X151950000Y-110350000D03*
%TD*%
D24*
%TO.C,R18*%
X140393754Y-119651116D03*
X141413754Y-119651116D03*
%TD*%
%TO.C,R7*%
X152197275Y-119298884D03*
X153217275Y-119298884D03*
%TD*%
D36*
%TO.C,R14*%
X141415786Y-122888701D03*
X140395786Y-122888701D03*
%TD*%
D37*
%TO.C,R24*%
X141946456Y-100284979D03*
X141946456Y-101934979D03*
%TD*%
D31*
%TO.C,J4*%
X151400000Y-136600000D03*
X152050000Y-136600000D03*
X152700000Y-136600000D03*
X153350000Y-136600000D03*
X154000000Y-136600000D03*
D32*
X149200000Y-139300000D03*
D33*
X149800000Y-139300000D03*
D34*
X150200000Y-136600000D03*
D35*
X151700000Y-139300000D03*
X153700000Y-139300000D03*
D34*
X155200000Y-136600000D03*
D33*
X155600000Y-139300000D03*
D32*
X156200000Y-139300000D03*
%TD*%
D14*
%TO.C,C2*%
X140200000Y-104640000D03*
X140200000Y-105600000D03*
%TD*%
D38*
%TO.C,D5*%
X153450000Y-107100000D03*
X153450000Y-105225000D03*
%TD*%
D24*
%TO.C,R19*%
X140390637Y-120651116D03*
X141410637Y-120651116D03*
%TD*%
D17*
%TO.C,D3*%
X141575000Y-132670000D03*
X141575000Y-131350000D03*
%TD*%
%TO.C,D2*%
X140200000Y-132670000D03*
X140200000Y-131350000D03*
%TD*%
D25*
%TO.C,C7*%
X140435167Y-106846563D03*
X141985167Y-106846563D03*
%TD*%
%TO.C,C10*%
X140425000Y-103350000D03*
X141975000Y-103350000D03*
%TD*%
D24*
%TO.C,R8*%
X147346666Y-114350000D03*
X148366666Y-114350000D03*
%TD*%
%TO.C,R10*%
X149763332Y-114350000D03*
X150783332Y-114350000D03*
%TD*%
D36*
%TO.C,R17*%
X142700000Y-114350000D03*
X141680000Y-114350000D03*
%TD*%
D39*
%TO.C,U4*%
X137766938Y-79040000D03*
X137766938Y-80310000D03*
X137766938Y-81580000D03*
X137766938Y-82850000D03*
X137766938Y-84120000D03*
X137766938Y-85390000D03*
X137766938Y-86660000D03*
X137766938Y-87930000D03*
X137766938Y-89200000D03*
X137766938Y-90470000D03*
X137766938Y-91740000D03*
X137766938Y-93010000D03*
X137766938Y-94280000D03*
X137766938Y-95550000D03*
D40*
X139531938Y-96800000D03*
X140801938Y-96800000D03*
X142071938Y-96800000D03*
X143341938Y-96800000D03*
X144611938Y-96800000D03*
X145881938Y-96800000D03*
X147151938Y-96800000D03*
X148421938Y-96800000D03*
X149691938Y-96800000D03*
X150961938Y-96800000D03*
X152231938Y-96800000D03*
X153501938Y-96800000D03*
D39*
X155266938Y-95550000D03*
X155266938Y-94280000D03*
X155266938Y-93010000D03*
X155266938Y-91740000D03*
X155266938Y-90470000D03*
X155266938Y-89200000D03*
X155266938Y-87930000D03*
X155266938Y-86660000D03*
X155266938Y-85390000D03*
X155266938Y-84120000D03*
X155266938Y-82850000D03*
X155266938Y-81580000D03*
X155266938Y-80310000D03*
X155266938Y-79040000D03*
D41*
X143616938Y-86060000D03*
X143616938Y-87460000D03*
X144316938Y-85360000D03*
X144316938Y-86760000D03*
X144316938Y-88160000D03*
X145016938Y-86060000D03*
D42*
X145016938Y-86760000D03*
D41*
X145016938Y-87460000D03*
X145716938Y-85360000D03*
X145716938Y-86760000D03*
X145716938Y-88160000D03*
X146416938Y-86060000D03*
X146416938Y-87460000D03*
%TD*%
D43*
%TO.C,R11*%
X153450000Y-102600000D03*
X153450000Y-101580000D03*
%TD*%
D44*
%TO.C,SW2*%
X149325000Y-125700000D03*
X153475000Y-125700000D03*
X149325000Y-127850000D03*
X153475000Y-127850000D03*
%TD*%
D24*
%TO.C,R9*%
X152197275Y-120600000D03*
X153217275Y-120600000D03*
%TD*%
D14*
%TO.C,C9*%
X141200000Y-104640000D03*
X141200000Y-105600000D03*
%TD*%
D17*
%TO.C,D10*%
X152700000Y-132670000D03*
X152700000Y-131350000D03*
%TD*%
%LPD*%
M02*
