M48
; DRILL file {KiCad 8.0.4} date 2024-10-28T15:10:58-0700
; FORMAT={-:-/ absolute / metric / decimal}
; #@! TF.CreationDate,2024-10-28T15:10:58-07:00
; #@! TF.GenerationSoftware,Kicad,Pcbnew,8.0.4
; #@! TF.FileFunction,Plated,1,4,PTH
FMAT,2
METRIC
; #@! TA.AperFunction,Plated,PTH,ViaDrill
T1C0.200
; #@! TA.AperFunction,Plated,PTH,ComponentDrill
T2C0.200
; #@! TA.AperFunction,Plated,PTH,ViaDrill
T3C0.300
; #@! TA.AperFunction,Plated,PTH,ComponentDrill
T4C0.500
; #@! TA.AperFunction,Plated,PTH,ComponentDrill
T5C0.550
; #@! TA.AperFunction,Plated,PTH,ComponentDrill
T6C1.000
%
G90
G05
T1
X138.492Y-97.633
X138.802Y-81.577
X138.802Y-82.845
X138.802Y-84.144
X138.802Y-85.397
X138.802Y-86.663
X138.802Y-87.927
X138.802Y-89.202
X138.802Y-90.48
X138.802Y-91.724
X138.802Y-93.044
X139.547Y-97.958
X140.471Y-95.34
X140.612Y-97.945
X140.939Y-125.616
X141.133Y-133.346
X142.057Y-98.035
X142.485Y-133.353
X143.148Y-105.487
X143.348Y-97.976
X143.959Y-95.366
X144.627Y-97.962
X144.931Y-113.673
X145.274Y-100.685
X145.544Y-110.352
X145.887Y-97.972
X145.917Y-112.817
X146.451Y-115.097
X146.895Y-100.761
X147.105Y-116.922
X147.147Y-97.964
X147.342Y-113.709
X147.615Y-117.238
X147.867Y-110.6
X147.98Y-116.091
X148.367Y-113.66
X148.403Y-97.926
X148.777Y-95.412
X148.854Y-115.02
X149.2Y-111.1
X149.403Y-112.371
X150.822Y-116.47
X150.991Y-120.85
X151.564Y-92.964
X151.569Y-115.045
X151.835Y-112.424
X152.04Y-133.412
X152.387Y-94.6
X152.45Y-127.85
X152.709Y-115.126
X152.749Y-95.475
X153.136Y-100.418
X153.419Y-84.12
X153.567Y-98.284
X153.745Y-99.461
X153.811Y-100.386
X153.85Y-94.282
X153.909Y-119.292
X154.004Y-120.593
X154.171Y-97.156
X154.182Y-81.58
X154.2Y-85.39
X154.204Y-82.85
X154.218Y-93.01
X154.229Y-86.657
X154.271Y-89.205
X154.273Y-87.931
X154.28Y-91.74
X154.287Y-90.47
X156.227Y-80.596
T2
X143.617Y-86.06
X143.617Y-87.46
X144.317Y-85.36
X144.317Y-86.76
X144.317Y-88.16
X145.017Y-86.06
X145.017Y-87.46
X145.717Y-85.36
X145.717Y-86.76
X145.717Y-88.16
X146.417Y-86.06
X146.417Y-87.46
T3
X138.457Y-121.923
X139.323Y-102.229
X139.337Y-80.305
X139.551Y-106.249
X139.551Y-110.241
X139.691Y-121.889
X140.2Y-130.6
X140.339Y-123.584
X140.394Y-118.942
X140.433Y-107.867
X140.664Y-129.875
X140.803Y-99.165
X141.569Y-130.595
X142.703Y-112.223
X142.933Y-130.609
X142.972Y-121.266
X143.14Y-107.813
X143.2Y-118.1
X143.3Y-103.36
X143.952Y-134.455
X144.745Y-126.652
X145.183Y-129.937
X145.592Y-101.417
X147.451Y-128.314
X147.615Y-120.35
X147.674Y-124.798
X148.436Y-126.62
X148.973Y-134.419
X149.953Y-130.542
X151.317Y-130.521
X152.1Y-104.23
X152.118Y-107.157
X152.7Y-130.526
T6
X135.089Y-79.498
X135.089Y-82.038
X135.089Y-84.578
X135.089Y-87.118
X135.089Y-89.658
X135.089Y-92.198
X135.089Y-94.738
X135.089Y-97.278
X135.089Y-99.818
X135.089Y-102.358
X135.089Y-104.898
X135.089Y-107.438
X135.089Y-109.978
X135.089Y-112.518
X135.089Y-115.058
X135.089Y-117.598
X135.089Y-120.138
X135.089Y-122.678
X135.089Y-125.218
X135.089Y-127.758
X135.089Y-130.298
X135.089Y-132.838
X157.93Y-79.51
X157.93Y-82.05
X157.93Y-84.59
X157.93Y-87.13
X157.93Y-89.67
X157.93Y-92.21
X157.93Y-94.75
X157.93Y-97.29
X157.93Y-99.83
X157.93Y-102.37
X157.93Y-104.91
X157.93Y-107.45
X157.93Y-109.99
X157.93Y-112.53
X157.93Y-115.07
X157.93Y-117.61
X157.93Y-120.15
X157.93Y-122.69
X157.93Y-125.23
X157.93Y-127.77
X157.93Y-130.31
X157.93Y-132.85
T4
G00X136.65Y-138.975
M15
G01X136.65Y-139.625
M16
G05
G00X143.65Y-138.975
M15
G01X143.65Y-139.625
M16
G05
G00X149.2Y-138.975
M15
G01X149.2Y-139.625
M16
G05
G00X156.2Y-138.975
M15
G01X156.2Y-139.625
M16
G05
T5
G00X137.5Y-136.6
M15
G01X137.8Y-136.6
M16
G05
G00X142.5Y-136.6
M15
G01X142.8Y-136.6
M16
G05
G00X150.05Y-136.6
M15
G01X150.35Y-136.6
M16
G05
G00X155.05Y-136.6
M15
G01X155.35Y-136.6
M16
G05
M30
