%TF.GenerationSoftware,KiCad,Pcbnew,8.0.4*%
%TF.CreationDate,2024-10-28T15:11:12-07:00*%
%TF.ProjectId,ESP32-S3-DEVKITC-1,45535033-322d-4533-932d-4445564b4954,rev0*%
%TF.SameCoordinates,Original*%
%TF.FileFunction,Copper,L3,Inr*%
%TF.FilePolarity,Positive*%
%FSLAX46Y46*%
G04 Gerber Fmt 4.6, Leading zero omitted, Abs format (unit mm)*
G04 Created by KiCad (PCBNEW 8.0.4) date 2024-10-28 15:11:12*
%MOMM*%
%LPD*%
G01*
G04 APERTURE LIST*
%TA.AperFunction,ComponentPad*%
%ADD10O,2.600000X1.700000*%
%TD*%
%TA.AperFunction,ComponentPad*%
%ADD11O,0.890000X1.550000*%
%TD*%
%TA.AperFunction,ComponentPad*%
%ADD12O,1.250000X0.950000*%
%TD*%
%TA.AperFunction,HeatsinkPad*%
%ADD13C,0.600000*%
%TD*%
%TA.AperFunction,ViaPad*%
%ADD14C,0.600000*%
%TD*%
%TA.AperFunction,ViaPad*%
%ADD15C,0.400000*%
%TD*%
%TA.AperFunction,Conductor*%
%ADD16C,0.400000*%
%TD*%
G04 APERTURE END LIST*
D10*
%TO.N,ESP_3V3*%
%TO.C,J1*%
X135089318Y-79497752D03*
X135089318Y-82037752D03*
%TO.N,CHIP_PU*%
X135089318Y-84577752D03*
%TO.N,GPIO4*%
X135089318Y-87117752D03*
%TO.N,GPIO5*%
X135089318Y-89657752D03*
%TO.N,GPIO6*%
X135089318Y-92197752D03*
%TO.N,GPIO7*%
X135089318Y-94737752D03*
%TO.N,GPIO15*%
X135089318Y-97277752D03*
%TO.N,GPIO16*%
X135089318Y-99817752D03*
%TO.N,GPIO17*%
X135089318Y-102357752D03*
%TO.N,GPIO18*%
X135089318Y-104897752D03*
%TO.N,GPIO8*%
X135089318Y-107437752D03*
%TO.N,GPIO3*%
X135089318Y-109977752D03*
%TO.N,GPIO46*%
X135089318Y-112517752D03*
%TO.N,GPIO9*%
X135089318Y-115057752D03*
%TO.N,GPIO10*%
X135089318Y-117597752D03*
%TO.N,GPIO11*%
X135089318Y-120137752D03*
%TO.N,GPIO12*%
X135089318Y-122677752D03*
%TO.N,GPIO13*%
X135089318Y-125217752D03*
%TO.N,GPIO14*%
X135089318Y-127757752D03*
%TO.N,VCC_5V*%
X135089318Y-130297752D03*
%TO.N,GND*%
X135089318Y-132837752D03*
%TD*%
%TO.N,GND*%
%TO.C,J3*%
X157930000Y-79510000D03*
%TO.N,U0TXD*%
X157930000Y-82050000D03*
%TO.N,U0RXD*%
X157930000Y-84590000D03*
%TO.N,GPIO1*%
X157930000Y-87130000D03*
%TO.N,GPIO2*%
X157930000Y-89670000D03*
%TO.N,GPIO42*%
X157930000Y-92210000D03*
%TO.N,GPIO41*%
X157930000Y-94750000D03*
%TO.N,GPIO40*%
X157930000Y-97290000D03*
%TO.N,GPIO39*%
X157930000Y-99830000D03*
%TO.N,GPIO38*%
X157930000Y-102370000D03*
%TO.N,GPIO37*%
X157930000Y-104910000D03*
%TO.N,GPIO36*%
X157930000Y-107450000D03*
%TO.N,GPIO35*%
X157930000Y-109990000D03*
%TO.N,GPIO0*%
X157930000Y-112530000D03*
%TO.N,GPIO45*%
X157930000Y-115070000D03*
%TO.N,GPIO48*%
X157930000Y-117610000D03*
%TO.N,GPIO47*%
X157930000Y-120150000D03*
%TO.N,GPIO21*%
X157930000Y-122690000D03*
%TO.N,GPIO20*%
X157930000Y-125230000D03*
%TO.N,GPIO19*%
X157930000Y-127770000D03*
%TO.N,GND*%
X157930000Y-130310000D03*
X157930000Y-132850000D03*
%TD*%
D11*
%TO.N,GND*%
%TO.C,J2*%
X136650000Y-139300000D03*
D12*
X137650000Y-136600000D03*
X142650000Y-136600000D03*
D11*
X143650000Y-139300000D03*
%TD*%
%TO.N,GND*%
%TO.C,J4*%
X149200000Y-139300000D03*
D12*
X150200000Y-136600000D03*
X155200000Y-136600000D03*
D11*
X156200000Y-139300000D03*
%TD*%
D13*
%TO.N,GND*%
%TO.C,U4*%
X143616938Y-86060000D03*
X143616938Y-87460000D03*
X144316938Y-85360000D03*
X144316938Y-86760000D03*
X144316938Y-88160000D03*
X145016938Y-86060000D03*
X145016938Y-87460000D03*
X145716938Y-85360000D03*
X145716938Y-86760000D03*
X145716938Y-88160000D03*
X146416938Y-86060000D03*
X146416938Y-87460000D03*
%TD*%
D14*
%TO.N,VCC_3V3*%
X139691387Y-121888701D03*
X139551430Y-106248570D03*
X139551430Y-110241495D03*
X152099994Y-104230092D03*
X143200000Y-118100000D03*
X143300000Y-103359636D03*
%TO.N,GND*%
X141568551Y-130595448D03*
X144745024Y-126651657D03*
X140664454Y-129875356D03*
X142933142Y-130609232D03*
X140339178Y-123584204D03*
X152700000Y-130525676D03*
X142702844Y-112223310D03*
X140200000Y-130600000D03*
X148435543Y-126620378D03*
D15*
X149402750Y-112370563D03*
X140470563Y-95339972D03*
D14*
X140432543Y-107867456D03*
X151317216Y-130521082D03*
X140393754Y-118942355D03*
X152118017Y-107156872D03*
D15*
X150822365Y-116469986D03*
X143959092Y-95365804D03*
X151834773Y-112424098D03*
D14*
X147615354Y-120350000D03*
D15*
X153566758Y-98283887D03*
D14*
X142971747Y-121265640D03*
X139322549Y-102229383D03*
X145592495Y-101416824D03*
D15*
X148777251Y-95411691D03*
D14*
X149952625Y-130541758D03*
D15*
X147980205Y-116090602D03*
X143148336Y-105487492D03*
%TO.N,U0RXD*%
X153909320Y-119291942D03*
X153419431Y-84120000D03*
%TO.N,U0TXD*%
X154204266Y-82850000D03*
X154003791Y-120592733D03*
D14*
%TO.N,VBUS*%
X138457344Y-121922592D03*
X145182943Y-129936970D03*
D15*
%TO.N,USB_DP*%
X142484738Y-133352826D03*
X147615353Y-117238265D03*
%TO.N,USB_DN*%
X147105443Y-116922046D03*
X141133175Y-133345656D03*
%TO.N,RTS*%
X151569194Y-115045497D03*
X150990679Y-120850000D03*
%TO.N,GPIO11*%
X144627330Y-97961927D03*
%TO.N,GPIO14*%
X148403475Y-97925592D03*
%TO.N,GPIO17*%
X138802371Y-90480094D03*
%TO.N,GPIO3*%
X138491578Y-97632930D03*
D14*
%TO.N,ESP_3V3*%
X139336607Y-80304643D03*
X140803160Y-99165402D03*
D15*
%TO.N,GPIO4*%
X138802371Y-82845260D03*
%TO.N,GPIO12*%
X145887440Y-97971561D03*
%TO.N,GPIO5*%
X138802371Y-84143601D03*
%TO.N,GPIO16*%
X138802371Y-89201737D03*
D14*
%TO.N,VCC_5V*%
X148973300Y-134418648D03*
X143951892Y-134455270D03*
X147451214Y-128314326D03*
X147673776Y-124797630D03*
X143139808Y-107812559D03*
D15*
%TO.N,GPIO15*%
X138802371Y-87927014D03*
%TO.N,GPIO9*%
X142056532Y-98034597D03*
%TO.N,GPIO13*%
X147146708Y-97964349D03*
%TO.N,GPIO8*%
X138802371Y-93044075D03*
%TO.N,GPIO7*%
X138802371Y-86662558D03*
%TO.N,GPIO6*%
X138802371Y-85397157D03*
%TO.N,GPIO46*%
X140612245Y-97944741D03*
%TO.N,GPIO18*%
X138802371Y-91723538D03*
%TO.N,CHIP_PU*%
X145273864Y-100684945D03*
X146894786Y-100761081D03*
X138802371Y-81576776D03*
X148854028Y-115020254D03*
X139547393Y-97958293D03*
X148366666Y-113660289D03*
X152450000Y-127850000D03*
%TO.N,GPIO10*%
X143347872Y-97976461D03*
%TO.N,GPIO45*%
X154170932Y-97156291D03*
%TO.N,GPIO0*%
X151563603Y-92963603D03*
X149200000Y-111100000D03*
X140939178Y-125615649D03*
X146450711Y-115097155D03*
%TO.N,GPIO39*%
X154271246Y-89204738D03*
%TO.N,GPIO35*%
X153849762Y-94281518D03*
%TO.N,GPIO42*%
X154200000Y-85390000D03*
%TO.N,GPIO20*%
X152749052Y-95475350D03*
%TO.N,GPIO36*%
X154218009Y-93010000D03*
%TO.N,GPIO47*%
X153811373Y-100386257D03*
%TO.N,GPIO21*%
X153136374Y-100418365D03*
%TO.N,GPIO41*%
X154229067Y-86657291D03*
%TO.N,GPIO1*%
X156227489Y-80595676D03*
%TO.N,GPIO38*%
X154287203Y-90470000D03*
%TO.N,GPIO37*%
X154279936Y-91740000D03*
%TO.N,GPIO40*%
X154272669Y-87931437D03*
%TO.N,GPIO48*%
X153744730Y-99461073D03*
%TO.N,GPIO2*%
X154181988Y-81580000D03*
%TO.N,GPIO19*%
X152386896Y-94600174D03*
X152040126Y-133412480D03*
%TO.N,Net-(Q1-C)*%
X147866666Y-110600000D03*
X147342495Y-113709004D03*
%TO.N,Net-(Q2-B)*%
X145916825Y-112816826D03*
X152709478Y-115125828D03*
%TO.N,Net-(Q2-C)*%
X145543970Y-110351656D03*
X144931121Y-113672669D03*
%TD*%
D16*
%TO.N,VCC_3V3*%
X140551430Y-106248570D02*
X143300000Y-103500000D01*
X139691387Y-121888701D02*
X139968073Y-121888701D01*
X139551430Y-110241495D02*
X139551430Y-114451430D01*
X151229538Y-103359636D02*
X143300000Y-103359636D01*
X152099994Y-104230092D02*
X151229538Y-103359636D01*
X143300000Y-103500000D02*
X143300000Y-103359636D01*
X139551430Y-106248570D02*
X140551430Y-106248570D01*
X139968073Y-121888701D02*
X143200000Y-118656774D01*
X143200000Y-118656774D02*
X143200000Y-118100000D01*
X139551430Y-114451430D02*
X143200000Y-118100000D01*
%TO.N,VBUS*%
X144226427Y-129936970D02*
X145182943Y-129936970D01*
X138457344Y-121922592D02*
X138457344Y-125050827D01*
X138457344Y-125050827D02*
X141621090Y-128214573D01*
X141621090Y-128214573D02*
X142504030Y-128214573D01*
X142504030Y-128214573D02*
X144226427Y-129936970D01*
%TO.N,ESP_3V3*%
X139336607Y-80304643D02*
X141456532Y-82424568D01*
X141456532Y-98512030D02*
X140803160Y-99165402D01*
X141456532Y-82424568D02*
X141456532Y-98512030D01*
%TO.N,VCC_5V*%
X143900000Y-108572751D02*
X143900000Y-121023854D01*
X135397752Y-130297752D02*
X135089318Y-130297752D01*
X143139808Y-107812559D02*
X143900000Y-108572751D01*
X143951892Y-134455270D02*
X139555270Y-134455270D01*
X143900000Y-121023854D02*
X147673776Y-124797630D01*
X147451214Y-128314326D02*
X147451214Y-128351214D01*
X148973300Y-129873300D02*
X148973300Y-134418648D01*
X147451214Y-128351214D02*
X148973300Y-129873300D01*
X139555270Y-134455270D02*
X135397752Y-130297752D01*
X148973300Y-134418648D02*
X143988514Y-134418648D01*
X143988514Y-134418648D02*
X143951892Y-134455270D01*
%TD*%
%TA.AperFunction,Conductor*%
%TO.N,ESP_3V3*%
G36*
X159054610Y-71619685D02*
G01*
X159070983Y-71632248D01*
X159115942Y-71673120D01*
X159136846Y-71697833D01*
X159180316Y-71765475D01*
X159200000Y-71832514D01*
X159200000Y-78209760D01*
X159180315Y-78276799D01*
X159127511Y-78322554D01*
X159058353Y-78332498D01*
X159019705Y-78320245D01*
X158898414Y-78258444D01*
X158898413Y-78258443D01*
X158898412Y-78258443D01*
X158696243Y-78192754D01*
X158696241Y-78192753D01*
X158696240Y-78192753D01*
X158534957Y-78167208D01*
X158486287Y-78159500D01*
X157373713Y-78159500D01*
X157325042Y-78167208D01*
X157163760Y-78192753D01*
X157163757Y-78192754D01*
X156997865Y-78246656D01*
X156961585Y-78258444D01*
X156772179Y-78354951D01*
X156600213Y-78479890D01*
X156449890Y-78630213D01*
X156324951Y-78802179D01*
X156228444Y-78991585D01*
X156228443Y-78991587D01*
X156228443Y-78991588D01*
X156195598Y-79092672D01*
X156162753Y-79193760D01*
X156129500Y-79403713D01*
X156129500Y-79616286D01*
X156154675Y-79775235D01*
X156145720Y-79844529D01*
X156100724Y-79897981D01*
X156061878Y-79915030D01*
X155977261Y-79935886D01*
X155826639Y-80014939D01*
X155699305Y-80127748D01*
X155602671Y-80267744D01*
X155542349Y-80426801D01*
X155542348Y-80426806D01*
X155521844Y-80595676D01*
X155542348Y-80764545D01*
X155542349Y-80764550D01*
X155602671Y-80923607D01*
X155652668Y-80996039D01*
X155699306Y-81063605D01*
X155804994Y-81157236D01*
X155826639Y-81176412D01*
X155977262Y-81255465D01*
X155977264Y-81255466D01*
X156142433Y-81296176D01*
X156146042Y-81296176D01*
X156148586Y-81296923D01*
X156149878Y-81297080D01*
X156149851Y-81297294D01*
X156213081Y-81315861D01*
X156258836Y-81368665D01*
X156268780Y-81437823D01*
X156256526Y-81476472D01*
X156228444Y-81531583D01*
X156162753Y-81733760D01*
X156129500Y-81943713D01*
X156129500Y-82156286D01*
X156160795Y-82353878D01*
X156162754Y-82366243D01*
X156211845Y-82517330D01*
X156228444Y-82568414D01*
X156324951Y-82757820D01*
X156449890Y-82929786D01*
X156600213Y-83080109D01*
X156772182Y-83205050D01*
X156780946Y-83209516D01*
X156831742Y-83257491D01*
X156848536Y-83325312D01*
X156825998Y-83391447D01*
X156780946Y-83430484D01*
X156772182Y-83434949D01*
X156600213Y-83559890D01*
X156449890Y-83710213D01*
X156324951Y-83882179D01*
X156228444Y-84071585D01*
X156162753Y-84273760D01*
X156129500Y-84483713D01*
X156129500Y-84696286D01*
X156160654Y-84892989D01*
X156162754Y-84906243D01*
X156224463Y-85096164D01*
X156228444Y-85108414D01*
X156324951Y-85297820D01*
X156449890Y-85469786D01*
X156600213Y-85620109D01*
X156772182Y-85745050D01*
X156780946Y-85749516D01*
X156831742Y-85797491D01*
X156848536Y-85865312D01*
X156825998Y-85931447D01*
X156780946Y-85970484D01*
X156772182Y-85974949D01*
X156600213Y-86099890D01*
X156449890Y-86250213D01*
X156324951Y-86422179D01*
X156228444Y-86611585D01*
X156162753Y-86813760D01*
X156135596Y-86985222D01*
X156129500Y-87023713D01*
X156129500Y-87236287D01*
X156162754Y-87446243D01*
X156225467Y-87639254D01*
X156228444Y-87648414D01*
X156324951Y-87837820D01*
X156449890Y-88009786D01*
X156600213Y-88160109D01*
X156772182Y-88285050D01*
X156780946Y-88289516D01*
X156831742Y-88337491D01*
X156848536Y-88405312D01*
X156825998Y-88471447D01*
X156780946Y-88510484D01*
X156772182Y-88514949D01*
X156600213Y-88639890D01*
X156449890Y-88790213D01*
X156324951Y-88962179D01*
X156228444Y-89151585D01*
X156162753Y-89353760D01*
X156159609Y-89373612D01*
X156129500Y-89563713D01*
X156129500Y-89776287D01*
X156130955Y-89785472D01*
X156154994Y-89937252D01*
X156162754Y-89986243D01*
X156224463Y-90176164D01*
X156228444Y-90188414D01*
X156324951Y-90377820D01*
X156449890Y-90549786D01*
X156600213Y-90700109D01*
X156772182Y-90825050D01*
X156780946Y-90829516D01*
X156831742Y-90877491D01*
X156848536Y-90945312D01*
X156825998Y-91011447D01*
X156780946Y-91050484D01*
X156772182Y-91054949D01*
X156600213Y-91179890D01*
X156449890Y-91330213D01*
X156324951Y-91502179D01*
X156228444Y-91691585D01*
X156162753Y-91893760D01*
X156129500Y-92103713D01*
X156129500Y-92316286D01*
X156157844Y-92495246D01*
X156162754Y-92526243D01*
X156224463Y-92716164D01*
X156228444Y-92728414D01*
X156324951Y-92917820D01*
X156449890Y-93089786D01*
X156600213Y-93240109D01*
X156772182Y-93365050D01*
X156780946Y-93369516D01*
X156831742Y-93417491D01*
X156848536Y-93485312D01*
X156825998Y-93551447D01*
X156780946Y-93590484D01*
X156772182Y-93594949D01*
X156600213Y-93719890D01*
X156449890Y-93870213D01*
X156324951Y-94042179D01*
X156228444Y-94231585D01*
X156162753Y-94433760D01*
X156129500Y-94643713D01*
X156129500Y-94856286D01*
X156158260Y-95037874D01*
X156162754Y-95066243D01*
X156224463Y-95256164D01*
X156228444Y-95268414D01*
X156324951Y-95457820D01*
X156449890Y-95629786D01*
X156600213Y-95780109D01*
X156772182Y-95905050D01*
X156780946Y-95909516D01*
X156831742Y-95957491D01*
X156848536Y-96025312D01*
X156825998Y-96091447D01*
X156780946Y-96130484D01*
X156772182Y-96134949D01*
X156600213Y-96259890D01*
X156449890Y-96410213D01*
X156324951Y-96582179D01*
X156228444Y-96771585D01*
X156162753Y-96973760D01*
X156150331Y-97052193D01*
X156129500Y-97183713D01*
X156129500Y-97396287D01*
X156137092Y-97444221D01*
X156161394Y-97597660D01*
X156162754Y-97606243D01*
X156226295Y-97801802D01*
X156228444Y-97808414D01*
X156324951Y-97997820D01*
X156449890Y-98169786D01*
X156600213Y-98320109D01*
X156772182Y-98445050D01*
X156780946Y-98449516D01*
X156831742Y-98497491D01*
X156848536Y-98565312D01*
X156825998Y-98631447D01*
X156780946Y-98670484D01*
X156772182Y-98674949D01*
X156600213Y-98799890D01*
X156449890Y-98950213D01*
X156324951Y-99122179D01*
X156228444Y-99311585D01*
X156162753Y-99513760D01*
X156129500Y-99723713D01*
X156129500Y-99936286D01*
X156156096Y-100104211D01*
X156162754Y-100146243D01*
X156224463Y-100336164D01*
X156228444Y-100348414D01*
X156324951Y-100537820D01*
X156449890Y-100709786D01*
X156600213Y-100860109D01*
X156772182Y-100985050D01*
X156780946Y-100989516D01*
X156831742Y-101037491D01*
X156848536Y-101105312D01*
X156825998Y-101171447D01*
X156780946Y-101210484D01*
X156772182Y-101214949D01*
X156600213Y-101339890D01*
X156449890Y-101490213D01*
X156324951Y-101662179D01*
X156228444Y-101851585D01*
X156162753Y-102053760D01*
X156129500Y-102263713D01*
X156129500Y-102476286D01*
X156162724Y-102686057D01*
X156162754Y-102686243D01*
X156224463Y-102876164D01*
X156228444Y-102888414D01*
X156324951Y-103077820D01*
X156449890Y-103249786D01*
X156600213Y-103400109D01*
X156772182Y-103525050D01*
X156780946Y-103529516D01*
X156831742Y-103577491D01*
X156848536Y-103645312D01*
X156825998Y-103711447D01*
X156780946Y-103750484D01*
X156772182Y-103754949D01*
X156600213Y-103879890D01*
X156449890Y-104030213D01*
X156324951Y-104202179D01*
X156228444Y-104391585D01*
X156162753Y-104593760D01*
X156129500Y-104803713D01*
X156129500Y-105016286D01*
X156152192Y-105159562D01*
X156162754Y-105226243D01*
X156224463Y-105416164D01*
X156228444Y-105428414D01*
X156324951Y-105617820D01*
X156449890Y-105789786D01*
X156600213Y-105940109D01*
X156772182Y-106065050D01*
X156780946Y-106069516D01*
X156831742Y-106117491D01*
X156848536Y-106185312D01*
X156825998Y-106251447D01*
X156780946Y-106290484D01*
X156772182Y-106294949D01*
X156600213Y-106419890D01*
X156449890Y-106570213D01*
X156324951Y-106742179D01*
X156228444Y-106931585D01*
X156162753Y-107133760D01*
X156129500Y-107343713D01*
X156129500Y-107556287D01*
X156162754Y-107766243D01*
X156224463Y-107956164D01*
X156228444Y-107968414D01*
X156324951Y-108157820D01*
X156449890Y-108329786D01*
X156600213Y-108480109D01*
X156772182Y-108605050D01*
X156780946Y-108609516D01*
X156831742Y-108657491D01*
X156848536Y-108725312D01*
X156825998Y-108791447D01*
X156780946Y-108830484D01*
X156772182Y-108834949D01*
X156600213Y-108959890D01*
X156449890Y-109110213D01*
X156324951Y-109282179D01*
X156228444Y-109471585D01*
X156162753Y-109673760D01*
X156129500Y-109883713D01*
X156129500Y-110096286D01*
X156158707Y-110280695D01*
X156162754Y-110306243D01*
X156224463Y-110496164D01*
X156228444Y-110508414D01*
X156324951Y-110697820D01*
X156449890Y-110869786D01*
X156600213Y-111020109D01*
X156772182Y-111145050D01*
X156780946Y-111149516D01*
X156831742Y-111197491D01*
X156848536Y-111265312D01*
X156825998Y-111331447D01*
X156780946Y-111370484D01*
X156772182Y-111374949D01*
X156600213Y-111499890D01*
X156449890Y-111650213D01*
X156324951Y-111822179D01*
X156228444Y-112011585D01*
X156162753Y-112213760D01*
X156131440Y-112411465D01*
X156129500Y-112423713D01*
X156129500Y-112636287D01*
X156131348Y-112647954D01*
X156158094Y-112816826D01*
X156162754Y-112846243D01*
X156224463Y-113036164D01*
X156228444Y-113048414D01*
X156324951Y-113237820D01*
X156449890Y-113409786D01*
X156600213Y-113560109D01*
X156772182Y-113685050D01*
X156780946Y-113689516D01*
X156831742Y-113737491D01*
X156848536Y-113805312D01*
X156825998Y-113871447D01*
X156780946Y-113910484D01*
X156772182Y-113914949D01*
X156600213Y-114039890D01*
X156449890Y-114190213D01*
X156324951Y-114362179D01*
X156228444Y-114551585D01*
X156162753Y-114753760D01*
X156129500Y-114963713D01*
X156129500Y-115176286D01*
X156143713Y-115266027D01*
X156162754Y-115386243D01*
X156224463Y-115576164D01*
X156228444Y-115588414D01*
X156324951Y-115777820D01*
X156449890Y-115949786D01*
X156600213Y-116100109D01*
X156772182Y-116225050D01*
X156780946Y-116229516D01*
X156831742Y-116277491D01*
X156848536Y-116345312D01*
X156825998Y-116411447D01*
X156780946Y-116450484D01*
X156772182Y-116454949D01*
X156600213Y-116579890D01*
X156449890Y-116730213D01*
X156324951Y-116902179D01*
X156228444Y-117091585D01*
X156228443Y-117091587D01*
X156228443Y-117091588D01*
X156216035Y-117129775D01*
X156162753Y-117293760D01*
X156144796Y-117407137D01*
X156129500Y-117503713D01*
X156129500Y-117716287D01*
X156162754Y-117926243D01*
X156224463Y-118116164D01*
X156228444Y-118128414D01*
X156324951Y-118317820D01*
X156449890Y-118489786D01*
X156600213Y-118640109D01*
X156772182Y-118765050D01*
X156780946Y-118769516D01*
X156831742Y-118817491D01*
X156848536Y-118885312D01*
X156825998Y-118951447D01*
X156780946Y-118990484D01*
X156772182Y-118994949D01*
X156600213Y-119119890D01*
X156449890Y-119270213D01*
X156324951Y-119442179D01*
X156228444Y-119631585D01*
X156162753Y-119833760D01*
X156138203Y-119988762D01*
X156129500Y-120043713D01*
X156129500Y-120256287D01*
X156130849Y-120264803D01*
X156156041Y-120423863D01*
X156162754Y-120466243D01*
X156224463Y-120656164D01*
X156228444Y-120668414D01*
X156324951Y-120857820D01*
X156449890Y-121029786D01*
X156600213Y-121180109D01*
X156772182Y-121305050D01*
X156780946Y-121309516D01*
X156831742Y-121357491D01*
X156848536Y-121425312D01*
X156825998Y-121491447D01*
X156780946Y-121530484D01*
X156772182Y-121534949D01*
X156600213Y-121659890D01*
X156449890Y-121810213D01*
X156324951Y-121982179D01*
X156228444Y-122171585D01*
X156162753Y-122373760D01*
X156131440Y-122571465D01*
X156129500Y-122583713D01*
X156129500Y-122796287D01*
X156129904Y-122798835D01*
X156154540Y-122954386D01*
X156162754Y-123006243D01*
X156224463Y-123196164D01*
X156228444Y-123208414D01*
X156324951Y-123397820D01*
X156449890Y-123569786D01*
X156600213Y-123720109D01*
X156772182Y-123845050D01*
X156780946Y-123849516D01*
X156831742Y-123897491D01*
X156848536Y-123965312D01*
X156825998Y-124031447D01*
X156780946Y-124070484D01*
X156772182Y-124074949D01*
X156600213Y-124199890D01*
X156449890Y-124350213D01*
X156324951Y-124522179D01*
X156228444Y-124711585D01*
X156162753Y-124913760D01*
X156129500Y-125123713D01*
X156129500Y-125336286D01*
X156155013Y-125497372D01*
X156162754Y-125546243D01*
X156224463Y-125736164D01*
X156228444Y-125748414D01*
X156324951Y-125937820D01*
X156449890Y-126109786D01*
X156600213Y-126260109D01*
X156772182Y-126385050D01*
X156780946Y-126389516D01*
X156831742Y-126437491D01*
X156848536Y-126505312D01*
X156825998Y-126571447D01*
X156780946Y-126610484D01*
X156772182Y-126614949D01*
X156600213Y-126739890D01*
X156449890Y-126890213D01*
X156324951Y-127062179D01*
X156228444Y-127251585D01*
X156162753Y-127453760D01*
X156131440Y-127651465D01*
X156129500Y-127663713D01*
X156129500Y-127876287D01*
X156162754Y-128086243D01*
X156224463Y-128276164D01*
X156228444Y-128288414D01*
X156324951Y-128477820D01*
X156449890Y-128649786D01*
X156600213Y-128800109D01*
X156772182Y-128925050D01*
X156780946Y-128929516D01*
X156831742Y-128977491D01*
X156848536Y-129045312D01*
X156825998Y-129111447D01*
X156780946Y-129150484D01*
X156772182Y-129154949D01*
X156600213Y-129279890D01*
X156449890Y-129430213D01*
X156324951Y-129602179D01*
X156228444Y-129791585D01*
X156228443Y-129791587D01*
X156228443Y-129791588D01*
X156217956Y-129823863D01*
X156162753Y-129993760D01*
X156129500Y-130203713D01*
X156129500Y-130416286D01*
X156160812Y-130613987D01*
X156162754Y-130626243D01*
X156224463Y-130816164D01*
X156228444Y-130828414D01*
X156324951Y-131017820D01*
X156449890Y-131189786D01*
X156600213Y-131340109D01*
X156772182Y-131465050D01*
X156780946Y-131469516D01*
X156831742Y-131517491D01*
X156848536Y-131585312D01*
X156825998Y-131651447D01*
X156780946Y-131690484D01*
X156772182Y-131694949D01*
X156600213Y-131819890D01*
X156449890Y-131970213D01*
X156324951Y-132142179D01*
X156228444Y-132331585D01*
X156162753Y-132533760D01*
X156129500Y-132743713D01*
X156129500Y-132956286D01*
X156143266Y-133043205D01*
X156162754Y-133166243D01*
X156224463Y-133356164D01*
X156228444Y-133368414D01*
X156324951Y-133557820D01*
X156449890Y-133729786D01*
X156600213Y-133880109D01*
X156772179Y-134005048D01*
X156772181Y-134005049D01*
X156772184Y-134005051D01*
X156961588Y-134101557D01*
X157163757Y-134167246D01*
X157373713Y-134200500D01*
X157373714Y-134200500D01*
X158486286Y-134200500D01*
X158486287Y-134200500D01*
X158696243Y-134167246D01*
X158898412Y-134101557D01*
X159019705Y-134039754D01*
X159088374Y-134026859D01*
X159153115Y-134053135D01*
X159193372Y-134110242D01*
X159200000Y-134150240D01*
X159200000Y-140467485D01*
X159180317Y-140534522D01*
X159136849Y-140602163D01*
X159115943Y-140626879D01*
X159038136Y-140697612D01*
X159011547Y-140716074D01*
X158918091Y-140764256D01*
X158887629Y-140775207D01*
X158782872Y-140797997D01*
X158754658Y-140800817D01*
X158700009Y-140800000D01*
X158700000Y-140800000D01*
X156423480Y-140800000D01*
X156356441Y-140780315D01*
X156310686Y-140727511D01*
X156300742Y-140658353D01*
X156329767Y-140594797D01*
X156388545Y-140557023D01*
X156399289Y-140554383D01*
X156437017Y-140546877D01*
X156475792Y-140539165D01*
X156647862Y-140467891D01*
X156647863Y-140467890D01*
X156647864Y-140467890D01*
X156724772Y-140416501D01*
X156802721Y-140364418D01*
X156934418Y-140232721D01*
X157037891Y-140077862D01*
X157109165Y-139905792D01*
X157145500Y-139723124D01*
X157145500Y-138876876D01*
X157145500Y-138876873D01*
X157145499Y-138876871D01*
X157109166Y-138694215D01*
X157109165Y-138694208D01*
X157037891Y-138522138D01*
X157037890Y-138522136D01*
X157037890Y-138522135D01*
X156934421Y-138367283D01*
X156934415Y-138367275D01*
X156802724Y-138235584D01*
X156802716Y-138235578D01*
X156647864Y-138132109D01*
X156475792Y-138060835D01*
X156475784Y-138060833D01*
X156293127Y-138024500D01*
X156293124Y-138024500D01*
X156106876Y-138024500D01*
X156106873Y-138024500D01*
X155924215Y-138060833D01*
X155924207Y-138060835D01*
X155752136Y-138132109D01*
X155752135Y-138132109D01*
X155597283Y-138235578D01*
X155597275Y-138235584D01*
X155465584Y-138367275D01*
X155465578Y-138367283D01*
X155362109Y-138522135D01*
X155362109Y-138522136D01*
X155290835Y-138694207D01*
X155290833Y-138694215D01*
X155254500Y-138876871D01*
X155254500Y-139723128D01*
X155290833Y-139905784D01*
X155290835Y-139905792D01*
X155362109Y-140077863D01*
X155362109Y-140077864D01*
X155465578Y-140232716D01*
X155465584Y-140232724D01*
X155597275Y-140364415D01*
X155597283Y-140364421D01*
X155752135Y-140467890D01*
X155792260Y-140484510D01*
X155924208Y-140539165D01*
X155955228Y-140545335D01*
X156000711Y-140554383D01*
X156062622Y-140586768D01*
X156097196Y-140647484D01*
X156093457Y-140717253D01*
X156052590Y-140773925D01*
X155987572Y-140799506D01*
X155976520Y-140800000D01*
X149423480Y-140800000D01*
X149356441Y-140780315D01*
X149310686Y-140727511D01*
X149300742Y-140658353D01*
X149329767Y-140594797D01*
X149388545Y-140557023D01*
X149399289Y-140554383D01*
X149437017Y-140546877D01*
X149475792Y-140539165D01*
X149647862Y-140467891D01*
X149647863Y-140467890D01*
X149647864Y-140467890D01*
X149724772Y-140416501D01*
X149802721Y-140364418D01*
X149934418Y-140232721D01*
X150037891Y-140077862D01*
X150109165Y-139905792D01*
X150145500Y-139723124D01*
X150145500Y-138876876D01*
X150145500Y-138876873D01*
X150145499Y-138876871D01*
X150109166Y-138694215D01*
X150109165Y-138694208D01*
X150037891Y-138522138D01*
X150037890Y-138522136D01*
X150037890Y-138522135D01*
X149934421Y-138367283D01*
X149934415Y-138367275D01*
X149802724Y-138235584D01*
X149802716Y-138235578D01*
X149647864Y-138132109D01*
X149475792Y-138060835D01*
X149475784Y-138060833D01*
X149293127Y-138024500D01*
X149293124Y-138024500D01*
X149106876Y-138024500D01*
X149106873Y-138024500D01*
X148924215Y-138060833D01*
X148924207Y-138060835D01*
X148752136Y-138132109D01*
X148752135Y-138132109D01*
X148597283Y-138235578D01*
X148597275Y-138235584D01*
X148465584Y-138367275D01*
X148465578Y-138367283D01*
X148362109Y-138522135D01*
X148362109Y-138522136D01*
X148290835Y-138694207D01*
X148290833Y-138694215D01*
X148254500Y-138876871D01*
X148254500Y-139723128D01*
X148290833Y-139905784D01*
X148290835Y-139905792D01*
X148362109Y-140077863D01*
X148362109Y-140077864D01*
X148465578Y-140232716D01*
X148465584Y-140232724D01*
X148597275Y-140364415D01*
X148597283Y-140364421D01*
X148752135Y-140467890D01*
X148792260Y-140484510D01*
X148924208Y-140539165D01*
X148955228Y-140545335D01*
X149000711Y-140554383D01*
X149062622Y-140586768D01*
X149097196Y-140647484D01*
X149093457Y-140717253D01*
X149052590Y-140773925D01*
X148987572Y-140799506D01*
X148976520Y-140800000D01*
X143873480Y-140800000D01*
X143806441Y-140780315D01*
X143760686Y-140727511D01*
X143750742Y-140658353D01*
X143779767Y-140594797D01*
X143838545Y-140557023D01*
X143849289Y-140554383D01*
X143887017Y-140546877D01*
X143925792Y-140539165D01*
X144097862Y-140467891D01*
X144097863Y-140467890D01*
X144097864Y-140467890D01*
X144174772Y-140416501D01*
X144252721Y-140364418D01*
X144384418Y-140232721D01*
X144487891Y-140077862D01*
X144559165Y-139905792D01*
X144595500Y-139723124D01*
X144595500Y-138876876D01*
X144595500Y-138876873D01*
X144595499Y-138876871D01*
X144559166Y-138694215D01*
X144559165Y-138694208D01*
X144487891Y-138522138D01*
X144487890Y-138522136D01*
X144487890Y-138522135D01*
X144384421Y-138367283D01*
X144384415Y-138367275D01*
X144252724Y-138235584D01*
X144252716Y-138235578D01*
X144097864Y-138132109D01*
X143925792Y-138060835D01*
X143925784Y-138060833D01*
X143743127Y-138024500D01*
X143743124Y-138024500D01*
X143556876Y-138024500D01*
X143556873Y-138024500D01*
X143374215Y-138060833D01*
X143374207Y-138060835D01*
X143202136Y-138132109D01*
X143202135Y-138132109D01*
X143047283Y-138235578D01*
X143047275Y-138235584D01*
X142915584Y-138367275D01*
X142915578Y-138367283D01*
X142812109Y-138522135D01*
X142812109Y-138522136D01*
X142740835Y-138694207D01*
X142740833Y-138694215D01*
X142704500Y-138876871D01*
X142704500Y-139723128D01*
X142740833Y-139905784D01*
X142740835Y-139905792D01*
X142812109Y-140077863D01*
X142812109Y-140077864D01*
X142915578Y-140232716D01*
X142915584Y-140232724D01*
X143047275Y-140364415D01*
X143047283Y-140364421D01*
X143202135Y-140467890D01*
X143242260Y-140484510D01*
X143374208Y-140539165D01*
X143405228Y-140545335D01*
X143450711Y-140554383D01*
X143512622Y-140586768D01*
X143547196Y-140647484D01*
X143543457Y-140717253D01*
X143502590Y-140773925D01*
X143437572Y-140799506D01*
X143426520Y-140800000D01*
X136873480Y-140800000D01*
X136806441Y-140780315D01*
X136760686Y-140727511D01*
X136750742Y-140658353D01*
X136779767Y-140594797D01*
X136838545Y-140557023D01*
X136849289Y-140554383D01*
X136887017Y-140546877D01*
X136925792Y-140539165D01*
X137097862Y-140467891D01*
X137097863Y-140467890D01*
X137097864Y-140467890D01*
X137174772Y-140416501D01*
X137252721Y-140364418D01*
X137384418Y-140232721D01*
X137487891Y-140077862D01*
X137559165Y-139905792D01*
X137595500Y-139723124D01*
X137595500Y-138876876D01*
X137595500Y-138876873D01*
X137595499Y-138876871D01*
X137559166Y-138694215D01*
X137559165Y-138694208D01*
X137487891Y-138522138D01*
X137487890Y-138522136D01*
X137487890Y-138522135D01*
X137384421Y-138367283D01*
X137384415Y-138367275D01*
X137252724Y-138235584D01*
X137252716Y-138235578D01*
X137097864Y-138132109D01*
X136925792Y-138060835D01*
X136925784Y-138060833D01*
X136743127Y-138024500D01*
X136743124Y-138024500D01*
X136556876Y-138024500D01*
X136556873Y-138024500D01*
X136374215Y-138060833D01*
X136374207Y-138060835D01*
X136202136Y-138132109D01*
X136202135Y-138132109D01*
X136047283Y-138235578D01*
X136047275Y-138235584D01*
X135915584Y-138367275D01*
X135915578Y-138367283D01*
X135812109Y-138522135D01*
X135812109Y-138522136D01*
X135740835Y-138694207D01*
X135740833Y-138694215D01*
X135704500Y-138876871D01*
X135704500Y-139723128D01*
X135740833Y-139905784D01*
X135740835Y-139905792D01*
X135812109Y-140077863D01*
X135812109Y-140077864D01*
X135915578Y-140232716D01*
X135915584Y-140232724D01*
X136047275Y-140364415D01*
X136047283Y-140364421D01*
X136202135Y-140467890D01*
X136242260Y-140484510D01*
X136374208Y-140539165D01*
X136405228Y-140545335D01*
X136450711Y-140554383D01*
X136512622Y-140586768D01*
X136547196Y-140647484D01*
X136543457Y-140717253D01*
X136502590Y-140773925D01*
X136437572Y-140799506D01*
X136426520Y-140800000D01*
X134299991Y-140800000D01*
X134245508Y-140800975D01*
X134216929Y-140798161D01*
X134134899Y-140780315D01*
X134112303Y-140775399D01*
X134081842Y-140764448D01*
X133988334Y-140716239D01*
X133961745Y-140697777D01*
X133883900Y-140627009D01*
X133862996Y-140602296D01*
X133806120Y-140513792D01*
X133792325Y-140484510D01*
X133759724Y-140382519D01*
X133754207Y-140354337D01*
X133750370Y-140304778D01*
X133750000Y-140295206D01*
X133750000Y-136503917D01*
X136524500Y-136503917D01*
X136524500Y-136696082D01*
X136561986Y-136884535D01*
X136561989Y-136884547D01*
X136635520Y-137062068D01*
X136635521Y-137062070D01*
X136742279Y-137221844D01*
X136742282Y-137221848D01*
X136878151Y-137357717D01*
X136878155Y-137357720D01*
X137037927Y-137464477D01*
X137037928Y-137464477D01*
X137037929Y-137464478D01*
X137037931Y-137464479D01*
X137215452Y-137538010D01*
X137215457Y-137538012D01*
X137403917Y-137575499D01*
X137403920Y-137575500D01*
X137403922Y-137575500D01*
X137896080Y-137575500D01*
X137896081Y-137575499D01*
X138084543Y-137538012D01*
X138262073Y-137464477D01*
X138421845Y-137357720D01*
X138557720Y-137221845D01*
X138664477Y-137062073D01*
X138738012Y-136884543D01*
X138775500Y-136696078D01*
X138775500Y-136503922D01*
X138775500Y-136503919D01*
X138775499Y-136503917D01*
X141524500Y-136503917D01*
X141524500Y-136696082D01*
X141561986Y-136884535D01*
X141561989Y-136884547D01*
X141635520Y-137062068D01*
X141635521Y-137062070D01*
X141742279Y-137221844D01*
X141742282Y-137221848D01*
X141878151Y-137357717D01*
X141878155Y-137357720D01*
X142037927Y-137464477D01*
X142037928Y-137464477D01*
X142037929Y-137464478D01*
X142037931Y-137464479D01*
X142215452Y-137538010D01*
X142215457Y-137538012D01*
X142403917Y-137575499D01*
X142403920Y-137575500D01*
X142403922Y-137575500D01*
X142896080Y-137575500D01*
X142896081Y-137575499D01*
X143084543Y-137538012D01*
X143262073Y-137464477D01*
X143421845Y-137357720D01*
X143557720Y-137221845D01*
X143664477Y-137062073D01*
X143738012Y-136884543D01*
X143775500Y-136696078D01*
X143775500Y-136503922D01*
X143775500Y-136503919D01*
X143775499Y-136503917D01*
X149074500Y-136503917D01*
X149074500Y-136696082D01*
X149111986Y-136884535D01*
X149111989Y-136884547D01*
X149185520Y-137062068D01*
X149185521Y-137062070D01*
X149292279Y-137221844D01*
X149292282Y-137221848D01*
X149428151Y-137357717D01*
X149428155Y-137357720D01*
X149587927Y-137464477D01*
X149587928Y-137464477D01*
X149587929Y-137464478D01*
X149587931Y-137464479D01*
X149765452Y-137538010D01*
X149765457Y-137538012D01*
X149953917Y-137575499D01*
X149953920Y-137575500D01*
X149953922Y-137575500D01*
X150446080Y-137575500D01*
X150446081Y-137575499D01*
X150634543Y-137538012D01*
X150812073Y-137464477D01*
X150971845Y-137357720D01*
X151107720Y-137221845D01*
X151214477Y-137062073D01*
X151288012Y-136884543D01*
X151325500Y-136696078D01*
X151325500Y-136503922D01*
X151325500Y-136503919D01*
X151325499Y-136503917D01*
X154074500Y-136503917D01*
X154074500Y-136696082D01*
X154111986Y-136884535D01*
X154111989Y-136884547D01*
X154185520Y-137062068D01*
X154185521Y-137062070D01*
X154292279Y-137221844D01*
X154292282Y-137221848D01*
X154428151Y-137357717D01*
X154428155Y-137357720D01*
X154587927Y-137464477D01*
X154587928Y-137464477D01*
X154587929Y-137464478D01*
X154587931Y-137464479D01*
X154765452Y-137538010D01*
X154765457Y-137538012D01*
X154953917Y-137575499D01*
X154953920Y-137575500D01*
X154953922Y-137575500D01*
X155446080Y-137575500D01*
X155446081Y-137575499D01*
X155634543Y-137538012D01*
X155812073Y-137464477D01*
X155971845Y-137357720D01*
X156107720Y-137221845D01*
X156214477Y-137062073D01*
X156288012Y-136884543D01*
X156325500Y-136696078D01*
X156325500Y-136503922D01*
X156325500Y-136503919D01*
X156325499Y-136503917D01*
X156288013Y-136315464D01*
X156288012Y-136315457D01*
X156214477Y-136137927D01*
X156107720Y-135978155D01*
X156107717Y-135978151D01*
X155971848Y-135842282D01*
X155971844Y-135842279D01*
X155812070Y-135735521D01*
X155812068Y-135735520D01*
X155634547Y-135661989D01*
X155634535Y-135661986D01*
X155446081Y-135624500D01*
X155446078Y-135624500D01*
X154953922Y-135624500D01*
X154953919Y-135624500D01*
X154765464Y-135661986D01*
X154765452Y-135661989D01*
X154587931Y-135735520D01*
X154587929Y-135735521D01*
X154428155Y-135842279D01*
X154428151Y-135842282D01*
X154292282Y-135978151D01*
X154292279Y-135978155D01*
X154185521Y-136137929D01*
X154185520Y-136137931D01*
X154111989Y-136315452D01*
X154111986Y-136315464D01*
X154074500Y-136503917D01*
X151325499Y-136503917D01*
X151288013Y-136315464D01*
X151288012Y-136315457D01*
X151214477Y-136137927D01*
X151107720Y-135978155D01*
X151107717Y-135978151D01*
X150971848Y-135842282D01*
X150971844Y-135842279D01*
X150812070Y-135735521D01*
X150812068Y-135735520D01*
X150634547Y-135661989D01*
X150634535Y-135661986D01*
X150446081Y-135624500D01*
X150446078Y-135624500D01*
X149953922Y-135624500D01*
X149953919Y-135624500D01*
X149765464Y-135661986D01*
X149765452Y-135661989D01*
X149587931Y-135735520D01*
X149587929Y-135735521D01*
X149428155Y-135842279D01*
X149428151Y-135842282D01*
X149292282Y-135978151D01*
X149292279Y-135978155D01*
X149185521Y-136137929D01*
X149185520Y-136137931D01*
X149111989Y-136315452D01*
X149111986Y-136315464D01*
X149074500Y-136503917D01*
X143775499Y-136503917D01*
X143738013Y-136315464D01*
X143738012Y-136315457D01*
X143664477Y-136137927D01*
X143557720Y-135978155D01*
X143557717Y-135978151D01*
X143421848Y-135842282D01*
X143421844Y-135842279D01*
X143262070Y-135735521D01*
X143262068Y-135735520D01*
X143084547Y-135661989D01*
X143084535Y-135661986D01*
X142896081Y-135624500D01*
X142896078Y-135624500D01*
X142403922Y-135624500D01*
X142403919Y-135624500D01*
X142215464Y-135661986D01*
X142215452Y-135661989D01*
X142037931Y-135735520D01*
X142037929Y-135735521D01*
X141878155Y-135842279D01*
X141878151Y-135842282D01*
X141742282Y-135978151D01*
X141742279Y-135978155D01*
X141635521Y-136137929D01*
X141635520Y-136137931D01*
X141561989Y-136315452D01*
X141561986Y-136315464D01*
X141524500Y-136503917D01*
X138775499Y-136503917D01*
X138738013Y-136315464D01*
X138738012Y-136315457D01*
X138664477Y-136137927D01*
X138557720Y-135978155D01*
X138557717Y-135978151D01*
X138421848Y-135842282D01*
X138421844Y-135842279D01*
X138262070Y-135735521D01*
X138262068Y-135735520D01*
X138084547Y-135661989D01*
X138084535Y-135661986D01*
X137896081Y-135624500D01*
X137896078Y-135624500D01*
X137403922Y-135624500D01*
X137403919Y-135624500D01*
X137215464Y-135661986D01*
X137215452Y-135661989D01*
X137037931Y-135735520D01*
X137037929Y-135735521D01*
X136878155Y-135842279D01*
X136878151Y-135842282D01*
X136742282Y-135978151D01*
X136742279Y-135978155D01*
X136635521Y-136137929D01*
X136635520Y-136137931D01*
X136561989Y-136315452D01*
X136561986Y-136315464D01*
X136524500Y-136503917D01*
X133750000Y-136503917D01*
X133750000Y-134102672D01*
X133769685Y-134035633D01*
X133822489Y-133989878D01*
X133891647Y-133979934D01*
X133930295Y-133992187D01*
X133931497Y-133992799D01*
X133931502Y-133992803D01*
X134120906Y-134089309D01*
X134323075Y-134154998D01*
X134533031Y-134188252D01*
X134533032Y-134188252D01*
X135645604Y-134188252D01*
X135645605Y-134188252D01*
X135855561Y-134154998D01*
X136057730Y-134089309D01*
X136247134Y-133992803D01*
X136269107Y-133976838D01*
X136419104Y-133867861D01*
X136419106Y-133867858D01*
X136419110Y-133867856D01*
X136569422Y-133717544D01*
X136569424Y-133717540D01*
X136569427Y-133717538D01*
X136694366Y-133545572D01*
X136694365Y-133545572D01*
X136694369Y-133545568D01*
X136790875Y-133356164D01*
X136856564Y-133153995D01*
X136874111Y-133043203D01*
X136904040Y-132980070D01*
X136963351Y-132943138D01*
X137033213Y-132944136D01*
X137084265Y-132974921D01*
X139011156Y-134901812D01*
X139108728Y-134999384D01*
X139108729Y-134999385D01*
X139223452Y-135076041D01*
X139223459Y-135076045D01*
X139295221Y-135105769D01*
X139295223Y-135105771D01*
X139350936Y-135128848D01*
X139350941Y-135128850D01*
X139350950Y-135128851D01*
X139350951Y-135128852D01*
X139377815Y-135134195D01*
X139377821Y-135134196D01*
X139377861Y-135134204D01*
X139468207Y-135152175D01*
X139486276Y-135155770D01*
X139486277Y-135155770D01*
X143526398Y-135155770D01*
X143592369Y-135174776D01*
X143602366Y-135181057D01*
X143602367Y-135181057D01*
X143602370Y-135181059D01*
X143772631Y-135240636D01*
X143772637Y-135240638D01*
X143772642Y-135240639D01*
X143951888Y-135260835D01*
X143951892Y-135260835D01*
X143951896Y-135260835D01*
X144131141Y-135240639D01*
X144131143Y-135240638D01*
X144131147Y-135240638D01*
X144131150Y-135240636D01*
X144131154Y-135240636D01*
X144235804Y-135204017D01*
X144301414Y-135181059D01*
X144369697Y-135138153D01*
X144435669Y-135119148D01*
X148547806Y-135119148D01*
X148613777Y-135138154D01*
X148623774Y-135144435D01*
X148623775Y-135144435D01*
X148623778Y-135144437D01*
X148728438Y-135181059D01*
X148794045Y-135204016D01*
X148794050Y-135204017D01*
X148973296Y-135224213D01*
X148973300Y-135224213D01*
X148973304Y-135224213D01*
X149152549Y-135204017D01*
X149152552Y-135204016D01*
X149152555Y-135204016D01*
X149322822Y-135144437D01*
X149475562Y-135048464D01*
X149603116Y-134920910D01*
X149699089Y-134768170D01*
X149758668Y-134597903D01*
X149778865Y-134418648D01*
X149758668Y-134239393D01*
X149758667Y-134239391D01*
X149758666Y-134239385D01*
X149699090Y-134069127D01*
X149692806Y-134059126D01*
X149673800Y-133993155D01*
X149673800Y-133412480D01*
X151334481Y-133412480D01*
X151354985Y-133581349D01*
X151354986Y-133581354D01*
X151415308Y-133740411D01*
X151477601Y-133830657D01*
X151511943Y-133880409D01*
X151617631Y-133974040D01*
X151639276Y-133993216D01*
X151789899Y-134072269D01*
X151789901Y-134072270D01*
X151955070Y-134112980D01*
X152125182Y-134112980D01*
X152290351Y-134072270D01*
X152373027Y-134028878D01*
X152440975Y-133993216D01*
X152440976Y-133993214D01*
X152440978Y-133993214D01*
X152568309Y-133880409D01*
X152664944Y-133740410D01*
X152725266Y-133581352D01*
X152745771Y-133412480D01*
X152725266Y-133243608D01*
X152664944Y-133084550D01*
X152568309Y-132944551D01*
X152440978Y-132831746D01*
X152440975Y-132831743D01*
X152290352Y-132752690D01*
X152125182Y-132711980D01*
X151955070Y-132711980D01*
X151789899Y-132752690D01*
X151639276Y-132831743D01*
X151522764Y-132934964D01*
X151512412Y-132944136D01*
X151511942Y-132944552D01*
X151415308Y-133084548D01*
X151354986Y-133243605D01*
X151354985Y-133243610D01*
X151334481Y-133412480D01*
X149673800Y-133412480D01*
X149673800Y-131454663D01*
X149693485Y-131387624D01*
X149746289Y-131341869D01*
X149811684Y-131331443D01*
X149952622Y-131347323D01*
X149952625Y-131347323D01*
X149952629Y-131347323D01*
X150131874Y-131327127D01*
X150131877Y-131327126D01*
X150131880Y-131327126D01*
X150302147Y-131267547D01*
X150454887Y-131171574D01*
X150557580Y-131068880D01*
X150618899Y-131035398D01*
X150688591Y-131040382D01*
X150732939Y-131068883D01*
X150814954Y-131150898D01*
X150905296Y-131207664D01*
X150955243Y-131239048D01*
X150967694Y-131246871D01*
X151026780Y-131267546D01*
X151137961Y-131306450D01*
X151137966Y-131306451D01*
X151317212Y-131326647D01*
X151317216Y-131326647D01*
X151317220Y-131326647D01*
X151496465Y-131306451D01*
X151496468Y-131306450D01*
X151496471Y-131306450D01*
X151666738Y-131246871D01*
X151819478Y-131150898D01*
X151918630Y-131051746D01*
X151979953Y-131018261D01*
X152049645Y-131023245D01*
X152093992Y-131051746D01*
X152197738Y-131155492D01*
X152223334Y-131171575D01*
X152343166Y-131246871D01*
X152350478Y-131251465D01*
X152396435Y-131267546D01*
X152520745Y-131311044D01*
X152520750Y-131311045D01*
X152699996Y-131331241D01*
X152700000Y-131331241D01*
X152700004Y-131331241D01*
X152879249Y-131311045D01*
X152879252Y-131311044D01*
X152879255Y-131311044D01*
X153049522Y-131251465D01*
X153202262Y-131155492D01*
X153329816Y-131027938D01*
X153425789Y-130875198D01*
X153485368Y-130704931D01*
X153494234Y-130626243D01*
X153505565Y-130525679D01*
X153505565Y-130525672D01*
X153485369Y-130346426D01*
X153485368Y-130346421D01*
X153435432Y-130203713D01*
X153425789Y-130176154D01*
X153329816Y-130023414D01*
X153202262Y-129895860D01*
X153194949Y-129891265D01*
X153049523Y-129799887D01*
X152879254Y-129740307D01*
X152879249Y-129740306D01*
X152700004Y-129720111D01*
X152699996Y-129720111D01*
X152520750Y-129740306D01*
X152520745Y-129740307D01*
X152350476Y-129799887D01*
X152197737Y-129895860D01*
X152098586Y-129995012D01*
X152037263Y-130028497D01*
X151967571Y-130023513D01*
X151923224Y-129995012D01*
X151819478Y-129891266D01*
X151666739Y-129795293D01*
X151496470Y-129735713D01*
X151496465Y-129735712D01*
X151317220Y-129715517D01*
X151317212Y-129715517D01*
X151137966Y-129735712D01*
X151137961Y-129735713D01*
X150967692Y-129795293D01*
X150814955Y-129891265D01*
X150712263Y-129993957D01*
X150650940Y-130027441D01*
X150581248Y-130022457D01*
X150536901Y-129993956D01*
X150454887Y-129911942D01*
X150302148Y-129815969D01*
X150131879Y-129756389D01*
X150131874Y-129756388D01*
X149952629Y-129736193D01*
X149952621Y-129736193D01*
X149779279Y-129755723D01*
X149710457Y-129743668D01*
X149659078Y-129696319D01*
X149649407Y-129674517D01*
X149649211Y-129674599D01*
X149594077Y-129541492D01*
X149517412Y-129426754D01*
X149517411Y-129426753D01*
X148262437Y-128171780D01*
X148233077Y-128125054D01*
X148177003Y-127964804D01*
X148104867Y-127850000D01*
X151744355Y-127850000D01*
X151764859Y-128018869D01*
X151764860Y-128018874D01*
X151825182Y-128177931D01*
X151887475Y-128268177D01*
X151921817Y-128317929D01*
X152027505Y-128411560D01*
X152049150Y-128430736D01*
X152199773Y-128509789D01*
X152199775Y-128509790D01*
X152364944Y-128550500D01*
X152535056Y-128550500D01*
X152700225Y-128509790D01*
X152779692Y-128468081D01*
X152850849Y-128430736D01*
X152850850Y-128430734D01*
X152850852Y-128430734D01*
X152978183Y-128317929D01*
X153074818Y-128177930D01*
X153135140Y-128018872D01*
X153155645Y-127850000D01*
X153135140Y-127681128D01*
X153128535Y-127663713D01*
X153113231Y-127623358D01*
X153074818Y-127522070D01*
X153065631Y-127508761D01*
X153027667Y-127453760D01*
X152978183Y-127382071D01*
X152850852Y-127269266D01*
X152850849Y-127269263D01*
X152700226Y-127190210D01*
X152535056Y-127149500D01*
X152364944Y-127149500D01*
X152199773Y-127190210D01*
X152049150Y-127269263D01*
X151921816Y-127382072D01*
X151825182Y-127522068D01*
X151764860Y-127681125D01*
X151764859Y-127681130D01*
X151744355Y-127850000D01*
X148104867Y-127850000D01*
X148081030Y-127812064D01*
X147953476Y-127684510D01*
X147920378Y-127663713D01*
X147800737Y-127588537D01*
X147630468Y-127528957D01*
X147630463Y-127528956D01*
X147451218Y-127508761D01*
X147451210Y-127508761D01*
X147271964Y-127528956D01*
X147271959Y-127528957D01*
X147101690Y-127588537D01*
X146948951Y-127684510D01*
X146821398Y-127812063D01*
X146725425Y-127964802D01*
X146665845Y-128135071D01*
X146665844Y-128135076D01*
X146645649Y-128314322D01*
X146645649Y-128314329D01*
X146665844Y-128493575D01*
X146665845Y-128493580D01*
X146725425Y-128663849D01*
X146821398Y-128816588D01*
X146948952Y-128944142D01*
X146968314Y-128956308D01*
X147101691Y-129040115D01*
X147148453Y-129056477D01*
X147195181Y-129085838D01*
X148236481Y-130127138D01*
X148269966Y-130188461D01*
X148272800Y-130214819D01*
X148272800Y-133594148D01*
X148253115Y-133661187D01*
X148200311Y-133706942D01*
X148148800Y-133718148D01*
X144290096Y-133718148D01*
X144249142Y-133711190D01*
X144131144Y-133669901D01*
X144131138Y-133669900D01*
X143951896Y-133649705D01*
X143951888Y-133649705D01*
X143772642Y-133669900D01*
X143772637Y-133669901D01*
X143602366Y-133729482D01*
X143592369Y-133735764D01*
X143526398Y-133754770D01*
X143261131Y-133754770D01*
X143194092Y-133735085D01*
X143148337Y-133682281D01*
X143138393Y-133613123D01*
X143145189Y-133586800D01*
X143169876Y-133521703D01*
X143169875Y-133521703D01*
X143169878Y-133521698D01*
X143190383Y-133352826D01*
X143169878Y-133183954D01*
X143109556Y-133024896D01*
X143104605Y-133017724D01*
X143062198Y-132956287D01*
X143012921Y-132884897D01*
X142918054Y-132800852D01*
X142885587Y-132772089D01*
X142734964Y-132693036D01*
X142569794Y-132652326D01*
X142399682Y-132652326D01*
X142234511Y-132693036D01*
X142083888Y-132772089D01*
X141956553Y-132884898D01*
X141913480Y-132947300D01*
X141859197Y-132991290D01*
X141789748Y-132998949D01*
X141727184Y-132967845D01*
X141709382Y-132947300D01*
X141661359Y-132877728D01*
X141534024Y-132764919D01*
X141383401Y-132685866D01*
X141218231Y-132645156D01*
X141048119Y-132645156D01*
X140882948Y-132685866D01*
X140732325Y-132764919D01*
X140604991Y-132877728D01*
X140508357Y-133017724D01*
X140448035Y-133176781D01*
X140448034Y-133176786D01*
X140427530Y-133345656D01*
X140448034Y-133514525D01*
X140448035Y-133514530D01*
X140458753Y-133542789D01*
X140475444Y-133586800D01*
X140480811Y-133656462D01*
X140447664Y-133717968D01*
X140386525Y-133751790D01*
X140359502Y-133754770D01*
X139896788Y-133754770D01*
X139829749Y-133735085D01*
X139809107Y-133718451D01*
X136873040Y-130782383D01*
X136839555Y-130721060D01*
X136842789Y-130656387D01*
X136856564Y-130613995D01*
X136889818Y-130404039D01*
X136889818Y-130191465D01*
X136856564Y-129981509D01*
X136790875Y-129779340D01*
X136694369Y-129589936D01*
X136694367Y-129589933D01*
X136694366Y-129589931D01*
X136569427Y-129417965D01*
X136419104Y-129267642D01*
X136247138Y-129142703D01*
X136246433Y-129142343D01*
X136238372Y-129138237D01*
X136187577Y-129090264D01*
X136170781Y-129022444D01*
X136193317Y-128956308D01*
X136238372Y-128917267D01*
X136247134Y-128912803D01*
X136353740Y-128835350D01*
X136419104Y-128787861D01*
X136419106Y-128787858D01*
X136419110Y-128787856D01*
X136569422Y-128637544D01*
X136569424Y-128637540D01*
X136569427Y-128637538D01*
X136694366Y-128465572D01*
X136694365Y-128465572D01*
X136694369Y-128465568D01*
X136790875Y-128276164D01*
X136856564Y-128073995D01*
X136889818Y-127864039D01*
X136889818Y-127651465D01*
X136856564Y-127441509D01*
X136790875Y-127239340D01*
X136694369Y-127049936D01*
X136694367Y-127049933D01*
X136694366Y-127049931D01*
X136569427Y-126877965D01*
X136419104Y-126727642D01*
X136247138Y-126602703D01*
X136246433Y-126602343D01*
X136238372Y-126598237D01*
X136187577Y-126550264D01*
X136170781Y-126482444D01*
X136193317Y-126416308D01*
X136238372Y-126377267D01*
X136247134Y-126372803D01*
X136344404Y-126302133D01*
X136419104Y-126247861D01*
X136419106Y-126247858D01*
X136419110Y-126247856D01*
X136569422Y-126097544D01*
X136569424Y-126097540D01*
X136569427Y-126097538D01*
X136694366Y-125925572D01*
X136694365Y-125925572D01*
X136694369Y-125925568D01*
X136790875Y-125736164D01*
X136856564Y-125533995D01*
X136889818Y-125324039D01*
X136889818Y-125111465D01*
X136856564Y-124901509D01*
X136790875Y-124699340D01*
X136694369Y-124509936D01*
X136694367Y-124509933D01*
X136694366Y-124509931D01*
X136569427Y-124337965D01*
X136419104Y-124187642D01*
X136247138Y-124062703D01*
X136246433Y-124062343D01*
X136238372Y-124058237D01*
X136187577Y-124010264D01*
X136170781Y-123942444D01*
X136193317Y-123876308D01*
X136238372Y-123837267D01*
X136247134Y-123832803D01*
X136269107Y-123816838D01*
X136419104Y-123707861D01*
X136419106Y-123707858D01*
X136419110Y-123707856D01*
X136569422Y-123557544D01*
X136569424Y-123557540D01*
X136569427Y-123557538D01*
X136694366Y-123385572D01*
X136694365Y-123385572D01*
X136694369Y-123385568D01*
X136790875Y-123196164D01*
X136856564Y-122993995D01*
X136889818Y-122784039D01*
X136889818Y-122571465D01*
X136856564Y-122361509D01*
X136790875Y-122159340D01*
X136694369Y-121969936D01*
X136694367Y-121969933D01*
X136694366Y-121969931D01*
X136659970Y-121922588D01*
X137651779Y-121922588D01*
X137651779Y-121922595D01*
X137671974Y-122101841D01*
X137671975Y-122101846D01*
X137731556Y-122272117D01*
X137737836Y-122282111D01*
X137756844Y-122348085D01*
X137756844Y-124981833D01*
X137756844Y-125119821D01*
X137756844Y-125119823D01*
X137756843Y-125119823D01*
X137783762Y-125255149D01*
X137783765Y-125255159D01*
X137836566Y-125382634D01*
X137913231Y-125497372D01*
X141174544Y-128758685D01*
X141174547Y-128758687D01*
X141261203Y-128816588D01*
X141289279Y-128835348D01*
X141289281Y-128835349D01*
X141289283Y-128835350D01*
X141416757Y-128888151D01*
X141416762Y-128888153D01*
X141416766Y-128888153D01*
X141416767Y-128888154D01*
X141552094Y-128915073D01*
X141552097Y-128915073D01*
X142162511Y-128915073D01*
X142229550Y-128934758D01*
X142250192Y-128951392D01*
X142903248Y-129604448D01*
X142936733Y-129665771D01*
X142931749Y-129735463D01*
X142889877Y-129791396D01*
X142829451Y-129815349D01*
X142753891Y-129823862D01*
X142753887Y-129823863D01*
X142583618Y-129883443D01*
X142430881Y-129979415D01*
X142345419Y-130064877D01*
X142284095Y-130098361D01*
X142214404Y-130093377D01*
X142170057Y-130064876D01*
X142070813Y-129965632D01*
X141918074Y-129869659D01*
X141747805Y-129810079D01*
X141747800Y-129810078D01*
X141561632Y-129789103D01*
X141561818Y-129787447D01*
X141503075Y-129770198D01*
X141457320Y-129717394D01*
X141452314Y-129702606D01*
X141452122Y-129702674D01*
X141412673Y-129589936D01*
X141390243Y-129525834D01*
X141294270Y-129373094D01*
X141166716Y-129245540D01*
X141152281Y-129236470D01*
X141013977Y-129149567D01*
X140843708Y-129089987D01*
X140843703Y-129089986D01*
X140664458Y-129069791D01*
X140664450Y-129069791D01*
X140485204Y-129089986D01*
X140485199Y-129089987D01*
X140314930Y-129149567D01*
X140162191Y-129245540D01*
X140034638Y-129373093D01*
X139938664Y-129525834D01*
X139879084Y-129696106D01*
X139866353Y-129809097D01*
X139839286Y-129873511D01*
X139809105Y-129900206D01*
X139697743Y-129970179D01*
X139697737Y-129970184D01*
X139570184Y-130097737D01*
X139474211Y-130250476D01*
X139414631Y-130420745D01*
X139414630Y-130420750D01*
X139394435Y-130599996D01*
X139394435Y-130600003D01*
X139414630Y-130779249D01*
X139414631Y-130779254D01*
X139474211Y-130949523D01*
X139567324Y-131097710D01*
X139570184Y-131102262D01*
X139697738Y-131229816D01*
X139788080Y-131286582D01*
X139843233Y-131321237D01*
X139850478Y-131325789D01*
X139912019Y-131347323D01*
X140020745Y-131385368D01*
X140020750Y-131385369D01*
X140199996Y-131405565D01*
X140200000Y-131405565D01*
X140200004Y-131405565D01*
X140379249Y-131385369D01*
X140379252Y-131385368D01*
X140379255Y-131385368D01*
X140549522Y-131325789D01*
X140702262Y-131229816D01*
X140798873Y-131133204D01*
X140860192Y-131099722D01*
X140929884Y-131104706D01*
X140974232Y-131133207D01*
X141066289Y-131225264D01*
X141133582Y-131267547D01*
X141202808Y-131311045D01*
X141219029Y-131321237D01*
X141277992Y-131341869D01*
X141389296Y-131380816D01*
X141389301Y-131380817D01*
X141568547Y-131401013D01*
X141568551Y-131401013D01*
X141568555Y-131401013D01*
X141747800Y-131380817D01*
X141747803Y-131380816D01*
X141747806Y-131380816D01*
X141918073Y-131321237D01*
X142070813Y-131225264D01*
X142156276Y-131139800D01*
X142217595Y-131106318D01*
X142287287Y-131111302D01*
X142331635Y-131139803D01*
X142430880Y-131239048D01*
X142476236Y-131267547D01*
X142577925Y-131331443D01*
X142583620Y-131335021D01*
X142727506Y-131385369D01*
X142753887Y-131394600D01*
X142753892Y-131394601D01*
X142933138Y-131414797D01*
X142933142Y-131414797D01*
X142933146Y-131414797D01*
X143112391Y-131394601D01*
X143112394Y-131394600D01*
X143112397Y-131394600D01*
X143282664Y-131335021D01*
X143435404Y-131239048D01*
X143562958Y-131111494D01*
X143658931Y-130958754D01*
X143718510Y-130788487D01*
X143719551Y-130779254D01*
X143727924Y-130704931D01*
X143732753Y-130662072D01*
X143759819Y-130597658D01*
X143817413Y-130558103D01*
X143887250Y-130555964D01*
X143903422Y-130561392D01*
X144022098Y-130610550D01*
X144033899Y-130612897D01*
X144039391Y-130613990D01*
X144039404Y-130613992D01*
X144039418Y-130613995D01*
X144086624Y-130623385D01*
X144157431Y-130637470D01*
X144157434Y-130637470D01*
X144757449Y-130637470D01*
X144823420Y-130656476D01*
X144833417Y-130662757D01*
X144833418Y-130662757D01*
X144833421Y-130662759D01*
X144953925Y-130704925D01*
X145003688Y-130722338D01*
X145003693Y-130722339D01*
X145182939Y-130742535D01*
X145182943Y-130742535D01*
X145182947Y-130742535D01*
X145362192Y-130722339D01*
X145362195Y-130722338D01*
X145362198Y-130722338D01*
X145532465Y-130662759D01*
X145685205Y-130566786D01*
X145812759Y-130439232D01*
X145908732Y-130286492D01*
X145968311Y-130116225D01*
X145970394Y-130097737D01*
X145988508Y-129936973D01*
X145988508Y-129936966D01*
X145968312Y-129757720D01*
X145968311Y-129757715D01*
X145960780Y-129736193D01*
X145908732Y-129587448D01*
X145812759Y-129434708D01*
X145685205Y-129307154D01*
X145622322Y-129267642D01*
X145532466Y-129211181D01*
X145362197Y-129151601D01*
X145362192Y-129151600D01*
X145182947Y-129131405D01*
X145182939Y-129131405D01*
X145003693Y-129151600D01*
X145003688Y-129151601D01*
X144833417Y-129211182D01*
X144823420Y-129217464D01*
X144757449Y-129236470D01*
X144567946Y-129236470D01*
X144500907Y-129216785D01*
X144480265Y-129200151D01*
X142950576Y-127670461D01*
X142950575Y-127670460D01*
X142835837Y-127593795D01*
X142708362Y-127540994D01*
X142708352Y-127540991D01*
X142573026Y-127514073D01*
X142573024Y-127514073D01*
X142573023Y-127514073D01*
X141962609Y-127514073D01*
X141895570Y-127494388D01*
X141874928Y-127477754D01*
X141048827Y-126651653D01*
X143939459Y-126651653D01*
X143939459Y-126651660D01*
X143959654Y-126830906D01*
X143959655Y-126830911D01*
X144019235Y-127001180D01*
X144049868Y-127049931D01*
X144115208Y-127153919D01*
X144242762Y-127281473D01*
X144395502Y-127377446D01*
X144565769Y-127437025D01*
X144565774Y-127437026D01*
X144745020Y-127457222D01*
X144745024Y-127457222D01*
X144745028Y-127457222D01*
X144924273Y-127437026D01*
X144924276Y-127437025D01*
X144924279Y-127437025D01*
X145094546Y-127377446D01*
X145247286Y-127281473D01*
X145374840Y-127153919D01*
X145470813Y-127001179D01*
X145530392Y-126830912D01*
X145530393Y-126830906D01*
X145550589Y-126651660D01*
X145550589Y-126651653D01*
X145547065Y-126620374D01*
X147629978Y-126620374D01*
X147629978Y-126620381D01*
X147650173Y-126799627D01*
X147650174Y-126799632D01*
X147709754Y-126969901D01*
X147760041Y-127049931D01*
X147805727Y-127122640D01*
X147933281Y-127250194D01*
X148086021Y-127346167D01*
X148188629Y-127382071D01*
X148256288Y-127405746D01*
X148256293Y-127405747D01*
X148435539Y-127425943D01*
X148435543Y-127425943D01*
X148435547Y-127425943D01*
X148614792Y-127405747D01*
X148614795Y-127405746D01*
X148614798Y-127405746D01*
X148785065Y-127346167D01*
X148937805Y-127250194D01*
X149065359Y-127122640D01*
X149161332Y-126969900D01*
X149220911Y-126799633D01*
X149227642Y-126739896D01*
X149241108Y-126620381D01*
X149241108Y-126620374D01*
X149220912Y-126441128D01*
X149220911Y-126441123D01*
X149202853Y-126389516D01*
X149161332Y-126270856D01*
X149065359Y-126118116D01*
X148937805Y-125990562D01*
X148863034Y-125943580D01*
X148785066Y-125894589D01*
X148614797Y-125835009D01*
X148614792Y-125835008D01*
X148435547Y-125814813D01*
X148435539Y-125814813D01*
X148256293Y-125835008D01*
X148256288Y-125835009D01*
X148086019Y-125894589D01*
X147933280Y-125990562D01*
X147805727Y-126118115D01*
X147709754Y-126270854D01*
X147650174Y-126441123D01*
X147650173Y-126441128D01*
X147629978Y-126620374D01*
X145547065Y-126620374D01*
X145530393Y-126472407D01*
X145530392Y-126472402D01*
X145501389Y-126389516D01*
X145470813Y-126302135D01*
X145374840Y-126149395D01*
X145247286Y-126021841D01*
X145197506Y-125990562D01*
X145094547Y-125925868D01*
X144924278Y-125866288D01*
X144924273Y-125866287D01*
X144745028Y-125846092D01*
X144745020Y-125846092D01*
X144565774Y-125866287D01*
X144565769Y-125866288D01*
X144395500Y-125925868D01*
X144242761Y-126021841D01*
X144115208Y-126149394D01*
X144019235Y-126302133D01*
X143959655Y-126472402D01*
X143959654Y-126472407D01*
X143939459Y-126651653D01*
X141048827Y-126651653D01*
X140925004Y-126527830D01*
X140891519Y-126466507D01*
X140896503Y-126396815D01*
X140938375Y-126340882D01*
X141003839Y-126316465D01*
X141012685Y-126316149D01*
X141024234Y-126316149D01*
X141189403Y-126275439D01*
X141268870Y-126233730D01*
X141340027Y-126196385D01*
X141340028Y-126196383D01*
X141340030Y-126196383D01*
X141467361Y-126083578D01*
X141563996Y-125943579D01*
X141624318Y-125784521D01*
X141644823Y-125615649D01*
X141624318Y-125446777D01*
X141616986Y-125427445D01*
X141577770Y-125324038D01*
X141563996Y-125287719D01*
X141541514Y-125255149D01*
X141529654Y-125237967D01*
X141467361Y-125147720D01*
X141340030Y-125034915D01*
X141340027Y-125034912D01*
X141189404Y-124955859D01*
X141024234Y-124915149D01*
X140854122Y-124915149D01*
X140688951Y-124955859D01*
X140538328Y-125034912D01*
X140410994Y-125147721D01*
X140314360Y-125287717D01*
X140254038Y-125446774D01*
X140254037Y-125446779D01*
X140240332Y-125559648D01*
X140212709Y-125623825D01*
X140154775Y-125662881D01*
X140084922Y-125664416D01*
X140029555Y-125632381D01*
X139194163Y-124796989D01*
X139160678Y-124735666D01*
X139157844Y-124709308D01*
X139157844Y-122723215D01*
X139177529Y-122656176D01*
X139230333Y-122610421D01*
X139299491Y-122600477D01*
X139335651Y-122611497D01*
X139341861Y-122614487D01*
X139341865Y-122614490D01*
X139460997Y-122656176D01*
X139512132Y-122674069D01*
X139512137Y-122674070D01*
X139691383Y-122694266D01*
X139691387Y-122694266D01*
X139691390Y-122694266D01*
X139805076Y-122681456D01*
X139833285Y-122678278D01*
X139902107Y-122690332D01*
X139953487Y-122737681D01*
X139971111Y-122805292D01*
X139949385Y-122871697D01*
X139913142Y-122906491D01*
X139836918Y-122954386D01*
X139836915Y-122954388D01*
X139709362Y-123081941D01*
X139613389Y-123234680D01*
X139553809Y-123404949D01*
X139553808Y-123404954D01*
X139533613Y-123584200D01*
X139533613Y-123584207D01*
X139553808Y-123763453D01*
X139553809Y-123763458D01*
X139613389Y-123933727D01*
X139658965Y-124006260D01*
X139709362Y-124086466D01*
X139836916Y-124214020D01*
X139989656Y-124309993D01*
X140104584Y-124350208D01*
X140159923Y-124369572D01*
X140159928Y-124369573D01*
X140339174Y-124389769D01*
X140339178Y-124389769D01*
X140339182Y-124389769D01*
X140518427Y-124369573D01*
X140518430Y-124369572D01*
X140518433Y-124369572D01*
X140688700Y-124309993D01*
X140841440Y-124214020D01*
X140968994Y-124086466D01*
X141064967Y-123933726D01*
X141124546Y-123763459D01*
X141124547Y-123763453D01*
X141144743Y-123584207D01*
X141144743Y-123584200D01*
X141124547Y-123404954D01*
X141124546Y-123404949D01*
X141064966Y-123234680D01*
X140968993Y-123081941D01*
X140841440Y-122954388D01*
X140688701Y-122858415D01*
X140518432Y-122798835D01*
X140518427Y-122798834D01*
X140339182Y-122778639D01*
X140339181Y-122778639D01*
X140339179Y-122778639D01*
X140339178Y-122778639D01*
X140313204Y-122781565D01*
X140265383Y-122786953D01*
X140196561Y-122774897D01*
X140145182Y-122727547D01*
X140127559Y-122659936D01*
X140149286Y-122593531D01*
X140203466Y-122549414D01*
X140203604Y-122549356D01*
X140299884Y-122509476D01*
X140414616Y-122432815D01*
X142031163Y-120816267D01*
X142092484Y-120782784D01*
X142162175Y-120787768D01*
X142218109Y-120829640D01*
X142242526Y-120895104D01*
X142235884Y-120944904D01*
X142186379Y-121086382D01*
X142186377Y-121086390D01*
X142166182Y-121265636D01*
X142166182Y-121265643D01*
X142186377Y-121444889D01*
X142186378Y-121444894D01*
X142245958Y-121615163D01*
X142266370Y-121647648D01*
X142341931Y-121767902D01*
X142469485Y-121895456D01*
X142559827Y-121952222D01*
X142607511Y-121982184D01*
X142622225Y-121991429D01*
X142792492Y-122051008D01*
X142792497Y-122051009D01*
X142971743Y-122071205D01*
X142971747Y-122071205D01*
X142971751Y-122071205D01*
X143150996Y-122051009D01*
X143150999Y-122051008D01*
X143151002Y-122051008D01*
X143321269Y-121991429D01*
X143474009Y-121895456D01*
X143539796Y-121829669D01*
X143601119Y-121796184D01*
X143670811Y-121801168D01*
X143715158Y-121829669D01*
X146882406Y-124996917D01*
X146911766Y-125043643D01*
X146947985Y-125147149D01*
X147015846Y-125255149D01*
X147043960Y-125299892D01*
X147171514Y-125427446D01*
X147324254Y-125523419D01*
X147427791Y-125559648D01*
X147494521Y-125582998D01*
X147494526Y-125582999D01*
X147673772Y-125603195D01*
X147673776Y-125603195D01*
X147673780Y-125603195D01*
X147853025Y-125582999D01*
X147853028Y-125582998D01*
X147853031Y-125582998D01*
X148023298Y-125523419D01*
X148176038Y-125427446D01*
X148303592Y-125299892D01*
X148399565Y-125147152D01*
X148459144Y-124976885D01*
X148466100Y-124915149D01*
X148479341Y-124797633D01*
X148479341Y-124797626D01*
X148459145Y-124618380D01*
X148459144Y-124618375D01*
X148425485Y-124522184D01*
X148399565Y-124448108D01*
X148303592Y-124295368D01*
X148176038Y-124167814D01*
X148046574Y-124086466D01*
X148023295Y-124071839D01*
X147919789Y-124035620D01*
X147873063Y-124006260D01*
X144636819Y-120770016D01*
X144603334Y-120708693D01*
X144600500Y-120682335D01*
X144600500Y-120349996D01*
X146809789Y-120349996D01*
X146809789Y-120350003D01*
X146829984Y-120529249D01*
X146829985Y-120529254D01*
X146889565Y-120699523D01*
X146962922Y-120816269D01*
X146985538Y-120852262D01*
X147113092Y-120979816D01*
X147192619Y-121029786D01*
X147241757Y-121060662D01*
X147265832Y-121075789D01*
X147436099Y-121135368D01*
X147436104Y-121135369D01*
X147615350Y-121155565D01*
X147615354Y-121155565D01*
X147615358Y-121155565D01*
X147794603Y-121135369D01*
X147794606Y-121135368D01*
X147794609Y-121135368D01*
X147964876Y-121075789D01*
X148117616Y-120979816D01*
X148245170Y-120852262D01*
X148246591Y-120850000D01*
X150285034Y-120850000D01*
X150305538Y-121018869D01*
X150305539Y-121018874D01*
X150365861Y-121177931D01*
X150378888Y-121196803D01*
X150462496Y-121317929D01*
X150539828Y-121386439D01*
X150589829Y-121430736D01*
X150740452Y-121509789D01*
X150740454Y-121509790D01*
X150905623Y-121550500D01*
X151075735Y-121550500D01*
X151240904Y-121509790D01*
X151364552Y-121444894D01*
X151391528Y-121430736D01*
X151391529Y-121430734D01*
X151391531Y-121430734D01*
X151518862Y-121317929D01*
X151615497Y-121177930D01*
X151675819Y-121018872D01*
X151696324Y-120850000D01*
X151675819Y-120681128D01*
X151615497Y-120522070D01*
X151598359Y-120497242D01*
X151547709Y-120423863D01*
X151518862Y-120382071D01*
X151391531Y-120269266D01*
X151391528Y-120269263D01*
X151240905Y-120190210D01*
X151075735Y-120149500D01*
X150905623Y-120149500D01*
X150740452Y-120190210D01*
X150589829Y-120269263D01*
X150462495Y-120382072D01*
X150365861Y-120522068D01*
X150305539Y-120681125D01*
X150305538Y-120681130D01*
X150285034Y-120850000D01*
X148246591Y-120850000D01*
X148341143Y-120699522D01*
X148400722Y-120529255D01*
X148406241Y-120480272D01*
X148420919Y-120350003D01*
X148420919Y-120349996D01*
X148400723Y-120170750D01*
X148400722Y-120170745D01*
X148384647Y-120124805D01*
X148341143Y-120000478D01*
X148333781Y-119988762D01*
X148264327Y-119878226D01*
X148245170Y-119847738D01*
X148117616Y-119720184D01*
X148034795Y-119668144D01*
X147964877Y-119624211D01*
X147794608Y-119564631D01*
X147794603Y-119564630D01*
X147615358Y-119544435D01*
X147615350Y-119544435D01*
X147436104Y-119564630D01*
X147436099Y-119564631D01*
X147265830Y-119624211D01*
X147113091Y-119720184D01*
X146985538Y-119847737D01*
X146889565Y-120000476D01*
X146829985Y-120170745D01*
X146829984Y-120170750D01*
X146809789Y-120349996D01*
X144600500Y-120349996D01*
X144600500Y-119291942D01*
X153203675Y-119291942D01*
X153224179Y-119460811D01*
X153224180Y-119460816D01*
X153284502Y-119619873D01*
X153317821Y-119668143D01*
X153381137Y-119759871D01*
X153508468Y-119872676D01*
X153508469Y-119872676D01*
X153508472Y-119872679D01*
X153514642Y-119876938D01*
X153513752Y-119878226D01*
X153557695Y-119920743D01*
X153573669Y-119988762D01*
X153550334Y-120054620D01*
X153532084Y-120074770D01*
X153475607Y-120124804D01*
X153378973Y-120264801D01*
X153318651Y-120423858D01*
X153318650Y-120423863D01*
X153298146Y-120592733D01*
X153318650Y-120761602D01*
X153318651Y-120761607D01*
X153378973Y-120920664D01*
X153441266Y-121010910D01*
X153475608Y-121060662D01*
X153559934Y-121135368D01*
X153602941Y-121173469D01*
X153753564Y-121252522D01*
X153753566Y-121252523D01*
X153918735Y-121293233D01*
X154088847Y-121293233D01*
X154254016Y-121252523D01*
X154333483Y-121210814D01*
X154404640Y-121173469D01*
X154404641Y-121173467D01*
X154404643Y-121173467D01*
X154531974Y-121060662D01*
X154628609Y-120920663D01*
X154688931Y-120761605D01*
X154709436Y-120592733D01*
X154688931Y-120423861D01*
X154685198Y-120414019D01*
X154651459Y-120325054D01*
X154628609Y-120264803D01*
X154531974Y-120124804D01*
X154404643Y-120011999D01*
X154404641Y-120011998D01*
X154404638Y-120011995D01*
X154398469Y-120007737D01*
X154399357Y-120006450D01*
X154355411Y-119963923D01*
X154339441Y-119895903D01*
X154362781Y-119830047D01*
X154381028Y-119809903D01*
X154437502Y-119759872D01*
X154459693Y-119727724D01*
X154534138Y-119619872D01*
X154594460Y-119460814D01*
X154614965Y-119291942D01*
X154594460Y-119123070D01*
X154534138Y-118964012D01*
X154519186Y-118942351D01*
X154463418Y-118861557D01*
X154437503Y-118824013D01*
X154310172Y-118711208D01*
X154310169Y-118711205D01*
X154159546Y-118632152D01*
X153994376Y-118591442D01*
X153824264Y-118591442D01*
X153659093Y-118632152D01*
X153508470Y-118711205D01*
X153381136Y-118824014D01*
X153284502Y-118964010D01*
X153224180Y-119123067D01*
X153224179Y-119123072D01*
X153203675Y-119291942D01*
X144600500Y-119291942D01*
X144600500Y-116922046D01*
X146399798Y-116922046D01*
X146420302Y-117090915D01*
X146420303Y-117090920D01*
X146480625Y-117249977D01*
X146510845Y-117293757D01*
X146577260Y-117389975D01*
X146682948Y-117483606D01*
X146704593Y-117502782D01*
X146855216Y-117581835D01*
X146855218Y-117581836D01*
X146985625Y-117613978D01*
X147046005Y-117649134D01*
X147057999Y-117663934D01*
X147087168Y-117706192D01*
X147214503Y-117819001D01*
X147365126Y-117898054D01*
X147365128Y-117898055D01*
X147530297Y-117938765D01*
X147700409Y-117938765D01*
X147865578Y-117898055D01*
X147945045Y-117856346D01*
X148016202Y-117819001D01*
X148016203Y-117818999D01*
X148016205Y-117818999D01*
X148143536Y-117706194D01*
X148240171Y-117566195D01*
X148300493Y-117407137D01*
X148320998Y-117238265D01*
X148300493Y-117069393D01*
X148240171Y-116910335D01*
X148236049Y-116904363D01*
X148214166Y-116838008D01*
X148231632Y-116770356D01*
X148280470Y-116724128D01*
X148381057Y-116671336D01*
X148508388Y-116558531D01*
X148569507Y-116469986D01*
X150116720Y-116469986D01*
X150137224Y-116638855D01*
X150137225Y-116638860D01*
X150197547Y-116797917D01*
X150251804Y-116876520D01*
X150294182Y-116937915D01*
X150399870Y-117031546D01*
X150421515Y-117050722D01*
X150572138Y-117129775D01*
X150572140Y-117129776D01*
X150737309Y-117170486D01*
X150907421Y-117170486D01*
X151072590Y-117129776D01*
X151168687Y-117079340D01*
X151223214Y-117050722D01*
X151223215Y-117050720D01*
X151223217Y-117050720D01*
X151350548Y-116937915D01*
X151447183Y-116797916D01*
X151507505Y-116638858D01*
X151528010Y-116469986D01*
X151507505Y-116301114D01*
X151447183Y-116142056D01*
X151350548Y-116002057D01*
X151275178Y-115935285D01*
X151238053Y-115876098D01*
X151238821Y-115806233D01*
X151277238Y-115747873D01*
X151341109Y-115719548D01*
X151387081Y-115722074D01*
X151484138Y-115745997D01*
X151654250Y-115745997D01*
X151819419Y-115705287D01*
X151970046Y-115626231D01*
X152011772Y-115589264D01*
X152075003Y-115559544D01*
X152144267Y-115568727D01*
X152176225Y-115589265D01*
X152181294Y-115593756D01*
X152181295Y-115593757D01*
X152213935Y-115622673D01*
X152308628Y-115706564D01*
X152444395Y-115777820D01*
X152459253Y-115785618D01*
X152624422Y-115826328D01*
X152794534Y-115826328D01*
X152959703Y-115785618D01*
X153085588Y-115719548D01*
X153110327Y-115706564D01*
X153110328Y-115706562D01*
X153110330Y-115706562D01*
X153237661Y-115593757D01*
X153334296Y-115453758D01*
X153394618Y-115294700D01*
X153415123Y-115125828D01*
X153394618Y-114956956D01*
X153334296Y-114797898D01*
X153303827Y-114753757D01*
X153261423Y-114692324D01*
X153237661Y-114657899D01*
X153142794Y-114573854D01*
X153110327Y-114545091D01*
X152959704Y-114466038D01*
X152794534Y-114425328D01*
X152624422Y-114425328D01*
X152459251Y-114466038D01*
X152308627Y-114545092D01*
X152308625Y-114545093D01*
X152266898Y-114582060D01*
X152203665Y-114611780D01*
X152134402Y-114602595D01*
X152102446Y-114582059D01*
X152068884Y-114552326D01*
X152028353Y-114516418D01*
X151970043Y-114464760D01*
X151819420Y-114385707D01*
X151654250Y-114344997D01*
X151484138Y-114344997D01*
X151318967Y-114385707D01*
X151168344Y-114464760D01*
X151041010Y-114577569D01*
X150944376Y-114717565D01*
X150884054Y-114876622D01*
X150884053Y-114876627D01*
X150863549Y-115045497D01*
X150884053Y-115214366D01*
X150884054Y-115214371D01*
X150944376Y-115373428D01*
X151006669Y-115463674D01*
X151041011Y-115513426D01*
X151116379Y-115580196D01*
X151153504Y-115639383D01*
X151152737Y-115709249D01*
X151114320Y-115767609D01*
X151050450Y-115795934D01*
X151004477Y-115793407D01*
X150907422Y-115769486D01*
X150907421Y-115769486D01*
X150737309Y-115769486D01*
X150572138Y-115810196D01*
X150421515Y-115889249D01*
X150294181Y-116002058D01*
X150197547Y-116142054D01*
X150137225Y-116301111D01*
X150137224Y-116301116D01*
X150116720Y-116469986D01*
X148569507Y-116469986D01*
X148605023Y-116418532D01*
X148665345Y-116259474D01*
X148685850Y-116090602D01*
X148665345Y-115921730D01*
X148652828Y-115888724D01*
X148647461Y-115819061D01*
X148680609Y-115757555D01*
X148741747Y-115723734D01*
X148768770Y-115720754D01*
X148939084Y-115720754D01*
X149104253Y-115680044D01*
X149206784Y-115626231D01*
X149254877Y-115600990D01*
X149254878Y-115600988D01*
X149254880Y-115600988D01*
X149382211Y-115488183D01*
X149478846Y-115348184D01*
X149539168Y-115189126D01*
X149559673Y-115020254D01*
X149539168Y-114851382D01*
X149478846Y-114692324D01*
X149469318Y-114678521D01*
X149416910Y-114602595D01*
X149382211Y-114552325D01*
X149283370Y-114464760D01*
X149254877Y-114439517D01*
X149104254Y-114360464D01*
X148962663Y-114325565D01*
X148902282Y-114290409D01*
X148870494Y-114228189D01*
X148877390Y-114158661D01*
X148891904Y-114135299D01*
X148890588Y-114134391D01*
X148907485Y-114109911D01*
X148991484Y-113988219D01*
X149051806Y-113829161D01*
X149072311Y-113660289D01*
X149051806Y-113491417D01*
X149046192Y-113476615D01*
X148991483Y-113332357D01*
X148928475Y-113241076D01*
X148894849Y-113192360D01*
X148767518Y-113079555D01*
X148767515Y-113079552D01*
X148616892Y-113000499D01*
X148451722Y-112959789D01*
X148281610Y-112959789D01*
X148116439Y-113000499D01*
X147965815Y-113079553D01*
X147965813Y-113079555D01*
X147909312Y-113129610D01*
X147846079Y-113159331D01*
X147776816Y-113150147D01*
X147744860Y-113129611D01*
X147743347Y-113128270D01*
X147743345Y-113128269D01*
X147743344Y-113128268D01*
X147743340Y-113128265D01*
X147592721Y-113049214D01*
X147427551Y-113008504D01*
X147257439Y-113008504D01*
X147092268Y-113049214D01*
X146941645Y-113128267D01*
X146814311Y-113241076D01*
X146717677Y-113381072D01*
X146657355Y-113540129D01*
X146657354Y-113540134D01*
X146636850Y-113709004D01*
X146657354Y-113877873D01*
X146657355Y-113877878D01*
X146717677Y-114036935D01*
X146768050Y-114109911D01*
X146805662Y-114164402D01*
X146814313Y-114176934D01*
X146935959Y-114284703D01*
X146951935Y-114310173D01*
X146992220Y-114316418D01*
X146997099Y-114318844D01*
X147092270Y-114368794D01*
X147257439Y-114409504D01*
X147427551Y-114409504D01*
X147592720Y-114368794D01*
X147742069Y-114290409D01*
X147743344Y-114289740D01*
X147743345Y-114289738D01*
X147743347Y-114289738D01*
X147799849Y-114239681D01*
X147863079Y-114209962D01*
X147932343Y-114219144D01*
X147964301Y-114239683D01*
X147965811Y-114241021D01*
X147965820Y-114241027D01*
X148114088Y-114318844D01*
X148116441Y-114320079D01*
X148258030Y-114354977D01*
X148318410Y-114390133D01*
X148350199Y-114452352D01*
X148343303Y-114521881D01*
X148328824Y-114545267D01*
X148330106Y-114546152D01*
X148229210Y-114692322D01*
X148168888Y-114851379D01*
X148168887Y-114851384D01*
X148148383Y-115020254D01*
X148168887Y-115189123D01*
X148168889Y-115189131D01*
X148181405Y-115222132D01*
X148186772Y-115291795D01*
X148153624Y-115353301D01*
X148092486Y-115387122D01*
X148065463Y-115390102D01*
X147895149Y-115390102D01*
X147729978Y-115430812D01*
X147579355Y-115509865D01*
X147452021Y-115622674D01*
X147355387Y-115762670D01*
X147295065Y-115921727D01*
X147295064Y-115921732D01*
X147274560Y-116090602D01*
X147274560Y-116097546D01*
X147254875Y-116164585D01*
X147202071Y-116210340D01*
X147150560Y-116221546D01*
X147020387Y-116221546D01*
X146855216Y-116262256D01*
X146704593Y-116341309D01*
X146577259Y-116454118D01*
X146480625Y-116594114D01*
X146420303Y-116753171D01*
X146420302Y-116753176D01*
X146399798Y-116922046D01*
X144600500Y-116922046D01*
X144600500Y-115097155D01*
X145745066Y-115097155D01*
X145765570Y-115266024D01*
X145765571Y-115266029D01*
X145825893Y-115425086D01*
X145872636Y-115492803D01*
X145922528Y-115565084D01*
X146006395Y-115639383D01*
X146049861Y-115677891D01*
X146183201Y-115747873D01*
X146200486Y-115756945D01*
X146365655Y-115797655D01*
X146535767Y-115797655D01*
X146700936Y-115756945D01*
X146799363Y-115705286D01*
X146851560Y-115677891D01*
X146851561Y-115677889D01*
X146851563Y-115677889D01*
X146978894Y-115565084D01*
X147075529Y-115425085D01*
X147135851Y-115266027D01*
X147156356Y-115097155D01*
X147135851Y-114928283D01*
X147075529Y-114769225D01*
X146978894Y-114629226D01*
X146978892Y-114629224D01*
X146857246Y-114521455D01*
X146841269Y-114495984D01*
X146800985Y-114489740D01*
X146796106Y-114487314D01*
X146700937Y-114437365D01*
X146535767Y-114396655D01*
X146365655Y-114396655D01*
X146200484Y-114437365D01*
X146049861Y-114516418D01*
X145922527Y-114629227D01*
X145825893Y-114769223D01*
X145765571Y-114928280D01*
X145765570Y-114928285D01*
X145745066Y-115097155D01*
X144600500Y-115097155D01*
X144600500Y-114470917D01*
X144620185Y-114403878D01*
X144672989Y-114358123D01*
X144742147Y-114348179D01*
X144754166Y-114350518D01*
X144846065Y-114373169D01*
X145016177Y-114373169D01*
X145181346Y-114332459D01*
X145262743Y-114289738D01*
X145331970Y-114253405D01*
X145331971Y-114253403D01*
X145331973Y-114253403D01*
X145459304Y-114140598D01*
X145555939Y-114000599D01*
X145616261Y-113841541D01*
X145636766Y-113672669D01*
X145632959Y-113641320D01*
X145644418Y-113572400D01*
X145691321Y-113520613D01*
X145758777Y-113502405D01*
X145785724Y-113505977D01*
X145831769Y-113517326D01*
X145831771Y-113517326D01*
X146001881Y-113517326D01*
X146167050Y-113476616D01*
X146246517Y-113434907D01*
X146317674Y-113397562D01*
X146317675Y-113397560D01*
X146317677Y-113397560D01*
X146445008Y-113284755D01*
X146541643Y-113144756D01*
X146601965Y-112985698D01*
X146622470Y-112816826D01*
X146601965Y-112647954D01*
X146541643Y-112488896D01*
X146445008Y-112348897D01*
X146317677Y-112236092D01*
X146317674Y-112236089D01*
X146167051Y-112157036D01*
X146001881Y-112116326D01*
X145831769Y-112116326D01*
X145666598Y-112157036D01*
X145515975Y-112236089D01*
X145388641Y-112348898D01*
X145292007Y-112488894D01*
X145231685Y-112647951D01*
X145231684Y-112647956D01*
X145211180Y-112816826D01*
X145214986Y-112848173D01*
X145203525Y-112917096D01*
X145156621Y-112968882D01*
X145089165Y-112987089D01*
X145062216Y-112983516D01*
X145016178Y-112972169D01*
X145016177Y-112972169D01*
X144846065Y-112972169D01*
X144846063Y-112972169D01*
X144754174Y-112994817D01*
X144684372Y-112991747D01*
X144627310Y-112951427D01*
X144601105Y-112886658D01*
X144600500Y-112874420D01*
X144600500Y-110442955D01*
X144620185Y-110375916D01*
X144647179Y-110352525D01*
X144641722Y-110349185D01*
X144805578Y-110349185D01*
X144805703Y-110349242D01*
X144843477Y-110408020D01*
X144847596Y-110428008D01*
X144858829Y-110520525D01*
X144858830Y-110520530D01*
X144919152Y-110679587D01*
X144931735Y-110697816D01*
X145015787Y-110819585D01*
X145121475Y-110913216D01*
X145143120Y-110932392D01*
X145286905Y-111007856D01*
X145293745Y-111011446D01*
X145458914Y-111052156D01*
X145629026Y-111052156D01*
X145794195Y-111011446D01*
X145873662Y-110969737D01*
X145944819Y-110932392D01*
X145944820Y-110932390D01*
X145944822Y-110932390D01*
X146072153Y-110819585D01*
X146168788Y-110679586D01*
X146198971Y-110600000D01*
X147161021Y-110600000D01*
X147181525Y-110768869D01*
X147181526Y-110768874D01*
X147241848Y-110927931D01*
X147297017Y-111007856D01*
X147338483Y-111067929D01*
X147411711Y-111132803D01*
X147465816Y-111180736D01*
X147616439Y-111259789D01*
X147616441Y-111259790D01*
X147781610Y-111300500D01*
X147951722Y-111300500D01*
X148116891Y-111259790D01*
X148267518Y-111180734D01*
X148304330Y-111148121D01*
X148367561Y-111118400D01*
X148436825Y-111127582D01*
X148490129Y-111172754D01*
X148509653Y-111225989D01*
X148514859Y-111268869D01*
X148514860Y-111268874D01*
X148575182Y-111427931D01*
X148624853Y-111499890D01*
X148671817Y-111567929D01*
X148750866Y-111637960D01*
X148799150Y-111680736D01*
X148844732Y-111704659D01*
X148894944Y-111753243D01*
X148910919Y-111821262D01*
X148887584Y-111887120D01*
X148879031Y-111896567D01*
X148879541Y-111897019D01*
X148874568Y-111902631D01*
X148777932Y-112042631D01*
X148717610Y-112201688D01*
X148717609Y-112201693D01*
X148697105Y-112370563D01*
X148717609Y-112539432D01*
X148717610Y-112539437D01*
X148777932Y-112698494D01*
X148796623Y-112725572D01*
X148874567Y-112838492D01*
X148934996Y-112892027D01*
X149001900Y-112951299D01*
X149111223Y-113008676D01*
X149152525Y-113030353D01*
X149317694Y-113071063D01*
X149487806Y-113071063D01*
X149652975Y-113030353D01*
X149738063Y-112985695D01*
X149803599Y-112951299D01*
X149803600Y-112951297D01*
X149803602Y-112951297D01*
X149930933Y-112838492D01*
X150027568Y-112698493D01*
X150087890Y-112539435D01*
X150101895Y-112424098D01*
X151129128Y-112424098D01*
X151149632Y-112592967D01*
X151149633Y-112592972D01*
X151209955Y-112752029D01*
X151254682Y-112816826D01*
X151306590Y-112892027D01*
X151383078Y-112959789D01*
X151433923Y-113004834D01*
X151576288Y-113079553D01*
X151584548Y-113083888D01*
X151749717Y-113124598D01*
X151919829Y-113124598D01*
X152084998Y-113083888D01*
X152175928Y-113036164D01*
X152235622Y-113004834D01*
X152235623Y-113004832D01*
X152235625Y-113004832D01*
X152362956Y-112892027D01*
X152459591Y-112752028D01*
X152519913Y-112592970D01*
X152540418Y-112424098D01*
X152519913Y-112255226D01*
X152507807Y-112223306D01*
X152459590Y-112096166D01*
X152392753Y-111999337D01*
X152362956Y-111956169D01*
X152235625Y-111843364D01*
X152235622Y-111843361D01*
X152084999Y-111764308D01*
X151919829Y-111723598D01*
X151749717Y-111723598D01*
X151584546Y-111764308D01*
X151433923Y-111843361D01*
X151306589Y-111956170D01*
X151209955Y-112096166D01*
X151149633Y-112255223D01*
X151149632Y-112255228D01*
X151129128Y-112424098D01*
X150101895Y-112424098D01*
X150108395Y-112370563D01*
X150087890Y-112201691D01*
X150027568Y-112042633D01*
X149930933Y-111902634D01*
X149803602Y-111789829D01*
X149781312Y-111778130D01*
X149758016Y-111765903D01*
X149707804Y-111717318D01*
X149691830Y-111649299D01*
X149715166Y-111583441D01*
X149723730Y-111574006D01*
X149723209Y-111573544D01*
X149728181Y-111567931D01*
X149728181Y-111567930D01*
X149728183Y-111567929D01*
X149824818Y-111427930D01*
X149885140Y-111268872D01*
X149905645Y-111100000D01*
X149885140Y-110931128D01*
X149824818Y-110772070D01*
X149822608Y-110768869D01*
X149790476Y-110722318D01*
X149728183Y-110632071D01*
X149600852Y-110519266D01*
X149600849Y-110519263D01*
X149450226Y-110440210D01*
X149285056Y-110399500D01*
X149114944Y-110399500D01*
X148949773Y-110440210D01*
X148799149Y-110519264D01*
X148799147Y-110519266D01*
X148762334Y-110551879D01*
X148699100Y-110581600D01*
X148629837Y-110572416D01*
X148576534Y-110527243D01*
X148557012Y-110474010D01*
X148551806Y-110431128D01*
X148491484Y-110272070D01*
X148483398Y-110260356D01*
X148429852Y-110182781D01*
X148394849Y-110132071D01*
X148299982Y-110048026D01*
X148267515Y-110019263D01*
X148116892Y-109940210D01*
X147951722Y-109899500D01*
X147781610Y-109899500D01*
X147616439Y-109940210D01*
X147465816Y-110019263D01*
X147338482Y-110132072D01*
X147241848Y-110272068D01*
X147181526Y-110431125D01*
X147181525Y-110431130D01*
X147161021Y-110600000D01*
X146198971Y-110600000D01*
X146229110Y-110520528D01*
X146249615Y-110351656D01*
X146229110Y-110182784D01*
X146168788Y-110023726D01*
X146165709Y-110019266D01*
X146134446Y-109973974D01*
X146072153Y-109883727D01*
X145944822Y-109770922D01*
X145944819Y-109770919D01*
X145794196Y-109691866D01*
X145629026Y-109651156D01*
X145458914Y-109651156D01*
X145293743Y-109691866D01*
X145143120Y-109770919D01*
X145015786Y-109883728D01*
X144919152Y-110023724D01*
X144858830Y-110182781D01*
X144858829Y-110182786D01*
X144847596Y-110275303D01*
X144819974Y-110339481D01*
X144805578Y-110349185D01*
X144641722Y-110349185D01*
X144632593Y-110343598D01*
X144602179Y-110280695D01*
X144600500Y-110260356D01*
X144600500Y-108503757D01*
X144595805Y-108480157D01*
X144595804Y-108480156D01*
X144595804Y-108480152D01*
X144573580Y-108368423D01*
X144557576Y-108329786D01*
X144520777Y-108240943D01*
X144444112Y-108126205D01*
X144444111Y-108126204D01*
X143931175Y-107613269D01*
X143901814Y-107566542D01*
X143898225Y-107556286D01*
X143865597Y-107463037D01*
X143769624Y-107310297D01*
X143642070Y-107182743D01*
X143600890Y-107156868D01*
X151312452Y-107156868D01*
X151312452Y-107156875D01*
X151332647Y-107336121D01*
X151332648Y-107336126D01*
X151392228Y-107506395D01*
X151446807Y-107593256D01*
X151488201Y-107659134D01*
X151615755Y-107786688D01*
X151768495Y-107882661D01*
X151938762Y-107942240D01*
X151938767Y-107942241D01*
X152118013Y-107962437D01*
X152118017Y-107962437D01*
X152118021Y-107962437D01*
X152297266Y-107942241D01*
X152297269Y-107942240D01*
X152297272Y-107942240D01*
X152467539Y-107882661D01*
X152620279Y-107786688D01*
X152747833Y-107659134D01*
X152843806Y-107506394D01*
X152903385Y-107336127D01*
X152903386Y-107336121D01*
X152923582Y-107156875D01*
X152923582Y-107156868D01*
X152903386Y-106977622D01*
X152903385Y-106977617D01*
X152880369Y-106911841D01*
X152843806Y-106807350D01*
X152834589Y-106792682D01*
X152802856Y-106742179D01*
X152747833Y-106654610D01*
X152620279Y-106527056D01*
X152467540Y-106431083D01*
X152297271Y-106371503D01*
X152297266Y-106371502D01*
X152118021Y-106351307D01*
X152118013Y-106351307D01*
X151938767Y-106371502D01*
X151938762Y-106371503D01*
X151768493Y-106431083D01*
X151615754Y-106527056D01*
X151488201Y-106654609D01*
X151392228Y-106807348D01*
X151332648Y-106977617D01*
X151332647Y-106977622D01*
X151312452Y-107156868D01*
X143600890Y-107156868D01*
X143489331Y-107086770D01*
X143319062Y-107027190D01*
X143319057Y-107027189D01*
X143139812Y-107006994D01*
X143139804Y-107006994D01*
X142960558Y-107027189D01*
X142960553Y-107027190D01*
X142790284Y-107086770D01*
X142637545Y-107182743D01*
X142509992Y-107310296D01*
X142414019Y-107463035D01*
X142354439Y-107633304D01*
X142354438Y-107633309D01*
X142334243Y-107812555D01*
X142334243Y-107812562D01*
X142354438Y-107991808D01*
X142354439Y-107991813D01*
X142414019Y-108162082D01*
X142463569Y-108240940D01*
X142509992Y-108314821D01*
X142637546Y-108442375D01*
X142790286Y-108538348D01*
X142893792Y-108574566D01*
X142940518Y-108603926D01*
X143163181Y-108826589D01*
X143196666Y-108887912D01*
X143199500Y-108914270D01*
X143199500Y-111374243D01*
X143179815Y-111441282D01*
X143127011Y-111487037D01*
X143057853Y-111496981D01*
X143034545Y-111491285D01*
X142882098Y-111437941D01*
X142882093Y-111437940D01*
X142702848Y-111417745D01*
X142702840Y-111417745D01*
X142523594Y-111437940D01*
X142523589Y-111437941D01*
X142353320Y-111497521D01*
X142200581Y-111593494D01*
X142073028Y-111721047D01*
X141977055Y-111873786D01*
X141917475Y-112044055D01*
X141917474Y-112044060D01*
X141897279Y-112223306D01*
X141897279Y-112223313D01*
X141917474Y-112402559D01*
X141917475Y-112402564D01*
X141977055Y-112572833D01*
X142056013Y-112698493D01*
X142073028Y-112725572D01*
X142200582Y-112853126D01*
X142262493Y-112892027D01*
X142302389Y-112917096D01*
X142353322Y-112949099D01*
X142523092Y-113008504D01*
X142523589Y-113008678D01*
X142523594Y-113008679D01*
X142702840Y-113028875D01*
X142702844Y-113028875D01*
X142702848Y-113028875D01*
X142882093Y-113008679D01*
X142882095Y-113008678D01*
X142882099Y-113008678D01*
X142882102Y-113008676D01*
X142882106Y-113008676D01*
X143034545Y-112955335D01*
X143104324Y-112951773D01*
X143164951Y-112986501D01*
X143197179Y-113048494D01*
X143199500Y-113072376D01*
X143199500Y-116809481D01*
X143179815Y-116876520D01*
X143127011Y-116922275D01*
X143057853Y-116932219D01*
X142994297Y-116903194D01*
X142987819Y-116897162D01*
X140288249Y-114197592D01*
X140254764Y-114136269D01*
X140251930Y-114109911D01*
X140251930Y-110666988D01*
X140270938Y-110601014D01*
X140277217Y-110591020D01*
X140277216Y-110591020D01*
X140277219Y-110591017D01*
X140336798Y-110420750D01*
X140336799Y-110420744D01*
X140356995Y-110241498D01*
X140356995Y-110241491D01*
X140336799Y-110062245D01*
X140336798Y-110062240D01*
X140277218Y-109891971D01*
X140238012Y-109829575D01*
X140181246Y-109739233D01*
X140053692Y-109611679D01*
X139900953Y-109515706D01*
X139730684Y-109456126D01*
X139730679Y-109456125D01*
X139551434Y-109435930D01*
X139551426Y-109435930D01*
X139372180Y-109456125D01*
X139372175Y-109456126D01*
X139201906Y-109515706D01*
X139049167Y-109611679D01*
X138921614Y-109739232D01*
X138825641Y-109891971D01*
X138766061Y-110062240D01*
X138766060Y-110062245D01*
X138745865Y-110241491D01*
X138745865Y-110241498D01*
X138766060Y-110420744D01*
X138766061Y-110420749D01*
X138825642Y-110591020D01*
X138831922Y-110601014D01*
X138850930Y-110666988D01*
X138850930Y-114382436D01*
X138850930Y-114520424D01*
X138850930Y-114520426D01*
X138850929Y-114520426D01*
X138877848Y-114655752D01*
X138877851Y-114655762D01*
X138930652Y-114783237D01*
X139007317Y-114897975D01*
X139007318Y-114897976D01*
X142400048Y-118290705D01*
X142433533Y-118352028D01*
X142428549Y-118421720D01*
X142400048Y-118466067D01*
X139815930Y-121050185D01*
X139754607Y-121083670D01*
X139714368Y-121085725D01*
X139700648Y-121084179D01*
X139691387Y-121083136D01*
X139691386Y-121083136D01*
X139691385Y-121083136D01*
X139691383Y-121083136D01*
X139512137Y-121103331D01*
X139512132Y-121103332D01*
X139341863Y-121162912D01*
X139189124Y-121258885D01*
X139145101Y-121302909D01*
X139083778Y-121336394D01*
X139014086Y-121331410D01*
X138969739Y-121302909D01*
X138959606Y-121292776D01*
X138806867Y-121196803D01*
X138636598Y-121137223D01*
X138636593Y-121137222D01*
X138457348Y-121117027D01*
X138457340Y-121117027D01*
X138278094Y-121137222D01*
X138278089Y-121137223D01*
X138107820Y-121196803D01*
X137955081Y-121292776D01*
X137827528Y-121420329D01*
X137731555Y-121573068D01*
X137671975Y-121743337D01*
X137671974Y-121743342D01*
X137651779Y-121922588D01*
X136659970Y-121922588D01*
X136569427Y-121797965D01*
X136419104Y-121647642D01*
X136247138Y-121522703D01*
X136246433Y-121522343D01*
X136238372Y-121518237D01*
X136187577Y-121470264D01*
X136170781Y-121402444D01*
X136193317Y-121336308D01*
X136238372Y-121297267D01*
X136247134Y-121292803D01*
X136284521Y-121265640D01*
X136419104Y-121167861D01*
X136419106Y-121167858D01*
X136419110Y-121167856D01*
X136569422Y-121017544D01*
X136569424Y-121017540D01*
X136569427Y-121017538D01*
X136685470Y-120857816D01*
X136694369Y-120845568D01*
X136790875Y-120656164D01*
X136856564Y-120453995D01*
X136889818Y-120244039D01*
X136889818Y-120031465D01*
X136856564Y-119821509D01*
X136790875Y-119619340D01*
X136694369Y-119429936D01*
X136694367Y-119429933D01*
X136694366Y-119429931D01*
X136569427Y-119257965D01*
X136419104Y-119107642D01*
X136247138Y-118982703D01*
X136246433Y-118982343D01*
X136238372Y-118978237D01*
X136200375Y-118942351D01*
X139588189Y-118942351D01*
X139588189Y-118942358D01*
X139608384Y-119121604D01*
X139608385Y-119121609D01*
X139667965Y-119291878D01*
X139754710Y-119429931D01*
X139763938Y-119444617D01*
X139891492Y-119572171D01*
X139966556Y-119619337D01*
X139986053Y-119631588D01*
X140044232Y-119668144D01*
X140192954Y-119720184D01*
X140214499Y-119727723D01*
X140214504Y-119727724D01*
X140393750Y-119747920D01*
X140393754Y-119747920D01*
X140393758Y-119747920D01*
X140573003Y-119727724D01*
X140573006Y-119727723D01*
X140573009Y-119727723D01*
X140743276Y-119668144D01*
X140896016Y-119572171D01*
X141023570Y-119444617D01*
X141119543Y-119291877D01*
X141179122Y-119121610D01*
X141193393Y-118994949D01*
X141199319Y-118942358D01*
X141199319Y-118942351D01*
X141179123Y-118763105D01*
X141179122Y-118763100D01*
X141160963Y-118711205D01*
X141119543Y-118592833D01*
X141023570Y-118440093D01*
X140896016Y-118312539D01*
X140884922Y-118305568D01*
X140743277Y-118216566D01*
X140573008Y-118156986D01*
X140573003Y-118156985D01*
X140393758Y-118136790D01*
X140393750Y-118136790D01*
X140214504Y-118156985D01*
X140214499Y-118156986D01*
X140044230Y-118216566D01*
X139891491Y-118312539D01*
X139763938Y-118440092D01*
X139667965Y-118592831D01*
X139608385Y-118763100D01*
X139608384Y-118763105D01*
X139588189Y-118942351D01*
X136200375Y-118942351D01*
X136187577Y-118930264D01*
X136170781Y-118862444D01*
X136193317Y-118796308D01*
X136238372Y-118757267D01*
X136247134Y-118752803D01*
X136304389Y-118711205D01*
X136419104Y-118627861D01*
X136419106Y-118627858D01*
X136419110Y-118627856D01*
X136569422Y-118477544D01*
X136569424Y-118477540D01*
X136569427Y-118477538D01*
X136694366Y-118305572D01*
X136694365Y-118305572D01*
X136694369Y-118305568D01*
X136790875Y-118116164D01*
X136856564Y-117913995D01*
X136889818Y-117704039D01*
X136889818Y-117491465D01*
X136856564Y-117281509D01*
X136790875Y-117079340D01*
X136694369Y-116889936D01*
X136694367Y-116889933D01*
X136694366Y-116889931D01*
X136569427Y-116717965D01*
X136419104Y-116567642D01*
X136247138Y-116442703D01*
X136246433Y-116442343D01*
X136238372Y-116438237D01*
X136187577Y-116390264D01*
X136170781Y-116322444D01*
X136193317Y-116256308D01*
X136238372Y-116217267D01*
X136247134Y-116212803D01*
X136344510Y-116142056D01*
X136419104Y-116087861D01*
X136419106Y-116087858D01*
X136419110Y-116087856D01*
X136569422Y-115937544D01*
X136569424Y-115937540D01*
X136569427Y-115937538D01*
X136694366Y-115765572D01*
X136694365Y-115765572D01*
X136694369Y-115765568D01*
X136790875Y-115576164D01*
X136856564Y-115373995D01*
X136889818Y-115164039D01*
X136889818Y-114951465D01*
X136856564Y-114741509D01*
X136790875Y-114539340D01*
X136694369Y-114349936D01*
X136694367Y-114349933D01*
X136694366Y-114349931D01*
X136569427Y-114177965D01*
X136419104Y-114027642D01*
X136247138Y-113902703D01*
X136246433Y-113902343D01*
X136238372Y-113898237D01*
X136187577Y-113850264D01*
X136170781Y-113782444D01*
X136193317Y-113716308D01*
X136238372Y-113677267D01*
X136247134Y-113672803D01*
X136269107Y-113656838D01*
X136419104Y-113547861D01*
X136419106Y-113547858D01*
X136419110Y-113547856D01*
X136569422Y-113397544D01*
X136569424Y-113397540D01*
X136569427Y-113397538D01*
X136694366Y-113225572D01*
X136694365Y-113225572D01*
X136694369Y-113225568D01*
X136790875Y-113036164D01*
X136856564Y-112833995D01*
X136889818Y-112624039D01*
X136889818Y-112411465D01*
X136856564Y-112201509D01*
X136790875Y-111999340D01*
X136694369Y-111809936D01*
X136694367Y-111809933D01*
X136694366Y-111809931D01*
X136569427Y-111637965D01*
X136419104Y-111487642D01*
X136247138Y-111362703D01*
X136246433Y-111362343D01*
X136238372Y-111358237D01*
X136187577Y-111310264D01*
X136170781Y-111242444D01*
X136193317Y-111176308D01*
X136238372Y-111137267D01*
X136247134Y-111132803D01*
X136358136Y-111052156D01*
X136419104Y-111007861D01*
X136419106Y-111007858D01*
X136419110Y-111007856D01*
X136569422Y-110857544D01*
X136569424Y-110857540D01*
X136569427Y-110857538D01*
X136694366Y-110685572D01*
X136694365Y-110685572D01*
X136694369Y-110685568D01*
X136790875Y-110496164D01*
X136856564Y-110293995D01*
X136889818Y-110084039D01*
X136889818Y-109871465D01*
X136856564Y-109661509D01*
X136790875Y-109459340D01*
X136694369Y-109269936D01*
X136694367Y-109269933D01*
X136694366Y-109269931D01*
X136569427Y-109097965D01*
X136419104Y-108947642D01*
X136247138Y-108822703D01*
X136246433Y-108822343D01*
X136238372Y-108818237D01*
X136187577Y-108770264D01*
X136170781Y-108702444D01*
X136193317Y-108636308D01*
X136238372Y-108597267D01*
X136247134Y-108592803D01*
X136272237Y-108574565D01*
X136419104Y-108467861D01*
X136419106Y-108467858D01*
X136419110Y-108467856D01*
X136569422Y-108317544D01*
X136569424Y-108317540D01*
X136569427Y-108317538D01*
X136694366Y-108145572D01*
X136694365Y-108145572D01*
X136694369Y-108145568D01*
X136790875Y-107956164D01*
X136856564Y-107753995D01*
X136889818Y-107544039D01*
X136889818Y-107331465D01*
X136856564Y-107121509D01*
X136790875Y-106919340D01*
X136694369Y-106729936D01*
X136694367Y-106729933D01*
X136694366Y-106729931D01*
X136569427Y-106557965D01*
X136419104Y-106407642D01*
X136247138Y-106282703D01*
X136246433Y-106282343D01*
X136238372Y-106278237D01*
X136206956Y-106248566D01*
X138745865Y-106248566D01*
X138745865Y-106248573D01*
X138766060Y-106427819D01*
X138766061Y-106427824D01*
X138825641Y-106598093D01*
X138908481Y-106729931D01*
X138921614Y-106750832D01*
X139049168Y-106878386D01*
X139201908Y-106974359D01*
X139352890Y-107027190D01*
X139372175Y-107033938D01*
X139372180Y-107033939D01*
X139551426Y-107054135D01*
X139551430Y-107054135D01*
X139551434Y-107054135D01*
X139730679Y-107033939D01*
X139730682Y-107033938D01*
X139730685Y-107033938D01*
X139873968Y-106983800D01*
X139943747Y-106980240D01*
X140004375Y-107014969D01*
X140036602Y-107076962D01*
X140030197Y-107146537D01*
X139987193Y-107201605D01*
X139980896Y-107205836D01*
X139930282Y-107237638D01*
X139802727Y-107365193D01*
X139706754Y-107517932D01*
X139647174Y-107688201D01*
X139647173Y-107688206D01*
X139626978Y-107867452D01*
X139626978Y-107867459D01*
X139647173Y-108046705D01*
X139647174Y-108046710D01*
X139706754Y-108216979D01*
X139721810Y-108240940D01*
X139802727Y-108369718D01*
X139930281Y-108497272D01*
X139995653Y-108538348D01*
X140082317Y-108592803D01*
X140083021Y-108593245D01*
X140113546Y-108603926D01*
X140253288Y-108652824D01*
X140253293Y-108652825D01*
X140432539Y-108673021D01*
X140432543Y-108673021D01*
X140432547Y-108673021D01*
X140611792Y-108652825D01*
X140611795Y-108652824D01*
X140611798Y-108652824D01*
X140782065Y-108593245D01*
X140934805Y-108497272D01*
X141062359Y-108369718D01*
X141158332Y-108216978D01*
X141217911Y-108046711D01*
X141217912Y-108046705D01*
X141238108Y-107867459D01*
X141238108Y-107867452D01*
X141217912Y-107688206D01*
X141217911Y-107688201D01*
X141184688Y-107593256D01*
X141158332Y-107517934D01*
X141062359Y-107365194D01*
X140934805Y-107237640D01*
X140847437Y-107182743D01*
X140782059Y-107141663D01*
X140775790Y-107138644D01*
X140776987Y-107136157D01*
X140730373Y-107102729D01*
X140704621Y-107037778D01*
X140718072Y-106969216D01*
X140766456Y-106918809D01*
X140780646Y-106911841D01*
X140883241Y-106869345D01*
X140997973Y-106792684D01*
X142247504Y-105543151D01*
X142308827Y-105509667D01*
X142378518Y-105514651D01*
X142434452Y-105556522D01*
X142458281Y-105615886D01*
X142463195Y-105656361D01*
X142463196Y-105656366D01*
X142523518Y-105815423D01*
X142581240Y-105899046D01*
X142620153Y-105955421D01*
X142725841Y-106049052D01*
X142747486Y-106068228D01*
X142898109Y-106147281D01*
X142898111Y-106147282D01*
X143063280Y-106187992D01*
X143233392Y-106187992D01*
X143398561Y-106147282D01*
X143495683Y-106096308D01*
X143549185Y-106068228D01*
X143549186Y-106068226D01*
X143549188Y-106068226D01*
X143676519Y-105955421D01*
X143773154Y-105815422D01*
X143833476Y-105656364D01*
X143853981Y-105487492D01*
X143833476Y-105318620D01*
X143773154Y-105159562D01*
X143676519Y-105019563D01*
X143549188Y-104906758D01*
X143549185Y-104906755D01*
X143398562Y-104827702D01*
X143262559Y-104794181D01*
X143202179Y-104759025D01*
X143170390Y-104696806D01*
X143177286Y-104627277D01*
X143204553Y-104586103D01*
X143361278Y-104429379D01*
X143694202Y-104096455D01*
X143755525Y-104062970D01*
X143781883Y-104060136D01*
X150888019Y-104060136D01*
X150955058Y-104079821D01*
X150975700Y-104096455D01*
X151308624Y-104429379D01*
X151337984Y-104476105D01*
X151374203Y-104579611D01*
X151404154Y-104627277D01*
X151470178Y-104732354D01*
X151597732Y-104859908D01*
X151750472Y-104955881D01*
X151888097Y-105004038D01*
X151920739Y-105015460D01*
X151920744Y-105015461D01*
X152099990Y-105035657D01*
X152099994Y-105035657D01*
X152099998Y-105035657D01*
X152279243Y-105015461D01*
X152279246Y-105015460D01*
X152279249Y-105015460D01*
X152449516Y-104955881D01*
X152602256Y-104859908D01*
X152729810Y-104732354D01*
X152825783Y-104579614D01*
X152885362Y-104409347D01*
X152887363Y-104391588D01*
X152905559Y-104230095D01*
X152905559Y-104230088D01*
X152885363Y-104050842D01*
X152885362Y-104050837D01*
X152825782Y-103880568D01*
X152739154Y-103742701D01*
X152729810Y-103727830D01*
X152602256Y-103600276D01*
X152482535Y-103525050D01*
X152449513Y-103504301D01*
X152346007Y-103468082D01*
X152299281Y-103438722D01*
X151676084Y-102815524D01*
X151676083Y-102815523D01*
X151561345Y-102738858D01*
X151433870Y-102686057D01*
X151433860Y-102686054D01*
X151298534Y-102659136D01*
X151298532Y-102659136D01*
X151298531Y-102659136D01*
X143725494Y-102659136D01*
X143659523Y-102640130D01*
X143649525Y-102633848D01*
X143479254Y-102574267D01*
X143479249Y-102574266D01*
X143300004Y-102554071D01*
X143299996Y-102554071D01*
X143120750Y-102574266D01*
X143120745Y-102574267D01*
X142950476Y-102633847D01*
X142797737Y-102729820D01*
X142670184Y-102857373D01*
X142574210Y-103010114D01*
X142514630Y-103180386D01*
X142504971Y-103266113D01*
X142477904Y-103330526D01*
X142469432Y-103339909D01*
X140297592Y-105511751D01*
X140236269Y-105545236D01*
X140209911Y-105548070D01*
X139976924Y-105548070D01*
X139910953Y-105529064D01*
X139900955Y-105522782D01*
X139730684Y-105463201D01*
X139730679Y-105463200D01*
X139551434Y-105443005D01*
X139551426Y-105443005D01*
X139372180Y-105463200D01*
X139372175Y-105463201D01*
X139201906Y-105522781D01*
X139049167Y-105618754D01*
X138921614Y-105746307D01*
X138825641Y-105899046D01*
X138766061Y-106069315D01*
X138766060Y-106069320D01*
X138745865Y-106248566D01*
X136206956Y-106248566D01*
X136187577Y-106230264D01*
X136170781Y-106162444D01*
X136193317Y-106096308D01*
X136238372Y-106057267D01*
X136247134Y-106052803D01*
X136381173Y-105955419D01*
X136419104Y-105927861D01*
X136419106Y-105927858D01*
X136419110Y-105927856D01*
X136569422Y-105777544D01*
X136569424Y-105777540D01*
X136569427Y-105777538D01*
X136694366Y-105605572D01*
X136694365Y-105605572D01*
X136694369Y-105605568D01*
X136790875Y-105416164D01*
X136856564Y-105213995D01*
X136889818Y-105004039D01*
X136889818Y-104791465D01*
X136856564Y-104581509D01*
X136790875Y-104379340D01*
X136694369Y-104189936D01*
X136694367Y-104189933D01*
X136694366Y-104189931D01*
X136569427Y-104017965D01*
X136419104Y-103867642D01*
X136247138Y-103742703D01*
X136246433Y-103742343D01*
X136238372Y-103738237D01*
X136187577Y-103690264D01*
X136170781Y-103622444D01*
X136193317Y-103556308D01*
X136238372Y-103517267D01*
X136247134Y-103512803D01*
X136321550Y-103458737D01*
X136419104Y-103387861D01*
X136419106Y-103387858D01*
X136419110Y-103387856D01*
X136569422Y-103237544D01*
X136569424Y-103237540D01*
X136569427Y-103237538D01*
X136694366Y-103065572D01*
X136694365Y-103065572D01*
X136694369Y-103065568D01*
X136790875Y-102876164D01*
X136856564Y-102673995D01*
X136889818Y-102464039D01*
X136889818Y-102251465D01*
X136886320Y-102229379D01*
X138516984Y-102229379D01*
X138516984Y-102229386D01*
X138537179Y-102408632D01*
X138537180Y-102408637D01*
X138596760Y-102578906D01*
X138664088Y-102686057D01*
X138692733Y-102731645D01*
X138820287Y-102859199D01*
X138973027Y-102955172D01*
X139130042Y-103010114D01*
X139143294Y-103014751D01*
X139143299Y-103014752D01*
X139322545Y-103034948D01*
X139322549Y-103034948D01*
X139322553Y-103034948D01*
X139501798Y-103014752D01*
X139501801Y-103014751D01*
X139501804Y-103014751D01*
X139672071Y-102955172D01*
X139824811Y-102859199D01*
X139952365Y-102731645D01*
X140048338Y-102578905D01*
X140107917Y-102408638D01*
X140128114Y-102229383D01*
X140125050Y-102202193D01*
X140107918Y-102050133D01*
X140107917Y-102050128D01*
X140048337Y-101879859D01*
X139952364Y-101727120D01*
X139824811Y-101599567D01*
X139672072Y-101503594D01*
X139501803Y-101444014D01*
X139501798Y-101444013D01*
X139322553Y-101423818D01*
X139322545Y-101423818D01*
X139143299Y-101444013D01*
X139143294Y-101444014D01*
X138973025Y-101503594D01*
X138820286Y-101599567D01*
X138692733Y-101727120D01*
X138596760Y-101879859D01*
X138537180Y-102050128D01*
X138537179Y-102050133D01*
X138516984Y-102229379D01*
X136886320Y-102229379D01*
X136856564Y-102041509D01*
X136790875Y-101839340D01*
X136694369Y-101649936D01*
X136694367Y-101649933D01*
X136694366Y-101649931D01*
X136569427Y-101477965D01*
X136419104Y-101327642D01*
X136247138Y-101202703D01*
X136246433Y-101202343D01*
X136238372Y-101198237D01*
X136187577Y-101150264D01*
X136170781Y-101082444D01*
X136193317Y-101016308D01*
X136238372Y-100977267D01*
X136247134Y-100972803D01*
X136306110Y-100929955D01*
X136419104Y-100847861D01*
X136419106Y-100847858D01*
X136419110Y-100847856D01*
X136569422Y-100697544D01*
X136569424Y-100697540D01*
X136569427Y-100697538D01*
X136578576Y-100684945D01*
X144568219Y-100684945D01*
X144588723Y-100853814D01*
X144588724Y-100853819D01*
X144649046Y-101012876D01*
X144670615Y-101044123D01*
X144745681Y-101152874D01*
X144756819Y-101162742D01*
X144762024Y-101167353D01*
X144799149Y-101226543D01*
X144803015Y-101274049D01*
X144786930Y-101416818D01*
X144786930Y-101416827D01*
X144807125Y-101596073D01*
X144807126Y-101596078D01*
X144866706Y-101766347D01*
X144912569Y-101839337D01*
X144962679Y-101919086D01*
X145090233Y-102046640D01*
X145242973Y-102142613D01*
X145413240Y-102202192D01*
X145413245Y-102202193D01*
X145592491Y-102222389D01*
X145592495Y-102222389D01*
X145592499Y-102222389D01*
X145771744Y-102202193D01*
X145771747Y-102202192D01*
X145771750Y-102202192D01*
X145942017Y-102142613D01*
X146094757Y-102046640D01*
X146222311Y-101919086D01*
X146318284Y-101766346D01*
X146377863Y-101596079D01*
X146388284Y-101503594D01*
X146391092Y-101478668D01*
X146418158Y-101414254D01*
X146475753Y-101374699D01*
X146545590Y-101372561D01*
X146571934Y-101382753D01*
X146644561Y-101420871D01*
X146809730Y-101461581D01*
X146979842Y-101461581D01*
X147145011Y-101420871D01*
X147224478Y-101379162D01*
X147295635Y-101341817D01*
X147295636Y-101341815D01*
X147295638Y-101341815D01*
X147422969Y-101229010D01*
X147519604Y-101089011D01*
X147579926Y-100929953D01*
X147600431Y-100761081D01*
X147579926Y-100592209D01*
X147578040Y-100587237D01*
X147551053Y-100516077D01*
X147519604Y-100433151D01*
X147509398Y-100418365D01*
X152430729Y-100418365D01*
X152451233Y-100587234D01*
X152451234Y-100587239D01*
X152511556Y-100746296D01*
X152521762Y-100761081D01*
X152608191Y-100886294D01*
X152705840Y-100972803D01*
X152735524Y-100999101D01*
X152886147Y-101078154D01*
X152886149Y-101078155D01*
X153051318Y-101118865D01*
X153221430Y-101118865D01*
X153386599Y-101078155D01*
X153446835Y-101046539D01*
X153515342Y-101032814D01*
X153553856Y-101044123D01*
X153554136Y-101043388D01*
X153561145Y-101046046D01*
X153561147Y-101046046D01*
X153561148Y-101046047D01*
X153726317Y-101086757D01*
X153896429Y-101086757D01*
X154061598Y-101046047D01*
X154192648Y-100977266D01*
X154212222Y-100966993D01*
X154212223Y-100966991D01*
X154212225Y-100966991D01*
X154339556Y-100854186D01*
X154436191Y-100714187D01*
X154496513Y-100555129D01*
X154517018Y-100386257D01*
X154496513Y-100217385D01*
X154496373Y-100217017D01*
X154448367Y-100090433D01*
X154436191Y-100058327D01*
X154358538Y-99945828D01*
X154336656Y-99879476D01*
X154354121Y-99811825D01*
X154358527Y-99804968D01*
X154369548Y-99789003D01*
X154429870Y-99629945D01*
X154450375Y-99461073D01*
X154429870Y-99292201D01*
X154369548Y-99133143D01*
X154361983Y-99122184D01*
X154335206Y-99083391D01*
X154272913Y-98993144D01*
X154145582Y-98880339D01*
X154145580Y-98880338D01*
X154141335Y-98876577D01*
X154104208Y-98817387D01*
X154104976Y-98747522D01*
X154121509Y-98713325D01*
X154191576Y-98611817D01*
X154251898Y-98452759D01*
X154272403Y-98283887D01*
X154251898Y-98115015D01*
X154212320Y-98010657D01*
X154206954Y-97940996D01*
X154240102Y-97879490D01*
X154298587Y-97846291D01*
X154421157Y-97816081D01*
X154534259Y-97756720D01*
X154571781Y-97737027D01*
X154571782Y-97737025D01*
X154571784Y-97737025D01*
X154699115Y-97624220D01*
X154795750Y-97484221D01*
X154856072Y-97325163D01*
X154876577Y-97156291D01*
X154856072Y-96987419D01*
X154795750Y-96828361D01*
X154699115Y-96688362D01*
X154604248Y-96604317D01*
X154571781Y-96575554D01*
X154421158Y-96496501D01*
X154255988Y-96455791D01*
X154085876Y-96455791D01*
X153920705Y-96496501D01*
X153770082Y-96575554D01*
X153642748Y-96688363D01*
X153546114Y-96828359D01*
X153485792Y-96987416D01*
X153485791Y-96987421D01*
X153465287Y-97156291D01*
X153485791Y-97325160D01*
X153485793Y-97325168D01*
X153525368Y-97429519D01*
X153530735Y-97499182D01*
X153497587Y-97560688D01*
X153439102Y-97593886D01*
X153316530Y-97624097D01*
X153165908Y-97703150D01*
X153038574Y-97815959D01*
X152941940Y-97955955D01*
X152881618Y-98115012D01*
X152881617Y-98115017D01*
X152861113Y-98283887D01*
X152881617Y-98452756D01*
X152881618Y-98452761D01*
X152941940Y-98611818D01*
X152985517Y-98674949D01*
X153038575Y-98751816D01*
X153165906Y-98864621D01*
X153165907Y-98864621D01*
X153170152Y-98868382D01*
X153207279Y-98927572D01*
X153206511Y-98997437D01*
X153189975Y-99031638D01*
X153119913Y-99133141D01*
X153119912Y-99133141D01*
X153059590Y-99292198D01*
X153059589Y-99292203D01*
X153039085Y-99461073D01*
X153056473Y-99604277D01*
X153045013Y-99673200D01*
X152998109Y-99724986D01*
X152963052Y-99739620D01*
X152886147Y-99758575D01*
X152735524Y-99837628D01*
X152608190Y-99950437D01*
X152511556Y-100090433D01*
X152451234Y-100249490D01*
X152451233Y-100249495D01*
X152430729Y-100418365D01*
X147509398Y-100418365D01*
X147422969Y-100293152D01*
X147295638Y-100180347D01*
X147295635Y-100180344D01*
X147145012Y-100101291D01*
X146979842Y-100060581D01*
X146809730Y-100060581D01*
X146644559Y-100101291D01*
X146493936Y-100180344D01*
X146366602Y-100293153D01*
X146269968Y-100433149D01*
X146206986Y-100599223D01*
X146205593Y-100598694D01*
X146174682Y-100651767D01*
X146112458Y-100683546D01*
X146042931Y-100676641D01*
X145988174Y-100633242D01*
X145966359Y-100576646D01*
X145959004Y-100516073D01*
X145898682Y-100357015D01*
X145884289Y-100336164D01*
X145854600Y-100293152D01*
X145802047Y-100217016D01*
X145674716Y-100104211D01*
X145674713Y-100104208D01*
X145524090Y-100025155D01*
X145358920Y-99984445D01*
X145188808Y-99984445D01*
X145023637Y-100025155D01*
X144873014Y-100104208D01*
X144745680Y-100217017D01*
X144649046Y-100357013D01*
X144588724Y-100516070D01*
X144588723Y-100516075D01*
X144568219Y-100684945D01*
X136578576Y-100684945D01*
X136694366Y-100525572D01*
X136694365Y-100525572D01*
X136694369Y-100525568D01*
X136790875Y-100336164D01*
X136856564Y-100133995D01*
X136889818Y-99924039D01*
X136889818Y-99711465D01*
X136856564Y-99501509D01*
X136790875Y-99299340D01*
X136694369Y-99109936D01*
X136694367Y-99109933D01*
X136694366Y-99109931D01*
X136569427Y-98937965D01*
X136419104Y-98787642D01*
X136247138Y-98662703D01*
X136246433Y-98662343D01*
X136238372Y-98658237D01*
X136187577Y-98610264D01*
X136170781Y-98542444D01*
X136193317Y-98476308D01*
X136238372Y-98437267D01*
X136247134Y-98432803D01*
X136282598Y-98407037D01*
X136419104Y-98307861D01*
X136419106Y-98307858D01*
X136419110Y-98307856D01*
X136569422Y-98157544D01*
X136569424Y-98157540D01*
X136569427Y-98157538D01*
X136694366Y-97985572D01*
X136694365Y-97985572D01*
X136694369Y-97985568D01*
X136790875Y-97796164D01*
X136843913Y-97632930D01*
X137785933Y-97632930D01*
X137806437Y-97801799D01*
X137806438Y-97801804D01*
X137866760Y-97960861D01*
X137901134Y-98010659D01*
X137963395Y-98100859D01*
X138041198Y-98169786D01*
X138090728Y-98213666D01*
X138224523Y-98283887D01*
X138241353Y-98292720D01*
X138406522Y-98333430D01*
X138576634Y-98333430D01*
X138741803Y-98292720D01*
X138780521Y-98272398D01*
X138849028Y-98258672D01*
X138914082Y-98284163D01*
X138940197Y-98311753D01*
X139019210Y-98426222D01*
X139124898Y-98519853D01*
X139146543Y-98539029D01*
X139291928Y-98615333D01*
X139297168Y-98618083D01*
X139462337Y-98658793D01*
X139632449Y-98658793D01*
X139797618Y-98618083D01*
X139948245Y-98539027D01*
X140005240Y-98488533D01*
X140068473Y-98458812D01*
X140137736Y-98467995D01*
X140169693Y-98488533D01*
X140211392Y-98525475D01*
X140211394Y-98525476D01*
X140312314Y-98578443D01*
X140362020Y-98604531D01*
X140527189Y-98645241D01*
X140697301Y-98645241D01*
X140862470Y-98604531D01*
X140947316Y-98560000D01*
X141013094Y-98525477D01*
X141013095Y-98525475D01*
X141013097Y-98525475D01*
X141140428Y-98412670D01*
X141206484Y-98316971D01*
X141260767Y-98272982D01*
X141330216Y-98265322D01*
X141392781Y-98296426D01*
X141424476Y-98343441D01*
X141431714Y-98362527D01*
X141431714Y-98362528D01*
X141484837Y-98439489D01*
X141528349Y-98502526D01*
X141634037Y-98596157D01*
X141655682Y-98615333D01*
X141806305Y-98694386D01*
X141806307Y-98694387D01*
X141971476Y-98735097D01*
X142141588Y-98735097D01*
X142306757Y-98694387D01*
X142436881Y-98626092D01*
X142457381Y-98615333D01*
X142457382Y-98615331D01*
X142457384Y-98615331D01*
X142584715Y-98502526D01*
X142620263Y-98451024D01*
X142674542Y-98407037D01*
X142743991Y-98399377D01*
X142806556Y-98430479D01*
X142815126Y-98439240D01*
X142819684Y-98444385D01*
X142819687Y-98444388D01*
X142819689Y-98444390D01*
X142889601Y-98506326D01*
X142947022Y-98557197D01*
X143078291Y-98626092D01*
X143097647Y-98636251D01*
X143262816Y-98676961D01*
X143432928Y-98676961D01*
X143598097Y-98636251D01*
X143708240Y-98578443D01*
X143748721Y-98557197D01*
X143748722Y-98557195D01*
X143748724Y-98557195D01*
X143876055Y-98444390D01*
X143890568Y-98423364D01*
X143944849Y-98379375D01*
X144014297Y-98371715D01*
X144076862Y-98402817D01*
X144094668Y-98423367D01*
X144099145Y-98429854D01*
X144099146Y-98429855D01*
X144099147Y-98429856D01*
X144131832Y-98458812D01*
X144226480Y-98542663D01*
X144364941Y-98615333D01*
X144377105Y-98621717D01*
X144542274Y-98662427D01*
X144712386Y-98662427D01*
X144877555Y-98621717D01*
X144995146Y-98560000D01*
X145028179Y-98542663D01*
X145028180Y-98542661D01*
X145028182Y-98542661D01*
X145155513Y-98429856D01*
X145155516Y-98429852D01*
X145160487Y-98424242D01*
X145162744Y-98426241D01*
X145206252Y-98390957D01*
X145275697Y-98383272D01*
X145338273Y-98414353D01*
X145356112Y-98434933D01*
X145359256Y-98439489D01*
X145486590Y-98552297D01*
X145611933Y-98618082D01*
X145637215Y-98631351D01*
X145802384Y-98672061D01*
X145972496Y-98672061D01*
X146137665Y-98631351D01*
X146238472Y-98578443D01*
X146288289Y-98552297D01*
X146288290Y-98552295D01*
X146288292Y-98552295D01*
X146415623Y-98439490D01*
X146417511Y-98436753D01*
X146419412Y-98435213D01*
X146420597Y-98433876D01*
X146420819Y-98434072D01*
X146471791Y-98392763D01*
X146541240Y-98385100D01*
X146603806Y-98416201D01*
X146613166Y-98427004D01*
X146613551Y-98426664D01*
X146618521Y-98432274D01*
X146618524Y-98432276D01*
X146618525Y-98432278D01*
X146668225Y-98476308D01*
X146745858Y-98545085D01*
X146884942Y-98618082D01*
X146896483Y-98624139D01*
X147061652Y-98664849D01*
X147231764Y-98664849D01*
X147396933Y-98624139D01*
X147507335Y-98566195D01*
X147547557Y-98545085D01*
X147547558Y-98545083D01*
X147547560Y-98545083D01*
X147674891Y-98432278D01*
X147688026Y-98413247D01*
X147742308Y-98369258D01*
X147811756Y-98361598D01*
X147872303Y-98390873D01*
X147875292Y-98393521D01*
X147998331Y-98502524D01*
X148002622Y-98506325D01*
X148002624Y-98506327D01*
X148140029Y-98578443D01*
X148153250Y-98585382D01*
X148318419Y-98626092D01*
X148488531Y-98626092D01*
X148653700Y-98585382D01*
X148760537Y-98529309D01*
X148804324Y-98506328D01*
X148804325Y-98506326D01*
X148804327Y-98506326D01*
X148931658Y-98393521D01*
X149028293Y-98253522D01*
X149088615Y-98094464D01*
X149109120Y-97925592D01*
X149088615Y-97756720D01*
X149028293Y-97597662D01*
X149016499Y-97580576D01*
X148980444Y-97528341D01*
X148931658Y-97457663D01*
X148825942Y-97364007D01*
X148804324Y-97344855D01*
X148653701Y-97265802D01*
X148488531Y-97225092D01*
X148318419Y-97225092D01*
X148153248Y-97265802D01*
X148002625Y-97344855D01*
X147875292Y-97457662D01*
X147862154Y-97476696D01*
X147807869Y-97520684D01*
X147738420Y-97528341D01*
X147677879Y-97499067D01*
X147547560Y-97383615D01*
X147547558Y-97383613D01*
X147396934Y-97304559D01*
X147231764Y-97263849D01*
X147061652Y-97263849D01*
X146896481Y-97304559D01*
X146745858Y-97383612D01*
X146618522Y-97496422D01*
X146616628Y-97499167D01*
X146614724Y-97500709D01*
X146613551Y-97502034D01*
X146613330Y-97501838D01*
X146562341Y-97543153D01*
X146492892Y-97550806D01*
X146430330Y-97519697D01*
X146420981Y-97508905D01*
X146420597Y-97509246D01*
X146415626Y-97503635D01*
X146412323Y-97500709D01*
X146338195Y-97435037D01*
X146288289Y-97390824D01*
X146137666Y-97311771D01*
X145972496Y-97271061D01*
X145802384Y-97271061D01*
X145637213Y-97311771D01*
X145486590Y-97390824D01*
X145359253Y-97503635D01*
X145354283Y-97509246D01*
X145352042Y-97507260D01*
X145308398Y-97542580D01*
X145238944Y-97550192D01*
X145176401Y-97519046D01*
X145158656Y-97498552D01*
X145155513Y-97493998D01*
X145028179Y-97381190D01*
X144877556Y-97302137D01*
X144712386Y-97261427D01*
X144542274Y-97261427D01*
X144377103Y-97302137D01*
X144226480Y-97381190D01*
X144099145Y-97493999D01*
X144084632Y-97515025D01*
X144030348Y-97559014D01*
X143960899Y-97566671D01*
X143898335Y-97535566D01*
X143880535Y-97515022D01*
X143876055Y-97508532D01*
X143769916Y-97414501D01*
X143748721Y-97395724D01*
X143598098Y-97316671D01*
X143432928Y-97275961D01*
X143262816Y-97275961D01*
X143097645Y-97316671D01*
X142947022Y-97395724D01*
X142821125Y-97507260D01*
X142819689Y-97508532D01*
X142790510Y-97550806D01*
X142784142Y-97560031D01*
X142729858Y-97604021D01*
X142660410Y-97611680D01*
X142597845Y-97580576D01*
X142589276Y-97571817D01*
X142584714Y-97566667D01*
X142457381Y-97453860D01*
X142306758Y-97374807D01*
X142141588Y-97334097D01*
X141971476Y-97334097D01*
X141806305Y-97374807D01*
X141655682Y-97453860D01*
X141528349Y-97566668D01*
X141462291Y-97662367D01*
X141408007Y-97706356D01*
X141338559Y-97714014D01*
X141275994Y-97682910D01*
X141244300Y-97635895D01*
X141237063Y-97616811D01*
X141233521Y-97611680D01*
X141186220Y-97543153D01*
X141140428Y-97476812D01*
X141035709Y-97384039D01*
X141013094Y-97364004D01*
X140862471Y-97284951D01*
X140697301Y-97244241D01*
X140527189Y-97244241D01*
X140362018Y-97284951D01*
X140211395Y-97364004D01*
X140154396Y-97414501D01*
X140091162Y-97444221D01*
X140021899Y-97435037D01*
X139989944Y-97414500D01*
X139948245Y-97377559D01*
X139948243Y-97377557D01*
X139797619Y-97298503D01*
X139632449Y-97257793D01*
X139462337Y-97257793D01*
X139297167Y-97298502D01*
X139258447Y-97318825D01*
X139189939Y-97332549D01*
X139124886Y-97307057D01*
X139098772Y-97279468D01*
X139096351Y-97275961D01*
X139019761Y-97165001D01*
X138892430Y-97052196D01*
X138892427Y-97052193D01*
X138741804Y-96973140D01*
X138576634Y-96932430D01*
X138406522Y-96932430D01*
X138241351Y-96973140D01*
X138090728Y-97052193D01*
X137963394Y-97165002D01*
X137866760Y-97304998D01*
X137806438Y-97464055D01*
X137806437Y-97464060D01*
X137785933Y-97632930D01*
X136843913Y-97632930D01*
X136856564Y-97593995D01*
X136889818Y-97384039D01*
X136889818Y-97171465D01*
X136856564Y-96961509D01*
X136790875Y-96759340D01*
X136694369Y-96569936D01*
X136694367Y-96569933D01*
X136694366Y-96569931D01*
X136569427Y-96397965D01*
X136419104Y-96247642D01*
X136247138Y-96122703D01*
X136246433Y-96122343D01*
X136238372Y-96118237D01*
X136187577Y-96070264D01*
X136170781Y-96002444D01*
X136193317Y-95936308D01*
X136238372Y-95897267D01*
X136247134Y-95892803D01*
X136269107Y-95876838D01*
X136419104Y-95767861D01*
X136419106Y-95767858D01*
X136419110Y-95767856D01*
X136569422Y-95617544D01*
X136569424Y-95617540D01*
X136569427Y-95617538D01*
X136694366Y-95445572D01*
X136694365Y-95445572D01*
X136694369Y-95445568D01*
X136748173Y-95339972D01*
X139764918Y-95339972D01*
X139785422Y-95508841D01*
X139785423Y-95508846D01*
X139845745Y-95667903D01*
X139863576Y-95693735D01*
X139942380Y-95807901D01*
X140038212Y-95892800D01*
X140069713Y-95920708D01*
X140206362Y-95992427D01*
X140220338Y-95999762D01*
X140385507Y-96040472D01*
X140555619Y-96040472D01*
X140720788Y-95999762D01*
X140822197Y-95946538D01*
X140871412Y-95920708D01*
X140871413Y-95920706D01*
X140871415Y-95920706D01*
X140998746Y-95807901D01*
X141095381Y-95667902D01*
X141155703Y-95508844D01*
X141173071Y-95365804D01*
X143253447Y-95365804D01*
X143273951Y-95534673D01*
X143273952Y-95534678D01*
X143334274Y-95693735D01*
X143393891Y-95780104D01*
X143430909Y-95833733D01*
X143511410Y-95905050D01*
X143558242Y-95946540D01*
X143708330Y-96025312D01*
X143708867Y-96025594D01*
X143874036Y-96066304D01*
X144044148Y-96066304D01*
X144209317Y-96025594D01*
X144288784Y-95983885D01*
X144359941Y-95946540D01*
X144359942Y-95946538D01*
X144359944Y-95946538D01*
X144487275Y-95833733D01*
X144583910Y-95693734D01*
X144644232Y-95534676D01*
X144659165Y-95411691D01*
X148071606Y-95411691D01*
X148092110Y-95580560D01*
X148092111Y-95580565D01*
X148152433Y-95739622D01*
X148214726Y-95829868D01*
X148249068Y-95879620D01*
X148336967Y-95957491D01*
X148376401Y-95992427D01*
X148517162Y-96066304D01*
X148527026Y-96071481D01*
X148692195Y-96112191D01*
X148862307Y-96112191D01*
X149027476Y-96071481D01*
X149113760Y-96026195D01*
X149178100Y-95992427D01*
X149178101Y-95992425D01*
X149178103Y-95992425D01*
X149305434Y-95879620D01*
X149402069Y-95739621D01*
X149462391Y-95580563D01*
X149482896Y-95411691D01*
X149462391Y-95242819D01*
X149402069Y-95083761D01*
X149389974Y-95066239D01*
X149367727Y-95034009D01*
X149305434Y-94943762D01*
X149192870Y-94844039D01*
X149178100Y-94830954D01*
X149027477Y-94751901D01*
X148862307Y-94711191D01*
X148692195Y-94711191D01*
X148527024Y-94751901D01*
X148376401Y-94830954D01*
X148249067Y-94943763D01*
X148152433Y-95083759D01*
X148092111Y-95242816D01*
X148092110Y-95242821D01*
X148071606Y-95411691D01*
X144659165Y-95411691D01*
X144664737Y-95365804D01*
X144644232Y-95196932D01*
X144583910Y-95037874D01*
X144566079Y-95012042D01*
X144518949Y-94943763D01*
X144487275Y-94897875D01*
X144359944Y-94785070D01*
X144359941Y-94785067D01*
X144209318Y-94706014D01*
X144044148Y-94665304D01*
X143874036Y-94665304D01*
X143708865Y-94706014D01*
X143558242Y-94785067D01*
X143430908Y-94897876D01*
X143334274Y-95037872D01*
X143273952Y-95196929D01*
X143273951Y-95196934D01*
X143253447Y-95365804D01*
X141173071Y-95365804D01*
X141176208Y-95339972D01*
X141155703Y-95171100D01*
X141146722Y-95147420D01*
X141110738Y-95052535D01*
X141095381Y-95012042D01*
X141092191Y-95007421D01*
X141048250Y-94943762D01*
X140998746Y-94872043D01*
X140871415Y-94759238D01*
X140871412Y-94759235D01*
X140720789Y-94680182D01*
X140555619Y-94639472D01*
X140385507Y-94639472D01*
X140220336Y-94680182D01*
X140069713Y-94759235D01*
X139942379Y-94872044D01*
X139845745Y-95012040D01*
X139785423Y-95171097D01*
X139785422Y-95171102D01*
X139764918Y-95339972D01*
X136748173Y-95339972D01*
X136790875Y-95256164D01*
X136856564Y-95053995D01*
X136889818Y-94844039D01*
X136889818Y-94631465D01*
X136884862Y-94600174D01*
X151681251Y-94600174D01*
X151701755Y-94769043D01*
X151701756Y-94769048D01*
X151762078Y-94928105D01*
X151799292Y-94982018D01*
X151858713Y-95068103D01*
X151986044Y-95180908D01*
X151995963Y-95186114D01*
X151997794Y-95187075D01*
X152048006Y-95235660D01*
X152063980Y-95303679D01*
X152063263Y-95311817D01*
X152043407Y-95475349D01*
X152063911Y-95644219D01*
X152063912Y-95644224D01*
X152124234Y-95803281D01*
X152145254Y-95833733D01*
X152220869Y-95943279D01*
X152313783Y-96025593D01*
X152348202Y-96056086D01*
X152489956Y-96130484D01*
X152498827Y-96135140D01*
X152663996Y-96175850D01*
X152834108Y-96175850D01*
X152999277Y-96135140D01*
X153130432Y-96066304D01*
X153149901Y-96056086D01*
X153149902Y-96056084D01*
X153149904Y-96056084D01*
X153277235Y-95943279D01*
X153373870Y-95803280D01*
X153434192Y-95644222D01*
X153454697Y-95475350D01*
X153434192Y-95306478D01*
X153433130Y-95303679D01*
X153382851Y-95171102D01*
X153373870Y-95147420D01*
X153308372Y-95052531D01*
X153286491Y-94986180D01*
X153303956Y-94918529D01*
X153355223Y-94871058D01*
X153424017Y-94858841D01*
X153468050Y-94872298D01*
X153574379Y-94928104D01*
X153599537Y-94941308D01*
X153764706Y-94982018D01*
X153934818Y-94982018D01*
X154099987Y-94941308D01*
X154188950Y-94894616D01*
X154250611Y-94862254D01*
X154250612Y-94862252D01*
X154250614Y-94862252D01*
X154377945Y-94749447D01*
X154474580Y-94609448D01*
X154534902Y-94450390D01*
X154555407Y-94281518D01*
X154534902Y-94112646D01*
X154474580Y-93953588D01*
X154407921Y-93857017D01*
X154386039Y-93790664D01*
X154403504Y-93723012D01*
X154454772Y-93675542D01*
X154466011Y-93670632D01*
X154468222Y-93669792D01*
X154468234Y-93669790D01*
X154527554Y-93638655D01*
X154618858Y-93590736D01*
X154618859Y-93590734D01*
X154618861Y-93590734D01*
X154746192Y-93477929D01*
X154842827Y-93337930D01*
X154903149Y-93178872D01*
X154923654Y-93010000D01*
X154903149Y-92841128D01*
X154842827Y-92682070D01*
X154746192Y-92542071D01*
X154728326Y-92526243D01*
X154693338Y-92495246D01*
X154656211Y-92436057D01*
X154656979Y-92366192D01*
X154693336Y-92309616D01*
X154808119Y-92207929D01*
X154904754Y-92067930D01*
X154965076Y-91908872D01*
X154985581Y-91740000D01*
X154965076Y-91571128D01*
X154904754Y-91412070D01*
X154848248Y-91330208D01*
X154808119Y-91272071D01*
X154727934Y-91201033D01*
X154690808Y-91141843D01*
X154691576Y-91071978D01*
X154727935Y-91015403D01*
X154815386Y-90937929D01*
X154912021Y-90797930D01*
X154972343Y-90638872D01*
X154992848Y-90470000D01*
X154972343Y-90301128D01*
X154912021Y-90142070D01*
X154815386Y-90002071D01*
X154797520Y-89986243D01*
X154726264Y-89923115D01*
X154689137Y-89863926D01*
X154689905Y-89794060D01*
X154726265Y-89737484D01*
X154799428Y-89672668D01*
X154801500Y-89669667D01*
X154896064Y-89532668D01*
X154956386Y-89373610D01*
X154976891Y-89204738D01*
X154956386Y-89035866D01*
X154896064Y-88876808D01*
X154893991Y-88873805D01*
X154836017Y-88789816D01*
X154799429Y-88736809D01*
X154714458Y-88661531D01*
X154677332Y-88602343D01*
X154678100Y-88532478D01*
X154714457Y-88475904D01*
X154800852Y-88399366D01*
X154897487Y-88259367D01*
X154957809Y-88100309D01*
X154978314Y-87931437D01*
X154957809Y-87762565D01*
X154956130Y-87758139D01*
X154897486Y-87603505D01*
X154863145Y-87553755D01*
X154800852Y-87463508D01*
X154692891Y-87367863D01*
X154655766Y-87308676D01*
X154656534Y-87238811D01*
X154692891Y-87182236D01*
X154757250Y-87125220D01*
X154853885Y-86985221D01*
X154914207Y-86826163D01*
X154934712Y-86657291D01*
X154914207Y-86488419D01*
X154853885Y-86329361D01*
X154757250Y-86189362D01*
X154660425Y-86103582D01*
X154623301Y-86044397D01*
X154624068Y-85974531D01*
X154660427Y-85917955D01*
X154728183Y-85857929D01*
X154824818Y-85717930D01*
X154885140Y-85558872D01*
X154905645Y-85390000D01*
X154885140Y-85221128D01*
X154824818Y-85062070D01*
X154824815Y-85062066D01*
X154760876Y-84969435D01*
X154728183Y-84922071D01*
X154600852Y-84809266D01*
X154600849Y-84809263D01*
X154450226Y-84730210D01*
X154285056Y-84689500D01*
X154114944Y-84689500D01*
X154113767Y-84689500D01*
X154046728Y-84669815D01*
X154000973Y-84617011D01*
X153991029Y-84547853D01*
X154011718Y-84495059D01*
X154044247Y-84447933D01*
X154044248Y-84447931D01*
X154044247Y-84447931D01*
X154044249Y-84447930D01*
X154104571Y-84288872D01*
X154125076Y-84120000D01*
X154104571Y-83951128D01*
X154044249Y-83792070D01*
X154044248Y-83792068D01*
X154044247Y-83792066D01*
X154011718Y-83744941D01*
X153989834Y-83678586D01*
X154007299Y-83610935D01*
X154058566Y-83563464D01*
X154113767Y-83550500D01*
X154289322Y-83550500D01*
X154454491Y-83509790D01*
X154552806Y-83458190D01*
X154605115Y-83430736D01*
X154605116Y-83430734D01*
X154605118Y-83430734D01*
X154732449Y-83317929D01*
X154829084Y-83177930D01*
X154889406Y-83018872D01*
X154909911Y-82850000D01*
X154889406Y-82681128D01*
X154887608Y-82676388D01*
X154829083Y-82522068D01*
X154770951Y-82437851D01*
X154732449Y-82382071D01*
X154727099Y-82377331D01*
X154637492Y-82297946D01*
X154600365Y-82238757D01*
X154601133Y-82168891D01*
X154637491Y-82112316D01*
X154710171Y-82047929D01*
X154806806Y-81907930D01*
X154867128Y-81748872D01*
X154887633Y-81580000D01*
X154867128Y-81411128D01*
X154806806Y-81252070D01*
X154804579Y-81248844D01*
X154772464Y-81202318D01*
X154710171Y-81112071D01*
X154606127Y-81019896D01*
X154582837Y-80999263D01*
X154432214Y-80920210D01*
X154267044Y-80879500D01*
X154096932Y-80879500D01*
X153931761Y-80920210D01*
X153781138Y-80999263D01*
X153653804Y-81112072D01*
X153557170Y-81252068D01*
X153496848Y-81411125D01*
X153496847Y-81411130D01*
X153476343Y-81580000D01*
X153496847Y-81748869D01*
X153496848Y-81748874D01*
X153557170Y-81907931D01*
X153623873Y-82004566D01*
X153651580Y-82044706D01*
X153653806Y-82047930D01*
X153748761Y-82132053D01*
X153785888Y-82191242D01*
X153785120Y-82261107D01*
X153748761Y-82317683D01*
X153676084Y-82382069D01*
X153579448Y-82522068D01*
X153519126Y-82681125D01*
X153519125Y-82681130D01*
X153498621Y-82850000D01*
X153519125Y-83018869D01*
X153519126Y-83018874D01*
X153579448Y-83177931D01*
X153579449Y-83177933D01*
X153611979Y-83225059D01*
X153633863Y-83291414D01*
X153616398Y-83359065D01*
X153565131Y-83406536D01*
X153509930Y-83419500D01*
X153334375Y-83419500D01*
X153169204Y-83460210D01*
X153018581Y-83539263D01*
X152891247Y-83652072D01*
X152794613Y-83792068D01*
X152734291Y-83951125D01*
X152734290Y-83951130D01*
X152713786Y-84120000D01*
X152734290Y-84288869D01*
X152734291Y-84288874D01*
X152794613Y-84447931D01*
X152810904Y-84471532D01*
X152891248Y-84587929D01*
X152943490Y-84634211D01*
X153018581Y-84700736D01*
X153151275Y-84770379D01*
X153169206Y-84779790D01*
X153334375Y-84820500D01*
X153505664Y-84820500D01*
X153572703Y-84840185D01*
X153618458Y-84892989D01*
X153628402Y-84962147D01*
X153607713Y-85014941D01*
X153575183Y-85062066D01*
X153575182Y-85062068D01*
X153514860Y-85221125D01*
X153514859Y-85221130D01*
X153494355Y-85390000D01*
X153514859Y-85558869D01*
X153514860Y-85558874D01*
X153575182Y-85717931D01*
X153630099Y-85797491D01*
X153671817Y-85857929D01*
X153768641Y-85943707D01*
X153805765Y-86002893D01*
X153804998Y-86072759D01*
X153768640Y-86129335D01*
X153700883Y-86189362D01*
X153604249Y-86329359D01*
X153543927Y-86488416D01*
X153543926Y-86488421D01*
X153523422Y-86657291D01*
X153543926Y-86826160D01*
X153543927Y-86826165D01*
X153604249Y-86985222D01*
X153607885Y-86990489D01*
X153700884Y-87125220D01*
X153808843Y-87220863D01*
X153845969Y-87280051D01*
X153845201Y-87349916D01*
X153808843Y-87406492D01*
X153744485Y-87463508D01*
X153647851Y-87603505D01*
X153587529Y-87762562D01*
X153587528Y-87762567D01*
X153567024Y-87931437D01*
X153587528Y-88100306D01*
X153587529Y-88100311D01*
X153647851Y-88259368D01*
X153668661Y-88289516D01*
X153744486Y-88399366D01*
X153829455Y-88474642D01*
X153866582Y-88533831D01*
X153865814Y-88603696D01*
X153829455Y-88660272D01*
X153743064Y-88736807D01*
X153646428Y-88876806D01*
X153586106Y-89035863D01*
X153586105Y-89035868D01*
X153565601Y-89204738D01*
X153586105Y-89373607D01*
X153586106Y-89373612D01*
X153646428Y-89532669D01*
X153713131Y-89629304D01*
X153740992Y-89669667D01*
X153743064Y-89672668D01*
X153832184Y-89751622D01*
X153869311Y-89810811D01*
X153868543Y-89880677D01*
X153832185Y-89937252D01*
X153759019Y-90002071D01*
X153662385Y-90142068D01*
X153602063Y-90301125D01*
X153602062Y-90301130D01*
X153581558Y-90470000D01*
X153602062Y-90638869D01*
X153602063Y-90638874D01*
X153662385Y-90797931D01*
X153759019Y-90937928D01*
X153839204Y-91008966D01*
X153876330Y-91068156D01*
X153875562Y-91138021D01*
X153839203Y-91194596D01*
X153751754Y-91272069D01*
X153655118Y-91412068D01*
X153594796Y-91571125D01*
X153594795Y-91571130D01*
X153574291Y-91740000D01*
X153594795Y-91908869D01*
X153594796Y-91908874D01*
X153655118Y-92067931D01*
X153671363Y-92091465D01*
X153751753Y-92207929D01*
X153804606Y-92254753D01*
X153841733Y-92313942D01*
X153840965Y-92383807D01*
X153804607Y-92440383D01*
X153689825Y-92542071D01*
X153593191Y-92682068D01*
X153532869Y-92841125D01*
X153532868Y-92841130D01*
X153512364Y-93010000D01*
X153532868Y-93178869D01*
X153532869Y-93178874D01*
X153593191Y-93337931D01*
X153659848Y-93434499D01*
X153681731Y-93500853D01*
X153664266Y-93568505D01*
X153612998Y-93615975D01*
X153601774Y-93620879D01*
X153599537Y-93621727D01*
X153448912Y-93700781D01*
X153321578Y-93813590D01*
X153224944Y-93953586D01*
X153164622Y-94112643D01*
X153162827Y-94119930D01*
X153161486Y-94119599D01*
X153137048Y-94176366D01*
X153079110Y-94215417D01*
X153009257Y-94216945D01*
X152949667Y-94180464D01*
X152939532Y-94167671D01*
X152915081Y-94132247D01*
X152900804Y-94119599D01*
X152787748Y-94019440D01*
X152787745Y-94019437D01*
X152637122Y-93940384D01*
X152471952Y-93899674D01*
X152301840Y-93899674D01*
X152136669Y-93940384D01*
X151986046Y-94019437D01*
X151858712Y-94132246D01*
X151762078Y-94272242D01*
X151701756Y-94431299D01*
X151701755Y-94431304D01*
X151681251Y-94600174D01*
X136884862Y-94600174D01*
X136856564Y-94421509D01*
X136790875Y-94219340D01*
X136694369Y-94029936D01*
X136694367Y-94029933D01*
X136694366Y-94029931D01*
X136569427Y-93857965D01*
X136419104Y-93707642D01*
X136247138Y-93582703D01*
X136243831Y-93581018D01*
X136238372Y-93578237D01*
X136187577Y-93530264D01*
X136170781Y-93462444D01*
X136193317Y-93396308D01*
X136238372Y-93357267D01*
X136247134Y-93352803D01*
X136269107Y-93336838D01*
X136419104Y-93227861D01*
X136419106Y-93227858D01*
X136419110Y-93227856D01*
X136569422Y-93077544D01*
X136569424Y-93077540D01*
X136569427Y-93077538D01*
X136694366Y-92905572D01*
X136694365Y-92905572D01*
X136694369Y-92905568D01*
X136790875Y-92716164D01*
X136856564Y-92513995D01*
X136889818Y-92304039D01*
X136889818Y-92091465D01*
X136856564Y-91881509D01*
X136790875Y-91679340D01*
X136694369Y-91489936D01*
X136694367Y-91489933D01*
X136694366Y-91489931D01*
X136569427Y-91317965D01*
X136419104Y-91167642D01*
X136247138Y-91042703D01*
X136246433Y-91042343D01*
X136238372Y-91038237D01*
X136187577Y-90990264D01*
X136170781Y-90922444D01*
X136193317Y-90856308D01*
X136238372Y-90817267D01*
X136247134Y-90812803D01*
X136269107Y-90796838D01*
X136419104Y-90687861D01*
X136419106Y-90687858D01*
X136419110Y-90687856D01*
X136569422Y-90537544D01*
X136569424Y-90537540D01*
X136569427Y-90537538D01*
X136694366Y-90365572D01*
X136694365Y-90365572D01*
X136694369Y-90365568D01*
X136790875Y-90176164D01*
X136856564Y-89973995D01*
X136889818Y-89764039D01*
X136889818Y-89551465D01*
X136856564Y-89341509D01*
X136790875Y-89139340D01*
X136694369Y-88949936D01*
X136694367Y-88949933D01*
X136694366Y-88949931D01*
X136569427Y-88777965D01*
X136419104Y-88627642D01*
X136247138Y-88502703D01*
X136246433Y-88502343D01*
X136238372Y-88498237D01*
X136187577Y-88450264D01*
X136170781Y-88382444D01*
X136193317Y-88316308D01*
X136238372Y-88277267D01*
X136247134Y-88272803D01*
X136284898Y-88245366D01*
X136419104Y-88147861D01*
X136419106Y-88147858D01*
X136419110Y-88147856D01*
X136569422Y-87997544D01*
X136569424Y-87997540D01*
X136569427Y-87997538D01*
X136694366Y-87825572D01*
X136694365Y-87825572D01*
X136694369Y-87825568D01*
X136790875Y-87636164D01*
X136856564Y-87433995D01*
X136889818Y-87224039D01*
X136889818Y-87011465D01*
X136856564Y-86801509D01*
X136790875Y-86599340D01*
X136694369Y-86409936D01*
X136694367Y-86409933D01*
X136694366Y-86409931D01*
X136569427Y-86237965D01*
X136419104Y-86087642D01*
X136247138Y-85962703D01*
X136246433Y-85962343D01*
X136238372Y-85958237D01*
X136187577Y-85910264D01*
X136170781Y-85842444D01*
X136193317Y-85776308D01*
X136238372Y-85737267D01*
X136247134Y-85732803D01*
X136277865Y-85710476D01*
X136419104Y-85607861D01*
X136419106Y-85607858D01*
X136419110Y-85607856D01*
X136569422Y-85457544D01*
X136569424Y-85457540D01*
X136569427Y-85457538D01*
X136694366Y-85285572D01*
X136694365Y-85285572D01*
X136694369Y-85285568D01*
X136790875Y-85096164D01*
X136856564Y-84893995D01*
X136889818Y-84684039D01*
X136889818Y-84471465D01*
X136856564Y-84261509D01*
X136790875Y-84059340D01*
X136694369Y-83869936D01*
X136694367Y-83869933D01*
X136694366Y-83869931D01*
X136569427Y-83697965D01*
X136419104Y-83547642D01*
X136247135Y-83422701D01*
X136237822Y-83417956D01*
X136187025Y-83369982D01*
X136170230Y-83302161D01*
X136192767Y-83236026D01*
X136237825Y-83196984D01*
X136246876Y-83192372D01*
X136418777Y-83067479D01*
X136418782Y-83067475D01*
X136569041Y-82917216D01*
X136569045Y-82917211D01*
X136693938Y-82745309D01*
X136790413Y-82555969D01*
X136856075Y-82353881D01*
X136856075Y-82353878D01*
X136866549Y-82287752D01*
X135522330Y-82287752D01*
X135555243Y-82230745D01*
X135589318Y-82103578D01*
X135589318Y-81971926D01*
X135555243Y-81844759D01*
X135522330Y-81787752D01*
X136866549Y-81787752D01*
X136856075Y-81721625D01*
X136856075Y-81721622D01*
X136809012Y-81576776D01*
X138096726Y-81576776D01*
X138117230Y-81745645D01*
X138117231Y-81745650D01*
X138177553Y-81904707D01*
X138274189Y-82044706D01*
X138357149Y-82118203D01*
X138394276Y-82177392D01*
X138393508Y-82247258D01*
X138357149Y-82303833D01*
X138274189Y-82377329D01*
X138177553Y-82517328D01*
X138117231Y-82676385D01*
X138117230Y-82676390D01*
X138096726Y-82845260D01*
X138117230Y-83014129D01*
X138117231Y-83014134D01*
X138177553Y-83173191D01*
X138274189Y-83313190D01*
X138374000Y-83401615D01*
X138411127Y-83460804D01*
X138410359Y-83530669D01*
X138374001Y-83587245D01*
X138274187Y-83675672D01*
X138177553Y-83815669D01*
X138117231Y-83974726D01*
X138117230Y-83974731D01*
X138096726Y-84143601D01*
X138117230Y-84312470D01*
X138117231Y-84312475D01*
X138177553Y-84471532D01*
X138274189Y-84611531D01*
X138348724Y-84677564D01*
X138385851Y-84736753D01*
X138385083Y-84806619D01*
X138348724Y-84863194D01*
X138274189Y-84929226D01*
X138177553Y-85069225D01*
X138117231Y-85228282D01*
X138117230Y-85228287D01*
X138096726Y-85397157D01*
X138117230Y-85566026D01*
X138117231Y-85566031D01*
X138177553Y-85725088D01*
X138227530Y-85797491D01*
X138270677Y-85860000D01*
X138274189Y-85865087D01*
X138355409Y-85937042D01*
X138392536Y-85996231D01*
X138391768Y-86066097D01*
X138355410Y-86122672D01*
X138274187Y-86194629D01*
X138177553Y-86334626D01*
X138117231Y-86493683D01*
X138117230Y-86493688D01*
X138096726Y-86662558D01*
X138117230Y-86831427D01*
X138117231Y-86831432D01*
X138177553Y-86990489D01*
X138244256Y-87087124D01*
X138270552Y-87125220D01*
X138274189Y-87130488D01*
X138354876Y-87201971D01*
X138392003Y-87261160D01*
X138391235Y-87331026D01*
X138354876Y-87387601D01*
X138274189Y-87459083D01*
X138177553Y-87599082D01*
X138117231Y-87758139D01*
X138117230Y-87758144D01*
X138096726Y-87927014D01*
X138117230Y-88095883D01*
X138117231Y-88095888D01*
X138177553Y-88254945D01*
X138201416Y-88289516D01*
X138274188Y-88394943D01*
X138360672Y-88471561D01*
X138397798Y-88530749D01*
X138397030Y-88600614D01*
X138360671Y-88657190D01*
X138274189Y-88733806D01*
X138177553Y-88873805D01*
X138117231Y-89032862D01*
X138117230Y-89032867D01*
X138096726Y-89201737D01*
X138117230Y-89370606D01*
X138117231Y-89370611D01*
X138177553Y-89529668D01*
X138192599Y-89551465D01*
X138274188Y-89669666D01*
X138362723Y-89748101D01*
X138399849Y-89807289D01*
X138399081Y-89877154D01*
X138362722Y-89933730D01*
X138274189Y-90012163D01*
X138177553Y-90152162D01*
X138117231Y-90311219D01*
X138117230Y-90311224D01*
X138096726Y-90480094D01*
X138117230Y-90648963D01*
X138117231Y-90648968D01*
X138177553Y-90808025D01*
X138210881Y-90856308D01*
X138272926Y-90946195D01*
X138274189Y-90948024D01*
X138343017Y-91009001D01*
X138380144Y-91068190D01*
X138379376Y-91138056D01*
X138343017Y-91194631D01*
X138274189Y-91255607D01*
X138177553Y-91395606D01*
X138117231Y-91554663D01*
X138117230Y-91554668D01*
X138096726Y-91723538D01*
X138117230Y-91892407D01*
X138117231Y-91892412D01*
X138177553Y-92051469D01*
X138274189Y-92191468D01*
X138386527Y-92290991D01*
X138423654Y-92350180D01*
X138422886Y-92420045D01*
X138386528Y-92476621D01*
X138274187Y-92576146D01*
X138177553Y-92716143D01*
X138117231Y-92875200D01*
X138117230Y-92875205D01*
X138096726Y-93044075D01*
X138117230Y-93212944D01*
X138117231Y-93212949D01*
X138177553Y-93372006D01*
X138194328Y-93396308D01*
X138274188Y-93512004D01*
X138367814Y-93594949D01*
X138401521Y-93624811D01*
X138546270Y-93700781D01*
X138552146Y-93703865D01*
X138717315Y-93744575D01*
X138887427Y-93744575D01*
X139052596Y-93703865D01*
X139132063Y-93662156D01*
X139203220Y-93624811D01*
X139203221Y-93624809D01*
X139203223Y-93624809D01*
X139330554Y-93512004D01*
X139427189Y-93372005D01*
X139487511Y-93212947D01*
X139508016Y-93044075D01*
X139498245Y-92963603D01*
X150857958Y-92963603D01*
X150878462Y-93132472D01*
X150878463Y-93132477D01*
X150938785Y-93291534D01*
X150989530Y-93365050D01*
X151035420Y-93431532D01*
X151141108Y-93525163D01*
X151162753Y-93544339D01*
X151299244Y-93615975D01*
X151313378Y-93623393D01*
X151478547Y-93664103D01*
X151648659Y-93664103D01*
X151813828Y-93623393D01*
X151899863Y-93578238D01*
X151964452Y-93544339D01*
X151964453Y-93544337D01*
X151964455Y-93544337D01*
X152091786Y-93431532D01*
X152188421Y-93291533D01*
X152248743Y-93132475D01*
X152269248Y-92963603D01*
X152248743Y-92794731D01*
X152188421Y-92635673D01*
X152091786Y-92495674D01*
X151996919Y-92411629D01*
X151964452Y-92382866D01*
X151813829Y-92303813D01*
X151648659Y-92263103D01*
X151478547Y-92263103D01*
X151313376Y-92303813D01*
X151162753Y-92382866D01*
X151035419Y-92495675D01*
X150938785Y-92635671D01*
X150878463Y-92794728D01*
X150878462Y-92794733D01*
X150857958Y-92963603D01*
X139498245Y-92963603D01*
X139487511Y-92875203D01*
X139427189Y-92716145D01*
X139330554Y-92576146D01*
X139330552Y-92576144D01*
X139218214Y-92476621D01*
X139181087Y-92417432D01*
X139181855Y-92347566D01*
X139218212Y-92290992D01*
X139330554Y-92191467D01*
X139427189Y-92051468D01*
X139487511Y-91892410D01*
X139508016Y-91723538D01*
X139487511Y-91554666D01*
X139427189Y-91395608D01*
X139330554Y-91255609D01*
X139261722Y-91194630D01*
X139224597Y-91135442D01*
X139225365Y-91065577D01*
X139261722Y-91009001D01*
X139330554Y-90948023D01*
X139427189Y-90808024D01*
X139487511Y-90648966D01*
X139508016Y-90480094D01*
X139487511Y-90311222D01*
X139427189Y-90152164D01*
X139330554Y-90012165D01*
X139242017Y-89933729D01*
X139204892Y-89874541D01*
X139205660Y-89804676D01*
X139242018Y-89748101D01*
X139321371Y-89677800D01*
X139330553Y-89669667D01*
X139403689Y-89563713D01*
X139427189Y-89529667D01*
X139487511Y-89370609D01*
X139508016Y-89201737D01*
X139487511Y-89032865D01*
X139427189Y-88873807D01*
X139330554Y-88733808D01*
X139244068Y-88657189D01*
X139206943Y-88598001D01*
X139207711Y-88528136D01*
X139244069Y-88471561D01*
X139324846Y-88400000D01*
X139330553Y-88394944D01*
X139335518Y-88387752D01*
X139427189Y-88254944D01*
X139487511Y-88095886D01*
X139508016Y-87927014D01*
X139487511Y-87758142D01*
X139427189Y-87599084D01*
X139330554Y-87459085D01*
X139249863Y-87387599D01*
X139212738Y-87328412D01*
X139213506Y-87258547D01*
X139249863Y-87201972D01*
X139330554Y-87130487D01*
X139427189Y-86990488D01*
X139487511Y-86831430D01*
X139508016Y-86662558D01*
X139487511Y-86493686D01*
X139485512Y-86488416D01*
X139427188Y-86334626D01*
X139368921Y-86250213D01*
X139330554Y-86194629D01*
X139324609Y-86189362D01*
X139249332Y-86122672D01*
X139212205Y-86063483D01*
X139212243Y-86059996D01*
X142811373Y-86059996D01*
X142811373Y-86060003D01*
X142831568Y-86239249D01*
X142831569Y-86239254D01*
X142891149Y-86409523D01*
X142987122Y-86562262D01*
X143097179Y-86672319D01*
X143130664Y-86733642D01*
X143125680Y-86803334D01*
X143097179Y-86847681D01*
X142987122Y-86957737D01*
X142891149Y-87110476D01*
X142831569Y-87280745D01*
X142831568Y-87280750D01*
X142811373Y-87459996D01*
X142811373Y-87460003D01*
X142831568Y-87639249D01*
X142831569Y-87639254D01*
X142891149Y-87809523D01*
X142964974Y-87927014D01*
X142987122Y-87962262D01*
X143114676Y-88089816D01*
X143131379Y-88100311D01*
X143226546Y-88160109D01*
X143267416Y-88185789D01*
X143437683Y-88245368D01*
X143437692Y-88245369D01*
X143438145Y-88245473D01*
X143438415Y-88245624D01*
X143444256Y-88247668D01*
X143443898Y-88248690D01*
X143499129Y-88279573D01*
X143528315Y-88333017D01*
X143529271Y-88332683D01*
X143531300Y-88338483D01*
X143531461Y-88338777D01*
X143531569Y-88339250D01*
X143531570Y-88339255D01*
X143559279Y-88418443D01*
X143591148Y-88509521D01*
X143673065Y-88639890D01*
X143687122Y-88662262D01*
X143814676Y-88789816D01*
X143815300Y-88790208D01*
X143953119Y-88876806D01*
X143967416Y-88885789D01*
X144137683Y-88945368D01*
X144137688Y-88945369D01*
X144316934Y-88965565D01*
X144316938Y-88965565D01*
X144316942Y-88965565D01*
X144496187Y-88945369D01*
X144496190Y-88945368D01*
X144496193Y-88945368D01*
X144666460Y-88885789D01*
X144819200Y-88789816D01*
X144929257Y-88679759D01*
X144990580Y-88646274D01*
X145060272Y-88651258D01*
X145104619Y-88679759D01*
X145214676Y-88789816D01*
X145215300Y-88790208D01*
X145353119Y-88876806D01*
X145367416Y-88885789D01*
X145537683Y-88945368D01*
X145537688Y-88945369D01*
X145716934Y-88965565D01*
X145716938Y-88965565D01*
X145716942Y-88965565D01*
X145896187Y-88945369D01*
X145896190Y-88945368D01*
X145896193Y-88945368D01*
X146066460Y-88885789D01*
X146219200Y-88789816D01*
X146346754Y-88662262D01*
X146442727Y-88509522D01*
X146502306Y-88339255D01*
X146502307Y-88339243D01*
X146502411Y-88338793D01*
X146502562Y-88338522D01*
X146504606Y-88332682D01*
X146505628Y-88333039D01*
X146536511Y-88277809D01*
X146589955Y-88248626D01*
X146589620Y-88247668D01*
X146595442Y-88245630D01*
X146595731Y-88245473D01*
X146596181Y-88245369D01*
X146596193Y-88245368D01*
X146766460Y-88185789D01*
X146919200Y-88089816D01*
X147046754Y-87962262D01*
X147142727Y-87809522D01*
X147202306Y-87639255D01*
X147202654Y-87636166D01*
X147222503Y-87460003D01*
X147222503Y-87459996D01*
X147202307Y-87280750D01*
X147202306Y-87280745D01*
X147174741Y-87201970D01*
X147142727Y-87110478D01*
X147046754Y-86957738D01*
X146936697Y-86847681D01*
X146903212Y-86786358D01*
X146908196Y-86716666D01*
X146936697Y-86672319D01*
X146951725Y-86657291D01*
X147046754Y-86562262D01*
X147142727Y-86409522D01*
X147202306Y-86239255D01*
X147202307Y-86239249D01*
X147222503Y-86060003D01*
X147222503Y-86059996D01*
X147202307Y-85880750D01*
X147202306Y-85880745D01*
X147188904Y-85842444D01*
X147142727Y-85710478D01*
X147046754Y-85557738D01*
X146919200Y-85430184D01*
X146855248Y-85390000D01*
X146766459Y-85334210D01*
X146662460Y-85297820D01*
X146596193Y-85274632D01*
X146596189Y-85274631D01*
X146596188Y-85274631D01*
X146595715Y-85274523D01*
X146595439Y-85274369D01*
X146589621Y-85272333D01*
X146589977Y-85271313D01*
X146534736Y-85240416D01*
X146505564Y-85186982D01*
X146504606Y-85187318D01*
X146502568Y-85181496D01*
X146502411Y-85181207D01*
X146502307Y-85180754D01*
X146502306Y-85180745D01*
X146442727Y-85010478D01*
X146346754Y-84857738D01*
X146219200Y-84730184D01*
X146172331Y-84700734D01*
X146066461Y-84634211D01*
X145896192Y-84574631D01*
X145896187Y-84574630D01*
X145716942Y-84554435D01*
X145716934Y-84554435D01*
X145537688Y-84574630D01*
X145537683Y-84574631D01*
X145367414Y-84634211D01*
X145214675Y-84730184D01*
X145104619Y-84840241D01*
X145043296Y-84873726D01*
X144973604Y-84868742D01*
X144929257Y-84840241D01*
X144819200Y-84730184D01*
X144666461Y-84634211D01*
X144496192Y-84574631D01*
X144496187Y-84574630D01*
X144316942Y-84554435D01*
X144316934Y-84554435D01*
X144137688Y-84574630D01*
X144137683Y-84574631D01*
X143967414Y-84634211D01*
X143814675Y-84730184D01*
X143687122Y-84857737D01*
X143591148Y-85010478D01*
X143531566Y-85180755D01*
X143531456Y-85181241D01*
X143531298Y-85181522D01*
X143529271Y-85187317D01*
X143528255Y-85186961D01*
X143497338Y-85242215D01*
X143443922Y-85271381D01*
X143444255Y-85272333D01*
X143438479Y-85274353D01*
X143438179Y-85274518D01*
X143437693Y-85274628D01*
X143267416Y-85334210D01*
X143114675Y-85430184D01*
X142987122Y-85557737D01*
X142891149Y-85710476D01*
X142831569Y-85880745D01*
X142831568Y-85880750D01*
X142811373Y-86059996D01*
X139212243Y-86059996D01*
X139212973Y-85993617D01*
X139249330Y-85937043D01*
X139330554Y-85865086D01*
X139427189Y-85725087D01*
X139487511Y-85566029D01*
X139508016Y-85397157D01*
X139487511Y-85228285D01*
X139484797Y-85221130D01*
X139427188Y-85069225D01*
X139358307Y-84969435D01*
X139330554Y-84929228D01*
X139256015Y-84863193D01*
X139218890Y-84804005D01*
X139219658Y-84734140D01*
X139256015Y-84677564D01*
X139330554Y-84611530D01*
X139427189Y-84471531D01*
X139487511Y-84312473D01*
X139508016Y-84143601D01*
X139487511Y-83974729D01*
X139478560Y-83951128D01*
X139427188Y-83815669D01*
X139354396Y-83710213D01*
X139330554Y-83675672D01*
X139257481Y-83610935D01*
X139230741Y-83587245D01*
X139193614Y-83528056D01*
X139194382Y-83458190D01*
X139230739Y-83401616D01*
X139330554Y-83313189D01*
X139427189Y-83173190D01*
X139487511Y-83014132D01*
X139508016Y-82845260D01*
X139487511Y-82676388D01*
X139427189Y-82517330D01*
X139330554Y-82377331D01*
X139247591Y-82303832D01*
X139210465Y-82244644D01*
X139211233Y-82174779D01*
X139247591Y-82118203D01*
X139330554Y-82044705D01*
X139427189Y-81904706D01*
X139487511Y-81745648D01*
X139508016Y-81576776D01*
X139487511Y-81407904D01*
X139427189Y-81248846D01*
X139330554Y-81108847D01*
X139230149Y-81019896D01*
X139203220Y-80996039D01*
X139052597Y-80916986D01*
X138887427Y-80876276D01*
X138717315Y-80876276D01*
X138552144Y-80916986D01*
X138401521Y-80996039D01*
X138274187Y-81108848D01*
X138177553Y-81248844D01*
X138117231Y-81407901D01*
X138117230Y-81407906D01*
X138096726Y-81576776D01*
X136809012Y-81576776D01*
X136790413Y-81519534D01*
X136693938Y-81330194D01*
X136569045Y-81158292D01*
X136569041Y-81158287D01*
X136418782Y-81008028D01*
X136418777Y-81008024D01*
X136246876Y-80883131D01*
X136237272Y-80878238D01*
X136186475Y-80830264D01*
X136169679Y-80762444D01*
X136192215Y-80696308D01*
X136237272Y-80657266D01*
X136246876Y-80652372D01*
X136418777Y-80527479D01*
X136418782Y-80527475D01*
X136569041Y-80377216D01*
X136569045Y-80377211D01*
X136693938Y-80205309D01*
X136790413Y-80015969D01*
X136856075Y-79813881D01*
X136856075Y-79813878D01*
X136866549Y-79747752D01*
X135522330Y-79747752D01*
X135555243Y-79690745D01*
X135589318Y-79563578D01*
X135589318Y-79431926D01*
X135555243Y-79304759D01*
X135522330Y-79247752D01*
X136866549Y-79247752D01*
X136856075Y-79181625D01*
X136856075Y-79181622D01*
X136790413Y-78979534D01*
X136693938Y-78790194D01*
X136569045Y-78618292D01*
X136569041Y-78618287D01*
X136418782Y-78468028D01*
X136418777Y-78468024D01*
X136246875Y-78343131D01*
X136057535Y-78246656D01*
X135855447Y-78180994D01*
X135645564Y-78147752D01*
X135339318Y-78147752D01*
X135339318Y-79064740D01*
X135282311Y-79031827D01*
X135155144Y-78997752D01*
X135023492Y-78997752D01*
X134896325Y-79031827D01*
X134839318Y-79064740D01*
X134839318Y-78147752D01*
X134533072Y-78147752D01*
X134323190Y-78180994D01*
X134323187Y-78180994D01*
X134121100Y-78246656D01*
X133930295Y-78343877D01*
X133861626Y-78356773D01*
X133796885Y-78330497D01*
X133756628Y-78273390D01*
X133750000Y-78233392D01*
X133750000Y-72004793D01*
X133750370Y-71995221D01*
X133754207Y-71945662D01*
X133759724Y-71917480D01*
X133792325Y-71815489D01*
X133806119Y-71786209D01*
X133862999Y-71697699D01*
X133883896Y-71672994D01*
X133928718Y-71632246D01*
X133991565Y-71601717D01*
X134012129Y-71600000D01*
X158987571Y-71600000D01*
X159054610Y-71619685D01*
G37*
%TD.AperFunction*%
%TA.AperFunction,Conductor*%
G36*
X135339318Y-81604740D02*
G01*
X135282311Y-81571827D01*
X135155144Y-81537752D01*
X135023492Y-81537752D01*
X134896325Y-81571827D01*
X134839318Y-81604740D01*
X134839318Y-79930764D01*
X134896325Y-79963677D01*
X135023492Y-79997752D01*
X135155144Y-79997752D01*
X135282311Y-79963677D01*
X135339318Y-79930764D01*
X135339318Y-81604740D01*
G37*
%TD.AperFunction*%
%TD*%
M02*
